<svg xmlns="http://www.w3.org/2000/svg" width="39.617" height="39.617" viewBox="0 0 39.617 39.617"><g transform="translate(-450.5 -266.5)"><path d="M470.309,458.5a16.821,16.821,0,1,1-3.28.323A16.817,16.817,0,0,1,470.309,458.5Z" transform="translate(0 -189)" fill="#fff"/><g transform="translate(0 -189)" fill="#1cb0f6"><path d="M 470.30859375 493.6172485351562 C 469.1151428222656 493.6172485351562 467.9134216308594 493.4989013671875 466.7368774414062 493.2655334472656 C 465.5636596679688 493.0325012207031 464.408203125 492.6821594238281 463.3021850585938 492.2242126464844 C 462.2029418945312 491.7690734863281 461.1382751464844 491.1998596191406 460.1378173828125 490.5323791503906 C 459.1385192871094 489.8640441894531 458.2051391601562 489.0981750488281 457.362060546875 488.2550964355469 C 456.5191650390625 487.4122619628906 455.7532653808594 486.4788513183594 455.0857543945312 485.4808349609375 C 454.417236328125 484.478759765625 453.8480529785156 483.4140930175781 453.3930053710938 482.3149719238281 C 452.9351501464844 481.209228515625 452.5848083496094 480.0537719726562 452.3517456054688 478.8808288574219 C 452.1183166503906 477.7040100097656 452 476.5023193359375 452 475.3086547851562 C 452 474.1149597167969 452.1183166503906 472.9132385253906 452.3516540527344 471.7368774414062 C 452.5848083496094 470.5634765625 452.9351501464844 469.4080200195312 453.3930358886719 468.3021850585938 C 453.8480529785156 467.2031555175781 454.417236328125 466.1384887695312 455.0847778320312 465.1378784179688 C 455.7532653808594 464.1383972167969 456.5191650390625 463.2049865722656 457.3621215820312 462.3620910644531 C 458.2051391601562 461.5190734863281 459.1385192871094 460.7532043457031 460.1363525390625 460.0858154296875 C 461.1382751464844 459.4173889160156 462.2029418945312 458.8481750488281 463.3022155761719 458.3930358886719 C 464.4082336425781 457.9350891113281 465.5636901855469 457.5847473144531 466.7365112304688 457.351806640625 C 467.9134216308594 457.1183471679688 469.1151123046875 457 470.30859375 457 C 471.5020751953125 457 472.7037658691406 457.1183471679688 473.8803100585938 457.3517456054688 C 475.0535583496094 457.5847778320312 476.2090148925781 457.9350891113281 477.3150024414062 458.3930358886719 C 478.4172668457031 458.85009765625 479.4816589355469 459.4192199707031 480.4793701171875 460.0848693847656 C 481.4785766601562 460.7531433105469 482.4120178222656 461.5190124511719 483.255126953125 462.3621520996094 C 484.0979919433594 463.2049865722656 484.8638305664062 464.1383666992188 485.5313720703125 465.1363525390625 C 486.1997985839844 466.1382446289062 486.7689514160156 467.2028503417969 487.2241516113281 468.3021850585938 C 487.6820983886719 469.4081420898438 488.0324096679688 470.5636291503906 488.265380859375 471.7364807128906 C 488.4988403320312 472.9130859375 488.6171875 474.1148376464844 488.6171875 475.3086547851562 C 488.6171875 476.50244140625 488.4988403320312 477.7041625976562 488.2654418945312 478.8804321289062 C 488.0324096679688 480.0536193847656 487.6820983886719 481.2091064453125 487.2241516113281 482.3150634765625 C 486.7689514160156 483.4143981933594 486.1997985839844 484.47900390625 485.5324096679688 485.4793701171875 C 484.8638305664062 486.4788818359375 484.0979919433594 487.4122619628906 483.2550964355469 488.255126953125 C 482.4120178222656 489.0982360839844 481.4785766601562 489.8641052246094 480.4807434082031 490.5314636230469 C 479.4816589355469 491.1980285644531 478.4172668457031 491.7671508789062 477.3157043457031 492.2239074707031 C 476.2090454101562 492.6821594238281 475.0535888671875 493.032470703125 473.8807067871094 493.2654418945312 C 472.7037658691406 493.4989013671875 471.5020446777344 493.6172485351562 470.30859375 493.6172485351562 Z" stroke="none"/><path d="M 470.30859375 458.5 C 469.205078125 458.5 468.11181640625 458.6082153320312 467.0287475585938 458.8230590820312 C 465.9470825195312 459.0379028320312 464.896240234375 459.3565063476562 463.8760375976562 459.7789306640625 C 462.8557739257812 460.2013549804688 461.8882446289062 460.72021484375 460.9702758789062 461.3326416015625 C 460.0524291992188 461.946533203125 459.2032470703125 462.6422729492188 458.4227294921875 463.4227905273438 C 457.6422119140625 464.2032470703125 456.9464721679688 465.052490234375 456.3325805664062 465.9703369140625 C 455.72021484375 466.8882446289062 455.2012939453125 467.8558349609375 454.7789306640625 468.8760375976562 C 454.3565063476562 469.896240234375 454.0379028320312 470.9471435546875 453.822998046875 472.0287475585938 C 453.608154296875 473.11181640625 453.5 474.205078125 453.5 475.3086547851562 C 453.5 476.4121704101562 453.608154296875 477.5054321289062 453.822998046875 478.5885009765625 C 454.0379028320312 479.6701049804688 454.3565063476562 480.7210083007812 454.7789306640625 481.7412109375 C 455.2012939453125 482.7614135742188 455.72021484375 483.72900390625 456.3325805664062 484.6469116210938 C 456.9464721679688 485.5647583007812 457.6422119140625 486.4140014648438 458.4227294921875 487.1944580078125 C 459.2032470703125 487.9749755859375 460.0524291992188 488.6707153320312 460.9702758789062 489.2846069335938 C 461.8882446289062 489.8970336914062 462.8557739257812 490.4158935546875 463.8760375976562 490.8383178710938 C 464.896240234375 491.2607421875 465.9470825195312 491.579345703125 467.0287475585938 491.794189453125 C 468.11181640625 492.009033203125 469.205078125 492.1172485351562 470.30859375 492.1172485351562 C 471.412109375 492.1172485351562 472.50537109375 492.009033203125 473.5884399414062 491.794189453125 C 474.6700439453125 491.579345703125 475.720947265625 491.2607421875 476.7411499023438 490.8383178710938 C 477.7598876953125 490.4158935546875 478.7289428710938 489.8970336914062 479.6468505859375 489.2846069335938 C 480.5647583007812 488.6707153320312 481.4139404296875 487.9749755859375 482.1944580078125 487.1944580078125 C 482.9749145507812 486.4140014648438 483.670654296875 485.5647583007812 484.2846069335938 484.6469116210938 C 484.89697265625 483.72900390625 485.4158325195312 482.7614135742188 485.8382568359375 481.7412109375 C 486.2606811523438 480.7210083007812 486.5792846679688 479.6701049804688 486.7941284179688 478.5885009765625 C 487.009033203125 477.5054321289062 487.1171875 476.4121704101562 487.1171875 475.3086547851562 C 487.1171875 474.205078125 487.009033203125 473.11181640625 486.7941284179688 472.0287475585938 C 486.5792846679688 470.9471435546875 486.2606811523438 469.896240234375 485.8382568359375 468.8760375976562 C 485.4158325195312 467.8558349609375 484.89697265625 466.8882446289062 484.2846069335938 465.9703369140625 C 483.670654296875 465.052490234375 482.9749145507812 464.2032470703125 482.1944580078125 463.4227905273438 C 481.4139404296875 462.6422729492188 480.5647583007812 461.946533203125 479.6468505859375 461.3326416015625 C 478.7289428710938 460.72021484375 477.7598876953125 460.2013549804688 476.7411499023438 459.7789306640625 C 475.720947265625 459.3565063476562 474.6700439453125 459.0379028320312 473.5884399414062 458.8230590820312 C 472.50537109375 458.6082153320312 471.412109375 458.5 470.30859375 458.5 M 470.30859375 455.5 C 471.5998229980469 455.5 472.8997192382812 455.6279907226562 474.1721496582031 455.88037109375 C 475.4420471191406 456.1326293945312 476.6922607421875 456.5116882324219 477.8888549804688 457.0071411132812 C 479.0818786621094 457.5018310546875 480.2330627441406 458.1173400878906 481.3118591308594 458.8370971679688 C 482.3937683105469 459.5606689453125 483.4035034179688 460.3891906738281 484.3157958984375 461.3014831542969 C 485.227783203125 462.2134704589844 486.0562438964844 463.2231140136719 486.7781677246094 464.3023681640625 C 487.5018310546875 465.3870849609375 488.1174621582031 466.5387268066406 488.6100463867188 467.7283630371094 C 489.1054992675781 468.9249572753906 489.4845581054688 470.1751708984375 489.7366333007812 471.4442749023438 C 489.9891967773438 472.717041015625 490.1171875 474.0169982910156 490.1171875 475.3086547851562 C 490.1171875 476.6002502441406 489.9891967773438 477.9002075195312 489.7367553710938 479.1723937988281 C 489.4845581054688 480.4420776367188 489.1054992675781 481.6922912597656 488.6100463867188 482.888916015625 C 488.1174621582031 484.0785217285156 487.5018310546875 485.2301635742188 486.7802124023438 486.3118286132812 C 486.0562438964844 487.3941345214844 485.227783203125 488.4037780761719 484.3157653808594 489.3157958984375 C 483.4035034179688 490.2280578613281 482.3937683105469 491.0565795898438 481.3146362304688 491.7782897949219 C 480.2330627441406 492.4999084472656 479.0818786621094 493.1154174804688 477.8902587890625 493.6095275878906 C 476.6922302246094 494.1055603027344 475.4420166015625 494.484619140625 474.1729125976562 494.7366943359375 C 472.8997497558594 494.9892578125 471.599853515625 495.1172485351562 470.30859375 495.1172485351562 C 469.017333984375 495.1172485351562 467.7174377441406 494.9892578125 466.4450073242188 494.7368469238281 C 465.1752624511719 494.4846496582031 463.9250183105469 494.1055908203125 462.7283325195312 493.610107421875 C 461.538818359375 493.1176147460938 460.3871154785156 492.5019226074219 459.3053283691406 491.7801818847656 C 458.2233276367188 491.0564880371094 457.213623046875 490.2279968261719 456.3013916015625 489.3157653808594 C 455.3893737792969 488.40380859375 454.5608215332031 487.3940734863281 453.8389587402344 486.3147583007812 C 453.1151733398438 485.2298889160156 452.49951171875 484.0782165527344 452.007080078125 482.8887634277344 C 451.5117492675781 481.6924438476562 451.1326904296875 480.4422912597656 450.8805236816406 479.1731567382812 C 450.6279602050781 477.8999633789062 450.5 476.60009765625 450.5 475.3086547851562 C 450.5 474.0171813964844 450.6279602050781 472.71728515625 450.8803100585938 471.4450378417969 C 451.1326904296875 470.1749572753906 451.5117492675781 468.9248046875 452.0071411132812 467.7283325195312 C 452.49951171875 466.5390319824219 453.1151733398438 465.3873596191406 453.8369750976562 464.305419921875 C 454.5608215332031 463.2231750488281 455.3893737792969 462.2134399414062 456.301513671875 461.3013610839844 C 457.213623046875 460.3892517089844 458.2233276367188 459.5607604980469 459.3024291992188 458.8389892578125 C 460.3871154785156 458.1153259277344 461.538818359375 457.4996337890625 462.7284240722656 457.0071105957031 C 463.9250183105469 456.5116577148438 465.1752319335938 456.1326293945312 466.4442749023438 455.8805541992188 C 467.7174682617188 455.6279907226562 469.0173645019531 455.5 470.30859375 455.5 Z" stroke="none" fill="#fff"/></g><path d="M467.6,469.194a2.324,2.324,0,1,1-3.287,0,2.323,2.323,0,0,1,3.287,0" transform="translate(4.68 -184.378)" fill="#fff"/><path d="M468.163,477.5a4.648,4.648,0,1,1,4.646-4.648A4.653,4.653,0,0,1,468.163,477.5Zm6.97-11.038h-1.6l-1.163-2.324h-8.407l-1.161,2.325-1.6,0a2.328,2.328,0,0,0-2.32,2.323l-.006,9.292a2.326,2.326,0,0,0,2.323,2.324h13.942a2.326,2.326,0,0,0,2.324-2.324v-9.294A2.326,2.326,0,0,0,475.134,466.465Z" transform="translate(2.478 -186.396)" fill="#fff"/></g></svg>