<svg width="251" height="187" viewBox="0 0 251 187" fill="none" xmlns="http://www.w3.org/2000/svg">
<g clip-path="url(#clip0_5851_989)">
<path d="M34.8738 100.601C38.0353 100.34 41.1621 99.759 44.2065 98.8677C44.8759 98.6537 45.4582 98.229 45.8665 97.657C46.2748 97.085 46.4873 96.3964 46.4724 95.6938C46.3041 92.2228 45.7607 88.7803 44.8516 85.4263C43.3908 78.7635 39.6696 72.8114 34.3195 68.58C28.581 64.8942 21.7439 63.3073 14.9686 64.0887C14.6634 64.1154 14.3629 64.1417 14.0624 64.1679C10.9001 64.429 7.77251 65.0097 4.72735 65.9012C4.05891 66.1161 3.47772 66.541 3.07029 67.1129C2.66286 67.6847 2.45098 68.3728 2.46618 69.0747C2.63458 72.5457 3.178 75.9882 4.08694 79.3422C5.54621 86.0053 9.26578 91.9584 14.6145 96.1913C20.3554 99.8746 27.1939 101.458 33.9693 100.673C34.2765 100.651 34.578 100.627 34.8738 100.601Z" fill="#8CD7FA"/>
<path d="M86.719 182.505C92.1811 182.206 97.4307 180.288 101.799 176.996C106.876 172.441 110.22 166.269 111.264 159.529C111.972 156.126 112.304 152.656 112.253 149.18C112.224 148.478 111.97 147.805 111.527 147.259C111.084 146.714 110.477 146.326 109.796 146.154C106.401 145.385 102.933 144.992 99.4524 144.983C98.1101 144.972 96.7781 145.025 95.4986 145.136C90.0367 145.438 84.7882 147.358 80.4213 150.653C75.3449 155.208 72.0008 161.379 70.956 168.12C70.2488 171.523 69.9173 174.993 69.9674 178.468C69.9962 179.17 70.251 179.844 70.6938 180.389C71.1366 180.935 71.7437 181.322 72.4248 181.495C75.8138 182.26 79.2767 182.651 82.7511 182.66C84.1051 182.67 85.4395 182.617 86.719 182.505Z" fill="#8CD7FA"/>
<path d="M46.1417 148.557C51.3202 147.968 56.2843 146.156 60.6239 143.27C63.5738 141.433 66.3128 139.277 68.7918 136.841C69.2803 136.336 69.5925 135.686 69.6816 134.989C69.7708 134.292 69.6322 133.584 69.2866 132.972C67.4976 129.994 65.3911 127.217 63.004 124.692C58.5665 119.513 52.4741 116.028 45.76 114.829C44.2037 114.635 42.631 114.608 41.069 114.749C35.8905 115.338 30.9264 117.15 26.5867 120.036C23.6368 121.872 20.8976 124.026 18.4185 126.46C17.93 126.966 17.6181 127.615 17.5294 128.313C17.4406 129.01 17.5798 129.717 17.9261 130.329C19.7153 133.307 21.8217 136.083 24.2087 138.609C28.6455 143.79 34.7382 147.276 41.453 148.476C41.6921 148.505 41.9143 148.531 42.1483 148.555C43.4767 148.675 44.8132 148.675 46.1417 148.557Z" fill="#8CD7FA"/>
<path d="M48.4932 51.3617C49.0662 51.3116 49.6157 51.1102 50.0854 50.7783C50.5552 50.4463 50.9284 49.9956 51.167 49.4722C52.5323 46.2776 53.5484 42.9448 54.1973 39.5318C55.8047 32.9063 55.0715 25.9289 52.1221 19.7822C48.573 13.9546 43.1166 9.53477 36.6792 7.27294C33.4624 5.96078 30.113 5.00091 26.6896 4.41011C25.9934 4.30646 25.2824 4.43247 24.6643 4.76905C24.0461 5.10562 23.5545 5.63444 23.2638 6.27543C21.8943 9.46749 20.8741 12.7983 20.221 16.2098C18.6158 22.8393 19.3534 29.8201 22.3088 35.9678C25.8547 41.7922 31.3056 46.2113 37.7375 48.4759C40.9542 49.7881 44.3036 50.748 47.7271 51.3387C47.9807 51.3765 48.2378 51.3842 48.4932 51.3617Z" fill="#8CD7FA"/>
<path d="M214.796 100.635C211.635 100.373 208.509 99.7928 205.465 98.9017C204.796 98.6877 204.214 98.263 203.805 97.691C203.397 97.119 203.184 96.4304 203.199 95.7278C203.368 92.2568 203.911 88.8143 204.82 85.4603C206.28 78.798 209.999 72.8458 215.348 68.6136C221.088 64.9294 227.927 63.3452 234.703 64.1298C235.005 64.1562 235.306 64.1825 235.602 64.2083C238.764 64.4694 241.892 65.0501 244.937 65.9416C245.605 66.1552 246.187 66.5788 246.595 67.1494C247.003 67.7199 247.217 68.407 247.203 69.1085C247.035 72.5795 246.491 76.022 245.582 79.376C244.122 86.0386 240.402 91.9907 235.053 96.2225C229.314 99.9088 222.476 101.496 215.699 100.714C215.393 100.687 215.091 100.66 214.796 100.635Z" fill="#8CD7FA"/>
<path d="M162.954 182.539C157.491 182.237 152.242 180.316 147.874 177.022C142.797 172.467 139.453 166.296 138.409 159.555C137.701 156.152 137.37 152.682 137.42 149.207C137.449 148.505 137.704 147.831 138.146 147.286C138.589 146.74 139.196 146.353 139.877 146.18C143.266 145.414 146.729 145.024 150.204 145.015C151.555 145.005 152.887 145.058 154.167 145.169C159.631 145.467 164.882 147.385 169.252 150.679C174.329 155.236 177.673 161.41 178.717 168.153C179.424 171.556 179.755 175.026 179.705 178.502C179.676 179.204 179.42 179.878 178.977 180.424C178.533 180.969 177.925 181.356 177.243 181.528C173.854 182.294 170.391 182.686 166.917 182.696C165.567 182.703 164.233 182.651 162.954 182.539Z" fill="#8CD7FA"/>
<path d="M203.527 148.592C198.345 148.005 193.378 146.193 189.036 143.305C186.086 141.468 183.347 139.312 180.868 136.876C180.379 136.371 180.067 135.721 179.978 135.024C179.889 134.327 180.027 133.619 180.373 133.007C182.162 130.029 184.268 127.252 186.656 124.728C191.092 119.547 197.184 116.06 203.898 114.859C205.454 114.665 207.027 114.638 208.589 114.779C213.767 115.368 218.731 117.18 223.071 120.066C226.021 121.903 228.76 124.059 231.239 126.495C231.73 126.999 232.044 127.649 232.135 128.347C232.226 129.045 232.088 129.754 231.743 130.367C229.953 133.345 227.847 136.122 225.46 138.647C221.023 143.827 214.93 147.313 208.216 148.512C207.977 148.541 207.755 148.567 207.521 148.589C206.192 148.709 204.856 148.71 203.527 148.592Z" fill="#8CD7FA"/>
<path d="M201.175 51.3979C200.602 51.3477 200.053 51.1464 199.583 50.8144C199.113 50.4825 198.74 50.0318 198.502 49.5084C197.133 46.3147 196.114 42.9824 195.462 39.5695C193.857 32.9425 194.593 25.9643 197.546 19.8184C201.094 13.9918 206.547 9.57189 212.982 7.3085C216.199 5.99636 219.548 5.03648 222.972 4.44566C223.668 4.34103 224.379 4.46608 224.998 4.80185C225.616 5.13762 226.109 5.66583 226.4 6.3065C227.772 9.5023 228.793 12.8372 229.447 16.253C231.05 22.8795 230.313 29.8566 227.36 36.0016C223.814 41.827 218.363 46.247 211.931 48.5121C208.714 49.8243 205.365 50.7842 201.941 51.3749C201.688 51.4126 201.431 51.4204 201.175 51.3979Z" fill="#8CD7FA"/>
<path d="M76.79 93.3533C76.79 93.3061 76.79 93.259 76.79 93.2118V26.0882C76.79 25.463 77.0384 24.8634 77.4804 24.4214C77.9225 23.9793 78.5221 23.731 79.1472 23.731H173.907C174.532 23.731 175.131 23.9793 175.574 24.4214C176.016 24.8634 176.264 25.463 176.264 26.0882V93.2118C176.264 93.259 176.264 93.3061 176.264 93.3533C175.913 115.982 153.781 134.251 126.527 134.251C99.273 134.251 77.146 115.989 76.79 93.3533Z" fill="#1CB0F6" stroke="#1CB0F6" stroke-width="8.5"/>
<path d="M78.0586 102.127L156.459 23.7266H173.902C174.528 23.7266 175.127 23.9749 175.569 24.417C176.011 24.859 176.26 25.4586 176.26 26.0838V37.1084L91.3084 122.062C84.9647 116.921 80.3419 109.966 78.0586 102.127Z" fill="#56C9FF"/>
<path d="M112.458 68.85V76.575H95.2079V68.85H112.458ZM106.458 76.575L107.508 70.65C111.558 70.65 114.908 71.15 117.558 72.15C120.258 73.15 122.283 74.575 123.633 76.425C125.033 78.225 125.733 80.375 125.733 82.875C125.733 87.675 123.933 91.25 120.333 93.6C116.783 95.9 111.733 97.05 105.183 97.05C103.983 97.05 102.608 97 101.058 96.9C99.5579 96.85 98.0329 96.7 96.4829 96.45C94.9829 96.2 93.5829 95.85 92.2829 95.4C89.7329 94.5 88.4579 92.9 88.4579 90.6V54.45C88.4579 53.5 88.7329 52.75 89.2829 52.2C89.8329 51.65 90.5579 51.225 91.4579 50.925C93.1579 50.375 95.1829 49.975 97.5329 49.725C99.8829 49.475 102.308 49.35 104.808 49.35C110.908 49.35 115.633 50.425 118.983 52.575C122.383 54.675 124.083 57.9 124.083 62.25C124.083 64.65 123.383 66.7 121.983 68.4C120.633 70.1 118.658 71.4 116.058 72.3C113.458 73.2 110.233 73.65 106.383 73.65L105.858 68.85C108.408 68.85 110.283 68.35 111.483 67.35C112.733 66.35 113.358 64.925 113.358 63.075C113.358 61.325 112.633 59.975 111.183 59.025C109.783 58.075 107.683 57.6 104.883 57.6C103.833 57.6 102.758 57.65 101.658 57.75C100.558 57.8 99.6579 57.9 98.9579 58.05V88.125C99.8079 88.325 100.858 88.475 102.108 88.575C103.408 88.675 104.633 88.725 105.783 88.725C108.533 88.725 110.708 88.225 112.308 87.225C113.908 86.175 114.708 84.575 114.708 82.425C114.708 80.475 114.008 79.025 112.608 78.075C111.208 77.075 109.158 76.575 106.458 76.575ZM132.965 54.825C132.965 53.425 133.54 52.2 134.69 51.15C135.89 50.1 137.515 49.3 139.565 48.75C141.615 48.15 143.94 47.85 146.54 47.85C150.29 47.85 153.465 48.45 156.065 49.65C158.665 50.85 160.615 52.5 161.915 54.6C163.265 56.7 163.94 59.125 163.94 61.875C163.94 64.625 163.165 67.325 161.615 69.975C160.065 72.575 157.59 75.375 154.19 78.375L142.865 88.125H163.49C163.74 88.525 163.965 89.075 164.165 89.775C164.415 90.475 164.54 91.225 164.54 92.025C164.54 93.325 164.215 94.325 163.565 95.025C162.965 95.675 162.115 96 161.015 96H133.94C133.09 95.4 132.415 94.65 131.915 93.75C131.465 92.85 131.24 91.825 131.24 90.675C131.24 89.375 131.515 88.25 132.065 87.3C132.615 86.3 133.24 85.475 133.94 84.825L146.165 73.725C149.065 71.125 151.065 68.975 152.165 67.275C153.265 65.575 153.815 63.9 153.815 62.25C153.815 60.4 153.115 58.9 151.715 57.75C150.315 56.55 148.29 55.95 145.64 55.95C143.49 55.95 141.565 56.3 139.865 57C138.165 57.7 136.765 58.45 135.665 59.25C134.965 58.8 134.34 58.225 133.79 57.525C133.24 56.775 132.965 55.875 132.965 54.825Z" fill="white"/>
</g>
<defs>
<clipPath id="clip0_5851_989">
<rect width="250.2" height="186.4" fill="white"/>
</clipPath>
</defs>
</svg>
