<svg width="251" height="187" viewBox="0 0 251 187" fill="none" xmlns="http://www.w3.org/2000/svg">
<g clip-path="url(#clip0_5851_878)">
<path d="M34.8738 100.601C38.0353 100.34 41.1621 99.759 44.2065 98.8677C44.8759 98.6537 45.4582 98.229 45.8665 97.657C46.2748 97.085 46.4873 96.3964 46.4724 95.6938C46.3041 92.2228 45.7607 88.7803 44.8516 85.4263C43.3908 78.7635 39.6696 72.8114 34.3195 68.58C28.581 64.8942 21.7439 63.3073 14.9686 64.0887C14.6634 64.1154 14.3629 64.1417 14.0624 64.1679C10.9001 64.429 7.77251 65.0097 4.72735 65.9012C4.05891 66.1161 3.47772 66.541 3.07029 67.1129C2.66286 67.6847 2.45098 68.3728 2.46618 69.0747C2.63458 72.5457 3.178 75.9882 4.08694 79.3422C5.54621 86.0053 9.26578 91.9584 14.6145 96.1913C20.3554 99.8746 27.1939 101.458 33.9693 100.673C34.2765 100.651 34.578 100.627 34.8738 100.601Z" fill="#E5AE7C"/>
<path d="M86.719 182.505C92.1811 182.206 97.4307 180.288 101.799 176.996C106.876 172.441 110.22 166.269 111.264 159.529C111.972 156.126 112.304 152.656 112.253 149.18C112.224 148.478 111.97 147.805 111.527 147.259C111.084 146.714 110.477 146.326 109.796 146.154C106.401 145.385 102.933 144.992 99.4524 144.983C98.1101 144.972 96.7781 145.025 95.4986 145.136C90.0367 145.438 84.7882 147.358 80.4213 150.653C75.3449 155.208 72.0008 161.379 70.956 168.12C70.2488 171.523 69.9173 174.993 69.9674 178.468C69.9962 179.17 70.251 179.844 70.6938 180.389C71.1366 180.935 71.7437 181.322 72.4248 181.495C75.8138 182.26 79.2767 182.651 82.7511 182.66C84.1051 182.67 85.4395 182.617 86.719 182.505Z" fill="#E5AE7C"/>
<path d="M46.1417 148.557C51.3202 147.968 56.2843 146.156 60.6239 143.27C63.5738 141.433 66.3128 139.277 68.7918 136.841C69.2803 136.336 69.5925 135.686 69.6816 134.989C69.7708 134.292 69.6322 133.584 69.2866 132.972C67.4976 129.994 65.3911 127.217 63.004 124.692C58.5665 119.513 52.4741 116.028 45.76 114.829C44.2037 114.635 42.631 114.608 41.069 114.749C35.8905 115.338 30.9264 117.15 26.5867 120.036C23.6368 121.872 20.8976 124.026 18.4185 126.46C17.93 126.966 17.6181 127.615 17.5294 128.313C17.4406 129.01 17.5798 129.717 17.9261 130.329C19.7153 133.307 21.8217 136.083 24.2087 138.609C28.6455 143.79 34.7382 147.276 41.453 148.476C41.6921 148.505 41.9143 148.531 42.1483 148.555C43.4767 148.675 44.8132 148.675 46.1417 148.557Z" fill="#E5AE7C"/>
<path d="M48.4932 51.3617C49.0662 51.3116 49.6157 51.1102 50.0854 50.7783C50.5552 50.4463 50.9284 49.9956 51.167 49.4722C52.5323 46.2776 53.5484 42.9448 54.1973 39.5318C55.8047 32.9063 55.0715 25.9289 52.1221 19.7822C48.573 13.9546 43.1166 9.53477 36.6792 7.27294C33.4624 5.96078 30.113 5.00091 26.6896 4.41011C25.9934 4.30646 25.2824 4.43247 24.6643 4.76905C24.0461 5.10562 23.5545 5.63444 23.2638 6.27543C21.8943 9.46749 20.8741 12.7983 20.221 16.2098C18.6158 22.8393 19.3534 29.8201 22.3088 35.9678C25.8547 41.7922 31.3056 46.2113 37.7375 48.4759C40.9542 49.7881 44.3036 50.748 47.7271 51.3387C47.9807 51.3765 48.2378 51.3842 48.4932 51.3617Z" fill="#E5AE7C"/>
<path d="M214.796 100.635C211.635 100.373 208.509 99.7928 205.465 98.9017C204.796 98.6877 204.214 98.263 203.805 97.691C203.397 97.119 203.184 96.4304 203.199 95.7278C203.368 92.2568 203.911 88.8143 204.82 85.4603C206.28 78.798 209.999 72.8458 215.348 68.6136C221.088 64.9294 227.927 63.3452 234.703 64.1298C235.005 64.1562 235.306 64.1825 235.602 64.2083C238.764 64.4694 241.892 65.0501 244.937 65.9416C245.605 66.1552 246.187 66.5788 246.595 67.1494C247.003 67.7199 247.217 68.407 247.203 69.1085C247.035 72.5795 246.491 76.022 245.582 79.376C244.122 86.0386 240.402 91.9907 235.053 96.2225C229.314 99.9088 222.476 101.496 215.699 100.714C215.393 100.687 215.091 100.66 214.796 100.635Z" fill="#E5AE7C"/>
<path d="M162.954 182.539C157.491 182.237 152.242 180.316 147.874 177.022C142.797 172.467 139.453 166.296 138.409 159.555C137.701 156.152 137.37 152.682 137.42 149.207C137.449 148.505 137.704 147.831 138.146 147.286C138.589 146.74 139.196 146.353 139.877 146.18C143.266 145.414 146.729 145.024 150.204 145.015C151.555 145.005 152.887 145.058 154.167 145.169C159.631 145.467 164.882 147.385 169.252 150.679C174.329 155.236 177.673 161.41 178.717 168.153C179.424 171.556 179.755 175.026 179.705 178.502C179.676 179.204 179.42 179.878 178.977 180.424C178.533 180.969 177.925 181.356 177.243 181.528C173.854 182.294 170.391 182.686 166.917 182.696C165.567 182.703 164.233 182.651 162.954 182.539Z" fill="#E5AE7C"/>
<path d="M203.527 148.592C198.345 148.005 193.378 146.193 189.036 143.305C186.086 141.468 183.347 139.312 180.868 136.876C180.379 136.371 180.067 135.721 179.978 135.024C179.889 134.327 180.027 133.619 180.373 133.007C182.162 130.029 184.268 127.252 186.656 124.728C191.092 119.547 197.184 116.06 203.898 114.859C205.454 114.665 207.027 114.638 208.589 114.779C213.767 115.368 218.731 117.18 223.071 120.066C226.021 121.903 228.76 124.059 231.239 126.495C231.73 126.999 232.044 127.649 232.135 128.347C232.226 129.045 232.088 129.754 231.743 130.367C229.953 133.345 227.847 136.122 225.46 138.647C221.023 143.827 214.93 147.313 208.216 148.512C207.977 148.541 207.755 148.567 207.521 148.589C206.192 148.709 204.856 148.71 203.527 148.592Z" fill="#E5AE7C"/>
<path d="M201.175 51.3979C200.602 51.3477 200.053 51.1464 199.583 50.8144C199.113 50.4825 198.74 50.0318 198.502 49.5084C197.133 46.3147 196.114 42.9824 195.462 39.5695C193.857 32.9425 194.593 25.9643 197.546 19.8184C201.094 13.9918 206.547 9.57189 212.982 7.3085C216.199 5.99636 219.548 5.03648 222.972 4.44566C223.668 4.34103 224.379 4.46608 224.998 4.80185C225.616 5.13762 226.109 5.66583 226.4 6.3065C227.772 9.5023 228.793 12.8372 229.447 16.253C231.05 22.8795 230.313 29.8566 227.36 36.0016C223.814 41.827 218.363 46.247 211.931 48.5121C208.714 49.8243 205.365 50.7842 201.941 51.3749C201.688 51.4126 201.431 51.4204 201.175 51.3979Z" fill="#E5AE7C"/>
<path d="M76.79 93.3533C76.79 93.3061 76.79 93.259 76.79 93.2118V26.0882C76.79 25.463 77.0384 24.8634 77.4804 24.4214C77.9225 23.9793 78.5221 23.731 79.1472 23.731H173.907C174.532 23.731 175.131 23.9793 175.574 24.4214C176.016 24.8634 176.264 25.463 176.264 26.0882V93.2118C176.264 93.259 176.264 93.3061 176.264 93.3533C175.913 115.982 153.781 134.251 126.527 134.251C99.273 134.251 77.146 115.989 76.79 93.3533Z" fill="#CF9C6D" stroke="#CF9C6D" stroke-width="8.5"/>
<path d="M78.0586 102.127L156.459 23.7266H173.902C174.528 23.7266 175.127 23.9749 175.569 24.417C176.011 24.859 176.26 25.4586 176.26 26.0838V37.1084L91.3084 122.062C84.9647 116.921 80.3419 109.966 78.0586 102.127Z" fill="#E5B68B"/>
<path d="M103.638 59.4H103.188C102.638 61.05 102.013 62.925 101.313 65.025C100.613 67.075 99.8631 69.225 99.0631 71.475C98.3131 73.725 97.6131 75.925 96.9631 78.075L95.6881 84.075C95.3881 85.025 95.0881 86.05 94.7881 87.15C94.4881 88.25 94.1631 89.325 93.8131 90.375C93.5131 91.425 93.2131 92.45 92.9131 93.45C92.6631 94.4 92.4381 95.25 92.2381 96C91.6881 96.2 91.0881 96.375 90.4381 96.525C89.7881 96.675 88.9881 96.75 88.0381 96.75C86.1381 96.75 84.6631 96.4 83.6131 95.7C82.5631 94.95 82.0381 93.9 82.0381 92.55C82.0381 91.95 82.1381 91.35 82.3381 90.75C82.5381 90.1 82.7381 89.375 82.9381 88.575C83.4381 86.925 84.0881 84.85 84.8881 82.35C85.7381 79.85 86.6631 77.15 87.6631 74.25C88.6631 71.3 89.6631 68.4 90.6631 65.55C91.7131 62.65 92.6881 59.975 93.5881 57.525C94.4881 55.075 95.2381 53.1 95.8381 51.6C96.5381 51.2 97.5881 50.825 98.9881 50.475C100.438 50.075 101.863 49.875 103.263 49.875C105.263 49.875 107.063 50.175 108.663 50.775C110.263 51.325 111.263 52.25 111.663 53.55C112.663 56.2 113.738 59.3 114.888 62.85C116.038 66.35 117.213 70 118.413 73.8C119.613 77.6 120.738 81.3 121.788 84.9C122.888 88.5 123.863 91.75 124.713 94.65C124.213 95.25 123.463 95.725 122.463 96.075C121.463 96.475 120.313 96.675 119.013 96.675C117.063 96.675 115.688 96.35 114.888 95.7C114.088 95 113.488 93.925 113.088 92.475L110.388 83.55L109.263 77.7C108.563 75.4 107.863 73.125 107.163 70.875C106.463 68.625 105.813 66.525 105.213 64.575C104.613 62.575 104.088 60.85 103.638 59.4ZM91.0381 85.65L95.0881 77.25H113.088L114.513 85.65H91.0381ZM157.607 72.45C157.607 68.7 157.182 65.6 156.332 63.15C155.532 60.7 154.407 58.875 152.957 57.675C151.507 56.475 149.832 55.875 147.932 55.875C146.082 55.875 144.432 56.5 142.982 57.75C141.582 58.95 140.457 60.775 139.607 63.225C138.807 65.675 138.407 68.75 138.407 72.45C138.407 77.95 139.232 82.1 140.882 84.9C142.532 87.65 144.882 89.025 147.932 89.025C151.032 89.025 153.407 87.65 155.057 84.9C156.757 82.1 157.607 77.95 157.607 72.45ZM148.007 97.125C144.157 97.125 140.732 96.225 137.732 94.425C134.782 92.575 132.482 89.825 130.832 86.175C129.182 82.525 128.357 77.95 128.357 72.45C128.357 66.85 129.232 62.25 130.982 58.65C132.732 55 135.082 52.3 138.032 50.55C141.032 48.75 144.357 47.85 148.007 47.85C151.657 47.85 154.957 48.75 157.907 50.55C160.907 52.3 163.282 55 165.032 58.65C166.782 62.3 167.657 66.9 167.657 72.45C167.657 77.9 166.807 82.475 165.107 86.175C163.457 89.825 161.157 92.575 158.207 94.425C155.257 96.225 151.857 97.125 148.007 97.125Z" fill="white"/>
</g>
<defs>
<clipPath id="clip0_5851_878">
<rect width="250.2" height="186.4" fill="white"/>
</clipPath>
</defs>
</svg>
