<svg width="251" height="187" viewBox="0 0 251 187" fill="none" xmlns="http://www.w3.org/2000/svg">
<g clip-path="url(#clip0_5851_897)">
<path d="M34.8738 99.6008C38.0353 99.3396 41.1621 98.759 44.2065 97.8677C44.8759 97.6537 45.4582 97.229 45.8665 96.657C46.2748 96.085 46.4873 95.3964 46.4724 94.6938C46.3041 91.2228 45.7607 87.7803 44.8516 84.4263C43.3908 77.7635 39.6696 71.8114 34.3195 67.58C28.581 63.8942 21.7439 62.3073 14.9686 63.0887C14.6634 63.1154 14.3629 63.1417 14.0624 63.1679C10.9001 63.429 7.77251 64.0097 4.72735 64.9012C4.05891 65.1161 3.47772 65.541 3.07029 66.1129C2.66286 66.6847 2.45098 67.3728 2.46618 68.0747C2.63458 71.5457 3.178 74.9882 4.08694 78.3422C5.54621 85.0053 9.26578 90.9584 14.6145 95.1913C20.3554 98.8746 27.1939 100.458 33.9693 99.6727C34.2765 99.6506 34.578 99.6267 34.8738 99.6008Z" fill="#56D8A6"/>
<path d="M86.719 181.505C92.1811 181.206 97.4307 179.288 101.799 175.996C106.876 171.441 110.22 165.269 111.264 158.529C111.972 155.126 112.304 151.656 112.253 148.18C112.224 147.478 111.97 146.805 111.527 146.259C111.084 145.714 110.477 145.326 109.796 145.154C106.401 144.385 102.933 143.992 99.4524 143.983C98.1101 143.972 96.7781 144.025 95.4986 144.136C90.0367 144.438 84.7882 146.358 80.4213 149.653C75.3449 154.208 72.0008 160.379 70.956 167.12C70.2488 170.523 69.9173 173.993 69.9674 177.468C69.9962 178.17 70.251 178.844 70.6938 179.389C71.1366 179.935 71.7437 180.322 72.4248 180.495C75.8138 181.26 79.2767 181.651 82.7511 181.66C84.1051 181.67 85.4395 181.617 86.719 181.505Z" fill="#56D8A6"/>
<path d="M46.1417 147.557C51.3202 146.968 56.2843 145.156 60.6239 142.27C63.5738 140.433 66.3128 138.277 68.7918 135.841C69.2803 135.336 69.5925 134.686 69.6816 133.989C69.7708 133.292 69.6322 132.584 69.2866 131.972C67.4976 128.994 65.3911 126.217 63.004 123.692C58.5665 118.513 52.4741 115.028 45.76 113.829C44.2037 113.635 42.631 113.608 41.069 113.749C35.8905 114.338 30.9264 116.15 26.5867 119.036C23.6368 120.872 20.8976 123.026 18.4185 125.46C17.93 125.966 17.6181 126.615 17.5294 127.313C17.4406 128.01 17.5798 128.717 17.9261 129.329C19.7153 132.307 21.8217 135.083 24.2087 137.609C28.6455 142.79 34.7382 146.276 41.453 147.476C41.6921 147.505 41.9143 147.531 42.1483 147.555C43.4767 147.675 44.8132 147.675 46.1417 147.557Z" fill="#56D8A6"/>
<path d="M48.4932 50.3617C49.0662 50.3116 49.6157 50.1102 50.0854 49.7783C50.5552 49.4463 50.9284 48.9956 51.167 48.4722C52.5323 45.2776 53.5484 41.9448 54.1973 38.5318C55.8047 31.9063 55.0715 24.9289 52.1221 18.7822C48.573 12.9546 43.1166 8.53477 36.6792 6.27294C33.4624 4.96078 30.113 4.00091 26.6896 3.41011C25.9934 3.30646 25.2824 3.43247 24.6643 3.76905C24.0461 4.10562 23.5545 4.63444 23.2638 5.27543C21.8943 8.46749 20.8741 11.7983 20.221 15.2098C18.6158 21.8393 19.3534 28.8201 22.3088 34.9678C25.8547 40.7922 31.3056 45.2113 37.7375 47.4759C40.9542 48.7881 44.3036 49.748 47.7271 50.3387C47.9807 50.3765 48.2378 50.3842 48.4932 50.3617Z" fill="#56D8A6"/>
<path d="M214.796 99.6346C211.635 99.3733 208.509 98.7928 205.465 97.9017C204.796 97.6877 204.214 97.263 203.805 96.691C203.397 96.119 203.184 95.4304 203.199 94.7278C203.368 91.2568 203.911 87.8143 204.82 84.4603C206.28 77.798 209.999 71.8458 215.348 67.6136C221.088 63.9294 227.927 62.3452 234.703 63.1298C235.005 63.1562 235.306 63.1825 235.602 63.2083C238.764 63.4694 241.892 64.0501 244.937 64.9416C245.605 65.1552 246.187 65.5788 246.595 66.1494C247.003 66.7199 247.217 67.407 247.203 68.1085C247.035 71.5795 246.491 75.022 245.582 78.376C244.122 85.0386 240.402 90.9907 235.053 95.2225C229.314 98.9088 222.476 100.496 215.699 99.7136C215.393 99.6868 215.091 99.6604 214.796 99.6346Z" fill="#56D8A6"/>
<path d="M162.954 181.539C157.491 181.237 152.242 179.316 147.874 176.022C142.797 171.467 139.453 165.296 138.409 158.555C137.701 155.152 137.37 151.682 137.42 148.207C137.449 147.505 137.704 146.831 138.146 146.286C138.589 145.74 139.196 145.353 139.877 145.18C143.266 144.414 146.729 144.024 150.204 144.015C151.555 144.005 152.887 144.058 154.167 144.169C159.631 144.467 164.882 146.385 169.252 149.679C174.329 154.236 177.673 160.41 178.717 167.153C179.424 170.556 179.755 174.026 179.705 177.502C179.676 178.204 179.42 178.878 178.977 179.424C178.533 179.969 177.925 180.356 177.243 180.528C173.854 181.294 170.391 181.686 166.917 181.696C165.567 181.703 164.233 181.651 162.954 181.539Z" fill="#56D8A6"/>
<path d="M203.527 147.592C198.345 147.005 193.378 145.193 189.036 142.305C186.086 140.468 183.347 138.312 180.868 135.876C180.379 135.371 180.067 134.721 179.978 134.024C179.889 133.327 180.027 132.619 180.373 132.007C182.162 129.029 184.268 126.252 186.656 123.728C191.092 118.547 197.184 115.06 203.898 113.859C205.454 113.665 207.027 113.638 208.589 113.779C213.767 114.368 218.731 116.18 223.071 119.066C226.021 120.903 228.76 123.059 231.239 125.495C231.73 125.999 232.044 126.649 232.135 127.347C232.226 128.045 232.088 128.754 231.743 129.367C229.953 132.345 227.847 135.122 225.46 137.647C221.023 142.827 214.93 146.313 208.216 147.512C207.977 147.541 207.755 147.567 207.521 147.589C206.192 147.709 204.856 147.71 203.527 147.592Z" fill="#56D8A6"/>
<path d="M201.175 50.3979C200.602 50.3477 200.053 50.1464 199.583 49.8144C199.113 49.4825 198.74 49.0318 198.502 48.5084C197.133 45.3147 196.114 41.9824 195.462 38.5695C193.857 31.9425 194.593 24.9643 197.546 18.8184C201.094 12.9918 206.547 8.57189 212.982 6.3085C216.199 4.99636 219.548 4.03648 222.972 3.44566C223.668 3.34103 224.379 3.46608 224.998 3.80185C225.616 4.13762 226.109 4.66583 226.4 5.3065C227.772 8.5023 228.793 11.8372 229.447 15.253C231.05 21.8795 230.313 28.8566 227.36 35.0016C223.814 40.827 218.363 45.247 211.931 47.5121C208.714 48.8243 205.365 49.7842 201.941 50.3749C201.688 50.4126 201.431 50.4204 201.175 50.3979Z" fill="#56D8A6"/>
<path d="M76.79 92.3533C76.79 92.3061 76.79 92.259 76.79 92.2118V25.0882C76.79 24.463 77.0384 23.8634 77.4804 23.4214C77.9225 22.9793 78.5221 22.731 79.1472 22.731H173.907C174.532 22.731 175.131 22.9793 175.574 23.4214C176.016 23.8634 176.264 24.463 176.264 25.0882V92.2118C176.264 92.259 176.264 92.3061 176.264 92.3533C175.913 114.982 153.781 133.251 126.527 133.251C99.273 133.251 77.146 114.989 76.79 92.3533Z" fill="#00CB7E" stroke="#00CB7E" stroke-width="8.5"/>
<path d="M78.0586 101.127L156.459 22.7266H173.902C174.528 22.7266 175.127 22.9749 175.569 23.417C176.011 23.859 176.26 24.4586 176.26 25.0838V36.1084L91.3084 121.062C84.9647 115.921 80.3419 108.966 78.0586 101.127Z" fill="#56D8A6"/>
<path d="M106.165 59.4H105.715C105.165 61.05 104.54 62.925 103.84 65.025C103.14 67.075 102.39 69.225 101.59 71.475C100.84 73.725 100.14 75.925 99.4899 78.075L98.2149 84.075C97.9149 85.025 97.6149 86.05 97.3149 87.15C97.0149 88.25 96.6899 89.325 96.3399 90.375C96.0399 91.425 95.7399 92.45 95.4399 93.45C95.1899 94.4 94.9649 95.25 94.7649 96C94.2149 96.2 93.6149 96.375 92.9649 96.525C92.3149 96.675 91.5149 96.75 90.5649 96.75C88.6649 96.75 87.1899 96.4 86.1399 95.7C85.0899 94.95 84.5649 93.9 84.5649 92.55C84.5649 91.95 84.6649 91.35 84.8649 90.75C85.0649 90.1 85.2649 89.375 85.4649 88.575C85.9649 86.925 86.6149 84.85 87.4149 82.35C88.2649 79.85 89.1899 77.15 90.1899 74.25C91.1899 71.3 92.1899 68.4 93.1899 65.55C94.2399 62.65 95.2149 59.975 96.1149 57.525C97.0149 55.075 97.7649 53.1 98.3649 51.6C99.0649 51.2 100.115 50.825 101.515 50.475C102.965 50.075 104.39 49.875 105.79 49.875C107.79 49.875 109.59 50.175 111.19 50.775C112.79 51.325 113.79 52.25 114.19 53.55C115.19 56.2 116.265 59.3 117.415 62.85C118.565 66.35 119.74 70 120.94 73.8C122.14 77.6 123.265 81.3 124.315 84.9C125.415 88.5 126.39 91.75 127.24 94.65C126.74 95.25 125.99 95.725 124.99 96.075C123.99 96.475 122.84 96.675 121.54 96.675C119.59 96.675 118.215 96.35 117.415 95.7C116.615 95 116.015 93.925 115.615 92.475L112.915 83.55L111.79 77.7C111.09 75.4 110.39 73.125 109.69 70.875C108.99 68.625 108.34 66.525 107.74 64.575C107.14 62.575 106.615 60.85 106.165 59.4ZM93.5649 85.65L97.6149 77.25H115.615L117.04 85.65H93.5649ZM133.258 54.825C133.258 53.425 133.833 52.2 134.983 51.15C136.183 50.1 137.808 49.3 139.858 48.75C141.908 48.15 144.233 47.85 146.833 47.85C150.583 47.85 153.758 48.45 156.358 49.65C158.958 50.85 160.908 52.5 162.208 54.6C163.558 56.7 164.233 59.125 164.233 61.875C164.233 64.625 163.458 67.325 161.908 69.975C160.358 72.575 157.883 75.375 154.483 78.375L143.158 88.125H163.783C164.033 88.525 164.258 89.075 164.458 89.775C164.708 90.475 164.833 91.225 164.833 92.025C164.833 93.325 164.508 94.325 163.858 95.025C163.258 95.675 162.408 96 161.308 96H134.233C133.383 95.4 132.708 94.65 132.208 93.75C131.758 92.85 131.533 91.825 131.533 90.675C131.533 89.375 131.808 88.25 132.358 87.3C132.908 86.3 133.533 85.475 134.233 84.825L146.458 73.725C149.358 71.125 151.358 68.975 152.458 67.275C153.558 65.575 154.108 63.9 154.108 62.25C154.108 60.4 153.408 58.9 152.008 57.75C150.608 56.55 148.583 55.95 145.933 55.95C143.783 55.95 141.858 56.3 140.158 57C138.458 57.7 137.058 58.45 135.958 59.25C135.258 58.8 134.633 58.225 134.083 57.525C133.533 56.775 133.258 55.875 133.258 54.825Z" fill="white"/>
</g>
<defs>
<clipPath id="clip0_5851_897">
<rect width="250.2" height="186.4" fill="white"/>
</clipPath>
</defs>
</svg>
