<svg width="296" height="302" viewBox="0 0 296 302" fill="none" xmlns="http://www.w3.org/2000/svg">
<g clip-path="url(#clip0_17234_93)">
<path d="M148.007 275.311C216.355 275.311 271.763 219.18 271.763 149.939C271.763 80.6976 216.355 24.5664 148.007 24.5664C79.6577 24.5664 24.25 80.6976 24.25 149.939C24.25 219.18 79.6577 275.311 148.007 275.311Z" fill="#9EDFFF"/>
<path opacity="0.43" d="M148.007 299.88C229.749 299.88 296.015 232.749 296.015 149.94C296.015 67.1304 229.749 0 148.007 0C66.2651 0 0 67.1304 0 149.94C0 232.749 66.2651 299.88 148.007 299.88Z" fill="#9EDFFF"/>
<path d="M96.77 154.36C96.77 160.617 91.7647 165.688 85.5885 165.688H48.8392C41.7849 165.688 36.0625 159.89 36.0625 152.744C36.0625 145.598 41.7849 139.801 48.8392 139.801C49.9368 139.801 51.0345 139.964 52.1028 140.26C52.82 132.55 59.362 126.753 67.0016 127.065C74.6413 127.376 80.7003 133.677 80.8028 141.432C80.8028 142.395 80.715 143.359 80.5101 144.308C82.076 143.478 83.8177 143.033 85.5885 143.048C91.75 143.018 96.77 148.103 96.77 154.36Z" fill="white"/>
<path d="M260.927 125.344C260.927 133.557 254.341 140.229 246.233 140.229H197.951C188.672 140.229 181.164 132.608 181.164 123.223C181.164 113.823 188.687 106.203 197.951 106.203C199.4 106.203 200.834 106.41 202.239 106.796C203.176 96.6691 211.767 89.0484 221.806 89.4487C231.846 89.849 239.808 98.1518 239.94 108.323C239.94 109.598 239.808 110.858 239.559 112.103C241.623 111.006 243.906 110.443 246.233 110.443C254.355 110.458 260.927 117.115 260.927 125.344Z" fill="white"/>
<path d="M168.334 65.7397L160.24 64.5684L149.879 137.381L138.917 73.2567L130.867 74.6652L144.054 151.792L156.347 149.954L168.334 65.7397Z" fill="#D6D6D6"/>
<path d="M143.744 151.926L100.541 87.0156L93.7645 91.6563L129.68 145.61L72.4408 100.345L67.4062 106.868L133.617 159.22L143.744 151.926Z" fill="#E5E5E5"/>
<path d="M180.437 85.2498L179.807 82.759C179.149 80.1643 178.329 77.5845 177.334 75.1085C171.421 60.2227 160.138 48.5543 145.575 42.2679C131.013 35.9815 114.885 35.8036 100.191 41.7935C85.4972 47.7834 73.9792 59.2145 67.7738 73.9669C61.5684 88.7192 61.3928 105.058 67.3055 119.944C68.2861 122.42 69.4423 124.851 70.7594 127.194L72.0181 129.433L77.9747 127.001C86.7998 109.906 101.391 96.5327 119.085 89.3271C136.78 82.1214 156.449 81.5432 174.495 87.6813L180.437 85.2498Z" fill="#FFDB2D"/>
<path d="M145.592 42.2542C131.015 35.9678 114.902 35.7899 100.208 41.7798C100.149 41.7946 100.105 41.8243 100.047 41.8391L118.926 89.3875C118.985 89.3727 119.029 89.343 119.087 89.3282C136.767 82.1226 156.452 81.5443 174.497 87.6825L180.453 85.2509L179.824 82.7601C179.166 80.1655 178.346 77.5857 177.351 75.1097C171.438 60.2239 160.154 48.5555 145.592 42.2542Z" fill="#FFB62D"/>
<path d="M140.574 82.7585C134.105 66.4494 122.133 53.0907 107.03 45.3068L100.195 41.793L97.6775 49.1172C92.1014 65.3225 92.5991 83.3663 99.0679 99.6606L99.5069 100.773C105.42 96.0726 111.991 92.2029 119.074 89.3266C126.143 86.4502 133.549 84.6266 141.027 83.8704L140.574 82.7585Z" fill="#FF9900"/>
<path d="M140.568 82.7584C134.099 66.4494 122.128 53.0907 107.024 45.3068L100.189 41.793L100.102 42.0302L118.908 89.4007C118.967 89.3859 119.01 89.3562 119.069 89.3414C126.138 86.4651 133.543 84.6414 141.022 83.8853L140.568 82.7584Z" fill="#FF7300"/>
<path d="M120.72 256.556L169.193 258.869C174.886 259.136 179.759 254.643 180.023 248.876C180.286 243.108 175.852 238.171 170.159 237.904L121.686 235.591C115.993 235.325 111.12 239.817 110.856 245.584C110.578 251.352 115.027 256.289 120.72 256.556Z" fill="#006BD6"/>
<path d="M120.902 256.78L122.263 235.133C122.351 233.769 121.327 232.598 119.98 232.509C118.634 232.42 117.478 233.458 117.39 234.822L116.029 256.469C115.941 257.833 116.965 259.004 118.312 259.093C119.644 259.167 120.814 258.129 120.902 256.78Z" fill="#01357A"/>
<path d="M118.166 251.976L118.751 242.799C118.956 239.537 116.483 236.69 113.263 236.482L104.73 235.934C101.511 235.726 98.7006 238.232 98.4957 241.494L97.9103 250.671C97.7054 253.933 100.179 256.78 103.399 256.987L111.931 257.536C115.151 257.744 117.961 255.253 118.166 251.976Z" fill="#01357A"/>
<path d="M118.835 238.009C119.654 236.823 119.362 235.163 118.176 234.347L112.79 230.566C111.62 229.736 109.98 230.033 109.175 231.234C108.356 232.42 108.649 234.08 109.834 234.896L115.22 238.676C116.391 239.492 118.015 239.195 118.835 238.009Z" fill="#01357A"/>
<path d="M217.629 233.368C210.823 217.341 190.348 210.847 171.893 218.883C153.438 226.919 143.998 246.43 150.804 262.458C150.847 262.576 150.906 262.68 150.965 262.799C150.994 262.873 151.008 262.932 151.038 263.006L153.174 268.047L160.551 285.424C162.512 290.05 167.868 292.214 172.435 290.228L222.634 268.359C227.2 266.372 229.337 260.945 227.376 256.32L219.999 238.943L217.863 233.902C217.833 233.828 217.804 233.769 217.775 233.709C217.716 233.591 217.672 233.487 217.629 233.368Z" fill="#006BD6"/>
<path d="M233.505 212.344L200.663 248.55C196.814 252.805 190.228 253.087 186.028 249.173C181.828 245.273 181.55 238.601 185.413 234.346L218.255 198.14C222.104 193.885 228.69 193.603 232.891 197.517C237.091 201.417 237.369 208.089 233.505 212.344Z" fill="#006BD6"/>
<path d="M233.519 212.642L217.508 198.231C216.498 197.327 216.41 195.755 217.303 194.747C218.196 193.724 219.747 193.635 220.742 194.539L236.753 208.951C237.763 209.855 237.851 211.427 236.958 212.435C236.08 213.443 234.529 213.532 233.519 212.642Z" fill="#01357A"/>
<path d="M232.139 207.276L225.362 201.167C222.948 198.988 222.728 195.222 224.879 192.775L230.558 186.296C232.709 183.85 236.427 183.627 238.842 185.807L245.618 191.915C248.033 194.095 248.252 197.861 246.101 200.307L240.422 206.786C238.271 209.233 234.539 209.455 232.139 207.276Z" fill="#01357A"/>
<path d="M221.943 197.832C220.538 197.565 219.601 196.186 219.865 194.763L221.065 188.225C221.328 186.801 222.689 185.852 224.094 186.119C225.499 186.386 226.436 187.765 226.173 189.188L224.972 195.727C224.709 197.15 223.348 198.099 221.943 197.832Z" fill="#01357A"/>
<path d="M162.839 300.771L141.691 286.196C138.456 283.972 137.607 279.465 139.817 276.203L141.134 274.246C143.33 270.969 147.779 270.124 150.999 272.348L172.147 286.923C175.381 289.147 176.23 293.654 174.02 296.916L172.703 298.873C170.508 302.135 166.073 302.995 162.839 300.771Z" fill="#006BD6"/>
<path d="M181.256 286.126L152.695 266.447L144.497 278.658L173.058 298.337L181.256 286.126Z" fill="#006BD6"/>
<path d="M233.733 273.709L241.314 248.964C242.47 245.183 240.362 241.136 236.63 239.964L234.391 239.253C230.659 238.081 226.664 240.216 225.507 243.997L217.926 268.743C216.77 272.523 218.878 276.571 222.61 277.742L224.849 278.454C228.566 279.625 232.576 277.49 233.733 273.709Z" fill="#006BD6"/>
<path d="M224.24 278.269L234.484 244.854L220.564 240.474L210.319 273.889L224.24 278.269Z" fill="#006BD6"/>
<path d="M186.021 227.494L171.474 233.884C141.178 247.198 105.629 232.965 92.5013 202.274C79.3588 171.583 93.4087 135.57 123.704 122.27L138.251 115.88C168.547 102.566 204.096 116.799 217.224 147.49C230.366 178.196 216.331 214.194 186.021 227.494Z" fill="#0075D6"/>
<path d="M145.329 104.761L112.268 119.276C108.828 120.788 107.248 124.866 108.726 128.335C110.219 131.819 114.243 133.42 117.668 131.923L150.744 117.408C154.183 115.896 155.764 111.818 154.286 108.349C152.793 104.865 148.768 103.249 145.329 104.761Z" fill="#01357A"/>
<path d="M130.456 113.836L129.007 114.473C128.758 114.577 128.48 114.473 128.363 114.221L114.459 81.7515C114.357 81.4994 114.474 81.2177 114.708 81.0991L116.157 80.4616C116.406 80.3578 116.684 80.4764 116.801 80.7136L130.704 113.184C130.807 113.436 130.704 113.717 130.456 113.836Z" fill="#01357A"/>
<path d="M122.113 74.3829C124.016 78.816 121.996 83.9608 117.62 85.8882C113.244 87.8156 108.166 85.7696 106.263 81.3365C104.361 76.9034 106.38 71.7586 110.756 69.8311C115.132 67.9037 120.225 69.9498 122.113 74.3829Z" fill="#01357A"/>
<path d="M138.827 137.396C158.409 128.796 180.113 134.104 191.397 149.005L201.832 144.423C188.177 124.393 160.077 116.965 134.817 128.055C109.556 139.145 95.7111 165.003 100.804 188.784L111.239 184.203C108.239 165.685 119.259 145.995 138.827 137.396Z" fill="white"/>
<path d="M170.888 212.326C151.306 220.925 129.602 215.617 118.318 200.717L107.883 205.298C121.538 225.329 149.637 232.757 174.898 221.667C200.144 210.576 214.004 184.719 208.911 160.938L198.476 165.519C201.491 184.052 190.47 203.727 170.888 212.326Z" fill="white"/>
<path d="M124.416 176.582L123.669 176.908C118.927 178.954 116.703 184.543 118.723 189.347L122.045 197.265C122.777 198.999 123.962 200.393 125.396 201.371C126.143 201.045 131.543 198.806 139.095 198.614C140.851 196.019 141.319 192.609 140.017 189.525L136.695 181.608C134.675 176.789 129.158 174.536 124.416 176.582Z" fill="white"/>
<path d="M128.871 182.259L128.403 182.467C126.471 183.297 125.578 185.565 126.398 187.523L128.652 192.905C129.471 194.862 131.711 195.766 133.642 194.936L134.111 194.728C136.043 193.898 136.935 191.629 136.116 189.672L133.862 184.29C133.042 182.348 130.803 181.429 128.871 182.259Z" fill="black"/>
<path d="M129.105 183.49C129.544 184.527 129.061 185.743 128.037 186.188C127.012 186.633 125.812 186.144 125.373 185.106C124.934 184.068 125.417 182.852 126.442 182.407C127.481 181.948 128.681 182.437 129.105 183.49Z" fill="white"/>
<path d="M176.913 154.36L177.644 154.034C182.372 151.958 187.904 154.182 189.953 158.956L193.334 166.844C194.065 168.564 194.256 170.402 193.963 172.137C193.216 172.463 187.889 174.88 182.547 180.292C179.489 179.802 176.722 177.786 175.405 174.717L172.024 166.829C170.005 162.055 172.2 156.436 176.913 154.36Z" fill="white"/>
<path d="M177.922 161.55L178.39 161.342C180.307 160.497 182.561 161.402 183.395 163.344L185.693 168.711C186.527 170.653 185.634 172.937 183.717 173.782L183.249 173.989C181.332 174.834 179.078 173.93 178.243 171.988L175.946 166.621C175.112 164.678 176.004 162.395 177.922 161.55Z" fill="black"/>
<path d="M178.642 162.561C179.081 163.599 180.281 164.088 181.305 163.629C182.33 163.184 182.813 161.968 182.359 160.93C181.92 159.892 180.72 159.403 179.696 159.863C178.656 160.322 178.188 161.523 178.642 162.561Z" fill="white"/>
</g>
<defs>
<clipPath id="clip0_17234_93">
<rect width="296" height="302" fill="white"/>
</clipPath>
</defs>
</svg>
