<svg width="264" height="228" viewBox="0 0 264 228" fill="none" xmlns="http://www.w3.org/2000/svg">
<g clip-path="url(#clip0_2737_2)">
<path d="M111.432 213.64C67.218 216.756 27.2468 183.315 16.9239 133.237C11.8314 108.586 15.0247 81.8045 25.904 59.8159C36.1215 39.2719 53.1835 22.9343 74.1511 13.6172C77.7108 11.9948 81.3588 10.5735 85.0778 9.35999C86.5238 8.89983 87.3633 7.88609 85.9145 8.3337C66.5836 14.3297 47.3335 25.2425 33.8703 42.5431C20.541 59.6945 13.4239 81.8046 12.3878 104.693C10.3004 151.006 35.5896 194.155 72.9421 210.191C85.0956 215.284 98.2935 217.388 111.428 216.326V213.634L111.432 213.64Z" fill="#1CB0F6"/>
<path d="M64.832 226.507C64.832 226.507 65.4693 226.646 66.6099 226.901C67.7478 227.101 69.3764 227.346 71.3077 227.599C73.2515 227.816 75.5175 227.963 77.9215 228C80.4192 227.996 82.914 227.829 85.39 227.5C87.8392 227.186 90.2568 226.661 92.6159 225.932C94.69 225.274 96.6915 224.407 98.5896 223.343C101.957 221.229 103.833 218.847 103.381 216.297C97.9792 216.678 92.6049 217.38 87.2865 218.398C86.1291 218.616 85.0037 218.889 83.9161 219.157C82.8368 219.387 81.7994 219.642 80.794 219.922C78.7916 220.522 76.9691 221.01 75.3028 221.617C73.6364 222.223 72.1555 222.782 70.8629 223.343C69.5703 223.903 68.4589 224.44 67.5539 224.919C66.6133 225.389 65.7041 225.919 64.832 226.507Z" fill="#1CB0F6"/>
<path d="M43.6777 212.792C43.6777 212.792 44.2355 213.096 45.2548 213.563C46.2742 214.03 47.6923 214.71 49.4381 215.391C51.4107 216.159 53.4207 216.828 55.4606 217.393C56.5762 217.692 57.7112 217.99 58.8714 218.251C60.0497 218.481 61.2419 218.686 62.4286 218.863C63.6028 219.053 64.7874 219.173 65.976 219.221C67.1417 219.277 68.2866 219.33 69.3937 219.295C71.4302 219.244 73.4542 218.96 75.426 218.449C76.9503 218.06 78.3775 217.359 79.6177 216.391C80.0976 216.008 80.4908 215.527 80.7716 214.981C81.0523 214.435 81.2141 213.836 81.2464 213.223C76.2026 212.126 71.0921 211.363 65.9481 210.937C63.717 210.745 61.5975 210.713 59.6606 210.669C58.6845 210.657 57.7489 210.687 56.8369 210.725C55.925 210.763 55.0869 210.778 54.2656 210.841C51.6547 211.022 49.0606 211.395 46.5042 211.956C45.5432 212.166 44.5985 212.445 43.6777 212.792Z" fill="#1CB0F6"/>
<path d="M25.8887 194.032C25.8887 194.032 26.3586 194.426 27.1952 195.124C28.0319 195.821 29.2074 196.787 30.712 197.829C32.3692 199.036 34.0916 200.151 35.8714 201.169C37.839 202.343 39.8821 203.386 41.9873 204.291C43.0285 204.755 44.0935 205.164 45.1777 205.516C46.2473 205.873 47.2694 206.234 48.3026 206.472C50.1721 206.953 52.0901 207.22 54.0198 207.268C55.4796 207.313 56.9324 207.048 58.2826 206.491C58.8009 206.263 59.2617 205.923 59.6314 205.494C60.001 205.065 60.27 204.559 60.4188 204.013C56.0134 201.652 51.4469 199.604 46.7535 197.885C43.2571 196.585 39.6625 195.567 36.0038 194.841C34.4769 194.532 33.0755 194.328 31.8206 194.203C30.5656 194.079 29.5295 193.986 28.6426 193.961C27.7242 193.915 26.8036 193.939 25.8887 194.032Z" fill="#1CB0F6"/>
<path d="M12.2832 171.279L13.2593 172.604C13.8812 173.465 14.8476 174.609 16.0105 175.943C16.5892 176.611 17.1986 177.346 17.8986 178.07C18.5986 178.793 19.3376 179.516 20.1129 180.292C21.7031 181.852 23.379 183.323 25.1328 184.696C26.8495 186.012 28.6513 187.213 30.5265 188.291C32.1348 189.21 33.8386 189.951 35.6078 190.501C38.7703 191.368 41.1422 191.12 42.1281 189.189C38.5631 185.859 34.7607 182.792 30.751 180.013C29.0651 178.777 27.3709 177.782 25.8231 176.855C24.3975 176.001 22.9291 175.221 21.4237 174.517C19.2986 173.458 17.0898 172.577 14.8197 171.883C13.991 171.616 13.143 171.415 12.2832 171.279Z" fill="#1CB0F6"/>
<path d="M3.5 145.716L3.66454 146.098C3.77051 146.341 3.92251 146.718 4.15538 147.168C4.60578 148.083 5.25279 149.375 6.0518 150.902C6.8285 152.426 7.90219 154.109 8.98985 155.893C10.1054 157.678 11.4468 159.453 12.7548 161.192C14.0844 162.826 15.5043 164.385 17.0078 165.862C18.3027 167.106 19.7169 168.221 21.2301 169.189C23.9534 170.812 26.1901 171.194 27.4576 169.695C24.8479 165.707 21.9588 161.91 18.8122 158.33C17.5726 156.88 16.2587 155.496 14.8757 154.182C13.7435 153.034 12.551 151.947 11.3032 150.926C9.55835 149.431 7.69274 148.083 5.72549 146.896C5.01712 146.471 4.45656 146.178 4.08425 145.985C3.71194 145.793 3.5 145.716 3.5 145.716Z" fill="#1CB0F6"/>
<path d="M0 118.69C0 118.69 0.124104 119.225 0.348606 120.179C0.573109 121.133 0.867336 122.455 1.36793 124.028C1.86853 125.601 2.40956 127.423 3.10956 129.304C3.86534 131.201 4.62391 133.175 5.56236 135.076C7.13585 138.522 9.21404 141.715 11.7285 144.55C13.8954 146.736 15.8546 147.672 17.3062 146.641C16.8558 145.397 16.3831 144.201 15.8951 143.066C15.407 141.931 14.9747 140.811 14.4867 139.776C13.4953 137.693 12.6154 135.759 11.6448 134.005C10.0337 130.996 8.20784 128.106 6.18148 125.359C5.33507 124.231 4.49981 123.233 3.76216 122.396C3.02451 121.56 2.38169 120.848 1.82531 120.305C1.25609 119.724 0.646094 119.184 0 118.69Z" fill="#1CB0F6"/>
<path d="M1.80299 91.6787C1.80299 91.6787 1.78764 92.1947 1.83784 93.1066C1.88804 94.0186 1.97728 95.3112 2.0986 96.859C2.19481 98.3929 2.43465 100.186 2.73306 102.07C2.8725 103.003 3.02868 103.982 3.21135 104.952C3.41633 105.938 3.64363 106.914 3.87929 107.893C4.11495 108.872 4.36454 109.824 4.63506 110.76C4.92788 111.699 5.24443 112.61 5.57072 113.481C6.11675 115.068 6.81975 116.597 7.66932 118.045C9.19621 120.591 10.7915 121.963 12.3184 121.422C11.3923 113.766 9.33545 106.289 6.21493 99.2365C5.36003 97.2664 4.34181 95.3713 3.1709 93.571C2.75258 92.9463 2.41792 92.4666 2.17947 92.15C1.94102 91.8335 1.80299 91.6787 1.80299 91.6787Z" fill="#1CB0F6"/>
<path d="M8.79668 65.9521C8.79668 65.9521 8.46063 67.8611 8.09947 70.6932C7.96003 72.1267 7.82058 73.7958 7.71461 75.5625C7.60863 77.3293 7.64627 79.2508 7.67695 81.1123C7.72441 84.5508 8.23711 87.967 9.20106 91.2679C9.52419 92.406 10.0433 93.479 10.7349 94.4388C10.9579 94.7718 11.2596 95.0445 11.6133 95.2328C11.967 95.4211 12.3617 95.5191 12.7624 95.5181C12.9186 93.1476 13.0051 90.9416 12.9827 88.8667C13.0162 86.8141 12.8921 84.8647 12.768 83.0743C12.6722 81.4019 12.486 79.7359 12.2102 78.0836C11.9983 76.5595 11.7445 75.1554 11.4489 73.8864C10.9995 71.8932 10.421 69.9313 9.71701 68.0131C9.45437 67.3072 9.14697 66.6189 8.79668 65.9521Z" fill="#1CB0F6"/>
<path d="M20.5678 42.9058C20.5678 42.9058 20.4089 43.313 20.13 44.0213C19.8511 44.7297 19.483 45.7379 19.0981 46.997C18.7132 48.2562 18.2517 49.6924 17.8431 51.2667C17.4346 52.841 17.0846 54.5436 16.7708 56.2323C16.4919 57.946 16.2925 59.6654 16.167 61.2731C16.0567 62.7621 16.0744 64.2578 16.22 65.7437C16.4557 68.375 17.2519 70.2058 18.5905 70.4847C20.5466 64.0643 21.5308 57.3873 21.5105 50.6755C21.4649 48.7637 21.2958 46.8568 21.0043 44.9667C20.9006 44.2715 20.7548 43.5833 20.5678 42.9058Z" fill="#1CB0F6"/>
<path d="M36.3849 23.6621C36.3849 23.6621 36.1771 23.9759 35.7936 24.542C35.4394 25.1263 34.9361 25.9629 34.3602 26.9767C32.9312 29.4427 31.6759 32.0053 30.6036 34.646C30.0458 36.1046 29.5396 37.584 29.1297 38.9994C28.7533 40.3076 28.4861 41.6448 28.3307 42.9972C28.0518 45.4068 28.3892 47.2418 29.5494 47.854C32.5724 42.5728 34.7038 36.8293 35.8578 30.8546C36.1823 29.1235 36.3688 27.3693 36.4155 25.6087C36.4449 24.9598 36.4347 24.3098 36.3849 23.6621Z" fill="#1CB0F6"/>
<path d="M55.4112 9.11035C55.4112 9.11035 54.4351 10.0781 53.0295 11.5757C52.2226 12.4252 51.4598 13.3156 50.7441 14.2432C49.9451 15.2626 49.0903 16.314 48.3247 17.4713C47.5592 18.6287 46.8327 19.8223 46.2108 20.9699C45.6306 22.0441 45.1449 23.1666 44.7592 24.3249C44.062 26.4082 43.9978 28.0899 44.9084 28.9391C48.6397 24.9998 51.6105 20.4047 53.671 15.3853C54.5364 13.3835 55.122 11.272 55.4112 9.11035Z" fill="#1CB0F6"/>
<path d="M76.6703 0.000488281C76.6703 0.000488281 75.6356 0.597289 74.1338 1.55526C72.3145 2.80116 70.5789 4.16506 68.9382 5.63815C68.0555 6.4748 67.1966 7.33234 66.4282 8.17597C65.7243 8.98321 65.0899 9.84852 64.5318 10.7626C63.5306 12.4443 63.1485 13.8973 63.783 14.8762C64.9991 14.1212 66.1586 13.2786 67.2523 12.3551C68.2438 11.5827 69.1855 10.7486 70.0718 9.85768C70.9085 8.99592 71.642 8.18436 72.3029 7.41046C72.9136 6.6747 73.4843 5.90667 74.0125 5.10966C74.7903 3.94895 75.4824 2.73303 76.0832 1.4716C76.3103 0.994338 76.5064 0.502958 76.6703 0.000488281Z" fill="#1CB0F6"/>
<path d="M77.2969 189.178C77.2969 189.178 77.6636 189.489 78.3036 190.055C78.9534 190.574 79.8919 191.31 81.0186 192.269C82.1718 193.18 83.5285 194.221 85.0178 195.372C86.507 196.448 88.1204 197.71 89.8007 198.858C91.4572 200.113 93.178 201.228 94.8039 202.474C96.3767 203.582 97.8868 204.776 99.3274 206.052C101.992 208.327 103.808 210.818 103.382 213.34C98.1527 212.932 93.1258 211.14 88.8176 208.147C87.9306 207.52 87.0757 206.849 86.256 206.135C85.4724 205.407 84.7612 204.68 84.1044 203.961C82.8884 202.616 81.8137 201.148 80.8973 199.583C80.1172 198.293 79.4554 196.935 78.9199 195.525C78.4979 194.451 78.1408 193.353 77.8504 192.236C77.5896 191.232 77.4045 190.209 77.2969 189.178Z" fill="#1CB0F6"/>
<path d="M62.3234 181.034C62.3234 181.034 63.471 182.517 65.2517 184.836C66.172 185.928 67.1913 187.362 68.3919 188.741C68.979 189.449 69.5897 190.196 70.22 190.972C70.8708 191.702 71.5215 192.46 72.1722 193.245C72.822 194.053 73.4969 194.799 74.1621 195.564C74.8272 196.328 75.4798 197.143 76.1142 197.92C77.3507 199.348 78.5142 200.837 79.6003 202.382C80.5406 203.655 81.2921 205.056 81.8314 206.543C82.2945 207.716 82.3178 209.017 81.8969 210.206C77.1063 208.395 72.8334 205.435 69.4531 201.588C68.0886 200.014 66.8953 198.301 65.8931 196.476C65.4302 195.624 65.0188 194.802 64.6562 194.003C64.2937 193.204 64.0036 192.37 63.7485 191.596C62.9099 189.138 62.4181 186.575 62.2871 183.982C62.2222 182.999 62.2343 182.014 62.3234 181.034Z" fill="#1CB0F6"/>
<path d="M49.1913 169.023C49.1913 169.023 49.3962 169.441 49.749 170.183C50.1018 170.925 50.5703 172.042 51.2201 173.305C51.8699 174.569 52.5699 176.129 53.415 177.727C54.2195 179.4 55.1622 181.1 56.0769 182.9C56.5189 183.811 57.0195 184.654 57.4825 185.558C57.9454 186.462 58.3847 187.343 58.8449 188.23C59.7526 189.944 60.5307 191.734 61.1861 193.301C61.8066 194.713 62.223 196.206 62.4229 197.736C62.6248 198.908 62.3854 200.113 61.7508 201.118C57.695 198.153 54.3522 194.319 51.9661 189.897C50.1988 186.566 49.0494 182.942 48.5735 179.201C48.4046 177.799 48.3286 176.388 48.3462 174.976C48.3726 173.898 48.4658 172.823 48.6251 171.757C48.7485 170.834 48.9377 169.92 49.1913 169.023Z" fill="#1CB0F6"/>
<path d="M38.635 153.769C38.635 153.769 38.7382 154.224 38.9139 155.007C39.0728 155.816 39.3796 156.907 39.7129 158.263C39.89 158.938 40.0517 159.697 40.2567 160.473C40.4617 161.25 40.6918 162.071 40.9218 162.926C41.3402 164.68 41.9258 166.461 42.4083 168.374C42.9465 170.25 43.4806 172.171 43.9533 174.027C44.4665 175.84 44.836 177.69 45.1316 179.311C45.7075 182.567 45.6294 185.343 44.1053 186.661C40.9884 182.872 38.67 178.492 37.2894 173.785C36.7729 171.891 36.4143 169.958 36.2171 168.005C36.0781 166.358 36.0604 164.704 36.1641 163.055C36.3354 160.711 36.8141 158.399 37.5878 156.18C37.8724 155.35 38.2225 154.544 38.635 153.769Z" fill="#1CB0F6"/>
<path d="M31.2403 136.033C31.2403 136.033 31.2403 136.148 31.2528 136.357C31.2654 136.566 31.2528 136.873 31.2835 137.242C31.3295 138.013 31.3825 139.113 31.4229 140.46C31.4634 141.808 31.6098 143.346 31.6628 145.077C31.7534 146.781 31.9333 148.591 32.0016 150.488C32.1689 152.323 32.2596 154.253 32.346 156.082C32.4538 157.8 32.4724 159.522 32.4018 161.242C32.3084 164.382 31.6935 166.895 30.0313 167.703C27.9277 163.46 26.655 158.853 26.2817 154.131C26.1743 152.272 26.2088 150.408 26.3849 148.554C26.5774 147.011 26.8756 145.482 27.2773 143.98C27.8692 141.882 28.7337 139.871 29.8486 137.998C30.1489 137.49 30.4815 137.002 30.8443 136.537C31.1008 136.198 31.2403 136.033 31.2403 136.033Z" fill="#1CB0F6"/>
<path d="M27.52 116.619C27.52 116.619 27.262 118.242 26.8604 120.76C26.6736 122.007 26.4505 123.475 26.2106 125.083C26.0335 126.668 25.7379 128.41 25.5134 130.142C25.1235 133.493 24.5485 136.82 23.7913 140.108C23.0857 142.957 22.0288 145.091 20.3554 145.379C20.0766 144.11 19.8297 142.878 19.6498 141.688C19.4816 140.532 19.3746 139.368 19.3291 138.202C19.2128 136.131 19.3002 134.055 19.5899 132.002C19.9939 128.841 20.9541 125.777 22.4262 122.951C22.9523 121.939 23.5521 120.967 24.2208 120.043C24.7382 119.356 25.297 118.701 25.8941 118.081C26.3946 117.55 26.9385 117.06 27.52 116.619Z" fill="#1CB0F6"/>
<path d="M27.645 96.5098C27.645 96.5098 27.486 96.8709 27.2559 97.5082C27.0258 98.1454 26.7121 99.056 26.298 100.158C25.8476 101.258 25.4208 102.557 24.9175 103.973C24.6595 104.67 24.389 105.399 24.1115 106.165C23.8661 106.911 23.6011 107.676 23.3278 108.46C22.77 109.956 22.2025 111.498 21.6336 113.046C21.0577 114.526 20.4204 115.931 19.839 117.132C18.6356 119.544 17.2453 121.202 15.6724 121.036C15.6246 118.762 15.7819 116.488 16.1423 114.243C16.3194 113.204 16.5189 112.225 16.742 111.295C16.9651 110.365 17.2802 109.482 17.5689 108.661C18.5259 105.904 19.9619 103.338 21.8107 101.081C22.9937 99.6912 24.3624 98.4712 25.8782 97.4552C26.2858 97.178 26.7143 96.9327 27.1597 96.7217C27.4707 96.5725 27.645 96.5098 27.645 96.5098Z" fill="#1CB0F6"/>
<path d="M31.7167 76.8271C31.7167 76.8271 30.9832 78.025 29.7924 79.821C29.2416 80.7441 28.5792 81.8206 27.8402 82.9682C27.1011 84.1158 26.376 85.3973 25.5575 86.6523C24.1023 89.08 22.4999 91.4163 20.7593 93.6481C20.0975 94.4831 19.3033 95.2038 18.4083 95.7816C18.1006 96.0105 17.7408 96.1593 17.3613 96.2145C16.9818 96.2698 16.5946 96.2298 16.2344 96.0981C16.6292 94.0409 17.1983 92.021 17.9356 90.0603C18.5886 88.438 19.3769 86.8735 20.2922 85.3834C21.0748 84.1634 21.9568 83.01 22.929 81.9349C23.7511 81.0723 24.6433 80.2794 25.5966 79.5644C26.9139 78.564 28.3877 77.7884 29.9583 77.2692C30.5276 77.0617 31.1169 76.9136 31.7167 76.8271Z" fill="#1CB0F6"/>
<path d="M39.6333 58.5555C39.6333 58.5555 36.1723 62.0011 32.1828 65.9459C31.2471 66.9136 30.2837 67.8674 29.3034 68.7348C28.4161 69.5612 27.4852 70.3394 26.5146 71.0662C24.7018 72.3282 23.1192 72.9724 21.9688 72.0925C22.7222 70.3538 23.6241 68.6832 24.6642 67.0991C25.58 65.8188 26.588 64.607 27.6803 63.4736C29.3701 61.7939 31.3745 60.4639 33.5787 59.5595C34.9599 58.9663 36.4321 58.6131 37.932 58.515C38.4991 58.4737 39.0689 58.4873 39.6333 58.5555Z" fill="#1CB0F6"/>
<path d="M50.9959 42.6434C50.9959 42.6434 50.7477 42.7828 50.3084 43.045C49.8692 43.3071 49.2669 43.6948 48.5181 44.1605C46.9912 45.0404 45.0319 46.34 42.918 47.5308C41.9014 48.1681 40.8445 48.7858 39.8028 49.3157C38.8524 49.8438 37.8686 50.3096 36.8578 50.7101C36.0601 51.038 35.21 51.2194 34.3479 51.2456C34.0149 51.2595 33.6831 51.196 33.3787 51.06C33.0743 50.924 32.8055 50.7193 32.5938 50.4619C37.0029 44.4659 41.9558 42.5486 45.3666 42.1037C46.7336 41.9367 48.118 41.9725 49.4747 42.2097C49.994 42.3075 50.5031 42.4526 50.9959 42.6434Z" fill="#1CB0F6"/>
<path d="M65.2871 29.9836C65.2871 29.9836 64.311 30.3169 62.7938 30.7547C62.0227 30.9597 61.1483 31.233 60.2001 31.5439C59.2519 31.8549 58.2005 32.1017 57.1658 32.4182C56.1312 32.7348 55.0743 33.0178 54.0438 33.2395C53.0932 33.4675 52.1297 33.6379 51.1586 33.7499C49.3863 33.8893 47.9599 33.5979 47.4062 32.4322C49.1422 30.8516 51.191 29.6536 53.4198 28.9158C55.6486 28.1781 58.0076 27.9171 60.3438 28.1499C62.1098 28.3761 63.8007 29.0033 65.2871 29.9836Z" fill="#1CB0F6"/>
<path d="M81.8156 21.3463C81.8156 21.3463 80.8799 21.3993 79.4451 21.4048C78.7367 21.4355 77.9112 21.4857 77.0048 21.5011C76.0985 21.5164 75.1182 21.5011 74.1505 21.5443C73.1744 21.5568 72.1829 21.5443 71.2333 21.4857C70.3453 21.4539 69.4603 21.3645 68.5839 21.218C66.9984 20.9001 65.7951 20.2754 65.5273 19.104C66.736 18.5826 67.986 18.1628 69.2644 17.849C70.3621 17.6314 71.478 17.5189 72.5971 17.513C73.5508 17.496 74.5027 17.6025 75.4291 17.8295C76.2192 18.0052 76.9938 18.2444 77.7453 18.5449C78.8513 19.0059 79.8816 19.6306 80.8018 20.398C81.1659 20.685 81.505 21.0022 81.8156 21.3463Z" fill="#1CB0F6"/>
<path d="M103.452 6.95003C103.452 6.95003 102.109 6.74226 99.9574 6.49963C98.7139 6.36314 97.4643 6.29053 96.2134 6.28209C95.5078 6.28209 94.7701 6.25145 94.0185 6.25703C93.26 6.30723 92.4847 6.35321 91.6996 6.40899C90.9145 6.46477 90.0988 6.52334 89.2956 6.62653C88.4938 6.75342 87.6823 6.89428 86.8791 7.04488C85.308 7.32945 83.7636 7.74552 82.2621 8.2887C80.8885 8.7449 79.5701 9.3529 78.3312 10.1014C77.7886 10.4229 77.2653 10.7758 76.7639 11.1584C76.3303 11.5199 75.9308 11.9203 75.5703 12.3548C76.7251 12.4731 77.889 12.4731 79.0438 12.3548C80.3309 12.2028 81.7114 11.9128 83.1797 11.6339C83.9048 11.4945 84.6438 11.3104 85.4024 11.118C86.161 10.9256 86.9098 10.7638 87.6753 10.5895C88.4409 10.4152 89.2091 10.2004 89.9663 9.98012C90.7277 9.81279 91.4863 9.6357 92.2392 9.46419C92.9825 9.27176 93.7131 9.08212 94.4257 8.90643C95.1382 8.76698 95.8313 8.60105 96.4992 8.4616C97.8337 8.16041 99.0426 7.83688 100.072 7.66537C102.13 7.25122 103.452 6.95003 103.452 6.95003Z" fill="#1CB0F6"/>
<path d="M151.67 213.64C195.889 216.756 235.856 183.315 246.181 133.237C251.265 108.586 248.08 81.8045 237.201 59.8159C226.979 39.2715 209.914 22.9342 188.944 13.6172C185.386 11.9949 181.739 10.5735 178.022 9.35999C176.573 8.89983 175.733 7.88609 177.185 8.3337C196.513 14.3297 215.763 25.2425 229.226 42.5431C242.556 59.6945 249.677 81.8046 250.712 104.693C252.803 151.006 227.51 194.155 190.157 210.192C178.004 215.286 164.806 217.39 151.671 216.328V213.635L151.67 213.64Z" fill="#1CB0F6"/>
<path d="M198.258 226.507C198.258 226.507 197.618 226.646 196.483 226.901C195.348 227.101 193.719 227.346 191.782 227.599C189.83 227.816 187.572 227.963 185.171 228C182.674 227.996 180.179 227.829 177.703 227.5C175.254 227.186 172.836 226.661 170.477 225.932C168.403 225.274 166.401 224.407 164.503 223.343C161.136 221.229 159.257 218.847 159.709 216.297C165.112 216.678 170.487 217.38 175.806 218.398C176.964 218.616 178.092 218.889 179.177 219.157C180.256 219.387 181.288 219.642 182.299 219.922C184.301 220.522 186.124 221.01 187.79 221.617C189.456 222.223 190.94 222.782 192.23 223.343C193.52 223.903 194.63 224.44 195.539 224.919C196.478 225.39 197.386 225.92 198.258 226.507Z" fill="#1CB0F6"/>
<path d="M219.429 212.792C219.429 212.792 218.86 213.096 217.849 213.563C216.839 214.03 215.412 214.71 213.666 215.391C211.693 216.159 209.682 216.828 207.641 217.393C206.534 217.692 205.39 217.99 204.23 218.251C203.052 218.481 201.86 218.686 200.68 218.863C199.506 219.053 198.321 219.173 197.133 219.221C195.964 219.277 194.816 219.33 193.712 219.295C191.676 219.245 189.653 218.961 187.683 218.449C186.157 218.06 184.729 217.359 183.488 216.391C183.008 216.008 182.614 215.528 182.333 214.982C182.052 214.436 181.891 213.836 181.859 213.223C186.902 212.126 192.012 211.363 197.155 210.937C199.386 210.745 201.508 210.713 203.442 210.669C204.418 210.657 205.358 210.687 206.269 210.725C207.179 210.763 208.019 210.778 208.843 210.841C211.454 211.023 214.048 211.396 216.604 211.956C217.565 212.166 218.509 212.446 219.429 212.792Z" fill="#1CB0F6"/>
<path d="M237.216 194.032L235.904 195.124C235.067 195.804 233.892 196.787 232.39 197.829C230.734 199.037 229.011 200.152 227.23 201.169C225.263 202.342 223.221 203.385 221.117 204.291C220.076 204.754 219.011 205.163 217.927 205.516C216.855 205.873 215.835 206.234 214.795 206.471C212.926 206.953 211.008 207.22 209.078 207.268C207.619 207.313 206.167 207.048 204.818 206.491C204.3 206.263 203.839 205.923 203.469 205.494C203.099 205.065 202.83 204.559 202.682 204.013C207.087 201.652 211.654 199.604 216.347 197.885C219.844 196.586 223.438 195.568 227.097 194.841C228.631 194.532 230.025 194.327 231.28 194.203C232.535 194.079 233.578 193.986 234.458 193.961C235.378 193.915 236.3 193.939 237.216 194.032Z" fill="#1CB0F6"/>
<path d="M250.819 171.279C250.819 171.279 250.467 171.761 249.83 172.604C249.218 173.465 248.247 174.609 247.087 175.943C246.506 176.611 245.899 177.346 245.199 178.07L242.985 180.292C241.394 181.852 239.718 183.322 237.965 184.696C236.251 186.012 234.451 187.213 232.577 188.291C230.97 189.21 229.267 189.951 227.5 190.501C224.334 191.368 221.958 191.12 220.977 189.189C224.54 185.859 228.34 182.792 232.348 180.013C234.034 178.777 235.738 177.782 237.28 176.855C238.822 175.928 240.312 175.166 241.677 174.517C243.803 173.461 246.012 172.581 248.281 171.883C249.11 171.617 249.959 171.415 250.819 171.279Z" fill="#1CB0F6"/>
<path d="M259.601 145.716C259.601 145.716 259.545 145.843 259.439 146.098C259.333 146.354 259.174 146.718 258.938 147.168C258.496 148.083 257.851 149.375 257.052 150.902C256.253 152.429 255.204 154.109 254.107 155.893C253.009 157.676 251.65 159.453 250.342 161.192C249.013 162.826 247.594 164.385 246.092 165.862C244.796 167.106 243.382 168.22 241.869 169.189C239.146 170.812 236.913 171.194 235.645 169.695C238.253 165.707 241.142 161.909 244.29 158.33C245.53 156.88 246.845 155.496 248.229 154.182C249.359 153.032 250.551 151.945 251.799 150.926C253.544 149.432 255.41 148.084 257.377 146.896C258.089 146.471 258.646 146.178 259.018 145.985C259.39 145.793 259.601 145.716 259.601 145.716Z" fill="#1CB0F6"/>
<path d="M263.098 118.69C263.098 118.69 262.976 119.225 262.756 120.179C262.511 121.115 262.237 122.455 261.737 124.028C261.236 125.601 260.687 127.425 259.99 129.304C259.237 131.201 258.482 133.175 257.549 135.076C255.97 138.52 253.892 141.712 251.38 144.55C249.207 146.736 247.247 147.672 245.793 146.641C246.248 145.397 246.716 144.201 247.208 143.066C247.701 141.931 248.126 140.811 248.614 139.776C249.603 137.693 250.485 135.759 251.463 134.005C253.071 130.995 254.894 128.106 256.919 125.359C257.756 124.231 258.605 123.233 259.336 122.396C260.066 121.56 260.719 120.848 261.279 120.305C261.847 119.725 262.455 119.185 263.098 118.69Z" fill="#1CB0F6"/>
<path d="M261.302 91.6787C261.302 91.6787 261.312 92.1947 261.267 93.1066C261.223 94.0186 261.128 95.3112 261.004 96.859C260.905 98.3929 260.668 100.186 260.369 102.07C260.23 103.003 260.071 103.982 259.894 104.952C259.682 105.938 259.456 106.914 259.222 107.893C258.987 108.872 258.734 109.824 258.473 110.76C258.172 111.699 257.858 112.61 257.534 113.481C256.987 115.067 256.284 116.596 255.436 118.045C253.902 120.591 252.311 121.963 250.781 121.422C251.708 113.765 253.767 106.288 256.892 99.2365C257.746 97.2666 258.763 95.3715 259.933 93.571C260.351 92.9463 260.689 92.4666 260.928 92.15C261.168 91.8335 261.302 91.6787 261.302 91.6787Z" fill="#1CB0F6"/>
<path d="M254.305 65.9521C254.305 65.9521 254.641 67.8611 255.002 70.6932C255.133 72.1267 255.27 73.7958 255.384 75.5625C255.499 77.3293 255.453 79.2508 255.425 81.1123C255.377 84.5504 254.866 87.9665 253.905 91.2679C253.579 92.405 253.06 93.4776 252.371 94.4388C252.148 94.7722 251.847 95.0452 251.493 95.2336C251.139 95.4219 250.744 95.5197 250.343 95.5181C250.194 93.1476 250.101 90.9416 250.126 88.8667C250.088 86.8141 250.216 84.8647 250.341 83.0743C250.438 81.402 250.624 79.7361 250.898 78.0836C251.11 76.5595 251.368 75.1554 251.66 73.8864C252.113 71.8944 252.69 69.9328 253.389 68.0131C253.651 67.3076 253.957 66.6193 254.305 65.9521Z" fill="#1CB0F6"/>
<path d="M242.531 42.9058C242.531 42.9058 242.69 43.313 242.969 44.0213C243.248 44.7297 243.619 45.7379 243.998 46.997C244.377 48.2562 244.847 49.6924 245.253 51.2667C245.635 52.8466 246.012 54.5436 246.325 56.2323C246.604 57.946 246.808 59.6654 246.925 61.2731C247.039 62.762 247.021 64.2579 246.872 65.7437C246.645 68.375 245.846 70.2058 244.502 70.4847C242.545 64.0646 241.561 57.3873 241.584 50.6755C241.631 48.7636 241.802 46.8566 242.095 44.9667C242.201 44.272 242.347 43.5839 242.531 42.9058Z" fill="#1CB0F6"/>
<path d="M226.72 23.6626C226.72 23.6626 226.928 23.9764 227.307 24.5425C227.686 25.1086 228.169 25.9634 228.746 26.9772C230.174 29.4438 231.429 32.0064 232.503 34.6465C233.053 36.1051 233.562 37.5845 233.976 38.9999C234.354 40.3078 234.62 41.6451 234.773 42.9977C235.059 45.4073 234.717 47.2423 233.56 47.8545C230.537 42.5728 228.404 36.8296 227.247 30.8551C226.921 29.1242 226.734 27.3699 226.689 25.6092C226.661 24.9603 226.671 24.3103 226.72 23.6626Z" fill="#1CB0F6"/>
<path d="M207.691 9.11084C207.691 9.11084 208.667 10.0786 210.07 11.5762C210.879 12.4256 211.644 13.3159 212.361 14.2437C213.16 15.263 214.012 16.3144 214.778 17.4718C215.543 18.6292 216.27 19.8228 216.889 20.9704C217.471 22.0439 217.956 23.1666 218.341 24.3254C219.038 26.4087 219.105 28.0904 218.191 28.9396C214.461 25.0003 211.492 20.405 209.433 15.3858C208.569 13.3834 207.983 11.2721 207.691 9.11084Z" fill="#1CB0F6"/>
<path d="M186.43 0.000488281C186.43 0.000488281 187.469 0.597289 188.97 1.55526C190.789 2.799 192.523 4.16302 194.16 5.63815C195.053 6.4748 195.902 7.33234 196.67 8.17597C197.373 8.98476 198.008 9.8499 198.57 10.7626C199.565 12.4443 199.95 13.8973 199.313 14.8762C198.097 14.122 196.938 13.2793 195.846 12.3551C194.855 11.582 193.914 10.7479 193.027 9.85768C192.197 8.99685 191.453 8.18111 190.796 7.41046C190.185 6.67549 189.615 5.9074 189.089 5.10966C188.31 3.94887 187.617 2.73297 187.015 1.4716C186.789 0.99403 186.594 0.502691 186.43 0.000488281Z" fill="#1CB0F6"/>
<path d="M185.804 189.178C185.804 189.178 185.438 189.489 184.798 190.055C184.145 190.574 183.209 191.31 182.077 192.269C180.929 193.18 179.574 194.221 178.088 195.372C176.596 196.448 174.981 197.71 173.302 198.858C171.644 200.113 169.925 201.228 168.299 202.474C166.725 203.579 165.216 204.774 163.778 206.052C161.108 208.327 159.295 210.818 159.717 213.34C164.947 212.934 169.975 211.142 174.282 208.147C175.171 207.52 176.027 206.849 176.848 206.135C177.632 205.407 178.34 204.68 178.999 203.961C180.218 202.617 181.293 201.15 182.207 199.583C182.987 198.293 183.65 196.935 184.187 195.525C184.607 194.451 184.965 193.352 185.256 192.236C185.515 191.232 185.698 190.209 185.804 189.178Z" fill="#1CB0F6"/>
<path d="M200.775 181.034L197.846 184.836C196.923 185.928 195.907 187.362 194.703 188.741C194.109 189.449 193.503 190.196 192.875 190.972C192.225 191.702 191.574 192.46 190.923 193.245C190.279 194.053 189.601 194.799 188.933 195.564C188.265 196.328 187.618 197.143 186.981 197.92C185.684 199.384 184.506 200.98 183.495 202.382C182.552 203.653 181.8 205.055 181.264 206.543C180.798 207.716 180.774 209.018 181.198 210.206C185.986 208.395 190.256 205.435 193.633 201.588C195.001 200.017 196.195 198.303 197.195 196.476C197.662 195.624 198.072 194.802 198.436 194.003C198.8 193.204 199.086 192.37 199.344 191.596C200.182 189.138 200.674 186.575 200.808 183.982C200.873 183 200.862 182.014 200.775 181.034Z" fill="#1CB0F6"/>
<path d="M213.911 169.023C213.911 169.023 213.709 169.441 213.36 170.183C213.012 170.925 212.524 172.042 211.883 173.305C211.243 174.569 210.534 176.129 209.689 177.727C208.88 179.4 207.939 181.1 207.031 182.9C206.589 183.811 206.083 184.654 205.623 185.558C205.162 186.462 204.72 187.343 204.267 188.23C203.352 189.944 202.581 191.734 201.919 193.301C201.298 194.713 200.882 196.206 200.685 197.736C200.48 198.907 200.718 200.113 201.353 201.118C205.41 198.155 208.752 194.321 211.135 189.897C212.903 186.566 214.053 182.942 214.53 179.201C214.697 177.799 214.774 176.388 214.76 174.976C214.729 173.899 214.636 172.824 214.481 171.757C214.358 170.833 214.168 169.919 213.911 169.023Z" fill="#1CB0F6"/>
<path d="M224.469 153.769C224.469 153.769 224.365 154.224 224.183 155.007C224.031 155.816 223.722 156.907 223.384 158.263C223.207 158.938 223.048 159.697 222.843 160.473C222.638 161.25 222.41 162.071 222.177 162.926C221.752 164.68 221.171 166.461 220.694 168.374C220.153 170.25 219.621 172.171 219.146 174.027C218.64 175.84 218.266 177.69 217.965 179.311C217.393 182.567 217.47 185.343 218.991 186.661C222.109 182.872 224.428 178.492 225.81 173.785C226.328 171.891 226.687 169.958 226.882 168.005C227.02 166.358 227.037 164.704 226.935 163.055C226.762 160.711 226.285 158.4 225.517 156.18C225.229 155.351 224.878 154.545 224.469 153.769Z" fill="#1CB0F6"/>
<path d="M231.854 136.033C231.854 136.033 231.854 136.148 231.842 136.357C231.829 136.566 231.842 136.873 231.814 137.242C231.774 138.013 231.718 139.113 231.683 140.46C231.648 141.808 231.49 143.346 231.435 145.077C231.351 146.781 231.167 148.591 231.096 150.488C230.931 152.323 230.843 154.253 230.754 156.082C230.638 157.885 230.638 159.665 230.696 161.242C230.792 164.382 231.411 166.895 233.066 167.703C236.108 161.806 237.375 155.153 236.714 148.55C236.524 147.005 236.224 145.477 235.816 143.976C235.227 141.878 234.364 139.867 233.25 137.994C232.949 137.487 232.616 136.998 232.255 136.532C232.001 136.198 231.854 136.033 231.854 136.033Z" fill="#1CB0F6"/>
<path d="M235.578 116.619C235.578 116.619 235.839 118.242 236.238 120.76C236.425 122.007 236.656 123.475 236.885 125.083C237.065 126.668 237.363 128.41 237.582 130.142C237.969 133.494 238.547 136.821 239.311 140.108C240.008 142.957 241.071 145.091 242.737 145.379C243.016 144.11 243.266 142.878 243.45 141.688C243.617 140.532 243.722 139.368 243.763 138.202C243.881 136.132 243.796 134.055 243.508 132.002C243.099 128.842 242.138 125.778 240.669 122.951C240.142 121.94 239.542 120.968 238.875 120.043C238.36 119.354 237.801 118.698 237.201 118.081C236.702 117.55 236.159 117.061 235.578 116.619Z" fill="#1CB0F6"/>
<path d="M235.457 96.5098C235.457 96.5098 235.612 96.8709 235.842 97.5082C236.072 98.1454 236.393 99.056 236.805 100.158C237.25 101.258 237.68 102.557 238.18 103.973C238.438 104.67 238.709 105.399 238.989 106.165C239.238 106.908 239.499 107.674 239.773 108.46C240.331 109.956 240.888 111.498 241.467 113.046C242.043 114.526 242.686 115.931 243.257 117.132C244.464 119.544 245.854 121.202 247.424 121.036C247.475 118.762 247.319 116.488 246.958 114.243C246.781 113.204 246.582 112.225 246.354 111.295C246.125 110.403 245.85 109.524 245.53 108.661C244.571 105.905 243.134 103.339 241.286 101.081C240.105 99.6917 238.739 98.4717 237.225 97.4552C236.817 97.1793 236.388 96.9341 235.944 96.7217C235.634 96.5725 235.457 96.5098 235.457 96.5098Z" fill="#1CB0F6"/>
<path d="M231.389 76.8271C231.389 76.8271 232.117 78.025 233.31 79.821C233.861 80.7441 234.519 81.8206 235.262 82.9682C236.006 84.1158 236.727 85.3973 237.551 86.6523C239.003 89.0805 240.604 91.4169 242.345 93.6481C243.007 94.4815 243.8 95.202 244.693 95.7816C245.001 96.0104 245.361 96.1591 245.741 96.2143C246.121 96.2696 246.509 96.2297 246.87 96.0981C246.475 94.0409 245.906 92.021 245.168 90.0603C244.516 88.4381 243.729 86.8736 242.815 85.3834C242.03 84.1648 241.148 83.0116 240.178 81.9349C239.353 81.0737 238.46 80.2809 237.507 79.5644C236.191 78.5647 234.718 77.7892 233.148 77.2692C232.579 77.062 231.989 76.9139 231.389 76.8271Z" fill="#1CB0F6"/>
<path d="M223.473 58.5552C223.473 58.5552 226.934 62.0008 230.916 65.9456C231.862 66.9133 232.822 67.8671 233.801 68.7344C234.686 69.5606 235.614 70.3388 236.582 71.0659C238.394 72.3279 239.977 72.9721 241.13 72.0922C240.375 70.354 239.472 68.6835 238.432 67.0988C237.518 65.8178 236.511 64.606 235.419 63.4733C233.728 61.7958 231.725 60.466 229.523 59.5591C228.141 58.9666 226.668 58.6134 225.167 58.5147C224.602 58.4739 224.035 58.4874 223.473 58.5552Z" fill="#1CB0F6"/>
<path d="M212.109 42.6429C212.109 42.6429 212.355 42.7824 212.787 43.0445C213.219 43.3067 213.834 43.6943 214.584 44.1601C216.111 45.0399 218.071 46.3395 220.182 47.5304C221.201 48.1676 222.259 48.7854 223.304 49.3152C224.253 49.8426 225.235 50.3084 226.245 50.7097C227.042 51.0384 227.893 51.2198 228.755 51.2451C229.089 51.2589 229.421 51.1954 229.726 51.0595C230.032 50.9235 230.301 50.7189 230.514 50.4615C226.102 44.4655 221.145 42.5481 217.732 42.1033C216.366 41.9363 214.983 41.972 213.628 42.2093C213.109 42.306 212.601 42.4512 212.109 42.6429Z" fill="#1CB0F6"/>
<path d="M197.814 29.9835C197.814 29.9835 198.791 30.3168 200.312 30.7547C201.077 30.9597 201.957 31.2329 202.908 31.5439C203.859 31.8548 204.901 32.1017 205.937 32.4182C206.973 32.7347 208.029 33.0178 209.065 33.2395C210.013 33.4669 210.973 33.6374 211.941 33.7499C213.716 33.8893 215.149 33.5979 215.694 32.4322C213.958 30.8516 211.91 29.6536 209.682 28.9159C207.453 28.1782 205.095 27.9172 202.759 28.1499C200.993 28.3759 199.301 29.0031 197.814 29.9835Z" fill="#1CB0F6"/>
<path d="M181.281 21.3463C181.281 21.3463 182.217 21.3992 183.652 21.4048C184.364 21.4355 185.194 21.4857 186.096 21.501C186.998 21.5164 187.98 21.501 188.948 21.5443C189.924 21.5568 190.915 21.5442 191.876 21.4857C192.76 21.4534 193.641 21.364 194.513 21.218C196.108 20.9 197.302 20.2753 197.572 19.104C196.362 18.5825 195.111 18.1627 193.831 17.849C192.733 17.6311 191.617 17.5186 190.498 17.5129C189.546 17.4962 188.595 17.6026 187.669 17.8295C186.88 18.0042 186.106 18.2435 185.356 18.5448C184.249 19.006 183.218 19.6306 182.296 20.398C181.933 20.6857 181.593 21.0028 181.281 21.3463Z" fill="#1CB0F6"/>
<path d="M159.652 6.95003C159.652 6.95003 160.995 6.74226 163.138 6.49963C164.385 6.36291 165.637 6.2903 166.891 6.28209C167.588 6.28209 168.327 6.25145 169.08 6.25703C169.836 6.30723 170.614 6.35321 171.399 6.40899C172.184 6.46477 172.997 6.52334 173.803 6.62653C174.612 6.75388 175.416 6.89335 176.215 7.04488C177.788 7.32901 179.334 7.74509 180.836 8.2887C182.21 8.74614 183.53 9.35407 184.77 10.1014C185.311 10.4236 185.834 10.7765 186.335 11.1584C186.767 11.5199 187.166 11.9204 187.525 12.3548C186.371 12.4732 185.207 12.4732 184.052 12.3548C182.768 12.2028 181.387 11.9128 179.923 11.6339C179.198 11.4945 178.449 11.3104 177.7 11.118C176.952 10.9256 176.193 10.7638 175.422 10.5895C174.651 10.4152 173.895 10.2004 173.134 9.98012C172.37 9.81279 171.61 9.6357 170.864 9.46419C170.12 9.27176 169.39 9.08212 168.674 8.90643C167.956 8.76698 167.266 8.60105 166.597 8.4616C165.269 8.16041 164.056 7.83688 163.024 7.66537C160.967 7.25122 159.652 6.95003 159.652 6.95003Z" fill="#1CB0F6"/>
<path d="M55.4127 142.99L55.1198 142.864L50.832 137.029C50.8954 136.802 51.0181 136.596 51.1875 136.432C51.2744 136.351 51.3764 136.288 51.4877 136.247C51.599 136.206 51.7174 136.187 51.836 136.192C52.0398 136.188 52.2381 136.258 52.3937 136.39C52.5758 136.556 52.7373 136.743 52.8748 136.948L56.3051 141.863L56.7862 142.282L61.1786 148.368C61.1309 148.591 61.0183 148.795 60.8551 148.954C60.7691 149.032 60.6683 149.093 60.5587 149.133C60.4491 149.172 60.3328 149.19 60.2164 149.184C60.017 149.192 59.8205 149.133 59.6587 149.017C59.4736 148.862 59.3145 148.678 59.1874 148.473L55.4127 142.99ZM56.835 142.739L56.3748 143.157L52.087 149.139C52.0219 149.156 51.9557 149.168 51.8889 149.174C51.8118 149.182 51.7383 149.185 51.6686 149.185C51.4277 149.198 51.1904 149.123 50.9993 148.976C50.9184 148.911 50.8537 148.828 50.8102 148.734C50.7666 148.639 50.7455 148.536 50.7483 148.432C50.7488 148.252 50.7969 148.075 50.8877 147.919C50.9909 147.74 51.1064 147.569 51.2336 147.406L55.1449 142.282L55.7027 141.759L59.6768 136.258C59.7465 136.244 59.8162 136.233 59.886 136.226C59.9557 136.218 60.0324 136.214 60.1161 136.214C60.3542 136.196 60.5902 136.271 60.7742 136.424C60.8455 136.49 60.902 136.571 60.94 136.662C60.9779 136.752 60.9965 136.849 60.9945 136.946C60.991 137.1 60.9514 137.25 60.8788 137.386C60.7986 137.546 60.7053 137.7 60.5999 137.846C60.0003 138.655 59.3868 139.467 58.7593 140.283C58.1318 141.1 57.4903 141.918 56.835 142.739ZM75.1619 142.676C75.2041 143.94 74.9309 145.195 74.3671 146.327C73.8804 147.267 73.1271 148.043 72.2015 148.558C71.2467 149.071 70.1761 149.332 69.092 149.314C68.0129 149.329 66.9476 149.07 65.9963 148.561C65.0665 148.049 64.3094 147.272 63.821 146.33C63.2582 145.196 62.9864 143.941 63.0304 142.676C62.9879 141.41 63.2687 140.154 63.8461 139.027C64.3447 138.088 65.104 137.313 66.0326 136.796C66.9739 136.287 68.0302 136.027 69.1003 136.043C70.1764 136.026 71.2388 136.285 72.1862 136.796C73.113 137.312 73.8691 138.087 74.3615 139.027C74.9306 140.157 75.2059 141.412 75.1619 142.676ZM73.4258 142.676C73.5126 141.294 73.0883 139.928 72.2336 138.839C71.8427 138.393 71.3572 138.041 70.8127 137.808C70.2682 137.574 69.6784 137.465 69.0864 137.489C68.4974 137.466 67.9109 137.576 67.3697 137.81C66.8285 138.043 66.3464 138.395 65.9587 138.839C65.108 139.93 64.6877 141.295 64.7776 142.676C64.6877 144.056 65.1042 145.421 65.9489 146.515C66.3374 146.961 66.821 147.313 67.3641 147.547C67.9071 147.781 68.4957 147.889 69.0864 147.865C69.6803 147.891 70.2725 147.783 70.8191 147.549C71.3658 147.316 71.853 146.962 72.2448 146.515C73.0915 145.421 73.51 144.056 73.4217 142.676H73.4258ZM68.8242 133.891L70.7276 131.883C70.9811 131.88 71.2279 131.965 71.4248 132.125C71.4999 132.187 71.5603 132.266 71.602 132.355C71.6436 132.443 71.6655 132.54 71.6661 132.638C71.6726 132.806 71.6326 132.972 71.5503 133.119C71.4372 133.285 71.2999 133.433 71.1432 133.558L69.3653 135.148C69.1442 135.135 68.9306 135.063 68.7475 134.938C68.6799 134.892 68.6246 134.829 68.5865 134.756C68.5483 134.683 68.5285 134.602 68.5286 134.52C68.5248 134.396 68.5537 134.274 68.6123 134.165C68.669 134.065 68.7389 133.973 68.8201 133.891H68.8242ZM82.399 137.635H82.3153C82.1061 138.221 81.8584 138.918 81.5721 139.727C81.2857 140.536 80.9929 141.369 80.6936 142.227C80.3933 143.085 80.1107 143.883 79.8458 144.621L79.7412 144.935L79.4274 145.876C79.3019 146.253 79.1695 146.647 79.03 147.059C78.8906 147.471 78.7581 147.854 78.6326 148.209C78.5071 148.565 78.4095 148.855 78.3398 149.078C78.2416 149.121 78.1393 149.153 78.0344 149.174C77.9065 149.197 77.7767 149.208 77.6468 149.206C77.4347 149.209 77.2268 149.147 77.0513 149.028C76.9622 148.962 76.8913 148.875 76.8457 148.774C76.8 148.673 76.781 148.562 76.7906 148.452C76.7904 148.318 76.8111 148.186 76.8519 148.059C76.8938 147.926 76.9403 147.783 76.9914 147.629C77.1587 147.155 77.3646 146.576 77.6091 145.893C77.8536 145.21 78.1218 144.464 78.4137 143.655C78.7065 142.846 79.0133 142.017 79.334 141.166C79.6547 140.315 79.9685 139.486 80.2753 138.677C80.582 137.868 80.8679 137.129 81.1328 136.46C81.294 136.387 81.4622 136.331 81.6348 136.292C81.8606 136.236 82.0924 136.208 82.3251 136.209C82.5987 136.208 82.8707 136.25 83.131 136.334C83.2402 136.36 83.3417 136.411 83.427 136.484C83.5124 136.557 83.5792 136.649 83.6219 136.753C83.9565 137.561 84.3154 138.478 84.6984 139.502C85.0814 140.527 85.4686 141.596 85.8599 142.71C86.2504 143.819 86.6222 144.896 86.9755 145.942C87.3287 146.988 87.6457 147.936 87.9265 148.787C87.823 148.917 87.6901 149.021 87.5388 149.09C87.3745 149.166 87.1954 149.204 87.0145 149.202C86.7975 149.217 86.5824 149.153 86.4079 149.024C86.2398 148.859 86.1173 148.653 86.0524 148.427L84.902 145.017L84.7346 144.432C84.4557 143.581 84.1662 142.724 83.8659 141.859C83.5656 140.994 83.2867 140.193 83.0292 139.454C82.7736 138.716 82.5626 138.109 82.3962 137.635H82.399ZM78.9268 145.646L79.4707 144.245H85.3063L85.641 145.646H78.9268ZM103.608 141.735V143.115H97.8562V141.735H103.608ZM101.203 143.115L101.872 142.07C102.686 142.041 103.495 142.202 104.236 142.539C104.816 142.81 105.306 143.242 105.648 143.783C105.964 144.307 106.127 144.909 106.118 145.521C106.153 146.069 106.045 146.617 105.804 147.111C105.563 147.605 105.198 148.027 104.745 148.338C103.561 149.02 102.204 149.34 100.84 149.258C100.468 149.258 100.092 149.248 99.7108 149.227C99.3296 149.207 98.9578 149.168 98.5952 149.111C98.2327 149.056 97.8841 148.986 97.5494 148.902C96.9637 148.735 96.6709 148.414 96.6709 147.94V137.238C96.6597 137.047 96.7237 136.859 96.8494 136.715C96.9908 136.577 97.1689 136.483 97.3625 136.443C97.8575 136.301 98.3652 136.208 98.8783 136.164C99.4156 136.116 99.991 136.092 100.605 136.092C101.887 136.02 103.164 136.313 104.286 136.938C104.716 137.212 105.065 137.596 105.297 138.051C105.528 138.505 105.634 139.013 105.604 139.522C105.608 140.091 105.459 140.65 105.174 141.142C104.848 141.673 104.366 142.089 103.794 142.335C102.989 142.666 102.121 142.82 101.252 142.784L101.063 141.738C101.806 141.79 102.544 141.587 103.155 141.163C103.391 140.971 103.578 140.725 103.701 140.447C103.825 140.169 103.881 139.866 103.866 139.562C103.885 139.253 103.819 138.943 103.675 138.668C103.531 138.393 103.315 138.162 103.05 138.001C102.3 137.613 101.458 137.435 100.614 137.487C100.14 137.487 99.7219 137.505 99.3594 137.54C98.9968 137.576 98.6621 137.622 98.3554 137.68V147.64C98.7392 147.717 99.127 147.773 99.5169 147.808C99.9566 147.849 100.399 147.87 100.844 147.87C101.761 147.928 102.674 147.725 103.48 147.285C103.776 147.091 104.015 146.823 104.173 146.507C104.331 146.191 104.402 145.839 104.379 145.486C104.391 145.155 104.324 144.826 104.185 144.527C104.045 144.227 103.836 143.964 103.575 143.761C102.877 143.286 102.041 143.058 101.199 143.115H101.203ZM120.613 142.676C120.655 143.94 120.382 145.195 119.818 146.327C119.33 147.266 118.576 148.041 117.65 148.554C116.696 149.068 115.627 149.33 114.543 149.314C113.464 149.329 112.399 149.07 111.448 148.561C110.518 148.049 109.761 147.272 109.272 146.33C108.708 145.198 108.435 143.943 108.478 142.679C108.435 141.413 108.716 140.157 109.293 139.03C109.791 138.091 110.55 137.316 111.478 136.799C112.42 136.289 113.476 136.03 114.546 136.046C115.622 136.029 116.685 136.288 117.632 136.799C118.559 137.315 119.315 138.09 119.807 139.03C120.376 140.159 120.652 141.413 120.609 142.676H120.613ZM118.877 142.676C118.966 141.295 118.544 139.929 117.692 138.839C117.301 138.393 116.815 138.041 116.271 137.808C115.726 137.574 115.137 137.465 114.545 137.489C113.956 137.467 113.37 137.576 112.829 137.81C112.288 138.043 111.806 138.395 111.418 138.839C110.567 139.93 110.146 141.295 110.236 142.676C110.146 144.056 110.562 145.421 111.407 146.515C111.796 146.961 112.279 147.313 112.822 147.547C113.365 147.781 113.954 147.889 114.545 147.865C115.139 147.891 115.731 147.783 116.277 147.549C116.824 147.316 117.311 146.962 117.703 146.515C118.547 145.42 118.963 144.056 118.873 142.676H118.877ZM114.506 131.59C114.84 131.587 115.172 131.651 115.482 131.779C115.771 131.895 116.021 132.091 116.204 132.343C116.395 132.619 116.493 132.949 116.483 133.285C116.498 133.491 116.464 133.698 116.384 133.889C116.304 134.08 116.18 134.249 116.023 134.383C115.716 134.627 115.346 134.776 114.956 134.812V135.23C114.879 135.265 114.799 135.293 114.716 135.314C114.589 135.344 114.459 135.358 114.329 135.355C114.163 135.364 113.997 135.332 113.847 135.261C113.797 135.237 113.755 135.2 113.725 135.154C113.696 135.108 113.68 135.054 113.68 134.998V134.441C113.674 134.364 113.683 134.286 113.707 134.213C113.731 134.139 113.769 134.071 113.82 134.013C113.878 133.962 113.946 133.924 114.02 133.9C114.093 133.876 114.171 133.867 114.248 133.873H114.394C114.91 133.873 115.168 133.685 115.168 133.308C115.168 133.232 115.152 133.156 115.122 133.086C115.091 133.015 115.047 132.952 114.991 132.9C114.823 132.765 114.609 132.702 114.395 132.723C114.213 132.723 114.033 132.755 113.861 132.818C113.692 132.878 113.528 132.952 113.371 133.038C113.261 132.987 113.161 132.916 113.078 132.829C113.028 132.776 112.989 132.713 112.964 132.645C112.938 132.577 112.927 132.504 112.931 132.431C112.931 132.152 113.106 131.943 113.454 131.804C113.787 131.667 114.142 131.595 114.501 131.59H114.506ZM131.59 142.802H133.995C134.856 142.851 135.709 142.616 136.422 142.132C136.718 141.897 136.952 141.593 137.105 141.247C137.258 140.901 137.325 140.523 137.3 140.145C137.323 139.767 137.25 139.389 137.089 139.045C136.929 138.702 136.685 138.404 136.38 138.179C135.593 137.685 134.671 137.451 133.744 137.51C133.368 137.51 132.988 137.527 132.604 137.563C132.22 137.598 131.882 137.645 131.589 137.702L131.59 142.802ZM133.995 144.224H129.896V137.238C129.89 137.145 129.902 137.051 129.933 136.963C129.964 136.875 130.012 136.794 130.074 136.725C130.221 136.592 130.397 136.496 130.588 136.446C131.075 136.304 131.576 136.212 132.082 136.171C132.674 136.115 133.25 136.087 133.809 136.087C135.196 135.984 136.577 136.36 137.72 137.154C138.153 137.519 138.495 137.978 138.72 138.497C138.945 139.016 139.047 139.58 139.017 140.145C139.034 140.902 138.837 141.649 138.451 142.3C138.051 142.933 137.467 143.43 136.777 143.722C135.896 144.084 134.948 144.255 133.995 144.224ZM134.037 143.68L135.292 143.053C135.683 143.541 136.087 144.05 136.505 144.58C136.924 145.109 137.328 145.625 137.719 146.127C138.109 146.629 138.458 147.079 138.764 147.477C139.071 147.875 139.308 148.186 139.476 148.409C139.426 148.635 139.296 148.836 139.109 148.973C138.945 149.104 138.744 149.177 138.534 149.183C138.325 149.191 138.118 149.128 137.949 149.004C137.766 148.855 137.605 148.682 137.468 148.491L134.037 143.68ZM129.896 143.764H131.611V148.993C131.527 149.021 131.416 149.052 131.276 149.088C131.126 149.124 130.971 149.142 130.816 149.141C130.569 149.16 130.323 149.094 130.119 148.952C130.039 148.878 129.978 148.787 129.939 148.685C129.901 148.583 129.886 148.474 129.896 148.365V143.764ZM146.754 137.628H146.671C146.462 138.214 146.214 138.911 145.929 139.72C145.644 140.529 145.351 141.362 145.05 142.22C144.753 143.082 144.47 143.882 144.203 144.621L144.098 144.935L143.784 145.876C143.659 146.253 143.526 146.647 143.387 147.059C143.247 147.471 143.115 147.854 142.99 148.209C142.864 148.565 142.766 148.855 142.697 149.078C142.599 149.12 142.498 149.153 142.394 149.174C142.266 149.196 142.136 149.205 142.006 149.202C141.794 149.205 141.587 149.143 141.411 149.024C141.322 148.958 141.251 148.871 141.205 148.771C141.159 148.67 141.14 148.559 141.149 148.449C141.149 148.316 141.171 148.185 141.212 148.059C141.253 147.928 141.302 147.789 141.358 147.64C141.525 147.166 141.731 146.588 141.976 145.904C142.22 145.221 142.488 144.475 142.78 143.666C143.073 142.857 143.38 142.028 143.701 141.177C144.021 140.327 144.335 139.497 144.642 138.688C144.949 137.879 145.235 137.14 145.499 136.471C145.661 136.398 145.829 136.342 146.001 136.304C146.228 136.242 146.461 136.21 146.696 136.206C146.97 136.205 147.242 136.247 147.502 136.332C147.611 136.357 147.713 136.409 147.798 136.481C147.883 136.554 147.95 136.646 147.993 136.75C148.327 137.559 148.687 138.475 149.071 139.5C149.455 140.524 149.841 141.593 150.231 142.707C150.621 143.816 150.993 144.893 151.346 145.939C151.7 146.985 152.017 147.933 152.297 148.784C152.194 148.914 152.061 149.018 151.91 149.088C151.743 149.166 151.561 149.206 151.377 149.203C151.16 149.218 150.945 149.155 150.77 149.025C150.602 148.86 150.48 148.654 150.415 148.428L149.264 145.019L149.097 144.433C148.818 143.583 148.529 142.725 148.228 141.86C147.928 140.996 147.65 140.194 147.393 139.455C147.135 138.716 146.922 138.109 146.754 137.635V137.628ZM143.282 145.646L143.826 144.245H149.662L149.997 145.646H143.282ZM145.96 134.812L144.119 132.971C144.106 132.923 144.099 132.874 144.098 132.825V132.72C144.09 132.515 144.161 132.316 144.296 132.162C144.36 132.09 144.44 132.033 144.528 131.995C144.617 131.957 144.713 131.939 144.809 131.942C144.956 131.936 145.102 131.968 145.234 132.034C145.365 132.1 145.478 132.197 145.562 132.318L147.319 134.431C147.317 134.623 147.247 134.809 147.121 134.954C147.061 135.017 146.987 135.066 146.906 135.098C146.825 135.131 146.738 135.146 146.651 135.142C146.523 135.145 146.396 135.113 146.285 135.049C146.169 134.979 146.061 134.9 145.96 134.812ZM166.02 142.676C166.062 143.94 165.789 145.195 165.225 146.327C164.739 147.267 163.986 148.043 163.061 148.558C162.107 149.071 161.037 149.331 159.954 149.314C158.875 149.329 157.81 149.07 156.858 148.561C155.929 148.049 155.172 147.272 154.683 146.33C154.119 145.198 153.846 143.943 153.888 142.679C153.846 141.413 154.127 140.157 154.704 139.03C155.202 138.091 155.961 137.316 156.889 136.799C157.83 136.289 158.887 136.03 159.957 136.046C161.033 136.029 162.095 136.288 163.043 136.799C163.97 137.315 164.726 138.09 165.218 139.03C165.787 140.159 166.063 141.413 166.02 142.676ZM164.284 142.676C164.374 141.295 163.953 139.93 163.103 138.839C162.712 138.393 162.226 138.041 161.682 137.808C161.137 137.574 160.548 137.465 159.955 137.489C159.367 137.466 158.78 137.576 158.239 137.81C157.698 138.043 157.216 138.395 156.828 138.839C155.977 139.93 155.557 141.295 155.647 142.676C155.557 144.056 155.973 145.421 156.818 146.515C157.207 146.961 157.69 147.313 158.233 147.547C158.776 147.781 159.365 147.889 159.955 147.865C160.549 147.891 161.142 147.783 161.688 147.549C162.235 147.316 162.722 146.962 163.114 146.515C163.958 145.42 164.374 144.056 164.284 142.676ZM184.594 137.719C184.594 137.898 184.531 138.072 184.415 138.21C184.307 138.349 184.167 138.46 184.008 138.535C183.611 138.256 183.186 138.018 182.742 137.824C182.134 137.579 181.482 137.465 180.827 137.489C180.025 137.476 179.235 137.679 178.538 138.075C177.841 138.486 177.281 139.093 176.927 139.82C176.502 140.718 176.298 141.704 176.33 142.697C176.224 144.104 176.679 145.495 177.596 146.567C178.026 146.999 178.54 147.338 179.107 147.561C179.674 147.784 180.281 147.887 180.89 147.863C181.538 147.876 182.184 147.77 182.793 147.55C183.271 147.376 183.721 147.137 184.132 146.839C184.287 146.906 184.423 147.01 184.529 147.141C184.653 147.283 184.72 147.466 184.718 147.654C184.717 147.798 184.677 147.939 184.603 148.063C184.504 148.218 184.371 148.35 184.216 148.449C183.809 148.712 183.364 148.913 182.898 149.046C182.204 149.24 181.485 149.33 180.764 149.314C179.67 149.328 178.589 149.073 177.617 148.57C176.671 148.072 175.894 147.304 175.386 146.363C174.806 145.233 174.525 143.972 174.57 142.703C174.527 141.423 174.819 140.153 175.418 139.021C175.932 138.079 176.707 137.304 177.649 136.79C178.586 136.293 179.633 136.037 180.693 136.047C181.378 136.037 182.061 136.121 182.722 136.298C183.216 136.421 183.681 136.637 184.093 136.935C184.231 137.019 184.348 137.133 184.435 137.269C184.521 137.405 184.576 137.559 184.594 137.719ZM192.402 137.635H192.319C192.11 138.221 191.862 138.918 191.575 139.727C191.289 140.536 190.996 141.369 190.697 142.227C190.397 143.085 190.114 143.883 189.849 144.621L189.745 144.935L189.431 145.876C189.305 146.253 189.173 146.647 189.033 147.059C188.894 147.471 188.762 147.854 188.636 148.209C188.511 148.565 188.413 148.855 188.343 149.078C188.244 149.121 188.14 149.153 188.034 149.174C187.906 149.197 187.776 149.208 187.646 149.206C187.434 149.209 187.226 149.147 187.051 149.028C186.961 148.962 186.891 148.875 186.845 148.774C186.799 148.673 186.78 148.562 186.79 148.452C186.791 148.318 186.813 148.185 186.855 148.059C186.897 147.926 186.944 147.783 186.995 147.629C187.162 147.155 187.368 146.576 187.613 145.893C187.857 145.21 188.125 144.464 188.417 143.655C188.71 142.846 189.017 142.017 189.337 141.166C189.658 140.315 189.972 139.486 190.279 138.677C190.585 137.868 190.871 137.129 191.136 136.46C191.297 136.387 191.466 136.331 191.638 136.292C191.864 136.236 192.096 136.208 192.328 136.209C192.602 136.208 192.874 136.25 193.134 136.334C193.244 136.36 193.345 136.411 193.43 136.484C193.516 136.557 193.583 136.649 193.625 136.753C193.96 137.561 194.319 138.478 194.702 139.502C195.085 140.527 195.472 141.596 195.863 142.71C196.254 143.819 196.626 144.896 196.979 145.942C197.332 146.988 197.649 147.936 197.93 148.787C197.826 148.917 197.694 149.021 197.542 149.09C197.376 149.169 197.194 149.208 197.01 149.206C196.793 149.221 196.577 149.158 196.403 149.028C196.238 148.861 196.12 148.654 196.059 148.428L194.905 145.019L194.738 144.433C194.459 143.583 194.17 142.725 193.869 141.86C193.569 140.996 193.29 140.194 193.033 139.455C192.775 138.716 192.563 138.109 192.395 137.635H192.402ZM188.923 145.646L189.467 144.245H195.303L195.64 145.646H188.923ZM192.479 131.59C192.814 131.587 193.146 131.651 193.455 131.779C193.744 131.896 193.993 132.091 194.176 132.343C194.368 132.619 194.465 132.949 194.455 133.285C194.47 133.491 194.436 133.698 194.356 133.889C194.276 134.08 194.152 134.249 193.995 134.383C193.688 134.627 193.318 134.776 192.928 134.812V135.23C192.851 135.265 192.77 135.294 192.687 135.314C192.56 135.344 192.43 135.358 192.299 135.355C192.133 135.364 191.968 135.332 191.818 135.261C191.768 135.237 191.726 135.2 191.696 135.154C191.666 135.108 191.651 135.054 191.651 134.998V134.441C191.645 134.364 191.654 134.286 191.678 134.213C191.702 134.139 191.74 134.071 191.79 134.013C191.849 133.962 191.917 133.924 191.99 133.9C192.064 133.876 192.141 133.867 192.218 133.873H192.358C192.874 133.873 193.132 133.685 193.132 133.308C193.132 133.232 193.116 133.156 193.086 133.086C193.055 133.015 193.011 132.952 192.955 132.9C192.787 132.765 192.572 132.701 192.358 132.723C192.176 132.723 191.996 132.755 191.825 132.818C191.656 132.878 191.492 132.952 191.334 133.038C191.224 132.987 191.125 132.916 191.041 132.829C190.993 132.775 190.955 132.713 190.931 132.644C190.907 132.576 190.897 132.504 190.902 132.431C190.902 132.152 191.076 131.943 191.425 131.804C191.76 131.666 192.117 131.594 192.479 131.59ZM200.406 137.761L201.829 137.635C201.884 138.068 201.931 138.577 201.968 139.162C202.005 139.748 202.037 140.352 202.063 140.975C202.083 141.596 202.094 142.185 202.094 142.742V148.993C201.99 149.031 201.884 149.063 201.776 149.088C201.628 149.123 201.477 149.141 201.325 149.141C201.082 149.158 200.839 149.096 200.635 148.962C200.554 148.891 200.491 148.802 200.451 148.702C200.411 148.602 200.395 148.494 200.405 148.386L200.406 137.761ZM210.488 147.591L209.045 147.717C208.904 146.526 208.824 145.328 208.805 144.129C208.784 142.909 208.773 141.727 208.773 140.583V136.359C208.857 136.332 208.968 136.3 209.108 136.265C209.258 136.228 209.413 136.21 209.568 136.212C209.813 136.192 210.058 136.254 210.265 136.389C210.346 136.46 210.409 136.549 210.449 136.649C210.489 136.749 210.505 136.857 210.495 136.965L210.488 147.591ZM210.488 146.964V148.805C210.342 148.913 210.18 148.998 210.007 149.056C209.798 149.128 209.579 149.163 209.359 149.16C209.06 149.169 208.765 149.1 208.501 148.961C208.223 148.784 207.999 148.534 207.853 148.239L203.878 141.545L203.188 140.301C202.937 139.849 202.7 139.416 202.477 139.005C202.254 138.593 202.08 138.255 201.954 137.991L200.406 138.388V136.569C200.541 136.443 200.702 136.35 200.878 136.297C201.09 136.225 201.312 136.19 201.536 136.192C201.834 136.183 202.129 136.251 202.393 136.39C202.671 136.567 202.896 136.816 203.042 137.111L207.037 143.804C207.26 144.181 207.492 144.595 207.734 145.048C207.976 145.501 208.203 145.933 208.415 146.345C208.624 146.756 208.791 147.094 208.917 147.359L210.488 146.964ZM93.5335 158.552H93.4498C93.2406 159.137 92.9933 159.835 92.708 160.643C92.4226 161.452 92.1297 162.285 91.8295 163.144C91.5301 164.001 91.2475 164.799 90.9817 165.538L90.8771 165.851L90.5633 166.793C90.4378 167.169 90.3054 167.563 90.1659 167.975C90.0265 168.387 89.894 168.77 89.7685 169.126C89.643 169.482 89.5454 169.771 89.4757 169.993C89.3784 170.035 89.277 170.067 89.1731 170.088C89.0452 170.111 88.9154 170.122 88.7854 170.12C88.5735 170.123 88.3657 170.061 88.19 169.943C88.1008 169.877 88.03 169.79 87.9843 169.689C87.9387 169.588 87.9197 169.477 87.9293 169.367C87.9292 169.234 87.9499 169.102 87.9906 168.975C88.0324 168.842 88.0789 168.699 88.1301 168.547C88.2974 168.073 88.5028 167.494 88.7464 166.811C88.9899 166.128 89.2586 165.384 89.5524 164.58C89.8452 163.771 90.152 162.941 90.4727 162.091C90.7934 161.24 91.1072 160.41 91.4139 159.602C91.7207 158.793 92.0066 158.054 92.2715 157.385C92.4327 157.312 92.6009 157.256 92.7735 157.217C93.0015 157.161 93.2357 157.132 93.4707 157.134C93.7438 157.133 94.0154 157.175 94.2753 157.259C94.3847 157.285 94.4865 157.336 94.5721 157.409C94.6577 157.481 94.7247 157.573 94.7675 157.677C95.1022 158.486 95.461 159.403 95.844 160.427C96.227 161.452 96.6142 162.521 97.0056 163.634C97.396 164.743 97.7679 165.821 98.1211 166.867C98.4744 167.912 98.7918 168.861 99.0735 169.711C98.97 169.842 98.8372 169.946 98.6858 170.015C98.5192 170.093 98.3371 170.132 98.1532 170.13C97.9363 170.145 97.7212 170.082 97.5466 169.952C97.3784 169.788 97.2559 169.582 97.191 169.356L96.0406 165.946L95.8733 165.361C95.5944 164.51 95.3053 163.652 95.006 162.788C94.7066 161.923 94.4277 161.122 94.1693 160.383C93.9127 159.636 93.7008 159.026 93.5335 158.552ZM90.0613 166.563L90.6052 165.161H96.4408L96.7755 166.563H90.0613ZM101.544 158.677L102.967 158.552C103.023 158.984 103.069 159.493 103.106 160.079C103.143 160.664 103.175 161.268 103.201 161.891C103.221 162.512 103.232 163.101 103.232 163.658V169.909C103.126 169.948 103.018 169.98 102.908 170.004C102.761 170.039 102.609 170.056 102.458 170.056C102.212 170.075 101.967 170.013 101.761 169.879C101.679 169.808 101.616 169.718 101.576 169.618C101.536 169.518 101.521 169.41 101.53 169.303L101.544 158.677ZM111.626 168.508L110.183 168.633C110.042 167.442 109.961 166.245 109.942 165.046C109.921 163.826 109.911 162.644 109.911 161.499V157.276C109.995 157.248 110.106 157.216 110.246 157.181C110.396 157.145 110.551 157.127 110.706 157.128C110.949 157.11 111.192 157.172 111.396 157.305C111.477 157.376 111.54 157.465 111.58 157.565C111.62 157.665 111.636 157.774 111.626 157.881V168.508ZM111.626 167.88V169.721C111.48 169.83 111.318 169.914 111.145 169.972C110.937 170.044 110.717 170.079 110.497 170.077C110.198 170.085 109.903 170.017 109.639 169.879C109.361 169.702 109.137 169.453 108.991 169.158L105.017 162.464L104.319 161.221C104.068 160.768 103.831 160.336 103.608 159.924C103.385 159.512 103.211 159.174 103.085 158.91L101.537 159.307V157.485C101.672 157.36 101.833 157.267 102.009 157.213C102.221 157.142 102.443 157.106 102.667 157.108C102.965 157.1 103.26 157.168 103.525 157.306C103.802 157.483 104.027 157.732 104.173 158.027L108.168 164.721C108.391 165.097 108.623 165.512 108.865 165.964C109.107 166.417 109.333 166.849 109.544 167.261C109.753 167.672 109.921 168.01 110.046 168.275L111.626 167.88ZM115.349 162.379H117.064V169.909C116.981 169.937 116.869 169.969 116.73 170.004C116.579 170.04 116.424 170.057 116.27 170.056C116.025 170.074 115.781 170.007 115.579 169.867C115.499 169.794 115.436 169.703 115.396 169.601C115.356 169.5 115.34 169.39 115.349 169.282V162.379ZM117.064 163.781H115.349V157.276C115.455 157.237 115.564 157.205 115.674 157.181C115.828 157.143 115.986 157.123 116.144 157.122C116.387 157.104 116.63 157.167 116.834 157.299C116.917 157.374 116.981 157.467 117.021 157.57C117.061 157.674 117.076 157.786 117.064 157.896V163.781ZM123.59 162.379H125.305V169.909C125.222 169.937 125.11 169.969 124.971 170.004C124.82 170.04 124.666 170.057 124.511 170.056C124.268 170.072 124.027 170.006 123.827 169.867C123.747 169.794 123.684 169.703 123.644 169.601C123.604 169.5 123.588 169.39 123.597 169.282L123.59 162.379ZM125.305 163.781H123.59V157.276C123.696 157.237 123.805 157.205 123.915 157.181C124.069 157.143 124.227 157.123 124.385 157.122C124.628 157.104 124.871 157.167 125.075 157.299C125.158 157.374 125.222 157.467 125.262 157.57C125.302 157.674 125.317 157.786 125.305 157.896V163.781ZM124.49 164.22H116.374V162.798H124.49V164.22ZM135.303 158.677L136.726 158.552C136.782 158.984 136.83 159.493 136.872 160.079C136.914 160.664 136.946 161.268 136.967 161.891C136.987 162.512 136.998 163.101 136.999 163.658V169.909C136.893 169.948 136.784 169.98 136.674 170.004C136.527 170.039 136.375 170.056 136.224 170.056C135.981 170.074 135.738 170.011 135.534 169.879C135.452 169.808 135.389 169.718 135.349 169.618C135.309 169.518 135.294 169.41 135.303 169.303V158.677ZM145.385 168.508L143.942 168.633C143.801 167.442 143.72 166.245 143.701 165.046C143.68 163.826 143.67 162.644 143.67 161.501V157.276C143.754 157.248 143.865 157.216 144.005 157.181C144.155 157.143 144.31 157.123 144.465 157.122C144.708 157.104 144.951 157.167 145.155 157.299C145.236 157.37 145.299 157.46 145.339 157.56C145.379 157.66 145.395 157.768 145.385 157.875V168.508ZM145.385 167.88V169.721C145.239 169.83 145.077 169.914 144.904 169.972C144.696 170.044 144.476 170.079 144.256 170.077C143.958 170.085 143.662 170.017 143.398 169.879C143.12 169.702 142.896 169.453 142.75 169.158L138.776 162.463L138.078 161.219C137.827 160.766 137.59 160.334 137.367 159.922C137.144 159.511 136.972 159.172 136.851 158.907L135.303 159.305V157.485C135.438 157.36 135.599 157.267 135.775 157.213C135.987 157.142 136.209 157.106 136.433 157.108C136.731 157.1 137.026 157.168 137.291 157.306C137.568 157.483 137.793 157.732 137.939 158.027L141.934 164.721C142.157 165.097 142.389 165.512 142.631 165.964C142.873 166.417 143.099 166.849 143.31 167.261C143.519 167.672 143.687 168.01 143.812 168.275L145.385 167.88ZM159.169 163.948V168.487C159.176 168.72 159.097 168.947 158.949 169.126C158.765 169.327 158.541 169.487 158.291 169.596C157.833 169.812 157.347 169.964 156.847 170.046C156.234 170.164 155.611 170.224 154.986 170.223C153.8 170.247 152.624 170.004 151.544 169.512C150.556 169.049 149.738 168.289 149.206 167.337C148.608 166.189 148.319 164.906 148.369 163.613C148.321 162.321 148.62 161.039 149.237 159.901C149.777 158.955 150.583 158.187 151.555 157.694C152.535 157.202 153.618 156.951 154.714 156.962C155.419 156.951 156.123 157.035 156.805 157.213C157.304 157.336 157.777 157.549 158.2 157.841C158.338 157.921 158.456 158.033 158.543 158.168C158.631 158.302 158.685 158.455 158.702 158.614C158.703 158.793 158.644 158.966 158.535 159.107C158.431 159.247 158.295 159.358 158.137 159.432C157.714 159.157 157.266 158.924 156.799 158.734C156.164 158.497 155.489 158.387 154.811 158.409C153.98 158.398 153.159 158.6 152.427 158.995C151.704 159.397 151.118 160.005 150.743 160.742C150.304 161.636 150.092 162.623 150.125 163.618C150.084 164.636 150.304 165.648 150.763 166.557C151.156 167.286 151.766 167.875 152.509 168.242C153.286 168.612 154.138 168.799 154.998 168.785C155.475 168.788 155.951 168.746 156.421 168.66C156.782 168.602 157.133 168.497 157.466 168.346V164.498H154.316C154.266 164.409 154.224 164.315 154.191 164.219C154.148 164.094 154.127 163.963 154.128 163.831C154.115 163.631 154.175 163.433 154.296 163.273C154.355 163.206 154.43 163.153 154.513 163.119C154.597 163.084 154.687 163.07 154.777 163.075H158.27C158.506 163.069 158.735 163.155 158.908 163.315C158.995 163.396 159.062 163.494 159.107 163.603C159.152 163.712 159.173 163.83 159.169 163.948ZM167.389 170.223C166.464 170.25 165.545 170.053 164.712 169.649C163.997 169.289 163.409 168.72 163.027 168.017C162.631 167.259 162.434 166.414 162.453 165.559V163.844H164.147V165.412C164.113 165.874 164.178 166.338 164.339 166.773C164.499 167.208 164.751 167.603 165.077 167.932C165.723 168.479 166.542 168.779 167.388 168.779C168.235 168.779 169.054 168.479 169.7 167.932C170.026 167.603 170.278 167.208 170.438 166.773C170.599 166.338 170.664 165.874 170.63 165.412V163.844H172.345V165.559C172.364 166.413 172.166 167.258 171.769 168.016C171.387 168.718 170.799 169.288 170.085 169.647C169.245 170.053 168.321 170.25 167.389 170.223ZM164.147 164.701H162.453V157.276C162.559 157.237 162.667 157.205 162.778 157.181C162.932 157.143 163.089 157.123 163.248 157.122C163.488 157.103 163.728 157.166 163.928 157.299C164.008 157.376 164.069 157.469 164.107 157.573C164.144 157.676 164.158 157.787 164.147 157.896V164.701ZM172.346 164.701H170.631V157.276C170.737 157.237 170.846 157.205 170.956 157.181C171.11 157.145 171.268 157.127 171.426 157.128C171.672 157.108 171.917 157.171 172.123 157.305C172.206 157.38 172.27 157.472 172.309 157.576C172.349 157.68 172.364 157.791 172.353 157.902L172.346 164.701ZM165.737 153.511C166.096 153.505 166.454 153.565 166.792 153.688C167.107 153.807 167.399 153.925 167.671 154.043C167.911 154.155 168.171 154.215 168.435 154.221C168.54 154.23 168.645 154.213 168.742 154.173C168.839 154.133 168.925 154.071 168.993 153.991C169.118 153.822 169.207 153.63 169.254 153.426H169.379C169.614 153.421 169.846 153.483 170.048 153.603C170.149 153.669 170.229 153.762 170.281 153.871C170.332 153.98 170.353 154.101 170.341 154.221C170.348 154.399 170.313 154.576 170.241 154.74C170.168 154.903 170.06 155.047 169.923 155.162C169.607 155.412 169.21 155.539 168.807 155.517C168.436 155.521 168.068 155.457 167.72 155.329C167.385 155.204 167.078 155.082 166.799 154.964C166.563 154.855 166.307 154.795 166.046 154.787C165.944 154.778 165.841 154.794 165.746 154.834C165.651 154.874 165.567 154.937 165.503 155.017C165.381 155.193 165.295 155.393 165.252 155.602H165.126C164.889 155.607 164.657 155.541 164.457 155.414C164.358 155.348 164.279 155.257 164.228 155.151C164.177 155.044 164.154 154.926 164.164 154.808C164.156 154.557 164.234 154.311 164.384 154.11C164.538 153.916 164.74 153.765 164.97 153.671C165.212 153.566 165.473 153.511 165.737 153.511ZM172.535 159.953H172.179C172.105 159.8 172.065 159.632 172.063 159.462C172.043 159.219 172.033 159.006 172.033 158.825C172.454 158.832 172.867 158.708 173.214 158.469C173.406 158.295 173.554 158.076 173.643 157.832C173.732 157.588 173.761 157.326 173.727 157.068V156.355C173.833 156.291 173.95 156.243 174.071 156.216C174.198 156.187 174.329 156.173 174.459 156.174C174.652 156.169 174.84 156.232 174.992 156.351C175.071 156.427 175.132 156.521 175.17 156.624C175.208 156.727 175.222 156.837 175.211 156.947V157.198C175.235 157.757 175.098 158.312 174.814 158.796C174.575 159.185 174.226 159.495 173.811 159.685C173.409 159.864 172.974 159.956 172.535 159.953Z" fill="#B4B4B4"/>
<path d="M155.007 81.4134L157.769 81.3112C157.838 81.9417 157.89 82.6148 157.925 83.3306C157.96 84.0463 157.986 84.7578 158.003 85.465C158.021 86.1722 158.029 86.8581 158.029 87.5227V93.7306C157.84 93.7785 157.649 93.8169 157.456 93.8456C157.189 93.8887 156.919 93.9101 156.648 93.9095C156.208 93.9451 155.769 93.8373 155.398 93.6027C155.256 93.4684 155.147 93.3043 155.079 93.1228C155.012 92.9413 154.987 92.747 155.007 92.5547V81.4134ZM168.27 90.5645L165.508 90.6412C165.369 89.312 165.294 87.9998 165.283 86.7047C165.272 85.4096 165.263 84.1571 165.257 82.9471V78.2401C165.396 78.206 165.591 78.1634 165.843 78.1123C166.114 78.0594 166.389 78.0337 166.664 78.0356C167.102 77.9974 167.54 78.1105 167.902 78.3551C168.039 78.4949 168.143 78.6621 168.207 78.8453C168.271 79.0285 168.294 79.2232 168.274 79.4159L168.27 90.5645ZM168.27 89.5421V93.3763C168.036 93.5524 167.771 93.6865 167.489 93.7726C167.119 93.8906 166.731 93.948 166.342 93.9424C165.873 93.949 165.408 93.862 164.974 93.6867C164.506 93.4577 164.133 93.0771 163.919 92.6095L159.932 85.6311C159.706 85.2051 159.467 84.7663 159.215 84.3147C158.963 83.8631 158.729 83.4158 158.512 82.9727C158.294 82.5296 158.099 82.1291 157.925 81.7713L155.007 82.4359V78.7294C155.231 78.5046 155.508 78.3377 155.814 78.2438C156.183 78.1198 156.571 78.058 156.961 78.0612C157.43 78.0545 157.895 78.1415 158.329 78.3168C158.796 78.5449 159.169 78.9241 159.384 79.3904L163.398 86.3468C163.646 86.7729 163.889 87.2159 164.127 87.6761C164.365 88.1362 164.591 88.5835 164.805 89.0181C165.013 89.4526 165.196 89.8488 165.352 90.2067L168.27 89.5421ZM178.355 80.6977H178.225C177.999 81.3282 177.743 82.0525 177.456 82.8704C177.169 83.6884 176.874 84.5362 176.57 85.4138L175.706 87.9317L175.394 89.312C175.29 89.6358 175.177 90.001 175.055 90.4075C174.933 90.8141 174.803 91.2273 174.664 91.6473L174.273 92.8231C174.149 93.1883 174.045 93.5078 173.961 93.7817C173.804 93.8328 173.63 93.8797 173.439 93.9223C173.217 93.968 172.989 93.9894 172.762 93.9862C172.327 94.0088 171.896 93.9018 171.524 93.6794C171.375 93.5782 171.255 93.4411 171.175 93.2813C171.095 93.1215 171.058 92.9442 171.068 92.7665C171.069 92.5756 171.099 92.3858 171.159 92.2042C171.22 92.0167 171.285 91.7952 171.355 91.5395C171.546 90.9772 171.789 90.2742 172.084 89.4307C172.38 88.5872 172.701 87.6712 173.048 86.6828C173.396 85.6944 173.761 84.6975 174.143 83.6921C174.525 82.6866 174.886 81.7323 175.224 80.8291C175.563 79.926 175.854 79.1591 176.097 78.5286C176.396 78.3959 176.708 78.2931 177.028 78.2218C177.427 78.1176 177.838 78.0624 178.251 78.0575C178.77 78.0515 179.285 78.1336 179.775 78.3004C179.973 78.3537 180.155 78.4521 180.307 78.5876C180.459 78.7231 180.576 78.8918 180.648 79.08C181.03 80.0173 181.434 81.0951 181.86 82.3136C182.286 83.532 182.72 84.8016 183.163 86.1223C183.606 87.443 184.032 88.7253 184.44 89.9693C184.848 91.2133 185.209 92.3405 185.521 93.3508C185.341 93.5549 185.113 93.7129 184.857 93.8109C184.538 93.9373 184.197 93.9994 183.853 93.9935C183.442 94.0303 183.031 93.9215 182.694 93.6867C182.426 93.4256 182.233 93.0992 182.135 92.7409L181.019 89.2718L180.674 87.7783C180.396 86.8751 180.114 85.9847 179.827 85.1071C179.541 84.2295 179.267 83.4115 179.007 82.6532C178.746 81.8948 178.529 81.243 178.355 80.6977ZM174.003 89.9766L175.12 87.5738H181.765L182.234 89.9766H174.003ZM178.284 74.5884C178.763 74.6091 179.234 74.4643 179.615 74.1794C179.961 73.894 180.189 73.4937 180.254 73.0547C180.341 73.0377 180.419 73.0249 180.488 73.0164C180.569 73.007 180.651 73.0027 180.732 73.0036C180.922 72.9907 181.112 73.0183 181.29 73.0845C181.467 73.1507 181.628 73.2539 181.761 73.387C181.997 73.6466 182.123 73.985 182.113 74.3328C182.099 74.67 182.003 74.9989 181.833 75.2923C181.663 75.5858 181.424 75.8352 181.136 76.0199C180.292 76.569 179.287 76.8295 178.277 76.7612C177.273 76.8299 176.273 76.5691 175.437 76.0199C175.151 75.8334 174.915 75.5833 174.748 75.2901C174.58 74.9968 174.486 74.6687 174.472 74.3328C174.462 73.985 174.588 73.6466 174.824 73.387C174.957 73.2539 175.118 73.1507 175.296 73.0845C175.474 73.0183 175.664 72.9907 175.853 73.0036C175.936 73.0034 176.019 73.0076 176.101 73.0164C176.167 73.0225 176.233 73.0354 176.296 73.0547C176.363 73.4964 176.595 73.8977 176.948 74.1794C177.329 74.463 177.799 74.6075 178.277 74.5884H178.284ZM198.014 89.8233C197.813 89.9556 197.594 90.0589 197.363 90.13C197.077 90.2191 196.777 90.2622 196.477 90.2578C196.114 90.2665 195.751 90.2101 195.409 90.0917C195.272 90.0453 195.147 89.9697 195.043 89.8702C194.939 89.7707 194.859 89.6499 194.809 89.5165C194.065 87.7783 193.422 86.2489 192.881 84.9282C192.34 83.6075 191.911 82.4955 191.593 81.5924H191.489C191.437 82.7512 191.384 83.829 191.332 84.8259C191.28 85.8228 191.232 86.7857 191.189 87.7144C191.146 88.6431 191.102 89.5932 191.059 90.5645C191.015 91.5359 190.953 92.5839 190.873 93.7086C190.681 93.7737 190.485 93.825 190.286 93.862C190.03 93.9151 189.77 93.942 189.508 93.9424C189.091 93.97 188.676 93.8671 188.323 93.6484C188.184 93.5405 188.074 93.4008 188.004 93.2416C187.934 93.0823 187.904 92.9085 187.919 92.7355C187.919 92.4458 187.94 91.9303 187.984 91.189C188.027 90.4477 188.079 89.5664 188.14 88.5452C188.201 87.5227 188.27 86.4448 188.349 85.3116C188.427 84.1784 188.505 83.0536 188.583 81.9374C188.661 80.8212 188.744 79.803 188.831 78.8828C189.039 78.6812 189.281 78.5168 189.547 78.3971C189.959 78.2116 190.41 78.124 190.863 78.1415C191.378 78.1204 191.89 78.2258 192.352 78.4483C192.747 78.6673 193.044 79.0227 193.186 79.4452C193.551 80.1755 193.916 80.9977 194.281 81.9119C194.645 82.826 195.006 83.7389 195.362 84.6506C195.718 85.5623 196.061 86.4101 196.391 87.194H196.496C197.116 85.541 197.741 83.9434 198.372 82.4012C199.002 80.859 199.532 79.5596 199.961 78.503C200.211 78.3873 200.473 78.3014 200.743 78.2474C201.049 78.1803 201.361 78.146 201.674 78.1452C202.162 78.1247 202.648 78.2166 203.094 78.4136C203.258 78.4877 203.402 78.5995 203.513 78.7397C203.625 78.8798 203.7 79.0441 203.732 79.2188C203.802 79.5255 203.88 80.0282 203.967 80.7269C204.054 81.4256 204.141 82.2393 204.228 83.1681C204.314 84.0968 204.397 85.0706 204.475 86.0894C204.553 87.1082 204.627 88.1009 204.697 89.0674C204.766 90.0411 204.828 90.9188 204.883 91.7002C204.937 92.4817 204.976 93.1037 205 93.5662C204.797 93.7002 204.572 93.7996 204.336 93.8602C204.062 93.9211 203.782 93.9487 203.502 93.9424C203.125 93.952 202.751 93.8638 202.42 93.6867C202.26 93.5848 202.129 93.4443 202.041 93.2788C201.952 93.1132 201.907 92.928 201.912 92.7409C201.825 91.2584 201.743 89.8184 201.665 88.421C201.586 87.0236 201.524 85.7455 201.478 84.5867C201.435 83.4279 201.387 82.4541 201.335 81.6654H201.231C200.935 82.5004 200.523 83.5612 199.993 84.8478C199.463 86.1344 198.8 87.7929 198.003 89.8233H198.014Z" fill="#1CB0F6"/>
<path d="M140.882 106.181H120.71V65.714L107.303 70.265C105.991 69.527 104.72 68.461 103.49 67.067C102.342 65.591 101.768 63.582 101.768 61.04C101.768 56.284 104.679 52.922 110.501 50.954L125.507 45.542H129.935C133.297 45.542 135.962 46.567 137.93 48.617C139.898 50.585 140.882 53.25 140.882 56.612V106.181ZM120.71 90.929H140.882V124.877C140.062 125.123 138.832 125.369 137.192 125.615C135.552 125.861 133.789 125.984 131.903 125.984C128.049 125.984 125.22 125.328 123.416 124.016C121.612 122.704 120.71 120.203 120.71 116.513V90.929Z" fill="#1CB0F6"/>
<path d="M92.114 106.181H71.942V65.714L58.535 70.265C57.223 69.527 55.952 68.461 54.722 67.067C53.574 65.591 53 63.582 53 61.04C53 56.284 55.911 52.922 61.733 50.954L76.739 45.542H81.167C84.529 45.542 87.194 46.567 89.162 48.617C91.13 50.585 92.114 53.25 92.114 56.612V106.181ZM71.942 90.929H92.114V124.877C91.294 125.123 90.064 125.369 88.424 125.615C86.784 125.861 85.021 125.984 83.135 125.984C79.281 125.984 76.452 125.328 74.648 124.016C72.844 122.704 71.942 120.203 71.942 116.513V90.929Z" fill="#1CB0F6"/>
</g>
<defs>
<clipPath id="clip0_2737_2">
<rect width="264" height="228" fill="white"/>
</clipPath>
</defs>
</svg>
