<svg width="342" height="402" viewBox="0 0 342 402" fill="none" xmlns="http://www.w3.org/2000/svg">
<g clip-path="url(#clip0_8959_763)">
<path d="M154.12 197.41H6.60986C4.06787 197.41 2 195.342 2 192.799V58.0172C2 55.4747 4.06787 53.4062 6.60986 53.4062H154.12C156.662 53.4062 158.731 55.4747 158.731 58.0172V192.799C158.731 195.342 156.662 197.41 154.12 197.41Z" fill="#79B933"/>
<path d="M6.61035 55.4062C5.16895 55.4062 4 56.5752 4 58.0172V192.799C4 194.241 5.16895 195.41 6.61035 195.41H154.12C155.562 195.41 156.731 194.241 156.731 192.799V58.0172C156.731 56.5752 155.562 55.4062 154.12 55.4062H6.61035ZM6.61035 51.4062H154.12C157.766 51.4062 160.731 54.3719 160.731 58.0172V192.799C160.731 196.444 157.766 199.41 154.12 199.41H6.61035C2.96533 199.41 0 196.444 0 192.799V58.0172C0 54.3719 2.96533 51.4062 6.61035 51.4062Z" fill="white"/>
<mask id="mask0_8959_763" style="mask-type:luminance" maskUnits="userSpaceOnUse" x="4" y="0" width="153" height="196">
<path d="M156.731 0H4V195.409H156.731V0Z" fill="white"/>
</mask>
<g mask="url(#mask0_8959_763)">
<path d="M72.2817 0H74.3117C81.6768 0 88.7402 2.92576 93.9481 8.13365C99.156 13.3415 102.082 20.4049 102.082 27.77V70.87C102.082 74.6503 101.338 78.3937 99.8909 81.8863C98.4443 85.3789 96.3239 88.5524 93.6507 91.2254C90.9775 93.8984 87.8039 96.0186 84.3112 97.465C80.8185 98.9114 77.0751 99.6555 73.2947 99.655C65.661 99.655 58.3399 96.6225 52.9421 91.2247C47.5442 85.8268 44.5117 78.5057 44.5117 70.872V27.77C44.5117 20.4049 47.4375 13.3415 52.6454 8.13365C57.8532 2.92576 64.9167 0 72.2817 0Z" fill="#A56644"/>
<path d="M99.5815 70.1855H45.7715C39.4429 70.1855 34.3125 75.3159 34.3125 81.6445C34.3125 87.9732 39.4429 93.1035 45.7715 93.1035H99.5815C105.91 93.1035 111.04 87.9732 111.04 81.6445C111.04 75.3159 105.91 70.1855 99.5815 70.1855Z" fill="#A56644"/>
<path d="M74.0079 5.33008H73.0529C58.5521 5.33008 46.7969 17.0853 46.7969 31.5861V40.0271C46.7969 54.5279 58.5521 66.2831 73.0529 66.2831H74.0079C88.5087 66.2831 100.264 54.5279 100.264 40.0271V31.5861C100.264 17.0853 88.5087 5.33008 74.0079 5.33008Z" fill="#FBBA97"/>
<path d="M80.1266 58.5736C80.1266 54.9301 77.1732 51.9766 73.5301 51.9766C69.8869 51.9766 66.9336 54.9301 66.9336 58.5736V76.6266C66.9336 80.27 69.8869 83.2236 73.5301 83.2236C77.1732 83.2236 80.1266 80.27 80.1266 76.6266V58.5736Z" fill="#FBBA97"/>
<path d="M59.7136 43.6343C64.5864 43.6343 68.5366 39.6841 68.5366 34.8113C68.5366 29.9385 64.5864 25.9883 59.7136 25.9883C54.8408 25.9883 50.8906 29.9385 50.8906 34.8113C50.8906 39.6841 54.8408 43.6343 59.7136 43.6343Z" fill="white"/>
<path d="M59.7136 43.6346C64.5864 43.6346 68.5366 39.812 68.5366 35.0966C68.5366 30.3812 64.5864 26.5586 59.7136 26.5586C54.8408 26.5586 50.8906 30.3812 50.8906 35.0966C50.8906 39.812 54.8408 43.6346 59.7136 43.6346Z" fill="white"/>
<path d="M61.6121 37.3082C63.9091 37.3082 65.7711 35.4462 65.7711 33.1492C65.7711 30.8523 63.9091 28.9902 61.6121 28.9902C59.3152 28.9902 57.4531 30.8523 57.4531 33.1492C57.4531 35.4462 59.3152 37.3082 61.6121 37.3082Z" fill="#3C3C3C"/>
<path d="M87.4558 43.6343C92.3286 43.6343 96.2788 39.6841 96.2788 34.8113C96.2788 29.9385 92.3286 25.9883 87.4558 25.9883C82.583 25.9883 78.6328 29.9385 78.6328 34.8113C78.6328 39.6841 82.583 43.6343 87.4558 43.6343Z" fill="white"/>
<path d="M87.4558 43.6346C92.3286 43.6346 96.2788 39.812 96.2788 35.0966C96.2788 30.3812 92.3286 26.5586 87.4558 26.5586C82.583 26.5586 78.6328 30.3812 78.6328 35.0966C78.6328 39.812 82.583 43.6346 87.4558 43.6346Z" fill="white"/>
<path d="M85.5574 39.2457C87.8544 39.2457 89.7164 37.3837 89.7164 35.0867C89.7164 32.7898 87.8544 30.9277 85.5574 30.9277C83.2605 30.9277 81.3984 32.7898 81.3984 35.0867C81.3984 37.3837 83.2605 39.2457 85.5574 39.2457Z" fill="white"/>
<path d="M85.5809 37.3082C87.8778 37.3082 89.7399 35.4462 89.7399 33.1492C89.7399 30.8523 87.8778 28.9902 85.5809 28.9902C83.2839 28.9902 81.4219 30.8523 81.4219 33.1492C81.4219 35.4462 83.2839 37.3082 85.5809 37.3082Z" fill="#3C3C3C"/>
<path d="M44.4121 40.6192C46.8057 40.6192 48.7461 38.6788 48.7461 36.2852C48.7461 33.8916 46.8057 31.9512 44.4121 31.9512C42.0185 31.9512 40.0781 33.8916 40.0781 36.2852C40.0781 38.6788 42.0185 40.6192 44.4121 40.6192Z" fill="#FBBA97"/>
<path d="M102.736 40.6192C105.13 40.6192 107.07 38.6788 107.07 36.2852C107.07 33.8916 105.13 31.9512 102.736 31.9512C100.343 31.9512 98.4023 33.8916 98.4023 36.2852C98.4023 38.6788 100.343 40.6192 102.736 40.6192Z" fill="#FBBA97"/>
<path d="M88.0808 4.93359H58.1818C56.1074 4.93359 54.4258 6.61521 54.4258 8.68959V16.3466C54.4258 18.421 56.1074 20.1026 58.1818 20.1026H88.0808C90.1552 20.1026 91.8368 18.421 91.8368 16.3466V8.68959C91.8368 6.61521 90.1552 4.93359 88.0808 4.93359Z" fill="#A56644"/>
<mask id="mask1_8959_763" style="mask-type:luminance" maskUnits="userSpaceOnUse" x="67" y="47" width="14" height="8">
<path d="M80.1286 47.498H67.6836V54.293H80.1286V47.498Z" fill="white"/>
</mask>
<g mask="url(#mask1_8959_763)">
<path d="M73.7143 53.6375C76.8767 53.6375 79.4403 51.0739 79.4403 47.9115C79.4403 44.7492 76.8767 42.1855 73.7143 42.1855C70.5519 42.1855 67.9883 44.7492 67.9883 47.9115C67.9883 51.0739 70.5519 53.6375 73.7143 53.6375Z" fill="white"/>
</g>
<path d="M59.1211 31.3829C60.0423 31.3829 60.7891 30.6361 60.7891 29.7149C60.7891 28.7937 60.0423 28.0469 59.1211 28.0469C58.1999 28.0469 57.4531 28.7937 57.4531 29.7149C57.4531 30.6361 58.1999 31.3829 59.1211 31.3829Z" fill="white"/>
<path d="M88.2891 31.3829C89.2103 31.3829 89.9571 30.6361 89.9571 29.7149C89.9571 28.7937 89.2103 28.0469 88.2891 28.0469C87.3679 28.0469 86.6211 28.7937 86.6211 29.7149C86.6211 30.6361 87.3679 31.3829 88.2891 31.3829Z" fill="white"/>
<path d="M73.529 138.238C84.8906 138.238 94.101 129.027 94.101 117.666C94.101 106.304 84.8906 97.0938 73.529 97.0938C62.1674 97.0938 52.957 106.304 52.957 117.666C52.957 129.027 62.1674 138.238 73.529 138.238Z" fill="#FFB7E3"/>
<path d="M72.9474 72.0527H74.1114C78.0133 72.053 81.7554 73.6032 84.5144 76.3624C87.2734 79.1216 88.8234 82.8638 88.8234 86.7657V104.166H58.2344V86.7657C58.2344 82.8636 59.7845 79.1213 62.5437 76.3621C65.3029 73.6028 69.0452 72.0527 72.9474 72.0527Z" fill="#F7F7F7"/>
<path d="M53.5646 112.686L18.7226 199.159C17.3006 202.838 20.3226 206.683 24.6406 206.683H122.417C126.728 206.683 129.753 202.846 128.34 199.169L93.4936 112.686H53.5646Z" fill="#FFB7E3"/>
<path d="M74.1056 55.6016H72.9546C69.6293 55.6016 66.9336 58.2973 66.9336 61.6226V75.6166C66.9336 78.9419 69.6293 81.6376 72.9546 81.6376H74.1056C77.4309 81.6376 80.1266 78.9419 80.1266 75.6166V61.6226C80.1266 58.2973 77.4309 55.6016 74.1056 55.6016Z" fill="#FBBA97"/>
<path d="M73.5303 88.6505C74.4985 88.6505 75.2833 87.8657 75.2833 86.8975C75.2833 85.9294 74.4985 85.1445 73.5303 85.1445C72.5622 85.1445 71.7773 85.9294 71.7773 86.8975C71.7773 87.8657 72.5622 88.6505 73.5303 88.6505Z" fill="#777777"/>
<path d="M73.5303 94.3849C74.4985 94.3849 75.2833 93.6001 75.2833 92.6319C75.2833 91.6638 74.4985 90.8789 73.5303 90.8789C72.5622 90.8789 71.7773 91.6638 71.7773 92.6319C71.7773 93.6001 72.5622 94.3849 73.5303 94.3849Z" fill="#777777"/>
<path d="M73.5303 100.777C74.4985 100.777 75.2833 99.9926 75.2833 99.0245C75.2833 98.0563 74.4985 97.2715 73.5303 97.2715C72.5622 97.2715 71.7773 98.0563 71.7773 99.0245C71.7773 99.9926 72.5622 100.777 73.5303 100.777Z" fill="#777777"/>
<path d="M11.0365 95.2343C8.89927 96.2659 8.00295 98.8347 9.03452 100.972C10.0661 103.109 12.6349 104.006 14.7722 102.974L64.7978 78.8283C66.9351 77.7967 67.8314 75.2279 66.7998 73.0907C65.7682 70.9534 63.1994 70.0571 61.0622 71.0887L11.0365 95.2343Z" fill="#F4F4F4"/>
<path d="M28.3252 80.9108C29.5117 78.8556 28.8076 76.2277 26.7525 75.0411C24.6973 73.8545 22.0693 74.5586 20.8828 76.6138L9.11575 96.9942C7.92917 99.0494 8.63329 101.677 10.6885 102.864C12.7436 104.051 15.3716 103.346 16.5582 101.291L28.3252 80.9108Z" fill="#FBBA97"/>
<path d="M21.7063 83.7895C26.383 83.7895 30.1743 79.9983 30.1743 75.3215C30.1743 70.6448 26.383 66.8535 21.7063 66.8535C17.0295 66.8535 13.2383 70.6448 13.2383 75.3215C13.2383 79.9983 17.0295 83.7895 21.7063 83.7895Z" fill="#FBBA97"/>
<path d="M85.9967 71.0869C83.8585 70.0546 81.2882 70.9511 80.2559 73.0893C79.2236 75.2276 80.1201 77.7978 82.2583 78.8301L132.307 102.994C134.445 104.026 137.016 103.129 138.048 100.991C139.08 98.8529 138.184 96.2826 136.045 95.2503L85.9967 71.0869Z" fill="#F4F4F4"/>
<path d="M130.491 101.293C131.678 103.348 134.306 104.052 136.361 102.865C138.416 101.679 139.12 99.0508 137.934 96.9956L126.167 76.6152C124.98 74.56 122.352 73.8559 120.297 75.0425C118.242 76.229 117.538 78.857 118.724 80.9122L130.491 101.293Z" fill="#FBBA97"/>
<path d="M125.351 83.7895C130.028 83.7895 133.819 79.9983 133.819 75.3215C133.819 70.6448 130.028 66.8535 125.351 66.8535C120.674 66.8535 116.883 70.6448 116.883 75.3215C116.883 79.9983 120.674 83.7895 125.351 83.7895Z" fill="#FBBA97"/>
<path d="M66.9023 73.3359V83.7479L73.5283 81.636L66.9023 73.3359Z" fill="#E5E5E5"/>
<path d="M80.1575 73.3359V83.7479L73.5312 81.636L80.1575 73.3359Z" fill="#E5E5E5"/>
</g>
<path d="M154.12 354.672H6.61084C4.06836 354.672 2 352.604 2 350.061V215.279C2 212.736 4.06836 210.668 6.61084 210.668H154.12C156.662 210.668 158.731 212.736 158.731 215.279V350.061C158.731 352.604 156.662 354.672 154.12 354.672Z" fill="#49C0F8"/>
<path d="M6.61133 212.668C5.16895 212.668 4 213.837 4 215.279V350.061C4 351.503 5.16895 352.672 6.61133 352.672H154.12C155.563 352.672 156.731 351.503 156.731 350.061V215.279C156.731 213.837 155.563 212.668 154.12 212.668H6.61133ZM6.61133 208.668H154.12C157.766 208.668 160.731 211.634 160.731 215.279V350.061C160.731 353.706 157.766 356.672 154.12 356.672H6.61133C2.96582 356.672 0 353.706 0 350.061V215.279C0 211.634 2.96582 208.668 6.61133 208.668Z" fill="white"/>
<path d="M324.535 254.68H166.535V399.68H324.535V254.68Z" stroke="white" stroke-width="4"/>
<path d="M319.23 230.416H171.72C169.178 230.416 167.109 228.348 167.109 225.805V91.0231C167.109 88.4806 169.178 86.4121 171.72 86.4121H319.23C321.772 86.4121 323.841 88.4806 323.841 91.0231V225.805C323.841 228.348 321.772 230.416 319.23 230.416Z" fill="#FBE56D"/>
<path d="M171.72 88.4121C170.278 88.4121 169.109 89.5811 169.109 91.0231V225.805C169.109 227.247 170.278 228.416 171.72 228.416H319.23C320.672 228.416 321.841 227.247 321.841 225.805V91.0231C321.841 89.5811 320.672 88.4121 319.23 88.4121H171.72ZM171.72 84.4121H319.23C322.875 84.4121 325.841 87.3778 325.841 91.0231V225.805C325.841 229.45 322.875 232.416 319.23 232.416H171.72C168.075 232.416 165.109 229.45 165.109 225.805V91.0231C165.109 87.3778 168.075 84.4121 171.72 84.4121Z" fill="white"/>
<mask id="mask2_8959_763" style="mask-type:luminance" maskUnits="userSpaceOnUse" x="148" y="33" width="192" height="196">
<path d="M339.883 33.127H148.086V228.416H339.883V33.127Z" fill="white"/>
</mask>
<g mask="url(#mask2_8959_763)">
<path d="M269.374 98.9707H217.977C211.932 98.9707 207.031 103.871 207.031 109.916C207.031 115.961 211.932 120.862 217.977 120.862H269.374C275.42 120.862 280.32 115.961 280.32 109.916C280.32 103.871 275.42 98.9707 269.374 98.9707Z" fill="#A56644"/>
<path d="M243.677 150.992C253.614 150.992 261.67 142.936 261.67 132.999C261.67 123.062 253.614 115.006 243.677 115.006C233.739 115.006 225.684 123.062 225.684 132.999C225.684 142.936 233.739 150.992 243.677 150.992Z" fill="#F7F7F7"/>
<path d="M232.08 155.303L180.698 274.037C180.212 275.26 180.033 276.584 180.177 277.893C180.321 279.202 180.783 280.455 181.522 281.544C182.262 282.633 183.257 283.524 184.421 284.14C185.584 284.756 186.881 285.078 188.198 285.078H298.938C300.252 285.078 301.546 284.757 302.707 284.143C303.869 283.529 304.863 282.641 305.603 281.556C306.343 280.471 306.807 279.221 306.954 277.916C307.101 276.61 306.927 275.289 306.448 274.066L255.68 155.303H232.08Z" fill="#F7F7F7"/>
<path fill-rule="evenodd" clip-rule="evenodd" d="M242.438 40.5664C249.249 40.5661 255.835 42.9983 261.011 47.4244C266.187 51.8506 269.612 57.9797 270.668 64.7075L277.22 106.407C277.249 106.591 277.241 106.779 277.197 106.96C277.154 107.141 277.075 107.311 276.965 107.462C276.856 107.612 276.717 107.74 276.559 107.837C276.4 107.934 276.223 107.999 276.04 108.027C275.967 108.039 275.893 108.044 275.819 108.044H212.015C211.828 108.044 211.644 108.008 211.472 107.937C211.3 107.865 211.144 107.761 211.012 107.629C210.881 107.497 210.776 107.341 210.705 107.169C210.634 106.997 210.598 106.813 210.598 106.626C210.598 106.574 210.601 106.521 210.606 106.469L215.276 64.8535C216.025 58.1737 219.209 52.004 224.22 47.5237C229.231 43.0433 235.717 40.5664 242.438 40.5664Z" fill="#A56644"/>
<path fill-rule="evenodd" clip-rule="evenodd" d="M266.877 64.8331L268.978 64.8281C269.685 64.8264 270.386 64.9639 271.04 65.2329C271.694 65.502 272.289 65.8973 272.791 66.3963C273.292 66.8952 273.69 67.4879 273.962 68.1408C274.235 68.7936 274.376 69.4937 274.377 70.2011C274.379 70.9084 274.242 71.6092 273.973 72.2634C273.704 72.9176 273.309 73.5125 272.81 74.0139C272.311 74.5154 271.718 74.9136 271.065 75.1859C270.412 75.4583 269.712 75.5993 269.004 75.6011L266.905 75.6061C266.197 75.6079 265.497 75.4704 264.842 75.2014C264.188 74.9324 263.593 74.5372 263.092 74.0383C262.59 73.5395 262.192 72.9467 261.919 72.2938C261.647 71.641 261.506 70.9409 261.504 70.2335C261.502 69.5262 261.64 68.8254 261.909 68.1712C262.178 67.5169 262.573 66.9222 263.072 66.4207C263.571 65.9192 264.164 65.5208 264.816 65.2484C265.469 64.976 266.17 64.835 266.877 64.8331Z" fill="#FBBA97"/>
<path fill-rule="evenodd" clip-rule="evenodd" d="M219.444 64.8331L221.544 64.8281C222.251 64.8264 222.952 64.9641 223.606 65.2332C224.261 65.5023 224.856 65.8976 225.357 66.3966C225.858 66.8956 226.257 67.4884 226.529 68.1413C226.801 68.7941 226.942 69.4942 226.943 70.2016C226.945 70.9089 226.808 71.6098 226.539 72.2639C226.269 72.9181 225.874 73.5128 225.375 74.0142C224.876 74.5156 224.283 74.9138 223.63 75.1861C222.978 75.4583 222.278 75.5994 221.57 75.6011L219.47 75.6061C218.042 75.6097 216.67 75.0456 215.657 74.038C214.645 73.0303 214.074 71.6616 214.07 70.233C214.067 68.8045 214.631 67.433 215.638 66.4203C216.646 65.4076 218.015 64.8367 219.444 64.8331Z" fill="#FBBA97"/>
<path fill-rule="evenodd" clip-rule="evenodd" d="M244.818 44.8145C250.562 44.8002 256.11 46.9017 260.403 50.7178C264.696 54.534 267.433 59.7975 268.092 65.5035L270.303 84.6495C270.489 86.2631 270.331 87.8977 269.842 89.4464C269.352 90.9951 268.541 92.423 267.462 93.637C266.383 94.851 265.06 95.8237 263.58 96.4915C262.099 97.1593 260.494 97.5072 258.87 97.5125L229.815 97.5855C226.755 97.5932 223.817 96.3851 221.647 94.2268C219.478 92.0685 218.254 89.1367 218.246 86.0765C218.245 85.5275 218.283 84.9792 218.359 84.4355L221.024 65.5426C221.833 59.8033 224.685 54.5481 229.055 50.7409C233.426 46.9337 239.022 44.8296 244.818 44.8145Z" fill="#FBBA97"/>
<path d="M232.115 77.7066C236.252 77.7066 239.605 74.3532 239.605 70.2166C239.605 66.0799 236.252 62.7266 232.115 62.7266C227.978 62.7266 224.625 66.0799 224.625 70.2166C224.625 74.3532 227.978 77.7066 232.115 77.7066Z" fill="#777777"/>
<path d="M232.115 77.7069C236.252 77.7069 239.605 74.4619 239.605 70.4589C239.605 66.456 236.252 63.2109 232.115 63.2109C227.978 63.2109 224.625 66.456 224.625 70.4589C224.625 74.4619 227.978 77.7069 232.115 77.7069Z" fill="white"/>
<path d="M233.726 73.98C235.676 73.98 237.257 72.3991 237.257 70.449C237.257 68.4989 235.676 66.918 233.726 66.918C231.776 66.918 230.195 68.4989 230.195 70.449C230.195 72.3991 231.776 73.98 233.726 73.98Z" fill="#3C3C3C"/>
<path d="M231.611 68.9492C232.393 68.9492 233.027 68.3152 233.027 67.5332C233.027 66.7512 232.393 66.1172 231.611 66.1172C230.829 66.1172 230.195 66.7512 230.195 67.5332C230.195 68.3152 230.829 68.9492 231.611 68.9492Z" fill="white"/>
<path d="M255.67 77.7066C259.806 77.7066 263.16 74.3532 263.16 70.2166C263.16 66.0799 259.806 62.7266 255.67 62.7266C251.533 62.7266 248.18 66.0799 248.18 70.2166C248.18 74.3532 251.533 77.7066 255.67 77.7066Z" fill="#777777"/>
<path d="M255.67 77.7069C259.806 77.7069 263.16 74.4619 263.16 70.4589C263.16 66.456 259.806 63.2109 255.67 63.2109C251.533 63.2109 248.18 66.456 248.18 70.4589C248.18 74.4619 251.533 77.7069 255.67 77.7069Z" fill="white"/>
<path d="M254.054 73.98C256.005 73.98 257.585 72.3991 257.585 70.449C257.585 68.4989 256.005 66.918 254.054 66.918C252.104 66.918 250.523 68.4989 250.523 70.449C250.523 72.3991 252.104 73.98 254.054 73.98Z" fill="white"/>
<path d="M254.074 73.98C256.024 73.98 257.605 72.3991 257.605 70.449C257.605 68.4989 256.024 66.918 254.074 66.918C252.124 66.918 250.543 68.4989 250.543 70.449C250.543 72.3991 252.124 73.98 254.074 73.98Z" fill="#3C3C3C"/>
<path d="M256.377 68.9492C257.159 68.9492 257.793 68.3152 257.793 67.5332C257.793 66.7512 257.159 66.1172 256.377 66.1172C255.595 66.1172 254.961 66.7512 254.961 67.5332C254.961 68.3152 255.595 68.9492 256.377 68.9492Z" fill="white"/>
<path d="M249.962 97.2803C249.962 93.9423 247.256 91.2363 243.918 91.2363C240.581 91.2363 237.875 93.9423 237.875 97.2803V115.481C237.875 118.819 240.581 121.525 243.918 121.525C247.256 121.525 249.962 118.819 249.962 115.481V97.2803Z" fill="#FBBA97"/>
<path d="M226.49 132.951C233.212 132.951 238.66 127.503 238.66 120.781C238.66 114.06 233.212 108.611 226.49 108.611C219.769 108.611 214.32 114.06 214.32 120.781C214.32 127.503 219.769 132.951 226.49 132.951Z" fill="#F7F7F7"/>
<path d="M261.51 132.951C268.231 132.951 273.68 127.503 273.68 120.781C273.68 114.06 268.231 108.611 261.51 108.611C254.789 108.611 249.34 114.06 249.34 120.781C249.34 127.503 254.789 132.951 261.51 132.951Z" fill="#F7F7F7"/>
<path d="M248.648 109.23C248.648 110.57 248.116 111.854 247.169 112.801C246.222 113.748 244.937 114.281 243.598 114.281C242.259 114.281 240.974 113.748 240.027 112.801C239.08 111.854 238.548 110.57 238.548 109.23H237.875V126.367H249.962V109.23H248.648Z" fill="#F7F7F7"/>
<path d="M255.673 146.486H232.078V155.303H255.673V146.486Z" fill="#6F4EA1"/>
<path d="M260.928 117.801H226.638C222.765 117.801 219.625 120.941 219.625 124.814V125.937C219.625 129.81 222.765 132.95 226.638 132.95H260.928C264.801 132.95 267.941 129.81 267.941 125.937V124.814C267.941 120.941 264.801 117.801 260.928 117.801Z" fill="#F7F7F7"/>
<path d="M325.845 64.4521L290.685 93.5845C288.609 95.3047 288.32 98.3822 290.04 100.458L291.438 102.145C293.158 104.221 296.235 104.509 298.312 102.789L333.471 73.6567C335.547 71.9365 335.836 68.859 334.116 66.7829L332.719 65.0966C330.998 63.0205 327.921 62.7319 325.845 64.4521Z" fill="#FBBA97"/>
<path d="M330.941 76.9504C335.879 76.9504 339.882 72.9473 339.882 68.0094C339.882 63.0714 335.879 59.0684 330.941 59.0684C326.003 59.0684 322 63.0714 322 68.0094C322 72.9473 326.003 76.9504 330.941 76.9504Z" fill="#FBBA97"/>
<path d="M260.042 126.724C259.031 125.503 258.546 123.931 258.694 122.353C258.842 120.774 259.611 119.32 260.831 118.308L290.423 93.7893L298.05 102.994L268.458 127.513C267.237 128.524 265.665 129.009 264.087 128.861C262.508 128.713 261.053 127.944 260.042 126.724Z" fill="#F7F7F7"/>
<path d="M155.242 65.1092L153.845 66.7955C152.125 68.8717 152.413 71.9492 154.49 73.6694L189.649 102.802C191.725 104.522 194.803 104.233 196.523 102.157L197.92 100.471C199.641 98.3949 199.352 95.3174 197.276 93.5972L162.116 64.4648C160.04 62.7446 156.963 63.0331 155.242 65.1092Z" fill="#FBBA97"/>
<path d="M157.027 76.9504C161.965 76.9504 165.968 72.9473 165.968 68.0094C165.968 63.0714 161.965 59.0684 157.027 59.0684C152.089 59.0684 148.086 63.0714 148.086 68.0094C148.086 72.9473 152.089 76.9504 157.027 76.9504Z" fill="#FBBA97"/>
<path d="M189.914 103.002L197.541 93.7974L227.133 118.316C228.353 119.328 229.122 120.783 229.27 122.361C229.418 123.939 228.933 125.511 227.922 126.732C226.91 127.953 225.455 128.721 223.877 128.869C222.299 129.017 220.727 128.532 219.506 127.521L189.914 103.002Z" fill="#F7F7F7"/>
<path fill-rule="evenodd" clip-rule="evenodd" d="M240.943 79.5521C241.773 80.2156 242.81 80.5658 243.872 80.5411C244.963 80.5571 246.025 80.1886 246.872 79.5001C246.987 79.4074 247.125 79.349 247.272 79.3316C247.418 79.3143 247.567 79.3386 247.7 79.4019C247.833 79.4653 247.946 79.565 248.025 79.6895C248.104 79.8141 248.146 79.9585 248.147 80.106L248.164 86.988C248.15 88.1008 247.699 89.1634 246.908 89.9462C246.117 90.7291 245.05 91.1696 243.937 91.1723C242.824 91.1751 241.755 90.74 240.96 89.961C240.165 89.1821 239.709 88.1217 239.689 87.009L239.672 80.164C239.671 80.0613 239.691 79.9595 239.73 79.8645C239.769 79.7694 239.827 79.683 239.899 79.6102C239.972 79.5374 240.058 79.4795 240.153 79.44C240.248 79.4005 240.349 79.3802 240.452 79.3801C240.631 79.3789 240.804 79.4397 240.943 79.5521Z" fill="#881B1B"/>
<path fill-rule="evenodd" clip-rule="evenodd" d="M243.926 86.2793C244.746 86.2773 245.546 86.5204 246.227 86.9771C246.907 87.4338 247.435 88.0832 247.743 88.8423C247.397 89.5577 246.856 90.1614 246.184 90.5844C245.511 91.0074 244.733 91.2326 243.938 91.2346C243.143 91.2366 242.364 91.0151 241.689 90.5955C241.014 90.1758 240.471 89.575 240.121 88.8613C240.426 88.1006 240.95 87.4484 241.628 86.9883C242.306 86.5282 243.107 86.2812 243.926 86.2793Z" fill="#B12E2E"/>
<path fill-rule="evenodd" clip-rule="evenodd" d="M231.887 80.2643C234.482 80.2181 236.957 79.1625 238.787 77.3212C240.617 75.4799 241.657 72.998 241.686 70.4023C241.742 69.1336 241.542 67.8665 241.1 66.6761C240.657 65.4858 239.981 64.3963 239.11 63.472C238.239 62.5478 237.191 61.8075 236.029 61.295C234.867 60.7826 233.614 60.5082 232.345 60.4883C229.749 60.5347 227.274 61.5905 225.444 63.4318C223.614 65.273 222.574 67.7548 222.544 70.3503C222.489 71.6191 222.689 72.8861 223.131 74.0764C223.574 75.2668 224.25 76.3564 225.121 77.2806C225.992 78.2049 227.039 78.9452 228.201 79.4576C229.363 79.9701 230.617 80.2444 231.887 80.2643Z" fill="white"/>
<path fill-rule="evenodd" clip-rule="evenodd" d="M231.926 78.6599C234.1 78.6213 236.174 77.7367 237.707 76.194C239.241 74.6512 240.112 72.5717 240.138 70.3969C240.184 69.3337 240.017 68.2718 239.646 67.2743C239.276 66.2767 238.709 65.3638 237.979 64.5892C237.249 63.8147 236.371 63.1944 235.397 62.7651C234.424 62.3358 233.374 62.1062 232.309 62.0898C230.135 62.1287 228.061 63.0133 226.528 64.556C224.995 66.0987 224.123 68.1781 224.098 70.3529C224.051 71.4161 224.217 72.4778 224.588 73.4753C224.959 74.4729 225.526 75.386 226.256 76.1605C226.986 76.935 227.864 77.5553 228.838 77.9846C229.812 78.4139 230.862 78.6436 231.926 78.6599Z" fill="#3D3D3D"/>
<path fill-rule="evenodd" clip-rule="evenodd" d="M231.582 70.569L232.445 70.249C235.045 69.31 237.083 68.694 236.33 66.402C235.53 63.983 232.62 62.862 229.822 63.902C227.024 64.942 225.399 67.738 226.194 70.157C226.949 72.457 228.985 71.5571 231.582 70.5731V70.569Z" fill="white"/>
<path fill-rule="evenodd" clip-rule="evenodd" d="M235.19 75.4615C235.751 75.4517 236.287 75.2235 236.682 74.8254C237.078 74.4274 237.303 73.8908 237.309 73.3296C237.321 73.0552 237.278 72.7812 237.183 72.5238C237.087 72.2664 236.94 72.0307 236.752 71.8308C236.564 71.6309 236.337 71.4708 236.086 71.36C235.835 71.2492 235.564 71.1898 235.289 71.1855C234.728 71.1957 234.193 71.4242 233.797 71.8224C233.401 72.2206 233.176 72.7573 233.17 73.3186C233.158 73.5929 233.201 73.8669 233.297 74.1243C233.393 74.3816 233.539 74.6172 233.727 74.817C233.915 75.0168 234.142 75.1769 234.394 75.2876C234.645 75.3983 234.915 75.4574 235.19 75.4615Z" fill="white"/>
<path fill-rule="evenodd" clip-rule="evenodd" d="M255.438 80.2643C258.033 80.2179 260.509 79.162 262.338 77.3208C264.168 75.4796 265.208 72.9979 265.238 70.4023C265.294 69.1335 265.094 67.8664 264.651 66.676C264.208 65.4856 263.532 64.396 262.66 63.4717C261.789 62.5474 260.742 61.8071 259.58 61.2947C258.418 60.7822 257.165 60.5081 255.895 60.4883C253.3 60.5347 250.825 61.5905 248.995 63.4318C247.165 65.273 246.125 67.7548 246.095 70.3503C246.04 71.6192 246.239 72.8862 246.681 74.0767C247.124 75.2671 247.801 76.3566 248.672 77.2809C249.543 78.2052 250.591 78.9455 251.753 79.4579C252.915 79.9703 254.168 80.2445 255.438 80.2643Z" fill="white"/>
<path fill-rule="evenodd" clip-rule="evenodd" d="M255.475 78.6599C257.65 78.6213 259.724 77.7367 261.257 76.194C262.79 74.6512 263.662 72.5717 263.687 70.3969C263.734 69.3337 263.568 68.272 263.197 67.2744C262.826 66.2769 262.259 65.3638 261.53 64.5892C260.8 63.8147 259.922 63.1945 258.948 62.7651C257.974 62.3358 256.925 62.1062 255.861 62.0898C253.686 62.1285 251.612 63.0131 250.078 64.5558C248.545 66.0985 247.673 68.178 247.648 70.3529C247.602 71.416 247.769 72.4776 248.14 73.4751C248.51 74.4726 249.077 75.3856 249.807 76.1602C250.537 76.9347 251.414 77.5549 252.388 77.9843C253.362 78.4136 254.411 78.6434 255.475 78.6599Z" fill="#3D3D3D"/>
<path fill-rule="evenodd" clip-rule="evenodd" d="M255.137 70.569L256.001 70.249C258.601 69.31 260.639 68.694 259.885 66.402C259.085 63.983 256.176 62.862 253.377 63.902C250.578 64.942 248.954 67.738 249.749 70.157C250.504 72.457 252.54 71.5571 255.137 70.5731V70.569Z" fill="white"/>
<path fill-rule="evenodd" clip-rule="evenodd" d="M258.737 75.4615C259.298 75.4519 259.833 75.2239 260.229 74.8258C260.625 74.4277 260.849 73.8909 260.856 73.3296C260.868 73.0552 260.825 72.7812 260.729 72.5237C260.633 72.2662 260.487 72.0305 260.299 71.8306C260.111 71.6306 259.884 71.4705 259.633 71.3597C259.382 71.249 259.11 71.1897 258.835 71.1855C258.274 71.1957 257.739 71.4242 257.344 71.8224C256.948 72.2206 256.723 72.7573 256.717 73.3186C256.705 73.5929 256.748 73.8669 256.843 74.1243C256.939 74.3816 257.086 74.6172 257.274 74.817C257.462 75.0168 257.689 75.1769 257.94 75.2876C258.191 75.3983 258.462 75.4574 258.737 75.4615Z" fill="white"/>
<path fill-rule="evenodd" clip-rule="evenodd" d="M244.663 43.3731C255.975 43.3441 266.907 52.5791 269.12 63.6481L251.37 63.6932C249.136 63.699 246.923 63.2647 244.857 62.4151C242.791 61.5655 240.912 60.3173 239.329 58.7418C237.745 57.1662 236.487 55.2941 235.627 53.2325C234.767 51.1708 234.322 48.96 234.316 46.7261V45.3951C237.6 44.0522 241.115 43.3653 244.663 43.3731Z" fill="#A56644"/>
</g>
<mask id="mask3_8959_763" style="mask-type:luminance" maskUnits="userSpaceOnUse" x="169" y="233" width="173" height="165">
<path d="M341.018 233.562H169.109V397.327H341.018V233.562Z" fill="white"/>
</mask>
<g mask="url(#mask3_8959_763)">
<path d="M319.915 394.358C326.698 386.83 326.093 375.229 318.565 368.446C311.036 361.664 299.435 362.269 292.653 369.797L270.814 394.038C264.032 401.567 264.637 413.167 272.165 419.95C279.693 426.732 291.294 426.127 298.076 418.599L319.915 394.358Z" fill="#1453A3"/>
<path d="M265.666 413.452C269.412 422.867 280.081 427.462 289.496 423.715C298.911 419.969 303.506 409.3 299.759 399.885L284.851 362.423C281.105 353.008 270.436 348.414 261.021 352.16C251.606 355.907 247.011 366.576 250.758 375.991L265.666 413.452Z" fill="#1453A3"/>
<path fill-rule="evenodd" clip-rule="evenodd" d="M340.322 344.893C340.649 345.428 340.867 346.022 340.963 346.642C341.06 347.262 341.032 347.894 340.883 348.503C340.733 349.112 340.465 349.686 340.093 350.191C339.72 350.695 339.252 351.121 338.715 351.444L323.305 360.781C322.223 361.437 320.924 361.636 319.696 361.334C318.467 361.033 317.408 360.256 316.753 359.174C316.097 358.092 315.899 356.794 316.2 355.565C316.501 354.336 317.279 353.278 318.361 352.622L333.771 343.285C334.306 342.958 334.901 342.74 335.52 342.644C336.14 342.548 336.772 342.575 337.381 342.725C337.99 342.874 338.564 343.143 339.068 343.515C339.573 343.887 339.999 344.356 340.322 344.893Z" fill="#EFAA8B"/>
<path fill-rule="evenodd" clip-rule="evenodd" d="M305.936 352.758C306.35 352.286 306.853 351.902 307.416 351.626C307.979 351.35 308.591 351.188 309.216 351.149C309.842 351.111 310.47 351.197 311.062 351.402C311.655 351.608 312.2 351.928 312.668 352.346L326.168 364.285C326.637 364.7 327.02 365.203 327.295 365.766C327.57 366.329 327.73 366.94 327.769 367.565C327.807 368.191 327.722 368.817 327.518 369.409C327.314 370.002 326.996 370.548 326.581 371.017C326.166 371.486 325.663 371.869 325.1 372.144C324.537 372.418 323.925 372.58 323.3 372.618C322.675 372.656 322.048 372.571 321.456 372.367C320.863 372.163 320.317 371.845 319.848 371.43L306.348 359.491C305.877 359.077 305.492 358.574 305.216 358.011C304.94 357.448 304.778 356.836 304.739 356.21C304.701 355.584 304.787 354.957 304.993 354.364C305.198 353.772 305.519 353.226 305.936 352.758Z" fill="#EFAA8B"/>
<path d="M332.736 377.371C335.156 375.905 337.087 373.753 338.285 371.189C339.483 368.625 339.893 365.763 339.464 362.966C339.036 360.169 337.787 357.561 335.877 355.473C333.966 353.385 331.479 351.911 328.731 351.237C325.982 350.562 323.095 350.718 320.435 351.684C317.775 352.65 315.462 354.383 313.787 356.664C312.112 358.946 311.151 361.672 311.026 364.499C310.9 367.327 311.616 370.128 313.082 372.548C314.056 374.155 315.337 375.555 316.851 376.667C318.366 377.78 320.085 378.582 321.91 379.03C323.735 379.478 325.63 379.562 327.488 379.277C329.345 378.993 331.129 378.345 332.736 377.371Z" fill="#EFAA8B"/>
<path d="M185.889 385.617C184.677 372.108 188.861 358.667 197.526 348.232C206.191 337.796 218.634 331.214 232.136 329.922C245.646 328.71 259.086 332.894 269.521 341.559C279.957 350.224 286.539 362.667 287.83 376.169L288.763 386.228L186.822 395.678L185.889 385.617Z" fill="#1453A3"/>
<path d="M206.084 297.841C206.084 297.841 192.761 291.19 192.384 279.971C192.007 268.752 203.419 264.13 211.325 252.955C219.231 241.78 225.936 236.822 232.385 237.555C238.834 238.288 248.016 240.507 247.185 255.694C247.054 258.494 247.765 260.594 251.309 262.106C254.853 263.618 267.416 274.199 259.983 287.856C252.55 301.513 206.084 297.841 206.084 297.841Z" fill="#3D3D3D"/>
<path d="M238.114 400.519C256.748 398.825 270.403 381.507 268.615 361.838C266.826 342.17 250.271 327.599 231.637 329.293C213.004 330.988 199.348 348.306 201.137 367.974C202.926 387.643 219.481 402.214 238.114 400.519Z" fill="#1453A3"/>
<path d="M232.881 346.378L232.882 346.378C238.453 345.872 242.558 340.945 242.052 335.375L240.449 317.748C239.942 312.178 235.016 308.073 229.445 308.579L229.444 308.579C223.873 309.086 219.768 314.012 220.275 319.583L221.878 337.209C222.384 342.78 227.311 346.885 232.881 346.378Z" fill="#FBBA97"/>
<path d="M201.669 300.38L256.073 295.934C260.073 295.607 263.051 292.099 262.724 288.098C262.397 284.097 258.889 281.119 254.889 281.446L200.485 285.892C196.484 286.219 193.506 289.727 193.833 293.728C194.16 297.729 197.668 300.707 201.669 300.38Z" fill="#FBBA97"/>
<mask id="mask4_8959_763" style="mask-type:luminance" maskUnits="userSpaceOnUse" x="219" y="303" width="23" height="14">
<path d="M240.118 303.648L219.754 305.312L220.663 316.431L241.027 314.767L240.118 303.648Z" fill="white"/>
</mask>
<g mask="url(#mask4_8959_763)">
<path d="M229.678 314.583C234.87 314.583 239.079 310.374 239.079 305.182C239.079 299.99 234.87 295.781 229.678 295.781C224.486 295.781 220.277 299.99 220.277 305.182C220.277 310.374 224.486 314.583 229.678 314.583Z" fill="white"/>
</g>
<mask id="mask5_8959_763" style="mask-type:luminance" maskUnits="userSpaceOnUse" x="211" y="389" width="47" height="33">
<path d="M211.119 421.352H257.789V389.189H211.119V421.352Z" fill="white"/>
</mask>
<g mask="url(#mask5_8959_763)">
<path d="M211.119 398.022C211.119 410.91 221.566 421.357 234.454 421.357C247.342 421.357 257.789 410.91 257.789 398.022V388.964C257.789 376.077 247.342 365.629 234.454 365.629C221.566 365.629 211.119 376.077 211.119 388.964V398.022Z" fill="#E5E5E5"/>
</g>
<path d="M211.119 397.617H257.789V389.19H211.119V397.617Z" fill="#993333"/>
<path d="M244.431 397.617H248.043V389.19H244.431V397.617Z" fill="#E5E5E5"/>
<path d="M221.122 397.617H224.734V389.19H221.122V397.617Z" fill="#AFAFAF"/>
<path d="M234.584 397.554C236.876 397.554 238.734 395.696 238.734 393.404C238.734 391.112 236.876 389.254 234.584 389.254C232.292 389.254 230.434 391.112 230.434 393.404C230.434 395.696 232.292 397.554 234.584 397.554Z" fill="#FFC800"/>
<path d="M251.184 270.692C250.795 266.103 248.607 261.855 245.096 258.874C241.585 255.894 237.037 254.424 232.446 254.786L218.305 255.941C213.716 256.33 209.467 258.519 206.487 262.03C203.506 265.541 202.036 270.088 202.397 274.679L204.573 301.279C204.943 305.771 207.052 309.941 210.451 312.901H210.437L220.877 322.001C222.27 323.216 223.892 324.139 225.647 324.716C227.402 325.293 229.255 325.513 231.096 325.363C232.938 325.212 234.73 324.695 236.368 323.84C238.006 322.986 239.457 321.812 240.634 320.387L249.266 309.942L249.276 309.929L249.458 309.709H249.445C252.316 306.236 253.72 301.78 253.357 297.287L251.184 270.692Z" fill="#FBBA97"/>
<path fill-rule="evenodd" clip-rule="evenodd" d="M215.09 278.521C215.902 278.454 216.719 278.548 217.495 278.797C218.271 279.046 218.99 279.446 219.611 279.973C220.233 280.501 220.744 281.145 221.116 281.87C221.488 282.596 221.713 283.387 221.779 284.199L222.086 287.96C222.22 289.6 221.698 291.226 220.633 292.481C219.568 293.735 218.048 294.515 216.408 294.649C214.768 294.784 213.142 294.261 211.887 293.196C210.633 292.131 209.853 290.611 209.719 288.971L209.412 285.21C209.345 284.398 209.438 283.58 209.687 282.805C209.937 282.029 210.336 281.31 210.864 280.688C211.391 280.067 212.036 279.556 212.761 279.184C213.486 278.812 214.278 278.587 215.09 278.521Z" fill="white"/>
<path fill-rule="evenodd" clip-rule="evenodd" d="M238.196 276.63C239.008 276.563 239.826 276.657 240.601 276.906C241.377 277.156 242.096 277.555 242.718 278.083C243.339 278.61 243.85 279.255 244.222 279.98C244.594 280.705 244.819 281.496 244.885 282.308L245.192 286.07C245.259 286.882 245.164 287.699 244.914 288.475C244.665 289.251 244.266 289.97 243.738 290.591C243.211 291.212 242.567 291.723 241.842 292.095C241.117 292.467 240.326 292.692 239.514 292.759C238.702 292.825 237.884 292.731 237.109 292.481C236.333 292.232 235.614 291.832 234.993 291.305C234.372 290.777 233.861 290.133 233.489 289.408C233.117 288.683 232.891 287.892 232.825 287.08L232.517 283.319C232.45 282.507 232.544 281.69 232.793 280.914C233.043 280.138 233.442 279.419 233.97 278.797C234.497 278.176 235.142 277.665 235.867 277.293C236.592 276.921 237.384 276.696 238.196 276.63Z" fill="white"/>
<path fill-rule="evenodd" clip-rule="evenodd" d="M217.162 282.853C217.898 282.793 218.627 283.029 219.189 283.507C219.752 283.985 220.102 284.667 220.162 285.403L220.447 288.89C220.477 289.254 220.434 289.621 220.322 289.969C220.21 290.318 220.031 290.64 219.794 290.919C219.557 291.198 219.268 291.427 218.942 291.594C218.617 291.761 218.262 291.863 217.897 291.892C217.532 291.922 217.166 291.88 216.817 291.768C216.469 291.656 216.146 291.476 215.868 291.239C215.589 291.003 215.359 290.713 215.192 290.388C215.025 290.063 214.924 289.707 214.895 289.343L214.61 285.856L214.602 285.693C214.666 285.694 214.73 285.692 214.793 285.687C215.061 285.665 215.321 285.591 215.56 285.469C215.798 285.346 216.01 285.178 216.183 284.974C216.357 284.77 216.488 284.533 216.57 284.278C216.652 284.023 216.683 283.754 216.661 283.487C216.646 283.311 216.609 283.137 216.551 282.971C216.749 282.909 216.954 282.869 217.162 282.853Z" fill="#3D3D3D"/>
<path fill-rule="evenodd" clip-rule="evenodd" d="M236.788 281.292C237.523 281.233 238.252 281.468 238.815 281.946C239.377 282.424 239.727 283.106 239.788 283.841L240.073 287.328C240.123 288.059 239.883 288.78 239.405 289.336C238.928 289.891 238.25 290.236 237.52 290.296C236.79 290.355 236.066 290.125 235.504 289.655C234.942 289.184 234.589 288.512 234.52 287.782L234.235 284.295L234.227 284.132C234.291 284.132 234.354 284.132 234.419 284.126C234.959 284.082 235.458 283.825 235.808 283.413C236.158 283 236.33 282.465 236.286 281.926C236.272 281.75 236.235 281.576 236.176 281.409C236.375 281.347 236.58 281.308 236.788 281.292Z" fill="#3D3D3D"/>
<path d="M218.252 271.223L212.2 271.718C211.084 271.809 210.254 272.787 210.345 273.903L210.361 274.107C210.453 275.223 211.431 276.054 212.547 275.963L218.599 275.468C219.714 275.377 220.545 274.398 220.454 273.283L220.437 273.078C220.346 271.963 219.368 271.132 218.252 271.223Z" fill="#3D3D3D"/>
<path d="M241.041 270.211L234.348 270.758C233.409 270.834 232.711 271.657 232.787 272.596L232.787 272.597C232.864 273.535 233.687 274.234 234.626 274.157L241.319 273.61C242.258 273.534 242.956 272.711 242.88 271.772L242.88 271.771C242.803 270.833 241.98 270.134 241.041 270.211Z" fill="#3D3D3D"/>
<mask id="mask6_8959_763" style="mask-type:luminance" maskUnits="userSpaceOnUse" x="218" y="301" width="22" height="13">
<path d="M238.696 301.125L218.332 302.789L219.241 313.908L239.605 312.244L238.696 301.125Z" fill="white"/>
</mask>
<g mask="url(#mask6_8959_763)">
<path d="M228.256 312.06C233.448 312.06 237.657 307.851 237.657 302.659C237.657 297.467 233.448 293.258 228.256 293.258C223.064 293.258 218.855 297.467 218.855 302.659C218.855 307.851 223.064 312.06 228.256 312.06Z" fill="white"/>
</g>
<path d="M220.795 280.397C222.844 277.421 224.406 274.137 225.423 270.67C226.015 268.694 226.351 266.65 226.423 264.588C226.489 262.539 226.123 260.507 226.23 258.459C226.301 256.618 226.699 254.804 227.407 253.102C228.141 251.432 229.297 249.982 230.763 248.896C232.228 247.81 233.952 247.124 235.763 246.908C244.026 245.693 247.233 254.313 247.239 254.328C247.456 240.372 238.639 238.265 232.389 237.555C225.94 236.822 219.235 241.779 211.329 252.955C203.423 264.131 192.011 268.755 192.388 279.971C192.549 283.134 193.628 286.182 195.494 288.742C196.773 289.174 198.082 289.515 199.409 289.762C208.07 291.349 215.86 287.499 220.795 280.397Z" fill="#3D3D3D"/>
<path d="M176.854 411.493L178.312 412.466C186.34 417.821 197.189 415.654 202.544 407.626L220.509 380.694C225.865 372.666 223.698 361.817 215.67 356.462L214.212 355.49C206.184 350.135 195.335 352.301 189.98 360.329L172.015 387.261C166.659 395.289 168.826 406.138 176.854 411.493Z" fill="#1453A3"/>
<path fill-rule="evenodd" clip-rule="evenodd" d="M245.054 352.68C245.006 353.305 244.834 353.914 244.549 354.473C244.264 355.031 243.871 355.528 243.394 355.934C242.916 356.34 242.362 356.647 241.765 356.838C241.168 357.029 240.538 357.1 239.914 357.047L221.955 355.588C220.705 355.471 219.552 354.866 218.745 353.905C217.938 352.944 217.543 351.703 217.645 350.452C217.746 349.201 218.336 348.041 219.288 347.222C220.239 346.404 221.475 345.993 222.727 346.08L240.686 347.539C241.311 347.587 241.92 347.759 242.479 348.044C243.038 348.329 243.534 348.722 243.94 349.2C244.347 349.677 244.654 350.231 244.845 350.828C245.036 351.426 245.107 352.055 245.054 352.68Z" fill="#EFAA8B"/>
<path fill-rule="evenodd" clip-rule="evenodd" d="M212.579 338.911C213.191 338.771 213.824 338.753 214.442 338.859C215.06 338.965 215.651 339.193 216.181 339.528C216.711 339.864 217.169 340.301 217.529 340.815C217.889 341.328 218.144 341.908 218.279 342.521L222.223 360.102C222.486 361.331 222.253 362.614 221.576 363.673C220.898 364.731 219.83 365.479 218.603 365.755C217.377 366.03 216.091 365.81 215.026 365.143C213.961 364.475 213.202 363.414 212.915 362.191L208.971 344.609C208.831 343.998 208.814 343.365 208.92 342.747C209.026 342.129 209.253 341.538 209.588 341.008C209.924 340.479 210.361 340.021 210.874 339.661C211.387 339.301 211.967 339.046 212.579 338.911Z" fill="#EFAA8B"/>
<path d="M219.882 374.559C222.702 374.789 225.528 374.177 228.001 372.801C230.474 371.425 232.483 369.346 233.775 366.828C235.067 364.31 235.583 361.465 235.258 358.654C234.932 355.842 233.781 353.19 231.948 351.033C230.116 348.876 227.685 347.311 224.964 346.536C222.242 345.76 219.351 345.81 216.657 346.677C213.964 347.545 211.587 349.192 209.829 351.41C208.071 353.628 207.011 356.317 206.781 359.138C206.474 362.92 207.681 366.669 210.138 369.561C212.595 372.453 216.1 374.251 219.882 374.559Z" fill="#EFAA8B"/>
</g>
<mask id="mask7_8959_763" style="mask-type:luminance" maskUnits="userSpaceOnUse" x="19" y="180" width="123" height="173">
<path d="M141.624 180.441H19.0195V352.672H141.624V180.441Z" fill="white"/>
</mask>
<g mask="url(#mask7_8959_763)">
<path d="M104.552 200.248H53.3857C48.1849 200.248 43.9688 204.464 43.9688 209.665V210.976C43.9688 216.177 48.1849 220.393 53.3857 220.393H104.552C109.753 220.393 113.969 216.177 113.969 210.976V209.665C113.969 204.464 109.753 200.248 104.552 200.248Z" fill="#3D3D3D"/>
<path d="M100.679 212.965H56.694C52.2139 212.965 48.582 216.597 48.582 221.077V242.288C48.582 246.768 52.2139 250.4 56.694 250.4H100.679C105.159 250.4 108.791 246.768 108.791 242.288V221.077C108.791 216.597 105.159 212.965 100.679 212.965Z" fill="#3D3D3D"/>
<path d="M78.6243 272.342H78.6232C60.9684 272.342 46.6562 286.654 46.6562 304.309V331.342C46.6562 348.997 60.9684 363.309 78.6232 363.309H78.6243C96.2791 363.309 110.591 348.997 110.591 331.342V304.309C110.591 286.654 96.2791 272.342 78.6243 272.342Z" fill="#FFB100"/>
<mask id="mask8_8959_763" style="mask-type:luminance" maskUnits="userSpaceOnUse" x="35" y="272" width="87" height="78">
<path d="M83.1137 272.342H74.0017C52.6062 272.342 35.2617 289.686 35.2617 311.082C35.2617 332.477 52.6062 349.822 74.0017 349.822H83.1137C104.509 349.822 121.854 332.477 121.854 311.082C121.854 289.686 104.509 272.342 83.1137 272.342Z" fill="white"/>
</mask>
<g mask="url(#mask8_8959_763)">
<path d="M125.954 272.342H30.5547V311.082H125.954V272.342Z" fill="#FFB100"/>
</g>
<path d="M81.2963 259.791H76.8703C72.241 259.791 68.4883 263.544 68.4883 268.173V278.577C68.4883 283.206 72.241 286.959 76.8703 286.959H81.2963C85.9255 286.959 89.6783 283.206 89.6783 278.577V268.173C89.6783 263.544 85.9255 259.791 81.2963 259.791Z" fill="#FFC6B7"/>
<path d="M108.074 223.822H48.9092C44.5584 223.822 41.0312 227.349 41.0312 231.7C41.0312 236.051 44.5584 239.578 48.9092 239.578H108.074C112.425 239.578 115.952 236.051 115.952 231.7C115.952 227.349 112.425 223.822 108.074 223.822Z" fill="#FFC6B7"/>
<path d="M85.6858 199.17H71.2998C60.6214 199.17 51.9648 207.826 51.9648 218.505V247.056C51.9648 257.734 60.6214 266.391 71.2998 266.391H85.6858C96.3643 266.391 105.021 257.734 105.021 247.056V218.505C105.021 207.826 96.3643 199.17 85.6858 199.17Z" fill="#FFC6B7"/>
<path d="M70.8098 209.78L64.3453 211.018C63.1536 211.247 62.3725 212.398 62.6008 213.589L62.6427 213.808C62.871 215 64.0221 215.781 65.2138 215.553L71.6783 214.315C72.87 214.086 73.651 212.935 73.4228 211.744L73.3808 211.525C73.1526 210.333 72.0015 209.552 70.8098 209.78Z" fill="#4B4B4B"/>
<path d="M85.5379 214.315L92.0024 215.554C93.1941 215.782 94.3452 215.001 94.5735 213.809L94.6154 213.59C94.8437 212.398 94.0626 211.247 92.8709 211.019L86.4064 209.781C85.2147 209.552 84.0636 210.334 83.8354 211.525L83.7934 211.744C83.5652 212.936 84.3462 214.087 85.5379 214.315Z" fill="#4B4B4B"/>
<path d="M66.387 235.067C71.1571 235.067 75.024 231.2 75.024 226.43C75.024 221.66 71.1571 217.793 66.387 217.793C61.6169 217.793 57.75 221.66 57.75 226.43C57.75 231.2 61.6169 235.067 66.387 235.067Z" fill="white"/>
<path d="M69.0597 229.104C70.536 229.104 71.7327 227.907 71.7327 226.431C71.7327 224.955 70.536 223.758 69.0597 223.758C67.5835 223.758 66.3867 224.955 66.3867 226.431C66.3867 227.907 67.5835 229.104 69.0597 229.104Z" fill="#4B4B4B"/>
<path d="M90.8676 237.157C96.792 237.157 101.595 232.354 101.595 226.43C101.595 220.506 96.792 215.703 90.8676 215.703C84.9433 215.703 80.1406 220.506 80.1406 226.43C80.1406 232.354 84.9433 237.157 90.8676 237.157Z" fill="#777777"/>
<path d="M66.3873 215.703C64.2657 215.703 62.1916 216.332 60.4276 217.511C58.6635 218.69 57.2885 220.365 56.4766 222.325C55.6647 224.285 55.4524 226.442 55.8663 228.523C56.2802 230.604 57.3019 232.515 58.8021 234.015C60.3023 235.515 62.2137 236.537 64.2945 236.951C66.3754 237.365 68.5322 237.152 70.4923 236.341C72.4524 235.529 74.1278 234.154 75.3065 232.39C76.4852 230.626 77.1141 228.552 77.1141 226.43C77.1141 223.585 75.984 220.857 73.9723 218.845C71.9606 216.833 69.2323 215.703 66.3873 215.703ZM66.3873 235.067C64.679 235.067 63.0089 234.561 61.5885 233.612C60.168 232.663 59.0609 231.314 58.4071 229.736C57.7532 228.158 57.582 226.421 57.9151 224.746C58.2483 223.07 59.0708 221.531 60.2787 220.323C61.4865 219.115 63.0253 218.292 64.7008 217.959C66.3762 217.626 68.113 217.797 69.6912 218.45C71.2695 219.104 72.6184 220.211 73.5675 221.632C74.5166 223.052 75.0233 224.722 75.0233 226.43C75.0233 228.721 74.1133 230.917 72.4937 232.537C70.8742 234.157 68.6778 235.067 66.3873 235.067Z" fill="#777777"/>
<path d="M90.8675 235.067C95.6376 235.067 99.5045 231.2 99.5045 226.43C99.5045 221.66 95.6376 217.793 90.8675 217.793C86.0974 217.793 82.2305 221.66 82.2305 226.43C82.2305 231.2 86.0974 235.067 90.8675 235.067Z" fill="white"/>
<path d="M88.1925 229.104C89.6688 229.104 90.8655 227.907 90.8655 226.431C90.8655 224.955 89.6688 223.758 88.1925 223.758C86.7163 223.758 85.5195 224.955 85.5195 226.431C85.5195 227.907 86.7163 229.104 88.1925 229.104Z" fill="#4B4B4B"/>
<path d="M81.3056 221.148H75.6726C74.9646 221.148 74.3906 221.722 74.3906 222.43V222.727C74.3906 223.435 74.9646 224.009 75.6726 224.009H81.3056C82.0137 224.009 82.5876 223.435 82.5876 222.727V222.43C82.5876 221.722 82.0137 221.148 81.3056 221.148Z" fill="#777777"/>
<path d="M64.4519 207.001C71.7862 207.001 77.7319 201.056 77.7319 193.721C77.7319 186.387 71.7862 180.441 64.4519 180.441C57.1175 180.441 51.1719 186.387 51.1719 193.721C51.1719 201.056 57.1175 207.001 64.4519 207.001Z" fill="#3D3D3D"/>
<path d="M85.4975 181.717H113.97V194.359C113.97 196.019 113.643 197.663 113.008 199.197C112.373 200.73 111.442 202.124 110.268 203.298C109.094 204.472 107.7 205.403 106.166 206.038C104.633 206.674 102.989 207.001 101.328 207.001H85.4975C82.1446 207.001 78.9291 205.669 76.5582 203.298C74.1874 200.927 72.8555 197.712 72.8555 194.359C72.8555 191.006 74.1874 187.79 76.5582 185.42C78.9291 183.049 82.1446 181.717 85.4975 181.717Z" fill="#3D3D3D"/>
<path d="M68.543 273.719V290.326L79.1111 286.958L68.543 273.719Z" fill="#FFF5D3"/>
<path d="M89.6772 273.719V290.326L79.1094 286.958L89.6772 273.719Z" fill="#FFF5D3"/>
<path d="M22.997 302.297C22.99 299.96 23.9117 297.716 25.5593 296.059C27.2069 294.401 29.4455 293.466 31.7826 293.459L53.1106 293.395C54.262 293.392 55.4028 293.615 56.4679 294.052C57.533 294.49 58.5016 295.133 59.3182 295.944C60.1348 296.756 60.7836 297.721 61.2274 298.783C61.6712 299.846 61.9014 300.985 61.9049 302.137L61.9051 302.225C61.9121 304.55 60.995 306.783 59.3556 308.432C57.7163 310.082 55.4889 311.012 53.1634 311.019L31.8354 311.083C29.4984 311.09 27.2542 310.168 25.5967 308.521C23.9391 306.873 23.004 304.634 22.997 302.297Z" fill="#FFC6B7"/>
<path d="M39 311.061L38.9471 293.437L58.1661 293.379C60.4937 293.372 62.7287 294.29 64.3794 295.931C66.0302 297.572 66.9615 299.801 66.9685 302.129L66.9687 302.201C66.9757 304.528 66.0577 306.763 64.4169 308.414C62.776 310.065 60.5465 310.996 58.219 311.003L39 311.061Z" fill="#FFB100"/>
<path d="M63.5084 267.051C66.0731 262.915 64.7988 257.482 60.6621 254.917C56.5254 252.353 51.0927 253.627 48.528 257.764L23.975 297.365C21.4102 301.502 22.6846 306.934 26.8213 309.499C30.958 312.064 36.3907 310.79 38.9554 306.653L63.5084 267.051Z" fill="#F2BEB3"/>
<path d="M53.7457 264.943C55.7986 267.546 59.5733 267.993 62.1767 265.94C64.7801 263.887 65.2264 260.112 63.1735 257.509L53.5394 245.291C51.4865 242.688 47.7118 242.241 45.1084 244.294C42.505 246.347 42.0587 250.122 44.1116 252.725L53.7457 264.943Z" fill="#F2BEB3"/>
<path d="M96.4252 302.222L96.4255 302.135C96.4326 299.81 97.3632 297.583 99.0125 295.943C100.662 294.304 102.895 293.387 105.22 293.394L126.552 293.459C128.889 293.466 131.128 294.402 132.775 296.059C134.423 297.717 135.344 299.961 135.337 302.298C135.33 304.635 134.394 306.873 132.737 308.521C131.079 310.168 128.835 311.089 126.498 311.082L105.166 311.017C102.841 311.01 100.614 310.079 98.9744 308.43C97.3351 306.781 96.4181 304.548 96.4252 302.222Z" fill="#FFC6B7"/>
<path d="M91.3584 302.199L91.3586 302.128C91.3656 299.8 92.2969 297.571 93.9476 295.93C95.5984 294.289 97.8334 293.371 100.161 293.378L119.38 293.436L119.327 311.059L100.108 311.001C97.7805 310.994 95.5511 310.063 93.9102 308.412C92.2693 306.761 91.3514 304.526 91.3584 302.199Z" fill="#FFB100"/>
<path d="M119.387 306.636C121.952 310.772 127.385 312.047 131.522 309.482C135.658 306.917 136.933 301.484 134.368 297.348L109.815 257.746C107.25 253.609 101.817 252.335 97.6807 254.9C93.544 257.465 92.2697 262.897 94.8345 267.034L119.387 306.636Z" fill="#F2BEB3"/>
<path d="M114.228 252.724C116.281 250.12 115.835 246.344 113.231 244.291C110.627 242.237 106.851 242.683 104.797 245.287L95.1594 257.508C93.1058 260.113 93.552 263.888 96.1561 265.942C98.7603 267.996 102.536 267.55 104.59 264.945L114.228 252.724Z" fill="#F2BEB3"/>
<path d="M58.3945 245.361C58.3945 245.361 70.3217 248.65 68.3157 261.928" stroke="#F7A78D" stroke-width="2.311" stroke-miterlimit="10" stroke-linecap="round"/>
<path d="M98.4491 245.361C98.4491 245.361 86.5222 248.65 88.5282 261.928" stroke="#F7A78D" stroke-width="2.311" stroke-miterlimit="10" stroke-linecap="round"/>
<path d="M78.4886 256.295C80.7519 256.295 82.5866 253.942 82.5866 251.04C82.5866 248.138 80.7519 245.785 78.4886 245.785C76.2254 245.785 74.3906 248.138 74.3906 251.04C74.3906 253.942 76.2254 256.295 78.4886 256.295Z" fill="white"/>
</g>
</g>
<defs>
<clipPath id="clip0_8959_763">
<rect width="341.019" height="401.679" fill="white"/>
</clipPath>
</defs>
</svg>
