<svg width="92" height="121" viewBox="0 0 92 121" fill="none" xmlns="http://www.w3.org/2000/svg">
<path d="M74.8945 33.1035H16.1029C11.3279 33.1035 7.45703 36.9744 7.45703 41.7493V84.9785C7.45703 89.7534 11.3279 93.6243 16.1029 93.6243H74.8945C79.6695 93.6243 83.5404 89.7534 83.5404 84.9785V41.7493C83.5404 36.9744 79.6695 33.1035 74.8945 33.1035Z" fill="#F7F7F7"/>
<path d="M74.8945 86.709H68.8425V50.3965H65.3841V86.709H47.2279V50.3965H43.7695V86.709H25.6133V50.3965H22.1549V86.709H16.1029C13.8107 86.7062 11.6132 85.7944 9.99237 84.1737C8.37155 82.5528 7.45978 80.3553 7.45703 78.0632V84.9798C7.45978 87.272 8.37155 89.4694 9.99237 91.0903C11.6132 92.7111 13.8107 93.6229 16.1029 93.6257H74.8945C77.1867 93.6229 79.3841 92.7111 81.0051 91.0903C82.6258 89.4694 83.5376 87.272 83.5404 84.9798V78.0632C83.5376 80.3553 82.6258 82.5528 81.0051 84.1737C79.3841 85.7944 77.1867 86.7062 74.8945 86.709Z" fill="#E5E5E5"/>
<path d="M48.0951 31.375H42.9076C40.9975 31.375 39.4492 32.9233 39.4492 34.8333V59.0417C39.4492 60.9517 40.9975 62.5 42.9076 62.5H48.0951C50.0051 62.5 51.5534 60.9517 51.5534 59.0417V34.8333C51.5534 32.9233 50.0051 31.375 48.0951 31.375Z" fill="#39464F"/>
<path d="M69.7083 31.375H64.5208C62.6108 31.375 61.0625 32.9233 61.0625 34.8333V59.0417C61.0625 60.9517 62.6108 62.5 64.5208 62.5H69.7083C71.6184 62.5 73.1667 60.9517 73.1667 59.0417V34.8333C73.1667 32.9233 71.6184 31.375 69.7083 31.375Z" fill="#39464F"/>
<path d="M26.4779 31.375H21.2904C19.3804 31.375 17.832 32.9233 17.832 34.8333V59.0417C17.832 60.9517 19.3804 62.5 21.2904 62.5H26.4779C28.3879 62.5 29.9362 60.9517 29.9362 59.0417V34.8333C29.9362 32.9233 28.3879 31.375 26.4779 31.375Z" fill="#39464F"/>
<path d="M48.0951 59.0423H42.9076C41.9904 59.0423 41.1108 58.678 40.4622 58.0294C39.8136 57.3808 39.4492 56.5011 39.4492 55.584V59.0423C39.4492 59.9595 39.8136 60.8391 40.4622 61.4877C41.1108 62.1363 41.9904 62.5007 42.9076 62.5007H48.0951C49.0122 62.5007 49.8918 62.1363 50.5404 61.4877C51.1891 60.8391 51.5534 59.9595 51.5534 59.0423V55.584C51.5534 56.5011 51.1891 57.3808 50.5404 58.0294C49.8918 58.678 49.0122 59.0423 48.0951 59.0423Z" fill="#39464F"/>
<path d="M69.7083 59.0423H64.5208C63.6037 59.0423 62.7241 58.678 62.0754 58.0294C61.4268 57.3808 61.0625 56.5011 61.0625 55.584V59.0423C61.0625 59.9595 61.4268 60.8391 62.0754 61.4877C62.7241 62.1363 63.6037 62.5007 64.5208 62.5007H69.7083C70.6255 62.5007 71.5051 62.1363 72.1537 61.4877C72.8023 60.8391 73.1667 59.9595 73.1667 59.0423V55.584C73.1667 56.5011 72.8023 57.3808 72.1537 58.0294C71.5051 58.678 70.6255 59.0423 69.7083 59.0423Z" fill="#39464F"/>
<path d="M26.4779 59.0423H21.2904C20.3732 59.0423 19.4935 58.678 18.845 58.0294C18.1964 57.3808 17.832 56.5011 17.832 55.584V59.0423C17.832 59.9595 18.1964 60.8391 18.845 61.4877C19.4935 62.1363 20.3732 62.5007 21.2904 62.5007H26.4779C27.395 62.5007 28.2746 62.1363 28.9233 61.4877C29.5719 60.8391 29.9362 59.9595 29.9362 59.0423V55.584C29.9362 56.5011 29.5719 57.3808 28.9233 58.0294C28.2746 58.678 27.395 59.0423 26.4779 59.0423Z" fill="#39464F"/>
</svg>
