<svg width="92" height="121" viewBox="0 0 92 121" fill="none" xmlns="http://www.w3.org/2000/svg">
<rect x="2.29297" y="28.8574" width="71.8114" height="79.0966" rx="8" transform="rotate(-12.6091 2.29297 28.8574)" fill="#F0EAEA"/>
<rect x="8.73438" y="33.8145" width="62.4447" height="54.1187" rx="6" transform="rotate(-12.6091 8.73438 33.8145)" fill="#EB539E"/>
<mask id="mask0_8969_416" style="mask-type:alpha" maskUnits="userSpaceOnUse" x="9" y="21" width="72" height="65">
<rect x="8.73047" y="33.8145" width="62.4447" height="54.1187" rx="6" transform="rotate(-12.6091 8.73047 33.8145)" fill="white"/>
</mask>
<g mask="url(#mask0_8969_416)">
<path d="M62.1751 73.6981L31.8974 83.3584C26.2217 85.1667 20.0953 82.0061 18.2871 76.3304C16.4736 70.6559 19.6394 64.5284 25.3139 62.7149L55.5917 53.0545C61.2662 51.241 67.3937 54.4068 69.2072 60.0813C71.0155 65.757 67.8496 71.8846 62.1751 73.6981Z" fill="#3D3D3D"/>
<path d="M54.9728 76.7203L39.4033 81.6857C33.8521 83.4549 27.8634 80.3635 26.0888 74.8136L18.1635 49.9836C16.3943 44.4325 19.4856 38.4437 25.0356 36.6692L40.6051 31.7038C46.1562 29.9345 52.145 33.0259 53.9195 38.5759L61.8448 63.4059C63.6141 68.957 60.5227 74.9458 54.9728 76.7203Z" fill="#3D3D3D"/>
<path d="M50.7534 73.2613L39.0507 76.9952C33.4067 78.7963 27.3674 75.6774 25.5663 70.0334L21.6346 57.7198C19.8335 52.0758 22.9524 46.0365 28.5964 44.2354L40.299 40.5015C45.943 38.7003 51.9823 41.8193 53.7835 47.4632L57.7151 59.7769C59.5162 65.4208 56.4026 71.459 50.7534 73.2613Z" fill="#FFB5A1"/>
<path d="M44.5861 63.3663L42.1598 64.1367C41.4295 64.3722 40.6443 63.9648 40.4088 63.2346L40.3125 62.9285C40.077 62.1983 40.4844 61.413 41.2146 61.1775L43.6345 60.403C44.3647 60.1675 45.1499 60.5748 45.3855 61.3051L45.4817 61.6112C45.7184 62.3467 45.311 63.1319 44.5861 63.3663Z" fill="#E18E70"/>
<path d="M41.7486 58.6528L42.7526 59.5665L43.7565 60.4802L42.4658 60.8911L41.1699 61.3031L41.4619 59.9773L41.7486 58.6528Z" fill="#E18E70"/>
<path d="M40.3437 28.2078C40.4912 26.509 42.2734 25.7883 43.4857 26.9386L45.3684 28.7274L47.463 30.7187C48.6265 31.8243 48.3908 33.8483 47.0309 34.3968L44.7999 35.2957L42.5689 36.1945C41.209 36.743 39.7184 35.4162 39.8589 33.7856L40.1123 30.8471L40.3437 28.2078Z" fill="#1CB0F6"/>
<path d="M55.106 30.7344C55.2012 29.0251 53.5554 27.7497 52.2093 28.4839L50.1209 29.6229L47.7952 30.8928C46.5038 31.5981 46.4526 33.653 47.7088 34.6269L49.7646 36.2215L51.8204 37.8161C53.0766 38.79 54.7153 37.9736 54.8035 36.3325L54.9639 33.3759L55.106 30.7344Z" fill="#1CB0F6"/>
<path d="M24.0801 67.183C26.4895 66.644 28.0058 64.2539 27.4668 61.8444C26.9278 59.435 24.5377 57.9187 22.1283 58.4577C19.7188 58.9967 18.2025 61.3868 18.7415 63.7962C19.2805 66.2057 21.6706 67.722 24.0801 67.183Z" fill="#FFB5A1"/>
<path d="M56.4238 56.683C58.8332 56.144 60.3495 53.7539 59.8106 51.3444C59.2716 48.935 56.8814 47.4187 54.472 47.9577C52.0626 48.4967 50.5463 50.8868 51.0853 53.2962C51.6242 55.7057 54.0144 57.222 56.4238 56.683Z" fill="#FFB5A1"/>
<path d="M40.6029 88.6462L37.5668 103.024C37.0104 105.675 34.3832 107.384 31.7311 106.822C29.0802 106.266 27.3708 103.639 27.9325 100.987L30.9686 86.6091C31.5251 83.9582 34.1522 82.2489 36.8043 82.8106C39.4512 83.3734 41.1593 85.9953 40.6029 88.6462Z" fill="#FFB7E3"/>
<path d="M61.0174 77.6569L33.4685 86.4348C31.4476 87.0812 29.2684 85.9528 28.6273 83.9307L28.5736 83.765C27.9272 81.7441 29.0555 79.5649 31.0776 78.9238L58.6265 70.146C60.6475 69.4995 62.8266 70.6279 63.4678 72.65L63.5215 72.8157C64.1614 74.8325 63.0384 77.0105 61.0174 77.6569Z" fill="#FFB7E3"/>
<path d="M61.7206 76.8583L32.4258 86.1934L42.4913 117.78L71.7861 108.445L61.7206 76.8583Z" fill="#FFB7E3"/>
<path d="M43.905 88.1135C43.2699 88.2279 42.6627 87.7973 42.5496 87.1674L41.2254 79.6343C41.1111 78.9991 41.5416 78.392 42.1715 78.2788C42.8067 78.1645 43.4139 78.5951 43.527 79.225L44.8512 86.758C44.9655 87.3932 44.535 88.0004 43.905 88.1135Z" fill="white"/>
<path d="M51.2566 86.0432C50.6214 86.1575 50.0143 85.727 49.9011 85.0971L48.5769 77.564C48.4626 76.9288 48.8932 76.3217 49.5231 76.2085C50.1583 76.0942 50.7654 76.5248 50.8786 77.1547L52.2027 84.6877C52.3171 85.3229 51.893 85.9342 51.2566 86.0432Z" fill="white"/>
<path d="M72.538 83.7025L61.0687 87.462C58.7041 88.2352 56.1373 86.9382 55.3588 84.5747L55.112 83.8192C54.3388 81.4547 55.6359 78.8879 57.9993 78.1094L69.4686 74.3499C71.8332 73.5767 74.3999 74.8737 75.1785 77.2372L75.4252 77.9926C76.2037 80.3561 74.9014 82.924 72.538 83.7025Z" fill="#FFB7E3"/>
<path d="M75.7013 66.169L75.6725 78.3025C75.668 81.0131 73.4477 83.2256 70.7358 83.2159C68.0251 83.2115 65.8127 80.9911 65.8224 78.2792L65.8512 66.1458C65.8556 63.4351 68.076 61.2226 70.7879 61.2323C73.4986 61.2368 75.7057 63.4583 75.7013 66.169Z" fill="#FFB5A1"/>
<path d="M75.6872 73.376L75.6718 80.0093C75.6684 81.7814 74.214 83.2228 72.4472 83.2182L69.0306 83.2107C67.2586 83.2073 65.8172 81.7529 65.8217 79.9861L65.8371 73.3528L75.6872 73.376Z" fill="#FFB7E3"/>
<path d="M46.9196 66.732L45.5096 70.0847C45.2384 70.734 44.4853 71.0412 43.8413 70.7688C43.1921 70.4976 42.8848 69.7446 43.1572 69.1006L44.5672 65.7479C44.8384 65.0986 45.5915 64.7914 46.2355 65.0638C46.89 65.3338 47.1973 66.0869 46.9196 66.732Z" fill="#FFA799"/>
<path d="M47.5695 69.6374L44.7511 70.7898C44.1402 71.0375 43.4362 70.7452 43.1885 70.1343L43.1278 69.9869C42.8801 69.376 43.1724 68.672 43.7833 68.4243L46.6017 67.2719C47.2126 67.0242 47.9165 67.3165 48.1642 67.9274L48.225 68.0749C48.4727 68.6858 48.1751 69.3909 47.5695 69.6374Z" fill="#FFA799"/>
<path d="M66.826 68.3647C65.3864 66.5212 65.7176 63.8318 67.5664 62.391L72.0202 58.9182C73.8637 57.4786 76.5531 57.8098 77.9939 59.6586C79.4335 61.5021 79.1023 64.1915 77.2535 65.6323L72.7997 69.1051C70.955 70.5394 68.2656 70.2082 66.826 68.3647Z" fill="#FFB5A1"/>
<path d="M67.4458 66.9911C66.46 66.8285 65.7892 65.8902 65.9518 64.9043L66.8249 59.6228C66.9874 58.6369 67.9257 57.9662 68.9116 58.1288C69.8975 58.2914 70.5682 59.2296 70.4056 60.2155L69.5326 65.497C69.37 66.4829 68.4317 67.1537 67.4458 66.9911Z" fill="#FFB5A1"/>
<path d="M27.4099 59.0258L25.2855 59.7065C20.8477 61.1157 16.0647 58.6485 14.6502 54.2119L12.6147 47.843C11.2003 43.4063 13.6727 38.6221 18.1041 37.2088L20.2284 36.5282C24.6651 35.1137 29.4481 37.5808 30.8625 42.0175L32.8927 48.3876C34.3125 52.8231 31.8401 57.6073 27.4099 59.0258Z" fill="#3D3D3D"/>
<path fill-rule="evenodd" clip-rule="evenodd" d="M71.15 48.3918C72.5613 48.8424 73.3614 50.2848 72.9378 51.6178C72.6955 52.3716 72.115 52.9291 71.3948 53.1846L67.9133 54.6741C67.4575 54.8704 66.9313 54.7272 66.6333 54.3385L66.5762 54.2569L64.5905 51.1141C64.0794 50.4677 63.8784 49.6187 64.1406 48.8049C64.5654 47.4771 66.0555 46.7662 67.4667 47.2168C68.1906 47.4491 68.7502 47.9403 69.0732 48.5399C69.6881 48.2358 70.4327 48.1636 71.15 48.3918Z" fill="#FFAADE"/>
<path opacity="0.463" fill-rule="evenodd" clip-rule="evenodd" d="M65.8925 34.4313C66.8014 34.1502 67.7536 34.6091 68.0216 35.4598C68.158 35.8957 68.0875 36.3501 67.8612 36.7284L67.7861 36.8396L66.4977 38.8991C66.3294 39.1644 66.0122 39.2853 65.7159 39.2017L65.6377 39.1747L63.44 38.2615C62.9349 38.1135 62.5182 37.7403 62.3576 37.221C62.0949 36.3691 62.6173 35.4527 63.5261 35.1716C63.9938 35.0282 64.4658 35.078 64.8593 35.2732C65.0609 34.8838 65.4249 34.5748 65.8925 34.4313Z" fill="#FFAADE"/>
<path d="M47.9752 59.0569C45.7351 59.7412 43.3412 58.4721 42.6569 56.232L41.7086 53.1347C41.0243 50.8946 42.2934 48.5007 44.5335 47.8163C46.7736 47.132 49.1675 48.4011 49.8519 50.6412L50.8001 53.7385C51.4833 55.9733 50.2142 58.3672 47.9752 59.0569Z" fill="white"/>
<path d="M44.035 50.5748L43.7806 50.6539C42.7537 50.978 42.1804 52.089 42.5046 53.116L43.4054 55.9518C43.7296 56.9787 44.8406 57.5519 45.8675 57.2278L46.1219 57.1487C47.1488 56.8246 47.7221 55.7135 47.398 54.6866L46.4971 51.8508C46.1718 50.8186 45.066 50.2442 44.035 50.5748Z" fill="#3D3D3D"/>
<path d="M44.1172 51.1948C44.2902 51.7447 43.9889 52.334 43.439 52.507C42.8891 52.68 42.2998 52.3787 42.1268 51.8288C41.9538 51.2789 42.2551 50.6896 42.805 50.5166C43.3549 50.3436 43.9389 50.6461 44.1172 51.1948Z" fill="white"/>
<path d="M44.5749 63.3476L42.1426 64.0916C41.41 64.3166 40.6289 63.9027 40.404 63.1701L40.3077 62.864C40.0828 62.1314 40.4966 61.3503 41.2292 61.1254L43.6615 60.3814C44.3941 60.1564 45.1752 60.5703 45.4001 61.3029L45.4964 61.609C45.7213 62.3416 45.3075 63.1227 44.5749 63.3476Z" fill="#E18E70"/>
<path d="M41.7868 58.6019L42.7825 59.5286L43.773 60.4564L42.4787 60.8514L41.1792 61.2476L41.483 59.9248L41.7868 58.6019Z" fill="#E18E70"/>
<path d="M32.9546 61.9954C32.7461 62.1309 32.4811 62.1624 32.2405 62.0552C31.8647 61.8894 31.6996 61.4488 31.8706 61.0718C32.9798 58.6082 34.9094 57.3548 36.3538 56.7374C33.4459 55.6776 30.5683 56.5157 30.5365 56.5228C30.1459 56.6379 29.7306 56.4199 29.609 56.0251C29.4885 55.6356 29.7119 55.2191 30.1014 55.0987C30.2935 55.0391 34.8055 53.7133 38.737 56.2709C38.997 56.4404 39.1221 56.7511 39.0555 57.0492C38.9901 57.3526 38.7465 57.5792 38.4403 57.6255C38.2952 57.6468 34.7772 58.2284 33.2215 61.6747C33.1589 61.8165 33.0655 61.9206 32.9546 61.9954Z" fill="#3D3D3D"/>
</g>
</svg>
