<svg width="92" height="121" viewBox="0 0 92 121" fill="none" xmlns="http://www.w3.org/2000/svg">
<path d="M21.3904 94.0514L4.84831 62.1058C3.8282 60.1429 4.60348 57.6975 6.5621 56.6752L62.6111 27.5348C64.5697 26.5125 67.0098 27.2895 68.03 29.2523L84.5721 61.2061C85.5922 63.169 84.8169 65.6144 82.8583 66.6367L26.8011 95.7771C24.8425 96.7913 22.4024 96.0225 21.3904 94.0514Z" fill="#AFAFAF"/>
<path d="M15.0563 89.0313L2.26821 55.3927C1.48476 53.3235 2.52936 50.9844 4.59406 50.1993L63.5973 27.6672C65.662 26.8821 67.9961 27.9289 68.7795 29.9981L81.5676 63.6367C82.3511 65.7059 81.3065 68.045 79.2418 68.8301L20.2385 91.3622C18.182 92.1473 15.8479 91.1005 15.0563 89.0313Z" fill="#E5E5E5"/>
<path d="M31.3135 99.8007L10.4461 70.4968C9.16479 68.6975 9.581 66.1703 11.3846 64.8781L62.7819 28.1234C64.5773 26.8394 67.099 27.2565 68.3884 29.064L89.2558 58.3679C90.5371 60.1672 90.1209 62.6944 88.3173 63.9866L36.92 100.741C35.1164 102.025 32.5947 101.6 31.3135 99.8007Z" fill="#F7F7F7"/>
<path d="M30.3164 67.3337L29.688 66.4504C29.3371 65.9597 29.4514 65.2645 29.941 64.9128L57.941 44.8916C58.4307 44.5399 59.1244 44.6544 59.4753 45.1451L60.1037 46.0284C60.4546 46.5191 60.3403 47.2143 59.8507 47.566L31.8507 67.5872C31.3528 67.9471 30.6673 67.8244 30.3164 67.3337Z" fill="#E5E5E5"/>
<path d="M35.4258 73.9649L34.7974 73.0734C34.4465 72.5827 34.5607 71.8875 35.0504 71.5359L63.0504 51.5146C63.5401 51.163 64.2337 51.2775 64.5847 51.7682L65.2131 52.6515C65.564 53.1422 65.4497 53.8374 64.9601 54.189L36.96 74.2184C36.4622 74.5701 35.7767 74.4556 35.4258 73.9649Z" fill="#E5E5E5"/>
<path d="M41.5469 81.5622L40.9185 80.6789C40.5676 80.1882 40.6818 79.493 41.1715 79.1413L69.1715 59.1201C69.6612 58.7684 70.3548 58.8829 70.7058 59.3736L71.3341 60.2569C71.6851 60.7476 71.5708 61.4428 71.0812 61.7945L43.0811 81.8239C42.5915 82.1756 41.8978 82.0611 41.5469 81.5622Z" fill="#E5E5E5"/>
<path d="M65.1639 36.4904C66.7278 36.4904 67.9957 35.2198 67.9957 33.6524C67.9957 32.0851 66.7278 30.8145 65.1639 30.8145C63.5999 30.8145 62.332 32.0851 62.332 33.6524C62.332 35.2198 63.5999 36.4904 65.1639 36.4904Z" fill="#777777"/>
<path d="M61.4861 28.1653C61.1189 26.4478 61.3392 24.5912 62.2288 22.9228C64.2364 19.1933 68.8799 17.7948 72.6013 19.8067C76.3226 21.8187 77.7182 26.4723 75.7106 30.2017C74.8047 31.8865 73.3602 33.097 71.6954 33.7349C69.6878 34.5037 67.3783 34.4219 65.3381 33.3178" stroke="#AFAFAF" stroke-width="2.49" stroke-miterlimit="10" stroke-linecap="round"/>
</svg>
