<svg width="92" height="121" viewBox="0 0 92 121" fill="none" xmlns="http://www.w3.org/2000/svg">
<path d="M31.7638 65.8091L43.1909 77.2362L62.2362 58.1909L50.8091 46.7638L31.7638 65.8091Z" fill="#FF7878"/>
<path d="M15.7657 84.0925L24.9075 93.2343C26.7302 95.045 29.2756 95.9812 31.9876 95.8385C34.6996 95.6957 37.3579 94.4856 39.3819 92.4725L16.5275 69.6181C14.5144 71.6421 13.3043 74.3004 13.1615 77.0124C13.0188 79.7244 13.955 82.2698 15.7657 84.0925Z" fill="#FF4B4B"/>
<path d="M57.7923 93.1073L55.5704 95.3293C53.8025 97.0972 51.3713 98.0569 48.8116 97.9974C46.2519 97.9379 43.7733 96.8639 41.9213 95.0119L13.9882 67.0787C12.1361 65.2267 11.0621 62.7481 11.0026 60.1884C10.9431 57.6287 11.9028 55.1975 13.6707 53.4296L15.8927 51.2077C17.0713 50.0291 18.6921 49.3892 20.3986 49.4289C22.105 49.4686 23.7574 50.1846 24.9921 51.4193L57.5807 84.0079C58.8154 85.2426 59.5314 86.895 59.5711 88.6014C59.6108 90.3079 58.9709 91.9287 57.7923 93.1073Z" fill="#FF4B4B"/>
<path d="M54.6181 31.5275L77.4725 54.3819C79.4856 52.3579 80.6957 49.6996 80.8385 46.9876C80.9812 44.2756 80.045 41.7302 78.2343 39.9075L69.0925 30.7657C67.2698 28.955 64.7244 28.0188 62.0124 28.1615C59.3004 28.3043 56.6421 29.5144 54.6181 31.5275Z" fill="#FF4B4B"/>
<path d="M80.3293 70.5704L78.1073 72.7923C76.9287 73.9709 75.3079 74.6108 73.6014 74.5711C71.895 74.5314 70.2426 73.8154 69.0079 72.5807L36.4193 39.9921C35.1846 38.7574 34.4686 37.105 34.4289 35.3986C34.3892 33.6921 35.0291 32.0713 36.2077 30.8927L38.4296 28.6707C40.1975 26.9028 42.6287 25.9431 45.1884 26.0026C47.7481 26.0621 50.2267 27.1361 52.0787 28.9882L80.0118 56.9213C81.8639 58.7733 82.9379 61.2519 82.9974 63.8116C83.0569 66.3713 82.0972 68.8025 80.3293 70.5704Z" fill="#FF4B4B"/>
</svg>
