<svg width="92" height="121" viewBox="0 0 92 121" fill="none" xmlns="http://www.w3.org/2000/svg">
<path d="M77.7935 91.5026C76.2811 91.5013 74.7903 91.1428 73.4427 90.4566C72.095 89.7704 70.9285 88.7755 70.0378 87.5531L61.5825 75.9277C61.077 75.2348 60.4152 74.6708 59.6509 74.2816C58.8866 73.8923 58.0412 73.6888 57.1835 73.6875H34.1902C33.3325 73.6888 32.4871 73.8923 31.7228 74.2816C30.9585 74.6708 30.2967 75.2348 29.7912 75.9277L21.3359 87.5531C20.0795 89.2806 18.2821 90.539 16.2289 91.1283C14.1758 91.7177 11.9845 91.6042 10.0032 90.8062C8.02183 90.008 6.36388 88.5708 5.29257 86.7228C4.22127 84.8748 3.798 82.7219 4.08997 80.6058L7.98685 52.3435C8.78286 46.713 11.5805 41.5577 15.8674 37.8217C20.1543 34.0857 25.6437 32.019 31.33 32H60.0437C65.73 32.019 71.2194 34.0857 75.5063 37.8217C79.7932 41.5577 82.5908 46.713 83.3869 52.3435L87.2837 80.6058C87.4706 81.9619 87.3647 83.3425 86.9736 84.6544C86.5825 85.9663 85.9147 87.1792 85.0157 88.2116C84.1166 89.244 83.0068 90.0718 81.761 90.6394C80.5153 91.2071 79.1625 91.5015 77.7935 91.5026Z" fill="#777777"/>
<path d="M50.2188 51.9375V53.75C50.2188 54.9517 50.6962 56.1043 51.5459 56.9541C52.3957 57.8038 53.5483 58.2812 54.75 58.2812C55.9517 58.2812 57.1043 57.8038 57.9541 56.9541C58.8038 56.1043 59.2812 54.9517 59.2812 53.75V51.9375H50.2188Z" fill="#4B4B4B"/>
<path d="M66.5312 51.9375V53.75C66.5312 54.9517 67.0087 56.1043 67.8584 56.9541C68.7082 57.8038 69.8608 58.2812 71.0625 58.2812C72.2642 58.2812 73.4168 57.8038 74.2666 56.9541C75.1163 56.1043 75.5938 54.9517 75.5938 53.75V51.9375H66.5312Z" fill="#4B4B4B"/>
<path d="M58.375 43.7812V45.5938C58.375 46.7954 58.8524 47.948 59.7021 48.7979C60.552 49.6476 61.7046 50.125 62.9062 50.125C64.1079 50.125 65.2605 49.6476 66.1104 48.7979C66.9601 47.948 67.4375 46.7954 67.4375 45.5938V43.7812H58.375Z" fill="#4B4B4B"/>
<path d="M62.9062 48.3125C65.4088 48.3125 67.4375 46.2838 67.4375 43.7812C67.4375 41.2787 65.4088 39.25 62.9062 39.25C60.4037 39.25 58.375 41.2787 58.375 43.7812C58.375 46.2838 60.4037 48.3125 62.9062 48.3125Z" fill="#FFC800"/>
<path d="M58.375 60.0938V61.9062C58.375 63.1079 58.8524 64.2605 59.7021 65.1104C60.552 65.9601 61.7046 66.4375 62.9062 66.4375C64.1079 66.4375 65.2605 65.9601 66.1104 65.1104C66.9601 64.2605 67.4375 63.1079 67.4375 61.9062V60.0938H58.375Z" fill="#4B4B4B"/>
<path d="M62.9062 64.625C65.4088 64.625 67.4375 62.5963 67.4375 60.0938C67.4375 57.5912 65.4088 55.5625 62.9062 55.5625C60.4037 55.5625 58.375 57.5912 58.375 60.0938C58.375 62.5963 60.4037 64.625 62.9062 64.625Z" fill="#1CB0F6"/>
<path d="M54.75 56.4688C57.2525 56.4688 59.2812 54.44 59.2812 51.9375C59.2812 49.435 57.2525 47.4062 54.75 47.4062C52.2475 47.4062 50.2188 49.435 50.2188 51.9375C50.2188 54.44 52.2475 56.4688 54.75 56.4688Z" fill="#FF4B4B"/>
<path d="M71.0625 56.4688C73.565 56.4688 75.5938 54.44 75.5938 51.9375C75.5938 49.435 73.565 47.4062 71.0625 47.4062C68.56 47.4062 66.5312 49.435 66.5312 51.9375C66.5312 54.44 68.56 56.4688 71.0625 56.4688Z" fill="#00CF66"/>
<path d="M16.6875 51.9375V54.6562C16.6875 55.8579 17.1649 57.0105 18.0147 57.8604C18.8644 58.7101 20.017 59.1875 21.2188 59.1875H23.9375V61.9062C23.9375 63.1079 24.4149 64.2605 25.2646 65.1104C26.1145 65.9601 27.2671 66.4375 28.4688 66.4375C29.6704 66.4375 30.823 65.9601 31.6729 65.1104C32.5226 64.2605 33 63.1079 33 61.9062V59.1875H35.7188C36.9204 59.1875 38.073 58.7101 38.9229 57.8604C39.7726 57.0105 40.25 55.8579 40.25 54.6562V51.9375H16.6875Z" fill="#4B4B4B"/>
<path d="M35.7188 47.4062H33V44.6875C33 43.4858 32.5226 42.3332 31.6729 41.4834C30.823 40.6337 29.6704 40.1562 28.4688 40.1562C27.2671 40.1562 26.1145 40.6337 25.2646 41.4834C24.4149 42.3332 23.9375 43.4858 23.9375 44.6875V47.4062H21.2188C20.017 47.4062 18.8644 47.8837 18.0147 48.7334C17.1649 49.5832 16.6875 50.7358 16.6875 51.9375C16.6875 53.1392 17.1649 54.2918 18.0147 55.1416C18.8644 55.9913 20.017 56.4688 21.2188 56.4688H23.9375V59.1875C23.9375 60.3892 24.4149 61.5418 25.2646 62.3916C26.1145 63.2413 27.2671 63.7188 28.4688 63.7188C29.6704 63.7188 30.823 63.2413 31.6729 62.3916C32.5226 61.5418 33 60.3892 33 59.1875V56.4688H35.7188C36.9204 56.4688 38.073 55.9913 38.9229 55.1416C39.7726 54.2918 40.25 53.1392 40.25 51.9375C40.25 50.7358 39.7726 49.5832 38.9229 48.7334C38.073 47.8837 36.9204 47.4062 35.7188 47.4062Z" fill="white"/>
</svg>
