<svg width="92" height="121" viewBox="0 0 92 121" fill="none" xmlns="http://www.w3.org/2000/svg">
<g clip-path="url(#clip0_8969_135)">
<path d="M76.5093 80.0842C77.5873 80.6055 78.3242 80.0024 78.9634 79.2474C80.0744 77.9433 81.1618 76.6198 82.2256 75.2769C83.0836 74.1881 84.1128 73.9513 85.1744 74.7848C86.236 75.6183 86.0195 76.6909 85.2601 77.644C82.3409 81.3166 79.5621 85.0898 76.8735 88.9437C74.2345 92.728 70.224 93.3272 66.0413 92.2814C61.3182 91.101 58.2771 87.4345 57.7405 82.5739C57.5539 80.876 57.5169 79.1986 58.0767 77.4977C59.4689 73.2658 59.028 68.9455 58.4611 64.6475C58.2661 63.166 58.3711 61.8148 60.1456 61.6526C61.7877 61.5038 62.1681 62.7396 62.2811 64.1612C62.4711 66.567 62.7152 68.9701 63.0101 71.3658C63.1068 72.1589 63.0402 73.0382 63.8604 73.9452C64.658 72.2869 64.2318 70.6278 64.3273 69.1001C64.505 66.3148 64.3796 63.5113 64.3946 60.7151C64.3954 60.3343 64.4725 59.9543 64.4888 59.5721C64.5454 58.2131 65.1925 57.3155 66.5685 57.3916C67.8726 57.4638 68.3005 58.478 68.2866 59.6924C68.254 62.3613 68.1643 65.0288 68.1852 67.6987C68.2026 69.6373 67.994 71.6013 68.409 73.6823C69.173 72.9125 69.2893 72.1035 69.4566 71.3106C70.1607 67.9462 70.8685 64.5825 71.5838 61.2199C71.6776 60.7843 71.8081 60.3585 71.9386 59.9327C72.3367 58.6137 73.1686 57.9911 74.508 58.481C75.8039 58.9562 75.7798 60.0445 75.5379 61.179C74.6979 65.0966 73.8498 69.0167 73.0284 72.9372C72.9075 73.5162 72.9051 74.1183 72.8469 74.7113C72.9972 74.7513 73.1476 74.7913 73.2979 74.8313C74.2412 72.5359 75.1882 70.2411 76.1322 67.942C76.7809 66.3528 77.4295 64.7635 78.0633 63.1719C78.5628 61.9121 79.3859 61.2958 80.7142 61.854C81.9891 62.3878 82.0563 63.4561 81.6193 64.5666C80.436 67.5848 79.1775 70.5714 77.9837 73.584C77.2583 75.4095 76.5535 77.25 76.3195 79.2293C70.469 78.7712 65.6226 83.0049 66.3487 88.0168C66.5169 87.9236 66.6932 87.8746 66.8004 87.756C66.9647 87.5689 67.1334 87.3554 67.2057 87.1222C68.62 82.684 71.4949 80.248 76.1973 80.2861C76.3009 80.2836 76.4063 80.153 76.5093 80.0842Z" fill="#FEDC5F"/>
<path d="M76.5087 80.0839C76.4057 80.1526 76.3003 80.2832 76.1973 80.282C71.4943 80.2477 68.6163 82.6792 67.2057 87.1181C67.1334 87.3512 66.9647 87.5648 66.8004 87.7518C66.6969 87.871 66.5169 87.9195 66.3487 88.0126C65.622 83.0045 70.469 78.7671 76.3194 79.2251C76.3832 79.5154 76.4438 79.8012 76.5087 80.0839Z" fill="white"/>
</g>
<path d="M65.5422 35.601C63.4063 32.1077 60.5344 29.3009 56.927 27.1807C53.3194 25.0603 49.5098 24 45.4979 24C41.486 24 37.6763 25.0599 34.0686 27.1807C30.4609 29.3009 27.5891 32.1077 25.4536 35.601C25.1486 36.1348 24.9961 36.6611 24.9961 37.1799C24.9961 37.6986 25.1486 38.2249 25.4536 38.7586C27.5891 42.252 30.4609 45.059 34.0686 47.1788C37.6763 49.2994 41.486 50.3589 45.4979 50.3589C49.5099 50.3589 53.3194 49.303 56.927 47.1904C60.5344 45.0777 63.4068 42.267 65.5422 38.7586C65.8473 38.2249 65.9997 37.6989 65.9997 37.1799C65.9997 36.6611 65.8473 36.1348 65.5422 35.601ZM40.5895 29.3428C41.9547 27.9776 43.5906 27.2948 45.4976 27.2948C45.8026 27.2948 46.0621 27.4019 46.2758 27.6153C46.4891 27.8288 46.5963 28.0882 46.5963 28.3932C46.5963 28.6985 46.4891 28.9578 46.2762 29.171C46.0629 29.3847 45.8032 29.4914 45.4982 29.4914C44.1864 29.4914 43.0649 29.9569 42.1345 30.8872C41.2038 31.8181 40.7387 32.9391 40.7387 34.2509C40.7387 34.5564 40.6316 34.8155 40.4182 35.0291C40.2045 35.243 39.9453 35.3496 39.6403 35.3496C39.335 35.3496 39.0757 35.2427 38.8621 35.0291C38.6483 34.8155 38.5416 34.556 38.5416 34.2509C38.5416 32.3443 39.2244 30.708 40.5895 29.3428ZM55.44 44.651C52.3814 46.5039 49.0675 47.431 45.4979 47.431C41.9284 47.431 38.6144 46.5045 35.556 44.651C32.4975 42.7975 29.9539 40.3072 27.9251 37.1799C30.2437 33.5797 33.1497 30.8871 36.6429 29.1027C35.7124 30.689 35.247 32.4052 35.247 34.2509C35.247 37.0732 36.2502 39.4866 38.2559 41.4928C40.2617 43.499 42.676 44.5017 45.4979 44.5017C48.3201 44.5017 50.7336 43.4985 52.7398 41.4928C54.7461 39.4871 55.7488 37.0732 55.7488 34.2509C55.7488 32.4052 55.2834 30.6887 54.3528 29.1027C57.8459 30.8871 60.752 33.58 63.0705 37.1799C61.0421 40.3072 58.4986 42.7975 55.44 44.651Z" fill="#1CB0F6"/>
<path d="M46 56V64.617L40 71" stroke="#E889C4" stroke-width="4" stroke-linecap="round"/>
<path d="M46 65L52 71" stroke="#E889C4" stroke-width="4" stroke-linecap="round"/>
<path d="M15.8237 59.7204C22.6392 57.017 29.9313 60.715 32.504 67.1607L38.5039 82.1935C40.9103 88.2227 38.6248 92.7611 34.6334 94.3541C30.4767 96.0047 25.7823 94.015 24.1327 89.9035C22.9047 86.8268 20.2933 84.5055 17.0824 83.6181C10.3205 81.7843 6.36361 74.8489 8.25147 68.114C9.32314 64.3058 12.1273 61.1956 15.8237 59.7204Z" fill="#BA6CED"/>
<path d="M21.9476 66.9674C21.9476 66.9674 16.9017 70.8435 19.8463 75.3678C22.7909 79.8921 28.1049 73.8119 30.4832 78.188C32.8615 82.5642 27.8932 85.0518 27.8932 85.0518" stroke="white" stroke-width="3" stroke-linecap="round"/>
<defs>
<clipPath id="clip0_8969_135">
<rect width="29.2176" height="34.8363" fill="white" transform="translate(59.5938 56) rotate(9.23963)"/>
</clipPath>
</defs>
</svg>
