<svg width="456" height="349" viewBox="0 0 456 349" fill="none" xmlns="http://www.w3.org/2000/svg">
<g clip-path="url(#clip0_8602_1188)">
<path d="M382.284 120.672L327.474 100.26C322.006 98.2242 315.927 101.01 313.894 106.485L312.974 108.971C310.941 114.447 313.723 120.533 319.191 122.569L374.002 142.981C379.47 145.017 385.548 142.231 387.581 136.756L388.501 134.27C390.535 128.794 387.752 122.708 382.284 120.672Z" fill="#A56644"/>
<path fill-rule="evenodd" clip-rule="evenodd" d="M378.262 51.4205C363.944 46.0951 347.892 51.9884 340.412 65.3179L317.951 105.339C317.534 106.078 317.801 107.01 318.54 107.428C318.615 107.471 318.679 107.503 318.754 107.535L383.676 131.708C384.468 131.998 385.357 131.601 385.656 130.808C385.667 130.755 385.688 130.701 385.688 130.637L396.689 86.448C400.338 71.7791 392.408 56.703 378.262 51.4205Z" fill="#A56644"/>
<path fill-rule="evenodd" clip-rule="evenodd" d="M344.198 66.8715L342.058 66.0786C339.04 64.9106 335.659 66.4214 334.492 69.4431C333.326 72.4647 334.835 75.8507 337.852 77.0186C337.884 77.0293 337.916 77.0401 337.949 77.0508L340.089 77.8437C343.106 79.0116 346.488 77.5008 347.654 74.4792C348.821 71.4575 347.312 68.0716 344.294 66.9036C344.262 66.9036 344.23 66.8822 344.198 66.8715Z" fill="#FBBA97"/>
<path fill-rule="evenodd" clip-rule="evenodd" d="M392.472 84.8617L390.343 84.0688C387.325 82.9009 383.944 84.4117 382.777 87.4333C381.611 90.455 383.12 93.8409 386.137 95.0089C386.169 95.0196 386.202 95.0303 386.234 95.041L388.374 95.8339C391.37 97.034 394.784 95.5768 395.982 92.5766C397.181 89.5763 395.725 86.1582 392.729 84.9582C392.644 84.9153 392.558 84.8831 392.472 84.8617Z" fill="#FBBA97"/>
<path fill-rule="evenodd" clip-rule="evenodd" d="M374.223 54.8493C362.131 50.3062 348.562 55.5887 342.698 67.1181L333.196 85.7837C330.05 91.9556 332.5 99.5097 338.664 102.66C338.664 102.66 338.664 102.66 338.675 102.66C339.092 102.874 339.52 103.067 339.959 103.228L369.483 114.318C375.967 116.739 383.18 113.461 385.62 106.978C385.823 106.421 385.994 105.842 386.123 105.264L390.564 84.9908C393.357 72.2613 386.39 59.4247 374.223 54.8493Z" fill="#FBBA97"/>
<path d="M358.257 102.747L356.876 102.233C353.859 101.108 350.509 102.651 349.386 105.673L341.981 125.603C340.857 128.624 342.398 131.978 345.416 133.103L346.796 133.617C349.814 134.743 353.163 133.2 354.287 130.178L361.692 110.248C362.805 107.237 361.274 103.872 358.257 102.747Z" fill="#FBBA97"/>
<path d="M348.069 113.29C350.905 114.351 352.361 117.512 351.301 120.351C351.301 120.351 351.301 120.351 351.301 120.362C352.361 117.522 355.517 116.065 358.353 117.126C358.353 117.126 358.353 117.126 358.364 117.126L359.049 117.372L359.038 117.426L355.25 127.627L352.564 134.848L340.258 130.262L342.987 122.912L346.678 112.979L346.721 112.797L348.069 113.29Z" fill="#9069CD"/>
<path fill-rule="evenodd" clip-rule="evenodd" d="M377.005 53.8745C364.688 49.2456 349.011 54.8925 342.109 66.0897L361.446 73.3438C371.665 77.2012 383.073 72.0258 386.925 61.7822C386.936 61.7715 386.936 61.7501 386.946 61.7394L387.503 60.2821C384.442 57.4855 380.89 55.3103 377.005 53.8745Z" fill="#A56644"/>
<path d="M351.386 87.6602C356.061 87.6602 359.851 83.8655 359.851 79.1846C359.851 74.5036 356.061 70.709 351.386 70.709C346.712 70.709 342.922 74.5036 342.922 79.1846C342.922 83.8655 346.712 87.6602 351.386 87.6602Z" fill="white"/>
<path d="M359.251 82.3518C360.81 78.1087 358.518 73.3583 354.131 71.7415C349.743 70.1247 344.922 72.2537 343.363 76.4969C341.803 80.74 344.096 85.4904 348.483 87.1072C352.87 88.724 357.691 86.5949 359.251 82.3518Z" fill="white"/>
<path d="M350.606 86.4915C352.804 86.4915 354.586 84.7069 354.586 82.5055C354.586 80.3041 352.804 78.5195 350.606 78.5195C348.407 78.5195 346.625 80.3041 346.625 82.5055C346.625 84.7069 348.407 86.4915 350.606 86.4915Z" fill="#3C3C3C"/>
<path d="M376.332 96.8516C381.006 96.8516 384.796 93.0569 384.796 88.376C384.796 83.6951 381.006 79.9004 376.332 79.9004C371.657 79.9004 367.867 83.6951 367.867 88.376C367.867 93.0569 371.657 96.8516 376.332 96.8516Z" fill="white"/>
<path d="M384.192 91.553C385.752 87.3099 383.459 82.5595 379.072 80.9427C374.685 79.3259 369.864 81.4549 368.304 85.698C366.745 89.9411 369.037 94.6915 373.424 96.3083C377.812 97.9251 382.633 95.7961 384.192 91.553Z" fill="white"/>
<path d="M374.535 91.9876C376.734 91.9876 378.516 90.203 378.516 88.0016C378.516 85.8002 376.734 84.0156 374.535 84.0156C372.337 84.0156 370.555 85.8002 370.555 88.0016C370.555 90.203 372.337 91.9876 374.535 91.9876Z" fill="white"/>
<path d="M372.844 94.2591C375.043 94.2591 376.825 92.4745 376.825 90.2731C376.825 88.0717 375.043 86.2871 372.844 86.2871C370.646 86.2871 368.863 88.0717 368.863 90.2731C368.863 92.4745 370.646 94.2591 372.844 94.2591Z" fill="#3C3C3C"/>
<path d="M349.505 80.1794C350.385 80.1794 351.099 79.4646 351.099 78.5829C351.099 77.7011 350.385 76.9863 349.505 76.9863C348.624 76.9863 347.91 77.7011 347.91 78.5829C347.91 79.4646 348.624 80.1794 349.505 80.1794Z" fill="white"/>
<path d="M376.419 89.6736C377.299 89.6736 378.013 88.9588 378.013 88.077C378.013 87.1953 377.299 86.4805 376.419 86.4805C375.538 86.4805 374.824 87.1953 374.824 88.077C374.824 88.9588 375.538 89.6736 376.419 89.6736Z" fill="white"/>
<path d="M343.288 122.354L343.01 120.5C342.667 118.218 340.548 116.654 338.28 116.986L298.879 122.858C296.375 123.233 294.641 125.569 295.016 128.087L295.166 129.083C295.54 131.59 297.873 133.326 300.388 132.951L339.789 127.079C342.057 126.747 343.63 124.626 343.288 122.354Z" fill="#9069CD"/>
<path d="M323.737 151.113L258.408 227.394C256.428 229.805 256.77 233.373 259.178 235.355C259.67 235.762 260.227 236.073 260.815 236.298L343.395 266.729C346.316 267.822 349.569 266.332 350.661 263.407C350.885 262.807 351.003 262.175 351.014 261.532L351.238 161.25L323.737 151.113Z" fill="#CE82FF"/>
<path d="M389.207 161.078L389.967 160.317C391.786 158.474 391.765 155.517 389.924 153.696L361.652 125.74C359.983 124.09 357.297 124.111 355.649 125.783L354.258 127.197C352.61 128.869 352.631 131.558 354.301 133.208L382.573 161.164C384.413 162.985 387.367 162.964 389.186 161.121L389.207 161.078Z" fill="#9069CD"/>
<path d="M356.299 104.128L356.963 104.374C358.429 104.91 360.045 104.16 360.59 102.702L362.838 96.5734C363.373 95.1054 362.623 93.4875 361.168 92.941L360.505 92.6945C359.039 92.1588 357.423 92.9088 356.877 94.3661L354.63 100.495C354.095 101.963 354.844 103.581 356.299 104.128Z" fill="white"/>
<path d="M323.75 151.136L351.262 161.273L358.657 141.161C361.428 133.564 357.522 125.152 349.935 122.356C342.338 119.559 333.916 123.449 331.123 131.056L323.75 151.136Z" fill="#9069CD"/>
<path d="M324.989 147.8L323.762 151.139L351.279 161.279L352.506 157.941L324.989 147.8Z" fill="#3D3D3D"/>
<path d="M348.438 91.1309C352.803 94.4525 353.916 100.549 351.006 105.2" stroke="#F7A78D" stroke-width="2" stroke-miterlimit="10" stroke-linecap="round"/>
<path d="M371.526 99.6381C366.058 99.3488 361.264 103.26 360.461 108.682" stroke="#F7A78D" stroke-width="2" stroke-miterlimit="10" stroke-linecap="round"/>
<path d="M361.982 142.659C367.461 142.659 371.902 138.212 371.902 132.726C371.902 127.24 367.461 122.793 361.982 122.793C356.504 122.793 352.062 127.24 352.062 132.726C352.062 138.212 356.504 142.659 361.982 142.659Z" fill="#9069CD"/>
<path d="M333.967 132.629C339.445 132.629 343.886 128.182 343.886 122.697C343.886 117.211 339.445 112.764 333.967 112.764C328.488 112.764 324.047 117.211 324.047 122.697C324.047 128.182 328.488 132.629 333.967 132.629Z" fill="#9069CD"/>
<path d="M387.42 161.593L388.629 161.079C391.048 160.05 392.182 157.253 391.155 154.832L372.653 111.189C371.626 108.768 368.833 107.632 366.414 108.661L365.205 109.175C362.787 110.204 361.652 113 362.68 115.422L381.182 159.064C382.209 161.497 385.002 162.622 387.42 161.593Z" fill="#EFAA8B"/>
<path d="M362.709 115.024L363.34 115.764C364.742 117.392 367.192 117.575 368.819 116.171L379.445 106.999C381.071 105.595 381.253 103.141 379.852 101.513L379.22 100.773C377.818 99.1446 375.368 98.9625 373.741 100.366L363.115 109.538C361.489 110.942 361.307 113.396 362.709 115.024Z" fill="#EFAA8B"/>
<path d="M345.812 101.032L345.213 100.024C343.961 97.9242 341.254 97.2277 339.145 98.4814L297.305 123.394C295.207 124.648 294.512 127.358 295.764 129.469L296.363 130.477C297.615 132.577 300.322 133.273 302.43 132.019L344.271 107.107C346.369 105.853 347.053 103.132 345.812 101.032Z" fill="#EFAA8B"/>
<path d="M339.092 86.7153L338.139 86.9403C336.053 87.4225 334.747 89.5119 335.229 91.6014L338.257 104.738C338.739 106.827 340.825 108.135 342.912 107.653L343.865 107.427C345.951 106.945 347.257 104.856 346.775 102.766L343.747 89.6298C343.265 87.5404 341.179 86.2331 339.092 86.7153Z" fill="#EFAA8B"/>
<path d="M99.6757 233.886L167.627 243.916C171.565 244.494 174.294 248.159 173.716 252.102C173.138 256.045 169.478 258.777 165.54 258.199L97.589 248.169C96.4226 247.998 95.6094 246.916 95.7806 245.748L97.2466 235.697C97.4178 234.519 98.5093 233.715 99.6757 233.886Z" fill="#FF4B4B"/>
<path d="M165.217 245.972C163.452 250.515 165.688 255.627 170.225 257.394C174.762 259.162 179.867 256.923 181.632 252.38C181.846 251.844 182.018 251.233 182.146 250.58L182.232 250.14C182.275 249.915 182.307 249.69 182.328 249.465L182.382 249.005C182.414 248.705 182.435 248.394 182.435 248.083L182.446 247.622C182.435 244.901 181.6 242.447 179.439 242.715L177.769 242.929L177.331 242.983C177.256 242.993 177.192 242.993 177.117 243.004L176.699 243.036L176.261 243.058L175.79 243.068C174.484 243.068 174.238 242.211 175.051 240.486C170.974 239.725 166.78 241.943 165.217 245.972Z" fill="#E18E70"/>
<path d="M175.065 234.281C173.599 233.456 171.748 233.981 170.924 235.449L165.98 244.257C165.156 245.725 165.68 247.579 167.146 248.404C168.612 249.229 170.464 248.704 171.288 247.236L176.232 238.428C177.045 236.96 176.531 235.106 175.065 234.281Z" fill="#E18E70"/>
<path d="M189.36 244.441C189.135 242.77 187.605 241.602 185.936 241.827L175.299 243.262C173.63 243.487 172.463 245.02 172.688 246.691C172.913 248.363 174.443 249.531 176.112 249.306L186.749 247.87C188.408 247.645 189.574 246.113 189.36 244.441Z" fill="#E18E70"/>
<path d="M189.874 253.002C190.141 251.341 189.018 249.777 187.359 249.498L176.765 247.762C175.107 247.494 173.544 248.619 173.266 250.28C172.998 251.941 174.122 253.505 175.781 253.784L186.375 255.52C188.033 255.788 189.606 254.663 189.874 253.002Z" fill="#E18E70"/>
<path d="M186.001 259.925C186.59 258.349 185.776 256.592 184.203 256.003L174.144 252.274C172.571 251.685 170.816 252.499 170.239 254.074C169.65 255.649 170.463 257.407 172.036 257.985L182.095 261.714C183.668 262.303 185.413 261.5 186.001 259.925Z" fill="#E18E70"/>
<path d="M290.862 74.5861C297.165 75.8398 303.35 71.7038 304.602 65.3819L312.991 23.0896C314.243 16.7784 310.113 10.5851 303.799 9.33145C297.496 8.07779 291.311 12.2138 290.059 18.5357L281.67 60.828C280.428 67.1392 284.559 73.3325 290.862 74.5861Z" fill="#3D3D3D"/>
<path d="M267.971 70.0314C274.274 71.2851 280.459 67.1491 281.711 60.8272L290.101 18.5349C291.353 12.2237 287.222 6.03042 280.909 4.77676C274.606 3.5231 268.42 7.65911 267.168 13.981L258.779 56.2733C257.538 62.5952 261.668 68.7778 267.971 70.0314Z" fill="#3D3D3D"/>
<path d="M245.053 65.4787C251.355 66.7324 257.541 62.5964 258.793 56.2745L267.182 13.9822C268.434 7.67099 264.304 1.47769 257.99 0.224026C251.687 -1.02963 245.502 3.10638 244.25 9.42826L235.86 51.7206C234.608 58.0317 238.739 64.225 245.053 65.4787Z" fill="#3D3D3D"/>
<path d="M249.373 31.0937C244.365 30.0972 239.529 33.2153 238.565 38.0585L230.604 78.1864C229.47 83.876 233.333 89.4372 239.218 90.6158L286.656 100.045C292.541 101.213 298.223 97.5485 299.358 91.8588L307.319 51.7309C308.282 46.8877 304.997 42.1516 299.989 41.1551L249.373 31.0937Z" fill="#EBA792"/>
<path d="M313.511 62.2177C314.338 58.0445 311.513 53.9662 307.201 53.1085C302.888 52.2508 298.721 54.9386 297.893 59.1118C297.066 63.2849 299.891 67.3632 304.203 68.2209C308.516 69.0786 312.683 66.3908 313.511 62.2177Z" fill="#EBA792"/>
<path d="M245.05 48.2782C245.877 44.105 243.052 40.0267 238.74 39.1691C234.427 38.3114 230.26 40.9991 229.432 45.1723C228.605 49.3455 231.43 53.4238 235.742 54.2815C240.055 55.1391 244.222 52.4514 245.05 48.2782Z" fill="#EBA792"/>
<path fill-rule="evenodd" clip-rule="evenodd" d="M288.046 107.858L233.845 97.0787C225.777 95.4714 217.986 100.497 216.435 108.297C216.231 109.347 216.135 110.419 216.178 111.48L217.376 147.032C217.601 153.772 222.609 159.515 229.436 160.876L267.757 168.494C274.584 169.855 281.4 166.459 284.183 160.319L298.864 127.927C302.149 120.673 298.714 112.123 291.192 108.844C290.186 108.404 289.126 108.072 288.046 107.858Z" fill="#FFC800"/>
<path fill-rule="evenodd" clip-rule="evenodd" d="M217.059 137.408L217.38 147.03C217.604 153.77 222.612 159.513 229.44 160.874L267.76 168.493C274.587 169.853 281.403 166.457 284.186 160.317L288.156 151.552L217.059 137.408Z" fill="#FFB100"/>
<path fill-rule="evenodd" clip-rule="evenodd" d="M294.542 101.224L232.016 88.7945C231.021 88.5909 230.058 89.2124 229.865 90.1767L228.667 96.2093C228.474 97.1737 229.127 98.1166 230.122 98.3095L292.648 110.739C293.643 110.943 294.606 110.321 294.798 109.357L295.997 103.324C296.19 102.36 295.537 101.428 294.542 101.224Z" fill="#FFC800"/>
<path fill-rule="evenodd" clip-rule="evenodd" d="M264.901 94.9997L260.471 94.1211L250.551 144.139L254.981 145.018L264.901 94.9997Z" fill="white"/>
<path fill-rule="evenodd" clip-rule="evenodd" d="M308.872 42.8386L241.039 29.3484C239.905 29.1234 238.813 29.8306 238.588 30.9235L237.775 35.0488C237.561 36.1417 238.3 37.2132 239.434 37.4383L307.267 50.9285C308.402 51.1535 309.493 50.4463 309.707 49.3534L310.52 45.2281C310.756 44.1352 310.007 43.0637 308.872 42.8386Z" fill="#FF4B4B"/>
<path d="M281.464 183.688C278.436 186.924 273.31 187.095 270.068 184.063L249.629 164.894C246.397 161.861 246.226 156.729 249.255 153.482C252.283 150.246 257.409 150.075 260.651 153.107L281.09 172.276C284.332 175.319 284.493 180.452 281.464 183.688Z" fill="#FFB100"/>
<path d="M263.362 196.394C259.713 193.876 258.782 188.819 261.297 185.165L268.627 174.525C271.142 170.871 276.193 169.939 279.842 172.457C283.491 174.975 284.422 180.032 281.907 183.686L274.577 194.326C272.051 197.98 267.011 198.912 263.362 196.394Z" fill="#FFB100"/>
<path d="M209.974 171C212.157 174.868 217.101 176.239 220.953 174.054L243.49 161.281C247.353 159.095 248.722 154.145 246.539 150.288C244.356 146.419 239.413 145.048 235.56 147.234L213.024 160.006C209.172 162.192 207.791 167.142 209.974 171Z" fill="#FFB100"/>
<path d="M222.515 188.38C226.816 187.287 229.438 182.883 228.357 178.576L225.19 166.039C224.098 161.732 219.7 159.107 215.399 160.189C211.097 161.282 208.475 165.686 209.556 169.993L212.723 182.53C213.815 186.837 218.213 189.462 222.515 188.38Z" fill="#FFB100"/>
<path d="M263.371 77.8436C263.371 77.8329 263.371 77.8114 263.382 77.8007C264.002 74.9719 266.635 72.9897 269.567 73.2147L269.653 73.2254L270.048 73.2682L270.337 73.2897C272.178 73.2468 273.665 72.3896 274.768 71.3717C276.105 69.7751 278.192 69.0251 280.204 69.3465C280.878 69.4537 281.541 69.6787 282.162 70.043C282.173 70.0537 282.183 70.0537 282.194 70.0644C282.376 70.1716 282.558 70.2895 282.729 70.418C282.793 70.4609 282.857 70.5145 282.911 70.5681C283.029 70.6645 283.136 70.7502 283.243 70.8574C283.307 70.9109 283.371 70.9752 283.425 71.0395C283.521 71.1467 283.617 71.2431 283.714 71.361C283.767 71.4253 283.821 71.4788 283.863 71.5431C283.992 71.7038 284.109 71.8646 284.217 72.036C284.238 72.0789 284.27 72.1217 284.291 72.1646C284.377 72.3146 284.463 72.4646 284.538 72.6253C284.57 72.7004 284.602 72.7754 284.634 72.8504C284.687 72.9789 284.741 73.0968 284.784 73.2254C284.816 73.3111 284.837 73.3861 284.869 73.4718C284.912 73.6004 284.944 73.729 284.976 73.8683C284.998 73.9433 285.019 74.0183 285.03 74.104C285.073 74.3076 285.094 74.5112 285.115 74.7148C285.115 74.7255 285.115 74.7255 285.115 74.7362C285.201 75.8613 284.966 77.0185 284.366 78.0686C282.098 82.076 278.395 84.3262 273.772 84.9262C273.74 84.9262 273.697 84.9369 273.655 84.9369C273.398 84.9691 273.141 84.9905 272.884 85.0119C272.724 85.0227 272.574 85.0441 272.413 85.0548C272.135 85.0762 271.857 85.0762 271.568 85.087C271.418 85.087 271.279 85.0977 271.129 85.0977C270.808 85.0977 270.476 85.087 270.145 85.0762C270.027 85.0762 269.92 85.0762 269.802 85.0655C269.353 85.0441 268.903 85.0012 268.443 84.9584C268.24 84.9369 268.047 84.9048 267.844 84.8619C264.933 84.2405 262.911 81.4974 263.243 78.4758C263.253 78.3258 263.285 78.1865 263.318 78.0472C263.35 77.9614 263.36 77.8972 263.371 77.8436Z" fill="white"/>
<path d="M271.011 66.3141C270.712 67.8464 269.181 68.8321 267.598 68.5107C266.014 68.2 264.987 66.6999 265.286 65.1783C265.586 63.6461 269.032 60.6458 269.149 60.678C269.278 60.6887 271.322 64.7819 271.011 66.3141Z" fill="#DF8E70"/>
<path d="M269.998 63.2723L267.376 62.7472C265.75 62.4258 264.177 63.433 263.866 65.0081C263.556 66.5832 264.616 68.1155 266.253 68.4477L268.874 68.9727C270.501 69.2941 272.074 68.2869 272.384 66.7118C272.695 65.1367 271.625 63.5937 269.998 63.2723Z" fill="#DF8E70"/>
<path d="M283.83 45.5709C278.994 44.6066 274.317 47.6496 273.386 52.3643L272.327 57.6789C271.396 62.3936 274.553 67.001 279.389 67.9547C284.226 68.919 288.903 65.876 289.834 61.1613L290.893 55.8467C291.824 51.132 288.667 46.5246 283.83 45.5709Z" fill="white"/>
<path d="M261.369 41.1002C256.533 40.1359 251.856 43.1789 250.925 47.8936L249.866 53.2082C248.935 57.9229 252.092 62.5303 256.929 63.484C261.765 64.4483 266.442 61.4052 267.373 56.6906L268.432 51.376C269.363 46.6613 266.206 42.0539 261.369 41.1002Z" fill="white"/>
<path fill-rule="evenodd" clip-rule="evenodd" d="M281.946 56.8755C280.202 56.5327 279.067 54.8718 279.399 53.1681C279.538 52.4502 279.923 51.8502 280.437 51.4109C280.212 51.3144 279.966 51.2501 279.72 51.1966C277.58 50.768 275.515 52.1181 275.097 54.2075L274.156 58.965C273.738 61.0544 275.14 63.0903 277.28 63.5189C279.42 63.9475 281.486 62.5974 281.903 60.508L282.609 56.9398C282.395 56.9398 282.171 56.9291 281.946 56.8755Z" fill="#3D3D3D"/>
<path fill-rule="evenodd" clip-rule="evenodd" d="M265.885 53.6799C264.141 53.337 263.006 51.6762 263.338 49.9725C263.466 49.3189 263.798 48.7617 264.248 48.3331C263.873 48.1188 263.456 47.9581 263.017 47.8723C260.877 47.4437 258.811 48.7938 258.394 50.8833L257.452 55.6408C257.035 57.7302 258.437 59.7661 260.577 60.1947C262.717 60.6233 264.783 59.2732 265.2 57.1837L265.885 53.6799Z" fill="#3D3D3D"/>
<path fill-rule="evenodd" clip-rule="evenodd" d="M264.689 94.9557L260.687 94.1628C260.077 94.0449 259.477 94.3342 259.22 94.8807L254.459 104.985C254.148 105.639 254.448 106.41 255.122 106.71C255.218 106.753 255.315 106.785 255.422 106.807L264.721 108.66C265.448 108.8 266.144 108.35 266.283 107.653C266.305 107.557 266.315 107.449 266.305 107.353L265.769 96.1879C265.748 95.5879 265.299 95.0736 264.689 94.9557Z" fill="white"/>
<path d="M282.322 55.9746L295.827 86.1911C298.545 92.2772 305.736 95.0203 311.814 92.2987C317.892 89.577 320.632 82.3765 317.914 76.2904L301.113 38.702C300.204 36.6768 297.807 35.7553 295.784 36.6661L288.422 39.9663C282.355 42.688 279.604 49.8885 282.322 55.9746Z" fill="#EBA792"/>
<path d="M284.474 64.5555L294.148 86.1999C297.016 92.6182 304.614 95.522 311.023 92.6504L312.768 91.8682C319.178 88.9965 322.078 81.3888 319.21 74.9705L309.536 53.3261C308.776 51.6331 306.797 50.8724 305.106 51.6331L286.176 60.1195C284.474 60.8695 283.715 62.8625 284.474 64.5555Z" fill="#FFC800"/>
<path d="M294.317 75.337L273.386 118.508C270.09 125.312 272.947 133.573 279.742 136.874C286.537 140.174 294.788 137.313 298.083 130.509L319.015 87.3378C322.31 80.5338 319.453 72.2725 312.658 68.9722C305.874 65.6613 297.613 68.5329 294.317 75.337Z" fill="#FFC800"/>
<path fill-rule="evenodd" clip-rule="evenodd" d="M278.876 203.361L261.648 199.932C259.197 199.45 256.822 201.036 256.34 203.489C255.859 205.943 257.442 208.322 259.893 208.804L277.121 212.233C279.572 212.715 281.948 211.129 282.429 208.676C282.911 206.232 281.327 203.854 278.876 203.361Z" fill="#D52323"/>
<path fill-rule="evenodd" clip-rule="evenodd" d="M221.22 191.894L203.992 188.465C201.541 187.983 199.165 189.569 198.684 192.023C198.202 194.476 199.786 196.855 202.237 197.337L219.465 200.766C221.916 201.248 224.291 199.662 224.773 197.209C225.254 194.766 223.671 192.387 221.22 191.894Z" fill="#D52323"/>
<path fill-rule="evenodd" clip-rule="evenodd" d="M302.067 25.2334C298.247 23.1868 293.442 24.6441 291.409 28.4801L281.789 46.5135C279.745 50.3388 281.2 55.1498 285.031 57.1857C288.851 59.2323 293.656 57.775 295.689 53.939L305.31 35.9056C307.343 32.0803 305.887 27.2693 302.067 25.2334Z" fill="#EBA792"/>
<path d="M259.542 51.4431L235.529 74.2019C230.692 78.788 222.998 78.5737 218.418 73.7305C213.838 68.8873 214.052 61.1831 218.889 56.5971L248.755 28.2879C250.36 26.7664 252.928 26.8307 254.448 28.4486L259.991 34.3205C264.582 39.153 264.368 46.8571 259.542 51.4431Z" fill="#EBA792"/>
<path d="M254.277 58.5456L237.07 74.8539C231.966 79.6864 223.844 79.4614 219.018 74.361L217.701 72.9681C212.875 67.857 213.1 59.7242 218.194 54.8918L235.401 38.5834C236.749 37.3084 238.868 37.3619 240.141 38.712L254.395 53.7988C255.679 55.1489 255.626 57.2705 254.277 58.5456Z" fill="#FFC800"/>
<path d="M241.059 64.7399L243.926 112.647C244.376 120.19 238.576 126.737 231.042 127.187C223.509 127.637 216.971 121.83 216.521 114.286L213.653 66.3793C213.204 58.8359 219.004 52.289 226.537 51.8389C234.081 51.3889 240.609 57.1965 241.059 64.7399Z" fill="#FFC800"/>
<path fill-rule="evenodd" clip-rule="evenodd" d="M253.033 15.482C257.345 15.0534 261.219 18.2358 261.647 22.554L263.648 42.9019C264.076 47.22 260.898 51.0989 256.585 51.5275C252.273 51.9561 248.399 48.7737 247.971 44.4556L245.97 24.1077C245.531 19.7895 248.72 15.8999 253.033 15.482Z" fill="#EBA792"/>
<path d="M190.099 38.8408C185.509 32.6475 177.922 29.4223 170.27 30.4188L38.424 47.7021C24.6518 49.5023 17.8995 65.4891 26.2035 76.6435L212.775 327.226C217.387 333.43 225.006 336.634 232.657 335.594L363.444 317.947C377.163 316.093 383.872 300.181 375.622 289.048L190.099 38.8408Z" fill="#515151"/>
<path d="M366.879 302.035L358.008 316.104L368.955 322.404L377.205 308.175L366.879 302.035Z" fill="#515151"/>
<path d="M182.397 52.0308C177.817 45.8482 170.251 42.623 162.611 43.6087L31.7061 60.4849C17.934 62.2636 11.1496 78.2184 19.4107 89.3834L205.083 340.384C209.695 346.62 217.325 349.845 225.008 348.806L355.753 331.158C369.471 329.304 376.181 313.392 367.93 302.259L182.397 52.0308Z" fill="#515151"/>
<path d="M187.042 42.0466C183.404 37.0962 177.336 34.5675 171.269 35.4782L42.6756 54.8189C33.8687 56.1476 29.6418 66.3804 34.9388 73.5488L217.508 320.574C221.103 325.438 227.053 327.946 233.035 327.131L361.778 309.484C370.649 308.262 374.994 297.986 369.686 290.764L187.042 42.0466Z" fill="white"/>
<path d="M163.862 53.6376C162.846 52.0732 160.513 51.0017 158.673 51.2482L44.8143 66.4957C42.963 66.7421 42.2889 68.2101 43.3055 69.7852C44.3221 71.3496 46.6549 72.4211 48.4954 72.1747L162.354 56.9378C164.205 56.67 164.879 55.202 163.862 53.6376Z" fill="#E5E5E5"/>
<path d="M246.547 256.603C247.521 254.224 245.649 251.663 243.102 251.867L233.342 252.638C232.058 252.746 230.935 253.56 230.443 254.749L220.587 278.494C219.645 280.765 221.315 283.251 223.765 283.251H233.31C234.701 283.251 235.954 282.405 236.489 281.119L246.547 256.603Z" fill="#E5E5E5"/>
<path d="M245.297 256.442C246.153 254.364 244.516 252.113 242.279 252.296L232.52 253.067C231.396 253.153 230.412 253.871 229.984 254.91L220.128 278.655C219.304 280.637 220.76 282.823 222.911 282.823H232.456C233.676 282.823 234.778 282.083 235.238 280.958L245.297 256.442Z" fill="white" stroke="#E5E5E5" stroke-width="0.803"/>
<path d="M163.979 53.6376C162.962 52.0732 160.64 51.0017 158.789 51.2482L82.4588 61.4596C80.6076 61.706 79.9334 63.174 80.95 64.7491C81.9666 66.3135 84.2994 67.385 86.14 67.1386L162.47 56.9271C164.332 56.67 165.006 55.202 163.979 53.6376Z" fill="#58CC00"/>
<path d="M159.069 53.1573C158.834 52.8037 158.31 52.5573 157.882 52.6108L84.4302 62.4473C84.0021 62.5008 83.8523 62.8437 84.0877 63.1973C84.3232 63.5509 84.8475 63.7974 85.2755 63.7438L158.727 53.9181C159.144 53.8538 159.305 53.5216 159.069 53.1573Z" fill="#7AD535"/>
<path d="M179.688 47.457L176.777 54.4432" stroke="#B0B0B0" stroke-width="1.545" stroke-linecap="round" stroke-linejoin="round"/>
<path d="M171.633 48.1738L185.223 53.9064" stroke="#B0B0B0" stroke-width="0.8828" stroke-linecap="round" stroke-linejoin="round"/>
<path d="M259.486 152.26L118.094 171.986" stroke="#E0E0E0" stroke-width="1.1036"/>
<path d="M272.798 170.24L131.406 189.967" stroke="#E0E0E0" stroke-width="1.1036"/>
<path d="M286.091 187.748L144.699 207.474" stroke="#E0E0E0" stroke-width="1.1036"/>
<path d="M352.465 279.886C351.084 278.129 348.109 276.94 345.884 277.24L212.432 295.412C210.27 295.702 209.607 297.288 210.945 298.991L217.365 307.178C218.746 308.935 221.72 310.124 223.957 309.824L357.409 291.651C359.57 291.362 360.234 289.776 358.907 288.073L352.465 279.886Z" fill="#E5E5E5"/>
<path d="M292.624 211.943C290.869 209.682 288.055 208.525 285.219 208.9L267.852 211.203C265.679 211.493 264.641 214.022 265.979 215.757L270.912 222.122C272.656 224.383 275.481 225.54 278.317 225.165L295.674 222.861C297.846 222.572 298.884 220.043 297.547 218.308L292.624 211.943Z" fill="white"/>
<path d="M285.275 209.254L267.918 211.557C266.024 211.804 265.114 214.022 266.281 215.543L271.214 221.908C272.883 224.073 275.58 225.176 278.287 224.823L295.644 222.519C297.538 222.273 298.448 220.054 297.281 218.533L292.348 212.157C290.679 210.004 287.982 208.889 285.275 209.254Z" stroke="#E5E5E5" stroke-width="0.6621"/>
<path d="M294.371 229.676C291.803 227.587 288.229 227.287 285.35 228.915L262.268 241.988C260.535 242.973 260.331 245.395 261.872 246.659L266.838 250.71C269.406 252.799 272.98 253.099 275.858 251.47L298.94 238.398C300.674 237.412 300.877 234.991 299.336 233.726L294.371 229.676Z" fill="white"/>
<path d="M285.521 229.216L262.439 242.288C260.92 243.145 260.738 245.267 262.097 246.37L267.062 250.421C269.513 252.414 272.937 252.714 275.687 251.149L298.769 238.077C300.289 237.22 300.471 235.098 299.111 233.995L294.146 229.944C291.696 227.951 288.271 227.662 285.521 229.216Z" stroke="#E5E5E5" stroke-width="0.6621"/>
<path d="M263.874 215.983C262.13 213.733 259.327 212.565 256.502 212.929L232.071 216.09C229.899 216.369 228.85 218.908 230.199 220.644L235.121 227.009C236.865 229.259 239.669 230.427 242.494 230.062L266.924 226.901C269.097 226.623 270.145 224.083 268.797 222.348L263.874 215.983Z" fill="white"/>
<path d="M256.546 213.283L232.116 216.444C230.211 216.691 229.302 218.909 230.479 220.43L235.401 226.795C237.071 228.949 239.757 230.063 242.453 229.71L266.883 226.549C268.788 226.302 269.698 224.084 268.521 222.563L263.598 216.198C261.929 214.044 259.243 212.93 256.546 213.283Z" stroke="#E5E5E5" stroke-width="0.6621"/>
<path d="M188.186 259.969C187.758 258.984 186.891 258.255 185.842 257.998L162.043 252.201C159.357 251.547 157.035 254.172 158.02 256.766L161.273 265.338C161.669 266.377 162.546 267.17 163.627 267.448L188.154 273.824C190.925 274.542 193.311 271.745 192.166 269.12L188.186 259.969Z" fill="white"/>
<path d="M187.749 260.129C187.374 259.272 186.614 258.629 185.705 258.414L161.713 252.607C159.359 252.039 157.336 254.343 158.192 256.604L161.467 265.186C161.82 266.097 162.58 266.783 163.522 267.029L188.251 273.415C190.681 274.048 192.767 271.594 191.761 269.29L187.749 260.129Z" fill="#E5E5E5" stroke="#E5E5E5" stroke-width="0.803"/>
<path d="M187.039 259.283C186.665 258.415 185.916 257.772 184.995 257.547L161.678 251.782C159.334 251.204 157.291 253.486 158.136 255.758L161.336 264.33C161.678 265.251 162.438 265.937 163.39 266.183L187.424 272.537C189.843 273.18 191.94 270.748 190.956 268.444L187.039 259.283Z" fill="white" stroke="#E5E5E5" stroke-width="0.803"/>
<path d="M232.479 233.864C231.238 232.964 226.497 232.761 223.747 235.429C220.997 238.108 220.655 242.094 222.121 243.347C223.587 244.601 225.609 244.022 226.754 242.447C228.124 240.561 227.888 239.876 229.076 238.247C230.253 236.618 232.008 237.572 233.057 236.136C233.367 235.707 233.72 234.764 232.479 233.864Z" fill="white"/>
<path d="M253.48 185.778L248.836 168.613C247.926 165.248 244.437 163.245 241.077 164.155C237.717 165.066 235.716 168.559 236.626 171.924L241.27 189.089C242.18 192.454 245.668 194.458 249.028 193.547C252.388 192.636 254.389 189.143 253.48 185.778Z" fill="#0056D6"/>
<path d="M249.762 193.355L243.734 171.078L216.529 178.459L222.556 200.736L249.762 193.355Z" fill="#0056D6"/>
<path d="M241.433 154.326L218.512 176.506C215.815 179.11 211.492 179.035 208.891 176.346C206.291 173.645 206.366 169.316 209.052 166.713L231.973 144.533C234.67 141.929 238.993 142.004 241.593 144.693C244.194 147.383 244.13 151.722 241.433 154.326Z" fill="#0056D6"/>
<path d="M241.434 154.509L231.493 144.544C230.872 143.923 230.872 142.894 231.493 142.273C232.113 141.651 233.141 141.651 233.761 142.273L243.703 152.238C244.323 152.859 244.323 153.888 243.703 154.509C243.071 155.142 242.055 155.142 241.434 154.509Z" fill="#01357A"/>
<path d="M240.107 150.363L235.548 145.788C233.708 143.945 233.708 140.934 235.548 139.091L238.277 136.359C240.118 134.516 243.125 134.516 244.965 136.359L249.524 140.934C251.364 142.777 251.364 145.788 249.524 147.631L246.795 150.363C244.965 152.217 241.948 152.206 240.107 150.363Z" fill="#01357A"/>
<path d="M218.82 203.253C231.126 197.766 236.723 183.194 231.244 170.872L223.261 152.924C221.485 148.927 216.765 147.116 212.774 148.895L194.229 157.167C183.806 161.817 179.066 174.161 183.71 184.598L186.482 190.834C191.95 203.135 206.503 208.739 218.82 203.253Z" fill="#006BD6"/>
<path d="M179.155 91.945L169.995 96.8954C150.905 107.203 143.703 131.28 153.997 150.406C164.292 169.522 188.337 176.733 207.438 166.425L216.598 161.475C235.689 151.167 242.89 127.09 232.596 107.964C222.302 88.8484 198.257 81.6372 179.155 91.945Z" fill="#0075D6"/>
<path d="M176.296 120.329L175.696 120.544C171.876 121.904 169.854 126.148 171.213 129.984L173.449 136.295C173.941 137.677 174.808 138.813 175.889 139.649C176.488 139.434 180.854 137.945 186.804 138.159C188.302 136.231 188.837 133.595 187.96 131.141L185.723 124.83C184.364 120.983 180.116 118.969 176.296 120.329Z" fill="white"/>
<path d="M181.058 125.099L180.619 125.249C178.843 125.881 177.901 127.864 178.532 129.642L180.277 134.571C180.908 136.35 182.888 137.293 184.664 136.661L185.103 136.511C186.879 135.878 187.821 133.896 187.189 132.117L185.445 127.189C184.814 125.41 182.845 124.467 181.058 125.099Z" fill="black"/>
<path d="M181.209 126.201C181.551 127.154 181.048 128.204 180.096 128.547C179.143 128.89 178.095 128.386 177.752 127.433C177.41 126.479 177.913 125.429 178.865 125.086C179.817 124.743 180.866 125.247 181.209 126.201Z" fill="white"/>
<path d="M208.314 109.731L208.859 109.538C212.326 108.274 216.189 110.084 217.441 113.556L219.517 119.267C219.967 120.521 220.02 121.817 219.742 123.028C219.196 123.221 215.291 124.71 211.235 128.289C209.073 127.807 207.179 126.275 206.377 124.035L204.301 118.324C203.049 114.863 204.846 110.995 208.314 109.731Z" fill="white"/>
<path d="M208.109 117.156L208.483 117.016C210.003 116.459 211.694 117.252 212.25 118.774L213.78 122.974C214.337 124.495 213.545 126.188 212.025 126.746L211.651 126.885C210.131 127.442 208.441 126.649 207.884 125.128L206.354 120.927C205.797 119.395 206.589 117.702 208.109 117.156Z" fill="black"/>
<path d="M209.812 118.624C210.111 119.438 211.01 119.856 211.824 119.567C212.637 119.267 213.054 118.366 212.765 117.552C212.466 116.738 211.567 116.32 210.753 116.609C209.93 116.909 209.512 117.809 209.812 118.624Z" fill="white"/>
<path d="M182.568 167.213C192.213 163.778 197.613 154.187 194.631 145.79C191.648 137.393 181.412 133.37 171.767 136.804C162.123 140.239 156.723 149.831 159.705 158.228C162.688 166.625 172.924 170.647 182.568 167.213Z" fill="#0075D6"/>
<path d="M233.281 139.571C237.236 132.011 235.425 123.252 229.236 120.006C223.048 116.761 214.825 120.258 210.871 127.818C206.917 135.377 208.728 144.137 214.916 147.383C221.105 150.628 229.327 147.131 233.281 139.571Z" fill="#0075D6"/>
<path d="M184.322 104.247C196.97 98.2041 211.353 101.14 219.1 110.548L225.852 107.323C216.425 94.6468 197.805 90.4893 181.486 98.2792C165.167 106.069 156.671 123.17 160.566 138.493L167.318 135.268C164.889 123.31 171.673 110.28 184.322 104.247Z" fill="white"/>
<path d="M207.116 152.113C194.468 158.156 180.086 155.22 172.338 145.812L165.586 149.037C175.013 161.713 193.633 165.871 209.952 158.081C226.271 150.291 234.768 133.19 230.872 117.867L224.12 121.092C226.539 133.04 219.765 146.069 207.116 152.113Z" fill="white"/>
<path d="M217.73 196.33L214.306 184.618C212.712 179.164 206.944 176.003 201.497 177.6C196.05 179.196 192.894 184.972 194.488 190.426L197.912 202.137C199.507 207.591 205.275 210.752 210.721 209.156C216.168 207.559 219.325 201.784 217.73 196.33Z" fill="#0056D6"/>
<path d="M159.699 167.174L187.511 182.786C190.775 184.618 194.948 183.439 196.778 180.171C198.608 176.903 197.431 172.724 194.167 170.892L166.355 155.28C163.091 153.448 158.918 154.627 157.088 157.895C155.258 161.174 156.425 165.342 159.699 167.174Z" fill="#006BD6"/>
<path d="M159.739 167.357L166.824 155.184C167.262 154.424 167.005 153.438 166.246 152.988C165.486 152.548 164.501 152.806 164.052 153.566L156.968 165.739C156.529 166.499 156.786 167.485 157.546 167.935C158.316 168.385 159.301 168.117 159.739 167.357Z" fill="#01357A"/>
<path d="M159.399 163.982L163.637 156.695C164.632 154.981 164.054 152.752 162.331 151.756L160.704 150.813C157.483 148.938 153.31 150.031 151.427 153.267L148.784 157.81C147.788 159.524 148.366 161.753 150.089 162.749L154.455 165.3C156.178 166.285 158.404 165.707 159.399 163.982Z" fill="#01357A"/>
<path d="M149.426 162.215L154.648 159.622C156.167 158.872 156.788 157.007 156.039 155.497L155.547 154.5C154.798 152.979 152.936 152.357 151.427 153.107L146.205 155.7C144.685 156.45 144.065 158.315 144.814 159.825L145.306 160.822C146.055 162.343 147.906 162.965 149.426 162.215Z" fill="#01357A"/>
<path d="M183.507 81.0392L161.281 93.0936C158.97 94.3473 158.103 97.2618 159.355 99.5655C160.607 101.88 163.518 102.748 165.818 101.494L188.044 89.4398C190.356 88.1862 191.222 85.2717 189.97 82.9679C188.729 80.6535 185.818 79.7855 183.507 81.0392Z" fill="#01357A"/>
<path d="M146.289 91.2423C147.988 88.3571 147.03 84.6388 144.148 82.9373C141.267 81.2357 137.553 82.1953 135.854 85.0805C134.155 87.9658 135.113 91.684 137.995 93.3856C140.876 95.0871 144.589 94.1275 146.289 91.2423Z" fill="#01357A"/>
<path d="M141.41 88.6787C141.41 88.6787 157.312 71.2453 172.507 87.7144" stroke="#01357A" stroke-width="1.5968" stroke-miterlimit="10"/>
<path d="M135.281 159.355L167.031 149.347C169.289 148.629 170.562 146.196 169.845 143.936L165.875 131.313C165.158 129.052 162.729 127.777 160.471 128.495L128.721 138.503C126.463 139.221 125.19 141.653 125.907 143.914L129.877 156.536C130.594 158.797 133.023 160.062 135.281 159.355Z" fill="#E5E5E5"/>
<path d="M133.513 157.664C131.801 157.664 130.249 156.528 129.736 154.889L125.905 142.695C125.252 140.616 126.408 138.388 128.495 137.723L160.244 127.715C160.63 127.597 161.025 127.533 161.421 127.533C163.134 127.533 164.685 128.669 165.199 130.308L169.03 142.502C169.351 143.509 169.254 144.581 168.762 145.524C168.27 146.467 167.446 147.152 166.451 147.474L134.701 157.482C134.305 157.61 133.909 157.664 133.513 157.664Z" fill="white"/>
<path d="M161.412 127.897C162.974 127.897 164.386 128.936 164.857 130.415L168.688 142.608C168.977 143.519 168.891 144.494 168.442 145.351C167.993 146.209 167.244 146.841 166.334 147.13L134.584 157.138C134.231 157.245 133.878 157.299 133.514 157.299C131.952 157.299 130.539 156.259 130.068 154.781L126.237 142.587C125.949 141.676 126.034 140.701 126.484 139.844C126.933 138.987 127.682 138.355 128.592 138.065L160.341 128.057C160.684 127.95 161.048 127.897 161.412 127.897ZM161.412 127.189C160.983 127.189 160.555 127.254 160.127 127.393L128.378 137.401C126.12 138.119 124.846 140.551 125.563 142.812L129.394 155.006C129.972 156.838 131.684 158.027 133.514 158.027C133.942 158.027 134.37 157.963 134.798 157.824L166.548 147.816C168.806 147.098 170.079 144.666 169.362 142.405L165.531 130.211C164.954 128.368 163.241 127.189 161.412 127.189Z" fill="#E5E5E5"/>
<path d="M369.353 343.586V342.515C369.353 340.19 367.47 338.293 365.137 338.293H348.818C346.496 338.293 344.602 340.179 344.602 342.515V343.586C344.602 345.911 346.485 347.808 348.818 347.808H365.137C367.459 347.808 369.353 345.922 369.353 343.586Z" fill="#4B4B4B"/>
<path d="M361.154 295.895H359.774C356.735 295.895 354.273 298.359 354.273 301.402V329.765C354.273 332.808 356.735 335.272 359.774 335.272H361.154C364.193 335.272 366.654 332.808 366.654 329.765V301.402C366.654 298.359 364.193 295.895 361.154 295.895Z" fill="#EFAA8B"/>
<path d="M403.278 255.381L402.721 256.645C401.501 259.431 402.775 262.678 405.546 263.899L431.496 275.279C434.278 276.5 437.521 275.225 438.741 272.439L439.297 271.175C440.517 268.389 439.244 265.142 436.472 263.921L410.522 252.541C407.729 251.33 404.487 252.595 403.278 255.381Z" fill="#EFAA8B"/>
<path d="M338.248 233.897L353.689 310.584C354.15 312.824 356.333 314.27 358.569 313.81C359.19 313.681 359.768 313.413 360.271 313.028L422.978 264.456C424.787 263.052 425.108 260.459 423.716 258.649C423.288 258.102 422.743 257.674 422.101 257.395L391.656 244.14C391.153 243.926 390.704 243.605 390.319 243.208L365.803 217.685C364.465 216.313 362.357 216.035 360.709 217.021L340.163 229.568C338.697 230.468 337.927 232.193 338.248 233.897Z" fill="#FFB7E3"/>
<path d="M358.856 184.458L307.502 205.696C302.548 207.742 300.183 213.432 302.237 218.393L303.168 220.654C305.212 225.615 310.894 227.983 315.849 225.926L367.203 204.688C372.157 202.642 374.522 196.952 372.468 191.991L371.537 189.73C369.493 184.769 363.811 182.412 358.856 184.458Z" fill="#A56644"/>
<path d="M307.215 139.262L298.152 143.483C284.529 149.827 278.622 166.038 284.957 179.679L299.703 211.417C306.038 225.057 322.229 230.972 335.851 224.628L344.915 220.407C358.537 214.063 364.444 197.851 358.109 184.211L343.363 152.473C337.018 138.833 320.838 132.918 307.215 139.262Z" fill="#A56644"/>
<path fill-rule="evenodd" clip-rule="evenodd" d="M311.132 219.27L320.559 202.598L334.588 210.484L322.967 231.11C320.014 236.393 313.422 238.418 308.018 235.707L295.188 229.3L302.389 214.877L311.132 219.27Z" fill="#F7F7F7"/>
<path d="M284.496 219.721C284.496 214.267 288.905 209.842 294.352 209.842C299.798 209.842 304.218 214.256 304.218 219.71C304.218 225.164 299.809 229.59 294.362 229.59H294.352C288.916 229.59 284.507 225.164 284.496 219.721Z" fill="#FBBA97"/>
<path fill-rule="evenodd" clip-rule="evenodd" d="M284.249 233.286C282.206 233.297 280.547 231.647 280.547 229.6V229.589C280.547 224.135 282.024 218.381 286.261 214.299C287.727 212.874 290.06 212.906 291.483 214.363C292.906 215.831 292.874 218.167 291.419 219.592C289.086 221.864 287.941 225.357 287.941 229.611C287.931 231.647 286.283 233.286 284.249 233.286Z" fill="#FBBA97"/>
<path d="M328.199 213.238L355.101 210.816C359.189 210.452 362.913 213.163 363.833 217.159L357.113 227.864C353.239 234.014 345.128 235.857 338.975 231.989C336.781 230.607 335.048 228.603 333.988 226.235L328.199 213.238Z" fill="#FF86D0"/>
<path d="M320.647 207.699C318.977 203.488 321.032 198.709 325.237 197.037C325.954 196.748 326.714 196.566 327.485 196.491L346.821 194.562C350.149 194.23 353.338 195.955 354.901 198.912L363.493 215.221L349.315 227.275C343.087 232.568 333.755 231.808 328.469 225.572C327.41 224.318 326.564 222.903 325.965 221.371L320.647 207.699Z" fill="#F7F7F7"/>
<path fill-rule="evenodd" clip-rule="evenodd" d="M306.542 143.312C323.096 138.554 340.378 148.133 345.129 164.72C349.881 181.297 340.314 198.601 323.749 203.359C307.195 208.116 289.923 198.548 285.161 181.972C280.399 165.395 289.955 148.091 306.51 143.322C306.531 143.322 306.542 143.312 306.542 143.312Z" fill="#FBBA97"/>
<path d="M312.777 172.778C311.257 176.411 312.97 180.589 316.597 182.111C318.984 183.108 321.712 182.743 323.745 181.147L323.895 180.997C324.291 180.697 324.644 180.354 324.976 179.979L325.928 179.047C326.859 178.146 327.726 177.321 328.529 176.614C328.968 176.325 329.363 175.982 329.717 175.596C329.834 175.489 329.941 175.361 330.027 175.232C332.51 172.178 332.049 167.678 328.989 165.203C327.138 163.692 324.655 163.22 322.386 163.928C317.988 165.192 314.425 168.471 312.777 172.778Z" fill="white"/>
<path fill-rule="evenodd" clip-rule="evenodd" d="M318.438 170.57C320.942 169.842 323.575 171.278 324.302 173.796V173.806L324.934 176.003C325.619 178.542 324.12 181.168 321.584 181.853C319.091 182.528 316.523 181.103 315.774 178.628L315.142 176.442L315.078 176.174C315.174 176.164 315.26 176.142 315.346 176.11C316.865 175.671 317.753 174.074 317.315 172.542C317.197 172.135 316.994 171.76 316.715 171.428C317.229 171.031 317.818 170.731 318.438 170.57Z" fill="#3D3D3D"/>
<path d="M308.925 173.893C312.146 176.154 312.927 180.611 310.659 183.826C309.171 185.947 306.656 187.094 304.078 186.815H303.864C303.361 186.751 302.858 186.644 302.376 186.483L301.071 186.194C299.797 185.926 298.631 185.701 297.571 185.518C297.036 185.486 296.512 185.401 296.009 185.261C295.849 185.229 295.688 185.176 295.538 185.111C291.814 183.847 289.824 179.786 291.087 176.057C291.857 173.807 293.698 172.082 295.988 171.46C300.45 170.207 305.233 171.107 308.925 173.893Z" fill="white"/>
<path fill-rule="evenodd" clip-rule="evenodd" d="M302.557 175.05C304.997 174.354 307.555 175.704 308.357 178.104L308.432 178.318L309.063 180.515C309.791 183.033 308.336 185.669 305.821 186.397C303.392 187.105 300.834 185.765 300.021 183.365L299.946 183.151L299.315 180.965C299.251 180.74 299.208 180.515 299.176 180.279C299.689 180.429 300.235 180.429 300.749 180.279C302.268 179.84 303.157 178.254 302.718 176.722V176.711C302.557 176.186 302.258 175.715 301.851 175.35C302.076 175.232 302.311 175.125 302.557 175.05Z" fill="#3D3D3D"/>
<path d="M292.49 190.909L290.457 185.808L290.628 185.744L290.746 185.69H290.874L291.035 185.626L291.217 185.562H291.302L291.559 185.476H291.613C292.565 185.165 293.539 184.908 294.523 184.694C297.648 183.987 300.869 183.762 304.069 184.019C308.756 184.372 313.239 186.098 316.953 189.001L317.07 189.109L313.667 193.373C310.778 191.08 307.258 189.719 303.587 189.462C300.944 189.248 298.29 189.441 295.7 190.019C294.866 190.201 294.106 190.405 293.421 190.619L293.207 190.694H292.779L292.565 190.78L292.49 190.909Z" fill="#FBBA97"/>
<path d="M339.671 179.369L338.345 171.9H337.381L337.114 171.965H337.05C336.129 172.2 335.134 172.511 334.064 172.897C330.939 174.001 328.007 175.576 325.364 177.569C321.405 180.483 318.409 184.512 316.75 189.141V189.302L323.877 191.798C325.054 188.53 327.173 185.691 329.987 183.655C332.02 182.133 334.278 180.933 336.675 180.087C337.456 179.797 338.184 179.572 338.837 179.401H339.629L339.671 179.369Z" fill="#FBBA97"/>
<path d="M316.352 192.312C316.031 191.958 316.052 191.412 316.405 191.09C316.523 190.983 316.673 190.908 316.833 190.876C319.669 190.351 322.055 188.433 323.19 185.776L323.8 184.35C324.024 183.793 324.645 183.525 325.202 183.74C325.383 183.815 325.544 183.933 325.662 184.093C327.909 187.072 332.403 193.951 329.011 197.519C326.186 200.509 321.692 198.066 318.899 195.044L316.352 192.312Z" fill="#881B1B"/>
<path d="M329.148 189.846C330.346 192.61 330.86 195.557 329.009 197.518C328.142 198.471 326.89 198.964 325.606 198.879C325.114 197.957 324.857 196.928 324.868 195.889C324.868 193.167 326.59 190.746 329.148 189.846Z" fill="#B12E2E"/>
<path fill-rule="evenodd" clip-rule="evenodd" d="M332.659 146.366C332.659 146.366 327.126 150.92 330.733 156.867C333.162 160.874 308.614 170.518 293.386 170.035C289.01 170.035 286.356 159.738 290.251 152.163C294.157 144.566 332.659 146.366 332.659 146.366Z" fill="#A56644"/>
<path fill-rule="evenodd" clip-rule="evenodd" d="M332.663 146.366L325.129 141.759L313.776 140.494L305.697 141.619L298.869 145.327L293.016 149.259L290.801 153.191C290.801 153.191 291.689 156.76 292.128 156.76C292.566 156.76 311.946 154.606 312.267 154.456C312.588 154.306 320.239 152.42 320.753 152.42C321.266 152.42 330.608 146.548 330.608 146.548L332.663 146.366Z" fill="#A56644"/>
<path d="M447.106 265.133L446.068 265.379C443.8 265.915 442.398 268.176 442.922 270.448L446.646 286.359C447.181 288.631 449.439 290.035 451.708 289.51L452.746 289.263C455.014 288.727 456.416 286.467 455.892 284.195L452.168 268.283C451.633 266.012 449.375 264.597 447.106 265.133Z" fill="#4B4B4B"/>
<path d="M333.698 214.384C334.792 214.384 335.678 213.497 335.678 212.402C335.678 211.307 334.792 210.42 333.698 210.42C332.605 210.42 331.719 211.307 331.719 212.402C331.719 213.497 332.605 214.384 333.698 214.384Z" fill="#E5E5E5"/>
<path d="M337.241 219.754C338.335 219.754 339.221 218.866 339.221 217.771C339.221 216.677 338.335 215.789 337.241 215.789C336.148 215.789 335.262 216.677 335.262 217.771C335.262 218.866 336.148 219.754 337.241 219.754Z" fill="#E5E5E5"/>
<path d="M340.882 224.789C341.975 224.789 342.862 223.901 342.862 222.807C342.862 221.712 341.975 220.824 340.882 220.824C339.789 220.824 338.902 221.712 338.902 222.807C338.902 223.901 339.789 224.789 340.882 224.789Z" fill="#E5E5E5"/>
<path d="M334.563 197.059V207.356L331.62 209.177L326.591 209.852L323.167 205.673L321.561 204.248L320.523 202.609L334.563 197.059Z" fill="#FBBA97"/>
<path d="M404.07 234.004C404.07 228.55 408.49 224.136 413.937 224.147C419.383 224.147 423.792 228.572 423.782 234.026C423.782 239.48 419.362 243.894 413.915 243.884C411.304 243.884 408.8 242.844 406.949 240.991C405.098 239.137 404.06 236.619 404.07 234.004Z" fill="#FBBA97"/>
<path d="M334.2 198.258L338.898 208.191L331.621 209.166L334.2 198.258Z" fill="#E5E5E5"/>
<path d="M321.574 204.238L326.261 214.193L331.622 209.178L321.574 204.238Z" fill="#E5E5E5"/>
<path d="M334.221 192.763L333.472 194.156C331.824 197.22 332.969 201.035 336.03 202.685L401.883 238.162C404.944 239.812 408.754 238.666 410.401 235.601L411.151 234.209C412.798 231.144 411.653 227.329 408.593 225.679L342.739 190.202C339.679 188.552 335.869 189.698 334.221 192.763Z" fill="#F7F7F7"/>
<path d="M346.798 166.52C349.31 166.52 351.346 164.481 351.346 161.966C351.346 159.451 349.31 157.412 346.798 157.412C344.286 157.412 342.25 159.451 342.25 161.966C342.25 164.481 344.286 166.52 346.798 166.52Z" fill="#FBBA97"/>
<path d="M61.0025 261.554L74.3038 265.454C78.1882 266.59 82.3081 264.339 83.4424 260.45L92.581 229.183C93.7153 225.294 91.4681 221.169 87.5837 220.033L74.2824 216.132C70.3979 214.997 66.278 217.247 65.1437 221.136L56.0051 252.403C54.8708 256.303 57.118 260.418 61.0025 261.554Z" fill="#FFB100"/>
<path d="M98.7977 264.757L74.5065 256.85L70.1084 270.393C69.4878 272.301 70.5365 274.347 72.4306 274.969L89.8303 280.626C91.7351 281.248 93.779 280.198 94.3996 278.301L98.7977 264.757Z" fill="#777777"/>
<path d="M87.8513 269.493C90.6443 267.061 94.8819 267.361 97.3003 270.157L118.456 294.523C120.885 297.32 120.586 301.563 117.793 303.995C115 306.428 110.762 306.128 108.333 303.331L87.1772 278.965C84.7588 276.158 85.0584 271.925 87.8513 269.493Z" fill="#777777"/>
<path d="M115.847 292.939C119.325 294.204 121.123 298.061 119.849 301.544L109.534 329.917C108.902 331.653 106.976 332.553 105.242 331.921L98.9503 329.628C97.2061 328.996 96.3179 327.067 96.9492 325.331L107.265 296.958C108.528 293.475 112.369 291.675 115.847 292.939Z" fill="#777777"/>
<path d="M79.8467 264.148C83.1426 265.83 84.4589 269.87 82.7788 273.17L55.8873 326.016C55.0419 327.667 53.0301 328.32 51.3822 327.484L45.4111 324.441C43.7631 323.595 43.1103 321.58 43.945 319.93L70.8365 267.084C72.5166 263.773 76.5508 262.465 79.8467 264.148Z" fill="#777777"/>
<path d="M111.914 232.398L112.867 229.269C112.952 229.001 113.006 228.723 113.038 228.434C113.07 228.155 113.07 227.866 113.038 227.587C113.006 227.308 112.952 227.03 112.877 226.751C112.792 226.483 112.685 226.216 112.556 225.969C112.428 225.723 112.267 225.487 112.085 225.262C111.903 225.037 111.711 224.844 111.486 224.662C111.272 224.48 111.037 224.319 110.78 224.19C110.523 224.062 110.266 223.944 109.999 223.869L87.8691 217.129C87.6016 217.043 87.3233 216.99 87.0344 216.958C86.7562 216.926 86.4673 216.926 86.189 216.958C85.9108 216.99 85.6326 217.043 85.3544 217.118C85.0868 217.204 84.8193 217.311 84.5732 217.44C84.3271 217.568 84.0916 217.729 83.8669 217.911C83.6422 218.093 83.4496 218.286 83.2677 218.511C83.0858 218.726 82.9252 218.961 82.7968 219.219C82.6577 219.465 82.5507 219.733 82.4758 220.001L81.5234 223.13C81.4378 223.397 81.3843 223.676 81.3522 223.965C81.3201 224.255 81.3201 224.533 81.3522 224.812C81.3843 225.09 81.4378 225.369 81.5127 225.648C81.5983 225.915 81.7053 226.183 81.8338 226.43C81.9622 226.676 82.1227 226.912 82.3046 227.137C82.4865 227.362 82.6791 227.555 82.9038 227.737C83.1286 227.919 83.3533 228.08 83.6101 228.209C83.8562 228.348 84.1238 228.455 84.3913 228.53L106.521 235.27C106.788 235.355 107.067 235.409 107.356 235.441C107.644 235.473 107.923 235.473 108.201 235.441C108.479 235.409 108.757 235.355 109.036 235.28C109.303 235.195 109.571 235.088 109.817 234.959C110.063 234.83 110.298 234.67 110.523 234.488C110.748 234.305 110.94 234.113 111.122 233.887C111.304 233.673 111.465 233.437 111.593 233.18C111.722 232.923 111.829 232.666 111.914 232.398Z" fill="#EA2B2B"/>
<path d="M103.9 230.32L89.9674 226.077C82.7977 223.891 75.2108 227.941 73.0278 235.12L68.4264 250.261C67.185 254.333 69.4858 258.64 73.5521 259.883L98.7208 267.555C102.787 268.798 107.089 266.494 108.33 262.422L112.932 247.282C115.115 240.103 111.07 232.506 103.9 230.32Z" fill="#F0F0F0"/>
<path d="M104.148 230.062C102.843 229.666 101.462 230.405 101.056 231.712L91.6069 262.786C91.2109 264.093 91.9493 265.475 93.2548 265.883L103.849 269.108C105.154 269.504 106.535 268.765 106.941 267.458L113.159 246.992C115.342 239.824 111.307 232.248 104.148 230.062Z" fill="#FF4B4B"/>
<path d="M68.5333 258.34L79.0416 261.544C80.3364 261.94 81.7061 261.212 82.1021 259.905L91.4654 229.099C91.8614 227.802 91.1337 226.431 89.8282 226.034C82.7334 223.87 75.2214 227.877 73.0598 234.981L66.896 255.276C66.5108 256.572 67.2384 257.944 68.5333 258.34Z" fill="#FF4B4B"/>
<path d="M99.0416 220.526C97.1369 219.947 95.1144 221.019 94.5365 222.937L93.0277 227.887C92.4498 229.794 93.5199 231.82 95.4354 232.398C97.3402 232.977 99.3627 231.905 99.9405 229.987L101.449 225.037C102.027 223.13 100.957 221.105 99.0416 220.526Z" fill="#EBA792"/>
<path d="M110.354 226.098L100.83 228.541C99.6847 228.842 98.9998 230.009 99.2887 231.156C99.3957 231.574 99.6312 231.96 99.9629 232.238L101.825 233.845L106.587 235.303C108.834 235.988 111.21 234.724 111.894 232.463L112.986 228.863C113.339 227.706 112.686 226.473 111.531 226.131C111.156 226.002 110.739 225.991 110.354 226.098Z" fill="#FF4B4B"/>
<path d="M86.3317 218.77L92.8807 226.11C93.6619 226.999 93.587 228.349 92.7095 229.132C92.3885 229.421 91.9818 229.603 91.5431 229.657L89.1033 229.957L84.3413 228.499C82.0941 227.814 80.8314 225.435 81.5056 223.185L82.5971 219.585C82.9502 218.427 84.1701 217.774 85.3365 218.127C85.7111 218.256 86.0642 218.47 86.3317 218.77Z" fill="#FF4B4B"/>
<path d="M105.486 230.802C104.79 230.588 104.041 230.985 103.838 231.681L100.949 241.196C100.735 241.892 101.131 242.642 101.826 242.846C102.522 243.05 103.26 242.664 103.474 241.967L106.363 232.452C106.577 231.756 106.182 231.017 105.486 230.802Z" fill="white"/>
<path d="M138.754 198.389L139.407 193.492C139.471 192.999 139.514 192.506 139.535 192.013C139.556 191.52 139.546 191.027 139.514 190.524C139.481 190.02 139.428 189.538 139.342 189.045C139.267 188.552 139.16 188.07 139.032 187.588C138.904 187.106 138.754 186.634 138.583 186.174C138.411 185.713 138.208 185.252 137.994 184.813C137.78 184.363 137.534 183.934 137.277 183.516C137.02 183.098 136.731 182.691 136.432 182.295C136.132 181.898 135.811 181.523 135.469 181.159C135.126 180.795 134.773 180.452 134.409 180.12C134.035 179.787 133.649 179.487 133.253 179.198C132.847 178.909 132.44 178.641 132.012 178.394C131.584 178.148 131.145 177.923 130.696 177.709C130.247 177.505 129.786 177.323 129.316 177.162C128.845 177.001 128.374 176.862 127.892 176.755C127.411 176.637 126.929 176.551 126.437 176.487L111.263 174.462C110.771 174.398 110.279 174.355 109.786 174.333C109.294 174.312 108.802 174.323 108.299 174.355C107.796 174.387 107.314 174.441 106.822 174.526C106.33 174.612 105.848 174.708 105.367 174.837C104.885 174.966 104.414 175.116 103.954 175.287C103.494 175.458 103.034 175.662 102.595 175.876C102.146 176.091 101.718 176.337 101.3 176.594C100.883 176.851 100.476 177.141 100.081 177.441C99.6846 177.741 99.31 178.062 98.9462 178.405C98.5824 178.748 98.2399 179.102 97.9082 179.466C97.5765 179.841 97.2769 180.227 96.9879 180.623C96.699 181.02 96.4315 181.437 96.1854 181.866C95.9392 182.295 95.7145 182.734 95.5005 183.184C95.2865 183.634 95.1153 184.095 94.9547 184.566C94.7942 185.038 94.6551 185.509 94.5481 185.991C94.4304 186.474 94.3448 186.956 94.2806 187.449L93.6278 192.345C93.5636 192.838 93.5208 193.331 93.4994 193.824C93.478 194.317 93.4887 194.81 93.5208 195.313C93.5529 195.806 93.6064 196.299 93.692 196.792C93.7669 197.285 93.8739 197.767 94.0024 198.249C94.1308 198.732 94.2806 199.203 94.4518 199.664C94.623 200.125 94.8263 200.585 95.0404 201.025C95.2544 201.475 95.5005 201.903 95.7573 202.321C96.0141 202.739 96.3031 203.146 96.6027 203.543C96.9023 203.939 97.2234 204.314 97.5658 204.678C97.9082 205.043 98.2613 205.386 98.6252 205.718C98.9997 206.05 99.3849 206.35 99.7809 206.639C100.188 206.929 100.594 207.196 101.022 207.443C101.45 207.689 101.889 207.914 102.338 208.129C102.788 208.332 103.248 208.514 103.719 208.675C104.19 208.836 104.661 208.975 105.142 209.082C105.624 209.2 106.105 209.286 106.597 209.35L121.771 211.375C122.264 211.44 122.756 211.483 123.248 211.504C123.74 211.525 124.233 211.515 124.736 211.483C125.238 211.45 125.72 211.397 126.212 211.311C126.704 211.236 127.186 211.129 127.668 211C128.149 210.872 128.62 210.722 129.08 210.55C129.54 210.379 130 210.175 130.439 209.961C130.889 209.747 131.317 209.5 131.734 209.243C132.151 208.986 132.558 208.697 132.954 208.397C133.35 208.097 133.724 207.775 134.088 207.432C134.452 207.089 134.794 206.736 135.126 206.371C135.458 205.996 135.758 205.611 136.046 205.214C136.335 204.807 136.603 204.4 136.849 203.971C137.095 203.543 137.32 203.103 137.534 202.653C137.737 202.203 137.919 201.743 138.08 201.271C138.24 200.8 138.379 200.328 138.486 199.846C138.593 199.364 138.69 198.882 138.754 198.389Z" fill="#3D3D3D"/>
<path d="M110.643 196.9L111.339 192.014C111.414 191.522 111.457 191.029 111.478 190.536C111.499 190.043 111.499 189.55 111.467 189.046C111.435 188.553 111.392 188.061 111.317 187.568C111.243 187.075 111.146 186.593 111.018 186.11C110.889 185.628 110.75 185.157 110.579 184.696C110.408 184.235 110.215 183.775 110.001 183.325C109.787 182.874 109.552 182.446 109.295 182.017C109.038 181.589 108.76 181.182 108.46 180.785C108.161 180.389 107.85 180.003 107.508 179.639C107.176 179.274 106.823 178.921 106.449 178.599C106.085 178.267 105.699 177.956 105.293 177.667C104.886 177.378 104.48 177.099 104.052 176.853C103.623 176.595 103.185 176.37 102.735 176.156C102.286 175.942 101.826 175.76 101.366 175.599C100.895 175.438 100.424 175.299 99.9424 175.181C99.4608 175.063 98.9793 174.967 98.487 174.902L82.8101 172.674C82.3179 172.599 81.8256 172.556 81.3334 172.534C80.8411 172.513 80.3489 172.513 79.846 172.545C79.3537 172.577 78.8615 172.62 78.3692 172.695C77.877 172.77 77.3954 172.867 76.9139 172.995C76.4323 173.124 75.9615 173.263 75.5014 173.435C75.0412 173.606 74.5811 173.799 74.1316 174.013C73.6822 174.227 73.2542 174.463 72.8261 174.72C72.3981 174.977 71.9915 175.256 71.5955 175.556C71.1996 175.856 70.8143 176.167 70.4505 176.51C70.0867 176.842 69.7335 177.196 69.4125 177.571C69.0808 177.935 68.7705 178.321 68.4815 178.728C68.1926 179.124 67.9144 179.542 67.6683 179.971C67.4114 180.399 67.1867 180.839 66.9727 181.289C66.7587 181.739 66.5768 182.199 66.4162 182.66C66.2557 183.132 66.1166 183.603 65.9989 184.085C65.8812 184.567 65.7849 185.05 65.7207 185.543L65.0251 190.429C64.9502 190.921 64.9074 191.414 64.886 191.907C64.8646 192.4 64.8646 192.893 64.8967 193.397C64.9288 193.89 64.9716 194.382 65.0465 194.875C65.1214 195.368 65.2177 195.85 65.3462 196.333C65.4746 196.815 65.6137 197.286 65.7849 197.747C65.9561 198.208 66.1487 198.668 66.3627 199.119C66.5768 199.569 66.8122 199.997 67.069 200.426C67.3258 200.854 67.6041 201.262 67.9037 201.658C68.2033 202.054 68.5136 202.44 68.8561 202.804C69.1878 203.169 69.5409 203.522 69.9155 203.844C70.2793 204.176 70.6645 204.487 71.0712 204.776C71.4671 205.065 71.8844 205.344 72.3125 205.59C72.7405 205.848 73.1793 206.073 73.6287 206.287C74.0781 206.501 74.5383 206.683 74.9984 206.844C75.4693 207.005 75.9401 207.144 76.4216 207.262C76.9032 207.38 77.3847 207.476 77.877 207.541L93.5539 209.769C94.0461 209.844 94.5384 209.887 95.0306 209.909C95.5229 209.93 96.0151 209.93 96.518 209.898C97.021 209.866 97.5025 209.823 97.9948 209.748C98.487 209.673 98.9686 209.576 99.4501 209.448C99.9317 209.319 100.403 209.18 100.863 209.009C101.323 208.837 101.783 208.644 102.232 208.43C102.682 208.216 103.11 207.98 103.538 207.723C103.966 207.466 104.373 207.187 104.768 206.887C105.164 206.587 105.55 206.276 105.913 205.933C106.277 205.601 106.63 205.248 106.951 204.872C107.283 204.508 107.594 204.122 107.882 203.715C108.171 203.319 108.45 202.901 108.696 202.472C108.953 202.044 109.177 201.604 109.391 201.154C109.605 200.704 109.787 200.244 109.948 199.783C110.108 199.311 110.247 198.84 110.365 198.358C110.472 197.876 110.568 197.393 110.643 196.9Z" fill="#4C4C4C"/>
<path d="M138.039 180.527C138.124 179.959 138.178 179.38 138.199 178.802C138.221 178.223 138.221 177.644 138.189 177.077C138.157 176.509 138.092 175.93 138.007 175.362C137.921 174.794 137.803 174.226 137.664 173.669C137.525 173.112 137.354 172.566 137.151 172.019C136.958 171.473 136.733 170.948 136.477 170.423C136.22 169.897 135.952 169.394 135.653 168.901C135.353 168.408 135.032 167.937 134.689 167.465C134.347 167.004 133.973 166.565 133.587 166.136C133.202 165.708 132.785 165.311 132.357 164.926C131.929 164.54 131.479 164.176 131.019 163.833C130.559 163.49 130.077 163.179 129.574 162.879C129.082 162.59 128.569 162.322 128.044 162.075C127.52 161.829 126.985 161.615 126.45 161.422C125.904 161.229 125.358 161.068 124.791 160.929C124.235 160.79 123.667 160.683 123.1 160.608L85.7326 155.293C85.1654 155.207 84.5876 155.154 84.0097 155.132C83.4319 155.111 82.854 155.111 82.2869 155.143C81.709 155.175 81.1419 155.239 80.5747 155.325C80.0076 155.411 79.4404 155.529 78.884 155.668C78.3275 155.807 77.7818 155.979 77.236 156.182C76.6903 156.375 76.1659 156.6 75.6416 156.857C75.1172 157.104 74.6143 157.382 74.122 157.682C73.6298 157.982 73.1589 158.304 72.6881 158.647C72.228 158.99 71.7892 159.365 71.3612 159.75C70.9332 160.136 70.5372 160.554 70.152 160.983C69.7667 161.411 69.4029 161.861 69.0605 162.322C68.7181 162.783 68.4077 163.265 68.1081 163.768C67.8192 164.261 67.5516 164.776 67.3055 165.301C67.0594 165.826 66.8454 166.361 66.6528 166.897C66.4601 167.444 66.2996 167.99 66.1605 168.558C66.0214 169.115 65.9144 169.683 65.8395 170.251C65.7539 170.819 65.7004 171.398 65.679 171.976C65.6576 172.555 65.6576 173.133 65.6897 173.701C65.7218 174.28 65.786 174.848 65.8716 175.416C65.9572 175.984 66.0749 176.552 66.214 177.109C66.3531 177.666 66.5244 178.212 66.7277 178.759C66.9203 179.305 67.145 179.83 67.4018 180.355C67.648 180.88 67.9262 181.384 68.2258 181.877C68.5254 182.37 68.8465 182.841 69.1889 183.313C69.5313 183.773 69.9059 184.213 70.2911 184.641C70.6763 185.07 71.0937 185.466 71.5217 185.852C71.9497 186.238 72.3992 186.602 72.8593 186.945C73.3195 187.288 73.801 187.599 74.304 187.899C74.7962 188.188 75.3098 188.456 75.8342 188.702C76.3585 188.949 76.8936 189.163 77.4286 189.356C77.9744 189.549 78.5201 189.71 79.0873 189.849C79.6437 189.988 80.2109 190.095 80.778 190.17L118.146 195.485C118.713 195.571 119.291 195.624 119.869 195.646C120.446 195.667 121.024 195.667 121.591 195.635C122.159 195.603 122.736 195.539 123.304 195.453C123.871 195.367 124.438 195.249 124.994 195.11C125.551 194.971 126.097 194.799 126.642 194.596C127.188 194.403 127.712 194.178 128.237 193.921C128.761 193.674 129.264 193.396 129.756 193.096C130.249 192.796 130.719 192.474 131.19 192.131C131.65 191.788 132.089 191.413 132.517 191.028C132.945 190.642 133.341 190.224 133.726 189.795C134.112 189.367 134.475 188.917 134.818 188.456C135.16 187.995 135.471 187.513 135.77 187.009C136.07 186.506 136.327 186.002 136.573 185.477C136.819 184.952 137.033 184.416 137.226 183.881C137.418 183.334 137.579 182.788 137.718 182.22C137.846 181.663 137.953 181.095 138.039 180.527Z" fill="#3D3D3D"/>
<path d="M43.8489 315.954L58.0276 324.826C58.873 325.362 59.1405 326.476 58.6055 327.333L55.0528 333.034C54.5177 333.88 53.4048 334.148 52.5487 333.612L38.37 324.74C37.5246 324.204 37.2571 323.09 37.7921 322.233L41.3448 316.532C41.8799 315.686 42.9928 315.429 43.8489 315.954Z" fill="#606060"/>
<path d="M97.6313 321.687L113.982 325.169C114.967 325.373 115.588 326.337 115.384 327.323L113.993 333.902C113.79 334.888 112.827 335.509 111.842 335.306L95.4911 331.823C94.5067 331.62 93.886 330.656 94.0893 329.67L95.4804 323.091C95.6945 322.105 96.6575 321.483 97.6313 321.687Z" fill="#606060"/>
<path d="M121.214 167.552L91.6583 163.395C84.0499 162.323 76.9766 167.831 75.8744 175.685L71.38 207.745C70.2778 215.599 75.5533 222.842 83.1617 223.914L112.718 228.071C120.326 229.143 127.399 223.635 128.502 215.781L132.996 183.721C134.109 175.857 128.833 168.624 121.214 167.552Z" fill="#EBA792"/>
<path d="M118.316 185.209C116.315 184.931 114.464 186.324 114.185 188.327L113.543 192.881C113.265 194.885 114.656 196.739 116.657 197.017C118.658 197.296 120.51 195.903 120.788 193.899L121.43 189.292C121.312 189.292 121.205 189.281 121.087 189.26C119.482 189.035 118.359 187.545 118.583 185.938C118.615 185.713 118.669 185.499 118.755 185.284C118.615 185.263 118.466 185.231 118.316 185.209Z" fill="#3D3D3D"/>
<path d="M99.6557 182.733C97.6546 182.454 95.8034 183.847 95.5251 185.851L94.8831 190.405C94.6048 192.408 95.996 194.262 97.9971 194.541C99.9981 194.819 101.849 193.426 102.128 191.423L102.77 186.815C102.652 186.815 102.545 186.804 102.427 186.783C100.822 186.558 99.6985 185.069 99.9232 183.461C99.9553 183.236 100.009 183.022 100.094 182.808C99.9553 182.776 99.8162 182.754 99.6557 182.733Z" fill="#3D3D3D"/>
<path d="M91.5857 203.146C93.9078 202.321 96.4439 203.489 97.3642 205.739L97.4391 205.942C98.338 208.493 99.6649 209.575 102.019 209.768L102.276 209.789C104.801 209.918 106.749 212.071 106.621 214.611C106.492 217.14 104.341 219.09 101.805 218.961C95.5129 218.64 90.9436 215.114 88.782 209.007C87.9474 206.607 89.1994 203.992 91.5857 203.146Z" fill="white"/>
<path d="M107.448 200.223L103.852 199.719C102.151 199.484 100.578 200.662 100.342 202.377C100.107 204.08 101.295 205.656 102.996 205.891L106.592 206.395C108.293 206.631 109.866 205.441 110.102 203.738C110.337 202.045 109.149 200.47 107.448 200.223Z" fill="#DF8E70"/>
<path d="M104.363 196.408L101.195 203.255L109.093 202.28L104.363 196.408Z" fill="#DF8E70"/>
<path d="M47.3373 341.103C48.2576 338.928 47.241 336.431 45.0794 335.51L31.3394 329.67C29.1778 328.748 26.6738 329.766 25.7535 331.931C24.8332 334.106 25.8498 336.603 28.0114 337.524L41.7514 343.364C43.913 344.285 46.417 343.267 47.3373 341.103Z" fill="#3D3D3D"/>
<path d="M95.0977 343.737C95.0977 341.38 97.0024 339.473 99.3566 339.473H114.284C116.639 339.473 118.543 341.38 118.543 343.737C118.543 346.095 116.639 348.002 114.284 348.002H99.3566C97.0024 348.002 95.0977 346.095 95.0977 343.737Z" fill="#3D3D3D"/>
<path d="M90.5235 228.038L55.6384 167.69C53.6266 164.187 49.1536 162.987 45.6544 165.012C42.1552 167.037 40.9566 171.505 42.9791 175.009L77.8643 235.356C78.4635 236.395 79.7904 236.749 80.8177 236.149L89.7209 231.006C90.7696 230.406 91.1227 229.077 90.5235 228.038Z" fill="#FF4B4B"/>
<path d="M54.6036 170.734C50.9974 174.099 45.3473 173.906 41.9765 170.295C38.6164 166.684 38.809 161.027 42.4152 157.651C42.8433 157.255 43.3569 156.858 43.9134 156.483L44.2986 156.237C44.4912 156.119 44.6945 156.001 44.8979 155.894L45.3045 155.68C45.5827 155.54 45.8609 155.401 46.1499 155.283L46.5779 155.101C49.1461 154.083 51.7679 153.965 52.3136 156.098L52.731 157.758L52.8487 158.187C52.8701 158.262 52.8915 158.326 52.9022 158.391L53.0306 158.798L53.1697 159.216L53.3409 159.666C53.8225 160.898 54.732 160.812 56.0483 159.398C58.3276 162.966 57.8032 167.756 54.6036 170.734Z" fill="#E18E70"/>
<path d="M61.9218 157.072C63.2487 158.143 63.452 160.093 62.3819 161.422L55.9399 169.383C54.8698 170.712 52.9223 170.916 51.5953 169.844C50.2684 168.773 50.0651 166.822 51.1352 165.494L57.5772 157.532C58.6473 156.193 60.5948 155.989 61.9218 157.072Z" fill="#E18E70"/>
<path d="M47.0028 147.386C48.6614 146.968 50.3308 147.975 50.7481 149.636L53.3806 160.211C53.7979 161.872 52.7813 163.544 51.1334 163.962C49.4747 164.38 47.8054 163.362 47.3987 161.712L44.7663 151.136C44.3489 149.475 45.3548 147.803 47.0028 147.386Z" fill="#E18E70"/>
<path d="M38.7561 150.106C40.2221 149.227 42.1162 149.699 42.9937 151.167L48.601 160.51C49.4784 161.978 49.0076 163.875 47.5416 164.753C46.0755 165.632 44.1815 165.161 43.304 163.693L37.6967 154.349C36.8192 152.881 37.3007 150.985 38.7561 150.106Z" fill="#E18E70"/>
<path d="M33.6914 156.352C34.9541 155.206 36.9124 155.313 38.0467 156.578L45.3234 164.678C46.4684 165.942 46.3613 167.903 45.0986 169.039C43.8359 170.186 41.8776 170.078 40.7433 168.814L33.4667 160.714C32.3217 159.449 32.4287 157.499 33.6914 156.352Z" fill="#E18E70"/>
<path d="M140.777 172.543C140.863 171.975 140.916 171.396 140.938 170.818C140.959 170.239 140.959 169.66 140.927 169.092C140.895 168.525 140.831 167.946 140.745 167.378C140.659 166.81 140.542 166.242 140.403 165.685C140.264 165.128 140.092 164.581 139.889 164.035C139.696 163.488 139.472 162.963 139.215 162.438C138.969 161.913 138.69 161.41 138.391 160.917C138.091 160.424 137.77 159.953 137.428 159.481C137.085 159.02 136.711 158.581 136.326 158.152C135.94 157.724 135.523 157.327 135.095 156.942C134.667 156.556 134.217 156.192 133.757 155.849C133.297 155.506 132.816 155.195 132.313 154.895C131.82 154.606 131.307 154.338 130.782 154.091C130.258 153.845 129.723 153.631 129.188 153.438C128.642 153.245 128.097 153.084 127.529 152.945C126.973 152.806 126.406 152.698 125.839 152.623L116.358 151.273C115.79 151.188 115.213 151.134 114.635 151.113C114.057 151.091 113.479 151.091 112.912 151.123C112.334 151.155 111.767 151.22 111.2 151.305C110.633 151.391 110.065 151.509 109.509 151.648C108.953 151.788 108.407 151.959 107.861 152.163C107.315 152.356 106.791 152.581 106.267 152.838C105.742 153.084 105.239 153.363 104.747 153.663C104.255 153.963 103.784 154.284 103.313 154.627C102.853 154.97 102.414 155.345 101.986 155.731C101.558 156.117 101.162 156.534 100.777 156.963C100.392 157.392 100.028 157.842 99.6855 158.302C99.3431 158.763 99.0327 159.245 98.7331 159.749C98.4442 160.242 98.1766 160.756 97.9305 161.281C97.6844 161.806 97.4704 162.342 97.2778 162.878C97.0852 163.424 96.9246 163.971 96.7855 164.539C96.6464 165.096 96.5394 165.664 96.4645 166.232C96.3789 166.799 96.3254 167.378 96.304 167.957C96.2826 168.535 96.2826 169.114 96.3147 169.682C96.3468 170.26 96.411 170.828 96.4966 171.396C96.5822 171.964 96.6999 172.532 96.839 173.089C96.9781 173.646 97.1494 174.193 97.3527 174.739C97.5453 175.286 97.77 175.811 98.0268 176.336C98.273 176.861 98.5512 177.364 98.8508 177.857C99.1504 178.35 99.4715 178.822 99.8139 179.293C100.156 179.754 100.531 180.193 100.916 180.622C101.301 181.05 101.719 181.447 102.147 181.833C102.575 182.218 103.024 182.583 103.484 182.926C103.944 183.268 104.426 183.579 104.929 183.879C105.421 184.169 105.935 184.436 106.459 184.683C106.984 184.929 107.519 185.144 108.054 185.336C108.589 185.529 109.145 185.69 109.712 185.829C110.269 185.969 110.836 186.076 111.403 186.151L120.884 187.501C121.451 187.587 122.029 187.64 122.607 187.662C123.185 187.683 123.763 187.683 124.33 187.651C124.908 187.619 125.475 187.555 126.042 187.469C126.609 187.383 127.176 187.265 127.733 187.126C128.289 186.987 128.835 186.815 129.381 186.612C129.926 186.419 130.451 186.194 130.975 185.937C131.499 185.69 132.002 185.411 132.495 185.111C132.987 184.811 133.458 184.49 133.929 184.147C134.389 183.804 134.827 183.429 135.255 183.043C135.684 182.658 136.079 182.24 136.465 181.811C136.85 181.383 137.214 180.933 137.556 180.472C137.899 180.011 138.209 179.529 138.509 179.025C138.797 178.532 139.065 178.018 139.311 177.493C139.557 176.968 139.771 176.432 139.964 175.897C140.157 175.35 140.317 174.804 140.456 174.236C140.595 173.668 140.692 173.111 140.777 172.543Z" fill="#3D3D3D"/>
<path d="M132.181 200.295L134.599 182.669C134.631 182.412 134.642 182.165 134.631 181.908C134.62 181.651 134.578 181.404 134.513 181.158C134.449 180.912 134.363 180.676 134.246 180.44C134.128 180.204 134 179.99 133.85 179.786C133.7 179.583 133.518 179.401 133.336 179.229C133.144 179.058 132.94 178.908 132.716 178.779C132.491 178.651 132.266 178.544 132.02 178.458C131.774 178.372 131.528 178.319 131.282 178.276L115.123 176.058C114.866 176.026 114.62 176.015 114.363 176.026C114.107 176.036 113.86 176.079 113.614 176.143C113.368 176.208 113.133 176.293 112.897 176.411C112.673 176.518 112.448 176.658 112.245 176.808C112.041 176.958 111.859 177.14 111.688 177.322C111.517 177.515 111.367 177.718 111.239 177.944C111.11 178.169 111.003 178.394 110.918 178.64C110.832 178.886 110.779 179.133 110.736 179.379L108.317 197.006C108.285 197.263 108.275 197.509 108.285 197.766C108.296 198.024 108.339 198.27 108.403 198.516C108.467 198.763 108.553 198.999 108.67 199.234C108.778 199.459 108.917 199.684 109.066 199.888C109.216 200.092 109.398 200.274 109.58 200.445C109.773 200.617 109.976 200.767 110.201 200.895C110.425 201.024 110.65 201.131 110.896 201.217C111.142 201.302 111.389 201.356 111.635 201.399L127.793 203.617C128.05 203.649 128.296 203.66 128.553 203.649C128.81 203.638 129.056 203.595 129.302 203.531C129.548 203.467 129.783 203.381 130.019 203.263C130.254 203.145 130.468 203.017 130.672 202.867C130.875 202.717 131.057 202.535 131.228 202.352C131.399 202.16 131.549 201.956 131.678 201.731C131.806 201.506 131.913 201.281 131.999 201.034C132.084 200.799 132.148 200.552 132.181 200.295Z" fill="white"/>
<path d="M102.204 196.182L104.622 178.556C104.654 178.298 104.665 178.052 104.654 177.795C104.644 177.538 104.601 177.291 104.537 177.045C104.473 176.798 104.387 176.563 104.269 176.327C104.162 176.102 104.023 175.877 103.873 175.673C103.723 175.47 103.542 175.287 103.36 175.116C103.167 174.945 102.964 174.795 102.739 174.666C102.514 174.537 102.29 174.43 102.043 174.345C101.797 174.259 101.551 174.205 101.305 174.162L85.1466 171.944C84.8898 171.912 84.6437 171.902 84.3868 171.912C84.13 171.923 83.8839 171.966 83.6378 172.03C83.3917 172.094 83.1562 172.18 82.9208 172.298C82.6854 172.416 82.4714 172.544 82.2681 172.694C82.0647 172.844 81.8828 173.027 81.7116 173.209C81.5404 173.402 81.3906 173.605 81.2622 173.83C81.1338 174.055 81.0267 174.28 80.9411 174.527C80.8555 174.773 80.802 175.02 80.7592 175.266L78.3408 192.892C78.3087 193.149 78.298 193.396 78.3087 193.653C78.3194 193.91 78.3622 194.157 78.4264 194.403C78.4906 194.65 78.5762 194.885 78.6939 195.121C78.8009 195.346 78.9401 195.571 79.0899 195.775C79.2397 195.978 79.4216 196.16 79.6035 196.332C79.7854 196.503 79.9995 196.653 80.2242 196.782C80.4489 196.91 80.6736 197.018 80.9197 197.103C81.1659 197.189 81.412 197.243 81.6581 197.285L97.8166 199.503C98.0734 199.536 98.3195 199.546 98.5763 199.536C98.8331 199.525 99.0793 199.482 99.3254 199.418C99.5715 199.353 99.8069 199.268 100.042 199.15C100.267 199.043 100.492 198.903 100.695 198.753C100.898 198.603 101.08 198.421 101.252 198.239C101.423 198.046 101.573 197.843 101.701 197.618C101.829 197.393 101.936 197.168 102.022 196.921C102.108 196.685 102.172 196.439 102.204 196.182Z" fill="white"/>
<path d="M126.246 194.423L126.802 190.384C126.834 190.18 126.834 189.987 126.824 189.784C126.813 189.58 126.781 189.387 126.727 189.195C126.674 189.002 126.61 188.809 126.524 188.627C126.438 188.444 126.331 188.273 126.214 188.112C126.096 187.952 125.957 187.802 125.807 187.673C125.657 187.544 125.497 187.427 125.326 187.319C125.154 187.223 124.972 187.137 124.78 187.073C124.587 187.009 124.395 186.966 124.191 186.934L122.971 186.762C122.768 186.73 122.575 186.73 122.372 186.741C122.169 186.751 121.976 186.784 121.784 186.837C121.591 186.891 121.398 186.955 121.216 187.041C121.034 187.127 120.863 187.234 120.703 187.352C120.542 187.469 120.392 187.609 120.264 187.759C120.136 187.909 120.018 188.069 119.911 188.241C119.815 188.412 119.729 188.594 119.665 188.787C119.601 188.98 119.558 189.173 119.526 189.377L118.969 193.416C118.937 193.62 118.937 193.813 118.948 194.016C118.959 194.22 118.991 194.413 119.044 194.606C119.098 194.798 119.162 194.991 119.247 195.174C119.333 195.356 119.44 195.527 119.558 195.688C119.675 195.849 119.815 195.999 119.964 196.127C120.114 196.256 120.275 196.374 120.446 196.481C120.617 196.577 120.799 196.663 120.992 196.727C121.184 196.792 121.377 196.834 121.58 196.867L122.8 197.038C123.003 197.07 123.196 197.07 123.399 197.059C123.603 197.049 123.795 197.017 123.988 196.963C124.181 196.909 124.373 196.845 124.555 196.759C124.737 196.674 124.908 196.566 125.069 196.449C125.229 196.331 125.379 196.191 125.507 196.041C125.636 195.891 125.754 195.731 125.861 195.559C125.968 195.388 126.043 195.206 126.107 195.013C126.171 194.82 126.214 194.616 126.246 194.423Z" fill="#303030"/>
<path d="M100.726 191.361L101.283 187.321C101.315 187.118 101.315 186.925 101.304 186.721C101.293 186.518 101.261 186.325 101.208 186.132C101.154 185.939 101.09 185.746 101.005 185.564C100.919 185.382 100.812 185.211 100.694 185.05C100.577 184.889 100.437 184.739 100.288 184.61C100.138 184.482 99.9773 184.364 99.806 184.257C99.6348 184.16 99.4529 184.075 99.2603 184.01C99.0677 183.946 98.8751 183.903 98.6717 183.871L97.4518 183.7C97.2485 183.668 97.0559 183.668 96.8526 183.678C96.6493 183.689 96.4566 183.721 96.264 183.775C96.0714 183.828 95.8788 183.893 95.6969 183.978C95.515 184.064 95.3437 184.171 95.1832 184.289C95.0227 184.407 94.8729 184.546 94.7445 184.696C94.6161 184.846 94.4984 185.007 94.3914 185.178C94.2951 185.35 94.2094 185.532 94.1452 185.725C94.081 185.918 94.0382 186.111 94.0061 186.314L93.4497 190.354C93.4176 190.557 93.4176 190.75 93.4283 190.954C93.439 191.157 93.4711 191.35 93.5246 191.543C93.5781 191.736 93.6423 191.929 93.7279 192.111C93.8135 192.293 93.9205 192.465 94.0382 192.625C94.1559 192.786 94.2951 192.936 94.4449 193.065C94.5947 193.193 94.7552 193.311 94.9264 193.418C95.0976 193.515 95.2795 193.6 95.4722 193.665C95.6648 193.729 95.8574 193.772 96.0607 193.804L97.2806 193.975C97.4839 194.008 97.6766 194.008 97.8799 193.997C98.0832 193.986 98.2758 193.954 98.4684 193.9C98.661 193.847 98.8537 193.783 99.0356 193.697C99.2175 193.611 99.3887 193.504 99.5492 193.386C99.7097 193.268 99.8596 193.129 99.988 192.979C100.116 192.829 100.234 192.668 100.341 192.497C100.437 192.325 100.523 192.143 100.587 191.95C100.651 191.757 100.705 191.565 100.726 191.361Z" fill="#303030"/>
<path d="M88.3883 225.595C87.6927 225.381 86.9544 225.777 86.7403 226.474L83.8511 235.989C83.6371 236.685 84.033 237.435 84.7286 237.639C85.4241 237.853 86.1732 237.457 86.3765 236.76L89.2658 227.245C89.4798 226.549 89.0839 225.81 88.3883 225.595Z" fill="white"/>
<path d="M73.7799 247.228C75.2138 247.228 76.6264 246.864 77.9212 246.157C79.9437 245.042 81.4204 243.221 82.0625 241.014L87.4236 222.68L84.3953 217.43L77.8463 239.771C77.536 240.853 76.8083 241.742 75.8131 242.289C74.8179 242.835 73.6729 242.953 72.6028 242.642L61.4845 239.385L60.2539 243.617L71.3722 246.875C72.1534 247.11 72.9666 247.228 73.7799 247.228Z" fill="#FFB100"/>
<path d="M171.941 308.806H145.028C142.096 308.806 139.699 306.406 139.699 303.47V275.793C139.699 272.857 142.096 270.457 145.028 270.457H171.941C174.873 270.457 177.27 272.857 177.27 275.793V303.47C177.27 306.406 174.873 308.806 171.941 308.806Z" fill="#CE82FF"/>
<path fill-rule="evenodd" clip-rule="evenodd" d="M153.953 285.877H192.22V304.682H153.953V285.877Z" fill="#EDE1CF"/>
<path fill-rule="evenodd" clip-rule="evenodd" d="M162.179 301.854H154.678C152.773 301.854 151.211 300.289 151.211 298.382V283.37C151.211 281.463 152.773 279.898 154.678 279.898H162.179C164.084 279.898 165.647 281.463 165.647 283.37V298.382C165.636 300.289 164.084 301.854 162.179 301.854Z" fill="#EDE1CF"/>
<path d="M188.054 337.856H158.102C154.506 337.856 151.574 334.909 151.574 331.319V320.54C151.574 316.94 154.517 314.004 158.102 314.004H188.054C191.649 314.004 194.581 316.951 194.581 320.54V331.319C194.581 334.909 191.649 337.856 188.054 337.856Z" fill="#5E7A01"/>
<path fill-rule="evenodd" clip-rule="evenodd" d="M190.869 291.255C191.029 294.598 193.918 297.234 197.268 297.073L205.583 296.623C208.921 296.463 211.554 293.559 211.393 290.216C211.233 286.873 208.343 284.237 204.994 284.398L196.679 284.848C193.287 284.987 190.73 287.848 190.869 291.255Z" fill="#FFB5A1"/>
<path fill-rule="evenodd" clip-rule="evenodd" d="M158.824 282.169L161.361 281.516C162.067 281.344 162.773 281.751 162.955 282.459L170.435 310.393C170.617 311.1 170.2 311.807 169.493 311.989L166.957 312.643C166.251 312.814 165.545 312.407 165.363 311.7L157.883 283.766C157.712 283.048 158.118 282.341 158.824 282.169Z" fill="#58A700"/>
<path fill-rule="evenodd" clip-rule="evenodd" d="M192.661 282.169L190.125 281.516C189.419 281.344 188.712 281.751 188.53 282.459L181.05 310.339C180.868 311.046 181.286 311.753 181.992 311.925L184.528 312.579C185.234 312.761 185.941 312.343 186.123 311.636L193.603 283.701C193.774 283.048 193.367 282.341 192.661 282.169Z" fill="#58A700"/>
<path fill-rule="evenodd" clip-rule="evenodd" d="M153.565 273.383H192.592C193.886 273.383 194.946 274.444 194.946 275.74V284.055C194.946 285.352 193.886 286.412 192.592 286.412H153.565C152.27 286.412 151.211 285.352 151.211 284.055V275.74C151.211 274.444 152.27 273.383 153.565 273.383Z" fill="#EDE1CF"/>
<path d="M168.944 348.848L157.483 348.055C155.707 347.927 154.358 346.373 154.476 344.594C154.604 342.816 156.156 341.465 157.932 341.583L169.393 342.376C171.169 342.505 172.518 344.059 172.4 345.837C172.272 347.616 170.72 348.966 168.944 348.848Z" fill="#5E7A01"/>
<path d="M195.761 343.375L185.028 347.49C183.37 348.132 181.486 347.286 180.844 345.625C180.202 343.964 181.047 342.078 182.706 341.436L193.439 337.321C195.098 336.678 196.981 337.525 197.623 339.185C198.265 340.846 197.42 342.732 195.761 343.375Z" fill="#5E7A01"/>
<path d="M191.725 324.481H156.016C153.373 324.481 151.211 322.317 151.211 319.67V309.491C151.211 306.844 153.373 304.68 156.016 304.68H191.725C194.368 304.68 196.53 306.844 196.53 309.491V319.67C196.53 322.317 194.368 324.481 191.725 324.481Z" fill="#58A700"/>
<path opacity="0.5848" d="M167.78 314.582C169.374 314.582 170.669 313.286 170.669 311.689C170.669 310.092 169.374 308.807 167.78 308.807C166.185 308.807 164.891 310.103 164.891 311.689C164.891 313.286 166.185 314.582 167.78 314.582Z" fill="#5E7A00"/>
<path opacity="0.5848" d="M183.651 314.582C185.245 314.582 186.54 313.286 186.54 311.689C186.54 310.092 185.245 308.807 183.651 308.807C182.057 308.807 180.762 310.103 180.762 311.689C180.772 313.286 182.057 314.582 183.651 314.582Z" fill="#5E7A00"/>
<path d="M150.82 275.141C150.82 275.141 159.498 276.844 161.938 284.752C164.378 292.66 154.822 300.107 150.359 300.267" stroke="#CE82FF" stroke-width="4.8121" stroke-miterlimit="10" stroke-linecap="round"/>
<path d="M190.079 230.03C193.621 229.891 196.596 232.645 196.746 236.181L197.934 265.529C198.105 269.687 194.873 273.201 190.71 273.373L157.206 274.734C153.054 274.905 149.544 271.669 149.373 267.501L148.185 238.152C148.046 234.606 150.796 231.627 154.327 231.477L190.079 230.03Z" fill="#FFB5A1"/>
<path d="M148.604 256.548C151.653 256.548 154.125 254.073 154.125 251.019C154.125 247.966 151.653 245.49 148.604 245.49C145.554 245.49 143.082 247.966 143.082 251.019C143.082 254.073 145.554 256.548 148.604 256.548Z" fill="#FFB5A1"/>
<path d="M196.983 254.353C200.032 254.353 202.504 251.877 202.504 248.824C202.504 245.77 200.032 243.295 196.983 243.295C193.933 243.295 191.461 245.77 191.461 248.824C191.461 251.877 193.933 254.353 196.983 254.353Z" fill="#FFB5A1"/>
<path fill-rule="evenodd" clip-rule="evenodd" d="M171.153 206.585C184.39 206.049 195.509 216.303 196.044 229.558C196.129 231.647 194.514 233.394 192.438 233.479L152.191 235.119C150.105 235.204 148.36 233.586 148.275 231.508C147.729 218.242 157.98 207.12 171.153 206.585Z" fill="#78C800"/>
<path fill-rule="evenodd" clip-rule="evenodd" d="M147.94 228.551L196.115 226.59C197.464 226.537 198.705 227.426 199.101 228.755L200.449 233.759C200.856 235.355 199.968 236.941 198.373 237.348C198.17 237.423 197.902 237.434 197.699 237.445L147.169 239.502C145.553 239.566 144.162 238.28 144.098 236.662C144.087 236.459 144.077 236.191 144.141 235.987L145.082 230.898C145.425 229.59 146.602 228.605 147.94 228.551Z" fill="#58A700"/>
<path fill-rule="evenodd" clip-rule="evenodd" d="M156.094 207.196L173.29 206.499C175.377 206.414 177.121 208.032 177.207 210.11C177.292 212.2 175.677 213.946 173.601 214.032L156.404 214.729C154.318 214.814 152.573 213.196 152.488 211.118C152.402 209.028 154.007 207.282 156.094 207.196Z" fill="#78C800"/>
<path d="M168.335 240.5C172.038 240.35 175.163 243.232 175.312 246.939L175.484 251.118C175.633 254.826 172.755 257.955 169.052 258.105C165.35 258.255 162.225 255.372 162.075 251.665L161.904 247.486C161.754 243.779 164.633 240.65 168.335 240.5Z" fill="white"/>
<path d="M185.555 239.801C189.257 239.651 192.382 242.533 192.532 246.24L192.703 250.419C192.853 254.127 189.974 257.255 186.272 257.405C182.569 257.555 179.445 254.673 179.295 250.966L179.124 246.787C178.963 243.079 181.852 239.951 185.555 239.801Z" fill="white"/>
<path fill-rule="evenodd" clip-rule="evenodd" d="M168.401 246.972C169.739 246.918 170.777 245.793 170.723 244.454C170.702 243.896 170.488 243.382 170.156 242.986C170.338 242.943 170.52 242.921 170.713 242.911C172.35 242.846 173.73 244.121 173.805 245.761L173.955 249.5C174.019 251.14 172.746 252.522 171.109 252.597C169.471 252.661 168.091 251.386 168.016 249.747L167.898 246.939C168.059 246.961 168.23 246.972 168.401 246.972Z" fill="#3D3D3D"/>
<path fill-rule="evenodd" clip-rule="evenodd" d="M184.773 246.53C186.111 246.476 187.149 245.351 187.096 244.012C187.074 243.498 186.892 243.037 186.614 242.651C186.914 242.533 187.245 242.458 187.588 242.448C189.225 242.383 190.605 243.658 190.68 245.298L190.83 249.037C190.894 250.677 189.621 252.059 187.984 252.134C186.346 252.198 184.966 250.923 184.891 249.284L184.773 246.53Z" fill="#3D3D3D"/>
<path d="M176.899 258.456C177.059 259.656 178.172 260.503 179.371 260.331C180.569 260.17 181.415 259.056 181.243 257.856C181.083 256.656 178.611 254.149 178.515 254.17C178.429 254.17 176.728 257.245 176.899 258.456Z" fill="#E18E70"/>
<path d="M177.68 256.174L179.885 255.874C181.254 255.681 182.517 256.646 182.71 258.017C182.902 259.389 181.939 260.653 180.57 260.846L178.365 261.146C176.995 261.339 175.733 260.374 175.54 259.003C175.348 257.631 176.311 256.367 177.68 256.174Z" fill="#E18E70"/>
<path d="M174.627 260.009C172.155 256.248 166.462 255.048 161.176 256.698L162.492 260.513C167.628 261.349 176.585 263.009 174.627 260.009Z" fill="#FFB5A1"/>
<path d="M170.463 276.929C172.833 276.929 174.754 275.006 174.754 272.633C174.754 270.26 172.833 268.336 170.463 268.336C168.093 268.336 166.172 270.26 166.172 272.633C166.172 275.006 168.093 276.929 170.463 276.929Z" fill="#FFB5A1"/>
<path d="M170.464 275.194C171.876 275.194 173.021 274.048 173.021 272.633C173.021 271.219 171.876 270.072 170.464 270.072C169.051 270.072 167.906 271.219 167.906 272.633C167.906 274.048 169.051 275.194 170.464 275.194Z" fill="#AD3B3B"/>
<path d="M222.811 264.951L214.785 271.348V274.338L218.798 276.427L223.036 270.362L222.811 264.951Z" fill="#CBE8F5"/>
<path d="M217.89 274.895C217.89 274.895 207.852 261.072 192.85 260.387C192.336 260.365 191.833 260.537 191.437 260.847L166.054 280.82C165.605 281.174 165.509 281.817 165.83 282.288L169.746 288.01L219.292 279.331L230.506 262.647C230.517 262.658 218.96 261.865 217.89 274.895Z" fill="#E9F6FD"/>
<path d="M218.813 278.816L195.795 267.694C194.854 267.244 193.752 267.362 192.928 267.994L168.733 286.745C167.021 288.074 167.384 290.753 169.385 291.589L192.788 301.243C193.752 301.639 194.854 301.5 195.688 300.878L220.975 282.041C221.071 281.966 221.157 281.881 221.232 281.784L233.334 265.23C233.72 264.704 233.613 263.965 233.088 263.569L231.922 262.69C231.387 262.283 230.627 262.401 230.231 262.947L218.813 278.816Z" fill="#1CB0F6"/>
<path fill-rule="evenodd" clip-rule="evenodd" d="M169.439 291.931C169.663 288.588 172.617 286.006 175.956 286.242L185.544 286.949C188.882 287.174 191.461 290.131 191.226 293.474C191.001 296.817 188.048 299.4 184.709 299.164L175.121 298.457C171.707 298.199 169.161 295.296 169.439 291.931Z" fill="#FFB5A1"/>
<path fill-rule="evenodd" clip-rule="evenodd" d="M152.497 292.006L151.438 281.484C151.726 280.091 153.085 279.18 154.487 279.47L180.116 284.934C181.507 285.224 182.417 286.584 182.128 287.988L180.202 297.664C179.913 299.057 178.554 299.968 177.152 299.678L154.509 295.06C153.128 294.76 152.208 293.399 152.497 292.006Z" fill="#EDE1CF"/>
<path opacity="0.4" d="M0.385021 52.653C-0.117924 52.1494 -0.117924 51.3243 0.385021 50.8207L3.59531 47.6062C4.09825 47.1026 4.92223 47.1026 5.42517 47.6062L8.63546 50.8207C9.13841 51.3243 9.13841 52.1494 8.63546 52.653L5.42517 55.8675C4.92223 56.3711 4.09825 56.3711 3.59531 55.8675L0.385021 52.653Z" fill="#EBF9FF"/>
<path opacity="0.4" d="M199.667 47.3285C199.304 46.9642 199.304 46.3749 199.667 46.0106L201.968 43.7068C202.332 43.3425 202.921 43.3425 203.284 43.7068L205.585 46.0106C205.949 46.3749 205.949 46.9642 205.585 47.3285L203.284 49.6323C202.921 49.9966 202.332 49.9966 201.968 49.6323L199.667 47.3285Z" fill="#EBF9FF"/>
<path opacity="0.5" fill-rule="evenodd" clip-rule="evenodd" d="M17.1981 19.3304L19.6059 27.0881L24.9456 29.5419C25.4914 29.7883 25.7268 30.4312 25.4807 30.9777C25.3737 31.2134 25.1811 31.4063 24.9456 31.5134L19.6059 33.9672L17.1981 41.7249C17.0162 42.2928 16.417 42.6142 15.8391 42.4428C15.4967 42.3356 15.2292 42.0678 15.1222 41.7249L12.7144 33.9672L7.37465 31.5134C6.82891 31.267 6.59348 30.6241 6.83961 30.0776C6.94662 29.8419 7.13923 29.649 7.37465 29.5419L12.7144 27.0881L15.1222 19.3304C15.3041 18.7625 15.9033 18.4411 16.4812 18.6125C16.8236 18.7304 17.0911 18.9983 17.1981 19.3304Z" fill="#EBF9FF"/>
<path opacity="0.18" fill-rule="evenodd" clip-rule="evenodd" d="M192.133 22.2547L193.332 26.1335L195.996 27.3658C196.264 27.4943 196.392 27.8158 196.264 28.0837C196.21 28.2015 196.114 28.298 195.996 28.3515L193.332 29.5838L192.133 33.4626C192.048 33.7519 191.737 33.9127 191.459 33.8162C191.288 33.7626 191.159 33.6341 191.106 33.4626L189.907 29.5838L187.243 28.3515C186.975 28.223 186.858 27.9015 186.975 27.6336C187.029 27.5158 187.125 27.4193 187.243 27.3658L189.907 26.1335L191.106 22.2547C191.191 21.9654 191.502 21.8046 191.78 21.9011C191.941 21.9547 192.08 22.0832 192.133 22.2547Z" fill="#EBF9FF"/>
<path opacity="0.25" d="M24.9335 41.253C24.5482 40.8673 24.5482 40.2565 24.9335 39.8708L27.4589 37.342C27.8441 36.9563 28.4541 36.9563 28.8393 37.342L31.3647 39.8708C31.7393 40.2565 31.7393 40.8673 31.3647 41.253L28.8393 43.7818C28.4541 44.1675 27.8441 44.1675 27.4589 43.7818L24.9335 41.253Z" fill="#EBF9FF"/>
<path d="M13.0357 162.958L77.2539 150.902L68.4843 104.021L4.26612 116.077L13.0357 162.958Z" fill="white"/>
<path d="M13.3066 162.559L76.8516 150.629L68.208 104.422L4.66307 116.351L13.3066 162.559Z" stroke="#707070" stroke-width="0.9858"/>
<path d="M75.6796 155.877L16.8642 166.92C13.457 167.55 10.1892 165.308 9.55087 161.909L1.71725 120.052C1.08904 116.641 3.32943 113.369 6.72537 112.729L65.5408 101.686C68.9479 101.057 72.2157 103.299 72.8541 106.698L80.6877 148.555C81.3153 151.955 79.0755 155.238 75.6796 155.877ZM9.70243 116.381C7.79211 116.739 6.52758 118.587 6.88465 120.499L13.8413 157.671C14.1983 159.583 16.0434 160.848 17.9537 160.491L71.7391 150.399C73.6494 150.041 74.9139 148.193 74.5568 146.281L67.6002 109.109C67.2431 107.197 65.3981 105.932 63.4878 106.29L9.70243 116.381Z" fill="#5C5B5B"/>
<path opacity="0.26" d="M70.6191 125.298L67.5868 109.097C67.2298 107.185 65.3847 105.92 63.4744 106.277L47.29 109.317L42.4662 106.009L65.5274 101.674C68.9346 101.045 72.2024 103.287 72.8408 106.686L77.1649 129.771L70.6191 125.298Z" fill="white"/>
<path d="M3.76607 168.622C3.98774 169.79 5.11006 170.556 6.26654 170.335L87.0882 155.167C88.2554 154.945 89.0219 153.822 88.8008 152.665L88.3266 150.149L3.28118 166.107L3.76607 168.622Z" fill="#C1C9CB"/>
</g>
<defs>
<clipPath id="clip0_8602_1188">
<rect width="456" height="349" fill="white"/>
</clipPath>
</defs>
</svg>
