<svg width="490" height="355" viewBox="0 0 490 355" fill="none" xmlns="http://www.w3.org/2000/svg">
<path d="M438 340H443V335V102C443 92.6112 435.389 85 426 85H83C73.6112 85 66 92.6112 66 102V335V340H71H438Z" fill="white" stroke="#FF9600" stroke-width="10"/>
<rect x="20" y="330" width="470" height="25" rx="12.5" fill="#FF9600"/>
<mask id="path-3-inside-1_17217_16" fill="white">
<rect x="27" y="62" width="216.882" height="225.443" rx="14"/>
</mask>
<rect x="27" y="62" width="216.882" height="225.443" rx="14" fill="#FFF1BF" stroke="#FFF1BF" stroke-width="60" mask="url(#path-3-inside-1_17217_16)"/>
<rect x="36.5234" y="78.1719" width="198.809" height="200.711" rx="23" fill="#FF9600"/>
<rect x="36.5234" y="78.1719" width="198.809" height="200.711" rx="9" fill="#FF9600"/>
<path d="M168.731 155.239L107.305 155.209C101.076 155.203 95.9993 150.123 96.0057 143.893L95.9942 142.313C96.0006 136.084 101.08 131.006 107.309 131.013L168.735 131.042C174.964 131.049 180.041 136.129 180.034 142.358L180.046 143.938C180.038 150.144 174.937 155.247 168.731 155.239Z" fill="#3D3D3D"/>
<path d="M164.066 191.247L111.263 191.229C105.918 191.233 101.538 186.851 101.532 181.482L101.544 156.007C101.539 150.661 105.921 146.281 111.289 146.274L164.092 146.293C169.437 146.288 173.817 150.67 173.823 156.039L173.811 181.515C173.794 186.885 169.413 191.265 164.066 191.247Z" fill="#3D3D3D"/>
<mask id="mask0_17217_16" style="mask-type:luminance" maskUnits="userSpaceOnUse" x="84" y="217" width="103" height="104">
<path d="M132.393 320.601C104.45 318.733 83.1248 294.325 84.9912 266.379L85.0845 265.08C86.9509 237.134 111.356 215.808 139.299 217.676C167.242 219.544 188.568 243.952 186.701 271.898L186.608 273.196C184.742 301.142 160.337 322.469 132.393 320.601Z" fill="white"/>
</mask>
<g mask="url(#mask0_17217_16)">
<path d="M193.302 217.606L81.1094 217.557L81.0883 269.137L193.281 269.186L193.302 217.606Z" fill="#FFB100"/>
</g>
<path d="M140.786 235.136L135.465 235.139C129.933 235.133 125.403 230.598 125.409 225.065L125.421 212.583C125.427 207.051 129.961 202.521 135.493 202.527L140.815 202.524C146.346 202.53 150.876 207.065 150.87 212.597L150.858 225.08C150.852 230.612 146.318 235.142 140.786 235.136Z" fill="#FFC6B7"/>
<path d="M172.944 178.269L101.92 178.247C96.7143 178.242 92.4591 173.991 92.4634 168.785C92.4678 163.578 96.7182 159.322 101.924 159.326L172.948 159.349C178.154 159.353 182.409 163.604 182.405 168.811C182.401 174.018 178.15 178.273 172.944 178.269Z" fill="#FFC6B7"/>
<path d="M146.053 210.45L128.786 210.453C116.026 210.437 105.575 199.994 105.591 187.233L105.601 152.948C105.617 140.186 116.058 129.734 128.818 129.75L146.086 129.747C158.846 129.764 169.297 140.206 169.281 152.968L169.27 187.252C169.277 200.012 158.835 210.442 146.053 210.45Z" fill="#FFC6B7"/>
<path d="M129.278 147.921L121.521 149.41C120.098 149.69 118.711 148.735 118.431 147.313L118.391 147.06C118.111 145.637 119.065 144.249 120.487 143.969L128.244 142.48C129.666 142.2 131.054 143.154 131.334 144.577L131.374 144.83C131.631 146.254 130.7 147.641 129.278 147.921Z" fill="#4B4B4B"/>
<path d="M145.915 147.937L153.683 149.423C155.119 149.7 156.497 148.748 156.775 147.335L156.828 147.076C157.104 145.64 156.153 144.262 154.741 143.983L146.973 142.498C145.537 142.221 144.159 143.172 143.881 144.585L143.828 144.844C143.55 146.257 144.479 147.66 145.915 147.937Z" fill="#4B4B4B"/>
<mask id="mask1_17217_16" style="mask-type:luminance" maskUnits="userSpaceOnUse" x="124" y="182" width="28" height="16">
<path d="M151.396 182.529L124.82 182.518L124.814 197.036L151.39 197.048L151.396 182.529Z" fill="white"/>
</mask>
<g mask="url(#mask1_17217_16)">
<path d="M138.526 195.587C145.261 195.142 150.359 189.321 149.914 182.585C149.468 175.85 143.648 170.75 136.913 171.196C130.178 171.641 125.08 177.462 125.525 184.198C125.971 190.933 131.791 196.033 138.526 195.587Z" fill="white"/>
</g>
<path d="M123.594 172.82C129.306 172.442 133.631 167.504 133.253 161.791C132.875 156.078 127.938 151.753 122.226 152.131C116.514 152.508 112.189 157.446 112.567 163.159C112.945 168.872 117.882 173.197 123.594 172.82Z" fill="white"/>
<path d="M126.342 165.666C128.106 165.55 129.441 164.025 129.324 162.262C129.208 160.498 127.683 159.162 125.92 159.279C124.156 159.396 122.821 160.92 122.938 162.684C123.054 164.448 124.579 165.783 126.342 165.666Z" fill="#4B4B4B"/>
<path d="M153.142 175.329C160.235 174.86 165.604 168.729 165.135 161.636C164.666 154.542 158.536 149.172 151.444 149.641C144.351 150.11 138.982 156.241 139.451 163.334C139.92 170.428 146.05 175.798 153.142 175.329Z" fill="#777777"/>
<path d="M122.924 149.575C115.813 149.58 110.034 155.332 110.04 162.444C110.045 169.556 115.796 175.335 122.907 175.33C130.018 175.324 135.796 169.573 135.791 162.461C135.786 155.349 130.036 149.593 122.924 149.575ZM122.905 172.843C117.188 172.849 112.535 168.206 112.551 162.464C112.545 156.746 117.187 152.093 122.929 152.108C128.645 152.102 133.298 156.745 133.283 162.487C133.289 168.205 128.645 172.835 122.905 172.843Z" fill="#777777"/>
<path d="M152.977 172.827C158.689 172.45 163.014 167.512 162.636 161.799C162.258 156.086 157.321 151.761 151.609 152.138C145.896 152.516 141.572 157.454 141.95 163.167C142.327 168.88 147.264 173.205 152.977 172.827Z" fill="white"/>
<path d="M149.295 165.659C151.059 165.542 152.394 164.018 152.277 162.254C152.161 160.49 150.636 159.155 148.873 159.271C147.109 159.388 145.774 160.912 145.891 162.676C146.007 164.44 147.532 165.775 149.295 165.659Z" fill="#4B4B4B"/>
<path d="M140.832 159.571L134.07 159.576C133.234 159.585 132.537 158.888 132.527 158.028L132.527 157.68C132.518 156.843 133.216 156.146 134.075 156.136L140.837 156.131C141.673 156.122 142.37 156.82 142.381 157.679L142.38 158.028C142.366 158.865 141.668 159.562 140.832 159.571Z" fill="#777777"/>
<path d="M121.655 139.08C130.435 138.5 137.081 130.911 136.501 122.13C135.92 113.35 128.332 106.702 119.553 107.283C110.773 107.863 104.127 115.452 104.707 124.233C105.288 133.013 112.876 139.661 121.655 139.08Z" fill="#3D3D3D"/>
<path d="M164.852 139.152L145.842 139.153C137.498 139.147 130.679 132.323 130.662 123.98C130.668 115.635 137.491 108.815 145.833 108.798L180.021 108.816L180.047 123.969C180.042 132.336 173.196 139.158 164.852 139.152Z" fill="#3D3D3D"/>
<path d="M125.483 219.225L125.477 239.168L138.156 235.146L125.483 219.225Z" fill="#FFF5D3"/>
<path d="M150.862 219.245L150.833 239.189L138.156 235.146L150.862 219.245Z" fill="#FFF5D3"/>
<path d="M27 87C27 73.1929 38.1929 62 52 62H218.629C232.437 62 243.629 73.1929 243.629 87V92.0559H27V87Z" fill="#FFF1BF"/>
<circle cx="45.9981" cy="77.0294" r="6.52157" fill="#1CB0F6"/>
<circle cx="64.7169" cy="77.0294" r="6.52157" fill="#FF4B4B"/>
<circle cx="83.42" cy="77.0294" r="6.52157" fill="#FF9600"/>
<rect x="52.6875" y="267.469" width="165.515" height="11.4149" rx="5.70743" fill="#CD7900"/>
<circle cx="209.39" cy="239.55" r="21.0536" fill="white"/>
<circle cx="156.554" cy="239.55" r="21.0536" fill="white"/>
<path d="M211.954 245.112H202.696C200.474 245.112 198.656 243.238 198.656 240.947V234.936C198.656 234.197 199.243 233.592 199.96 233.592H209.206C211.497 233.592 213.376 235.525 213.376 237.89V243.65C213.376 244.452 212.736 245.112 211.954 245.112Z" fill="#FF9600"/>
<path d="M215.669 242.069C214.319 240.51 214.319 238.183 215.669 236.625L216.865 235.247L217.862 234.097C218.748 233.075 220.416 233.708 220.416 235.062V239.353V243.643C220.416 244.997 218.744 245.626 217.862 244.608L216.865 243.458L215.669 242.069Z" fill="#FF9600"/>
<path d="M156.742 242.279C157.778 242.279 158.772 241.867 159.504 241.135C160.237 240.402 160.648 239.409 160.648 238.373V232.514C160.648 231.478 160.237 230.484 159.504 229.752C158.772 229.019 157.778 228.607 156.742 228.607C155.706 228.607 154.713 229.019 153.98 229.752C153.247 230.484 152.836 231.478 152.836 232.514V238.373C152.836 239.409 153.247 240.402 153.98 241.135C154.713 241.867 155.706 242.279 156.742 242.279Z" fill="#FF9600"/>
<path d="M163.578 236.418C163.319 236.418 163.07 236.521 162.887 236.704C162.704 236.887 162.601 237.136 162.601 237.395V238.371C162.601 239.925 161.984 241.415 160.885 242.514C159.786 243.613 158.296 244.23 156.742 244.23C155.188 244.23 153.698 243.613 152.599 242.514C151.5 241.415 150.883 239.925 150.883 238.371V237.395C150.883 237.136 150.78 236.887 150.597 236.704C150.414 236.521 150.165 236.418 149.906 236.418C149.647 236.418 149.399 236.521 149.216 236.704C149.033 236.887 148.93 237.136 148.93 237.395V238.371C148.937 240.273 149.634 242.108 150.891 243.536C152.148 244.963 153.88 245.886 155.765 246.135V248.136H151.859C151.6 248.136 151.352 248.239 151.169 248.422C150.986 248.606 150.883 248.854 150.883 249.113C150.883 249.372 150.986 249.62 151.169 249.804C151.352 249.987 151.6 250.09 151.859 250.09H161.136C161.395 250.09 161.644 249.987 161.827 249.804C162.01 249.62 162.113 249.372 162.113 249.113C162.113 248.854 162.01 248.606 161.827 248.422C161.644 248.239 161.395 248.136 161.136 248.136H157.719V246.135C159.604 245.886 161.336 244.963 162.593 243.536C163.85 242.108 164.547 240.273 164.554 238.371V237.395C164.554 237.136 164.451 236.887 164.268 236.704C164.085 236.521 163.837 236.418 163.578 236.418Z" fill="#FF9600"/>
<mask id="path-39-inside-2_17217_16" fill="white">
<rect x="255" y="18" width="125.063" height="130" rx="11"/>
</mask>
<rect x="255" y="18" width="125.063" height="130" rx="11" fill="#D7FFB8" stroke="#D7FFB8" stroke-width="60" mask="url(#path-39-inside-2_17217_16)"/>
<rect x="260" y="27" width="115" height="116" rx="7" fill="#58CC02"/>
<path d="M255 35.3315C255 25.7596 262.76 18 272.331 18H362.586C372.158 18 379.917 25.7596 379.917 35.3315H255Z" fill="#D7FFB8"/>
<circle cx="265.956" cy="26.6669" r="3.7606" fill="#1CB0F6"/>
<circle cx="276.753" cy="26.6669" r="3.7606" fill="#FF4B4B"/>
<circle cx="287.534" cy="26.6669" r="3.7606" fill="#FF9600"/>
<path d="M306.211 100.109V96.3314C306.212 93.6746 308.347 91.5207 310.981 91.5195H336.862C337.805 91.5201 338.727 91.8023 339.511 92.3309C340.296 92.8596 340.907 93.6113 341.268 94.4902C341.508 95.0743 341.631 95.7001 341.631 96.3326V100.109C341.631 102.767 339.497 104.922 336.863 104.922H336.862H310.981C308.346 104.922 306.212 102.768 306.211 100.11V100.109Z" fill="#1899D6"/>
<path d="M299.5 134.364V115.741C299.5 115.23 299.525 114.721 299.574 114.211C299.624 113.703 299.698 113.197 299.796 112.697C299.895 112.196 300.017 111.701 300.162 111.211C300.307 110.722 300.477 110.242 300.673 109.77C300.866 109.297 301.081 108.836 301.319 108.386C301.557 107.934 301.816 107.497 302.097 107.072C302.377 106.647 302.677 106.236 302.997 105.839C303.317 105.443 303.656 105.065 304.013 104.705C304.37 104.344 304.743 104 305.133 103.676C305.524 103.352 305.93 103.048 306.351 102.764C306.771 102.48 307.203 102.218 307.649 101.977C308.093 101.736 308.549 101.519 309.016 101.322C309.483 101.127 309.957 100.955 310.44 100.807C310.923 100.658 311.412 100.535 311.907 100.436C312.401 100.337 312.901 100.262 313.403 100.212C313.906 100.162 314.409 100.137 314.913 100.137H331.952C332.457 100.137 332.961 100.162 333.463 100.212C333.965 100.262 334.464 100.337 334.959 100.436C335.454 100.536 335.943 100.659 336.426 100.807C336.909 100.953 337.384 101.125 337.85 101.322C338.316 101.518 338.772 101.736 339.217 101.977C339.663 102.218 340.095 102.48 340.515 102.764C340.935 103.049 341.34 103.352 341.732 103.676C342.125 104 342.498 104.344 342.853 104.705C343.21 105.067 343.549 105.445 343.869 105.839C344.189 106.234 344.49 106.645 344.77 107.072C345.05 107.497 345.309 107.934 345.547 108.386C345.785 108.836 346 109.297 346.194 109.77C346.387 110.242 346.557 110.722 346.704 111.211C346.85 111.701 346.971 112.196 347.069 112.697C347.167 113.198 347.241 113.703 347.29 114.211C347.34 114.721 347.365 115.23 347.365 115.741V134.364C347.365 139.253 343.451 143.215 338.624 143.215H338.623H308.244C303.415 143.216 299.501 139.254 299.5 134.366V134.364Z" fill="#F0F0F0"/>
<path d="M319.602 101.693V95.7049C319.602 95.4307 319.629 95.1572 319.684 94.8892C319.795 94.3501 320.014 93.8375 320.328 93.3802C321.128 92.2178 322.472 91.5201 323.91 91.5195C325.349 91.5201 326.692 92.2184 327.492 93.3802C327.965 94.068 328.218 94.8775 328.217 95.7049V101.693C328.218 104.004 326.289 105.878 323.91 105.879H323.91C321.531 105.879 319.602 104.006 319.602 101.694V101.693Z" fill="#D98F76"/>
<path d="M302.363 66.6309C304.14 66.6314 305.844 67.2866 307.1 68.4527C309.718 70.8788 309.722 74.8152 307.111 77.246C306.487 77.8267 305.744 78.2871 304.928 78.6004C301.509 79.9155 297.59 78.408 296.174 75.2335C296.006 74.8563 295.879 74.4656 295.793 74.0668C295.17 71.1551 296.848 68.2404 299.8 67.1048C300.613 66.7922 301.484 66.6309 302.363 66.6309Z" fill="#CE7354"/>
<path d="M344.504 66.6309C346.281 66.6314 347.985 67.2866 349.241 68.4527C351.858 70.8788 351.862 74.8152 349.251 77.246C348.627 77.8267 347.885 78.2871 347.068 78.6004C343.649 79.9155 339.731 78.408 338.315 75.2335C338.147 74.8563 338.019 74.4656 337.934 74.0668C337.311 71.1551 338.988 68.2404 341.941 67.1048C342.753 66.7922 343.624 66.6309 344.504 66.6309Z" fill="#CE7354"/>
<path d="M280.083 115.474L277.013 111.426C276.217 110.377 276.412 108.873 277.448 108.067L282.09 104.46C283.127 103.655 284.612 103.852 285.409 104.901L288.479 108.948C289.274 109.997 289.08 111.501 288.044 112.307L283.403 115.915C282.367 116.719 280.881 116.522 280.085 115.474H280.083Z" fill="#D98F76"/>
<path d="M309.961 93.7961L319.415 99.5479C320.55 100.239 320.91 101.722 320.218 102.857C319.963 103.277 319.585 103.608 319.136 103.807L316.608 104.923H311.001C308.355 104.923 306.211 102.78 306.211 100.135V95.901C306.211 94.5399 307.315 93.4355 308.677 93.4355C309.131 93.4361 309.575 93.5609 309.961 93.7961Z" fill="#1CB0F6"/>
<path d="M337.884 93.7961L328.43 99.5479C327.294 100.24 326.933 101.722 327.626 102.858C327.881 103.277 328.259 103.608 328.708 103.807L331.235 104.923H336.843C339.488 104.923 341.633 102.78 341.633 100.137V100.135V95.901C341.633 94.5399 340.528 93.4355 339.166 93.4355C338.714 93.4361 338.27 93.5609 337.884 93.7961Z" fill="#1CB0F6"/>
<path d="M299.502 140.36V115.747C299.502 115.236 299.527 114.726 299.576 114.217C299.626 113.709 299.699 113.203 299.798 112.701C299.896 112.2 300.017 111.705 300.162 111.216C300.306 110.727 300.476 110.247 300.671 109.773C300.863 109.301 301.079 108.839 301.316 108.389C301.554 107.938 301.812 107.501 302.092 107.075C302.372 106.65 302.672 106.239 302.99 105.842C303.31 105.445 303.648 105.067 304.004 104.707C304.36 104.346 304.733 104.002 305.122 103.678C305.512 103.354 305.917 103.05 306.336 102.766C306.755 102.482 307.186 102.22 307.631 101.979C308.075 101.738 308.529 101.519 308.995 101.324C309.461 101.128 309.934 100.955 310.416 100.807C310.897 100.659 311.385 100.536 311.88 100.437C312.373 100.337 312.871 100.262 313.373 100.212C313.874 100.162 314.377 100.137 314.88 100.137C316.431 100.137 317.689 101.413 317.689 102.987C317.689 102.987 317.689 102.988 317.689 102.989V140.363C317.689 141.938 316.431 143.215 314.88 143.215H302.31C300.758 143.215 299.501 141.938 299.5 140.363L299.502 140.36Z" fill="#1CB0F6"/>
<path d="M347.368 115.748V140.363C347.368 141.938 346.111 143.214 344.559 143.215H331.989C330.438 143.214 329.18 141.938 329.18 140.363V102.989C329.18 101.413 330.437 100.137 331.989 100.137H331.989C332.493 100.137 332.996 100.162 333.497 100.212C333.998 100.262 334.495 100.337 334.99 100.437C335.483 100.536 335.971 100.659 336.453 100.807C336.935 100.954 337.408 101.127 337.874 101.324C338.34 101.519 338.795 101.737 339.239 101.979C339.682 102.22 340.114 102.482 340.533 102.766C340.952 103.05 341.356 103.354 341.747 103.678C342.138 104.002 342.51 104.345 342.865 104.707C343.221 105.069 343.559 105.447 343.878 105.842C344.198 106.237 344.498 106.648 344.778 107.075C345.057 107.5 345.316 107.937 345.553 108.388C345.791 108.838 346.006 109.301 346.199 109.773C346.391 110.246 346.561 110.726 346.708 111.216C346.853 111.705 346.975 112.2 347.072 112.701C347.17 113.203 347.244 113.708 347.294 114.216C347.343 114.726 347.368 115.236 347.368 115.748Z" fill="#1CB0F6"/>
<path d="M357.5 143L345.5 109L343 143H357.5Z" fill="#1CB0F6"/>
<path d="M288.745 127.355C286.212 124.425 286.581 120.034 289.568 117.548L289.569 117.547L305.059 104.66C308.045 102.175 312.52 102.534 315.053 105.464C315.054 105.465 315.055 105.466 315.056 105.468C317.589 108.4 317.22 112.791 314.233 115.277L298.743 128.162C295.755 130.646 291.279 130.285 288.745 127.354V127.355Z" fill="#1CB0F6"/>
<path d="M299.083 128.023L297.696 129.198C294.901 131.565 290.717 131.22 288.347 128.428L280.529 119.213C278.839 117.22 279.085 114.235 281.078 112.545L285.361 108.917C287.355 107.228 290.342 107.474 292.033 109.466L299.851 118.682C302.219 121.475 301.874 125.656 299.081 128.024L299.083 128.023Z" fill="#1CB0F6"/>
<path d="M311.953 112.983V101.65C311.951 100.817 312.591 100.139 313.382 100.137C313.384 100.137 313.386 100.137 313.389 100.137C314.18 100.135 314.823 100.809 314.825 101.643C314.825 101.645 314.825 101.648 314.825 101.65V112.983C314.825 113.819 314.182 114.496 313.389 114.496C312.596 114.496 311.953 113.818 311.953 112.983Z" fill="white"/>
<path d="M332.055 112.983V101.65C332.053 100.817 332.692 100.139 333.484 100.137C333.486 100.137 333.488 100.137 333.491 100.137C334.282 100.135 334.925 100.809 334.927 101.643C334.927 101.645 334.927 101.648 334.927 101.65V112.983C334.927 113.819 334.284 114.496 333.491 114.496C332.697 114.496 332.055 113.818 332.055 112.983Z" fill="white"/>
<path d="M308.125 66.0537V50.9312C308.126 44.798 313.177 39.8262 319.408 39.8262H337.047C343.279 39.8262 348.331 44.7986 348.331 50.9324V66.0537C348.331 72.1882 343.279 77.1606 337.047 77.1606H319.408C313.177 77.16 308.125 72.1882 308.125 66.0537Z" fill="#3C2A18"/>
<path d="M299.5 66.9053V55.8215C299.501 50.1588 304.13 45.5684 309.842 45.5684H329.365C335.076 45.569 339.705 50.1588 339.706 55.8215V66.9053C339.706 72.568 335.077 77.159 329.365 77.159H309.842C304.13 77.159 299.501 72.5692 299.5 66.9065V66.9053Z" fill="#3C2A18"/>
<path d="M332.892 52.2734H313.979C307.577 52.2924 302.393 57.4556 302.375 63.8305V78.8489C302.391 83.9229 305.717 88.3967 310.585 89.8939C312.877 94.2395 317.935 97.2662 323.818 97.2662C329.859 97.2662 335.039 94.083 337.24 89.5499C341.615 87.7789 344.481 83.5507 344.496 78.8477V63.8299C344.478 57.4556 339.294 52.2924 332.892 52.2734Z" fill="#D98E76"/>
<path d="M316.058 58.0214L315.666 58.0158C313.147 57.9939 311.083 60.1415 311.047 62.8234L311 67.2296C310.99 68.159 311.233 69.0715 311.7 69.8569C313.989 69.9515 316.242 70.4801 318.356 71.4177C319.686 70.5446 320.504 69.0089 320.526 67.3467L320.573 62.9405C320.596 60.2574 318.578 58.0596 316.058 58.0214Z" fill="white"/>
<path d="M316.865 70.4573L316.506 70.4531C315.032 70.438 313.851 69.3304 313.867 67.979L313.913 64.2613C313.93 62.9099 315.138 61.8263 316.612 61.842L316.972 61.8456C318.446 61.8612 319.627 62.9689 319.611 64.3202L319.565 68.0386C319.549 69.3893 318.34 70.4723 316.865 70.4573Z" fill="black"/>
<path d="M331.787 58.0214L332.18 58.0158C334.699 57.9939 336.763 60.1415 336.799 62.8234L336.846 67.2296C336.856 68.159 336.613 69.0715 336.147 69.8569C333.858 69.9515 331.603 70.4801 329.49 71.4177C328.16 70.5446 327.342 69.0089 327.32 67.3467L327.274 62.9405C327.251 60.258 329.268 58.0603 331.787 58.0214Z" fill="white"/>
<path d="M328.273 68.0386L328.235 64.3202C328.22 62.9689 329.204 61.8612 330.433 61.8455H330.434L330.733 61.8419C331.961 61.8275 332.968 62.9099 332.983 64.2613L333.021 67.979C333.034 69.3298 332.05 70.438 330.822 70.4531L330.522 70.4573C329.293 70.4723 328.286 69.3893 328.273 68.0386Z" fill="black"/>
<path d="M301.422 56.232V55.0097C301.421 54.2784 301.656 53.5642 302.096 52.9565C302.241 52.7549 302.408 52.5663 302.594 52.396C303.343 51.7023 304.361 51.3133 305.422 51.3145H326.142C328.35 51.3145 330.14 52.9696 330.141 55.0109V56.2331C330.141 58.2738 328.353 59.929 326.145 59.9301C326.144 59.9301 326.143 59.9301 326.142 59.9301H305.421C303.213 59.9307 301.423 58.2772 301.422 56.2365C301.422 56.2348 301.422 56.2337 301.422 56.232Z" fill="#3C2A18"/>
<path d="M327.496 85.0566C328.267 85.056 329.03 85.2029 329.744 85.4897C329.954 84.7349 330.085 83.9607 330.137 83.1787L319.707 84.8394C319.383 84.8913 319.078 84.6724 319.027 84.3508C319.027 84.3496 319.027 84.3478 319.027 84.3478L318.794 82.9043L315.09 84.0988C314.887 84.1625 314.775 84.3785 314.838 84.5803C314.843 84.5933 314.848 84.6069 314.853 84.6193C316.202 87.6149 318.102 90.2145 321.498 90.5626C321.749 87.4543 324.36 85.0577 327.496 85.0566Z" fill="#A54544"/>
<path d="M319.655 84.8126L331.061 83.0527C331.145 81.8415 331.098 80.6247 330.917 79.4235C330.882 79.2014 330.667 79.0475 330.437 79.0807C330.414 79.0838 330.39 79.0894 330.368 79.0963L318.656 82.7587L318.911 84.2895C318.966 84.6311 319.297 84.8651 319.652 84.8126C319.652 84.8126 319.654 84.8132 319.655 84.8126Z" fill="white"/>
<path d="M325.709 90.0121C327.937 89.3228 329.625 87.5155 330.139 85.2684C326.921 83.9871 323.259 85.5229 321.96 88.6984C321.721 89.2831 321.574 89.9002 321.523 90.5283C322.94 90.6384 324.364 90.4623 325.709 90.0121Z" fill="#FF4B4B"/>
<path d="M320.57 73.4161V68.4579C320.57 66.9194 321.856 65.6725 323.442 65.6719C325.028 65.6725 326.313 66.9194 326.314 68.4579V73.4161C326.314 74.9546 325.028 76.2021 323.442 76.2021C321.856 76.2021 320.57 74.9546 320.57 73.4161Z" fill="#CE7354"/>
<path d="M279.573 86.8163L281.248 94.0385C281.573 95.44 280.743 96.8503 279.394 97.1882C278.045 97.5254 276.687 96.6628 276.362 95.2613L274.688 88.0386C274.363 86.6371 275.193 85.2273 276.542 84.8895C277.891 84.5522 279.248 85.4148 279.573 86.8163Z" fill="#D98F76"/>
<path d="M270.399 88.6671L274.983 94.6492C275.873 95.81 275.741 97.5467 274.689 98.5278C273.637 99.5096 272.064 99.3647 271.174 98.2039L266.59 92.2218C265.7 91.0615 265.832 89.3249 266.884 88.3431L266.884 88.3425C267.936 87.3607 269.509 87.5056 270.399 88.6665V88.6671Z" fill="#D98F76"/>
<path d="M277.018 94.3926C282.041 94.3937 286.112 98.2518 286.11 103.01C286.109 107.769 282.037 111.625 277.014 111.624C271.991 111.623 267.921 107.765 267.922 103.007C267.922 98.8967 270.988 95.3596 275.242 94.558C275.827 94.4475 276.422 94.3926 277.018 94.3926Z" fill="#D98F76"/>
<circle cx="359.469" cy="126.531" r="11.5313" fill="white"/>
<circle cx="330.531" cy="126.531" r="11.5313" fill="white"/>
<path d="M360.885 129.579H355.814C354.597 129.579 353.602 128.553 353.602 127.298V124.006C353.602 123.601 353.923 123.27 354.316 123.27H359.38C360.635 123.27 361.664 124.328 361.664 125.624V128.779C361.664 129.218 361.313 129.579 360.885 129.579Z" fill="#58CC02"/>
<path d="M362.914 127.913C362.175 127.059 362.175 125.784 362.914 124.931L363.569 124.176L364.115 123.546C364.6 122.986 365.514 123.333 365.514 124.075V126.425V128.775C365.514 129.517 364.598 129.861 364.115 129.303L363.569 128.673L362.914 127.913Z" fill="#58CC02"/>
<path d="M330.632 128.025C331.199 128.025 331.743 127.8 332.144 127.399C332.546 126.997 332.771 126.453 332.771 125.886V122.677C332.771 122.109 332.546 121.565 332.144 121.164C331.743 120.763 331.199 120.537 330.632 120.537C330.064 120.537 329.52 120.763 329.119 121.164C328.718 121.565 328.492 122.109 328.492 122.677V125.886C328.492 126.453 328.718 126.997 329.119 127.399C329.52 127.8 330.064 128.025 330.632 128.025Z" fill="#58CC02"/>
<path d="M334.375 124.816C334.233 124.816 334.097 124.873 333.996 124.973C333.896 125.073 333.84 125.209 333.84 125.351V125.886C333.84 126.737 333.502 127.554 332.9 128.155C332.298 128.757 331.482 129.095 330.63 129.095C329.779 129.095 328.963 128.757 328.361 128.155C327.759 127.554 327.421 126.737 327.421 125.886V125.351C327.421 125.209 327.365 125.073 327.265 124.973C327.164 124.873 327.028 124.816 326.886 124.816C326.745 124.816 326.609 124.873 326.508 124.973C326.408 125.073 326.352 125.209 326.352 125.351V125.886C326.356 126.928 326.737 127.933 327.426 128.715C328.114 129.497 329.063 130.002 330.096 130.138V131.235H327.956C327.814 131.235 327.678 131.291 327.578 131.391C327.478 131.492 327.421 131.628 327.421 131.77C327.421 131.912 327.478 132.048 327.578 132.148C327.678 132.248 327.814 132.305 327.956 132.305H333.037C333.179 132.305 333.315 132.248 333.416 132.148C333.516 132.048 333.572 131.912 333.572 131.77C333.572 131.628 333.516 131.492 333.416 131.391C333.315 131.291 333.179 131.235 333.037 131.235H331.165V130.138C332.198 130.002 333.147 129.497 333.835 128.715C334.524 127.933 334.905 126.928 334.909 125.886V125.351C334.909 125.209 334.853 125.073 334.753 124.973C334.652 124.873 334.516 124.816 334.375 124.816Z" fill="#58CC02"/>
<mask id="path-81-inside-3_17217_16" fill="white">
<rect x="306" y="189" width="125.063" height="130" rx="11"/>
</mask>
<rect x="306" y="189" width="125.063" height="130" rx="11" fill="#DAC9FF" stroke="#DAC9FF" stroke-width="60" mask="url(#path-81-inside-3_17217_16)"/>
<rect x="311.492" y="198.326" width="114.641" height="115.738" rx="23" fill="#FF9600"/>
<rect x="311.492" y="198.326" width="114.641" height="115.738" rx="7" fill="#7B4CE7"/>
<path d="M306 206.331C306 196.76 313.76 189 323.331 189H413.586C423.158 189 430.917 196.76 430.917 206.331H306Z" fill="#DAC9FF"/>
<circle cx="316.956" cy="197.667" r="3.7606" fill="#1CB0F6"/>
<circle cx="327.753" cy="197.667" r="3.7606" fill="#FF4B4B"/>
<circle cx="338.534" cy="197.667" r="3.7606" fill="#FF9600"/>
<path d="M347.473 244.087L391.977 244.083C395.237 244.081 397.904 246.748 397.902 250.008C397.905 253.268 395.238 255.935 391.977 255.933L347.474 255.937C344.214 255.94 341.547 253.273 341.549 250.012C341.551 246.752 344.213 244.085 347.473 244.087Z" fill="#DA8E74"/>
<mask id="mask2_17217_16" style="mask-type:luminance" maskUnits="userSpaceOnUse" x="337" y="281" width="65" height="66">
<path d="M369.145 346.45C351.599 346.238 337.413 331.711 337.625 314.164L337.634 313.347C337.846 295.805 352.373 281.619 369.92 281.831C387.466 282.043 401.652 296.57 401.44 314.117L401.431 314.934C401.219 332.476 386.692 346.662 369.145 346.45Z" fill="white"/>
</mask>
<g mask="url(#mask2_17217_16)">
<path d="M404.649 281.821L334.352 281.832L334.357 314.146L404.655 314.135L404.649 281.821Z" fill="#2B70C9"/>
</g>
<path d="M370.79 292.832L369.36 292.831C365.372 292.834 362.104 289.567 362.102 285.578L362.102 273.023C362.1 269.034 365.367 265.766 369.355 265.764L370.785 265.765C374.774 265.763 378.041 269.03 378.043 273.019L378.043 285.574C378.045 289.563 374.783 292.83 370.79 292.832Z" fill="#DA8E74"/>
<path d="M362.146 282.873L362.145 295.368L370.097 292.832L362.146 282.873Z" fill="#1453A3"/>
<path d="M378.042 282.872L378.046 295.366L370.098 292.834L378.042 282.872Z" fill="#1453A3"/>
<path d="M377.362 256.481L362.098 256.482C354.466 256.482 348.224 250.239 348.223 242.612L348.223 227.347C348.223 219.715 354.466 213.473 362.093 213.473L377.358 213.473C384.99 213.473 391.232 219.716 391.232 227.343L391.232 242.607C391.232 250.239 384.994 256.481 377.362 256.481Z" fill="#3D3D3D"/>
<path d="M383.854 225.523C383.277 225.367 382.674 225.281 382.048 225.279L357.395 225.282C356.769 225.281 356.168 225.372 355.586 225.529C352.574 226.332 350.333 229.087 350.331 232.347L350.333 236.317L350.335 245.295L350.34 257.457C350.339 261.161 351.832 264.529 354.231 267.013L354.222 267.013L361.88 274.873C366.185 279.291 373.28 279.288 377.583 274.872L385.07 267.181C385.074 267.176 385.074 267.176 385.079 267.172L385.236 267.011L385.226 267.011C387.63 264.529 389.116 261.162 389.117 257.454L389.117 245.286L389.114 236.309L389.112 232.339C389.11 229.079 386.867 226.327 383.854 225.523Z" fill="#DA8E74"/>
<path d="M363.639 237.29L356.918 237.293C356.166 237.293 355.551 236.679 355.551 235.922L355.553 235.67C355.553 234.918 356.166 234.303 356.923 234.303L363.644 234.3C364.396 234.3 365.011 234.914 365.011 235.671L365.009 235.923C365.005 236.675 364.391 237.29 363.639 237.29Z" fill="#3D3D3D"/>
<path d="M382.537 237.292L375.816 237.295C375.064 237.295 374.449 236.681 374.449 235.924L374.451 235.672C374.451 234.92 375.065 234.305 375.821 234.305L382.543 234.302C383.295 234.302 383.909 234.916 383.909 235.673L383.908 235.925C383.903 236.672 383.289 237.287 382.537 237.292Z" fill="#3D3D3D"/>
<path fill-rule="evenodd" clip-rule="evenodd" d="M360.273 239.037C363.066 239.035 365.332 241.301 365.333 244.094L365.333 247.172C365.335 249.965 363.069 252.23 360.276 252.232C357.483 252.233 355.218 249.968 355.217 247.175L355.216 244.097C355.215 241.303 357.48 239.038 360.273 239.037Z" fill="white"/>
<path fill-rule="evenodd" clip-rule="evenodd" d="M379.172 239.033C381.965 239.031 384.23 241.297 384.232 244.09L384.232 247.168C384.233 249.961 381.968 252.226 379.175 252.228C376.382 252.229 374.117 249.964 374.115 247.171L374.115 244.093C374.113 241.299 376.379 239.034 379.172 239.033Z" fill="white"/>
<path fill-rule="evenodd" clip-rule="evenodd" d="M361.674 242.695C362.931 242.693 363.948 243.713 363.944 244.965L363.947 247.819C363.948 249.075 362.928 250.092 361.676 250.089C360.42 250.09 359.403 249.07 359.406 247.818L359.404 244.965L359.407 244.829C359.459 244.833 359.51 244.837 359.566 244.837C360.486 244.835 361.229 244.092 361.227 243.172C361.225 243.023 361.21 242.883 361.171 242.743C361.334 242.713 361.502 242.692 361.674 242.695Z" fill="#3D3D3D"/>
<path fill-rule="evenodd" clip-rule="evenodd" d="M377.721 242.728C378.978 242.727 379.994 243.746 379.991 244.998L379.993 247.852C379.995 249.108 378.975 250.125 377.723 250.122C376.467 250.123 375.45 249.103 375.453 247.852L375.451 244.998L375.454 244.862C375.506 244.866 375.557 244.87 375.613 244.87C376.533 244.868 377.276 244.125 377.274 243.205C377.272 243.056 377.256 242.916 377.217 242.776C377.381 242.746 377.548 242.725 377.721 242.728Z" fill="#3D3D3D"/>
<mask id="mask3_17217_16" style="mask-type:luminance" maskUnits="userSpaceOnUse" x="361" y="259" width="18" height="10">
<path d="M378.035 259.163L361.375 259.166L361.376 268.259L378.036 268.257L378.035 259.163Z" fill="white"/>
</mask>
<g mask="url(#mask3_17217_16)">
<path d="M369.555 267.386C373.787 267.334 377.176 263.861 377.124 259.628C377.072 255.396 373.599 252.006 369.367 252.058C365.134 252.11 361.745 255.583 361.797 259.816C361.849 264.049 365.322 267.438 369.555 267.386Z" fill="white"/>
</g>
<path d="M370.114 301.55C371.401 301.534 372.432 300.478 372.416 299.191C372.4 297.904 371.344 296.874 370.057 296.889C368.77 296.905 367.739 297.961 367.755 299.248C367.771 300.535 368.827 301.566 370.114 301.55Z" fill="white"/>
<path d="M370.106 309.181C371.393 309.165 372.424 308.109 372.408 306.822C372.392 305.535 371.336 304.504 370.049 304.52C368.762 304.536 367.732 305.592 367.747 306.879C367.763 308.166 368.819 309.197 370.106 309.181Z" fill="white"/>
<circle cx="410.469" cy="297.531" r="11.5313" fill="white"/>
<circle cx="381.531" cy="297.531" r="11.5313" fill="white"/>
<path d="M411.885 300.579H406.814C405.597 300.579 404.602 299.553 404.602 298.298V295.006C404.602 294.601 404.923 294.27 405.316 294.27H410.38C411.635 294.27 412.664 295.328 412.664 296.624V299.779C412.664 300.218 412.313 300.579 411.885 300.579Z" fill="#7B4CE7"/>
<path d="M413.914 298.913C413.175 298.059 413.175 296.784 413.914 295.931L414.569 295.176L415.115 294.546C415.6 293.986 416.514 294.333 416.514 295.075V297.425V299.775C416.514 300.517 415.598 300.861 415.115 300.303L414.569 299.673L413.914 298.913Z" fill="#7B4CE7"/>
<path d="M381.632 299.025C382.199 299.025 382.743 298.8 383.144 298.399C383.546 297.997 383.771 297.453 383.771 296.886V293.677C383.771 293.109 383.546 292.565 383.144 292.164C382.743 291.763 382.199 291.537 381.632 291.537C381.064 291.537 380.52 291.763 380.119 292.164C379.718 292.565 379.492 293.109 379.492 293.677V296.886C379.492 297.453 379.718 297.997 380.119 298.399C380.52 298.8 381.064 299.025 381.632 299.025Z" fill="#7B4CE7"/>
<path d="M385.375 295.816C385.233 295.816 385.097 295.873 384.996 295.973C384.896 296.073 384.84 296.209 384.84 296.351V296.886C384.84 297.737 384.502 298.554 383.9 299.155C383.298 299.757 382.482 300.095 381.63 300.095C380.779 300.095 379.963 299.757 379.361 299.155C378.759 298.554 378.421 297.737 378.421 296.886V296.351C378.421 296.209 378.365 296.073 378.265 295.973C378.164 295.873 378.028 295.816 377.886 295.816C377.745 295.816 377.609 295.873 377.508 295.973C377.408 296.073 377.352 296.209 377.352 296.351V296.886C377.356 297.928 377.737 298.933 378.426 299.715C379.114 300.497 380.063 301.002 381.096 301.138V302.235H378.956C378.814 302.235 378.678 302.291 378.578 302.391C378.478 302.492 378.421 302.628 378.421 302.77C378.421 302.912 378.478 303.048 378.578 303.148C378.678 303.248 378.814 303.305 378.956 303.305H384.037C384.179 303.305 384.315 303.248 384.416 303.148C384.516 303.048 384.572 302.912 384.572 302.77C384.572 302.628 384.516 302.492 384.416 302.391C384.315 302.291 384.179 302.235 384.037 302.235H382.165V301.138C383.198 301.002 384.147 300.497 384.835 299.715C385.524 298.933 385.905 297.928 385.909 296.886V296.351C385.909 296.209 385.853 296.073 385.753 295.973C385.652 295.873 385.516 295.816 385.375 295.816Z" fill="#7B4CE7"/>
<path d="M389.295 136.888L408.159 108.473C410.105 105.535 413.782 104.281 417.121 105.412L452.689 117.491C455.732 118.522 457.826 121.336 457.949 124.553L458.403 136.451L391.109 155.485L388.198 142.944C387.72 140.857 388.116 138.67 389.295 136.888Z" fill="#1CB0F6"/>
<path d="M394.722 158.44L433.514 168.795C435.798 169.405 438.213 168.489 439.524 166.517L457.482 139.48C459.551 136.369 457.993 132.145 454.398 131.122L416.571 120.371C414.303 119.728 411.871 120.602 410.536 122.541L391.605 149.983C389.437 153.118 391.037 157.458 394.722 158.44Z" fill="#84D8FF"/>
<path d="M143.895 9.87242L165.43 0.447516C167.653 -0.524427 170.252 0.123537 171.758 2.0347L187.842 22.3899C189.218 24.1341 189.384 26.5493 188.253 28.4637L184.073 35.5455L138 21.3525L141.003 12.9781C141.495 11.5872 142.545 10.4647 143.895 9.87242Z" fill="#FF878D"/>
<path d="M138.979 24.5061L157.445 45.1125C158.533 46.3256 160.259 46.6994 161.742 46.0469L182.099 37.0667C184.44 36.0339 185.11 32.9913 183.426 31.047L165.666 10.5717C164.601 9.34217 162.882 8.9389 161.389 9.56512L140.326 18.4143C137.917 19.4274 137.227 22.552 138.979 24.5061Z" fill="#D947AC"/>
<path d="M254.198 311.894L257.27 316.996C257.699 317.709 258.411 318.207 259.228 318.364L284.638 323.243C286.066 323.519 287.48 322.701 287.957 321.327L295.634 299.223C295.916 298.414 295.827 297.522 295.395 296.782L292.986 292.656L254.198 311.894Z" fill="#EABCFE"/>
<path d="M261.987 288.641L254.161 309.939C253.591 311.494 254.54 313.191 256.162 313.515L282.534 318.8C283.858 319.067 285.173 318.311 285.613 317.032L293.225 294.918C293.766 293.346 292.768 291.661 291.128 291.38L264.972 286.914C263.691 286.695 262.436 287.421 261.987 288.641Z" fill="#CE82FF"/>
<mask id="path-118-outside-4_17217_16" maskUnits="userSpaceOnUse" x="0" y="172" width="92" height="47" fill="black">
<rect fill="white" y="172" width="92" height="47"/>
<path fill-rule="evenodd" clip-rule="evenodd" d="M12 174C6.47715 174 2 178.477 2 184V207C2 212.523 6.47715 217 12 217H73C78.5229 217 83 212.523 83 207V201.112L89.4922 197.364C90.1589 196.979 90.1589 196.017 89.4922 195.632L83 191.883V184C83 178.477 78.5229 174 73 174H12Z"/>
</mask>
<path fill-rule="evenodd" clip-rule="evenodd" d="M12 174C6.47715 174 2 178.477 2 184V207C2 212.523 6.47715 217 12 217H73C78.5229 217 83 212.523 83 207V201.112L89.4922 197.364C90.1589 196.979 90.1589 196.017 89.4922 195.632L83 191.883V184C83 178.477 78.5229 174 73 174H12Z" fill="white"/>
<path d="M83 201.112L82 199.38L81 199.957V201.112H83ZM89.4922 197.364L90.4922 199.096L90.4922 199.096L89.4922 197.364ZM89.4922 195.632L90.4922 193.9L89.4922 195.632ZM83 191.883H81V193.038L82 193.615L83 191.883ZM4 184C4 179.582 7.58172 176 12 176V172C5.37258 172 0 177.373 0 184H4ZM4 207V184H0V207H4ZM12 215C7.58172 215 4 211.418 4 207H0C0 213.627 5.37258 219 12 219V215ZM73 215H12V219H73V215ZM81 207C81 211.418 77.4183 215 73 215V219C79.6274 219 85 213.627 85 207H81ZM81 201.112V207H85V201.112H81ZM88.4922 195.632L82 199.38L84 202.844L90.4922 199.096L88.4922 195.632ZM88.4922 197.364C87.8255 196.979 87.8255 196.017 88.4922 195.632L90.4922 199.096C92.4922 197.941 92.4922 195.054 90.4922 193.9L88.4922 197.364ZM82 193.615L88.4922 197.364L90.4922 193.9L84 190.151L82 193.615ZM81 184V191.883H85V184H81ZM73 176C77.4183 176 81 179.582 81 184H85C85 177.373 79.6274 172 73 172V176ZM12 176H73V172H12V176Z" fill="#E5E5E5" mask="url(#path-118-outside-4_17217_16)"/>
<circle cx="27.5" cy="197.5" r="5.5" fill="#D9D9D9" fill-opacity="0.4"/>
<circle cx="55.5" cy="197.5" r="5.5" fill="#D9D9D9" fill-opacity="0.4"/>
<circle cx="41.5" cy="191.5" r="5.5" fill="#D9D9D9"/>
</svg>
