<svg width="429" height="449" viewBox="0 0 429 449" fill="none" xmlns="http://www.w3.org/2000/svg">
<path d="M117.069 342.91L78.0056 428.665C73.6694 438.189 80.6251 449.001 91.0883 449.001H414.456C424.268 449.001 431.194 439.388 428.094 430.078L399.538 344.323C397.585 338.447 392.087 334.488 385.9 334.488H130.151C124.513 334.488 119.4 337.781 117.069 342.91Z" fill="#9069CD"/>
<path d="M91.089 430.173C87.0784 430.173 83.3859 428.16 81.2104 424.786C79.0349 421.411 78.7389 417.215 80.3965 413.559L119.467 327.805C121.369 323.631 125.564 320.93 130.152 320.93H385.901C390.963 320.93 395.439 324.156 397.045 328.966L425.608 414.721C426.814 418.347 426.222 422.203 423.995 425.296C421.768 428.39 418.29 430.173 414.472 430.173H91.089Z" fill="white"/>
<path d="M385.893 323.566C389.822 323.566 393.293 326.067 394.536 329.797L423.091 415.552C424.031 418.364 423.572 421.354 421.841 423.759C420.109 426.164 417.416 427.54 414.449 427.54H91.0809C87.9212 427.54 85.1315 426.016 83.4222 423.359C81.7129 420.702 81.4835 417.528 82.7932 414.656L121.864 328.902C123.336 325.66 126.592 323.566 130.151 323.566H385.893ZM385.893 318.297H130.151C124.52 318.297 119.4 321.59 117.069 326.718L78.0056 412.473C73.6694 421.997 80.6251 432.809 91.0883 432.809H414.456C424.268 432.809 431.194 423.196 428.094 413.887L399.538 328.132C397.577 322.256 392.087 318.297 385.893 318.297Z" fill="#9069CD"/>
<path d="M76.6953 418.244L76.7249 435.361L90.6142 431.283C90.6142 431.283 83.5253 427.776 76.6953 418.244Z" fill="#9069CD"/>
<path d="M428.841 418.244L428.811 435.361L414.922 431.283C414.922 431.283 422.011 427.776 428.841 418.244Z" fill="#9069CD"/>
<path d="M56.1894 194.883C-11.8552 294.949 221.536 377.841 346.781 400V392.565C271.694 374.196 132.481 319.09 93.899 249.114C45.6715 161.645 255.68 71.1133 378 46.1843V37C271.461 58.8675 124.234 94.8176 56.1894 194.883Z" fill="url(#paint0_linear_17200_1869)"/>
<path d="M395.754 34.2729C399.362 35.6138 400.166 40.3575 397.2 42.8116L373.612 62.3348C370.647 64.7889 366.137 63.1129 365.494 59.3179L360.381 29.1278C359.738 25.3329 363.444 22.2652 367.052 23.6061L395.754 34.2729Z" fill="#FFE357"/>
<rect x="298" y="383" width="77" height="34" rx="12" fill="#CF9C6D"/>
<rect x="194" y="339" width="77" height="51" rx="12" fill="#CE82FF"/>
<rect x="44" y="123" width="77" height="71" rx="12" fill="#1CB0F6"/>
<path d="M63.4259 153.616C64.1232 153.559 64.8129 153.431 65.4844 153.234C65.632 153.187 65.7605 153.093 65.8505 152.967C65.9406 152.841 65.9875 152.689 65.9842 152.534C65.947 151.768 65.8272 151.009 65.6267 150.269C65.3045 148.8 64.4837 147.487 63.3037 146.554C62.0379 145.741 60.5299 145.391 59.0355 145.563C58.9682 145.569 58.9019 145.575 58.8356 145.58C58.1381 145.638 57.4483 145.766 56.7766 145.963C56.6292 146.01 56.501 146.104 56.4111 146.23C56.3213 146.356 56.2745 146.508 56.2779 146.663C56.315 147.428 56.4349 148.188 56.6354 148.927C56.9572 150.397 57.7777 151.71 58.9574 152.644C60.2236 153.456 61.732 153.805 63.2264 153.632C63.2942 153.627 63.3607 153.622 63.4259 153.616Z" fill="white" fill-opacity="0.51"/>
<path d="M74.853 171.678C76.0578 171.612 77.2157 171.189 78.1792 170.463C79.2989 169.458 80.0366 168.097 80.2669 166.61C80.423 165.86 80.4961 165.094 80.485 164.328C80.4786 164.173 80.4225 164.024 80.3248 163.904C80.2271 163.784 80.0932 163.698 79.943 163.66C79.1943 163.491 78.4292 163.404 77.6616 163.402C77.3655 163.4 77.0717 163.411 76.7895 163.436C75.5848 163.502 74.4272 163.926 73.464 164.652C72.3443 165.657 71.6067 167.018 71.3763 168.505C71.2203 169.256 71.1472 170.021 71.1582 170.788C71.1646 170.942 71.2207 171.091 71.3184 171.211C71.4161 171.332 71.55 171.417 71.7002 171.455C72.4477 171.624 73.2115 171.71 73.9779 171.712C74.2765 171.714 74.5708 171.703 74.853 171.678Z" fill="white" fill-opacity="0.51"/>
<path d="M65.9065 164.191C67.0487 164.061 68.1437 163.662 69.1008 163.025C69.7515 162.62 70.3556 162.144 70.9024 161.607C71.0101 161.496 71.079 161.352 71.0987 161.198C71.1183 161.045 71.0878 160.889 71.0115 160.754C70.6169 160.097 70.1523 159.484 69.6258 158.927C68.647 157.785 67.3032 157.017 65.8224 156.752C65.4791 156.71 65.1323 156.704 64.7877 156.735C63.6455 156.865 62.5506 157.264 61.5934 157.901C60.9428 158.306 60.3386 158.781 59.7918 159.318C59.6841 159.429 59.6153 159.573 59.5957 159.726C59.5761 159.88 59.6068 160.036 59.6832 160.171C60.0778 160.828 60.5424 161.44 61.0689 161.997C62.0475 163.14 63.3914 163.909 64.8724 164.174C64.9252 164.18 64.9742 164.186 65.0258 164.191C65.3188 164.218 65.6136 164.217 65.9065 164.191Z" fill="white" fill-opacity="0.51"/>
<path d="M66.4245 142.753C66.5509 142.742 66.6721 142.698 66.7757 142.625C66.8793 142.551 66.9616 142.452 67.0142 142.336C67.3154 141.632 67.5395 140.897 67.6826 140.144C68.0372 138.683 67.8754 137.144 67.2249 135.788C66.4421 134.502 65.2386 133.528 63.8187 133.029C63.1092 132.739 62.3704 132.528 61.6153 132.397C61.4618 132.374 61.305 132.402 61.1686 132.476C61.0323 132.551 60.9239 132.667 60.8597 132.809C60.5577 133.513 60.3327 134.247 60.1886 135C59.8345 136.462 59.9972 138.002 60.6491 139.358C61.4312 140.643 62.6335 141.617 64.0521 142.117C64.7616 142.406 65.5004 142.618 66.2555 142.748C66.3114 142.756 66.3682 142.758 66.4245 142.753Z" fill="white" fill-opacity="0.51"/>
<path d="M103.134 153.621C102.437 153.564 101.747 153.436 101.076 153.239C100.928 153.192 100.8 153.098 100.71 152.972C100.62 152.846 100.573 152.694 100.576 152.539C100.613 151.773 100.733 151.014 100.934 150.274C101.256 148.805 102.076 147.492 103.256 146.558C104.522 145.746 106.03 145.396 107.525 145.569C107.592 145.575 107.658 145.581 107.723 145.587C108.421 145.644 109.11 145.772 109.782 145.969C109.93 146.016 110.058 146.11 110.148 146.236C110.238 146.361 110.285 146.513 110.282 146.668C110.245 147.433 110.125 148.193 109.925 148.932C109.602 150.402 108.782 151.715 107.602 152.648C106.336 153.461 104.828 153.811 103.333 153.639C103.266 153.633 103.199 153.627 103.134 153.621Z" fill="white" fill-opacity="0.51"/>
<path d="M91.6911 171.689C90.4862 171.623 89.3284 171.199 88.3651 170.472C87.2454 169.468 86.5077 168.106 86.2773 166.62C86.1213 165.869 86.0482 165.104 86.0593 164.337C86.0656 164.182 86.1218 164.034 86.2195 163.913C86.3172 163.793 86.4511 163.708 86.6013 163.67C87.3488 163.501 88.1126 163.415 88.8789 163.413C89.1771 163.41 89.4709 163.422 89.7531 163.447C90.9582 163.512 92.1165 163.935 93.0803 164.662C94.2002 165.667 94.9378 167.029 95.1679 168.516C95.3239 169.267 95.397 170.032 95.3859 170.799C95.3795 170.954 95.3232 171.102 95.2253 171.223C95.1274 171.343 94.9933 171.428 94.8429 171.466C94.0954 171.635 93.3316 171.722 92.5652 171.724C92.2677 171.725 91.9733 171.714 91.6911 171.689Z" fill="white" fill-opacity="0.51"/>
<path d="M100.639 164.2C99.4966 164.071 98.4009 163.671 97.4431 163.034C96.7925 162.629 96.1883 162.153 95.6416 161.616C95.5338 161.504 95.465 161.361 95.4453 161.207C95.4256 161.054 95.4562 160.898 95.5324 160.763C95.927 160.106 96.3916 159.493 96.9182 158.936C97.8966 157.794 99.2403 157.025 100.721 156.76C101.064 156.717 101.411 156.711 101.756 156.742C102.898 156.872 103.993 157.272 104.95 157.908C105.601 158.313 106.205 158.789 106.752 159.326C106.86 159.437 106.929 159.581 106.949 159.735C106.969 159.889 106.939 160.045 106.863 160.18C106.468 160.837 106.004 161.45 105.477 162.007C104.498 163.149 103.155 163.918 101.674 164.183C101.621 164.189 101.572 164.195 101.52 164.199C101.227 164.226 100.933 164.226 100.639 164.2Z" fill="white" fill-opacity="0.51"/>
<path d="M100.129 142.76C100.003 142.749 99.8813 142.705 99.7777 142.631C99.6741 142.558 99.5918 142.459 99.5392 142.343C99.2373 141.639 99.0125 140.904 98.8687 140.151C98.5147 138.689 98.6772 137.15 99.3285 135.795C100.111 134.51 101.314 133.535 102.733 133.035C103.443 132.746 104.181 132.534 104.937 132.404C105.09 132.381 105.247 132.408 105.383 132.483C105.52 132.557 105.628 132.673 105.693 132.814C105.995 133.519 106.221 134.255 106.365 135.008C106.718 136.47 106.556 138.009 105.904 139.364C105.122 140.649 103.92 141.624 102.501 142.124C101.792 142.413 101.053 142.625 100.298 142.755C100.242 142.763 100.185 142.765 100.129 142.76Z" fill="white" fill-opacity="0.51"/>
<path d="M72.6797 151.21C72.6797 151.199 72.6797 151.189 72.6797 151.179V136.373C72.6797 136.236 72.7345 136.103 72.832 136.006C72.9295 135.908 73.0617 135.854 73.1996 135.854H94.1003C94.2382 135.854 94.3705 135.908 94.468 136.006C94.5655 136.103 94.6203 136.236 94.6203 136.373V151.179C94.6203 151.189 94.6203 151.199 94.6203 151.21C94.5428 156.201 89.6618 160.23 83.65 160.23C77.6382 160.23 72.7582 156.203 72.6797 151.21Z" fill="white" fill-opacity="0.51"/>
<rect y="222" width="77" height="67" rx="12" fill="#FF4B4B"/>
<path d="M19.1369 254.071C19.8342 254.014 20.5238 253.886 21.1953 253.689C21.343 253.642 21.4714 253.548 21.5615 253.422C21.6515 253.296 21.6984 253.144 21.6951 252.989C21.658 252.224 21.5381 251.464 21.3376 250.724C21.0154 249.255 20.1946 247.942 19.0146 247.009C17.7489 246.196 16.2408 245.846 14.7464 246.018C14.6791 246.024 14.6128 246.03 14.5465 246.036C13.8491 246.093 13.1592 246.221 12.4876 246.418C12.3401 246.465 12.2119 246.559 12.1221 246.685C12.0322 246.811 11.9855 246.963 11.9888 247.118C12.026 247.883 12.1458 248.643 12.3463 249.382C12.6682 250.852 13.4886 252.165 14.6683 253.099C15.9346 253.911 17.4429 254.26 18.9374 254.087C19.0051 254.082 19.0716 254.077 19.1369 254.071Z" fill="white" fill-opacity="0.31"/>
<path d="M30.564 272.133C31.7687 272.067 32.9266 271.644 33.8902 270.918C35.0099 269.913 35.7475 268.552 35.9779 267.065C36.1339 266.315 36.2071 265.549 36.1959 264.783C36.1896 264.628 36.1334 264.479 36.0357 264.359C35.9381 264.239 35.8041 264.153 35.6539 264.115C34.9053 263.946 34.1402 263.859 33.3725 263.857C33.0765 263.855 32.7827 263.866 32.5005 263.891C31.2958 263.957 30.1381 264.381 29.1749 265.107C28.0552 266.112 27.3176 267.473 27.0872 268.96C26.9312 269.711 26.8581 270.476 26.8691 271.243C26.8755 271.398 26.9317 271.546 27.0294 271.666C27.127 271.787 27.2609 271.872 27.4112 271.91C28.1587 272.079 28.9225 272.165 29.6888 272.167C29.9874 272.169 30.2818 272.158 30.564 272.133Z" fill="white" fill-opacity="0.31"/>
<path d="M21.6175 264.646C22.7597 264.516 23.8546 264.117 24.8118 263.48C25.4624 263.075 26.0665 262.599 26.6133 262.062C26.7211 261.951 26.7899 261.807 26.8096 261.654C26.8293 261.5 26.7987 261.344 26.7225 261.209C26.3279 260.552 25.8633 259.939 25.3367 259.383C24.3579 258.24 23.0141 257.472 21.5333 257.208C21.1901 257.165 20.8432 257.159 20.4987 257.19C19.3565 257.32 18.2615 257.719 17.3044 258.356C16.6537 258.761 16.0495 259.236 15.5027 259.773C15.395 259.884 15.3262 260.028 15.3066 260.182C15.287 260.335 15.3177 260.491 15.3941 260.626C15.7888 261.283 16.2534 261.896 16.7798 262.452C17.7585 263.595 19.1023 264.364 20.5834 264.629C20.6361 264.635 20.6851 264.641 20.7367 264.646C21.0297 264.673 21.3245 264.673 21.6175 264.646Z" fill="white" fill-opacity="0.31"/>
<path d="M22.1354 243.208C22.2618 243.197 22.383 243.153 22.4866 243.08C22.5902 243.006 22.6725 242.907 22.7252 242.792C23.0263 242.087 23.2504 241.352 23.3936 240.599C23.7481 239.138 23.5864 237.599 22.9358 236.243C22.153 234.958 20.9495 233.983 19.5297 233.484C18.8202 233.194 18.0814 232.983 17.3263 232.852C17.1727 232.83 17.0159 232.857 16.8796 232.932C16.7432 233.006 16.6348 233.122 16.5707 233.264C16.2686 233.968 16.0436 234.703 15.8995 235.455C15.5455 236.917 15.7082 238.457 16.36 239.813C17.1421 241.098 18.3444 242.072 19.7631 242.572C20.4726 242.861 21.2113 243.073 21.9664 243.203C22.0224 243.212 22.0791 243.213 22.1354 243.208Z" fill="white" fill-opacity="0.31"/>
<path d="M58.845 254.076C58.1478 254.019 57.4583 253.891 56.787 253.694C56.6394 253.647 56.5109 253.553 56.4209 253.427C56.3308 253.301 56.2839 253.149 56.2872 252.994C56.3243 252.228 56.4442 251.469 56.6447 250.729C56.9666 249.26 57.787 247.947 58.9667 247.014C60.2329 246.201 61.7412 245.852 63.2358 246.025C63.3026 246.03 63.3688 246.036 63.4341 246.042C64.1316 246.099 64.8214 246.228 65.4931 246.424C65.6405 246.471 65.7688 246.565 65.8588 246.691C65.9489 246.816 65.9959 246.968 65.993 247.123C65.9558 247.888 65.836 248.648 65.6355 249.387C65.3134 250.857 64.4928 252.17 63.313 253.103C62.0471 253.916 60.5389 254.266 59.0443 254.094C58.9767 254.088 58.9102 254.082 58.845 254.076Z" fill="white" fill-opacity="0.31"/>
<path d="M47.4021 272.144C46.1972 272.078 45.0393 271.654 44.076 270.928C42.9563 269.923 42.2187 268.562 41.9883 267.075C41.8322 266.324 41.7591 265.559 41.7702 264.792C41.7766 264.637 41.8328 264.489 41.9304 264.369C42.0281 264.248 42.162 264.163 42.3122 264.125C43.0597 263.956 43.8235 263.87 44.5899 263.868C44.888 263.866 45.1818 263.877 45.464 263.902C46.6692 263.968 47.8274 264.391 48.7913 265.117C49.9112 266.122 50.6488 267.484 50.8788 268.971C51.0348 269.722 51.1079 270.487 51.0969 271.254C51.0905 271.409 51.0341 271.557 50.9362 271.678C50.8384 271.798 50.7042 271.883 50.5538 271.921C49.8063 272.09 49.0425 272.177 48.2762 272.179C47.9786 272.18 47.6843 272.169 47.4021 272.144Z" fill="white" fill-opacity="0.31"/>
<path d="M56.3504 264.655C55.2075 264.526 54.1118 264.126 53.1541 263.489C52.5034 263.084 51.8993 262.608 51.3525 262.071C51.2448 261.96 51.1759 261.816 51.1562 261.663C51.1366 261.509 51.1671 261.353 51.2434 261.218C51.638 260.561 52.1026 259.948 52.6291 259.391C53.6076 258.249 54.9512 257.48 56.4321 257.215C56.7754 257.172 57.1223 257.166 57.4668 257.197C58.609 257.327 59.7039 257.727 60.6611 258.363C61.3118 258.769 61.9159 259.244 62.4626 259.781C62.5709 259.893 62.6403 260.036 62.6604 260.19C62.6804 260.344 62.65 260.5 62.5738 260.635C62.1792 261.292 61.7145 261.905 61.1881 262.462C60.2094 263.604 58.8656 264.373 57.3846 264.638C57.3319 264.644 57.2828 264.65 57.2313 264.654C56.9383 264.681 56.6435 264.681 56.3504 264.655Z" fill="white" fill-opacity="0.31"/>
<path d="M55.8399 243.215C55.7135 243.204 55.5923 243.16 55.4887 243.086C55.3851 243.013 55.3027 242.914 55.2501 242.798C54.9483 242.094 54.7235 241.359 54.5796 240.606C54.2257 239.144 54.3881 237.605 55.0394 236.25C55.8218 234.965 57.0248 233.99 58.4441 233.49C59.1536 233.201 59.8923 232.989 60.6474 232.859C60.801 232.836 60.9578 232.864 61.0943 232.938C61.2308 233.012 61.3394 233.128 61.4037 233.269C61.7062 233.974 61.9315 234.71 62.0756 235.463C62.4292 236.925 62.2666 238.464 61.6153 239.819C60.8333 241.104 59.631 242.079 58.2122 242.579C57.5027 242.868 56.7639 243.08 56.0088 243.21C55.9529 243.218 55.8962 243.22 55.8399 243.215Z" fill="white" fill-opacity="0.31"/>
<path d="M28.3906 251.667C28.3906 251.656 28.3906 251.646 28.3906 251.636V236.83C28.3906 236.693 28.4454 236.56 28.5429 236.463C28.6404 236.365 28.7727 236.311 28.9105 236.311H49.8113C49.9492 236.311 50.0814 236.365 50.1789 236.463C50.2764 236.56 50.3312 236.693 50.3312 236.83V251.636C50.3312 251.646 50.3312 251.656 50.3312 251.667C50.2537 256.658 45.3727 260.687 39.3609 260.687C33.3491 260.687 28.4691 256.66 28.3906 251.667Z" fill="white" fill-opacity="0.31"/>
<rect x="89" y="297" width="76" height="62" rx="12" fill="#00CB7E"/>
<path d="M107.754 326.446C108.451 326.389 109.141 326.261 109.813 326.064C109.96 326.017 110.089 325.923 110.179 325.797C110.269 325.671 110.316 325.519 110.312 325.364C110.275 324.599 110.155 323.839 109.955 323.099C109.633 321.63 108.812 320.317 107.632 319.384C106.366 318.571 104.858 318.221 103.364 318.393C103.296 318.399 103.23 318.405 103.164 318.411C102.466 318.468 101.776 318.596 101.105 318.793C100.957 318.84 100.829 318.934 100.739 319.06C100.649 319.186 100.603 319.338 100.606 319.493C100.643 320.258 100.763 321.018 100.963 321.757C101.285 323.227 102.106 324.54 103.286 325.474C104.552 326.286 106.06 326.635 107.555 326.462C107.622 326.457 107.689 326.452 107.754 326.446Z" fill="white" fill-opacity="0.24"/>
<path d="M119.181 344.508C120.386 344.442 121.544 344.019 122.507 343.293C123.627 342.288 124.365 340.927 124.595 339.44C124.751 338.69 124.824 337.924 124.813 337.158C124.807 337.003 124.751 336.854 124.653 336.734C124.555 336.614 124.421 336.528 124.271 336.49C123.522 336.321 122.757 336.234 121.99 336.232C121.694 336.23 121.4 336.241 121.118 336.266C119.913 336.332 118.755 336.756 117.792 337.482C116.672 338.487 115.935 339.848 115.704 341.335C115.548 342.086 115.475 342.851 115.486 343.618C115.493 343.773 115.549 343.921 115.647 344.041C115.744 344.162 115.878 344.247 116.028 344.285C116.776 344.454 117.54 344.54 118.306 344.542C118.605 344.544 118.899 344.533 119.181 344.508Z" fill="white" fill-opacity="0.24"/>
<path d="M110.235 337.021C111.377 336.891 112.472 336.492 113.429 335.855C114.08 335.45 114.684 334.974 115.231 334.437C115.338 334.326 115.407 334.182 115.427 334.029C115.446 333.875 115.416 333.719 115.34 333.584C114.945 332.927 114.48 332.314 113.954 331.758C112.975 330.615 111.631 329.847 110.151 329.583C109.807 329.54 109.46 329.534 109.116 329.565C107.974 329.695 106.879 330.094 105.922 330.731C105.271 331.136 104.667 331.611 104.12 332.148C104.012 332.259 103.943 332.403 103.924 332.557C103.904 332.71 103.935 332.866 104.011 333.001C104.406 333.658 104.871 334.271 105.397 334.827C106.376 335.97 107.719 336.739 109.201 337.004C109.253 337.01 109.302 337.016 109.354 337.021C109.647 337.048 109.942 337.048 110.235 337.021Z" fill="white" fill-opacity="0.24"/>
<path d="M110.753 315.583C110.879 315.572 111 315.528 111.104 315.455C111.207 315.381 111.29 315.282 111.342 315.167C111.644 314.462 111.868 313.727 112.011 312.974C112.365 311.513 112.204 309.974 111.553 308.618C110.77 307.333 109.567 306.358 108.147 305.859C107.437 305.569 106.699 305.358 105.943 305.227C105.79 305.205 105.633 305.232 105.497 305.307C105.36 305.381 105.252 305.497 105.188 305.639C104.886 306.343 104.661 307.078 104.517 307.83C104.163 309.292 104.325 310.832 104.977 312.188C105.759 313.473 106.962 314.447 108.38 314.947C109.09 315.236 109.829 315.448 110.584 315.578C110.64 315.587 110.696 315.588 110.753 315.583Z" fill="white" fill-opacity="0.24"/>
<path d="M147.447 326.451C146.749 326.394 146.06 326.266 145.389 326.069C145.241 326.022 145.112 325.928 145.022 325.802C144.932 325.676 144.885 325.524 144.889 325.369C144.926 324.603 145.046 323.844 145.246 323.104C145.568 321.635 146.389 320.322 147.568 319.389C148.834 318.576 150.343 318.227 151.837 318.4C151.904 318.405 151.97 318.411 152.036 318.417C152.733 318.474 153.423 318.603 154.095 318.799C154.242 318.846 154.37 318.94 154.46 319.066C154.55 319.191 154.598 319.343 154.595 319.498C154.557 320.263 154.438 321.023 154.237 321.762C153.915 323.232 153.094 324.545 151.915 325.478C150.649 326.291 149.14 326.641 147.646 326.469C147.578 326.463 147.512 326.457 147.447 326.451Z" fill="white" fill-opacity="0.24"/>
<path d="M136.004 344.519C134.799 344.453 133.641 344.029 132.678 343.303C131.558 342.298 130.82 340.937 130.59 339.45C130.434 338.699 130.361 337.934 130.372 337.167C130.378 337.012 130.434 336.864 130.532 336.744C130.63 336.623 130.764 336.538 130.914 336.5C131.661 336.331 132.425 336.245 133.191 336.243C133.49 336.241 133.783 336.252 134.066 336.277C135.271 336.343 136.429 336.766 137.393 337.492C138.513 338.497 139.25 339.859 139.48 341.346C139.636 342.097 139.71 342.862 139.698 343.629C139.692 343.784 139.636 343.932 139.538 344.053C139.44 344.173 139.306 344.258 139.155 344.296C138.408 344.465 137.644 344.552 136.878 344.554C136.58 344.555 136.286 344.544 136.004 344.519Z" fill="white" fill-opacity="0.24"/>
<path d="M144.952 337.03C143.809 336.901 142.713 336.501 141.756 335.864C141.105 335.459 140.501 334.983 139.954 334.446C139.846 334.335 139.777 334.191 139.758 334.038C139.738 333.884 139.769 333.728 139.845 333.593C140.24 332.936 140.704 332.323 141.231 331.766C142.209 330.624 143.553 329.855 145.034 329.59C145.377 329.547 145.724 329.541 146.068 329.572C147.211 329.702 148.305 330.102 149.263 330.738C149.913 331.144 150.517 331.619 151.064 332.156C151.173 332.268 151.242 332.411 151.262 332.565C151.282 332.719 151.252 332.875 151.175 333.01C150.781 333.667 150.316 334.28 149.79 334.837C148.811 335.979 147.467 336.748 145.986 337.013C145.933 337.019 145.884 337.025 145.833 337.029C145.54 337.056 145.245 337.056 144.952 337.03Z" fill="white" fill-opacity="0.24"/>
<path d="M144.441 315.59C144.315 315.579 144.194 315.535 144.09 315.461C143.987 315.388 143.904 315.289 143.852 315.173C143.55 314.469 143.325 313.734 143.181 312.981C142.827 311.519 142.99 309.98 143.641 308.625C144.423 307.34 145.626 306.365 147.046 305.865C147.755 305.576 148.494 305.364 149.249 305.234C149.403 305.211 149.559 305.239 149.696 305.313C149.832 305.387 149.941 305.503 150.005 305.644C150.308 306.349 150.533 307.085 150.677 307.838C151.031 309.3 150.868 310.839 150.217 312.194C149.435 313.479 148.233 314.454 146.814 314.954C146.104 315.243 145.366 315.455 144.61 315.585C144.554 315.593 144.498 315.595 144.441 315.59Z" fill="white" fill-opacity="0.24"/>
<path d="M116.984 324.042C116.984 324.031 116.984 324.021 116.984 324.011V309.205C116.984 309.068 117.039 308.935 117.137 308.838C117.234 308.74 117.366 308.686 117.504 308.686H138.405C138.543 308.686 138.675 308.74 138.773 308.838C138.87 308.935 138.925 309.068 138.925 309.205V324.011C138.925 324.021 138.925 324.031 138.925 324.042C138.847 329.033 133.966 333.062 127.955 333.062C121.943 333.062 117.063 329.035 116.984 324.042Z" fill="white" fill-opacity="0.24"/>
<rect x="145" y="50" width="75" height="91" rx="12" fill="#58CC02"/>
<path d="M162.824 82.3214C163.522 82.2638 164.211 82.1357 164.883 81.9392C165.03 81.8919 165.159 81.7983 165.249 81.6721C165.339 81.546 165.386 81.3941 165.383 81.2391C165.345 80.4735 165.226 79.7142 165.025 78.9744C164.703 77.5048 163.882 76.192 162.702 75.2587C161.436 74.4457 159.928 74.0957 158.434 74.2681C158.367 74.274 158.3 74.2798 158.234 74.2856C157.537 74.3431 156.847 74.4712 156.175 74.6679C156.028 74.7152 155.899 74.809 155.81 74.9351C155.72 75.0612 155.673 75.213 155.676 75.3678C155.713 76.1334 155.833 76.8927 156.034 77.6325C156.356 79.1021 157.176 80.4152 158.356 81.3488C159.622 82.1612 161.13 82.5105 162.625 82.3373C162.693 82.3324 162.759 82.3271 162.824 82.3214Z" fill="white" fill-opacity="0.75"/>
<path d="M174.251 100.383C175.456 100.317 176.614 99.8942 177.578 99.168C178.697 98.1632 179.435 96.802 179.665 95.3153C179.821 94.5648 179.895 93.7993 179.883 93.0328C179.877 92.878 179.821 92.7293 179.723 92.609C179.626 92.4888 179.492 92.4033 179.341 92.3653C178.593 92.1956 177.828 92.109 177.06 92.1069C176.764 92.1046 176.47 92.1162 176.188 92.1408C174.983 92.2073 173.826 92.6309 172.862 93.3575C171.743 94.3623 171.005 95.7235 170.775 97.2101C170.619 97.9607 170.546 98.7262 170.557 99.4927C170.563 99.6475 170.619 99.7961 170.717 99.9164C170.815 100.037 170.948 100.122 171.099 100.16C171.846 100.329 172.61 100.415 173.376 100.417C173.675 100.419 173.969 100.408 174.251 100.383Z" fill="white" fill-opacity="0.75"/>
<path d="M165.305 92.8962C166.447 92.7664 167.542 92.3667 168.499 91.7301C169.15 91.3248 169.754 90.8493 170.301 90.3121C170.409 90.2006 170.477 90.0573 170.497 89.9036C170.517 89.7498 170.486 89.5938 170.41 89.4588C170.015 88.8018 169.551 88.1894 169.024 87.6325C168.045 86.4904 166.702 85.7219 165.221 85.4576C164.878 85.4147 164.531 85.4088 164.186 85.4399C163.044 85.5697 161.949 85.9694 160.992 86.606C160.341 87.0109 159.737 87.486 159.19 88.023C159.082 88.1344 159.014 88.2777 158.994 88.4315C158.975 88.5853 159.005 88.7413 159.082 88.8762C159.476 89.5332 159.941 90.1455 160.467 90.7025C161.446 91.8452 162.79 92.6142 164.271 92.879C164.324 92.8853 164.373 92.891 164.424 92.8964C164.717 92.9226 165.012 92.9225 165.305 92.8962Z" fill="white" fill-opacity="0.75"/>
<path d="M165.823 71.4583C165.949 71.4473 166.071 71.4028 166.174 71.3296C166.278 71.2564 166.36 71.157 166.413 71.0415C166.714 70.3369 166.938 69.6018 167.081 68.849C167.436 67.3877 167.274 65.8487 166.623 64.4929C165.841 63.2076 164.637 62.2327 163.217 61.7338C162.508 61.4444 161.769 61.2327 161.014 61.1024C160.86 61.0795 160.703 61.1073 160.567 61.1815C160.431 61.2558 160.322 61.3724 160.258 61.5138C159.956 62.2179 159.731 62.9525 159.587 63.705C159.233 65.1672 159.396 66.707 160.048 68.0629C160.83 69.3476 162.032 70.3223 163.451 70.8218C164.16 71.1112 164.899 71.3229 165.654 71.4532C165.71 71.4616 165.767 71.4633 165.823 71.4583Z" fill="white" fill-opacity="0.75"/>
<path d="M202.517 82.3263C201.82 82.2687 201.13 82.1406 200.459 81.9441C200.311 81.8969 200.183 81.8032 200.093 81.677C200.003 81.5509 199.956 81.399 199.959 81.244C199.996 80.4784 200.116 79.7191 200.317 78.9794C200.639 77.5099 201.459 76.197 202.639 75.2635C203.905 74.4509 205.413 74.1015 206.908 74.2746C206.974 74.2804 207.041 74.2862 207.106 74.2919C207.803 74.3495 208.493 74.4776 209.165 74.6742C209.312 74.7213 209.441 74.8147 209.531 74.9406C209.621 75.0664 209.668 75.218 209.665 75.3727C209.628 76.1383 209.508 76.8976 209.307 77.6374C208.985 79.1069 208.165 80.4197 206.985 81.3531C205.719 82.1662 204.211 82.5162 202.716 82.3437C202.649 82.3378 202.582 82.332 202.517 82.3263Z" fill="white" fill-opacity="0.75"/>
<path d="M191.074 100.394C189.869 100.328 188.711 99.9042 187.748 99.1775C186.628 98.1727 185.891 96.8115 185.66 95.3249C185.504 94.5743 185.431 93.8088 185.442 93.0423C185.448 92.8875 185.505 92.7389 185.602 92.6186C185.7 92.4983 185.834 92.4128 185.984 92.3748C186.732 92.2058 187.495 92.1196 188.262 92.1177C188.56 92.1156 188.854 92.1271 189.136 92.1518C190.341 92.2175 191.499 92.6406 192.463 93.367C193.583 94.3722 194.321 95.734 194.551 97.2212C194.707 97.9718 194.78 98.7372 194.769 99.5038C194.762 99.6587 194.706 99.8074 194.608 99.9277C194.51 100.048 194.376 100.133 194.226 100.171C193.478 100.34 192.714 100.427 191.948 100.429C191.65 100.43 191.356 100.419 191.074 100.394Z" fill="white" fill-opacity="0.75"/>
<path d="M200.022 92.9053C198.879 92.7758 197.784 92.376 196.826 91.739C196.175 91.3338 195.571 90.8582 195.024 90.321C194.917 90.2096 194.848 90.0663 194.828 89.9125C194.808 89.7587 194.839 89.6027 194.915 89.4678C195.31 88.8107 195.774 88.1984 196.301 87.6415C197.279 86.4988 198.623 85.7298 200.104 85.4649C200.447 85.422 200.794 85.4161 201.139 85.4473C202.281 85.577 203.376 85.9767 204.333 86.6133C204.984 87.0185 205.588 87.4941 206.134 88.0313C206.243 88.1426 206.312 88.2859 206.332 88.4398C206.352 88.5938 206.322 88.7501 206.246 88.8853C205.851 89.5423 205.386 90.1546 204.86 90.7116C203.881 91.8542 202.537 92.623 201.056 92.8876C201.004 92.8939 200.955 92.8996 200.903 92.9045C200.61 92.931 200.315 92.9313 200.022 92.9053Z" fill="white" fill-opacity="0.75"/>
<path d="M199.512 71.4651C199.385 71.454 199.264 71.4096 199.161 71.3364C199.057 71.2632 198.975 71.1638 198.922 71.0483C198.62 70.3439 198.395 69.6089 198.251 68.8562C197.898 67.3945 198.06 65.8553 198.711 64.4997C199.494 63.2146 200.697 62.2397 202.116 61.7405C202.825 61.4511 203.564 61.2393 204.319 61.109C204.473 61.0859 204.63 61.1135 204.766 61.1876C204.903 61.2616 205.011 61.3781 205.076 61.5195C205.378 62.2243 205.603 62.9599 205.747 63.7133C206.101 65.1749 205.938 66.7138 205.287 68.0692C204.505 69.3541 203.303 70.329 201.884 70.8286C201.175 71.118 200.436 71.3297 199.681 71.46C199.625 71.4683 199.568 71.47 199.512 71.4651Z" fill="white" fill-opacity="0.75"/>
<path d="M172.062 79.9169C172.062 79.9065 172.062 79.8961 172.062 79.8857V65.0805C172.062 64.9426 172.117 64.8103 172.215 64.7128C172.312 64.6153 172.445 64.5605 172.582 64.5605H193.483C193.621 64.5605 193.753 64.6153 193.851 64.7128C193.948 64.8103 194.003 64.9426 194.003 65.0805V79.8857C194.003 79.8961 194.003 79.9065 194.003 79.9169C193.926 84.9081 189.045 88.9375 183.033 88.9375C177.021 88.9375 172.141 84.9097 172.062 79.9169Z" fill="white" fill-opacity="0.75"/>
<rect x="258" width="78" height="116" rx="12" fill="#FFB100"/>
<path d="M277.332 31.8351C278.029 31.7775 278.719 31.6494 279.391 31.4528C279.538 31.4056 279.667 31.3119 279.757 31.1858C279.847 31.0596 279.894 30.9077 279.89 30.7528C279.853 29.9872 279.733 29.2279 279.533 28.4881C279.211 27.0185 278.39 25.7057 277.21 24.7724C275.944 23.9594 274.436 23.6094 272.942 23.7818C272.874 23.7876 272.808 23.7934 272.742 23.7992C272.044 23.8568 271.355 23.9849 270.683 24.1815C270.535 24.2289 270.407 24.3227 270.317 24.4488C270.228 24.5749 270.181 24.7267 270.184 24.8815C270.221 25.6471 270.341 26.4064 270.542 27.1462C270.863 28.6158 271.684 29.9289 272.864 30.8625C274.13 31.6749 275.638 32.0241 277.133 31.851C277.2 31.8461 277.267 31.8408 277.332 31.8351Z" fill="white"/>
<path d="M288.759 49.8968C289.964 49.8308 291.122 49.4078 292.085 48.6816C293.205 47.6769 293.943 46.3157 294.173 44.829C294.329 44.0784 294.402 43.313 294.391 42.5464C294.385 42.3916 294.329 42.243 294.231 42.1227C294.133 42.0024 293.999 41.9169 293.849 41.8789C293.101 41.7093 292.335 41.6227 291.568 41.6206C291.272 41.6183 290.978 41.6299 290.696 41.6545C289.491 41.721 288.333 42.1445 287.37 42.8712C286.251 43.876 285.513 45.2371 285.283 46.7238C285.127 47.4744 285.053 48.2398 285.064 49.0064C285.071 49.1612 285.127 49.3098 285.225 49.4301C285.322 49.5504 285.456 49.6359 285.606 49.6739C286.354 49.8427 287.118 49.9289 287.884 49.931C288.183 49.9331 288.477 49.9214 288.759 49.8968Z" fill="white"/>
<path d="M279.813 42.4098C280.955 42.28 282.05 41.8804 283.007 41.2438C283.658 40.8385 284.262 40.363 284.809 39.8258C284.916 39.7143 284.985 39.571 285.005 39.4172C285.025 39.2635 284.994 39.1075 284.918 38.9725C284.523 38.3155 284.059 37.7031 283.532 37.1462C282.553 36.004 281.209 35.2356 279.729 34.9712C279.385 34.9283 279.039 34.9224 278.694 34.9536C277.552 35.0834 276.457 35.4831 275.5 36.1197C274.849 36.5245 274.245 36.9997 273.698 37.5366C273.59 37.6481 273.522 37.7914 273.502 37.9452C273.482 38.099 273.513 38.255 273.589 38.3899C273.984 39.0468 274.449 39.6592 274.975 40.2161C275.954 41.3589 277.298 42.1279 278.779 42.3927C278.831 42.399 278.88 42.4046 278.932 42.4101C279.225 42.4363 279.52 42.4362 279.813 42.4098Z" fill="white"/>
<path d="M280.331 20.972C280.457 20.9609 280.578 20.9165 280.682 20.8433C280.786 20.7701 280.868 20.6707 280.92 20.5552C281.222 19.8506 281.446 19.1155 281.589 18.3627C281.943 16.9014 281.782 15.3624 281.131 14.0066C280.348 12.7212 279.145 11.7464 277.725 11.2475C277.015 10.9581 276.277 10.7464 275.522 10.6161C275.368 10.5932 275.211 10.621 275.075 10.6952C274.939 10.7695 274.83 10.8861 274.766 11.0275C274.464 11.7315 274.239 12.4662 274.095 13.2187C273.741 14.6809 273.903 16.2206 274.555 17.5766C275.337 18.8613 276.54 19.836 277.958 20.3355C278.668 20.6249 279.407 20.8366 280.162 20.9669C280.218 20.9752 280.274 20.9769 280.331 20.972Z" fill="white"/>
<path d="M317.025 31.84C316.328 31.7823 315.638 31.6543 314.967 31.4578C314.819 31.4105 314.691 31.3169 314.601 31.1907C314.51 31.0645 314.464 30.9127 314.467 30.7577C314.504 29.9921 314.624 29.2328 314.824 28.493C315.146 27.0236 315.967 25.7107 317.146 24.7772C318.413 23.9646 319.921 23.6152 321.415 23.7882C321.482 23.7941 321.549 23.7999 321.614 23.8056C322.311 23.8632 323.001 23.9912 323.673 24.1879C323.82 24.235 323.948 24.3284 324.039 24.4543C324.129 24.5801 324.176 24.7317 324.173 24.8864C324.136 25.652 324.016 26.4113 323.815 27.151C323.493 28.6206 322.673 29.9334 321.493 30.8668C320.227 31.6799 318.719 32.0299 317.224 31.8574C317.156 31.8515 317.09 31.8457 317.025 31.84Z" fill="white"/>
<path d="M305.582 49.9079C304.377 49.8414 303.219 49.4179 302.256 48.6912C301.136 47.6864 300.398 46.3252 300.168 44.8385C300.012 44.088 299.939 43.3225 299.95 42.556C299.956 42.4012 300.012 42.2525 300.11 42.1322C300.208 42.012 300.342 41.9265 300.492 41.8885C301.239 41.7195 302.003 41.6333 302.77 41.6314C303.068 41.6292 303.361 41.6408 303.644 41.6655C304.849 41.7312 306.007 42.1542 306.971 42.8807C308.091 43.8859 308.828 45.2477 309.059 46.7349C309.215 47.4855 309.288 48.2509 309.277 49.0175C309.27 49.1724 309.214 49.3211 309.116 49.4414C309.018 49.5617 308.884 49.6471 308.734 49.6849C307.986 49.8539 307.222 49.9403 306.456 49.9425C306.158 49.9442 305.864 49.9325 305.582 49.9079Z" fill="white"/>
<path d="M314.53 42.4189C313.387 42.2894 312.292 41.8897 311.334 41.2527C310.683 40.8474 310.079 40.3719 309.532 39.8347C309.424 39.7232 309.356 39.58 309.336 39.4262C309.316 39.2724 309.347 39.1164 309.423 38.9814C309.818 38.3244 310.282 37.7121 310.809 37.1551C311.787 36.0125 313.131 35.2434 314.612 34.9786C314.955 34.9357 315.302 34.9298 315.646 34.9609C316.789 35.0907 317.884 35.4904 318.841 36.127C319.491 36.5322 320.096 37.0077 320.642 37.545C320.751 37.6562 320.82 37.7995 320.84 37.9535C320.86 38.1074 320.83 38.2637 320.753 38.399C320.359 39.056 319.894 39.6683 319.368 40.2253C318.389 41.3679 317.045 42.1367 315.564 42.4013C315.512 42.4076 315.463 42.4133 315.411 42.4181C315.118 42.4447 314.823 42.445 314.53 42.4189Z" fill="white"/>
<path d="M314.02 20.9788C313.893 20.9677 313.772 20.9233 313.668 20.8501C313.565 20.7768 313.482 20.6774 313.43 20.562C313.128 19.8576 312.903 19.1226 312.759 18.3698C312.405 16.9081 312.568 15.369 313.219 14.0134C314.002 12.7283 315.204 11.7534 316.624 11.2541C317.333 10.9647 318.072 10.753 318.827 10.6227C318.981 10.5996 319.138 10.6272 319.274 10.7013C319.41 10.7753 319.519 10.8918 319.583 11.0331C319.886 11.738 320.111 12.4736 320.255 13.227C320.609 14.6886 320.446 16.2275 319.795 17.5829C319.013 18.8677 317.811 19.8426 316.392 20.3423C315.682 20.6317 314.944 20.8434 314.189 20.9737C314.133 20.982 314.076 20.9837 314.02 20.9788Z" fill="white"/>
<path d="M286.57 29.4305C286.57 29.4201 286.57 29.4097 286.57 29.3993V14.5941C286.57 14.4562 286.625 14.324 286.723 14.2265C286.82 14.129 286.952 14.0742 287.09 14.0742H307.991C308.129 14.0742 308.261 14.129 308.359 14.2265C308.456 14.324 308.511 14.4562 308.511 14.5941V29.3993C308.511 29.4097 308.511 29.4201 308.511 29.4305C308.433 34.4218 303.552 38.4511 297.541 38.4511C291.529 38.4511 286.649 34.4233 286.57 29.4305Z" fill="white"/>
<path fill-rule="evenodd" clip-rule="evenodd" d="M200.141 162.494C189.095 162.494 180.141 171.448 180.141 182.494V294.298C180.141 305.344 189.095 314.298 200.141 314.298H223.25C223.314 314.807 223.48 315.319 223.762 315.808L230.836 328.061C232.376 330.727 236.225 330.727 237.764 328.061L244.838 315.808C245.121 315.319 245.287 314.807 245.35 314.298H361.348C372.394 314.298 381.348 305.344 381.348 294.298V182.494C381.348 171.448 372.394 162.494 361.348 162.494H200.141Z" fill="#EBC9FF"/>
<path d="M251.68 293.386L252.636 282.731C252.677 282.282 252.76 281.823 252.884 281.395C253.008 280.953 253.188 280.531 253.394 280.125C253.6 279.719 253.86 279.346 254.147 278.989C254.434 278.633 254.76 278.309 255.098 278.014C255.436 277.718 255.826 277.47 256.228 277.252C256.629 277.033 257.041 276.858 257.479 276.713C257.916 276.568 258.363 276.481 258.82 276.437C259.276 276.393 259.729 276.392 260.179 276.432L302.054 280.192C302.503 280.232 302.963 280.316 303.39 280.439C303.818 280.563 304.254 280.743 304.66 280.95C305.066 281.156 305.439 281.416 305.796 281.702C306.152 281.989 306.477 282.315 306.772 282.653C307.066 283.005 307.315 283.381 307.533 283.783C307.752 284.185 307.927 284.597 308.072 285.034C308.217 285.472 308.304 285.918 308.348 286.375C308.392 286.832 308.394 287.285 308.353 287.734L307.397 298.389C307.356 298.838 307.273 299.298 307.149 299.725C307.026 300.153 306.845 300.589 306.639 300.995C306.433 301.401 306.173 301.774 305.886 302.131C305.599 302.487 305.273 302.812 304.935 303.107C304.583 303.401 304.207 303.65 303.805 303.868C303.404 304.087 302.992 304.262 302.554 304.407C302.117 304.552 301.67 304.639 301.213 304.683C300.757 304.727 300.304 304.729 299.854 304.688L257.979 300.928C257.53 300.888 257.07 300.804 256.643 300.681C256.215 300.558 255.778 300.377 255.372 300.171C254.966 299.964 254.594 299.704 254.237 299.418C253.881 299.131 253.556 298.805 253.261 298.467C252.967 298.115 252.718 297.739 252.499 297.337C252.281 296.935 252.106 296.523 251.961 296.086C251.83 295.65 251.729 295.202 251.685 294.745C251.641 294.288 251.639 293.835 251.68 293.386Z" fill="#777777"/>
<path d="M275.282 243.84L254.526 263.968C249.721 268.631 241.978 268.501 237.315 263.696L236.15 262.487C231.487 257.682 231.616 249.939 236.421 245.276L257.177 225.148C261.983 220.486 269.726 220.615 274.389 225.42L275.554 226.629C280.203 231.433 280.088 239.177 275.282 243.84Z" fill="#1CB0F6"/>
<path d="M323.335 277.761L304.22 252.044C300.268 246.722 301.388 239.139 306.711 235.173L307.879 234.302C313.201 230.35 320.784 231.47 324.75 236.793L343.865 262.51C347.817 267.832 346.697 275.415 341.374 279.381L340.206 280.252C334.884 284.204 327.287 283.083 323.335 277.761Z" fill="#1CB0F6"/>
<path d="M326.226 280.609L300.407 261.621C295.071 257.689 293.911 250.113 297.831 244.762L298.701 243.581C302.633 238.245 310.209 237.086 315.56 241.005L341.379 259.993C346.715 263.925 347.874 271.501 343.955 276.852L343.085 278.033C339.151 283.383 331.561 284.541 326.226 280.609Z" fill="#1CB0F6"/>
<path d="M263.473 215.796L264.478 209.801C264.567 209.286 264.698 208.774 264.883 208.281C265.069 207.788 265.31 207.315 265.576 206.872C265.856 206.43 266.177 206.006 266.537 205.628C266.896 205.25 267.295 204.903 267.72 204.588C268.143 204.286 268.606 204.016 269.092 203.805C269.578 203.594 270.074 203.426 270.581 203.302C271.101 203.179 271.617 203.112 272.141 203.103C272.667 203.079 273.186 203.126 273.717 203.202L316.143 210.28C316.659 210.369 317.171 210.5 317.664 210.685C318.156 210.871 318.63 211.112 319.073 211.378C319.515 211.658 319.939 211.979 320.317 212.339C320.695 212.698 321.042 213.097 321.357 213.522C321.673 213.946 321.929 214.408 322.14 214.894C322.351 215.38 322.519 215.876 322.643 216.383C322.767 216.889 322.833 217.418 322.842 217.943C322.866 218.469 322.819 218.988 322.743 219.519L321.738 225.514C321.649 226.029 321.518 226.541 321.333 227.034C321.147 227.527 320.906 228 320.64 228.443C320.36 228.885 320.039 229.309 319.679 229.687C319.32 230.066 318.921 230.412 318.496 230.727C318.073 231.029 317.61 231.299 317.124 231.51C316.638 231.721 316.142 231.889 315.636 232.013C315.129 232.137 314.6 232.203 314.075 232.213C313.549 232.236 313.03 232.19 312.499 232.114L270.073 225.035C269.557 224.946 269.045 224.816 268.552 224.63C268.06 224.444 267.586 224.203 267.143 223.937C266.701 223.657 266.277 223.336 265.899 222.976C265.521 222.617 265.175 222.218 264.859 221.793C264.557 221.37 264.287 220.907 264.076 220.421C263.865 219.935 263.698 219.439 263.573 218.933C263.449 218.426 263.383 217.897 263.374 217.372C263.364 216.848 263.397 216.327 263.473 215.796Z" fill="#1899D6"/>
<path d="M278.283 218.938L304.717 223.349C318.325 225.618 327.49 238.597 325.195 252.344L320.356 281.33C319.062 289.124 311.752 294.411 304.028 293.123L256.276 285.156C248.566 283.87 243.354 276.51 244.663 268.703L249.502 239.717C251.797 225.97 264.689 216.67 278.283 218.938Z" fill="#F0F0F0"/>
<path d="M278.312 218.943C280.793 219.364 282.479 221.708 282.058 224.19L272.219 283.18C271.798 285.661 269.453 287.347 266.972 286.926L246.84 283.561C244.359 283.141 242.673 280.796 243.094 278.315L249.569 239.457C251.823 225.862 264.704 216.674 278.312 218.943Z" fill="#1CB0F6"/>
<path d="M314.331 294.824L294.199 291.459C291.717 291.039 290.032 288.694 290.453 286.213L300.292 227.222C300.713 224.741 303.058 223.056 305.539 223.476C319.146 225.746 328.336 238.613 326.067 252.221L319.592 291.079C319.171 293.56 316.812 295.245 314.331 294.824Z" fill="#1CB0F6"/>
<path d="M294.718 206.698C298.371 207.309 300.848 210.772 300.237 214.425L298.65 223.905C298.039 227.558 294.576 230.034 290.923 229.423C287.27 228.812 284.793 225.349 285.404 221.697L286.991 212.216C287.602 208.564 291.065 206.087 294.718 206.698Z" fill="#EBA792"/>
<path d="M259.498 147.186L260.45 141.47C260.544 140.898 260.666 140.329 260.816 139.762C260.965 139.195 261.142 138.645 261.347 138.097C261.552 137.55 261.784 137.019 262.042 136.504C262.302 135.975 262.587 135.477 262.886 134.981C263.2 134.485 263.526 134.005 263.879 133.542C264.232 133.078 264.611 132.631 265.003 132.213C265.395 131.781 265.813 131.38 266.258 130.996C266.703 130.611 267.146 130.255 267.629 129.916C268.098 129.576 268.593 129.267 269.1 128.973C269.608 128.679 270.127 128.414 270.658 128.178C271.188 127.943 271.732 127.723 272.285 127.546C272.839 127.37 273.391 127.207 273.969 127.075C274.547 126.943 275.108 126.837 275.681 126.762C276.254 126.686 276.838 126.639 277.42 126.62C278.002 126.602 278.581 126.612 279.158 126.649C279.735 126.687 280.323 126.754 280.895 126.848L298.643 129.814C299.215 129.908 299.784 130.03 300.351 130.179C300.918 130.329 301.468 130.506 302.016 130.711C302.563 130.916 303.094 131.147 303.609 131.406C304.138 131.666 304.635 131.951 305.132 132.25C305.629 132.55 306.108 132.89 306.571 133.243C307.035 133.596 307.482 133.975 307.9 134.367C308.332 134.759 308.733 135.177 309.117 135.622C309.502 136.067 309.858 136.51 310.197 136.993C310.537 137.462 310.846 137.957 311.14 138.464C311.434 138.972 311.699 139.491 311.935 140.022C312.17 140.552 312.39 141.095 312.567 141.649C312.757 142.204 312.906 142.755 313.038 143.333C313.172 143.897 313.276 144.472 313.351 145.045C313.427 145.618 313.474 146.202 313.492 146.784C313.511 147.366 313.501 147.945 313.464 148.522C313.426 149.099 313.359 149.687 313.265 150.259L312.313 155.976C312.22 156.547 312.098 157.117 311.948 157.683C311.798 158.25 311.621 158.8 311.416 159.348C311.211 159.896 310.98 160.427 310.721 160.941C310.462 161.47 310.176 161.968 309.877 162.465C309.564 162.96 309.237 163.44 308.885 163.904C308.532 164.367 308.152 164.814 307.76 165.232C307.369 165.65 306.95 166.065 306.505 166.45C306.06 166.834 305.618 167.191 305.134 167.529C304.665 167.869 304.17 168.179 303.663 168.473C303.155 168.767 302.636 169.032 302.106 169.267C301.575 169.502 301.032 169.722 300.478 169.899C299.923 170.09 299.372 170.238 298.794 170.371C298.23 170.504 297.655 170.608 297.082 170.684C296.509 170.76 295.925 170.806 295.343 170.825C294.761 170.843 294.182 170.834 293.605 170.796C293.028 170.758 292.44 170.692 291.868 170.598L274.12 167.631C273.548 167.538 272.979 167.416 272.412 167.266C271.845 167.116 271.295 166.939 270.748 166.734C270.2 166.529 269.669 166.298 269.154 166.039C268.626 165.78 268.128 165.494 267.631 165.195C267.136 164.882 266.655 164.556 266.192 164.203C265.728 163.85 265.281 163.47 264.864 163.079C264.432 162.686 264.031 162.268 263.646 161.823C263.261 161.378 262.905 160.936 262.566 160.452C262.226 159.983 261.917 159.488 261.623 158.981C261.329 158.473 261.064 157.954 260.829 157.424C260.593 156.893 260.373 156.35 260.197 155.796C260.006 155.241 259.857 154.69 259.725 154.112C259.592 153.548 259.488 152.973 259.412 152.4C259.336 151.827 259.289 151.243 259.271 150.661C259.252 150.079 259.262 149.5 259.299 148.923C259.337 148.346 259.404 147.758 259.498 147.186Z" fill="#3D3D3D"/>
<path d="M289.279 163.245L290.231 157.528C290.325 156.956 290.447 156.387 290.597 155.82C290.747 155.254 290.923 154.704 291.128 154.156C291.333 153.608 291.565 153.077 291.823 152.563C292.082 152.048 292.368 151.536 292.668 151.039C292.967 150.543 293.307 150.064 293.66 149.6C294.013 149.137 294.393 148.689 294.784 148.272C295.175 147.854 295.595 147.439 296.04 147.054C296.485 146.67 296.927 146.313 297.41 145.975C297.879 145.635 298.374 145.325 298.882 145.031C299.389 144.737 299.908 144.472 300.439 144.237C300.969 144.002 301.513 143.782 302.066 143.605C302.621 143.414 303.172 143.265 303.75 143.133C304.314 143 304.889 142.896 305.462 142.82C306.035 142.744 306.62 142.698 307.201 142.679C307.783 142.661 308.363 142.67 308.939 142.708C309.516 142.745 310.105 142.812 310.676 142.906L329.038 145.97C329.61 146.064 330.179 146.186 330.746 146.336C331.313 146.486 331.863 146.662 332.411 146.867C332.958 147.072 333.49 147.304 334.004 147.562C334.519 147.821 335.031 148.107 335.527 148.406C336.024 148.706 336.503 149.046 336.967 149.399C337.43 149.752 337.877 150.132 338.295 150.523C338.727 150.915 339.128 151.334 339.512 151.778C339.897 152.223 340.253 152.666 340.592 153.149C340.932 153.618 341.241 154.113 341.536 154.621C341.83 155.128 342.094 155.647 342.33 156.178C342.565 156.708 342.785 157.252 342.962 157.805C343.153 158.36 343.301 158.911 343.433 159.489C343.567 160.053 343.671 160.628 343.747 161.201C343.822 161.774 343.869 162.359 343.888 162.94C343.906 163.522 343.897 164.102 343.859 164.678C343.821 165.255 343.754 165.844 343.66 166.415L342.709 172.132C342.615 172.704 342.493 173.273 342.343 173.84C342.193 174.406 342.016 174.957 341.811 175.504C341.607 176.052 341.375 176.583 341.116 177.097C340.857 177.626 340.571 178.124 340.272 178.621C339.959 179.116 339.633 179.596 339.28 180.06C338.927 180.524 338.547 180.971 338.156 181.388C337.763 181.82 337.345 182.221 336.9 182.606C336.455 182.99 336.013 183.347 335.529 183.686C335.06 184.025 334.566 184.335 334.058 184.629C333.55 184.923 333.031 185.188 332.501 185.423C331.97 185.658 331.427 185.879 330.873 186.055C330.318 186.246 329.767 186.395 329.189 186.527C328.626 186.66 328.05 186.764 327.477 186.84C326.904 186.916 326.32 186.962 325.738 186.981C325.156 186.999 324.577 186.99 324 186.952C323.423 186.915 322.835 186.848 322.263 186.754L303.901 183.69C303.329 183.596 302.76 183.474 302.193 183.324C301.627 183.174 301.077 182.998 300.529 182.793C299.981 182.588 299.45 182.356 298.936 182.098C298.421 181.839 297.909 181.553 297.412 181.254C296.917 180.94 296.437 180.614 295.973 180.261C295.509 179.908 295.062 179.528 294.645 179.137C294.213 178.745 293.812 178.326 293.427 177.882C293.043 177.437 292.686 176.994 292.348 176.511C292.008 176.042 291.698 175.547 291.404 175.039C291.11 174.532 290.845 174.013 290.61 173.482C290.375 172.952 290.155 172.408 289.978 171.855C289.787 171.3 289.638 170.749 289.506 170.171C289.373 169.607 289.269 169.032 289.193 168.459C289.117 167.886 289.071 167.302 289.052 166.72C289.034 166.138 289.043 165.558 289.081 164.982C289.118 164.405 289.185 163.817 289.279 163.245Z" fill="#4C4C4C"/>
<path d="M264.359 135.196C264.476 134.528 264.621 133.861 264.792 133.212C264.964 132.562 265.177 131.916 265.418 131.287C265.658 130.657 265.927 130.031 266.222 129.42C266.518 128.81 266.854 128.218 267.217 127.642C267.58 127.066 267.956 126.505 268.371 125.976C268.788 125.434 269.23 124.921 269.685 124.424C270.154 123.929 270.635 123.463 271.142 123.013C271.649 122.563 272.182 122.144 272.727 121.754C273.271 121.364 273.843 120.991 274.438 120.663C275.021 120.319 275.628 120.019 276.248 119.735C276.868 119.451 277.498 119.211 278.139 119C278.781 118.788 279.435 118.592 280.086 118.438C280.751 118.286 281.413 118.161 282.085 118.08C282.758 117.999 283.429 117.932 284.109 117.922C284.79 117.899 285.468 117.917 286.143 117.963C286.818 118.01 287.491 118.084 288.159 118.201L331.939 125.5C332.607 125.617 333.274 125.761 333.923 125.933C334.573 126.104 335.219 126.318 335.848 126.559C336.478 126.799 337.105 127.068 337.715 127.363C338.325 127.658 338.918 127.995 339.494 128.358C340.069 128.721 340.63 129.096 341.159 129.512C341.702 129.929 342.214 130.371 342.711 130.826C343.206 131.295 343.673 131.775 344.122 132.283C344.572 132.79 344.991 133.323 345.381 133.867C345.771 134.412 346.144 134.983 346.473 135.579C346.817 136.161 347.116 136.769 347.4 137.388C347.684 138.008 347.924 138.638 348.136 139.28C348.347 139.922 348.543 140.576 348.697 141.227C348.849 141.891 348.974 142.553 349.055 143.226C349.136 143.898 349.203 144.569 349.213 145.249C349.237 145.931 349.218 146.608 349.172 147.284C349.125 147.959 349.051 148.631 348.934 149.3C348.817 149.969 348.673 150.635 348.501 151.285C348.33 151.934 348.116 152.58 347.875 153.21C347.635 153.839 347.366 154.466 347.071 155.076C346.776 155.686 346.439 156.279 346.076 156.855C345.713 157.431 345.338 157.991 344.922 158.52C344.507 159.049 344.063 159.575 343.608 160.072C343.139 160.568 342.659 161.034 342.151 161.484C341.644 161.933 341.111 162.352 340.567 162.742C340.022 163.132 339.451 163.505 338.855 163.834C338.273 164.178 337.666 164.477 337.046 164.761C336.426 165.045 335.796 165.286 335.154 165.497C334.512 165.708 333.858 165.904 333.207 166.058C332.543 166.211 331.881 166.335 331.208 166.416C330.536 166.497 329.865 166.564 329.185 166.574C328.505 166.584 327.826 166.579 327.151 166.533C326.475 166.487 325.803 166.412 325.134 166.295L281.355 158.996C280.686 158.88 280.02 158.735 279.37 158.564C278.72 158.392 278.074 158.178 277.445 157.938C276.816 157.697 276.189 157.429 275.579 157.133C274.968 156.838 274.376 156.502 273.8 156.139C273.224 155.776 272.663 155.4 272.135 154.985C271.592 154.568 271.08 154.126 270.583 153.671C270.086 153.216 269.621 152.721 269.171 152.214C268.721 151.706 268.302 151.173 267.912 150.629C267.523 150.085 267.149 149.513 266.821 148.918C266.492 148.322 266.178 147.728 265.894 147.108C265.61 146.488 265.369 145.858 265.158 145.216C264.947 144.575 264.751 143.92 264.597 143.27C264.444 142.605 264.32 141.943 264.239 141.271C264.157 140.598 264.09 139.927 264.081 139.247C264.057 138.566 264.075 137.888 264.122 137.213C264.169 136.524 264.244 135.851 264.359 135.196Z" fill="#3D3D3D"/>
<path d="M337.865 168.417C338.632 168.543 339.378 168.751 340.102 169.042C340.825 169.334 341.515 169.693 342.184 170.121C342.838 170.562 343.444 171.055 344.015 171.63C344.574 172.189 345.084 172.815 345.532 173.492C345.981 174.169 346.356 174.882 346.669 175.646C346.983 176.41 347.223 177.196 347.391 178.004C347.559 178.811 347.655 179.641 347.665 180.476C347.674 181.312 347.614 182.142 347.482 182.979C347.352 183.802 347.137 184.618 346.855 185.399C346.572 186.18 346.221 186.941 345.789 187.652C345.371 188.365 344.887 189.029 344.351 189.646C343.814 190.263 343.212 190.817 342.574 191.312C341.935 191.806 341.26 192.227 340.535 192.586C339.824 192.933 339.077 193.22 338.323 193.421C337.555 193.621 336.795 193.736 336.014 193.765C335.233 193.794 334.458 193.753 333.691 193.628C332.924 193.502 332.179 193.294 331.455 193.002C330.731 192.711 330.041 192.352 329.372 191.924C328.718 191.483 328.112 190.99 327.541 190.415C326.983 189.855 326.473 189.229 326.024 188.552C325.575 187.875 325.201 187.162 324.887 186.398C324.574 185.634 324.333 184.849 324.165 184.041C323.997 183.233 323.902 182.404 323.892 181.568C323.882 180.732 323.942 179.903 324.074 179.066C324.204 178.243 324.419 177.427 324.702 176.646C324.984 175.864 325.335 175.103 325.767 174.392C326.185 173.68 326.669 173.016 327.206 172.399C327.742 171.782 328.344 171.227 328.983 170.733C329.621 170.238 330.296 169.818 331.022 169.458C331.732 169.112 332.479 168.825 333.233 168.624C333.987 168.423 334.762 168.308 335.543 168.279C336.324 168.25 337.098 168.292 337.865 168.417Z" fill="#D98B75"/>
<path d="M265.576 156.368C266.343 156.493 267.088 156.702 267.812 156.993C268.536 157.285 269.225 157.644 269.895 158.072C270.548 158.512 271.155 159.006 271.726 159.58C272.284 160.14 272.794 160.766 273.243 161.443C273.691 162.12 274.066 162.833 274.38 163.597C274.693 164.361 274.934 165.147 275.102 165.954C275.27 166.762 275.365 167.591 275.375 168.427C275.385 169.263 275.325 170.092 275.193 170.93C275.062 171.753 274.848 172.569 274.565 173.35C274.283 174.131 273.932 174.892 273.5 175.603C273.082 176.316 272.598 176.98 272.061 177.597C271.525 178.214 270.923 178.768 270.284 179.263C269.646 179.757 268.971 180.178 268.245 180.537C267.535 180.884 266.787 181.17 266.034 181.372C265.266 181.572 264.505 181.687 263.724 181.716C262.943 181.745 262.169 181.704 261.402 181.578C260.635 181.453 259.889 181.244 259.165 180.953C258.442 180.662 257.752 180.303 257.083 179.874C256.429 179.434 255.822 178.941 255.251 178.366C254.693 177.806 254.183 177.18 253.735 176.503C253.286 175.826 252.911 175.113 252.598 174.349C252.284 173.585 252.044 172.799 251.876 171.992C251.707 171.184 251.612 170.355 251.602 169.519C251.592 168.683 251.653 167.854 251.785 167.016C251.929 166.195 252.13 165.378 252.412 164.596C252.695 163.815 253.046 163.054 253.478 162.343C253.896 161.63 254.38 160.966 254.916 160.349C255.453 159.733 256.054 159.178 256.693 158.683C257.332 158.189 258.006 157.768 258.732 157.409C259.443 157.062 260.19 156.776 260.944 156.575C261.712 156.375 262.472 156.259 263.253 156.23C264.035 156.187 264.809 156.242 265.576 156.368Z" fill="#D98B75"/>
<path d="M262.098 184.458L266.485 158.134C266.663 157.103 266.881 156.09 267.155 155.081C267.43 154.073 267.745 153.082 268.117 152.097C268.487 151.125 268.899 150.157 269.365 149.223C269.831 148.288 270.338 147.372 270.885 146.487C271.431 145.602 272.033 144.736 272.672 143.916C273.312 143.096 273.992 142.294 274.697 141.536C275.416 140.78 276.16 140.055 276.944 139.361C277.728 138.667 278.551 138.019 279.397 137.416C280.244 136.813 281.13 136.241 282.025 135.727C282.936 135.201 283.856 134.731 284.813 134.308C285.771 133.884 286.741 133.49 287.732 133.169C288.724 132.833 289.726 132.555 290.738 132.307C291.75 132.072 292.786 131.882 293.817 131.748C294.848 131.614 295.889 131.524 296.939 131.491C297.989 131.458 299.02 131.48 300.076 131.546C301.131 131.612 302.153 131.733 303.185 131.91L310.1 133.069C311.131 133.246 312.144 133.465 313.153 133.739C314.161 134.014 315.152 134.329 316.137 134.7C317.109 135.071 318.076 135.483 319.011 135.949C319.946 136.415 320.862 136.922 321.747 137.468C322.632 138.015 323.498 138.616 324.318 139.256C325.152 139.897 325.94 140.576 326.697 141.281C327.454 142 328.179 142.744 328.873 143.528C329.567 144.312 330.215 145.134 330.818 145.981C331.421 146.828 331.993 147.714 332.507 148.609C333.033 149.52 333.503 150.439 333.926 151.397C334.349 152.355 334.744 153.324 335.065 154.315C335.4 155.308 335.678 156.309 335.927 157.322C336.162 158.334 336.352 159.37 336.486 160.401C336.619 161.431 336.71 162.473 336.743 163.523C336.776 164.573 336.754 165.604 336.688 166.659C336.623 167.701 336.501 168.737 336.324 169.768L331.937 196.092C331.816 196.803 331.669 197.497 331.479 198.188C331.29 198.878 331.073 199.566 330.814 200.236C330.556 200.907 330.271 201.56 329.958 202.211C329.646 202.848 329.292 203.482 328.912 204.085C328.533 204.687 328.126 205.273 327.693 205.843C327.26 206.413 326.787 206.95 326.301 207.473C325.816 207.995 325.291 208.486 324.753 208.961C324.215 209.436 323.651 209.881 323.062 210.295C322.473 210.709 321.872 211.094 321.26 211.449C320.634 211.804 319.996 212.128 319.347 212.424C318.698 212.719 318.023 212.984 317.352 213.207C316.666 213.443 315.984 213.636 315.29 213.8C314.596 213.964 313.891 214.085 313.176 214.176C312.46 214.268 311.747 214.331 311.037 214.352C310.328 214.374 309.607 214.365 308.89 214.315C308.172 214.265 307.458 214.187 306.761 214.067L280.047 209.617C279.336 209.496 278.641 209.349 277.951 209.16C277.26 208.97 276.572 208.753 275.902 208.495C275.232 208.236 274.578 207.951 273.927 207.638C273.276 207.325 272.657 206.972 272.054 206.593C271.451 206.213 270.865 205.807 270.296 205.373C269.726 204.94 269.188 204.467 268.666 203.982C268.143 203.496 267.653 202.971 267.177 202.433C266.702 201.895 266.257 201.331 265.843 200.742C265.429 200.153 265.044 199.553 264.689 198.941C264.335 198.314 264.01 197.677 263.715 197.028C263.419 196.378 263.154 195.704 262.931 195.033C262.71 194.348 262.502 193.664 262.338 192.97C262.174 192.276 262.053 191.572 261.962 190.856C261.871 190.14 261.807 189.427 261.786 188.718C261.765 188.008 261.773 187.287 261.823 186.57C261.9 185.869 261.991 185.17 262.098 184.458Z" fill="#EBA792"/>
<path d="M264.109 125.282C264.226 124.614 264.371 123.947 264.542 123.298C264.714 122.648 264.928 122.002 265.168 121.373C265.408 120.743 265.677 120.116 265.972 119.506C266.268 118.896 266.604 118.303 266.967 117.728C267.33 117.152 267.706 116.591 268.121 116.062C268.538 115.52 268.98 115.007 269.435 114.51C269.904 114.015 270.385 113.549 270.892 113.099C271.399 112.649 271.932 112.23 272.477 111.84C273.021 111.45 273.593 111.077 274.188 110.748C274.771 110.405 275.378 110.105 275.998 109.821C276.618 109.537 277.248 109.297 277.889 109.085C278.531 108.874 279.185 108.678 279.836 108.524C280.501 108.372 281.163 108.247 281.835 108.166C282.508 108.085 283.179 108.018 283.859 108.008C284.539 107.999 285.218 108.003 285.893 108.049C286.568 108.096 287.241 108.17 287.909 108.287L299.022 110.134C299.691 110.251 300.357 110.395 301.007 110.567C301.656 110.738 302.302 110.952 302.932 111.192C303.561 111.433 304.188 111.702 304.798 111.997C305.409 112.292 306.001 112.628 306.577 112.992C307.153 113.355 307.713 113.73 308.242 114.146C308.771 114.561 309.297 115.005 309.794 115.46C310.29 115.929 310.756 116.409 311.206 116.917C311.655 117.424 312.075 117.957 312.464 118.501C312.854 119.046 313.227 119.617 313.556 120.213C313.9 120.795 314.199 121.402 314.483 122.022C314.767 122.642 315.008 123.272 315.219 123.914C315.43 124.556 315.626 125.21 315.78 125.861C315.933 126.525 316.057 127.187 316.138 127.86C316.219 128.532 316.287 129.203 316.296 129.883C316.32 130.565 316.302 131.242 316.255 131.917C316.209 132.593 316.134 133.265 316.017 133.934C315.901 134.603 315.756 135.269 315.584 135.919C315.413 136.568 315.199 137.214 314.959 137.844C314.718 138.473 314.45 139.1 314.154 139.71C313.859 140.32 313.523 140.913 313.16 141.489C312.797 142.065 312.421 142.625 312.006 143.154C311.589 143.697 311.147 144.209 310.692 144.706C310.223 145.201 309.742 145.668 309.235 146.118C308.727 146.567 308.194 146.986 307.65 147.376C307.105 147.766 306.534 148.139 305.939 148.468C305.356 148.812 304.749 149.111 304.129 149.395C303.509 149.679 302.879 149.92 302.237 150.131C301.596 150.342 300.941 150.538 300.291 150.692C299.626 150.844 298.964 150.969 298.292 151.05C297.619 151.131 296.948 151.198 296.268 151.208C295.588 151.218 294.909 151.213 294.234 151.167C293.559 151.12 292.886 151.046 292.217 150.929L281.105 149.082C280.436 148.966 279.77 148.821 279.12 148.649C278.47 148.478 277.824 148.264 277.195 148.024C276.566 147.783 275.939 147.515 275.329 147.219C274.718 146.924 274.126 146.588 273.55 146.225C272.974 145.862 272.413 145.486 271.885 145.07C271.342 144.654 270.83 144.212 270.333 143.757C269.836 143.302 269.371 142.807 268.921 142.3C268.471 141.792 268.052 141.259 267.662 140.715C267.273 140.17 266.899 139.599 266.571 139.004C266.242 138.408 265.928 137.814 265.644 137.194C265.36 136.574 265.119 135.944 264.908 135.302C264.697 134.661 264.501 134.006 264.347 133.356C264.194 132.691 264.07 132.029 263.989 131.357C263.907 130.684 263.84 130.013 263.831 129.333C263.807 128.652 263.825 127.974 263.872 127.299C263.918 126.624 263.993 125.951 264.109 125.282Z" fill="#3D3D3D"/>
<path d="M292.143 174.29L294.468 160.376C294.505 160.124 294.568 159.89 294.66 159.657C294.751 159.425 294.856 159.208 294.988 158.993C295.121 158.779 295.265 158.594 295.437 158.411C295.609 158.228 295.792 158.075 295.99 157.923C296.186 157.785 296.411 157.649 296.631 157.556C296.853 157.448 297.087 157.37 297.332 157.322C297.577 157.273 297.82 157.238 298.061 157.231C298.303 157.225 298.557 157.233 298.793 157.283L306.112 158.506C306.364 158.543 306.599 158.607 306.831 158.698C307.063 158.79 307.28 158.894 307.495 159.027C307.709 159.159 307.895 159.303 308.077 159.475C308.26 159.647 308.413 159.831 308.565 160.028C308.703 160.225 308.839 160.449 308.932 160.67C309.04 160.892 309.118 161.125 309.167 161.37C309.215 161.615 309.25 161.859 309.257 162.1C309.263 162.341 309.255 162.595 309.205 162.831L306.88 176.745C306.844 176.997 306.78 177.232 306.688 177.464C306.597 177.696 306.492 177.913 306.36 178.128C306.227 178.342 306.083 178.528 305.911 178.71C305.739 178.893 305.556 179.046 305.358 179.198C305.162 179.336 304.937 179.472 304.717 179.565C304.495 179.673 304.261 179.751 304.016 179.8C303.771 179.848 303.528 179.883 303.287 179.89C303.045 179.896 302.791 179.888 302.555 179.838L295.236 178.615C294.984 178.578 294.75 178.515 294.517 178.423C294.285 178.331 294.068 178.227 293.853 178.095C293.639 177.962 293.454 177.818 293.271 177.646C293.088 177.474 292.935 177.29 292.783 177.093C292.645 176.896 292.509 176.672 292.416 176.451C292.308 176.229 292.23 175.996 292.182 175.751C292.133 175.506 292.098 175.262 292.091 175.021C292.085 174.78 292.107 174.527 292.143 174.29Z" fill="#DF8E70"/>
<path d="M279.324 186.944C277.914 185.459 277.167 183.383 277.531 181.222L277.77 179.814C278.072 178.03 279.056 176.533 280.419 175.538C278.942 175.589 277.471 176.052 276.2 176.97C272.751 179.449 271.968 184.232 274.446 187.681C274.999 188.452 275.636 189.245 276.355 190.06C276.973 188.7 278.032 187.621 279.324 186.944Z" fill="#AE1F23"/>
<path d="M322.442 184.825C321.343 183.198 319.711 182.146 317.939 181.704C318.945 183.11 319.422 184.893 319.13 186.721L318.891 188.129C318.527 190.29 317.155 192.02 315.344 192.961C316.482 194.153 317.175 195.73 317.221 197.432C318.264 196.846 319.327 196.192 320.397 195.467C323.892 193.106 324.816 188.335 322.442 184.825Z" fill="#AE1F23"/>
<path d="M318.894 188.123L319.134 186.715C319.44 184.888 318.964 183.091 317.943 181.697C315.908 181.189 313.674 181.484 311.791 182.758C297.901 192.139 288.583 181.028 286.84 178.692C285.291 176.558 282.842 175.461 280.387 175.537C279.038 176.534 278.041 178.03 277.739 179.814L277.499 181.222C277.135 183.382 277.883 185.459 279.292 186.944C278 187.621 276.941 188.7 276.311 190.044C280.548 194.868 287.538 200.067 296.267 201.516C302.485 202.555 309.597 201.679 317.196 197.423C317.151 195.721 316.458 194.144 315.319 192.953C317.158 192.014 318.545 190.285 318.894 188.123Z" fill="white"/>
<path d="M268.902 169.387L272.269 149.227C272.324 148.935 272.391 148.658 272.5 148.385C272.61 148.111 272.732 147.854 272.882 147.598C273.033 147.343 273.222 147.119 273.411 146.91C273.614 146.702 273.829 146.509 274.071 146.332C274.314 146.156 274.566 146.023 274.833 145.891C275.098 145.773 275.376 145.671 275.664 145.612C275.953 145.553 276.24 145.508 276.537 145.506C276.836 145.491 277.116 145.516 277.409 145.571L295.924 148.662C296.216 148.717 296.493 148.784 296.766 148.894C297.04 149.003 297.297 149.125 297.553 149.276C297.808 149.426 298.032 149.616 298.241 149.804C298.449 150.007 298.642 150.222 298.819 150.465C298.995 150.707 299.128 150.959 299.26 151.226C299.392 151.493 299.48 151.769 299.539 152.058C299.598 152.346 299.643 152.633 299.645 152.93C299.66 153.229 299.635 153.51 299.58 153.802L296.214 173.962C296.159 174.255 296.092 174.532 295.982 174.805C295.873 175.078 295.751 175.336 295.6 175.591C295.45 175.847 295.26 176.07 295.072 176.28C294.869 176.488 294.653 176.681 294.411 176.857C294.169 177.034 293.916 177.166 293.65 177.298C293.385 177.416 293.107 177.518 292.818 177.577C292.53 177.636 292.243 177.681 291.946 177.683C291.647 177.699 291.366 177.673 291.074 177.619L272.559 174.527C272.266 174.473 271.989 174.405 271.716 174.296C271.443 174.186 271.185 174.064 270.93 173.914C270.674 173.764 270.451 173.574 270.241 173.385C270.033 173.182 269.84 172.967 269.664 172.725C269.488 172.482 269.355 172.23 269.223 171.963C269.105 171.698 269.003 171.42 268.944 171.132C268.885 170.843 268.84 170.556 268.838 170.259C268.835 169.976 268.848 169.68 268.902 169.387Z" fill="white"/>
<path d="M303.248 175.117L306.615 154.957C306.669 154.665 306.736 154.388 306.846 154.115C306.955 153.841 307.077 153.583 307.228 153.328C307.378 153.073 307.568 152.849 307.757 152.64C307.959 152.431 308.175 152.239 308.417 152.062C308.659 151.886 308.912 151.753 309.178 151.621C309.444 151.503 309.722 151.401 310.01 151.342C310.298 151.283 310.585 151.238 310.883 151.236C311.181 151.221 311.462 151.246 311.754 151.3L330.269 154.392C330.562 154.447 330.839 154.514 331.112 154.624C331.385 154.733 331.643 154.855 331.898 155.005C332.154 155.156 332.377 155.346 332.587 155.534C332.795 155.737 332.988 155.952 333.164 156.195C333.341 156.437 333.474 156.689 333.605 156.956C333.723 157.221 333.825 157.499 333.884 157.788C333.943 158.076 333.988 158.363 333.99 158.66C334.006 158.959 333.98 159.24 333.926 159.532L330.559 179.692C330.505 179.985 330.437 180.262 330.328 180.535C330.218 180.808 330.096 181.066 329.946 181.321C329.796 181.577 329.606 181.8 329.417 182.01C329.214 182.218 328.999 182.411 328.757 182.587C328.514 182.763 328.262 182.896 327.995 183.028C327.73 183.146 327.452 183.248 327.164 183.307C326.875 183.366 326.588 183.411 326.291 183.413C325.992 183.428 325.712 183.403 325.419 183.349L306.904 180.257C306.612 180.202 306.335 180.135 306.062 180.026C305.789 179.916 305.531 179.794 305.275 179.644C305.02 179.493 304.796 179.304 304.587 179.115C304.379 178.912 304.186 178.697 304.009 178.455C303.833 178.212 303.7 177.96 303.568 177.693C303.451 177.428 303.348 177.15 303.289 176.862C303.23 176.573 303.185 176.286 303.184 175.989C303.181 175.706 303.207 175.411 303.248 175.117Z" fill="white"/>
<path d="M308.94 168.915L309.708 164.3C309.743 164.077 309.805 163.856 309.881 163.636C309.957 163.417 310.061 163.214 310.192 163.013C310.309 162.812 310.452 162.64 310.608 162.471C310.765 162.301 310.935 162.146 311.13 162.022C311.312 161.883 311.52 161.774 311.727 161.679C311.933 161.585 312.153 161.505 312.384 161.455C312.615 161.405 312.844 161.369 313.071 161.361C313.298 161.354 313.537 161.375 313.76 161.409L315.154 161.648C315.378 161.682 315.598 161.744 315.818 161.82C316.037 161.897 316.24 162 316.441 162.131C316.643 162.248 316.814 162.391 316.984 162.548C317.154 162.704 317.308 162.874 317.432 163.069C317.571 163.251 317.68 163.459 317.775 163.666C317.87 163.873 317.949 164.092 317.999 164.323C318.049 164.554 318.085 164.783 318.093 165.011C318.101 165.238 318.079 165.476 318.045 165.7L317.277 170.315C317.243 170.538 317.18 170.759 317.104 170.978C317.028 171.198 316.925 171.401 316.793 171.602C316.676 171.803 316.534 171.974 316.377 172.144C316.22 172.314 316.05 172.469 315.855 172.593C315.66 172.717 315.465 172.841 315.259 172.935C315.052 173.03 314.833 173.109 314.602 173.159C314.371 173.209 314.141 173.245 313.914 173.253C313.687 173.261 313.448 173.24 313.225 173.206L311.831 172.967C311.608 172.933 311.387 172.871 311.167 172.795C310.948 172.718 310.745 172.615 310.544 172.484C310.343 172.367 310.171 172.224 310.002 172.067C309.832 171.91 309.677 171.741 309.553 171.546C309.429 171.351 309.305 171.156 309.21 170.949C309.116 170.742 309.036 170.523 308.986 170.292C308.936 170.061 308.9 169.831 308.892 169.604C308.886 169.363 308.892 169.137 308.94 168.915Z" fill="#303030"/>
<path d="M271.296 206.621L285.139 218.562C286.807 220 286.991 222.521 285.541 224.174C285.004 224.791 284.3 225.223 283.518 225.422L279.101 226.553L269.969 225.026C265.66 224.314 262.744 220.231 263.47 215.923L264.627 209.022C264.996 206.806 267.097 205.31 269.314 205.679C270.039 205.801 270.731 206.132 271.296 206.621Z" fill="#1CB0F6"/>
<path d="M317.374 214.29L300.404 221.101C298.363 221.923 297.377 224.24 298.198 226.281C298.499 227.03 299.021 227.671 299.703 228.114L303.511 230.621L312.643 232.149C316.952 232.861 321.033 229.959 321.746 225.65L322.903 218.749C323.272 216.532 321.777 214.431 319.56 214.062C318.822 213.925 318.064 214.012 317.374 214.29Z" fill="#1CB0F6"/>
<path d="M275.521 218.475C276.86 218.694 277.764 219.964 277.545 221.303L274.509 239.512C274.29 240.851 273.02 241.756 271.681 241.536C270.342 241.317 269.437 240.047 269.657 238.708L272.693 220.499C272.913 219.147 274.183 218.242 275.521 218.475Z" fill="white"/>
<path d="M308.294 223.936C309.633 224.155 310.538 225.425 310.319 226.764L307.283 244.973C307.063 246.312 305.794 247.217 304.455 246.997C303.116 246.778 302.211 245.508 302.43 244.169L305.466 225.96C305.686 224.622 306.955 223.717 308.294 223.936Z" fill="white"/>
<path d="M236.658 264.672L216.593 249.526C210.88 245.22 209.735 237.009 214.055 231.298C218.36 225.585 226.572 224.44 232.283 228.76L252.348 243.906C258.061 248.211 259.205 256.423 254.886 262.134C250.566 267.845 242.369 268.992 236.658 264.672Z" fill="#1CB0F6"/>
<path fill-rule="evenodd" clip-rule="evenodd" d="M198.297 208.98C196.827 211.325 197.515 214.373 199.859 215.857L215.797 225.892C218.142 227.362 221.19 226.673 222.674 224.33C224.158 221.987 223.455 218.938 221.112 217.454L205.173 207.419C202.83 205.935 199.767 206.636 198.297 208.98Z" fill="#E18E70"/>
<path fill-rule="evenodd" clip-rule="evenodd" d="M234.081 217.812C232.288 215.712 229.155 215.459 227.054 217.266L212.739 229.495C210.639 231.288 210.386 234.421 212.193 236.521C213.986 238.621 217.119 238.874 219.22 237.067L233.535 224.838C235.634 223.046 235.887 219.913 234.081 217.812Z" fill="#E18E70"/>
<path d="M205.633 243.049C198.641 238.643 196.541 229.411 200.947 222.42C205.353 215.429 214.584 213.328 221.576 217.735C228.567 222.141 230.667 231.372 226.261 238.363C221.855 245.354 212.624 247.455 205.633 243.049Z" fill="#E18E70"/>
<path fill-rule="evenodd" clip-rule="evenodd" d="M277.631 232.96C277.243 235.699 279.113 238.202 281.865 238.604L300.503 241.269C303.242 241.656 305.745 239.786 306.147 237.035C306.535 234.296 304.665 231.793 301.914 231.39L283.275 228.726C280.522 228.338 278.019 230.207 277.631 232.96Z" fill="#E18E70"/>
<path fill-rule="evenodd" clip-rule="evenodd" d="M313.938 226.426C311.441 225.239 308.488 226.29 307.302 228.788L299.223 245.794C298.036 248.291 299.087 251.244 301.584 252.43C304.082 253.617 307.035 252.566 308.221 250.069L316.3 233.063C317.487 230.565 316.436 227.612 313.938 226.426Z" fill="#E18E70"/>
<path d="M298.239 261.078C290.066 259.906 284.378 252.333 285.551 244.16C286.723 235.987 294.295 230.299 302.469 231.471C310.642 232.644 316.33 240.216 315.157 248.389C313.985 256.563 306.413 262.251 298.239 261.078Z" fill="#E18E70"/>
<path d="M277.264 167.224C276.829 167.185 276.44 166.938 276.223 166.522C275.898 165.885 276.153 165.101 276.79 164.776C280.986 162.648 284.983 163.049 287.62 163.781C284.822 159.172 280.008 157.154 279.939 157.134C279.27 156.862 278.955 156.112 279.226 155.457C279.498 154.788 280.248 154.473 280.903 154.744C281.231 154.873 288.804 158.001 291.361 165.773C291.528 166.283 291.364 166.849 290.952 167.18C290.539 167.525 289.942 167.556 289.485 167.289C289.256 167.155 283.841 164.107 277.969 167.09C277.747 167.197 277.503 167.246 277.264 167.224Z" fill="#303030"/>
<path d="M330.526 218.736H228.57V292.783H330.526V218.736Z" fill="white"/>
<path d="M334.428 302.871H225.685C222.723 302.871 220.344 300.466 220.344 297.525V217.246C220.344 214.281 222.746 211.9 225.685 211.9H334.452C337.414 211.9 339.793 214.305 339.793 217.246V297.525C339.77 300.49 337.391 302.871 334.428 302.871ZM231.563 218.74C229.907 218.74 228.554 220.094 228.554 221.751V289.775C228.554 291.432 229.907 292.786 231.563 292.786H327.501C329.157 292.786 330.51 291.432 330.51 289.775V221.751C330.51 220.094 329.157 218.74 327.501 218.74H231.563Z" fill="#5C5B5B"/>
<path opacity="0.26" d="M330.512 251.748V221.728C330.512 220.071 329.159 218.717 327.503 218.717H297.53L290.695 211.9H334.43C337.393 211.9 339.772 214.305 339.772 217.246V261.039L330.512 251.748Z" fill="white"/>
<path d="M208.891 301.665C208.891 303.626 210.477 305.213 212.436 305.213H348.167C350.126 305.213 351.712 303.626 351.712 301.665V297.439H208.891V301.665Z" fill="#C1C9CB"/>
<path d="M252.424 257.942C253.376 257.859 254.321 257.683 255.257 257.413C255.667 257.284 255.96 256.883 255.947 256.463C255.902 255.413 255.741 254.373 255.464 253.343C255.03 251.319 253.89 249.522 252.28 248.234C250.544 247.121 248.466 246.647 246.425 246.872L246.146 246.897C245.194 246.98 244.249 247.157 243.313 247.426C242.903 247.555 242.633 247.954 242.623 248.376C242.668 249.426 242.829 250.466 243.106 251.496C243.54 253.52 244.68 255.317 246.29 256.605C248.026 257.718 250.104 258.192 252.145 257.967L252.424 257.942Z" fill="#CE82FF"/>
<path d="M268.149 282.734C269.805 282.659 271.393 282.075 272.733 281.068C274.252 279.693 275.283 277.823 275.597 275.781C275.811 274.755 275.906 273.693 275.885 272.641C275.869 272.197 275.556 271.826 275.149 271.721C274.124 271.506 273.083 271.387 272.03 271.385C271.631 271.373 271.212 271.41 270.841 271.442C269.187 271.54 267.599 272.124 266.28 273.106C264.715 274.485 263.707 276.353 263.393 278.395C263.179 279.421 263.084 280.484 263.105 281.536C263.121 281.979 263.434 282.35 263.841 282.455C264.868 282.693 265.909 282.813 266.963 282.814C267.383 282.801 267.778 282.766 268.149 282.734Z" fill="#CE82FF"/>
<path d="M255.867 272.468C257.443 272.283 258.94 271.73 260.246 270.866C261.134 270.32 261.967 269.662 262.721 268.916C263.022 268.609 263.098 268.134 262.877 267.755C262.329 266.843 261.695 266.008 260.973 265.251C259.619 263.684 257.795 262.625 255.75 262.265C255.277 262.213 254.809 262.207 254.321 262.25C252.745 262.435 251.248 262.987 249.942 263.851C249.053 264.397 248.221 265.056 247.467 265.801C247.166 266.109 247.09 266.584 247.311 266.963C247.858 267.875 248.493 268.709 249.214 269.466C250.568 271.034 252.393 272.092 254.438 272.452L254.651 272.48C255.05 272.492 255.472 272.502 255.867 272.468Z" fill="#CE82FF"/>
<path d="M256.548 242.999C256.897 242.969 257.206 242.754 257.365 242.436C257.772 241.463 258.082 240.452 258.297 239.426C258.777 237.416 258.57 235.303 257.658 233.438C256.592 231.681 254.928 230.327 252.997 229.653C252.025 229.246 251.016 228.96 249.972 228.793C249.546 228.737 249.12 228.962 248.944 229.352C248.537 230.325 248.227 231.336 248.012 232.362C247.532 234.371 247.739 236.485 248.651 238.349C249.717 240.107 251.38 241.46 253.312 242.134C254.284 242.541 255.292 242.828 256.337 242.994C256.409 243.011 256.478 243.005 256.548 242.999Z" fill="#CE82FF"/>
<path d="M307.221 257.946C306.268 257.863 305.324 257.686 304.387 257.417C303.977 257.288 303.684 256.887 303.697 256.467C303.742 255.416 303.903 254.376 304.18 253.347C304.614 251.323 305.754 249.526 307.365 248.238C309.1 247.125 311.179 246.651 313.219 246.876L313.498 246.901C314.45 246.984 315.395 247.16 316.331 247.43C316.741 247.559 317.034 247.96 317.021 248.38C316.976 249.43 316.815 250.47 316.538 251.5C316.104 253.524 314.964 255.321 313.354 256.609C311.618 257.722 309.54 258.196 307.499 257.971L307.221 257.946Z" fill="#CE82FF"/>
<path d="M291.456 282.741C289.802 282.643 288.215 282.059 286.896 281.077C285.353 279.701 284.346 277.833 284.032 275.791C283.817 274.765 283.723 273.702 283.744 272.65C283.759 272.206 284.073 271.836 284.48 271.731C285.507 271.493 286.548 271.373 287.601 271.371C288 271.36 288.419 271.396 288.79 271.429C290.444 271.527 292.032 272.111 293.351 273.093C294.893 274.469 295.901 276.337 296.214 278.379C296.429 279.405 296.524 280.468 296.502 281.52C296.487 281.964 296.174 282.334 295.767 282.439C294.739 282.677 293.699 282.797 292.645 282.799C292.246 282.81 291.851 282.776 291.456 282.741Z" fill="#CE82FF"/>
<path d="M303.787 272.463C302.211 272.278 300.714 271.725 299.408 270.861C298.519 270.315 297.687 269.657 296.933 268.911C296.632 268.604 296.556 268.129 296.776 267.75C297.324 266.838 297.959 266.003 298.68 265.246C300.034 263.679 301.859 262.62 303.903 262.26C304.376 262.208 304.845 262.202 305.333 262.245C306.909 262.43 308.405 262.982 309.711 263.846C310.6 264.392 311.432 265.051 312.187 265.796C312.488 266.104 312.563 266.579 312.343 266.958C311.795 267.87 311.161 268.704 310.439 269.461C309.085 271.029 307.261 272.087 305.216 272.447L305.003 272.475C304.579 272.509 304.182 272.497 303.787 272.463Z" fill="#CE82FF"/>
<path d="M303.084 243.015C302.736 242.985 302.427 242.77 302.267 242.452C301.86 241.479 301.55 240.468 301.336 239.442C300.855 237.432 301.063 235.319 301.975 233.454C303.041 231.697 304.704 230.343 306.636 229.669C307.608 229.262 308.616 228.976 309.661 228.81C310.089 228.73 310.512 228.978 310.689 229.368C311.096 230.341 311.406 231.352 311.621 232.378C312.101 234.387 311.893 236.501 310.981 238.365C309.915 240.123 308.252 241.476 306.32 242.151C305.348 242.557 304.34 242.844 303.295 243.01C303.224 243.027 303.154 243.021 303.084 243.015Z" fill="#CE82FF"/>
<path d="M265.336 255.552C265.336 255.295 265.336 255.038 265.359 254.782C265.336 254.665 265.336 254.571 265.336 254.455V236.574C265.336 235.5 266.199 234.637 267.272 234.637H293.489C294.562 234.637 295.425 235.5 295.425 236.574V254.455C295.425 254.571 295.425 254.688 295.401 254.782C295.425 255.038 295.425 255.295 295.425 255.552C295.425 262.485 288.684 268.11 280.357 268.11C272.03 268.11 265.336 262.508 265.336 255.552Z" fill="#CE82FF"/>
<path opacity="0.88" d="M265.766 258.376L289.51 234.637H293.545C294.618 234.637 295.481 235.5 295.481 236.574V238.675L269.777 264.422C267.865 262.858 266.465 260.757 265.766 258.376Z" fill="#D99DFF"/>
<path d="M276.429 246.641H276.297C276.136 247.125 275.952 247.675 275.747 248.291C275.542 248.892 275.322 249.523 275.087 250.183C274.867 250.843 274.662 251.488 274.471 252.119L274.097 253.879C274.009 254.158 273.921 254.458 273.833 254.781C273.745 255.104 273.65 255.419 273.547 255.727C273.459 256.035 273.371 256.336 273.283 256.629C273.21 256.908 273.144 257.157 273.085 257.377C272.924 257.436 272.748 257.487 272.557 257.531C272.366 257.575 272.132 257.597 271.853 257.597C271.296 257.597 270.863 257.494 270.555 257.289C270.247 257.069 270.093 256.761 270.093 256.365C270.093 256.189 270.122 256.013 270.181 255.837C270.24 255.646 270.298 255.434 270.357 255.199C270.504 254.715 270.694 254.106 270.929 253.373C271.178 252.64 271.45 251.848 271.743 250.997C272.036 250.132 272.33 249.281 272.623 248.445C272.931 247.594 273.217 246.81 273.481 246.091C273.745 245.372 273.965 244.793 274.141 244.353C274.346 244.236 274.654 244.126 275.065 244.023C275.49 243.906 275.908 243.847 276.319 243.847C276.906 243.847 277.434 243.935 277.903 244.111C278.372 244.272 278.666 244.544 278.783 244.925C279.076 245.702 279.392 246.612 279.729 247.653C280.066 248.68 280.411 249.75 280.763 250.865C281.115 251.98 281.445 253.065 281.753 254.121C282.076 255.177 282.362 256.13 282.611 256.981C282.464 257.157 282.244 257.296 281.951 257.399C281.658 257.516 281.32 257.575 280.939 257.575C280.367 257.575 279.964 257.48 279.729 257.289C279.494 257.084 279.318 256.768 279.201 256.343L278.409 253.725L278.079 252.009C277.874 251.334 277.668 250.667 277.463 250.007C277.258 249.347 277.067 248.731 276.891 248.159C276.715 247.572 276.561 247.066 276.429 246.641ZM272.733 254.341L273.921 251.877H279.201L279.619 254.341H272.733ZM288.797 253.417H285.893V246.355L283.319 247.367C283.099 247.25 282.901 247.088 282.725 246.883C282.549 246.663 282.461 246.37 282.461 246.003C282.461 245.314 282.887 244.815 283.737 244.507L286.575 243.407H287.213C287.712 243.407 288.101 243.554 288.379 243.847C288.658 244.126 288.797 244.514 288.797 245.013V253.417ZM285.893 251.371H288.797V257.377C288.68 257.406 288.504 257.443 288.269 257.487C288.035 257.531 287.778 257.553 287.499 257.553C286.942 257.553 286.531 257.458 286.267 257.267C286.018 257.062 285.893 256.702 285.893 256.189V251.371Z" fill="white"/>
<defs>
<linearGradient id="paint0_linear_17200_1869" x1="211" y1="37" x2="211" y2="400" gradientUnits="userSpaceOnUse">
<stop stop-color="#FFE357"/>
<stop offset="1" stop-color="#FCF2BB"/>
</linearGradient>
</defs>
</svg>
