<svg width="444" height="379" viewBox="0 0 444 379" fill="none" xmlns="http://www.w3.org/2000/svg">
<path d="M280.134 87.902C280.134 87.902 275.134 100.348 274.792 112.987C274.45 125.627 301.263 126.904 303.401 121.955C305.533 117.001 312.101 99.2588 309.205 91.2999C306.314 83.341 281.457 81.1745 280.134 87.902Z" fill="#2B70C9"/>
<path d="M364.756 76.8503C356.027 100.237 329.796 112.455 305.48 103.561C280.235 94.3246 267.259 66.2346 277.242 41.4799C287.082 17.0843 315.047 6.45718 339.015 17.0672C362.128 27.2895 373.37 53.7831 364.756 76.8503Z" fill="#1CB0F6"/>
<path d="M334.386 34.7117C346.114 40.2419 352.71 52.3741 352.111 64.5577C352.06 65.6409 352.642 66.6272 353.565 67.0149L358.001 68.8678C359.067 69.3125 360.281 68.5257 360.424 67.2772C362.271 50.6809 353.822 33.5429 337.898 25.6581C320.76 17.1747 300.35 21.8896 288.469 36.747C287.556 37.893 288.109 39.6376 289.552 40.2362L295.378 42.6763C296.564 43.1723 297.893 42.893 298.702 41.9922C307.653 32.0549 322.015 28.8793 334.386 34.7117Z" fill="white"/>
<path d="M313.704 88.0805C300.574 83.6278 292.239 71.0338 292.587 57.4021C292.615 56.1764 291.846 55.0418 290.643 54.5686L284.748 52.2653C283.288 51.6952 281.675 52.5732 281.544 54.0498C279.816 73.3998 291.498 91.5696 310.073 97.459C327.313 102.926 345.158 95.9767 354.793 82.2253C355.512 81.1991 355.135 79.7567 354.058 79.3348L349.571 77.5845C348.63 77.2196 347.553 77.5389 346.874 78.377C339.206 87.8809 326.15 92.2994 313.704 88.0805Z" fill="white"/>
<path fill-rule="evenodd" clip-rule="evenodd" d="M309.603 43.5683C305.573 41.9092 300.96 43.8933 299.324 48.0096L296.935 54.0358C295.293 58.1806 297.283 62.867 301.365 64.4747C305.419 66.0711 310.003 64.0186 311.61 59.9137L313.948 53.9446C315.55 49.8625 313.611 45.216 309.603 43.5683Z" fill="white"/>
<path fill-rule="evenodd" clip-rule="evenodd" d="M308.043 47.5693C306.019 46.7426 303.675 47.7631 302.82 49.9125L300.899 54.7643C300.044 56.925 301.053 59.3081 303.094 60.1177C305.123 60.9273 307.467 59.884 308.31 57.7346L310.209 52.9057C311.138 50.8019 310.146 48.4302 308.043 47.5693Z" fill="black"/>
<path fill-rule="evenodd" clip-rule="evenodd" d="M307.652 48.4933C307.242 49.531 307.738 50.7054 308.758 51.1216C309.773 51.5321 310.925 51.0304 311.335 49.9928C311.74 48.9608 311.249 47.7864 310.235 47.3702C309.22 46.954 308.062 47.4614 307.652 48.4933Z" fill="white"/>
<path fill-rule="evenodd" clip-rule="evenodd" d="M341.001 57.6386C337.42 56.1619 333.321 58.0148 331.867 61.7891L329.747 67.3079C328.287 71.1049 330.054 75.358 333.68 76.789C337.284 78.2086 341.36 76.293 342.785 72.5302L344.866 67.0627C346.286 63.3227 344.558 59.1038 341.001 57.6386Z" fill="white"/>
<path fill-rule="evenodd" clip-rule="evenodd" d="M339.608 61.3103C337.812 60.5748 335.726 61.5269 334.967 63.4996L333.263 67.9465C332.504 69.9248 333.399 72.0913 335.212 72.8097C337.02 73.528 339.101 72.5588 339.853 70.5862L341.541 66.162C342.362 64.2293 341.478 62.0742 339.608 61.3103Z" fill="black"/>
<path fill-rule="evenodd" clip-rule="evenodd" d="M339.285 62.1526C338.92 63.1047 339.359 64.1708 340.265 64.5414C341.166 64.9063 342.192 64.4388 342.557 63.4867C342.916 62.5403 342.483 61.4742 341.582 61.1036C340.676 60.733 339.65 61.2005 339.285 62.1526Z" fill="white"/>
<path fill-rule="evenodd" clip-rule="evenodd" d="M350.973 27.0406L323.624 15.0395C320.83 13.8137 319.456 10.4728 320.58 7.62218C321.703 4.77727 324.901 3.47168 327.678 4.71455L354.861 16.8981C357.512 18.084 358.806 21.3223 357.746 24.1045C356.68 26.881 353.635 28.2093 350.973 27.0406Z" fill="#1453A3"/>
<path fill-rule="evenodd" clip-rule="evenodd" d="M345.954 24.8321L323.554 15.0032C320.806 13.7946 319.449 10.5049 320.561 7.69993L320.623 7.5403C321.729 4.74099 324.877 3.45821 327.607 4.67828L349.865 14.6554C352.493 15.8356 353.782 19.034 352.727 21.782L352.664 21.9416C351.621 24.6896 348.599 25.9952 345.954 24.8321Z" fill="#2B70C9"/>
<path d="M358.191 4.49121C358.191 4.49121 350.026 0.34071 339.781 11.2814" stroke="#2B70C9" stroke-width="3.8299" stroke-miterlimit="10" stroke-linecap="round"/>
<path fill-rule="evenodd" clip-rule="evenodd" d="M359.63 1.89913C356.865 4.5217 356.558 8.86034 358.935 11.5741C361.301 14.2765 365.423 14.3449 368.16 11.7509C370.89 9.1568 371.227 4.85807 368.889 2.13288C366.546 -0.615117 362.396 -0.72344 359.63 1.89913Z" fill="#2B70C9"/>
<path d="M285.961 93.7841C285.961 93.7841 281.582 111.116 280.442 116.828C279.302 122.541 305.915 133.248 309.786 128.197C313.657 123.145 321.211 107.29 319.803 105.956C318.401 104.616 292.192 90.1239 285.961 93.7841Z" fill="#1CB0F6"/>
<path d="M285.105 97.6582L263.555 54.6082L285.105 45.2012L297.58 95.3834L285.105 97.6582Z" fill="#1CB0F6"/>
<path d="M317.179 105.561H345.298V113.052L314.562 116.068L317.179 105.561Z" fill="#1CB0F6"/>
<path d="M271.708 110.844C271.708 110.844 276.799 112.07 281.366 113.335C285.933 114.601 291.491 125.519 291.491 125.519L267.312 129.795L271.708 110.844Z" fill="#1CB0F6"/>
<path d="M296.633 127.634L305.133 142.024L315.92 129.835L310.732 126.141L296.633 127.634Z" fill="#1CB0F6"/>
<path d="M264.57 130.522C269.161 130.522 272.883 124.71 272.883 117.54C272.883 110.371 269.161 104.559 264.57 104.559C259.979 104.559 256.258 110.371 256.258 117.54C256.258 124.71 259.979 130.522 264.57 130.522Z" fill="#1899D6"/>
<path d="M318.672 143.52C323.581 140.156 325.815 134.881 323.661 131.738C321.507 128.596 315.782 128.775 310.873 132.139C305.964 135.503 303.73 140.778 305.884 143.921C308.038 147.064 313.763 146.884 318.672 143.52Z" fill="#1899D6"/>
<path d="M339.931 116.061C343.564 116.061 346.51 113.115 346.51 109.482C346.51 105.848 343.564 102.902 339.931 102.902C336.297 102.902 333.352 105.848 333.352 109.482C333.352 113.115 336.297 116.061 339.931 116.061Z" fill="#2B70C9"/>
<path d="M281.611 53.5549C289.47 47.1994 290.664 35.6441 284.277 27.7455C277.889 19.8468 266.34 18.5958 258.481 24.9513C250.621 31.3068 249.428 42.8621 255.815 50.7607C262.202 58.6594 273.751 59.9104 281.611 53.5549Z" fill="#2B70C9"/>
<path d="M287.967 43.2674C288.172 42.3324 288.303 41.386 288.36 40.4339C288.241 40.4852 288.132 40.5651 288.047 40.6734C286.969 41.9505 285.27 43.256 283.634 43.4157C282.859 43.4955 282.072 43.3188 281.308 42.7144C280.521 42.0987 279.694 40.987 278.97 39.0998C278.845 38.7749 278.548 38.5525 278.201 38.524C277.859 38.4955 277.528 38.6723 277.357 38.9687C276.901 39.7726 276.268 40.5879 275.544 41.2264C274.814 41.8706 274.044 42.2925 273.309 42.4066C272.608 42.5149 271.867 42.3667 271.091 41.7281C270.287 41.0668 269.426 39.8524 268.628 37.7886C268.463 37.3667 268.007 37.1272 267.568 37.2412C267.129 37.3496 266.844 37.7715 266.901 38.2219C267.169 40.2515 266.946 41.4259 266.308 42.321C265.635 43.2731 264.392 44.0713 262.197 45.0576C261.747 45.2629 261.547 45.7931 261.753 46.2435C261.958 46.6939 262.488 46.8991 262.938 46.6939C265.139 45.7019 266.793 44.7384 267.767 43.3644C268.155 42.8228 268.417 42.2412 268.583 41.6027C269.01 42.2127 269.466 42.7144 269.945 43.1078C271.108 44.0656 272.368 44.3678 273.588 44.1739C274.774 43.9858 275.84 43.3473 276.724 42.5662C277.174 42.1671 277.591 41.7167 277.961 41.2492C278.617 42.5206 279.364 43.467 280.19 44.1169C281.342 45.0177 282.596 45.3085 283.805 45.1945C285.373 45.0462 286.821 44.2196 287.967 43.2674Z" fill="#1453A3"/>
<path d="M282.012 53.2219C282.605 52.7145 283.158 52.1729 283.671 51.6084C280.393 51.312 278.272 50.6278 276.983 49.8069C275.718 49.003 275.262 48.0908 275.205 47.2128C275.142 46.2835 275.518 45.2345 276.237 44.214C276.949 43.2048 277.953 42.304 278.985 41.6883C279.412 41.4375 279.549 40.8844 279.298 40.4625C279.042 40.0349 278.494 39.8924 278.067 40.1433C276.824 40.8787 275.632 41.9506 274.766 43.1763C273.905 44.3964 273.312 45.8445 273.409 47.3268C273.511 48.8605 274.35 50.263 276.026 51.3234C277.411 52.1957 279.372 52.8513 282.012 53.2219Z" fill="#1453A3"/>
<path d="M276.401 42.2905C276.492 42.4046 276.6 42.5072 276.726 42.5927C277.404 43.0488 278.328 42.8664 278.784 42.1879C280.283 39.953 280.187 35.1355 280.169 34.5939C280.147 33.7729 279.462 33.1287 278.642 33.1572C277.821 33.18 277.182 33.8641 277.205 34.6851C277.268 36.8231 276.954 39.5939 276.321 40.5403C275.951 41.0876 276.002 41.8002 276.401 42.2905Z" fill="#1453A3"/>
<path d="M294.311 82.7547C294.311 82.7547 295.354 107.39 278.82 106.472V103.085C278.82 103.085 290.337 107.122 290.605 67.8574C290.605 67.8574 293.986 72.8745 294.311 82.7547Z" fill="#2B70C9"/>
<path d="M328.375 73.9864C328.375 73.9864 338.791 72.1107 341.836 77.4641L334.521 79.5109L329.019 76.4778L328.375 73.9864Z" fill="#1CB0F6"/>
<path d="M314.627 120.066C314.627 120.066 312.118 106.839 321.103 105.607L324.148 105.659C324.148 105.659 317.449 108.834 316.696 115.79L314.627 120.066Z" fill="#2B70C9"/>
<path d="M206.183 201.196L145.173 166.131C143.285 165.04 142.624 162.611 143.708 160.716C144.799 158.83 147.231 158.17 149.128 159.254L210.138 194.319C212.026 195.409 212.687 197.839 211.603 199.734C210.511 201.628 208.079 202.287 206.183 201.196Z" fill="#FFC3B3"/>
<path d="M244.202 232.719C253.515 235.05 262.814 228.894 264.309 219.421L274.654 153.439L248.818 146.985L232.318 212.927C230.122 221.669 235.442 230.53 244.202 232.719Z" fill="#FF679A"/>
<path d="M226.28 190.111C250.064 193.066 271.739 176.2 274.692 152.439C277.644 128.678 260.757 107.02 236.972 104.064C213.187 101.109 191.513 117.975 188.56 141.736C185.608 165.497 202.495 187.155 226.28 190.111Z" fill="#FFC3B3"/>
<path d="M228.296 202.102C228.296 202.102 262.886 221.56 290.76 175.826" stroke="#FFC3B3" stroke-width="8" stroke-miterlimit="10" stroke-linecap="round"/>
<path d="M176.351 253.497L233.403 267.759C237.676 268.828 241.524 264.644 240.278 260.299L224.235 204.576C222.827 199.69 216.839 198.237 213.346 201.927L173.762 243.737C170.655 247.002 172.109 252.44 176.351 253.497Z" fill="#FF679A"/>
<path d="M228.103 234.418L196.894 226.62L202.373 204.723C204.515 196.154 213.295 190.888 221.872 193.038C230.45 195.179 235.724 203.953 233.574 212.521L228.103 234.418Z" fill="#FF679A"/>
<path d="M240.637 168.003C247.532 168.86 253.975 162.69 255.028 154.223C256.08 145.756 251.343 138.197 244.447 137.341C237.551 136.484 231.108 142.653 230.056 151.12C229.004 159.587 233.741 167.146 240.637 168.003Z" fill="white"/>
<path d="M217.793 165.169C224.689 166.026 231.132 159.856 232.184 151.389C233.236 142.922 228.499 135.363 221.603 134.507C214.707 133.65 208.264 139.819 207.212 148.286C206.16 156.753 210.897 164.312 217.793 165.169Z" fill="white"/>
<path d="M221.089 157.715C224.505 158.14 227.698 155.084 228.219 150.891C228.74 146.697 226.393 142.953 222.976 142.529C219.559 142.104 216.367 145.159 215.846 149.353C215.324 153.547 217.672 157.291 221.089 157.715Z" fill="black"/>
<path d="M239.096 159.957C242.513 160.382 245.706 157.326 246.227 153.133C246.748 148.939 244.4 145.195 240.984 144.771C237.567 144.346 234.374 147.402 233.853 151.595C233.332 155.789 235.68 159.533 239.096 159.957Z" fill="black"/>
<path d="M273.568 158.317L273.877 158.396L273.956 158.088C279.795 134.736 265.45 110.849 242.075 105.011L241.766 104.931L241.687 105.24C235.848 128.591 250.193 152.478 273.568 158.317Z" fill="#FF679A"/>
<path d="M216.665 138.943C219.894 129.181 230.164 123.415 240.309 125.947C250.454 128.479 256.8 138.404 255.051 148.538L274.572 153.417C277.813 131.609 264.013 110.496 242.157 105.033C220.301 99.5709 198.184 111.714 190.774 132.474L216.665 138.943Z" fill="#FF679A"/>
<path d="M180.298 216.734C170.985 214.403 165.675 204.606 168.825 195.543L190.89 132.02L216.726 138.474L200.114 204.859C197.925 213.61 189.058 218.923 180.298 216.734Z" fill="#FF679A"/>
<path d="M221.078 175.09C221.078 175.09 226.128 181.724 232.592 176.521" stroke="white" stroke-width="10" stroke-miterlimit="10" stroke-linecap="round"/>
<path d="M220.761 145.084C221.946 145.231 223.026 144.391 223.173 143.208C223.32 142.024 222.478 140.945 221.294 140.798C220.109 140.651 219.029 141.491 218.882 142.674C218.735 143.858 219.576 144.937 220.761 145.084Z" fill="white"/>
<path d="M242.988 147.852C244.172 147.999 245.252 147.159 245.399 145.975C245.546 144.791 244.705 143.713 243.52 143.565C242.335 143.418 241.256 144.258 241.109 145.442C240.962 146.626 241.803 147.704 242.988 147.852Z" fill="white"/>
<path d="M66.3272 249.013L62.233 251.155L52.0656 231.773C49.2837 226.466 51.3285 219.853 56.6115 217.085L60.6671 214.956C60.6879 214.944 60.7138 214.957 60.7258 214.978L70.8731 234.325C73.664 239.631 71.6137 246.243 66.3272 249.013Z" fill="#1CB0F6"/>
<path d="M106.553 237.97L57.8773 245.404C56.4938 245.614 55.1903 244.652 54.9715 243.268C54.7583 241.877 55.7129 240.577 57.093 240.36L105.769 232.926C107.152 232.716 108.456 233.678 108.675 235.062C108.888 236.453 107.937 237.76 106.553 237.97Z" fill="#FFC6B7"/>
<path d="M106.744 235.727L154.918 246.303C156.284 246.601 157.648 245.726 157.941 244.358C158.234 242.99 157.355 241.619 155.989 241.321L107.815 230.745C106.448 230.446 105.084 231.322 104.791 232.689C104.495 234.059 105.372 235.427 106.744 235.727Z" fill="#FFC6B7"/>
<path d="M108.983 277.174L143.949 256.986C146.569 255.473 146.533 251.667 143.877 250.193L109.902 231.294C106.923 229.636 103.272 231.776 103.26 235.185L103.137 273.765C103.12 276.773 106.383 278.674 108.983 277.174Z" fill="#BBF2FF"/>
<path d="M135.358 209.158L139.26 206.683L127.559 188.187C124.353 183.124 117.604 181.588 112.565 184.78L108.694 187.228C108.673 187.24 108.671 187.268 108.683 187.289L120.365 205.751C123.568 210.819 130.316 212.351 135.358 209.158Z" fill="#1CB0F6"/>
<path d="M114.336 183.786C114.322 183.762 114.306 183.734 114.292 183.71C105.041 167.686 84.6061 162.163 68.6485 171.377C52.6908 180.59 47.2594 201.046 56.5107 217.07C56.5487 217.136 56.5943 217.206 56.6324 217.272C54.8056 219.174 54.3556 222.145 55.7442 224.55C57.4193 227.452 61.1553 228.465 64.0498 226.794C64.2233 226.693 64.3978 226.579 64.5598 226.467C75.0048 234.86 89.8928 236.482 102.147 229.407C114.437 222.311 120.472 208.544 118.383 195.276C118.776 195.147 119.157 194.982 119.532 194.765C122.427 193.094 123.42 189.356 121.742 186.451C120.235 183.832 117.06 182.764 114.336 183.786Z" fill="#FFC6B7"/>
<path d="M58.4375 161.238L68.0928 170.772C68.0928 170.772 67.3714 160.698 58.4375 161.238Z" fill="#1CB0F6"/>
<path d="M100.658 207.483C105.541 204.664 106.678 197.496 103.201 191.475C99.7249 185.453 92.9492 182.855 88.0661 185.674C83.183 188.493 82.0458 195.66 85.5223 201.682C88.9988 207.703 95.7745 210.302 100.658 207.483Z" fill="white"/>
<path d="M84.5169 216.815C89.4 213.996 90.5372 206.828 87.0607 200.807C83.5843 194.785 76.8086 192.187 71.9255 195.006C67.0424 197.825 65.9052 204.992 69.3817 211.014C72.8581 217.035 79.6338 219.634 84.5169 216.815Z" fill="white"/>
<path d="M82.963 210.364C85.382 208.968 85.9483 205.42 84.2271 202.439C82.5059 199.458 79.1504 198.174 76.7314 199.571C74.3124 200.967 73.7462 204.515 75.4674 207.496C77.1886 210.478 80.544 211.761 82.963 210.364Z" fill="black"/>
<path d="M95.7208 202.982C98.1398 201.585 98.7061 198.037 96.9849 195.056C95.2637 192.075 91.9082 190.791 89.4892 192.188C87.0702 193.585 86.504 197.132 88.2252 200.114C89.9499 203.093 93.3053 204.376 95.7208 202.982Z" fill="black"/>
<path d="M90.9609 220.062C90.9609 220.062 99.2665 223.86 100.772 214.398" stroke="white" stroke-width="6" stroke-miterlimit="10" stroke-linecap="round"/>
<path d="M75.954 203.364C76.846 202.85 77.1491 201.707 76.6321 200.812C76.1152 199.917 74.9745 199.608 74.0826 200.123C73.1906 200.638 72.8875 201.78 73.4045 202.675C73.9215 203.571 75.0621 203.879 75.954 203.364Z" fill="white"/>
<path d="M92.704 193.695C93.596 193.18 93.8991 192.037 93.3821 191.142C92.8652 190.247 91.7245 189.938 90.8326 190.453C89.9406 190.968 89.6375 192.11 90.1545 193.006C90.6715 193.901 91.8156 194.207 92.704 193.695Z" fill="white"/>
<path d="M68.9079 171.221L68.9019 171.211L68.6902 171.333C68.6659 171.347 68.6451 171.359 68.6173 171.375C68.5895 171.391 68.5722 171.401 68.5444 171.417L68.3327 171.54L68.3387 171.55C52.6752 180.848 47.3412 201.28 56.5142 217.169L56.6365 217.38L56.8482 217.258C71.4384 208.834 77.2551 190.849 71.0533 175.587C81.1679 188.585 99.6576 192.542 114.244 184.12L114.456 183.998L114.334 183.786C105.157 167.9 84.7973 162.307 68.9079 171.221Z" fill="#1CB0F6"/>
<g clip-path="url(#clip0_17192_961)">
<path d="M391.692 202.207C398.261 205.473 406.241 202.779 409.515 196.195C412.788 189.61 410.119 181.622 403.55 178.356C396.981 175.091 389.001 177.785 385.728 184.369C382.454 190.953 385.124 198.941 391.692 202.207Z" fill="#A570FF"/>
<path d="M338.833 186.596C345.402 189.862 353.382 187.168 356.655 180.583C359.929 173.999 357.259 166.011 350.691 162.745C344.122 159.479 336.144 162.168 332.868 168.758C329.592 175.347 332.264 183.33 338.833 186.596Z" fill="#A570FF"/>
<path d="M351.085 226.176C366.352 233.767 384.901 227.51 392.513 212.198C400.126 196.886 393.914 178.327 378.646 170.737C363.379 163.146 344.83 169.402 337.218 184.715C329.605 200.027 335.817 218.586 351.085 226.176Z" fill="#FFC3B3"/>
<path d="M395.722 193.841C396.62 195.05 395.172 190.861 394.726 189.378C389.772 172.864 372.392 163.533 355.896 168.53C350.625 170.127 346.083 172.993 342.507 176.694C342.507 176.694 378.526 170.741 395.722 193.841Z" fill="#A570FF"/>
<path d="M371.343 210.98C376.732 212.148 382.273 207.709 383.716 201.076C385.16 194.442 381.961 188.115 376.577 186.95C371.193 185.784 365.647 190.22 364.203 196.854C362.757 203.492 365.954 209.812 371.343 210.98Z" fill="white"/>
<path d="M353.5 207.119C358.889 208.287 364.429 203.848 365.873 197.215C367.317 190.581 364.117 184.254 358.733 183.089C353.344 181.92 347.804 186.359 346.36 192.993C344.914 199.631 348.116 205.953 353.5 207.119Z" fill="white"/>
<path d="M356.641 201.444C359.312 202.023 362.054 199.826 362.77 196.536C363.482 193.251 361.897 190.117 359.231 189.541C356.561 188.962 353.818 191.159 353.103 194.45C352.39 197.735 353.97 200.865 356.641 201.444Z" fill="black"/>
<path d="M370.711 204.487C373.382 205.066 376.125 202.869 376.84 199.579C377.553 196.294 375.967 193.16 373.302 192.584C370.631 192.005 367.888 194.202 367.173 197.493C366.455 200.775 368.04 203.908 370.711 204.487Z" fill="black"/>
<path d="M356.105 216.29C356.105 216.29 359.041 221.547 364.182 218.453" stroke="white" stroke-width="8.35" stroke-miterlimit="10" stroke-linecap="round"/>
<path d="M354.709 192.492C355.663 192.966 356.823 192.577 357.3 191.618C357.777 190.66 357.387 189.5 356.432 189.026C355.478 188.551 354.318 188.94 353.842 189.899C353.365 190.858 353.755 192.017 354.709 192.492Z" fill="white"/>
<path d="M375.061 196.759C376.015 197.234 377.175 196.845 377.652 195.886C378.128 194.927 377.738 193.768 376.784 193.293C375.83 192.819 374.67 193.208 374.193 194.167C373.719 195.12 374.107 196.285 375.061 196.759Z" fill="white"/>
<path d="M322.64 257.323L355.864 273.84C358.352 275.077 361.246 273.119 361.025 270.336L358.223 234.749C357.98 231.627 354.482 229.921 351.873 231.639L322.281 251.114C319.966 252.637 320.173 256.096 322.64 257.323Z" fill="#A570FF"/>
<path d="M338.822 258.985L305.883 242.609L303.34 247.724L336.279 264.1L338.822 258.985Z" fill="#A570FF"/>
<path d="M377.713 278.319L344.773 261.943L342.231 267.058L375.17 283.434L377.713 278.319Z" fill="#A570FF"/>
<path d="M303.332 247.728C302.309 247.219 301.887 245.965 302.395 244.943L305.318 239.064C305.826 238.043 307.08 237.622 308.103 238.13C309.126 238.639 309.548 239.893 309.04 240.915L306.117 246.793C305.604 247.813 304.349 248.233 303.332 247.728Z" fill="#A570FF"/>
<path d="M375.16 283.438C374.137 282.93 373.715 281.676 374.223 280.654L377.146 274.775C377.654 273.754 378.909 273.333 379.931 273.841C380.954 274.35 381.376 275.604 380.868 276.626L377.945 282.504C377.432 283.524 376.183 283.947 375.16 283.438Z" fill="#A570FF"/>
<path d="M336.359 264.145L336.338 264.135C335.378 263.658 334.983 262.483 335.46 261.524L348.891 234.507C349.368 233.549 350.543 233.154 351.503 233.631L351.524 233.642C352.483 234.119 352.879 235.294 352.402 236.253L338.971 263.269C338.494 264.228 337.319 264.622 336.359 264.145Z" fill="#FFC6B7"/>
<path d="M341.797 266.849L341.775 266.838C340.816 266.361 340.421 265.186 340.897 264.227L354.329 237.21C354.805 236.252 355.981 235.857 356.94 236.334L356.961 236.345C357.921 236.822 358.316 237.997 357.84 238.956L344.408 265.973C343.932 266.931 342.756 267.326 341.797 266.849Z" fill="#FFC6B7"/>
</g>
<path d="M18.0038 303.28C16.0854 303.253 14.1669 303.87 12.765 305.17C11.7043 306.148 10.8281 307.577 10.8281 309.633C10.8281 314.76 10.8281 327.714 10.8281 327.714C10.8281 327.714 10.8281 336.953 23.3994 338.659C33.176 339.987 195.422 365.269 267.058 376.435C289.176 379.883 311.763 378.611 333.355 372.71L438.158 344.044C441.58 343.112 443.95 340.005 443.95 336.455V318.411C443.95 314.557 441.156 311.274 437.356 310.647L431.776 309.734C431.397 309.67 431.01 309.642 430.632 309.633L18.0038 303.28Z" fill="#58CC02"/>
<path d="M293.54 353.925C287.25 353.925 280.914 353.408 274.716 352.385L16.9636 310.026C15.5063 309.787 14.9529 308.671 14.916 307.703C14.8791 306.735 15.3587 305.582 16.7976 305.241L136.367 276.99C144.825 274.989 153.523 273.975 162.22 273.975C167.588 273.975 173.002 274.362 178.315 275.136L435.956 312.396C438.594 312.774 439.636 314.849 439.719 316.517C439.811 318.177 438.999 320.353 436.417 321.017L322.418 350.283C312.983 352.698 303.271 353.925 293.54 353.925Z" fill="white"/>
<path d="M162.219 276C167.485 276 172.807 276.378 178.018 277.134L435.659 314.394C437.393 314.643 437.661 316.026 437.688 316.616C437.716 317.197 437.605 318.608 435.908 319.041L321.909 348.307C312.649 350.685 303.103 351.893 293.548 351.893C287.368 351.893 281.143 351.386 275.046 350.381L17.2941 308.014C17.1097 307.986 16.9621 307.958 16.9437 307.617C16.9344 307.276 17.082 307.248 17.2573 307.202L136.827 278.951C145.146 276.996 153.687 276 162.219 276ZM162.219 271.943C153.373 271.943 144.547 272.967 135.905 275.014L16.3349 303.256C11.5758 304.381 11.8156 311.231 16.6393 312.024L274.391 354.392C280.737 355.434 287.147 355.96 293.548 355.96C303.435 355.96 313.295 354.724 322.924 352.253L436.923 322.987C443.73 321.236 443.204 311.397 436.24 310.392L178.608 273.124C173.167 272.331 167.697 271.943 162.219 271.943Z" fill="#58CC02"/>
<path d="M195.667 38.5658C195.089 38.7992 194.43 38.5194 194.196 37.942L190.806 29.5548C190.573 28.9774 190.852 28.318 191.43 28.0846C192.007 27.8512 192.667 28.131 192.9 28.7083L196.289 37.0918C196.522 37.6691 196.244 38.3324 195.667 38.5658Z" fill="#A56644"/>
<path d="M207.563 63.9886C202.936 69.9118 194.306 70.9732 188.383 66.3459L181.279 60.8031C175.356 56.1758 174.294 47.5457 178.922 41.6225C183.549 35.6993 192.179 34.6378 198.102 39.2652L205.202 44.8095C211.125 49.4368 212.187 58.0669 207.563 63.9886Z" fill="#FF4B4B"/>
<path d="M204.942 65.045C212.386 66.0888 219.329 60.8549 220.373 53.4113L221.626 44.4905C222.669 37.047 217.436 30.1035 209.992 29.0597C202.548 28.016 195.605 33.2499 194.561 40.6935L193.309 49.6142C192.265 57.0578 197.499 64.0013 204.942 65.045Z" fill="#FF4B4B"/>
<path d="M195.136 30.9288C194.873 29.1365 194.651 23.5795 201.537 21.5931C201.865 21.4963 202.202 21.7225 202.242 22.0646C202.479 24.0467 202.622 30.0928 195.793 31.4021C195.481 31.4611 195.184 31.2455 195.136 30.9288Z" fill="#58CC02"/>
<path opacity="0.28" d="M192.084 54.6872C195.56 53.2822 197.239 49.3256 195.834 45.8499C194.429 42.3742 190.472 40.6955 186.996 42.1006C183.521 43.5056 181.842 47.4622 183.247 50.9379C184.652 54.4136 188.609 56.0922 192.084 54.6872Z" fill="white"/>
<path d="M425.952 239.82C425.955 239.236 426.431 238.763 427.015 238.766L435.496 238.804C436.08 238.806 436.553 239.283 436.55 239.867C436.547 240.451 436.07 240.924 435.487 240.921L427.01 240.883C426.426 240.881 425.949 240.404 425.952 239.82Z" fill="#A56644"/>
<path d="M399.672 241.108C396.177 234.99 398.322 227.126 404.44 223.631L411.772 219.437C417.89 215.942 425.755 218.086 429.25 224.205C432.745 230.323 430.6 238.187 424.482 241.682L417.15 245.873C411.031 249.368 403.167 247.223 399.672 241.108Z" fill="#FF4B4B"/>
<path d="M399.686 238.464C396.136 244.551 398.21 252.434 404.297 255.983L411.592 260.239C417.679 263.788 425.562 261.714 429.111 255.627C432.661 249.54 430.586 241.657 424.499 238.107L417.205 233.852C411.118 230.302 403.235 232.377 399.686 238.464Z" fill="#FF4B4B"/>
<path d="M432.756 242.074C434.404 242.483 439.304 244.264 438.581 250.943C438.549 251.262 438.233 251.475 437.922 251.388C436.118 250.889 430.822 248.865 432.112 242.476C432.171 242.185 432.464 242.003 432.756 242.074Z" fill="#58CC02"/>
<path opacity="0.28" d="M413.237 230.93C413.221 234.444 416.057 237.306 419.572 237.322C423.086 237.337 425.948 234.501 425.964 230.987C425.979 227.472 423.143 224.61 419.629 224.595C416.114 224.579 413.252 227.415 413.237 230.93Z" fill="white"/>
<path d="M401.144 133.047C400.741 132.817 400.601 132.303 400.83 131.901L404.162 126.056C404.392 125.653 404.905 125.513 405.308 125.742C405.71 125.971 405.851 126.485 405.621 126.888L402.291 132.73C402.062 133.132 401.546 133.276 401.144 133.047Z" fill="#A56644"/>
<path d="M391.787 151.707C386.197 151.737 381.599 147.19 381.569 141.6L381.529 134.899C381.499 129.309 386.046 124.711 391.636 124.681C397.226 124.651 401.824 129.198 401.854 134.789L401.891 141.488C401.921 147.078 397.374 151.676 391.787 151.707Z" fill="#FF4B4B"/>
<path d="M389.959 150.669C392.782 155.494 399.037 157.134 403.863 154.311L409.646 150.93C414.472 148.108 416.111 141.852 413.289 137.027C410.467 132.202 404.211 130.562 399.386 133.384L393.602 136.765C388.777 139.588 387.137 145.843 389.959 150.669Z" fill="#FF4B4B"/>
<path d="M405.359 129.221C406.284 128.241 409.425 125.55 413.758 128.653C413.966 128.8 413.99 129.101 413.809 129.282C412.761 130.334 409.298 133.204 405.386 129.823C405.208 129.668 405.196 129.395 405.359 129.221Z" fill="#58CC02"/>
<path opacity="0.28" d="M389.979 138.325C392.402 139.705 395.484 138.861 396.865 136.439C398.246 134.017 397.402 130.934 394.98 129.553C392.557 128.172 389.474 129.016 388.094 131.439C386.713 133.861 387.557 136.944 389.979 138.325Z" fill="white"/>
<path d="M36.8126 224.432C36.2266 224.694 35.5368 224.431 35.2747 223.845L31.4674 215.332C31.2054 214.746 31.4688 214.056 32.0548 213.794C32.6408 213.532 33.3306 213.796 33.5927 214.382L37.3982 222.89C37.6603 223.476 37.3986 224.17 36.8126 224.432Z" fill="#A56644"/>
<path d="M50.0217 250.173C45.4774 256.448 36.6273 257.865 30.352 253.321L22.8263 247.878C16.5511 243.334 15.1338 234.484 19.6781 228.208C24.2224 221.933 33.0725 220.516 39.3478 225.06L46.8696 230.505C53.1448 235.049 54.5621 243.899 50.0217 250.173Z" fill="#FF4B4B"/>
<path d="M47.3677 251.36C55.0746 252.155 62.0307 246.503 62.8264 238.796L63.782 229.56C64.5778 221.853 58.9257 214.897 51.2188 214.101C43.5119 213.306 36.5558 218.958 35.7601 226.665L34.8045 235.901C34.0087 243.608 39.6608 250.564 47.3677 251.36Z" fill="#FF4B4B"/>
<path d="M35.9905 216.584C35.6521 214.748 35.2145 209.032 42.2332 206.727C42.5676 206.615 42.924 206.835 42.9778 207.186C43.2963 209.219 43.6698 215.442 36.6851 217.047C36.3659 217.119 36.0512 216.909 35.9905 216.584Z" fill="#58CC02"/>
<path opacity="0.28" d="M33.7493 241.16C37.277 239.582 38.8577 235.444 37.2799 231.916C35.7021 228.388 31.5634 226.808 28.0358 228.385C24.5081 229.963 22.9275 234.102 24.5052 237.63C26.083 241.157 30.2217 242.738 33.7493 241.16Z" fill="white"/>
<path d="M140.814 282.086C140.033 282.086 139.398 281.451 139.398 280.67V269.328C139.398 268.547 140.033 267.912 140.814 267.912C141.595 267.912 142.23 268.547 142.23 269.328V280.665C142.23 281.446 141.595 282.086 140.814 282.086Z" fill="#EA2B2B"/>
<path d="M142.698 317.223C134.536 321.934 124.005 319.112 119.294 310.95L113.641 301.17C108.93 293.007 111.752 282.477 119.914 277.766C128.076 273.055 138.606 275.877 143.317 284.039L148.965 293.82C153.676 301.982 150.854 312.512 142.698 317.223Z" fill="#EA2B2B"/>
<path d="M139.164 317.223C147.326 321.934 157.856 319.112 162.567 310.95L168.215 301.17C172.926 293.007 170.104 282.477 161.942 277.766C153.78 273.055 143.25 275.877 138.539 284.039L132.891 293.82C128.18 301.982 131.002 312.512 139.164 317.223Z" fill="#EA2B2B"/>
<path d="M143.793 272.961C144.33 270.754 146.682 264.19 155.62 265.116C156.047 265.158 156.333 265.58 156.219 265.996C155.563 268.411 152.887 275.506 144.335 273.82C143.944 273.742 143.7 273.351 143.793 272.961Z" fill="#EA2B2B"/>
<path opacity="0.28" d="M128.995 299.1C133.696 299.1 137.506 295.289 137.506 290.589C137.506 285.889 133.696 282.078 128.995 282.078C124.295 282.078 120.484 285.889 120.484 290.589C120.484 295.289 124.295 299.1 128.995 299.1Z" fill="#EA2B2B"/>
<path d="M204.861 282.086C204.08 282.086 203.445 281.451 203.445 280.67V269.328C203.445 268.547 204.08 267.912 204.861 267.912C205.642 267.912 206.277 268.547 206.277 269.328V280.665C206.277 281.446 205.642 282.086 204.861 282.086Z" fill="#EA2B2B"/>
<path d="M206.744 317.223C198.582 321.934 188.052 319.112 183.341 310.95L177.688 301.17C172.977 293.007 175.798 282.477 183.961 277.766C192.123 273.055 202.653 275.877 207.364 284.039L213.012 293.82C217.723 301.982 214.901 312.512 206.744 317.223Z" fill="#EA2B2B"/>
<path d="M203.203 317.223C211.365 321.934 221.895 319.112 226.606 310.95L232.254 301.17C236.965 293.007 234.143 282.477 225.981 277.766C217.819 273.055 207.289 275.877 202.578 284.039L196.93 293.82C192.219 301.982 195.041 312.512 203.203 317.223Z" fill="#EA2B2B"/>
<path d="M207.84 272.961C208.376 270.754 210.729 264.19 219.667 265.116C220.094 265.158 220.38 265.58 220.266 265.996C219.61 268.411 216.934 275.506 208.382 273.82C207.991 273.742 207.747 273.351 207.84 272.961Z" fill="#EA2B2B"/>
<path opacity="0.28" d="M193.058 299.1C197.758 299.1 201.568 295.289 201.568 290.589C201.568 285.889 197.758 282.078 193.058 282.078C188.357 282.078 184.547 285.889 184.547 290.589C184.547 295.289 188.357 299.1 193.058 299.1Z" fill="#EA2B2B"/>
<path d="M268.924 282.086C268.143 282.086 267.508 281.451 267.508 280.67V269.328C267.508 268.547 268.143 267.912 268.924 267.912C269.704 267.912 270.34 268.547 270.34 269.328V280.665C270.34 281.446 269.704 282.086 268.924 282.086Z" fill="#EA2B2B"/>
<path d="M270.807 317.223C262.645 321.934 252.114 319.112 247.404 310.95L241.751 301.17C237.04 293.007 239.861 282.477 248.023 277.766C256.185 273.055 266.715 275.877 271.426 284.039L277.074 293.82C281.785 301.982 278.964 312.512 270.807 317.223Z" fill="#EA2B2B"/>
<path d="M267.273 317.223C275.435 321.934 285.965 319.112 290.676 310.95L296.324 301.17C301.035 293.007 298.214 282.477 290.052 277.766C281.89 273.055 271.359 275.877 266.648 284.039L261.001 293.82C256.29 301.982 259.111 312.512 267.273 317.223Z" fill="#EA2B2B"/>
<path d="M271.903 272.961C272.439 270.754 274.792 264.19 283.729 265.116C284.156 265.158 284.443 265.58 284.328 265.996C283.672 268.411 280.997 275.506 272.444 273.82C272.054 273.742 271.809 273.351 271.903 272.961Z" fill="#EA2B2B"/>
<path opacity="0.28" d="M257.105 299.1C261.805 299.1 265.615 295.289 265.615 290.589C265.615 285.889 261.805 282.078 257.105 282.078C252.404 282.078 248.594 285.889 248.594 290.589C248.594 295.289 252.404 299.1 257.105 299.1Z" fill="#EA2B2B"/>
<path d="M332.963 282.086C332.182 282.086 331.547 281.451 331.547 280.67V269.328C331.547 268.547 332.182 267.912 332.963 267.912C333.744 267.912 334.379 268.547 334.379 269.328V280.665C334.379 281.446 333.744 282.086 332.963 282.086Z" fill="#EA2B2B"/>
<path d="M334.846 317.223C326.684 321.934 316.153 319.112 311.443 310.95L305.79 301.17C301.079 293.007 303.9 282.477 312.062 277.766C320.224 273.055 330.755 275.877 335.465 284.039L341.113 293.82C345.824 301.982 343.003 312.512 334.846 317.223Z" fill="#EA2B2B"/>
<path d="M331.312 317.223C339.474 321.934 350.005 319.112 354.715 310.95L360.363 301.17C365.074 293.007 362.253 282.477 354.091 277.766C345.929 273.055 335.398 275.877 330.687 284.039L325.04 293.82C320.329 301.982 323.15 312.512 331.312 317.223Z" fill="#EA2B2B"/>
<path d="M335.942 272.961C336.478 270.754 338.831 264.19 347.768 265.116C348.195 265.158 348.482 265.58 348.367 265.996C347.711 268.411 345.036 275.506 336.483 273.82C336.093 273.742 335.848 273.351 335.942 272.961Z" fill="#EA2B2B"/>
<path opacity="0.28" d="M321.151 299.1C325.852 299.1 329.662 295.289 329.662 290.589C329.662 285.889 325.852 282.078 321.151 282.078C316.451 282.078 312.641 285.889 312.641 290.589C312.641 295.289 316.451 299.1 321.151 299.1Z" fill="#EA2B2B"/>
<path d="M165.869 249.473C165.088 249.473 164.453 248.838 164.453 248.057V236.715C164.453 235.934 165.088 235.299 165.869 235.299C166.65 235.299 167.285 235.934 167.285 236.715V248.052C167.285 248.833 166.65 249.473 165.869 249.473Z" fill="#EA2B2B"/>
<path d="M167.752 284.61C159.59 289.32 149.06 286.499 144.349 278.337L138.696 268.556C133.985 260.394 136.806 249.864 144.968 245.153C153.13 240.442 163.661 243.263 168.372 251.425L174.019 261.206C178.73 269.368 175.909 279.899 167.752 284.61Z" fill="#EA2B2B"/>
<path d="M164.218 284.61C172.38 289.32 182.911 286.499 187.622 278.337L193.27 268.556C197.98 260.394 195.159 249.864 186.997 245.153C178.835 240.442 168.305 243.263 163.594 251.425L157.946 261.206C153.235 269.368 156.056 279.899 164.218 284.61Z" fill="#EA2B2B"/>
<path d="M168.848 240.348C169.384 238.14 171.737 231.576 180.675 232.503C181.102 232.545 181.388 232.966 181.273 233.383C180.617 235.798 177.942 242.893 169.389 241.206C168.999 241.128 168.754 240.738 168.848 240.348Z" fill="#EA2B2B"/>
<path opacity="0.28" d="M154.05 266.486C158.75 266.486 162.561 262.676 162.561 257.976C162.561 253.275 158.75 249.465 154.05 249.465C149.349 249.465 145.539 253.275 145.539 257.976C145.539 262.676 149.349 266.486 154.05 266.486Z" fill="#EA2B2B"/>
<path d="M229.908 249.473C229.127 249.473 228.492 248.838 228.492 248.057V236.715C228.492 235.934 229.127 235.299 229.908 235.299C230.689 235.299 231.324 235.934 231.324 236.715V248.052C231.324 248.833 230.689 249.473 229.908 249.473Z" fill="#EA2B2B"/>
<path d="M231.791 284.61C223.629 289.32 213.099 286.499 208.388 278.337L202.735 268.556C198.024 260.394 200.845 249.864 209.007 245.153C217.169 240.442 227.7 243.263 232.411 251.425L238.059 261.206C242.769 269.368 239.948 279.899 231.791 284.61Z" fill="#EA2B2B"/>
<path d="M228.25 284.61C236.412 289.32 246.942 286.499 251.653 278.337L257.301 268.556C262.012 260.394 259.19 249.864 251.028 245.153C242.866 240.442 232.336 243.263 227.625 251.425L221.977 261.206C217.266 269.368 220.088 279.899 228.25 284.61Z" fill="#EA2B2B"/>
<path d="M232.887 240.348C233.423 238.14 235.776 231.576 244.714 232.503C245.141 232.545 245.427 232.966 245.312 233.383C244.657 235.798 241.981 242.893 233.429 241.206C233.038 241.128 232.793 240.738 232.887 240.348Z" fill="#EA2B2B"/>
<path opacity="0.28" d="M218.089 266.486C222.789 266.486 226.6 262.676 226.6 257.976C226.6 253.275 222.789 249.465 218.089 249.465C213.389 249.465 209.578 253.275 209.578 257.976C209.578 262.676 213.389 266.486 218.089 266.486Z" fill="#EA2B2B"/>
<path d="M293.963 249.473C293.182 249.473 292.547 248.838 292.547 248.057V236.715C292.547 235.934 293.182 235.299 293.963 235.299C294.744 235.299 295.379 235.934 295.379 236.715V248.052C295.379 248.833 294.744 249.473 293.963 249.473Z" fill="#EA2B2B"/>
<path d="M295.846 284.61C287.684 289.32 277.153 286.499 272.443 278.337L266.79 268.556C262.079 260.394 264.9 249.864 273.062 245.153C281.224 240.442 291.755 243.263 296.465 251.425L302.113 261.206C306.824 269.368 304.003 279.899 295.846 284.61Z" fill="#EA2B2B"/>
<path d="M292.304 284.61C300.466 289.32 310.997 286.499 315.708 278.337L321.355 268.556C326.066 260.394 323.245 249.864 315.083 245.153C306.921 240.442 296.39 243.263 291.68 251.425L286.032 261.206C281.321 269.368 284.142 279.899 292.304 284.61Z" fill="#EA2B2B"/>
<path d="M296.942 240.348C297.478 238.14 299.831 231.576 308.768 232.503C309.195 232.545 309.482 232.966 309.367 233.383C308.711 235.798 306.036 242.893 297.483 241.206C297.093 241.128 296.848 240.738 296.942 240.348Z" fill="#EA2B2B"/>
<path opacity="0.28" d="M282.151 266.486C286.852 266.486 290.662 262.676 290.662 257.976C290.662 253.275 286.852 249.465 282.151 249.465C277.451 249.465 273.641 253.275 273.641 257.976C273.641 262.676 277.451 266.486 282.151 266.486Z" fill="#EA2B2B"/>
<path d="M239.724 222.464C238.974 222.245 238.542 221.458 238.761 220.708L241.939 209.82C242.158 209.071 242.946 208.639 243.695 208.858C244.445 209.076 244.876 209.864 244.658 210.614L241.481 221.497C241.262 222.246 240.473 222.683 239.724 222.464Z" fill="#A56644"/>
<path d="M231.693 256.718C222.538 258.954 213.22 253.295 210.984 244.14L208.298 233.167C206.063 224.012 211.722 214.694 220.877 212.458C230.032 210.223 239.35 215.882 241.585 225.037L244.266 236.009C246.502 245.164 240.843 254.482 231.693 256.718Z" fill="#FF4B4B"/>
<path d="M228.29 255.725C234.805 262.534 245.705 262.777 252.514 256.261L260.676 248.455C267.485 241.94 267.727 231.04 261.212 224.231C254.697 217.422 243.798 217.18 236.989 223.695L228.826 231.502C222.017 238.017 221.775 248.916 228.29 255.725Z" fill="#FF4B4B"/>
<path d="M245.14 214.533C246.273 212.565 250.371 206.923 258.691 210.317C259.089 210.476 259.246 210.961 259.019 211.329C257.713 213.464 253.156 219.525 245.419 215.51C245.066 215.325 244.941 214.882 245.14 214.533Z" fill="#58CC02"/>
<path opacity="0.28" d="M223.627 235.49C228.139 236.807 232.865 234.217 234.182 229.705C235.499 225.193 232.909 220.467 228.396 219.15C223.884 217.833 219.159 220.423 217.842 224.935C216.525 229.448 219.115 234.173 223.627 235.49Z" fill="white"/>
<path d="M313.811 220.431C313.086 220.141 312.732 219.316 313.022 218.591L317.232 208.059C317.522 207.334 318.347 206.98 319.073 207.27C319.798 207.56 320.151 208.385 319.862 209.11L315.653 219.637C315.363 220.362 314.536 220.721 313.811 220.431Z" fill="#A56644"/>
<path d="M302.503 253.757C293.176 255.101 284.445 248.572 283.101 239.245L281.482 228.064C280.138 218.736 286.667 210.006 295.994 208.661C305.322 207.317 314.053 213.846 315.397 223.174L317.01 234.352C318.355 243.68 311.826 252.41 302.503 253.757Z" fill="#FF4B4B"/>
<path d="M299.23 252.441C305.06 259.846 315.885 261.135 323.29 255.305L332.165 248.319C339.569 242.489 340.858 231.664 335.028 224.26C329.198 216.856 318.373 215.566 310.969 221.396L302.094 228.382C294.689 234.212 293.4 245.037 299.23 252.441Z" fill="#FF4B4B"/>
<path d="M319.949 213.058C321.266 211.207 325.887 205.986 333.842 210.164C334.223 210.361 334.332 210.859 334.071 211.203C332.566 213.202 327.448 218.797 320.132 214.056C319.799 213.839 319.717 213.385 319.949 213.058Z" fill="#58CC02"/>
<path opacity="0.28" d="M296.498 231.849C300.862 233.594 305.815 231.471 307.56 227.106C309.305 222.742 307.181 217.789 302.817 216.044C298.452 214.299 293.5 216.423 291.755 220.787C290.01 225.152 292.133 230.105 296.498 231.849Z" fill="white"/>
<path d="M204.861 249.479C204.08 249.479 203.445 248.844 203.445 248.063V236.721C203.445 235.94 204.08 235.305 204.861 235.305C205.642 235.305 206.277 235.94 206.277 236.721V248.058C206.277 248.839 205.642 249.479 204.861 249.479Z" fill="#A56644"/>
<path d="M206.744 284.615C198.582 289.326 188.052 286.505 183.341 278.343L177.688 268.562C172.977 260.4 175.798 249.87 183.961 245.159C192.123 240.448 202.653 243.269 207.364 251.431L213.012 261.212C217.723 269.374 214.901 279.905 206.744 284.615Z" fill="#FF4B4B"/>
<path d="M203.203 284.615C211.365 289.326 221.895 286.505 226.606 278.343L232.254 268.562C236.965 260.4 234.143 249.87 225.981 245.159C217.819 240.448 207.289 243.269 202.578 251.431L196.93 261.212C192.219 269.374 195.041 279.905 203.203 284.615Z" fill="#FF4B4B"/>
<path d="M207.84 240.353C208.376 238.146 210.729 231.582 219.667 232.509C220.094 232.551 220.38 232.972 220.266 233.389C219.61 235.804 216.934 242.899 208.382 241.212C207.991 241.134 207.747 240.744 207.84 240.353Z" fill="#58CC02"/>
<path opacity="0.28" d="M193.05 266.492C197.75 266.492 201.561 262.682 201.561 257.981C201.561 253.281 197.75 249.471 193.05 249.471C188.349 249.471 184.539 253.281 184.539 257.981C184.539 262.682 188.349 266.492 193.05 266.492Z" fill="white"/>
<path d="M270.567 249.608C269.798 249.475 269.281 248.74 269.414 247.971L271.352 236.795C271.485 236.026 272.219 235.509 272.989 235.642C273.758 235.776 274.275 236.51 274.142 237.279L272.205 248.45C272.071 249.219 271.336 249.742 270.567 249.608Z" fill="#A56644"/>
<path d="M266.41 284.549C257.563 287.796 247.67 283.217 244.423 274.371L240.524 263.768C237.277 254.921 241.856 245.027 250.703 241.78C259.55 238.533 269.443 243.112 272.69 251.959L276.584 262.561C279.831 271.408 275.252 281.301 266.41 284.549Z" fill="#FF4B4B"/>
<path d="M262.938 283.942C270.175 289.978 281.033 288.997 287.069 281.76L294.305 273.088C300.341 265.851 299.36 254.993 292.123 248.957C284.886 242.921 274.028 243.902 267.992 251.139L260.756 259.811C254.72 267.048 255.701 277.906 262.938 283.942Z" fill="#FF4B4B"/>
<path d="M275.063 241.123C275.968 239.04 279.408 232.974 288.056 235.414C288.469 235.528 288.679 235.993 288.495 236.384C287.436 238.651 283.588 245.185 275.449 242.062C275.078 241.918 274.904 241.492 275.063 241.123Z" fill="#58CC02"/>
<path opacity="0.28" d="M256.095 264.35C260.726 265.153 265.131 262.05 265.934 257.419C266.737 252.788 263.634 248.382 259.003 247.579C254.372 246.776 249.966 249.879 249.163 254.511C248.36 259.142 251.463 263.547 256.095 264.35Z" fill="white"/>
<path d="M327.839 250.935C327.165 251.33 326.296 251.104 325.901 250.43L320.162 240.647C319.767 239.974 319.993 239.104 320.667 238.709C321.34 238.314 322.209 238.541 322.604 239.214L328.341 248.993C328.736 249.667 328.512 250.54 327.839 250.935Z" fill="#A56644"/>
<path d="M347.236 280.287C342.579 288.48 332.069 291.375 323.876 286.718L314.051 281.142C305.857 276.486 302.962 265.976 307.619 257.782C312.275 249.589 322.786 246.694 330.979 251.351L340.8 256.929C348.993 261.586 351.888 272.096 347.236 280.287Z" fill="#FF4B4B"/>
<path d="M344.185 282.077C353.609 282.01 361.264 274.249 361.198 264.825L361.12 253.531C361.053 244.107 353.292 236.452 343.868 236.518C334.444 236.585 326.789 244.347 326.855 253.77L326.933 265.065C327 274.488 334.761 282.144 344.185 282.077Z" fill="#FF4B4B"/>
<path d="M325.789 241.555C325.135 239.38 323.843 232.528 332.021 228.805C332.41 228.625 332.871 228.844 332.982 229.261C333.639 231.676 334.921 239.15 326.691 242.022C326.315 242.153 325.906 241.94 325.789 241.555Z" fill="#58CC02"/>
<path opacity="0.28" d="M326.243 271.567C330.297 269.188 331.656 263.974 329.277 259.92C326.899 255.865 321.684 254.507 317.63 256.885C313.576 259.263 312.217 264.478 314.595 268.532C316.974 272.587 322.188 273.945 326.243 271.567Z" fill="white"/>
<path d="M137.596 249.998C136.853 250.24 136.053 249.834 135.81 249.092L132.291 238.309C132.049 237.567 132.455 236.766 133.198 236.524C133.94 236.281 134.741 236.688 134.983 237.43L138.501 248.208C138.743 248.95 138.338 249.756 137.596 249.998Z" fill="#A56644"/>
<path d="M150.281 282.816C143.984 289.827 133.098 290.412 126.087 284.115L117.678 276.571C110.667 270.273 110.082 259.387 116.379 252.376C122.677 245.365 133.563 244.78 140.574 251.077L148.978 258.623C155.988 264.921 156.574 275.807 150.281 282.816Z" fill="#FF4B4B"/>
<path d="M146.919 283.915C156.14 285.861 165.275 279.911 167.221 270.69L169.555 259.64C171.501 250.419 165.551 241.284 156.33 239.338C147.11 237.392 137.974 243.341 136.028 252.562L133.694 263.613C131.748 272.834 137.698 281.969 146.919 283.915Z" fill="#FF4B4B"/>
<path d="M137.598 240.399C137.423 238.134 137.623 231.164 146.407 229.272C146.825 229.179 147.228 229.491 147.249 229.923C147.375 232.422 147.033 239.997 138.379 241.048C137.984 241.094 137.63 240.799 137.598 240.399Z" fill="#58CC02"/>
<path opacity="0.28" d="M131.716 269.838C136.184 268.379 138.624 263.574 137.166 259.106C135.707 254.638 130.903 252.198 126.434 253.656C121.966 255.115 119.526 259.919 120.985 264.388C122.443 268.856 127.248 271.296 131.716 269.838Z" fill="white"/>
<path d="M108.799 279.19C108.018 279.19 107.383 278.555 107.383 277.774V266.431C107.383 265.651 108.018 265.016 108.799 265.016C109.579 265.016 110.215 265.651 110.215 266.431V277.769C110.215 278.55 109.579 279.19 108.799 279.19Z" fill="#A56644"/>
<path d="M110.682 314.326C102.52 319.037 91.9894 316.216 87.2786 308.054L81.6255 298.273C76.9147 290.111 79.736 279.581 87.898 274.87C96.06 270.159 106.59 272.98 111.301 281.142L116.949 290.923C121.66 299.085 118.839 309.616 110.682 314.326Z" fill="#FF4B4B"/>
<path d="M107.14 314.326C115.302 319.037 125.833 316.216 130.544 308.054L136.191 298.273C140.902 290.111 138.081 279.581 129.919 274.87C121.757 270.159 111.226 272.98 106.516 281.142L100.868 290.923C96.1569 299.085 98.9782 309.616 107.14 314.326Z" fill="#FF4B4B"/>
<path d="M111.778 270.064C112.314 267.857 114.667 261.293 123.604 262.22C124.031 262.261 124.318 262.683 124.203 263.1C123.547 265.515 120.872 272.61 112.319 270.923C111.929 270.845 111.684 270.455 111.778 270.064Z" fill="#58CC02"/>
<path opacity="0.28" d="M96.9717 296.205C101.672 296.205 105.482 292.395 105.482 287.694C105.482 282.994 101.672 279.184 96.9717 279.184C92.2713 279.184 88.4609 282.994 88.4609 287.694C88.4609 292.395 92.2713 296.205 96.9717 296.205Z" fill="white"/>
<path d="M172.83 279.178C172.049 279.178 171.414 278.543 171.414 277.762V266.42C171.414 265.639 172.049 265.004 172.83 265.004C173.611 265.004 174.246 265.639 174.246 266.42V277.757C174.246 278.538 173.611 279.178 172.83 279.178Z" fill="#A56644"/>
<path d="M174.713 314.315C166.551 319.026 156.021 316.204 151.31 308.042L145.657 298.261C140.946 290.099 143.767 279.569 151.929 274.858C160.091 270.147 170.622 272.968 175.333 281.13L180.98 290.911C185.691 299.073 182.87 309.604 174.713 314.315Z" fill="#FF4B4B"/>
<path d="M171.179 314.315C179.341 319.026 189.872 316.204 194.583 308.042L200.23 298.261C204.941 290.099 202.12 279.569 193.958 274.858C185.796 270.147 175.265 272.968 170.555 281.13L164.907 290.911C160.196 299.073 163.017 309.604 171.179 314.315Z" fill="#FF4B4B"/>
<path d="M175.809 270.053C176.345 267.846 178.698 261.282 187.636 262.208C188.063 262.25 188.349 262.671 188.234 263.088C187.578 265.503 184.903 272.598 176.35 270.912C175.96 270.833 175.715 270.443 175.809 270.053Z" fill="#58CC02"/>
<path opacity="0.28" d="M161.026 296.191C165.727 296.191 169.537 292.381 169.537 287.681C169.537 282.98 165.727 279.17 161.026 279.17C156.326 279.17 152.516 282.98 152.516 287.681C152.516 292.381 156.326 296.191 161.026 296.191Z" fill="white"/>
<path d="M232.316 280.273C231.615 280.618 230.765 280.329 230.42 279.628L225.407 269.454C225.062 268.753 225.351 267.903 226.051 267.558C226.752 267.213 227.602 267.502 227.947 268.202L232.958 278.372C233.303 279.072 233.016 279.927 232.316 280.273Z" fill="#A56644"/>
<path d="M249.535 310.964C244.295 318.797 233.602 320.92 225.769 315.68L216.375 309.405C208.542 304.165 206.419 293.472 211.658 285.639C216.898 277.806 227.591 275.683 235.424 280.922L244.813 287.2C252.646 292.44 254.77 303.133 249.535 310.964Z" fill="#FF4B4B"/>
<path d="M246.363 312.527C255.766 313.146 263.965 305.961 264.584 296.557L265.327 285.287C265.946 275.884 258.761 267.684 249.357 267.066C239.954 266.448 231.754 273.632 231.136 283.036L230.393 294.306C229.774 303.71 236.959 311.909 246.363 312.527Z" fill="#FF4B4B"/>
<path d="M230.97 270.772C230.475 268.555 229.685 261.627 238.111 258.508C238.513 258.357 238.956 258.609 239.037 259.033C239.516 261.489 240.252 269.036 231.835 271.303C231.45 271.406 231.058 271.163 230.97 270.772Z" fill="#58CC02"/>
<path opacity="0.28" d="M229.314 300.75C233.53 298.672 235.264 293.57 233.187 289.354C231.109 285.137 226.007 283.403 221.791 285.481C217.574 287.558 215.84 292.66 217.918 296.877C219.995 301.093 225.097 302.827 229.314 300.75Z" fill="white"/>
<path d="M300.931 279.178C300.151 279.178 299.516 278.543 299.516 277.762V266.42C299.516 265.639 300.151 265.004 300.931 265.004C301.712 265.004 302.347 265.639 302.347 266.42V277.757C302.347 278.538 301.712 279.178 300.931 279.178Z" fill="#A56644"/>
<path d="M302.815 314.315C294.653 319.026 284.122 316.204 279.411 308.042L273.758 298.261C269.048 290.099 271.869 279.569 280.031 274.858C288.193 270.147 298.723 272.968 303.434 281.13L309.082 290.911C313.793 299.073 310.972 309.604 302.815 314.315Z" fill="#FF4B4B"/>
<path d="M299.281 314.315C307.443 319.026 317.973 316.204 322.684 308.042L328.332 298.261C333.043 290.099 330.222 279.569 322.06 274.858C313.898 270.147 303.367 272.968 298.656 281.13L293.008 290.911C288.298 299.073 291.119 309.604 299.281 314.315Z" fill="#FF4B4B"/>
<path d="M303.911 270.053C304.447 267.846 306.8 261.282 315.737 262.208C316.164 262.25 316.45 262.671 316.336 263.088C315.68 265.503 313.004 272.598 304.452 270.912C304.062 270.833 303.817 270.443 303.911 270.053Z" fill="#58CC02"/>
<path opacity="0.28" d="M289.12 296.191C293.821 296.191 297.631 292.381 297.631 287.681C297.631 282.98 293.821 279.17 289.12 279.17C284.42 279.17 280.609 282.98 280.609 287.681C280.609 292.381 284.42 296.191 289.12 296.191Z" fill="white"/>
<path d="M368.434 279.739C367.7 279.474 367.318 278.661 367.583 277.927L371.433 267.258C371.698 266.523 372.511 266.141 373.246 266.406C373.98 266.671 374.362 267.484 374.097 268.219L370.248 278.883C369.983 279.617 369.169 280.004 368.434 279.739Z" fill="#A56644"/>
<path d="M358.285 313.426C349.008 315.086 340.061 308.857 338.401 299.581L336.404 288.462C334.743 279.185 340.972 270.238 350.248 268.578C359.525 266.917 368.472 273.146 370.133 282.422L372.125 293.54C373.785 302.816 367.556 311.764 358.285 313.426Z" fill="#FF4B4B"/>
<path d="M354.955 312.224C361.034 319.426 371.896 320.347 379.098 314.269L387.731 306.986C394.933 300.908 395.854 290.045 389.776 282.843C383.698 275.642 372.835 274.721 365.633 280.799L357 288.082C349.798 294.16 348.877 305.023 354.955 312.224Z" fill="#FF4B4B"/>
<path d="M374.333 272.166C375.587 270.272 380.028 264.897 388.121 268.803C388.508 268.987 388.634 269.48 388.385 269.833C386.948 271.882 382.023 277.648 374.551 273.158C374.21 272.952 374.113 272.502 374.333 272.166Z" fill="#58CC02"/>
<path opacity="0.28" d="M351.563 291.724C355.984 293.32 360.862 291.029 362.458 286.608C364.053 282.187 361.763 277.309 357.341 275.713C352.92 274.118 348.042 276.408 346.447 280.83C344.851 285.251 347.142 290.129 351.563 291.724Z" fill="white"/>
<g clip-path="url(#clip1_17192_961)">
<path d="M137.645 127.776L105.799 138.253C103.394 139.045 100.776 137.723 99.9847 135.318L92.6086 112.899C88.9359 101.736 95.0629 89.5946 106.229 85.9207C117.392 82.2479 129.534 88.3749 133.208 99.5413L140.584 121.96C141.372 124.366 140.053 126.983 137.645 127.776Z" fill="#CE82FF"/>
<path d="M79.5998 118.184C63.6891 127.184 43.4941 121.585 34.4939 105.675C25.4937 89.7642 31.0926 69.5692 47.0033 60.569" fill="#DDF4FF"/>
<path d="M39.2272 88.2632C41.7646 87.4283 43.1448 84.6945 42.31 82.1571C41.4751 79.6196 38.7413 78.2394 36.2038 79.0743C33.6664 79.9091 32.2862 82.6429 33.121 85.1804C33.9559 87.7179 36.6897 89.0981 39.2272 88.2632Z" fill="white"/>
<path d="M35.1039 94.4387C36.3069 94.0429 36.9613 92.7468 36.5654 91.5437C36.1696 90.3407 34.8735 89.6863 33.6705 90.0821C32.4674 90.478 31.8131 91.7741 32.2089 92.9771C32.6047 94.1801 33.9008 94.8345 35.1039 94.4387Z" fill="white"/>
<path d="M34.1601 106.932L25.8841 111.616C25.5852 111.784 25.1062 111.493 24.8039 110.962C24.5065 110.433 24.5025 109.87 24.8013 109.702L33.0773 105.018" fill="#01357A"/>
<path d="M28.5903 97.6156C29.58 97.0551 30.8322 97.4053 31.3914 98.3912L38.9721 111.79C39.5325 112.78 39.1824 114.032 38.1964 114.592C37.2067 115.152 35.9545 114.802 35.3953 113.816L27.8146 100.417C27.2542 99.427 27.6031 98.1711 28.5903 97.6156Z" fill="#01357A"/>
<path d="M26.3704 114.201C28.2919 113.568 29.3371 111.498 28.7049 109.577C28.0727 107.655 26.0024 106.61 24.0809 107.242C22.1593 107.874 21.1141 109.944 21.7463 111.866C22.3785 113.788 24.4488 114.833 26.3704 114.201Z" fill="#01357A"/>
<path d="M141.044 128.656C141.923 131.329 140.468 134.205 137.799 135.083L107.485 145.057C104.816 145.935 101.936 144.481 101.058 141.812L100.74 140.846C99.8602 138.173 101.316 135.297 103.985 134.419L134.298 124.445C136.967 123.567 139.847 125.021 140.726 127.69L141.044 128.656Z" fill="#AA5FF2"/>
<path d="M149.055 123.137C149.836 125.509 148.146 127.659 145.473 128.538L97.4244 144.347C94.7517 145.226 92.115 144.5 91.3347 142.128L89.5454 136.69C88.7651 134.318 90.2962 131.685 92.9689 130.805L141.014 114.998C143.686 114.118 146.482 115.328 147.262 117.7L149.052 123.138L149.055 123.137Z" fill="#CE82FF"/>
<path d="M160.861 107.126C162.567 112.311 159.746 117.899 154.561 119.605L84.8184 142.551C79.6329 144.257 74.0455 141.436 72.3394 136.251C70.6332 131.065 73.4542 125.478 78.6397 123.772L148.382 100.826C153.567 99.1194 159.155 101.94 160.861 107.126Z" fill="#1CB0F6"/>
<path d="M146.039 99.0379C146.48 100.38 145.731 101.833 144.363 102.283L82.7316 122.561C81.3637 123.011 79.8976 122.287 79.4561 120.945C79.0146 119.603 79.764 118.149 81.1319 117.699L142.763 97.4213C144.131 96.9713 145.597 97.6959 146.039 99.0379Z" fill="#1CB0F6"/>
<path d="M148.579 99.9092C148.74 100.4 148.473 100.928 147.983 101.09L79.0992 123.754C78.6086 123.915 78.08 123.648 77.9185 123.158C77.7571 122.667 78.0227 122.135 78.5134 121.973L147.397 99.3094C147.888 99.148 148.416 99.4148 148.579 99.9092Z" fill="#84D8FF"/>
<path d="M150.671 121.735C150.833 122.226 150.566 122.755 150.075 122.916L90.3805 142.557C89.8898 142.718 89.3612 142.451 89.1998 141.96C89.0383 141.47 89.304 140.937 89.7947 140.776L149.486 121.137C149.98 120.974 150.51 121.245 150.671 121.735Z" fill="#84D8FF"/>
<path d="M84.909 137.468C87.5799 136.589 89.0327 133.711 88.1539 131.04C87.2752 128.37 84.3976 126.917 81.7267 127.796C79.0558 128.674 77.603 131.552 78.4818 134.223C79.3606 136.894 82.2381 138.346 84.909 137.468Z" fill="#6F4EA1"/>
<path d="M84.3547 135.776C86.0915 135.205 87.0362 133.334 86.4648 131.597C85.8934 129.86 84.0222 128.915 82.2854 129.487C80.5486 130.058 79.6039 131.929 80.1753 133.666C80.7467 135.403 82.6179 136.348 84.3547 135.776Z" fill="#FFC800"/>
<path d="M84.6068 133.28C85.4074 133.016 85.843 132.154 85.5795 131.353C85.3161 130.553 84.4535 130.117 83.6528 130.38C82.8522 130.644 82.4167 131.506 82.6801 132.307C82.9435 133.108 83.8061 133.543 84.6068 133.28Z" fill="#FFF5D3"/>
<path d="M118.167 126.528C120.838 125.65 122.291 122.772 121.412 120.101C120.533 117.43 117.655 115.977 114.985 116.856C112.314 117.735 110.861 120.612 111.74 123.283C112.618 125.954 115.496 127.407 118.167 126.528Z" fill="#6F4EA1"/>
<path d="M117.613 124.837C119.349 124.265 120.294 122.394 119.723 120.657C119.151 118.921 117.28 117.976 115.543 118.547C113.806 119.119 112.862 120.99 113.433 122.727C114.005 124.464 115.876 125.408 117.613 124.837Z" fill="#FFC800"/>
<path d="M117.857 122.338C118.657 122.075 119.093 121.212 118.83 120.412C118.566 119.611 117.703 119.176 116.903 119.439C116.102 119.702 115.667 120.565 115.93 121.366C116.194 122.166 117.056 122.602 117.857 122.338Z" fill="#FFF5D3"/>
<path d="M101.542 131.997C104.213 131.118 105.666 128.241 104.787 125.57C103.908 122.899 101.03 121.446 98.3595 122.325C95.6886 123.204 94.2358 126.081 95.1146 128.752C95.9934 131.423 98.8709 132.876 101.542 131.997Z" fill="#6F4EA1"/>
<path d="M100.98 130.306C102.717 129.734 103.661 127.863 103.09 126.126C102.518 124.389 100.647 123.445 98.9104 124.016C97.1736 124.588 96.2289 126.459 96.8003 128.196C97.3717 129.932 99.2429 130.877 100.98 130.306Z" fill="#FFC800"/>
<path d="M101.232 127.811C102.032 127.548 102.468 126.685 102.205 125.884C101.941 125.084 101.078 124.648 100.278 124.912C99.4772 125.175 99.0417 126.038 99.3051 126.838C99.5685 127.639 100.431 128.075 101.232 127.811Z" fill="#FFF5D3"/>
<path d="M134.792 121.056C137.463 120.177 138.916 117.299 138.037 114.628C137.158 111.957 134.28 110.505 131.61 111.383C128.939 112.262 127.486 115.14 128.365 117.811C129.243 120.482 132.121 121.934 134.792 121.056Z" fill="#6F4EA1"/>
<path d="M134.238 119.364C135.974 118.793 136.919 116.922 136.348 115.185C135.776 113.448 133.905 112.503 132.168 113.075C130.431 113.646 129.487 115.517 130.058 117.254C130.63 118.991 132.501 119.936 134.238 119.364Z" fill="#FFC800"/>
<path d="M134.482 116.868C135.282 116.604 135.718 115.742 135.455 114.941C135.191 114.14 134.328 113.705 133.528 113.968C132.727 114.232 132.292 115.094 132.555 115.895C132.819 116.696 133.681 117.131 134.482 116.868Z" fill="#FFF5D3"/>
<path d="M151.417 115.587C154.088 114.708 155.541 111.831 154.662 109.16C153.783 106.489 150.905 105.036 148.235 105.915C145.564 106.793 144.111 109.671 144.99 112.342C145.868 115.013 148.746 116.466 151.417 115.587Z" fill="#6F4EA1"/>
<path d="M150.863 113.895C152.599 113.324 153.544 111.453 152.973 109.716C152.401 107.979 150.53 107.035 148.793 107.606C147.056 108.177 146.112 110.049 146.683 111.785C147.255 113.522 149.126 114.467 150.863 113.895Z" fill="#FFC800"/>
<path d="M151.107 111.397C151.907 111.134 152.343 110.271 152.08 109.47C151.816 108.67 150.953 108.234 150.153 108.498C149.352 108.761 148.917 109.624 149.18 110.424C149.444 111.225 150.306 111.66 151.107 111.397Z" fill="#FFF5D3"/>
<path d="M96.1307 115.336C99.1383 114.346 100.774 111.106 99.7847 108.099C98.7952 105.091 95.5548 103.455 92.5473 104.445C89.5397 105.434 87.9037 108.674 88.8933 111.682C89.8828 114.69 93.1232 116.326 96.1307 115.336Z" fill="#583C8E"/>
<path d="M130.467 104.039C133.474 103.05 135.11 99.8093 134.121 96.8017C133.131 93.7941 129.891 92.1582 126.883 93.1477C123.876 94.1373 122.24 97.3776 123.229 100.385C124.219 103.393 127.459 105.029 130.467 104.039Z" fill="#583C8E"/>
<path d="M80.8558 55.5062L100.353 33.6922L111.684 21.0162C115.312 16.9552 121.978 18.3461 123.681 23.5204L128.995 39.6717L134.309 55.8229C136.011 60.9973 131.474 66.0743 126.143 64.9609L109.499 61.4894L80.8558 55.5062Z" fill="#FFAADE"/>
<path d="M105.994 47.2363L77.353 41.2605L60.7088 37.789C55.3783 36.6756 50.8405 41.7527 52.543 46.927L57.857 63.0783L63.1711 79.2295C64.8735 84.4038 71.5394 85.7947 75.1674 81.7338L86.4988 69.0578L105.994 47.2363Z" fill="#FFAADE"/>
<path d="M109.724 100.099C127.573 94.2261 137.489 75.6289 131.873 58.5607C126.258 41.4924 107.236 32.4164 89.3877 38.2889C71.5393 44.1613 61.6228 62.7584 67.2386 79.8267C72.8543 96.895 91.8758 105.971 109.724 100.099Z" fill="#AA5FF2"/>
<path d="M93.1643 49.7475C102.383 46.7144 112.162 50.0429 117.758 57.3225C118.261 57.9729 119.115 58.2398 119.895 57.9829L123.676 56.7391C124.598 56.4358 124.997 55.3323 124.454 54.5221C117.312 43.8829 103.722 38.8257 90.9494 43.028C78.1771 47.2303 70.2446 59.3689 70.8148 72.1704C70.8581 73.1407 71.8307 73.793 72.7526 73.4896L76.5404 72.2434C77.321 71.9865 77.8497 71.2647 77.8641 70.4443C78.0483 61.2629 83.942 52.7818 93.1643 49.7475Z" fill="white"/>
<path d="M105.966 88.6411C96.7475 91.6742 86.9682 88.3457 81.3722 81.0661C80.8698 80.4157 80.0157 80.1488 79.2351 80.4056L75.451 81.6507C74.5291 81.954 74.1301 83.0575 74.6727 83.8677C81.8149 94.5069 95.4051 99.5641 108.177 95.3618C120.95 91.1595 128.878 79.0221 128.312 66.2194C128.269 65.2491 127.291 64.5943 126.369 64.8976L122.585 66.1427C121.805 66.3995 121.276 67.1214 121.258 67.943C121.077 77.1232 115.185 85.608 105.966 88.6411Z" fill="white"/>
<path fill-rule="evenodd" clip-rule="evenodd" d="M83.7677 66.9589C80.8645 67.9141 79.2832 71.0462 80.2384 73.9493L81.6314 78.1832C82.5866 81.0863 85.7187 82.6676 88.6218 81.7124C91.525 80.7573 93.1063 77.6252 92.1511 74.722L90.7581 70.4881C89.8029 67.585 86.6708 66.0037 83.7677 66.9589Z" fill="white"/>
<path fill-rule="evenodd" clip-rule="evenodd" d="M84.7047 69.7994C83.2475 70.2788 82.4419 71.8745 82.9421 73.3948L84.0661 76.8109C84.5663 78.3313 86.162 79.1369 87.6192 78.6575C89.0763 78.178 89.8819 76.5823 89.3817 75.062L88.2577 71.6459C87.8256 70.1073 86.225 69.2991 84.7047 69.7994Z" fill="black"/>
<path d="M86.683 71.3487C87.418 71.1069 87.8177 70.315 87.5759 69.5801C87.3341 68.8451 86.5423 68.4453 85.8073 68.6872C85.0724 68.929 84.6726 69.7208 84.9144 70.4558C85.1562 71.1907 85.9481 71.5905 86.683 71.3487Z" fill="white"/>
<path fill-rule="evenodd" clip-rule="evenodd" d="M110.815 58.0585C107.911 59.0137 106.33 62.1458 107.285 65.0489L108.678 69.2828C109.633 72.1859 112.766 73.7672 115.669 72.812C118.572 71.8569 120.153 68.7248 119.198 65.8216L117.805 61.5877C116.85 58.6846 113.718 57.1033 110.815 58.0585Z" fill="white"/>
<path fill-rule="evenodd" clip-rule="evenodd" d="M111.752 60.899C110.294 61.3784 109.489 62.9741 109.989 64.4944L111.113 67.9105C111.613 69.4309 113.209 70.2365 114.666 69.7571C116.123 69.2776 116.929 67.6819 116.429 66.1616L115.305 62.7455C114.873 61.2069 113.272 60.3988 111.752 60.899Z" fill="black"/>
<path d="M113.73 62.4483C114.465 62.2065 114.865 61.4146 114.623 60.6797C114.381 59.9447 113.589 59.5449 112.854 59.7868C112.119 60.0286 111.719 60.8204 111.961 61.5554C112.203 62.2903 112.995 62.6901 113.73 62.4483Z" fill="white"/>
<path fill-rule="evenodd" clip-rule="evenodd" d="M100.715 37.8418L80.0218 44.6504C77.9587 45.3292 75.7121 44.1981 75.0321 42.1313C74.3534 40.0683 75.4845 37.8217 77.5512 37.1417L98.2449 30.3331C100.308 29.6543 102.555 30.7855 103.235 32.8522C103.913 34.9153 102.782 37.1618 100.715 37.8418Z" fill="#6F4EA1"/>
<path d="M79.7031 26.8555C79.7031 26.8555 86.586 27.1656 89.2648 37.4484" stroke="#6F4EA1" stroke-width="4.0384" stroke-miterlimit="10" stroke-linecap="round"/>
<path d="M76.5671 30.9794C79.1579 30.127 80.5672 27.3356 79.7147 24.7448C78.8623 22.154 76.071 20.7447 73.4802 21.5972C70.8893 22.4496 69.4801 25.2409 70.3325 27.8317C71.185 30.4226 73.9763 31.8318 76.5671 30.9794Z" fill="#6F4EA1"/>
<path d="M50.1777 147.578C49.9937 147.423 49.7317 147.616 49.8163 147.844C50.315 149.25 50.6756 151.68 48.2519 153.478C48.2519 153.478 51.1307 151.295 53.8841 153.332C54.0703 153.472 54.329 153.303 54.2522 153.075C53.9274 152.095 53.7189 150.525 54.8045 148.924C54.9322 148.738 54.7572 148.491 54.5416 148.557C53.5749 148.872 51.9433 149.03 50.1777 147.578Z" fill="white"/>
</g>
<defs>
<clipPath id="clip0_17192_961">
<rect width="90.9982" height="106.731" fill="white" transform="translate(343.047 148.279) rotate(26.4342)"/>
</clipPath>
<clipPath id="clip1_17192_961">
<rect width="133.602" height="127.896" fill="white" transform="translate(0 45.7754) rotate(-18.2122)"/>
</clipPath>
</defs>
</svg>
