<svg width="450" height="206" viewBox="0 0 450 206" fill="none" xmlns="http://www.w3.org/2000/svg">
<mask id="mask0_3429_1453" style="mask-type:alpha" maskUnits="userSpaceOnUse" x="0" y="0" width="450" height="206">
<rect width="450" height="206" rx="22" fill="#FF9600"/>
</mask>
<g mask="url(#mask0_3429_1453)">
<circle cx="331" cy="115" r="145" fill="white" fill-opacity="0.11"/>
<circle cx="331" cy="115" r="115" fill="white" fill-opacity="0.13"/>
<path opacity="0.34" d="M392.661 86.8322L384.532 82.3126C381.574 73.1477 376.451 64.8307 369.596 58.0663C370.488 57.4733 371.222 56.6718 371.734 55.7312C372.571 54.1829 372.761 52.3661 372.262 50.6782C371.764 48.9902 370.617 47.5685 369.072 46.724L354.714 38.9154L365.415 19.2386C368.292 19.0805 371.138 18.566 373.888 17.7071C375.394 17.2578 376.805 16.538 378.053 15.5828C378.642 15.1309 379.145 14.5764 379.537 13.9459C379.58 13.8856 379.627 13.8288 379.679 13.7759L379.827 13.498C379.94 13.1894 380.064 12.8854 380.164 12.5737C380.63 11.1318 380.543 9.56798 379.92 8.18668C379.3 6.71693 378.124 5.55221 376.648 4.9471C375.828 4.5871 374.938 4.41242 374.043 4.43551C373.148 4.45859 372.268 4.67889 371.468 5.08069C371.4 5.11286 371.333 5.14364 371.264 5.17651C371.252 5.18214 371.235 5.17834 371.197 5.17937C371.184 5.11386 371.169 5.04355 371.158 4.97315C371.053 3.98324 370.702 3.03543 370.136 2.21634C369.57 1.39724 368.808 0.732972 367.92 0.284252C366.851 -0.330224 365.619 -0.601536 364.391 -0.492984C363.162 -0.384433 361.997 0.0987346 361.052 0.891179C360.376 1.40746 359.821 2.06587 359.428 2.81995C359.034 3.57402 358.81 4.40538 358.772 5.25533C358.684 6.81572 358.874 8.37935 359.333 9.87335C360.215 12.8402 361.473 15.6819 363.077 18.329L352.531 37.722L338.174 29.9145C336.625 29.0773 334.808 28.8873 333.121 29.3862C331.433 29.885 330.011 31.032 329.166 32.5762C328.75 33.3406 328.49 34.1799 328.402 35.0456C318.94 32.7102 309.051 32.7187 299.593 35.0702L291.464 30.5505C290.564 30.0501 289.502 29.9277 288.512 30.2103C287.522 30.4929 286.684 31.1573 286.184 32.0574L282.184 39.25C281.908 39.7489 281.747 40.3026 281.711 40.8714C281.675 41.4402 281.765 42.0099 281.975 42.5396C273.491 47.858 266.492 55.2389 261.631 63.9936V63.9936C254.265 77.2577 252.237 92.8324 255.961 107.541C251.708 110.77 248.604 115.281 247.108 120.407C245.611 125.533 245.8 131.005 247.648 136.016L248.667 138.753C246.882 139.813 245.485 141.419 244.683 143.334C243.881 145.249 243.716 147.372 244.213 149.388C244.71 151.403 245.842 153.206 247.442 154.529C249.043 155.852 251.026 156.625 253.099 156.734L252.684 157.795L250.868 162.425L236.71 169.777C235.599 168.679 234.169 167.96 232.625 167.724C231.082 167.487 229.502 167.744 228.113 168.459L226.872 169.106C225.139 170.012 223.834 171.567 223.243 173.431C222.653 175.295 222.824 177.318 223.719 179.056L234.809 200.437C235.715 202.17 237.27 203.475 239.134 204.065C240.999 204.656 243.021 204.485 244.76 203.59L245.121 203.402L267.215 191.943L267.184 191.884C268.187 191.317 269.309 190.994 270.46 190.944C271.611 190.893 272.758 191.116 273.806 191.593C274.855 192.071 275.775 192.79 276.492 193.691C277.21 194.593 277.703 195.651 277.933 196.78L277.992 196.803L273.041 212.27C273.012 212.365 272.997 212.465 272.995 212.564C272.664 213.908 272.716 215.317 273.145 216.632C273.574 217.948 274.364 219.116 275.424 220.005L293.935 235.42C295.442 236.667 297.381 237.267 299.328 237.09C301.276 236.912 303.074 235.971 304.33 234.473L305.225 233.398C306.387 231.995 306.99 230.212 306.92 228.392C306.85 226.571 306.112 224.841 304.846 223.53L311.975 201.256L311.899 201.232C311.98 201.06 312.064 200.891 312.135 200.712L317.949 185.892L324.533 188.591C324.634 188.632 324.738 188.662 324.841 188.699C325.031 188.769 325.219 188.841 325.412 188.9C325.523 188.934 325.635 188.958 325.744 188.986C325.948 189.041 326.152 189.093 326.36 189.134C326.432 189.147 326.504 189.16 326.577 189.173C326.834 189.218 327.092 189.255 327.352 189.278L327.368 189.281C329.221 189.454 331.085 189.084 332.732 188.218V188.218C334.742 187.159 336.314 185.425 337.172 183.321L337.182 183.3C337.209 183.234 337.227 183.166 337.253 183.1C337.337 182.88 337.418 182.658 337.487 182.434C337.528 182.297 337.558 182.16 337.594 182.019C337.636 181.853 337.683 181.681 337.717 181.509C337.741 181.372 337.765 181.237 337.782 181.1C337.815 180.918 337.84 180.734 337.858 180.55C337.868 180.449 337.871 180.346 337.877 180.244C337.892 180.016 337.904 179.789 337.903 179.56C337.902 179.514 337.899 179.472 337.898 179.424C337.874 177.922 337.498 176.447 336.8 175.116L334.169 170.117C337.811 167.14 340.542 163.197 342.049 158.74C350.022 156.789 357.508 153.214 364.037 148.238C370.566 143.262 375.998 136.993 379.994 129.822V129.822C384.865 121.075 387.441 111.238 387.483 101.226C388.044 101.125 388.576 100.902 389.04 100.571C389.504 100.24 389.889 99.8107 390.167 99.3135L391.972 96.0709L393.26 93.7538L394.168 92.1202C394.417 91.6742 394.576 91.1834 394.634 90.6761C394.693 90.1687 394.652 89.6547 394.512 89.1635C394.372 88.6723 394.136 88.2135 393.818 87.8135C393.501 87.4135 393.107 87.08 392.661 86.8322V86.8322Z" fill="white" stroke="white" stroke-width="12.003" stroke-miterlimit="10"/>
<path d="M298.934 136.947C280.679 129.786 260.901 136.674 254.758 152.332C254.714 152.445 254.679 152.558 254.637 152.672C254.61 152.737 254.577 152.798 254.55 152.863L252.617 157.791L245.959 174.761C245.111 176.942 245.16 179.37 246.097 181.515C247.034 183.66 248.781 185.347 250.958 186.207L266.453 192.287C267.444 191.577 268.597 191.126 269.807 190.975C271.017 190.824 272.245 190.978 273.38 191.423C274.515 191.869 275.52 192.591 276.305 193.524C277.089 194.457 277.628 195.572 277.871 196.766L300.622 205.692C302.803 206.54 305.232 206.491 307.377 205.554C309.521 204.618 311.208 202.87 312.069 200.693L318.725 183.724L320.659 178.797C320.685 178.73 320.701 178.664 320.726 178.598C320.771 178.487 320.824 178.378 320.867 178.266C327.007 162.609 317.189 144.109 298.934 136.947Z" fill="#0064D6"/>
<path d="M317.705 159.768C319.983 158.58 322.638 158.34 325.092 159.102C327.545 159.865 329.598 161.566 330.802 163.836L336.731 175.101C337.92 177.379 338.161 180.035 337.399 182.489C336.637 184.943 334.935 186.997 332.665 188.201V188.201C330.388 189.39 327.732 189.63 325.278 188.869C322.824 188.107 320.77 186.406 319.566 184.136L313.637 172.871C312.447 170.593 312.206 167.936 312.969 165.481C313.731 163.026 315.434 160.972 317.705 159.768V159.768Z" fill="#005AD6"/>
<path d="M275.718 220.284L293.509 235.101C296.839 237.875 301.787 237.424 304.56 234.093L304.858 233.735C307.632 230.405 307.181 225.457 303.851 222.684L286.06 207.867C282.73 205.093 277.782 205.544 275.009 208.875L274.71 209.233C271.937 212.563 272.388 217.511 275.718 220.284Z" fill="#0064D6"/>
<path d="M304.765 223.549L273.734 213.617C273.447 213.525 273.208 213.323 273.07 213.055C272.932 212.787 272.906 212.475 272.998 212.188L279.793 190.958L311.906 201.236L304.765 223.549Z" fill="#0064D6"/>
<path d="M238.213 172.01L248.878 192.563C249.837 194.41 250.022 196.562 249.394 198.546C248.765 200.53 247.375 202.183 245.527 203.142L245.112 203.357C244.198 203.832 243.198 204.121 242.172 204.21C241.145 204.298 240.111 204.184 239.128 203.873C238.146 203.561 237.234 203.06 236.446 202.396C235.657 201.733 235.007 200.921 234.532 200.006L223.868 179.454C222.909 177.607 222.724 175.454 223.352 173.47C223.981 171.486 225.372 169.833 227.219 168.874L227.634 168.659C229.481 167.7 231.634 167.515 233.618 168.143C235.601 168.772 237.255 170.162 238.213 172.01V172.01Z" fill="#0064D6"/>
<path d="M267.147 191.925L251.621 161.993L229.328 173.557L244.854 203.489L267.147 191.925Z" fill="#0064D6"/>
<path d="M342.917 40.7788L356.717 48.4525C370.583 56.163 380.817 69.0659 385.17 84.3225C389.522 99.5792 387.635 115.94 379.925 129.806C372.214 143.671 359.312 153.905 344.056 158.258C328.8 162.61 312.439 160.723 298.574 153.013L284.775 145.339C277.909 141.521 271.862 136.389 266.98 130.234C262.098 124.08 258.477 117.024 256.322 109.469C254.166 101.915 253.52 94.01 254.42 86.206C255.32 78.4019 257.749 70.8516 261.567 63.9861V63.9861C269.277 50.1208 282.179 39.8863 297.436 35.5341C312.692 31.1819 329.052 33.0685 342.917 40.7788V40.7788Z" fill="#0075D6"/>
<path d="M340.274 61.7826C358.852 72.114 367.878 92.4519 363.081 110.289L372.991 115.798C380.343 93.0166 369.103 66.3603 345.138 53.0342C321.172 39.7082 292.597 44.2236 277.124 62.4896L287.034 68.0001C299.657 54.5166 321.696 51.4519 340.274 61.7826Z" fill="white"/>
<path d="M301.241 131.973C282.663 121.642 273.637 101.304 278.434 83.468L268.525 77.9577C261.171 100.739 272.412 127.396 296.378 140.722C320.343 154.048 348.918 149.532 364.391 131.266L354.482 125.756C341.857 139.238 319.819 142.304 301.241 131.973Z" fill="white"/>
<path d="M384.82 100.801L283.621 44.5291C282.721 44.0286 282.056 43.1911 281.774 42.2007C281.491 41.2104 281.613 40.1483 282.114 39.2482L286.114 32.0556C286.614 31.1555 287.452 30.4911 288.442 30.2085C289.432 29.9259 290.495 30.0483 291.395 30.5487L392.594 86.8206C393.494 87.3211 394.159 88.1587 394.441 89.1491C394.724 90.1394 394.602 91.2015 394.101 92.1016L390.101 99.295C389.853 99.7407 389.52 100.133 389.121 100.45C388.721 100.767 388.263 101.002 387.773 101.142C387.282 101.282 386.769 101.324 386.263 101.265C385.756 101.207 385.266 101.049 384.82 100.801V100.801Z" fill="#FF4B4B"/>
<path d="M393.192 93.7375L285.018 33.583L282.899 37.3924L391.074 97.5469L393.192 93.7375Z" fill="white"/>
<path d="M288.51 81.2465L308.577 98.2529L295.994 103.137L279.656 94.8004L284.271 79.9334L288.51 81.2465Z" fill="#0075D6"/>
<path d="M329.061 105.175L353.861 116.586L345.178 124.679L327.053 120.841L329.061 105.175Z" fill="#0075D6"/>
<path d="M367.886 9.34932L351.65 39.2071C351.508 39.4676 351.605 39.7935 351.865 39.9352L353.11 40.612C353.37 40.7537 353.696 40.6573 353.838 40.3969L370.074 10.5391C370.216 10.2786 370.119 9.95264 369.859 9.811L368.614 9.13416C368.354 8.99252 368.028 9.08885 367.886 9.34932Z" fill="#FF4B4C"/>
<path d="M369.007 46.7118L338.104 29.9059C336.556 29.0687 334.739 28.8788 333.051 29.3776C331.363 29.8764 329.942 31.0234 329.097 32.5677C328.26 34.1158 328.07 35.9325 328.568 37.6204C329.067 39.3083 330.214 40.7301 331.758 41.5748L362.661 58.3807C364.21 59.2167 366.026 59.4061 367.714 58.9074C369.402 58.4087 370.823 57.2625 371.669 55.719C372.505 54.1705 372.694 52.3541 372.196 50.6665C371.697 48.9788 370.551 47.5571 369.007 46.7118V46.7118Z" fill="#01357A"/>
<path d="M379.764 13.4894L379.615 13.7673C379.563 13.8202 379.516 13.877 379.473 13.9373C379.081 14.5677 378.579 15.1222 377.99 15.5742C376.742 16.5293 375.33 17.2492 373.824 17.6985C370.567 18.7002 367.185 19.2443 363.778 19.3152C363.723 19.3225 363.668 19.3118 363.619 19.2849C363.571 19.2579 363.533 19.2161 363.511 19.1657C363.358 18.8988 363.193 18.6398 363.037 18.3749C361.42 15.7124 360.152 12.8531 359.264 9.86722C358.805 8.37321 358.615 6.80958 358.703 5.24919C358.741 4.39925 358.964 3.56791 359.358 2.81384C359.752 2.05976 360.307 1.40134 360.983 0.885065C361.928 0.0926206 363.093 -0.390565 364.321 -0.499117C365.55 -0.607668 366.782 -0.336356 367.851 0.27812C368.739 0.72684 369.501 1.39111 370.067 2.21021C370.633 3.02931 370.984 3.97711 371.089 4.96701C371.099 5.03811 371.114 5.10759 371.128 5.17325C371.15 5.1758 371.173 5.17484 371.195 5.17039C371.263 5.1399 371.33 5.10758 371.398 5.07442C372.198 4.67252 373.078 4.45218 373.973 4.42911C374.869 4.40605 375.759 4.58082 376.579 4.94097C378.055 5.54607 379.231 6.7108 379.85 8.18055C380.474 9.56188 380.561 11.1257 380.095 12.5676C379.999 12.8767 379.875 13.1807 379.764 13.4894Z" fill="#FF4B4C"/>
<path d="M298.548 118.708L314.087 160.392C315.45 164.052 315.304 168.103 313.68 171.654C312.057 175.206 309.089 177.967 305.43 179.331L282.626 187.833C278.967 189.197 274.916 189.052 271.364 187.429C267.812 185.807 265.049 182.84 263.684 179.182L248.145 137.498C245.699 130.937 245.96 123.673 248.87 117.305C251.779 110.936 257.1 105.984 263.661 103.538L264.588 103.193C271.149 100.747 278.413 101.007 284.782 103.917C291.15 106.827 296.102 112.147 298.548 118.708V118.708Z" fill="#FC4848"/>
<path d="M324.281 175.016L281.765 188.105C278.033 189.253 273.997 188.871 270.546 187.044C267.095 185.217 264.511 182.094 263.362 178.362L256.202 155.102C255.053 151.37 255.433 147.334 257.259 143.883C259.085 140.431 262.208 137.846 265.939 136.696L308.455 123.608C315.147 121.548 322.383 122.23 328.571 125.505C334.76 128.78 339.394 134.38 341.454 141.072L341.745 142.018C343.805 148.709 343.122 155.946 339.847 162.134C336.572 168.322 330.973 172.956 324.281 175.016V175.016Z" fill="#FC4848"/>
<path d="M268.642 133.89C275.531 135.107 282.101 130.509 283.318 123.62C284.535 116.732 279.937 110.161 273.049 108.945C266.16 107.728 259.59 112.325 258.373 119.214C257.156 126.102 261.754 132.673 268.642 133.89Z" fill="#FF7878"/>
<path d="M337.117 183.278C336.134 185.652 334.252 187.542 331.882 188.534C329.511 189.526 326.844 189.54 324.463 188.572L313.715 184.166C311.34 183.184 309.451 181.302 308.459 178.932C307.467 176.561 307.453 173.895 308.42 171.514V171.514C309.402 169.14 311.284 167.25 313.654 166.258C316.025 165.266 318.691 165.252 321.072 166.219L331.821 170.624C334.196 171.607 336.086 173.489 337.078 175.859C338.07 178.23 338.084 180.897 337.117 183.278V183.278Z" fill="#005AD6"/>
<path d="M313.076 183.963L321.106 164.659C321.347 164.075 321.347 163.42 321.106 162.837C320.865 162.253 320.403 161.788 319.821 161.544C319.238 161.303 318.583 161.303 317.999 161.544C317.416 161.784 316.951 162.246 316.707 162.828L308.676 182.132C308.435 182.716 308.436 183.371 308.676 183.955C308.917 184.538 309.379 185.003 309.961 185.247V185.247C310.544 185.488 311.2 185.488 311.784 185.247C312.367 185.007 312.832 184.545 313.076 183.963Z" fill="#01357A"/>
<path d="M312.337 178.028L316.285 168.536C317.66 165.229 316.095 161.434 312.789 160.059L307.926 158.036C304.62 156.661 300.825 158.226 299.45 161.533L295.501 171.025C294.126 174.332 295.691 178.127 298.998 179.502L303.86 181.525C307.166 182.9 310.961 181.335 312.337 178.028Z" fill="#01357A"/>
<path d="M310.964 156.925L310.963 156.926C309.755 157.607 309.328 159.138 310.009 160.346L312.174 164.185C312.855 165.393 314.386 165.82 315.594 165.139L315.595 165.138C316.803 164.457 317.23 162.926 316.549 161.718L314.384 157.879C313.703 156.671 312.172 156.244 310.964 156.925Z" fill="#01357A"/>
<path d="M243.866 146.954C243.847 149.524 244.844 151.997 246.642 153.833C248.439 155.67 250.89 156.721 253.46 156.757L265.076 156.881C267.645 156.901 270.117 155.903 271.954 154.106C273.79 152.31 274.841 149.86 274.878 147.291V147.291C274.897 144.721 273.899 142.249 272.102 140.412C270.304 138.576 267.853 137.525 265.284 137.489L253.668 137.364C251.099 137.344 248.627 138.342 246.79 140.139C244.954 141.935 243.903 144.385 243.866 146.954V146.954Z" fill="#005AD6"/>
<path d="M265.745 156.939L265.861 136.033C265.867 135.401 266.122 134.798 266.57 134.354C267.019 133.91 267.626 133.662 268.257 133.663V133.663C268.888 133.668 269.492 133.923 269.936 134.372C270.38 134.821 270.629 135.427 270.627 136.059L270.51 156.966C270.504 157.598 270.249 158.201 269.8 158.645C269.351 159.089 268.745 159.337 268.113 159.336V159.336C267.482 159.33 266.879 159.075 266.435 158.626C265.991 158.177 265.743 157.571 265.745 156.939V156.939Z" fill="#01357A"/>
<path d="M286.96 152.013L287.018 142.468C287.04 138.966 284.218 136.111 280.717 136.089L275.16 136.056C271.658 136.034 268.802 138.856 268.781 142.357L268.723 151.902C268.702 155.403 271.523 158.259 275.024 158.28L280.582 158.314C284.083 158.336 286.939 155.514 286.96 152.013Z" fill="#01357A"/>
<path d="M270.076 134.62C269.126 135.631 269.176 137.22 270.186 138.17C271.196 139.12 272.785 139.072 273.735 138.061L276.754 134.851C277.704 133.841 277.655 132.251 276.645 131.301C275.634 130.351 274.045 130.4 273.095 131.41L270.076 134.62Z" fill="#01357A"/>
<path d="M285.298 82.887L288.725 76.2172C289.298 75.1037 290.083 74.1138 291.038 73.304C291.993 72.4942 293.098 71.8804 294.29 71.4976C295.482 71.1148 296.738 70.9705 297.985 71.0731C299.233 71.1756 300.449 71.5228 301.562 72.0951V72.0951C302.676 72.6673 303.666 73.4533 304.476 74.4082C305.285 75.3631 305.899 76.4681 306.282 77.6602C306.665 78.8523 306.809 80.1081 306.707 81.356C306.604 82.6039 306.257 83.8193 305.685 84.933L302.257 91.6027C301.102 93.8516 299.1 95.5493 296.693 96.3223C294.285 97.0954 291.669 96.8805 289.421 95.7249V95.7249C287.171 94.5691 285.474 92.5673 284.7 90.1597C283.927 87.7521 284.142 85.1361 285.298 82.887V82.887Z" fill="white"/>
<path d="M293.379 80.8142L290.617 86.1873C289.454 88.4521 290.346 91.2316 292.611 92.3954L292.643 92.4118C294.908 93.5756 297.687 92.6831 298.851 90.4183L301.612 85.0453C302.776 82.7805 301.883 80.001 299.619 78.8372L299.587 78.8208C297.322 77.6569 294.542 78.5494 293.379 80.8142Z" fill="black"/>
<path d="M298.977 80.0462C298.768 80.4532 298.443 80.7891 298.043 81.0113C297.643 81.2335 297.186 81.3322 296.73 81.2947C296.274 81.2573 295.839 81.0854 295.481 80.8009C295.122 80.5164 294.856 80.132 294.716 79.6964C294.576 79.2607 294.569 78.7933 294.694 78.3533C294.82 77.9133 295.073 77.5204 295.422 77.2244C295.771 76.9283 296.2 76.7423 296.655 76.69C297.109 76.6377 297.569 76.7213 297.976 76.9304C298.247 77.0692 298.487 77.2599 298.684 77.4917C298.88 77.7234 299.029 77.9916 299.122 78.2809C299.215 78.5703 299.25 78.8751 299.225 79.178C299.201 79.4809 299.116 79.7759 298.977 80.0462V80.0462Z" fill="white"/>
<path d="M335.62 108.751L339.048 102.081C340.203 99.8318 342.205 98.1341 344.612 97.3611C347.02 96.588 349.635 96.8029 351.884 97.9586V97.9586C354.133 99.1142 355.831 101.116 356.604 103.523C357.377 105.931 357.162 108.546 356.007 110.795L352.579 117.466C351.423 119.715 349.422 121.412 347.014 122.186C344.607 122.959 341.991 122.744 339.742 121.589V121.589C337.493 120.433 335.795 118.432 335.022 116.024C334.249 113.616 334.464 111 335.62 108.751V108.751Z" fill="white"/>
<path d="M338.789 110.398L341.433 105.25C341.969 104.208 342.896 103.421 344.011 103.063C345.127 102.705 346.339 102.804 347.38 103.339L347.411 103.355C348.453 103.891 349.24 104.818 349.598 105.934C349.956 107.049 349.857 108.261 349.321 109.303L346.677 114.45C346.142 115.492 345.214 116.279 344.099 116.637C342.984 116.995 341.772 116.896 340.73 116.361L340.699 116.345C339.657 115.809 338.87 114.882 338.512 113.767C338.154 112.651 338.253 111.439 338.789 110.398V110.398Z" fill="black"/>
<path d="M346.796 104.514C346.596 104.905 346.284 105.227 345.9 105.441C345.517 105.654 345.078 105.749 344.641 105.714C344.203 105.678 343.786 105.513 343.442 105.24C343.098 104.967 342.843 104.599 342.709 104.181C342.574 103.763 342.567 103.314 342.688 102.892C342.808 102.47 343.051 102.093 343.386 101.809C343.721 101.525 344.133 101.347 344.569 101.297C345.005 101.247 345.447 101.328 345.837 101.529C346.36 101.798 346.754 102.263 346.934 102.823C347.114 103.383 347.064 103.991 346.796 104.514Z" fill="white"/>
<path d="M284.001 82.7605L301.424 99.3588L285.088 100.314L277.076 90.0742L279.755 81.4419L284.001 82.7605Z" fill="#0075D6"/>
<path d="M335.032 116.476L352.753 121.976L340.171 127.945L331.435 122.205L335.032 116.476Z" fill="#0075D6"/>
<path d="M193.904 49.9224L205.919 58.1899C206.461 58.5626 206.924 59.0383 207.282 59.5899C207.64 60.1415 207.885 60.7582 208.005 61.4047C208.124 62.0512 208.115 62.7149 207.978 63.358C207.841 64.001 207.579 64.6107 207.206 65.1524L202.706 71.6925C201.953 72.7857 200.797 73.5351 199.491 73.7759C198.186 74.0168 196.838 73.7294 195.745 72.977L183.729 64.7095C181.768 63.3603 180.424 61.2875 179.991 58.9469C179.559 56.6064 180.073 54.1899 181.422 52.2289V52.2289C182.772 50.2679 184.845 48.9232 187.185 48.4907C189.526 48.0581 191.943 48.5731 193.904 49.9224V49.9224Z" fill="#A56644"/>
<path d="M211.482 60.4164L202.53 71.9305C202.126 72.4496 201.624 72.884 201.053 73.2091C200.481 73.5342 199.851 73.7436 199.199 73.8253C198.547 73.9069 197.885 73.8593 197.251 73.6851C196.617 73.5109 196.023 73.2136 195.504 72.81L189.237 67.9374C188.19 67.1222 187.509 65.9243 187.344 64.6072C187.18 63.2901 187.545 61.9616 188.36 60.9137L197.312 49.3995C198.772 47.5205 200.92 46.2987 203.282 46.003C205.643 45.7072 208.026 46.3616 209.905 47.8224V47.8224C211.784 49.2834 213.006 51.431 213.302 53.7928C213.597 56.1547 212.943 58.5372 211.482 60.4164V60.4164Z" fill="#A56644"/>
<path d="M188.502 59.7025C190.617 58.7159 191.532 56.2013 190.546 54.0861C189.559 51.9708 187.044 51.0559 184.929 52.0426C182.814 53.0293 181.899 55.5438 182.886 57.6591C183.872 59.7743 186.387 60.6892 188.502 59.7025Z" fill="#DCAB91"/>
<path d="M100.714 71.1927L125.1 95.9131C126.2 97.0272 127.069 98.3469 127.658 99.7969C128.247 101.247 128.545 102.799 128.534 104.364C128.524 105.929 128.205 107.476 127.596 108.918C126.988 110.36 126.101 111.668 124.987 112.767L111.536 126.036C109.285 128.255 106.246 129.489 103.086 129.466C99.9258 129.444 96.9039 128.168 94.6848 125.918L70.2981 101.198C66.3194 97.1643 64.1055 91.7159 64.1435 86.0505C64.1814 80.3851 66.4681 74.9668 70.5006 70.9873C74.5344 67.008 79.9837 64.7941 85.6497 64.8326C91.3158 64.8711 96.7345 67.1589 100.714 71.1927Z" fill="#A56644"/>
<path d="M137.104 103.611L111.008 126.518C109.832 127.551 108.464 128.342 106.982 128.845C105.5 129.349 103.934 129.556 102.372 129.455C100.81 129.353 99.284 128.945 97.88 128.254C96.4761 127.562 95.222 126.601 94.1896 125.425L81.7255 111.225C79.6416 108.85 78.5866 105.744 78.7925 102.59C78.9984 99.437 80.4483 96.4946 82.8233 94.4101L108.919 71.503C113.177 67.7656 118.745 65.8724 124.398 66.2398C130.052 66.6071 135.328 69.205 139.066 73.462V73.462C142.804 77.7202 144.697 83.2888 144.329 88.9429C143.961 94.597 141.362 99.8733 137.104 103.611V103.611Z" fill="#A56644"/>
<path d="M83.7004 91.6379C89.0882 90.2797 92.3549 84.8111 90.9968 79.4233C89.6387 74.0355 84.17 70.7687 78.7822 72.1269C73.3944 73.485 70.1277 78.9536 71.4858 84.3414C72.8439 89.7292 78.3126 92.996 83.7004 91.6379Z" fill="#DCAB91"/>
<g opacity="0.63">
<path d="M135.98 3.03573L152.928 12.2682C153.692 12.6842 154.367 13.2467 154.913 13.9234C155.46 14.6002 155.867 15.3779 156.113 16.2123C156.359 17.0467 156.439 17.9213 156.346 18.7863C156.254 19.6513 155.993 20.4896 155.577 21.2535L150.553 30.4753C149.712 32.0174 148.294 33.1625 146.609 33.6586C144.924 34.1548 143.111 33.9614 141.569 33.1211L124.62 23.8887C121.855 22.3823 119.802 19.8394 118.911 16.8191C118.021 13.7987 118.366 10.5484 119.872 7.78292V7.78292C121.379 5.01739 123.922 2.96358 126.943 2.07331C129.964 1.18304 133.214 1.52923 135.98 3.03573V3.03573Z" fill="#A56644"/>
<path d="M160.552 14.4356L150.35 30.8179C149.89 31.5563 149.289 32.1969 148.582 32.7031C147.875 33.2094 147.074 33.5713 146.227 33.7683C145.38 33.9653 144.502 33.9935 143.644 33.8513C142.786 33.709 141.964 33.3992 141.226 32.9393L132.312 27.3882C130.821 26.4592 129.761 24.9763 129.364 23.2655C128.966 21.5547 129.265 19.7561 130.193 18.2653L140.395 1.88307C142.06 -0.789763 144.718 -2.692 147.785 -3.40528C150.852 -4.11855 154.076 -3.58445 156.75 -1.92043V-1.92043C159.423 -0.255699 161.325 2.40276 162.038 5.47012C162.751 8.53747 162.217 11.7625 160.552 14.4356V14.4356Z" fill="#A56644"/>
<path d="M130.214 16.6493C132.863 15.0607 133.722 11.626 132.133 8.97775C130.544 6.32951 127.11 5.4705 124.461 7.05911C121.813 8.64772 120.954 12.0824 122.543 14.7306C124.131 17.3789 127.566 18.2379 130.214 16.6493Z" fill="#DCAB91"/>
</g>
<g opacity="0.51">
<path d="M431.92 62.1107L441.163 86.883C442.005 89.1379 441.916 91.6346 440.916 93.824C439.917 96.0134 438.088 97.7161 435.834 98.5575L422.356 103.587C420.101 104.428 417.604 104.339 415.415 103.34C413.225 102.34 411.522 100.512 410.681 98.2571L401.438 73.4848C400.691 71.4833 400.345 69.3543 400.421 67.2193C400.497 65.0844 400.993 62.9853 401.88 61.042C402.768 59.0986 404.029 57.3491 405.592 55.8932C407.156 54.4374 408.991 53.3037 410.992 52.557V52.557C415.034 51.0487 419.51 51.208 423.434 52.9996C427.359 54.7913 430.411 58.0686 431.92 62.1107V62.1107Z" fill="#A56644"/>
<path d="M447.104 95.9725L421.837 103.76C419.537 104.468 417.05 104.235 414.922 103.109C412.795 101.984 411.202 100.06 410.493 97.7603L406.256 84.013C405.547 81.7131 405.781 79.2258 406.906 77.0983C408.031 74.9708 409.955 73.3774 412.255 72.6685L437.522 64.8814C439.564 64.2523 441.709 64.0314 443.836 64.2314C445.963 64.4314 448.03 65.0484 449.918 66.0471C451.806 67.0458 453.48 68.4067 454.842 70.0521C456.205 71.6975 457.23 73.5951 457.859 75.6366V75.6366C459.129 79.7594 458.71 84.2181 456.693 88.0318C454.676 91.8455 451.227 94.7019 447.104 95.9725V95.9725Z" fill="#A56644"/>
<path d="M413.729 71.0158C417.896 71.7504 421.869 68.9684 422.603 64.802C423.338 60.6356 420.556 56.6625 416.39 55.9279C412.223 55.1932 408.25 57.9752 407.516 62.1416C406.781 66.308 409.563 70.2811 413.729 71.0158Z" fill="#DCAB91"/>
</g>
<path d="M399.948 157.461L406.11 171.42C406.671 172.691 406.704 174.133 406.202 175.428C405.701 176.723 404.705 177.765 403.434 178.326L395.839 181.679C394.569 182.24 393.127 182.273 391.832 181.771C390.537 181.269 389.494 180.273 388.934 179.003L382.772 165.043C382.274 163.915 382.003 162.7 381.975 161.468C381.946 160.235 382.161 159.009 382.607 157.86C383.052 156.71 383.72 155.66 384.571 154.768C385.423 153.877 386.442 153.162 387.569 152.664V152.664C389.847 151.659 392.431 151.599 394.753 152.499C397.074 153.398 398.943 155.183 399.948 157.461V157.461Z" fill="#A56644"/>
<path d="M409.84 176.456L395.546 181.795C394.245 182.281 392.805 182.231 391.541 181.654C390.277 181.078 389.294 180.023 388.808 178.722L385.903 170.945C385.417 169.644 385.468 168.203 386.044 166.94C386.621 165.676 387.675 164.693 388.976 164.207L403.27 158.868C404.425 158.436 405.653 158.237 406.885 158.28C408.117 158.323 409.329 158.609 410.451 159.121C411.572 159.632 412.582 160.36 413.423 161.262C414.263 162.164 414.918 163.222 415.349 164.377V164.377C416.22 166.709 416.129 169.292 415.096 171.557C414.063 173.823 412.172 175.585 409.84 176.456V176.456Z" fill="#A56644"/>
<path d="M389.769 163.206C392.195 163.488 394.39 161.751 394.672 159.326C394.955 156.901 393.218 154.706 390.793 154.424C388.368 154.141 386.173 155.878 385.89 158.303C385.607 160.728 387.344 162.923 389.769 163.206Z" fill="#DCAB91"/>
<g opacity="0.08">
<path d="M285.089 -2.15943L301.647 6.47211C303.155 7.25775 304.288 8.60992 304.798 10.2312C305.308 11.8524 305.154 13.6099 304.368 15.1171L299.671 24.1266C298.886 25.6338 297.534 26.7671 295.912 27.2773C294.291 27.7874 292.534 27.6327 291.026 26.8471L274.468 18.2155C273.13 17.5181 271.943 16.564 270.974 15.4077C270.005 14.2515 269.273 12.9156 268.82 11.4764C268.367 10.0373 268.202 8.52304 268.335 7.02015C268.467 5.51727 268.894 4.05518 269.592 2.71738V2.71738C271 0.01559 273.424 -2.01606 276.33 -2.93064C279.237 -3.84522 282.387 -3.56781 285.089 -2.15943V-2.15943Z" fill="#FC4848"/>
<path d="M309.06 8.43206L299.481 24.4601C298.609 25.9189 297.193 26.9717 295.545 27.3867C293.897 27.8017 292.151 27.545 290.692 26.6731L281.971 21.4608C280.513 20.5889 279.46 19.1731 279.045 17.525C278.63 15.8769 278.887 14.1314 279.758 12.6725L289.338 -3.35551C290.112 -4.6505 291.134 -5.78036 292.344 -6.68056C293.555 -7.58077 294.931 -8.23368 296.394 -8.60204C297.857 -8.97039 299.378 -9.04696 300.871 -8.82738C302.363 -8.6078 303.798 -8.09636 305.093 -7.32228V-7.32228C307.708 -5.75921 309.596 -3.22126 310.34 -0.266745C311.084 2.68777 310.623 5.81682 309.06 8.43206V8.43206Z" fill="#FC4848"/>
<path d="M279.753 11.1112C282.287 9.52754 283.058 6.18961 281.474 3.65574C279.89 1.12187 276.552 0.351579 274.018 1.93525C271.485 3.51892 270.714 6.85684 272.298 9.39071C273.882 11.9246 277.22 12.6949 279.753 11.1112Z" fill="#FF7878"/>
</g>
<g opacity="0.52">
<path d="M163.395 146.855L185.696 159.634C187.726 160.797 189.21 162.719 189.823 164.977C190.436 167.235 190.127 169.644 188.964 171.673L182.011 183.808C180.847 185.837 178.926 187.322 176.668 187.935C174.41 188.548 172.001 188.239 169.971 187.075L147.67 174.296C145.869 173.264 144.288 171.886 143.018 170.243C141.749 168.6 140.815 166.722 140.271 164.718C139.728 162.714 139.584 160.622 139.848 158.562C140.113 156.502 140.78 154.515 141.813 152.713H141.813C143.898 149.074 147.343 146.413 151.391 145.314C155.438 144.216 159.756 144.77 163.395 146.855V146.855Z" fill="#A56644"/>
<path d="M195.784 162.736L181.73 184.256C180.451 186.215 178.446 187.585 176.157 188.065C173.867 188.546 171.48 188.097 169.522 186.818L157.813 179.171C155.854 177.892 154.484 175.887 154.003 173.597C153.523 171.308 153.972 168.921 155.251 166.963L169.305 145.443C170.44 143.704 171.907 142.206 173.622 141.035C175.336 139.863 177.265 139.04 179.297 138.614C181.329 138.187 183.426 138.165 185.467 138.549C187.507 138.933 189.453 139.715 191.191 140.851V140.851C194.703 143.144 197.159 146.738 198.02 150.842C198.882 154.947 198.077 159.225 195.784 162.736V162.736Z" fill="#A56644"/>
<path d="M155.329 164.815C158.901 162.775 160.144 158.227 158.104 154.655C156.065 151.083 151.516 149.841 147.945 151.88C144.373 153.919 143.13 158.468 145.17 162.04C147.209 165.611 151.758 166.854 155.329 164.815Z" fill="#DCAB91"/>
</g>
</g>
</svg>
