<svg width="255" height="157" viewBox="0 0 255 157" fill="none" xmlns="http://www.w3.org/2000/svg">
<rect x="35" y="149.008" width="190" height="7.99065" rx="3.99533" fill="#4C4C4C"/>
<path d="M104.242 85.0352H61.6027C56.0114 85.0352 51.7437 90.0269 52.5973 95.5574L60.1306 144.316H104.242V85.0352Z" fill="#3D3D3D"/>
<path d="M112.281 85.0352H69.6417C64.0505 85.0352 59.7828 90.0269 60.6363 95.5574L68.1697 144.316H112.281V85.0352Z" fill="#666161"/>
<path d="M86.6626 104.541L112.392 109.198L150.578 136.064C156.194 140.016 153.405 148.853 146.54 148.853H52.6945C46.1136 148.853 43.1448 140.604 48.2165 136.399L86.6626 104.541Z" fill="#593F86"/>
<path d="M58.5859 147.274C58.5859 146.847 58.9323 146.5 59.3591 146.5H121.642C122.069 146.5 122.415 146.847 122.415 147.274V148.24C122.415 148.668 122.069 149.014 121.642 149.014H59.3591C58.9323 149.014 58.5859 148.668 58.5859 148.24V147.274Z" fill="white"/>
<path d="M58.6404 112.549L53.3398 117.943L68.3818 132.77L73.6823 127.375L58.6404 112.549Z" fill="#A7E2FF"/>
<path d="M62.7533 118.846C62.5739 118.667 62.2832 118.673 62.1038 118.853L59.6979 121.299C59.5185 121.479 59.5247 121.77 59.7041 121.949L75.0738 137.098C75.2532 137.277 75.5439 137.271 75.7232 137.092L78.1292 134.645C78.3086 134.466 78.3024 134.175 78.123 133.995L62.7533 118.846Z" fill="#0B6189"/>
<path fill-rule="evenodd" clip-rule="evenodd" d="M80.051 134.485C79.8964 134.231 79.5438 134.194 79.3335 134.404L75.4988 138.306C75.2885 138.517 75.338 138.87 75.5916 139.024L82.9208 143.353C83.1002 143.459 83.3352 143.428 83.4837 143.279L84.4671 142.282C84.6155 142.127 84.6403 141.898 84.5289 141.718L80.051 134.485Z" fill="#A7E2FF"/>
<path fill-rule="evenodd" clip-rule="evenodd" d="M77.6058 132.688C77.445 132.446 77.0986 132.415 76.8945 132.62L75.8307 133.703C75.6575 133.877 75.6575 134.155 75.8183 134.335L82.2693 141.371C82.6528 141.792 83.3022 141.278 82.9929 140.807L77.6058 132.688Z" fill="#D7F2FF"/>
<path d="M71.0627 124.148C70.7906 123.882 70.3577 123.882 70.0855 124.154L65.1128 129.214C64.8468 129.487 64.8468 129.92 65.1189 130.193L74.2728 139.216C74.5449 139.482 74.9779 139.482 75.25 139.21L80.2227 134.15C80.4887 133.878 80.4887 133.438 80.2166 133.172L71.0627 124.148Z" fill="#1899D6"/>
<path d="M70.595 125.938C70.4157 125.759 70.125 125.765 69.9456 125.944L68.9869 126.923C68.8076 127.103 68.8138 127.394 68.9931 127.573L76.8419 135.309C77.0213 135.488 77.312 135.482 77.4913 135.302L78.45 134.324C78.6294 134.144 78.6232 133.853 78.4438 133.674L70.595 125.938Z" fill="#1CB0F6"/>
<path d="M56.8012 130.465C56.5724 124.618 61.1184 119.689 66.9632 119.459C72.8019 119.23 77.719 123.782 77.954 129.635C78.1828 135.481 73.6368 140.405 67.792 140.634C61.9472 140.863 57.0301 136.311 56.8012 130.465Z" fill="#FFC6B7"/>
<path fill-rule="evenodd" clip-rule="evenodd" d="M66.5417 123.175C66.4675 121.274 67.9457 119.67 69.8445 119.595C72.8505 119.478 75.2317 119.645 77.582 121.001C78.6582 121.621 79.5983 122.419 80.5075 123.274C81.126 123.85 81.8249 124.55 82.5918 125.312C82.932 125.646 83.2846 125.999 83.6433 126.358C84.9978 127.696 85.0164 129.876 83.6804 131.232C82.3444 132.589 80.1673 132.607 78.8128 131.27C78.3798 130.842 77.9902 130.458 77.6376 130.105C76.9202 129.387 76.3388 128.811 75.8007 128.309C75.0214 127.578 74.5266 127.201 74.1307 126.971C73.5308 126.625 72.7948 126.377 70.1043 126.482C68.2179 126.563 66.616 125.083 66.5417 123.175Z" fill="#FFC6B7"/>
<path d="M52.2011 108.45C51.3475 107.608 49.9683 107.62 49.1271 108.475C48.286 109.33 48.2983 110.711 49.1519 111.553L53.5741 115.913C54.4277 116.755 55.8069 116.743 56.6481 115.888C57.4893 115.034 57.4769 113.652 56.6234 112.81L52.2011 108.45Z" fill="#1487BD"/>
<path d="M56.0237 109.32C55.7515 109.054 55.3124 109.054 55.0464 109.326L50.0737 114.386C49.8077 114.659 49.8077 115.098 50.0799 115.365L54.8238 120.034C55.0959 120.301 55.5351 120.301 55.801 120.028L60.7738 114.968C61.0397 114.696 61.0397 114.262 60.7676 113.99L56.0237 109.32Z" fill="#1899D6"/>
<path fill-rule="evenodd" clip-rule="evenodd" d="M50.0351 116.471C49.5341 115.883 48.6435 115.852 48.0992 116.397C47.592 116.917 47.5982 117.747 48.1116 118.255L54.847 124.894C55.212 125.253 55.7995 125.234 56.1397 124.844C56.4304 124.51 56.4366 124.014 56.1521 123.68L50.0351 116.471Z" fill="#1899D6"/>
<path d="M52.0089 114.053C51.5574 113.607 50.8338 113.614 50.3885 114.066L47.9825 116.512C47.5372 116.964 47.5434 117.689 47.9949 118.135C48.4464 118.58 49.17 118.574 49.6153 118.122L52.0213 115.676C52.4666 115.224 52.4605 114.499 52.0089 114.053Z" fill="#1899D6"/>
<path d="M55.3841 110.952C55.2047 110.772 54.914 110.779 54.7347 110.958L53.776 111.937C53.5966 112.116 53.6028 112.407 53.7822 112.587L57.5427 116.29C57.722 116.47 58.0127 116.464 58.1921 116.284L59.1508 115.306C59.3301 115.126 59.324 114.835 59.1446 114.655L55.3841 110.952Z" fill="#1CB0F6"/>
<path d="M114.497 96.5567L97.0368 93.7698C87.7407 92.2896 81.3516 83.4643 82.8298 74.1622L85.1925 59.2861C86.6707 49.984 95.4843 43.5802 104.78 45.0604L122.241 47.8411C131.531 49.3213 137.926 58.1466 136.448 67.4549L134.085 82.331C132.601 91.6331 123.787 98.0369 114.497 96.5567Z" fill="#3D3D3D"/>
<path d="M133.039 91.0815L81.1034 82.8012C77.3862 82.2067 74.8318 78.6827 75.4256 74.9606C76.0193 71.2385 79.5386 68.6808 83.2558 69.2753L135.191 77.5494C138.909 78.1439 141.463 81.6679 140.869 85.39C140.275 89.1121 136.756 91.6698 133.039 91.0815Z" fill="#FBBA97"/>
<path d="M104.672 116.832L100.083 116.101C88.6342 114.275 80.7545 103.405 82.579 91.9419L87.2425 62.5924C89.0671 51.1288 99.9218 43.2387 111.37 45.0657L115.96 45.7965C127.408 47.6235 135.288 58.4925 133.463 69.9561L128.8 99.3056C126.975 110.769 116.12 118.659 104.672 116.832Z" fill="#FBBA97"/>
<path d="M122.343 96.0248L112.491 94.4517C109.268 93.9377 107.085 90.9216 107.598 87.695L109.949 72.8995C110.462 69.6728 113.474 67.4866 116.696 68.0007L126.549 69.5737C129.771 70.0878 131.955 73.1039 131.441 76.3305L129.091 91.126C128.578 94.3527 125.572 96.5388 122.343 96.0248ZM116.127 71.5865C114.872 71.3883 113.734 72.2182 113.53 73.4692L111.179 88.2648C110.981 89.522 111.81 90.6615 113.06 90.8659L122.912 92.439C124.168 92.6371 125.306 91.8073 125.51 90.5562L127.86 75.7607C128.058 74.5035 127.229 73.364 125.98 73.1596L116.127 71.5865Z" fill="#4C4B4C"/>
<path d="M99.0519 92.3132L89.6507 90.8144C86.4283 90.3004 84.245 87.2843 84.7584 84.0577L87.0407 69.7081C87.554 66.4814 90.5661 64.2952 93.7885 64.8093L103.19 66.308C106.412 66.822 108.595 69.8381 108.082 73.0648L105.8 87.4144C105.286 90.641 102.281 92.8272 99.0519 92.3132ZM93.2133 68.3951C91.9577 68.1969 90.8197 69.0268 90.6156 70.2778L88.3333 84.6274C88.1354 85.8847 88.9642 87.0242 90.2136 87.2286L99.6148 88.7273C100.87 88.9255 102.008 88.0956 102.212 86.8446L104.495 72.495C104.693 71.2378 103.864 70.0982 102.615 69.8939L93.2133 68.3951Z" fill="#4C4B4C"/>
<path fill-rule="evenodd" clip-rule="evenodd" d="M126.283 94.3495C125.244 95.105 123.896 95.489 122.467 95.2599L112.614 93.6868C111.229 93.4639 110.066 92.6835 109.268 91.6369C108.513 90.5964 108.13 89.2463 108.359 87.8157L110.709 73.0202C110.932 71.6329 111.711 70.4686 112.756 69.6697C113.795 68.9141 115.144 68.5301 116.572 68.7593L126.425 70.3323C127.811 70.5553 128.973 71.3356 129.771 72.3823C130.526 73.4227 130.909 74.7728 130.68 76.2035L128.33 90.999C128.114 92.3924 127.328 93.5506 126.283 94.3495Z" fill="white"/>
<path d="M122.329 96.1182L112.476 94.5452C110.911 94.2975 109.489 93.4242 108.542 92.1236C107.639 90.8788 107.256 89.25 107.503 87.6831L109.854 72.8876C110.101 71.3208 110.973 69.8963 112.272 68.9488C113.571 68.0074 115.148 67.611 116.762 67.8712L126.615 69.4442C128.18 69.692 129.602 70.5652 130.549 71.8658C131.489 73.1663 131.885 74.7456 131.625 76.362L129.275 91.1575C129.027 92.7244 128.155 94.1488 126.856 95.0964C125.514 96.0254 123.943 96.3722 122.329 96.1182ZM116.428 69.7043C115.309 69.5247 114.208 69.8096 113.323 70.4537C112.439 71.0916 111.827 72.0577 111.653 73.1787L109.303 87.9742C109.124 89.0952 109.408 90.1976 110.052 91.0832C110.689 91.9688 111.697 92.5881 112.773 92.7554L122.626 94.3284C123.745 94.508 124.846 94.2231 125.731 93.579C126.615 92.935 127.234 91.9317 127.4 90.854L129.751 76.0585C129.93 74.9376 129.646 73.8352 129.002 72.9496C128.359 72.0639 127.357 71.4446 126.281 71.2774L116.428 69.7043Z" fill="#4D4B4D"/>
<path fill-rule="evenodd" clip-rule="evenodd" d="M102.992 90.6418C101.953 91.3973 100.604 91.7813 99.1754 91.5522L89.7742 90.0534C88.3888 89.8304 87.226 89.0501 86.4281 88.0035C85.6736 86.963 85.2901 85.6129 85.5189 84.1823L87.8012 69.8327C88.0239 68.4454 88.8032 67.2811 89.8484 66.4822C90.8875 65.7266 92.2359 65.3426 93.6646 65.5718L103.066 67.0705C104.451 67.2935 105.614 68.0738 106.412 69.1205C107.166 70.1609 107.55 71.511 107.321 72.9416L105.039 87.2912C104.822 88.6785 104.037 89.8428 102.992 90.6418Z" fill="white"/>
<path d="M99.0413 92.4008L89.6401 90.902C88.0753 90.6543 86.6528 89.781 85.7065 88.4805C84.8034 87.2356 84.42 85.6068 84.6674 84.04L86.9496 69.6904C87.197 68.1235 88.0691 66.6991 89.368 65.7515C90.6668 64.8101 92.244 64.4138 93.8583 64.6739L103.26 66.1726C104.824 66.4204 106.247 67.2936 107.193 68.5942C108.133 69.8947 108.529 71.474 108.269 73.0904L105.987 87.44C105.74 89.0069 104.868 90.4313 103.569 91.3789C102.227 92.3141 100.656 92.6609 99.0413 92.4008ZM93.5119 66.5133C92.3925 66.3337 91.2915 66.6185 90.4071 67.2626C89.5226 67.9005 88.9103 68.8605 88.7371 69.9876L86.4548 84.3372C86.2755 85.4582 86.56 86.5606 87.2032 87.4462C87.8403 88.3318 88.8484 88.9512 89.9246 89.1184L99.3259 90.6171C100.445 90.7967 101.546 90.5118 102.431 89.8677C103.315 89.2298 103.934 88.2204 104.101 87.1427L106.383 72.7931C106.562 71.6722 106.278 70.5698 105.635 69.6842C104.991 68.7985 103.989 68.1792 102.913 68.012L93.5119 66.5133Z" fill="#4D4B4D"/>
<path fill-rule="evenodd" clip-rule="evenodd" d="M115.164 83.2724L115.077 83.26C113.642 83.0308 112.25 84.0031 112.015 85.4833L111.502 88.71C111.273 90.1468 112.244 91.5403 113.723 91.7756L113.809 91.788C115.244 92.0171 116.636 91.0448 116.871 89.5646L117.384 86.338C117.576 84.8516 116.599 83.5015 115.164 83.2724Z" fill="#4C4B4C"/>
<path fill-rule="evenodd" clip-rule="evenodd" d="M99.9371 80.8446L99.8505 80.8322C98.4156 80.6031 97.0239 81.5754 96.7889 83.0556L96.2755 86.2822C96.0467 87.719 97.0178 89.1125 98.496 89.3479L98.5826 89.3602C100.017 89.5894 101.409 88.6171 101.644 87.1369L102.157 83.9102C102.349 82.4301 101.372 81.0738 99.9371 80.8446Z" fill="#4C4B4C"/>
<path d="M102.81 64.0927L94.7204 62.8045C93.6257 62.6311 92.8711 61.5907 93.0443 60.4883C93.2175 59.3921 94.2565 58.6365 95.3575 58.8099L103.441 60.0981C104.536 60.2715 105.291 61.312 105.117 62.4144C104.944 63.5106 103.905 64.2661 102.81 64.0927Z" fill="#3D3D3D"/>
<path d="M125.195 67.6591L117.111 66.3709C116.016 66.1975 115.262 65.1571 115.435 64.0547C115.608 62.9585 116.647 62.2029 117.748 62.3763L125.832 63.6645C126.927 63.8379 127.681 64.8784 127.508 65.9808C127.329 67.077 126.29 67.8325 125.195 67.6591Z" fill="#3D3D3D"/>
<path d="M138.815 60.4281L138.765 60.4653C136.118 62.3913 132.376 61.7968 130.453 59.1399L123.829 49.9926C121.905 47.3419 122.499 43.595 125.152 41.669C127.83 39.7243 131.609 40.325 133.558 43.0067L140.145 52.0983C142.056 54.7552 141.462 58.502 138.815 60.4281Z" fill="#7F4A33"/>
<path d="M98.7077 61.4558L98.6583 61.493C96.0111 63.4191 92.2691 62.8245 90.3456 60.1677L83.7153 51.0265C81.7917 48.3759 82.3855 44.629 85.0389 42.7029C87.717 40.752 91.5022 41.359 93.4443 44.0406L100.031 53.1322C101.955 55.7829 101.355 59.5298 98.7077 61.4558Z" fill="#7F4A33"/>
<path d="M129.049 66.1175L129 66.1546C126.352 68.0807 122.61 67.4861 120.687 64.8293L107.946 47.2406C106.022 44.59 106.616 40.8431 109.269 38.917C111.947 36.9724 115.726 37.5731 117.675 40.2547L130.379 57.7938C132.296 60.4507 131.702 64.1914 129.049 66.1175Z" fill="#7F4A33"/>
<path d="M114.021 63.7093L113.971 63.7464C111.324 65.6725 107.582 65.0779 105.659 62.4211L92.9176 44.8324C90.9878 42.1818 91.5878 38.4349 94.235 36.5088C96.9131 34.5642 100.692 35.1649 102.64 37.8465L115.344 55.3856C117.262 58.0425 116.668 61.7832 114.021 63.7093Z" fill="#7F4A33"/>
<path d="M137.775 115.76L141.906 140.625C142.525 144.329 139.995 147.865 136.296 148.485L134.07 148.856C130.229 149.494 126.567 146.874 125.924 143.028L121.836 118.417L137.775 115.76Z" fill="#472D7F"/>
<path d="M129.719 120.759L122.879 119.136C119.093 118.238 116.731 114.405 117.621 110.614L119.242 103.765C120.139 99.9746 123.967 97.6088 127.753 98.5006L134.593 100.123C138.378 101.021 140.741 104.855 139.85 108.645L138.23 115.495C137.333 119.285 133.505 121.651 129.719 120.759Z" fill="#FFC6B7"/>
<mask id="mask0_8307_1136" style="mask-type:luminance" maskUnits="userSpaceOnUse" x="96" y="100" width="18" height="11">
<path d="M113.622 101.905L97.3359 100.428L96.5303 109.334L112.817 110.811L113.622 101.905Z" fill="white"/>
</mask>
<g mask="url(#mask0_8307_1136)">
<path d="M105.187 109.227C109.344 109.227 112.714 105.852 112.714 101.689C112.714 97.5268 109.344 94.1523 105.187 94.1523C101.03 94.1523 97.6602 97.5268 97.6602 101.689C97.6602 105.852 101.03 109.227 105.187 109.227Z" fill="white"/>
</g>
<path fill-rule="evenodd" clip-rule="evenodd" d="M105.849 143.078H147.462V149.011H105.849C104.241 149.011 102.93 147.711 102.93 146.094C102.93 146.088 102.93 146.088 102.93 146.082C102.924 144.422 104.185 143.078 105.849 143.078Z" fill="#AFAFAF"/>
<path fill-rule="evenodd" clip-rule="evenodd" d="M200.45 149.012H134.431C132.297 149.012 130.72 147.037 131.116 144.974L139.645 103.753C140.195 100.904 142.725 98.8477 145.644 98.8477H210.556C213.24 98.8477 215.294 101.3 214.743 103.988L206.449 144.182C205.899 146.956 203.369 149.012 200.45 149.012Z" fill="#AFAFAF"/>
<path fill-rule="evenodd" clip-rule="evenodd" d="M204.397 149.012H138.384C136.25 149.012 134.673 147.037 135.069 144.974L143.598 103.753C144.148 100.904 146.678 98.8477 149.597 98.8477H214.503C217.187 98.8477 219.241 101.3 218.69 103.988L210.396 144.182C209.765 146.956 207.322 149.012 204.397 149.012Z" fill="#C8C8CB"/>
<path fill-rule="evenodd" clip-rule="evenodd" d="M182.054 119.232C184.157 121.567 183.551 125.549 180.706 128.125C177.855 130.702 173.841 130.894 171.738 128.559C169.635 126.224 170.241 122.242 173.086 119.665C175.937 117.095 179.951 116.897 182.054 119.232Z" fill="#999999"/>
<path fill-rule="evenodd" clip-rule="evenodd" d="M153.065 120.61H165.305C166.016 120.61 166.647 119.978 166.647 119.266V106.211H151.723V119.266C151.723 119.978 152.354 120.61 153.065 120.61Z" fill="#AFAFAF"/>
<path fill-rule="evenodd" clip-rule="evenodd" d="M155.83 118.87H167.909C168.775 118.87 169.412 118.077 169.251 117.21L166.647 106.211H151.723L154.487 117.842C154.648 118.393 155.199 118.87 155.83 118.87Z" fill="#FFD201"/>
<path fill-rule="evenodd" clip-rule="evenodd" d="M151.725 106.211H166.649V105.264C166.649 104.552 166.099 103.92 165.307 103.92H152.987C152.275 103.92 151.645 104.471 151.645 105.264V106.211H151.725Z" fill="#FFB701"/>
</svg>
