<svg width="255" height="157" viewBox="0 0 255 157" fill="none" xmlns="http://www.w3.org/2000/svg">
<g clip-path="url(#clip0_8307_1134)">
<path d="M178.25 74.7539H164.937L159.742 95.3913H178.25V74.7539Z" fill="#3D93CF"/>
<path d="M154.856 95.3913H160.744L166.245 74.7539H160.474C160.089 74.7539 159.743 75.0245 159.666 75.3722L154.433 94.8501C154.356 95.1207 154.587 95.3913 154.856 95.3913Z" fill="#43ADE1"/>
<path d="M142.621 22H117.496V141.766H142.621V22Z" fill="#CFE2E7"/>
<path d="M203.758 22H224.073C226.766 22 228.998 24.2029 228.998 26.9468V152.432H203.758V22Z" fill="#CFE2E7"/>
<path d="M110.605 24.4734V152.432H117.493V102.346H196.908V152.432H203.795V102.346V95.4284V65.5934V58.7143V28.9178V22H199.37H117.493H114.338H113.068C111.722 22 110.605 23.1208 110.605 24.4734ZM196.908 58.7143H117.493V28.9178H196.908V58.7143ZM117.493 95.4674V65.6321H196.908V95.4674H117.493Z" fill="#EBF2F4"/>
<path d="M172.981 34.6367H159.052L153.012 58.7135H172.981V34.6367Z" fill="#F9BA15"/>
<path d="M151.699 58.7135H154.161L160.587 34.6367H158.24C157.778 34.6367 157.393 34.9459 157.278 35.3709L151.198 58.0952C151.121 58.4044 151.353 58.7135 151.699 58.7135Z" fill="#FDD204"/>
<path d="M184.985 32.3574H168.363V58.7531H184.985V32.3574Z" fill="#A34343"/>
<path d="M164.048 58.7145H168.358V32.3574H164.048C163.24 32.3574 162.586 33.0144 162.586 33.826V57.2459C162.586 58.0575 163.24 58.7145 164.048 58.7145Z" fill="#D53F3F"/>
<path d="M165.477 54.1922C165.746 54.1922 165.977 53.9603 165.977 53.6898V37.3422C165.977 37.0717 165.746 36.8398 165.477 36.8398C165.208 36.8398 164.977 37.0717 164.977 37.3422V53.6898C164.977 53.9603 165.208 54.1922 165.477 54.1922Z" fill="#A34343"/>
<path d="M196.872 32.3574H180.25V58.7531H196.872V32.3574Z" fill="#3D93CF"/>
<path d="M175.98 58.7145H180.25V32.3574L176.018 32.396C175.21 32.396 174.556 33.053 174.556 33.8646L174.517 57.2459C174.479 58.0575 175.133 58.7145 175.98 58.7145Z" fill="#43ADE1"/>
<path d="M177.364 54.1922C177.633 54.1922 177.864 53.9603 177.864 53.6898V37.3422C177.864 37.0717 177.633 36.8398 177.364 36.8398C177.094 36.8398 176.863 37.0717 176.863 37.3422V53.6898C176.863 53.9603 177.094 54.1922 177.364 54.1922Z" fill="#3D93CF"/>
<path d="M189.25 71.3906H175.322L169.281 95.3902H189.25V71.3906Z" fill="#4C4C4C"/>
<path d="M166.05 95.3902H170.475L176.862 71.3906H172.553C172.091 71.3906 171.706 71.6998 171.591 72.1249L165.55 94.7718C165.473 95.0813 165.704 95.3902 166.05 95.3902Z" fill="#656161"/>
<path d="M196.871 68.9941H183.789V95.3898H196.871V68.9941Z" fill="#38B000"/>
<path d="M183.788 68.9941V95.3898H176.825C176.286 95.3898 175.824 94.9647 175.824 94.3852V69.9989C175.824 69.4579 176.248 68.9941 176.825 68.9941H183.788Z" fill="#50C800"/>
<path d="M179.83 91.7979C180.33 91.7979 180.715 91.4111 180.715 90.9088V79.7014C180.715 79.199 180.33 78.8125 179.83 78.8125C179.33 78.8125 178.945 79.199 178.945 79.7014V90.9088C178.945 91.4111 179.33 91.7979 179.83 91.7979Z" fill="#38B000"/>
<path d="M179.828 76.7637C180.975 76.7637 181.905 75.8294 181.905 74.6768C181.905 73.5242 180.975 72.5898 179.828 72.5898C178.681 72.5898 177.75 73.5242 177.75 74.6768C177.75 75.8294 178.681 76.7637 179.828 76.7637Z" fill="#38B000"/>
<path d="M39.6202 148.49H27V152.432H39.6202V148.49Z" fill="#4C4C4C"/>
<path d="M229.002 148.723H220.922V152.549H229.002V148.723Z" fill="#4C4C4C"/>
<path d="M162.359 105.902H155.741V107.023C147.93 109.806 142.312 117.303 142.312 126.037V148.685H182.367V126.037C182.367 114.946 173.363 105.902 162.359 105.902Z" fill="#4C4C4C"/>
<path d="M175.753 148.685V126.037C175.753 114.984 166.75 105.902 155.707 105.902C144.664 105.902 135.699 114.946 135.699 126.037V148.685H175.753Z" fill="#656161"/>
<path d="M128.885 110.616C125.23 109.534 121.421 111.621 120.343 115.253L117.227 125.765L130.501 129.321L133.502 119.157C134.579 115.562 132.502 111.698 128.885 110.616Z" fill="#F9BA15"/>
<path d="M117.226 125.805L114.879 133.765C114.802 133.998 114.571 134.152 114.34 134.113C111.108 133.573 90.3698 130.094 88.4844 129.901C86.4066 129.708 79.5579 129.476 75.8642 134.229C75.1331 135.196 75.2101 136.664 76.172 137.437C76.5952 137.746 77.0569 137.901 77.5571 137.901C78.2112 137.901 78.9038 137.592 79.327 137.012C79.8272 136.355 80.5967 135.66 81.2508 135.312C81.2893 135.312 81.4047 135.273 81.4817 135.35C81.5971 135.427 81.4047 135.66 81.4047 135.66C80.0966 137.283 79.0192 139.408 78.8268 142.152C78.7499 143.35 79.6733 144.393 80.9046 144.471H80.9815C82.1743 144.548 83.1746 143.62 83.2516 142.384C83.3286 141.263 83.6748 140.297 84.1366 139.447C84.175 139.408 84.2135 139.37 84.2905 139.408C84.4444 139.447 84.3674 139.64 84.3674 139.64C84.175 140.606 84.175 141.727 84.4059 143.003C84.5983 144.046 85.5217 144.818 86.5606 144.818C86.8684 144.818 87.1762 144.741 87.484 144.626C88.4456 144.201 88.9078 143.157 88.7538 142.114C88.7149 141.843 88.6767 141.611 88.6767 141.379L113.956 148.258C114.879 148.49 115.841 148.645 116.764 148.645C121.497 148.645 125.845 145.476 127.153 140.722L130.5 129.399L117.226 125.805Z" fill="#D98B75"/>
<path d="M143.009 104.857L125.579 110.075C122.232 111.08 119.961 114.133 119.961 117.65L118.961 148.721H143.009H166.056V117.65C166.056 114.171 163.786 111.08 160.438 110.075L143.009 104.857Z" fill="#FDD204"/>
<path d="M130.537 86.115C137.422 86.115 143.003 80.5092 143.003 73.5938C143.003 66.6783 137.422 61.0723 130.537 61.0723C123.652 61.0723 118.07 66.6783 118.07 73.5938C118.07 80.5092 123.652 86.115 130.537 86.115Z" fill="#231F20"/>
<path d="M156.396 97.4768C163.281 97.4768 168.862 91.8707 168.862 84.9553C168.862 78.0397 163.281 72.4336 156.396 72.4336C149.511 72.4336 143.93 78.0397 143.93 84.9553C143.93 91.8707 149.511 97.4768 156.396 97.4768Z" fill="#231F20"/>
<path d="M139.58 74.713C146.465 74.713 152.046 69.1069 152.046 62.1915C152.046 55.276 146.465 49.6699 139.58 49.6699C132.695 49.6699 127.113 55.276 127.113 62.1915C127.113 69.1069 132.695 74.713 139.58 74.713Z" fill="#231F20"/>
<path d="M153.666 84.3751C161.953 84.3751 168.671 77.6269 168.671 69.3027C168.671 60.9785 161.953 54.2305 153.666 54.2305C145.378 54.2305 138.66 60.9785 138.66 69.3027C138.66 77.6269 145.378 84.3751 153.666 84.3751Z" fill="#231F20"/>
<path d="M157.59 86.114V77.5729C157.59 68.4909 150.203 61.1094 141.2 61.1094C132.196 61.1094 124.809 68.5295 124.809 77.5729V86.114H157.59Z" fill="#50C800"/>
<path d="M151.587 109.225V107.408L143.006 104.857L135.734 107.022V114.635C135.734 116.413 137.197 117.843 138.966 117.843C139.505 117.843 140.005 117.727 140.467 117.456L149.393 112.78C150.74 112.085 151.587 110.732 151.587 109.225Z" fill="white"/>
<path d="M137.695 93.0312V114.635C137.695 115.562 138.734 116.181 139.581 115.756L148.507 111.079C149.2 110.731 149.623 109.997 149.623 109.225V93.0312H137.695Z" fill="#EBA792"/>
<path d="M121.267 87.3901C121.998 90.1339 124.883 91.7569 127.654 91.0229C130.424 90.2883 132.078 87.4673 131.347 84.7235C130.616 81.9795 127.731 80.3563 124.96 81.0906C122.19 81.8249 120.536 84.6463 121.267 87.3901Z" fill="#8D4D2A"/>
<path d="M121.267 87.3901C121.998 90.1339 124.883 91.7569 127.654 91.0229C130.424 90.2883 132.078 87.4673 131.347 84.7235C130.616 81.9795 127.731 80.3563 124.96 81.0906C122.19 81.8249 120.536 84.6463 121.267 87.3901Z" fill="#D98B75"/>
<path d="M149.278 87.392C150.009 90.1358 152.895 91.7589 155.665 91.0249C158.436 90.2903 160.129 87.4693 159.359 84.7255C158.628 81.9814 155.742 80.3582 152.972 81.0925C150.202 81.8268 148.547 84.6483 149.278 87.392Z" fill="#D98B75"/>
<path d="M124.729 88.2773C123.69 88.2773 122.805 89.1275 122.805 90.171C122.805 91.2145 123.652 92.0646 124.729 92.0646V88.2773Z" fill="#FDD204"/>
<path d="M154.438 79.5836C154.438 71.3905 147.743 64.666 139.586 64.666C131.429 64.666 124.734 71.3519 124.734 79.5836V93.8832C124.734 97.7477 126.85 101.342 130.236 103.197L133.276 104.858C137.239 107.023 142.01 107.023 145.973 104.858L149.013 103.197C152.399 101.342 154.515 97.786 154.515 93.8832L154.438 79.5836Z" fill="#EBA792"/>
<path d="M131.193 91.0995C130.385 91.0995 129.77 90.481 129.77 89.7081V85.573C129.77 84.8001 130.385 84.1816 131.154 84.1816H131.193C131.962 84.1816 132.578 84.8001 132.578 85.573V89.6692C132.578 90.4421 131.962 91.0995 131.193 91.0995Z" fill="#723D26"/>
<path d="M140.928 91.0995C140.12 91.0995 139.504 90.481 139.504 89.7081V85.573C139.504 84.8001 140.12 84.1816 140.889 84.1816H140.928C141.697 84.1816 142.312 84.8001 142.312 85.573V89.6692C142.351 90.4421 141.697 91.0995 140.928 91.0995Z" fill="#723D26"/>
<path d="M135.695 92.8781H135.656C134.54 92.8781 133.617 91.9507 133.617 90.83V85.7675C133.617 84.6467 134.54 83.7188 135.656 83.7188H135.695C136.81 83.7188 137.734 84.6467 137.734 85.7675V90.8689C137.734 91.9507 136.81 92.8781 135.695 92.8781Z" fill="#DF8E70"/>
<path d="M154.431 92.0275C155.494 92.0275 156.356 91.1798 156.356 90.1339C156.356 89.0879 155.494 88.2402 154.431 88.2402C153.369 88.2402 152.508 89.0879 152.508 90.1339C152.508 91.1798 153.369 92.0275 154.431 92.0275Z" fill="#FDD204"/>
<path d="M148.585 91.9118H139.851C138.696 91.9118 137.734 90.9455 137.734 89.7865V82.4049C137.734 81.2455 138.696 80.2793 139.851 80.2793H148.585C149.739 80.2793 150.701 81.2455 150.701 82.4049V89.8248C150.701 90.9844 149.739 91.9118 148.585 91.9118ZM139.851 81.3228C139.274 81.3228 138.812 81.7865 138.812 82.3662V89.7865C138.812 90.366 139.274 90.83 139.851 90.83H148.585C149.162 90.83 149.624 90.366 149.624 89.7865V82.4049C149.624 81.8252 149.162 81.3614 148.585 81.3614H139.851V81.3228Z" fill="#231F20"/>
<path opacity="0.25" d="M139.847 81.3223C139.27 81.3223 138.809 81.786 138.809 82.3657V89.786C138.809 90.3656 139.27 90.8295 139.847 90.8295H148.581C149.159 90.8295 149.62 90.3656 149.62 89.786V82.4044C149.62 81.8247 149.159 81.3609 148.581 81.3609H139.847V81.3223Z" fill="white"/>
<path d="M131.539 91.9118H125.768C124.614 91.9118 123.652 90.9455 123.652 89.7865V82.4049C123.652 81.2455 124.614 80.2793 125.768 80.2793H131.539C132.694 80.2793 133.656 81.2455 133.656 82.4049V89.8248C133.656 90.9844 132.694 91.9118 131.539 91.9118ZM125.768 81.3228C125.191 81.3228 124.73 81.7865 124.73 82.4049V89.8248C124.73 90.4049 125.191 90.8683 125.768 90.8683H131.539C132.117 90.8683 132.579 90.4049 132.579 89.8248V82.4049C132.579 81.8252 132.117 81.3614 131.539 81.3614H125.768V81.3228Z" fill="#231F20"/>
<path opacity="0.25" d="M125.773 81.3223C125.196 81.3223 124.734 81.786 124.734 82.4044V89.8243C124.734 90.4045 125.196 90.8679 125.773 90.8679H131.544C132.122 90.8679 132.583 90.4045 132.583 89.8243V82.4044C132.583 81.8247 132.122 81.3609 131.544 81.3609H125.773V81.3223Z" fill="white"/>
<path d="M138.773 82.4805H132.578V84.954H138.773V82.4805Z" fill="#231F20"/>
<path d="M139.583 64.666C134.543 64.666 130.041 67.2167 127.348 71.12C128.578 74.6369 131.926 77.1489 135.85 77.1489C136.813 77.1489 137.736 76.9943 138.621 76.7238C140.314 80.8976 144.354 83.8348 149.125 83.8348C151.049 83.8348 152.857 83.3325 154.434 82.4821V79.5836C154.434 71.3519 147.74 64.666 139.583 64.666Z" fill="#231F20"/>
<path d="M148.545 62.8501L147.121 64.28C150.122 67.2945 154.97 67.2945 157.933 64.28L158.548 63.6617C159.01 63.1979 158.933 62.425 158.433 62.0385C155.432 59.8743 151.238 60.1448 148.545 62.8501Z" fill="#50C800"/>
<path d="M144.201 55.7783C143.739 55.7397 143.316 56.0875 143.316 56.5899V57.7493C143.316 62.0004 146.741 65.44 150.973 65.44V63.4304C150.973 59.4884 148.01 56.2034 144.201 55.7783Z" fill="#50C800"/>
<path d="M130.924 81.3217H128.384C127.461 81.3217 126.691 80.5488 126.691 79.6599C126.691 78.7323 127.461 77.998 128.384 77.998H130.924C131.847 77.998 132.578 78.771 132.578 79.6599C132.578 80.5488 131.847 81.3217 130.924 81.3217Z" fill="#231F20"/>
<path d="M134.074 95.3515C134.074 95.3515 137.576 96.859 142.347 94.1152" stroke="#D87E64" stroke-width="2.7454" stroke-linecap="round" stroke-linejoin="round"/>
<path d="M201.488 139.602H194.177H173.785H172.977V147.872V148.684H173.785H194.177H201.526C202.219 148.684 202.796 148.104 202.796 147.408V140.877C202.757 140.181 202.18 139.602 201.488 139.602Z" fill="#50C800"/>
<path d="M155.472 140.413C155.472 140.838 155.818 141.225 156.28 141.225H183.714V147.099H156.242C155.818 147.099 155.434 147.447 155.434 147.911C155.434 148.336 155.779 148.722 156.242 148.722H183.983C184.675 148.722 185.253 148.142 185.253 147.447V140.877C185.253 140.181 184.675 139.602 183.983 139.602H156.242C155.818 139.602 155.472 139.988 155.472 140.413Z" fill="#38B000"/>
<path d="M183.673 141.188H156.816V147.062H183.673V141.188Z" fill="#E9E1E2"/>
<path d="M183.673 143.156H156.816V145.127H183.673V143.156Z" fill="white"/>
<path d="M177.747 147.214L176.669 146.209C176.554 146.093 176.4 146.093 176.285 146.209L175.207 147.214C175.015 147.369 174.707 147.252 174.707 146.982V143.156H178.208V146.982C178.247 147.252 177.939 147.369 177.747 147.214Z" fill="#EF4849"/>
<path d="M198.759 145.128H189.255C188.716 145.128 188.293 144.703 188.293 144.162C188.293 143.62 188.716 143.195 189.255 143.195H198.797C199.336 143.195 199.759 143.62 199.759 144.162C199.759 144.703 199.297 145.128 198.759 145.128Z" fill="#38B000"/>
<path d="M201.49 130.559H197.181H176.788H175.98V138.829V139.64H176.788H197.181H201.49C202.183 139.64 202.76 139.061 202.76 138.365V131.834C202.76 131.138 202.183 130.559 201.49 130.559Z" fill="#43ADE1"/>
<path d="M162.012 131.331C162.012 131.795 162.358 132.143 162.82 132.143H186.675V138.056H162.82C162.396 138.056 162.012 138.404 162.012 138.867C162.012 139.292 162.358 139.679 162.82 139.679H187.021C187.714 139.679 188.291 139.099 188.291 138.404V131.834C188.291 131.138 187.714 130.559 187.021 130.559H162.82C162.358 130.559 162.012 130.906 162.012 131.331Z" fill="#3D93CF"/>
<path d="M186.676 132.143H163.398V138.056H186.676V132.143Z" fill="#E9E1E2"/>
<path d="M186.676 134.113H163.398V136.085H186.676V134.113Z" fill="white"/>
<path d="M198.757 136.087H192.255C191.716 136.087 191.293 135.662 191.293 135.121C191.293 134.579 191.716 134.154 192.255 134.154H198.757C199.296 134.154 199.719 134.579 199.719 135.121C199.719 135.662 199.296 136.087 198.757 136.087Z" fill="#3D93CF"/>
<path d="M133.733 144.896H101.875V148.684H131.655C133.271 148.684 134.58 147.37 134.58 145.747C134.58 145.283 134.195 144.896 133.733 144.896Z" fill="#8EADC9"/>
<path d="M99.1805 113.438H50.8544C49.5462 113.438 48.6228 114.674 48.9306 115.911L57.0106 146.132C57.3953 147.64 58.7805 148.683 60.3196 148.683H108.645C109.954 148.683 110.877 147.447 110.531 146.21L102.49 115.988C102.104 114.481 100.719 113.438 99.1805 113.438Z" fill="#8EADC9"/>
<path d="M96.5266 113.438H48.2008C46.8926 113.438 45.9691 114.674 46.3154 115.911L54.357 146.094C54.7417 147.601 56.1269 148.645 57.6659 148.645H105.992C107.3 148.645 108.224 147.408 107.877 146.171L99.8745 115.988C99.4511 114.481 98.1044 113.438 96.5266 113.438Z" fill="#ABC0D8"/>
<path d="M81.9434 131.563C81.4047 128.587 78.5959 126.191 75.6333 126.191C72.6706 126.191 70.7468 128.587 71.247 131.563C71.7472 134.539 74.5944 136.935 77.5571 136.935C80.5197 136.935 82.482 134.501 81.9434 131.563Z" fill="#EBF2F4"/>
<path d="M161.049 110.694C157.394 109.612 153.585 111.699 152.507 115.332L149.391 125.843L162.665 129.399L165.666 119.235C166.782 115.602 164.704 111.776 161.049 110.694Z" fill="#FDD204"/>
<path d="M149.39 125.844L147.043 133.805C146.966 134.037 146.736 134.192 146.505 134.153C143.273 133.612 122.534 130.134 120.649 129.941C118.571 129.747 111.761 129.516 108.067 134.269C107.297 135.235 107.413 136.742 108.336 137.477C108.76 137.786 109.221 137.94 109.721 137.94C110.376 137.94 111.068 137.631 111.491 137.052C111.992 136.394 112.761 135.699 113.415 135.351C113.454 135.351 113.569 135.313 113.646 135.39C113.723 135.505 113.569 135.738 113.569 135.738C112.261 137.361 111.184 139.486 110.991 142.23C110.914 143.428 111.838 144.472 113.069 144.549H113.146C114.339 144.626 115.339 143.699 115.416 142.462C115.493 141.341 115.839 140.375 116.301 139.525C116.339 139.486 116.378 139.448 116.455 139.486C116.609 139.525 116.532 139.718 116.532 139.718C116.339 140.684 116.339 141.805 116.57 143.081C116.763 144.124 117.686 144.897 118.725 144.897C119.033 144.897 119.341 144.82 119.648 144.704C120.61 144.279 121.072 143.235 120.918 142.192C120.88 141.921 120.841 141.689 120.841 141.458L146.158 148.298C147.082 148.53 148.044 148.684 148.967 148.684C153.7 148.684 158.048 145.515 159.356 140.762L162.703 129.438L149.39 125.844Z" fill="#EBA792"/>
<path d="M225.075 156.606L30.9246 156.374C28.7699 156.374 27 154.596 27 152.432C27 150.268 28.7699 148.49 30.9246 148.49L225.075 148.722C227.23 148.722 229 150.5 229 152.664C229 154.828 227.23 156.606 225.075 156.606Z" fill="#4C4C4C"/>
</g>
<defs>
<clipPath id="clip0_8307_1134">
<rect width="202" height="135" fill="white" transform="translate(27 22)"/>
</clipPath>
</defs>
</svg>
