<svg width="255" height="157" viewBox="0 0 255 157" fill="none" xmlns="http://www.w3.org/2000/svg">
<mask id="mask0_8307_1135" style="mask-type:alpha" maskUnits="userSpaceOnUse" x="30" y="18" width="195" height="139">
<rect x="30" y="18" width="195" height="138.767" fill="#D9D9D9"/>
</mask>
<g mask="url(#mask0_8307_1135)">
<path d="M107.357 109.222H53.8386C52.9911 109.222 52.2969 108.529 52.2969 107.683V72.0373C52.2969 57.7791 63.9815 46.1133 78.2627 46.1133H82.9509C97.2321 46.1133 108.917 57.7791 108.917 72.0373V107.674C108.899 108.529 108.204 109.222 107.357 109.222Z" fill="#3D3D3D"/>
<path d="M80.5669 99.625C94.3398 99.625 105.505 88.8002 105.505 75.4473C105.505 62.0943 94.3398 51.2695 80.5669 51.2695C66.794 51.2695 55.6289 62.0943 55.6289 75.4473C55.6289 88.8002 66.794 99.625 80.5669 99.625Z" fill="#E18E70"/>
<path d="M80.639 108.286H80.5127C78.0785 108.286 76.0859 106.297 76.0859 103.867V100.527C76.0859 98.0967 78.0785 96.1074 80.5127 96.1074H80.639C83.0733 96.1074 85.0658 98.0967 85.0658 100.527V103.867C85.0568 106.306 83.0642 108.286 80.639 108.286Z" fill="#E18E70"/>
<path d="M85.6692 123.776H75.5173C73.9666 123.776 72.6953 122.507 72.6953 120.959V106.431C72.6953 104.882 73.9666 103.613 75.5173 103.613H85.6692C87.2199 103.613 88.4912 104.882 88.4912 106.431V120.95C88.4912 122.507 87.2199 123.776 85.6692 123.776Z" fill="#F7F7F7"/>
<path d="M80.1936 112.321L100.813 141.773C101.796 143.186 103.743 143.528 105.159 142.538L107.133 141.161C108.549 140.18 108.891 138.236 107.899 136.822L87.2801 107.37C85.9187 105.425 83.2139 104.948 81.2575 106.308C79.3101 107.667 78.8322 110.367 80.1936 112.321Z" fill="#F7F7F7"/>
<path fill-rule="evenodd" clip-rule="evenodd" d="M109.021 139.487C104.586 140.081 101.466 144.149 102.061 148.587C102.656 153.016 106.731 156.13 111.167 155.536C115.603 154.942 118.722 150.873 118.127 146.436C117.532 142.007 113.457 138.893 109.021 139.487Z" fill="#E18E70"/>
<path d="M80.6936 112.318L60.0832 141.761C59.1005 143.175 57.1531 143.517 55.7376 142.526L53.7631 141.149C52.3476 140.168 52.005 138.224 52.9967 136.811L73.6161 107.358C74.9775 105.414 77.6823 104.937 79.6387 106.296C81.5771 107.664 82.055 110.365 80.6936 112.318Z" fill="#F7F7F7"/>
<path fill-rule="evenodd" clip-rule="evenodd" d="M51.8702 139.487C56.3061 140.081 59.4256 144.149 58.8305 148.587C58.2355 153.016 54.1603 156.13 49.7245 155.536C45.2886 154.942 42.1691 150.873 42.7642 146.436C43.3502 142.007 47.4254 138.893 51.8702 139.487Z" fill="#E18E70"/>
<path d="M91.3324 181.754H69.55C67.1427 181.754 65.1953 179.81 65.1953 177.407V147.783C65.1953 145.38 67.1427 143.436 69.55 143.436H91.3324C93.7397 143.436 95.6871 145.38 95.6871 147.783V177.407C95.6871 179.81 93.7397 181.754 91.3324 181.754Z" fill="#4B4B4B"/>
<path d="M80.4435 154.625C90.5864 154.625 98.8089 146.634 98.8089 136.776C98.8089 126.917 90.5864 118.926 80.4435 118.926C70.3006 118.926 62.0781 126.917 62.0781 136.776C62.0781 146.634 70.3006 154.625 80.4435 154.625Z" fill="#4B4B4B"/>
<path d="M90.4654 121.906H70.4141V119.548C70.4141 119.089 70.7927 118.711 71.2525 118.711H89.627C90.0868 118.711 90.4654 119.089 90.4654 119.548V121.906Z" fill="#777777"/>
<path d="M80.4414 181.063V141.357" stroke="#777777" stroke-width="2.0193" stroke-miterlimit="10" stroke-linecap="round"/>
<path d="M78.0352 141.357H82.8496" stroke="#777777" stroke-width="2.0193" stroke-miterlimit="10" stroke-linecap="round"/>
<path d="M56.5509 75.5584C54.5223 75.0633 52.4667 76.2695 51.9528 78.2318C51.4479 80.2031 52.6831 82.1924 54.7117 82.6875C56.7402 83.1826 58.7959 81.9764 59.3098 80.0141C59.8147 78.0428 58.5795 76.0535 56.5509 75.5584Z" fill="#E18E70"/>
<path d="M106.192 75.5584C104.163 75.0633 102.107 76.2695 101.593 78.2318C101.089 80.2031 102.324 82.1924 104.352 82.6875C106.381 83.1826 108.436 81.9764 108.95 80.0141C109.455 78.0428 108.22 76.0535 106.192 75.5584Z" fill="#E18E70"/>
<path fill-rule="evenodd" clip-rule="evenodd" d="M88.5276 65.0625C91.9086 65.0625 94.6674 67.7359 94.6674 71.0124V75.8102C94.6674 79.0867 91.9086 81.7601 88.5276 81.7601C85.1466 81.7601 82.3878 79.0867 82.3878 75.8102V71.0124C82.3247 67.7359 85.0745 65.0625 88.5276 65.0625Z" fill="white"/>
<path fill-rule="evenodd" clip-rule="evenodd" d="M72.3625 65.0625C68.9815 65.0625 66.2227 67.7359 66.2227 71.0124V75.8102C66.2227 79.0867 68.9815 81.7601 72.3625 81.7601C75.7434 81.7601 78.5023 79.0867 78.5023 75.8102V71.0124C78.5023 67.7359 75.7434 65.0625 72.3625 65.0625Z" fill="white"/>
<path fill-rule="evenodd" clip-rule="evenodd" d="M73.4914 69.3086C72.0489 69.3086 70.9219 70.4608 70.9219 71.802V75.0245C70.9219 76.4197 72.112 77.5179 73.4914 77.5179C74.934 77.5179 76.0609 76.3657 76.0609 75.0245V71.802C76.0609 70.4068 74.934 69.3086 73.4914 69.3086Z" fill="#4B4B4B"/>
<path fill-rule="evenodd" clip-rule="evenodd" d="M87.4016 69.3086C85.959 69.3086 84.832 70.4608 84.832 71.802V75.0245C84.832 76.4197 86.0221 77.5179 87.4016 77.5179C88.8441 77.5179 89.9711 76.3657 89.9711 75.0245V71.802C90.0252 70.4068 88.8351 69.3086 87.4016 69.3086Z" fill="#4B4B4B"/>
<path fill-rule="evenodd" clip-rule="evenodd" d="M80.4601 83.6405C81.551 83.6315 82.4255 82.7673 82.4165 81.7052C82.4075 80.643 80.424 78.1406 80.424 78.1406L80.2527 78.3657C79.7749 79.0138 78.4766 80.859 78.4766 81.7322C78.4856 82.7943 79.3691 83.6495 80.4601 83.6405Z" fill="#9E4D31"/>
<path d="M71.6983 71.6665C72.5995 71.6665 73.3302 70.9572 73.3302 70.0823C73.3302 69.2073 72.5995 68.498 71.6983 68.498C70.797 68.498 70.0664 69.2073 70.0664 70.0823C70.0664 70.9572 70.797 71.6665 71.6983 71.6665Z" fill="white"/>
<path d="M89.4678 71.6665C90.3691 71.6665 91.0997 70.9572 91.0997 70.0823C91.0997 69.2073 90.3691 68.498 89.4678 68.498C88.5666 68.498 87.8359 69.2073 87.8359 70.0823C87.8359 70.9572 88.5666 71.6665 89.4678 71.6665Z" fill="white"/>
<path d="M77.2148 84.9551C77.2148 84.9551 80.5147 90.1489 83.6702 84.9551" stroke="#9E4D31" stroke-width="1.3683" stroke-miterlimit="10" stroke-linecap="round"/>
<path d="M100.484 66.4572H61.0037C60.598 66.4572 60.2734 66.1241 60.2734 65.7281C60.2734 54.9444 69.109 46.123 79.9101 46.123H81.578C92.3791 46.123 101.215 54.9444 101.215 65.7281C101.215 66.1331 100.89 66.4572 100.484 66.4572Z" fill="#3D3D3D"/>
<path d="M76.8778 118.699H74.75V121.904H76.8778V118.699Z" fill="#4B4B4B"/>
<path d="M86.1199 118.699H83.9922V121.904H86.1199V118.699Z" fill="#4B4B4B"/>
<path d="M91.4079 81.8319C89.8301 82.3 87.5671 82.201 86.4943 81.2288C85.6558 80.4637 84.9435 79.3115 84.3575 77.8083L94.879 77.6193C94.5184 79.0595 93.6168 81.1748 91.4079 81.8319ZM73.4933 82.273C72.0237 82.8761 70.3107 82.7321 68.9132 81.8949C67.5699 81.0938 66.6773 79.7616 66.3617 78.1144L76.7931 77.9343C76.5407 79.0055 75.7293 81.3549 73.4933 82.273ZM97.9625 76.4401L83.9518 76.6831C83.9247 76.6831 83.9067 76.6921 83.8887 76.6921C83.1674 75.531 81.8781 74.8018 80.4897 74.8289C79.0922 74.8559 77.83 75.621 77.1538 76.8092C77.1267 76.8092 77.1087 76.8002 77.0817 76.8002L63.0619 77.0522C62.7554 77.0612 62.5029 77.3132 62.512 77.6283C62.521 77.9343 62.7734 78.1864 63.089 78.1774L65.2257 78.1414C65.5683 80.1937 66.6503 81.8589 68.3272 82.8671C69.364 83.4882 70.5361 83.7942 71.7082 83.7672C72.4655 83.7582 73.2138 83.6052 73.9171 83.3172C77.2259 81.9669 77.9201 78.2314 78.0103 77.6013C78.4521 76.6111 79.4258 75.972 80.5077 75.954C81.5716 75.936 82.5633 76.5301 83.0412 77.4753C83.7264 79.5186 84.637 81.0578 85.7369 82.066C87.3417 83.5242 90.1998 83.3712 91.7325 82.9121C93.8963 82.264 95.429 80.3827 96.0511 77.6013L97.9805 77.5653C98.2871 77.5563 98.5395 77.3042 98.5305 76.9892C98.5305 76.6831 98.269 76.4311 97.9625 76.4401Z" fill="#4B4B4B"/>
<path fill-rule="evenodd" clip-rule="evenodd" d="M151.771 133.855H108.228C104.139 133.855 100.793 130.514 100.793 126.432V96.1399C100.793 92.0572 104.139 88.7168 108.228 88.7168H151.761C155.85 88.7168 159.196 92.0572 159.196 96.1399V126.432C159.206 130.514 155.86 133.855 151.771 133.855Z" fill="#CD7900"/>
<path d="M108.49 64.9524C111.617 64.9524 114.152 62.4209 114.152 59.2994C114.152 56.1779 111.617 53.6465 108.49 53.6465C105.364 53.6465 102.828 56.1779 102.828 59.2994C102.828 62.4209 105.364 64.9524 108.49 64.9524Z" fill="#D98B75"/>
<path d="M151.182 64.9524C154.308 64.9524 156.844 62.4209 156.844 59.2994C156.844 56.1779 154.308 53.6465 151.182 53.6465C148.055 53.6465 145.52 56.1779 145.52 59.2994C145.52 62.4209 148.055 64.9524 151.182 64.9524Z" fill="#D98B75"/>
<path d="M104.663 178.536H155.345C157.461 178.536 159.206 176.842 159.206 174.796V125.014H100.793V174.796C100.793 176.842 102.547 178.536 104.663 178.536Z" fill="#A56644"/>
<path fill-rule="evenodd" clip-rule="evenodd" d="M132.729 92.9612L136.075 109.777C136.284 110.805 135.865 111.88 135.045 112.556L130.975 115.697C130.613 116.001 130.098 116.001 129.736 115.697L125.666 112.556C124.789 111.89 124.426 110.805 124.636 109.777L127.982 92.866C127.257 92.609 126.695 92.0951 126.39 91.3719L125.303 89.0593C124.636 87.6223 125.303 85.9759 126.695 85.3097C127.057 85.1574 127.467 85.0527 127.877 85.0527H133.082C134.626 85.0527 135.913 86.3375 135.913 87.8792C135.913 88.2884 135.808 88.6976 135.655 89.0593L134.578 91.3719C134.225 92.1903 133.558 92.7613 132.729 92.9612Z" fill="#FFCE8E"/>
<path d="M159.196 118.59H100.793V125.014H159.196V118.59Z" fill="#3D3D3D"/>
<path d="M136.327 118.59H123.297V125.014H136.327V118.59Z" fill="#938579"/>
<path fill-rule="evenodd" clip-rule="evenodd" d="M131.861 178.535V139.602C131.861 138.717 131.089 137.975 130.165 137.975C129.183 137.975 128.411 138.717 128.468 139.602V178.535H131.861Z" fill="#744329"/>
<path fill-rule="evenodd" clip-rule="evenodd" d="M112.127 56.9688C107.075 56.9688 102.957 52.9051 102.957 47.9183C102.957 42.9316 107.075 38.8679 112.127 38.8679C117.179 38.8679 121.297 42.9316 121.297 47.9183C121.297 52.9051 117.169 56.9688 112.127 56.9688ZM146.166 56.9688C141.114 56.9688 136.996 52.9051 136.996 47.8707C136.996 42.8364 141.114 38.8203 146.166 38.8203C151.218 38.8203 155.336 42.884 155.336 47.8707C155.336 52.848 151.218 56.9688 146.166 56.9688Z" fill="#807A7A"/>
<path fill-rule="evenodd" clip-rule="evenodd" d="M112.127 56.9688C107.075 56.9688 102.957 52.9051 102.957 47.9183C102.957 42.9316 107.075 38.8679 112.127 38.8679C117.179 38.8679 121.297 42.9316 121.297 47.9183C121.297 52.9051 117.169 56.9688 112.127 56.9688ZM146.166 56.9688C141.114 56.9688 136.996 52.9051 136.996 47.8707C136.996 42.8364 141.114 38.8203 146.166 38.8203C151.218 38.8203 155.336 42.884 155.336 47.8707C155.336 52.848 151.218 56.9688 146.166 56.9688Z" fill="#3D3D3D"/>
<path d="M115.312 28.6457C110.966 30.9488 109.307 36.3162 111.604 40.6273C113.902 44.9384 119.287 46.5658 123.634 44.2627C127.98 41.9597 129.639 36.5922 127.342 32.2811C125.045 27.9605 119.659 26.3331 115.312 28.6457Z" fill="#3D3D3D"/>
<path fill-rule="evenodd" clip-rule="evenodd" d="M129.689 33.2715C139.574 33.2715 147.562 41.237 147.562 51.1154V87.4218H111.816V51.1059C111.816 41.237 119.852 33.2715 129.689 33.2715Z" fill="#E79B7E"/>
<path fill-rule="evenodd" clip-rule="evenodd" d="M122.882 46.3184C120.414 46.3184 118.402 48.3264 118.402 50.7912V54.3886C118.402 56.8534 120.414 58.8614 122.882 58.8614C125.351 58.8614 127.363 56.8534 127.363 54.3886V50.7912C127.41 48.3264 125.399 46.3184 122.882 46.3184Z" fill="white"/>
<path fill-rule="evenodd" clip-rule="evenodd" d="M123.758 48.8887C122.576 48.8887 121.594 49.8689 121.594 51.0966V53.8755C121.594 55.1126 122.576 56.0833 123.758 56.0833C124.94 56.0833 125.921 55.1031 125.921 53.8755V51.0966C125.921 49.8689 124.94 48.8887 123.758 48.8887Z" fill="#4B4B4B"/>
<path fill-rule="evenodd" clip-rule="evenodd" d="M136.539 46.3184C139.008 46.3184 141.019 48.3264 141.019 50.7912V54.3886C141.019 56.8534 139.008 58.8614 136.539 58.8614C134.07 58.8614 132.059 56.8534 132.059 54.3886V50.7912C132.049 48.3264 134.06 46.3184 136.539 46.3184Z" fill="white"/>
<path fill-rule="evenodd" clip-rule="evenodd" d="M135.712 48.8887C136.894 48.8887 137.876 49.8689 137.876 51.0966V53.8755C137.876 55.1126 136.894 56.0833 135.712 56.0833C134.53 56.0833 133.549 55.1031 133.549 53.8755V51.0966C133.501 49.8689 134.473 48.8887 135.712 48.8887Z" fill="#4B4B4B"/>
<path d="M117.961 55.8262C121.516 55.9784 124.243 56.4448 126.254 57.2156" stroke="#E79B7E" stroke-width="7.6489" stroke-linecap="round" stroke-linejoin="round"/>
<path d="M123.359 60.6895L123.55 60.9464C126.238 64.5437 131.185 65.1147 134.607 62.2787C135.141 61.8124 135.637 61.2985 136.075 60.6895" stroke="#D87E64" stroke-width="2.0353" stroke-linecap="round" stroke-linejoin="round"/>
<path fill-rule="evenodd" clip-rule="evenodd" d="M110.091 84.3398H151.136C151.603 84.3398 151.956 84.7015 151.956 85.1583V88.3464C151.956 88.708 151.746 89.0126 151.441 89.1172L141.137 93.0286L130.27 87.1663L119.766 93.0762L109.776 89.1648C109.471 89.0602 109.262 88.7556 109.262 88.394V85.2059C109.262 84.7015 109.624 84.3398 110.091 84.3398Z" fill="#E7A601"/>
<path d="M129.469 21.1951C123.464 24.2309 121.167 31.2733 124.331 36.9358C127.496 42.5983 134.931 44.7205 140.927 41.6846C146.932 38.6488 149.229 31.6064 146.064 25.9439C142.9 20.291 135.474 18.1592 129.469 21.1951Z" fill="#3D3D3D"/>
<path fill-rule="evenodd" clip-rule="evenodd" d="M129.687 59.6436C130.888 59.6436 131.851 58.6634 131.851 57.4643C131.851 56.2557 129.687 53.4102 129.687 53.4102C129.687 53.4102 127.523 56.2652 127.523 57.4643C127.523 58.6729 128.496 59.6436 129.687 59.6436Z" fill="#C75E49"/>
<path d="M134.626 51.164C135.226 51.164 135.712 50.6782 135.712 50.079C135.712 49.4799 135.226 48.9941 134.626 48.9941C134.026 48.9941 133.539 49.4799 133.539 50.079C133.539 50.6782 134.026 51.164 134.626 51.164Z" fill="white"/>
<path d="M122.669 50.5058C123.269 50.5058 123.755 50.02 123.755 49.4208C123.755 48.8217 123.269 48.3359 122.669 48.3359C122.069 48.3359 121.582 48.8217 121.582 49.4208C121.582 50.02 122.069 50.5058 122.669 50.5058Z" fill="white"/>
<path fill-rule="evenodd" clip-rule="evenodd" d="M111.816 84.3391C111.816 84.3391 126.496 80.9131 147.562 84.3391H111.816Z" fill="#E7A601"/>
<path fill-rule="evenodd" clip-rule="evenodd" d="M93.2479 106.456C95.4022 109.025 99.2722 109.368 101.846 107.217L112.064 98.6712C114.638 96.5204 114.981 92.6566 112.827 90.087C110.673 87.5175 106.803 87.1749 104.229 89.3257L94.0105 97.8717C91.4368 100.023 91.0937 103.886 93.2479 106.456Z" fill="#CD7900"/>
<path fill-rule="evenodd" clip-rule="evenodd" d="M129.489 86.3196L129.279 85.9104C127.802 83.1125 124.304 82.0181 121.501 83.4932L106.107 91.5634C103.304 93.0385 102.208 96.5311 103.686 99.3291L103.895 99.7383C105.373 102.536 108.871 103.631 111.674 102.156L127.068 94.0853C129.87 92.6102 130.957 89.1176 129.489 86.3196Z" fill="#D98B75"/>
<path fill-rule="evenodd" clip-rule="evenodd" d="M115.647 93.1902C114.083 90.2209 110.375 89.0694 107.401 90.6302L95.0001 97.1301C92.0261 98.6908 90.8727 102.393 92.436 105.362C93.9992 108.331 97.7072 109.483 100.681 107.922L113.083 101.422C116.047 99.8614 117.2 96.1499 115.647 93.1902Z" fill="#CD7900"/>
<path fill-rule="evenodd" clip-rule="evenodd" d="M113.894 102.183L107.908 90.515C107.374 89.5158 107.775 88.2596 108.814 87.7647L116.163 84.0151C117.164 83.4822 118.422 83.8819 118.918 84.9192L124.904 96.5867C125.438 97.586 125.037 98.8422 124.008 99.3371L116.649 103.087C115.61 103.582 114.39 103.22 113.894 102.183Z" fill="#E7A601"/>
<path fill-rule="evenodd" clip-rule="evenodd" d="M167.073 106.456C164.919 109.025 161.049 109.368 158.475 107.217L148.257 98.6712C145.683 96.5204 145.34 92.6566 147.494 90.087C149.648 87.5175 153.518 87.1749 156.092 89.3257L166.31 97.8717C168.894 100.023 169.227 103.886 167.073 106.456Z" fill="#CD7900"/>
<path fill-rule="evenodd" clip-rule="evenodd" d="M122.319 74.6507C124.493 73.9941 126.809 75.2313 127.467 77.4011L130.565 87.6126C131.222 89.7824 129.983 92.0949 127.81 92.7516C125.636 93.4083 123.32 92.1711 122.662 90.0013L119.555 79.7803C118.907 77.62 120.146 75.3074 122.319 74.6507Z" fill="#D98B75"/>
<path fill-rule="evenodd" clip-rule="evenodd" d="M137.752 74.6507C135.578 73.9941 133.262 75.2313 132.604 77.4011L129.497 87.6221C128.839 89.7919 130.078 92.1045 132.252 92.7611C134.425 93.4178 136.741 92.1806 137.399 90.0108L140.506 79.7898C141.164 77.62 139.925 75.3074 137.752 74.6507Z" fill="#D98B75"/>
<path fill-rule="evenodd" clip-rule="evenodd" d="M130.744 86.3196L130.954 85.9104C132.431 83.1125 135.929 82.0181 138.732 83.4932L154.126 91.5634C156.929 93.0385 158.025 96.5311 156.547 99.3291L156.338 99.7383C154.86 102.536 151.362 103.631 148.559 102.156L133.165 94.0853C130.363 92.6102 129.276 89.1176 130.744 86.3196Z" fill="#D98B75"/>
<path fill-rule="evenodd" clip-rule="evenodd" d="M144.596 93.1902C146.159 90.2209 149.867 89.0694 152.841 90.6302L165.243 97.1301C168.217 98.6908 169.37 102.393 167.807 105.362C166.244 108.331 162.536 109.483 159.562 107.922L147.16 101.422C144.186 99.8614 143.033 96.1499 144.596 93.1902Z" fill="#CD7900"/>
<path fill-rule="evenodd" clip-rule="evenodd" d="M146.34 102.183L152.326 90.515C152.86 89.5158 152.459 88.2596 151.42 87.7647L144.071 84.0151C143.07 83.4822 141.812 83.8819 141.316 84.9192L135.33 96.5867C134.796 97.586 135.197 98.8422 136.226 99.3371L143.575 103.087C144.624 103.582 145.844 103.22 146.34 102.183Z" fill="#E7A601"/>
<path d="M158.441 134.34V128.316C158.441 128.059 158.47 127.802 158.518 127.554C158.565 127.297 158.642 127.059 158.737 126.822C158.832 126.584 158.956 126.355 159.099 126.146C159.242 125.936 159.404 125.737 159.585 125.546C159.766 125.365 159.967 125.204 160.186 125.061C160.405 124.918 160.624 124.794 160.863 124.699C161.101 124.604 161.349 124.528 161.597 124.48C161.854 124.433 162.102 124.404 162.359 124.404H186.104C186.361 124.404 186.618 124.433 186.866 124.48C187.123 124.528 187.362 124.604 187.6 124.699C187.838 124.794 188.067 124.918 188.277 125.061C188.496 125.204 188.687 125.365 188.877 125.546C189.059 125.727 189.221 125.927 189.364 126.146C189.507 126.365 189.63 126.584 189.726 126.822C189.821 127.059 189.897 127.307 189.945 127.554C189.993 127.811 190.021 128.059 190.021 128.316V134.34C190.021 134.597 189.993 134.854 189.945 135.101C189.897 135.358 189.821 135.596 189.726 135.834C189.63 136.072 189.507 136.3 189.364 136.51C189.221 136.728 189.059 136.919 188.877 137.109C188.696 137.29 188.496 137.452 188.277 137.595C188.058 137.737 187.838 137.861 187.6 137.956C187.362 138.051 187.114 138.127 186.866 138.175C186.609 138.223 186.361 138.251 186.104 138.251H162.359C162.102 138.251 161.844 138.223 161.597 138.175C161.339 138.127 161.101 138.051 160.863 137.956C160.624 137.861 160.395 137.737 160.186 137.595C159.967 137.452 159.776 137.29 159.585 137.109C159.404 136.928 159.242 136.728 159.099 136.51C158.956 136.291 158.832 136.072 158.737 135.834C158.642 135.596 158.565 135.349 158.518 135.101C158.46 134.854 158.441 134.597 158.441 134.34Z" fill="#777777"/>
<path d="M158.411 179.507L154.807 178.584C152.748 178.051 151.5 175.947 152.034 173.892L162.252 134.283C162.786 132.228 164.892 130.981 166.951 131.514L170.554 132.437C172.613 132.97 173.862 135.073 173.328 137.129L163.11 176.737C162.576 178.793 160.46 180.04 158.411 179.507Z" fill="#777777"/>
<path d="M186.95 179.393L183.242 179.764C181.126 179.973 179.229 178.422 179.01 176.319L174.902 135.625C174.692 133.513 176.246 131.619 178.352 131.4L182.06 131.029C184.177 130.819 186.073 132.371 186.293 134.474L190.401 175.167C190.611 177.28 189.057 179.174 186.95 179.393Z" fill="#777777"/>
<path d="M169.836 91.383L184.954 92.525C192.732 93.1151 198.566 99.891 197.975 107.657L196.736 124.035C196.402 128.441 192.551 131.744 188.138 131.41L160.829 129.345C156.415 129.012 153.108 125.167 153.441 120.761L154.68 104.383C155.271 96.6077 162.058 90.793 169.836 91.383Z" fill="#F0F0F0"/>
<path d="M193.733 131.991L182.237 131.125C180.817 131.02 179.749 129.783 179.864 128.365L182.418 94.7421C182.523 93.3241 183.762 92.2677 185.183 92.3724C192.951 92.9624 198.766 99.7288 198.185 107.485L196.507 129.63C196.393 131.039 195.153 132.105 193.733 131.991Z" fill="#4B4B4B"/>
<path d="M178.17 85.6727C180.257 85.8345 181.83 87.5 181.687 89.4033L181.315 94.3235C181.172 96.2268 179.361 97.6353 177.274 97.4735C175.186 97.3117 173.604 95.6463 173.756 93.7429L174.128 88.8228C174.271 86.929 176.082 85.511 178.17 85.6727Z" fill="#EBA792"/>
<path d="M155.356 54.0301L155.604 50.7658C155.633 50.4422 155.671 50.1092 155.728 49.7856C155.785 49.462 155.862 49.1385 155.947 48.8244C156.033 48.5103 156.138 48.1963 156.262 47.8918C156.386 47.5872 156.519 47.2827 156.662 46.9972C156.815 46.7022 156.977 46.4167 157.148 46.1407C157.33 45.8647 157.511 45.5982 157.72 45.3413C157.921 45.0843 158.14 44.8369 158.369 44.599C158.597 44.361 158.836 44.1326 159.083 43.9233C159.331 43.7139 159.589 43.5045 159.865 43.3237C160.132 43.1334 160.408 42.9621 160.694 42.8003C160.98 42.6385 161.276 42.4958 161.571 42.3625C161.876 42.2293 162.181 42.1151 162.496 42.0104C162.81 41.9057 163.125 41.8201 163.449 41.7535C163.773 41.6868 164.097 41.6297 164.421 41.5917C164.746 41.5536 165.079 41.5251 165.403 41.5251C165.727 41.5155 166.061 41.5251 166.385 41.5536L176.518 42.3245C176.842 42.353 177.175 42.3911 177.499 42.4482C177.824 42.5053 178.148 42.5814 178.462 42.6671C178.777 42.7527 179.091 42.8574 179.396 42.9811C179.701 43.0953 180.006 43.2381 180.292 43.3808C180.588 43.5331 180.874 43.6949 181.15 43.8662C181.427 44.047 181.694 44.2278 181.951 44.4372C182.208 44.6465 182.456 44.8559 182.694 45.0843C182.933 45.3127 183.162 45.5506 183.371 45.7981C183.581 46.0455 183.791 46.3025 183.972 46.5784C184.162 46.8449 184.334 47.1209 184.496 47.4064C184.658 47.6919 184.801 47.9869 184.934 48.2819C185.068 48.5865 185.182 48.891 185.287 49.2051C185.392 49.5191 185.478 49.8332 185.545 50.1567C185.611 50.4803 185.668 50.8039 185.707 51.1275C185.745 51.451 185.773 51.7841 185.773 52.1077C185.773 52.4313 185.773 52.7643 185.745 53.0879L185.497 56.3522C185.468 56.6757 185.43 57.0088 185.373 57.3324C185.316 57.6559 185.24 57.9795 185.154 58.2936C185.068 58.6076 184.963 58.9217 184.839 59.2262C184.725 59.5307 184.582 59.8353 184.439 60.1208C184.286 60.4158 184.124 60.7013 183.953 60.9773C183.772 61.2533 183.59 61.5197 183.381 61.7767C183.181 62.0337 182.961 62.2811 182.733 62.519C182.504 62.7569 182.266 62.9853 182.018 63.1947C181.77 63.4041 181.512 63.6134 181.236 63.7943C180.969 63.9846 180.693 64.1559 180.407 64.3177C180.121 64.4795 179.825 64.6222 179.53 64.7554C179.225 64.8887 178.92 65.0029 178.605 65.1076C178.291 65.2122 177.976 65.2979 177.652 65.3645C177.328 65.4311 177.004 65.4882 176.68 65.5263C176.356 65.5644 176.022 65.5929 175.698 65.5929C175.374 65.6024 175.04 65.5929 174.716 65.5644L164.583 64.7935C164.259 64.765 163.926 64.7269 163.602 64.6698C163.278 64.6127 162.953 64.5366 162.639 64.4509C162.324 64.3653 162.01 64.2606 161.705 64.1369C161.4 64.0227 161.095 63.8799 160.809 63.7372C160.513 63.5849 160.227 63.4231 159.951 63.2518C159.674 63.0805 159.408 62.8902 159.15 62.6808C158.893 62.4809 158.645 62.2621 158.407 62.0337C158.168 61.8053 157.94 61.5673 157.73 61.3199C157.52 61.0725 157.31 60.8155 157.129 60.5395C156.939 60.2731 156.767 59.9971 156.605 59.7116C156.443 59.4261 156.3 59.131 156.167 58.836C156.033 58.5315 155.919 58.227 155.814 57.9129C155.709 57.5988 155.623 57.2848 155.557 56.9612C155.49 56.6377 155.433 56.3141 155.395 55.9905C155.356 55.6669 155.328 55.3339 155.328 55.0103C155.318 54.6867 155.328 54.3632 155.356 54.0301Z" fill="#3D3D3D"/>
<path d="M172.907 61.5476L173.155 58.2834C173.184 57.9598 173.222 57.6267 173.279 57.3032C173.336 56.9796 173.412 56.656 173.498 56.342C173.584 56.0279 173.689 55.7139 173.813 55.4093C173.927 55.1048 174.07 54.8003 174.213 54.5148C174.366 54.2197 174.528 53.9342 174.699 53.6583C174.88 53.3823 175.061 53.1158 175.271 52.8589C175.471 52.6019 175.691 52.3545 175.919 52.1165C176.148 51.8786 176.386 51.6502 176.634 51.4409C176.882 51.2315 177.139 51.0221 177.416 50.8413C177.683 50.651 177.959 50.4797 178.245 50.3179C178.531 50.1561 178.827 50.0133 179.122 49.8801C179.418 49.7469 179.732 49.6327 180.047 49.528C180.361 49.4233 180.676 49.3377 181 49.271C181.324 49.2044 181.648 49.1473 181.972 49.1092C182.296 49.0712 182.63 49.0426 182.954 49.0426C183.278 49.0331 183.612 49.0426 183.936 49.0712L194.421 49.8611C194.745 49.8896 195.079 49.9277 195.403 49.9848C195.727 50.0419 196.051 50.118 196.366 50.2037C196.68 50.2893 196.995 50.394 197.3 50.5177C197.605 50.6319 197.91 50.7747 198.196 50.9174C198.491 51.0697 198.777 51.2315 199.054 51.4028C199.33 51.5836 199.597 51.7644 199.854 51.9738C200.112 52.1736 200.36 52.3925 200.598 52.6209C200.836 52.8493 201.065 53.0873 201.275 53.3347C201.484 53.5821 201.694 53.8391 201.875 54.1151C202.066 54.3815 202.237 54.6575 202.399 54.943C202.562 55.2285 202.705 55.5235 202.838 55.8186C202.971 56.1231 203.086 56.4276 203.191 56.7417C203.296 57.0557 203.381 57.3698 203.448 57.6934C203.515 58.0169 203.572 58.3405 203.61 58.6641C203.648 58.9876 203.677 59.3207 203.677 59.6443C203.686 59.9679 203.677 60.3009 203.648 60.6245L203.4 63.8888C203.372 64.2123 203.334 64.5454 203.276 64.869C203.219 65.1926 203.143 65.5161 203.057 65.8302C202.971 66.1442 202.867 66.4583 202.743 66.7628C202.628 67.0674 202.485 67.3719 202.342 67.6574C202.19 67.9524 202.028 68.2379 201.856 68.5139C201.675 68.7899 201.494 69.0564 201.284 69.3133C201.084 69.5703 200.865 69.8177 200.636 70.0556C200.407 70.2935 200.169 70.5219 199.921 70.7313C199.673 70.9407 199.416 71.15 199.14 71.3309C198.873 71.5212 198.596 71.6925 198.31 71.8543C198.024 72.0161 197.729 72.1588 197.433 72.2921C197.128 72.4253 196.823 72.5395 196.509 72.6442C196.194 72.7489 195.88 72.8345 195.555 72.9011C195.231 72.9677 194.907 73.0248 194.583 73.0629C194.259 73.101 193.925 73.1295 193.601 73.1295C193.277 73.139 192.944 73.1295 192.62 73.101L182.134 72.3111C181.81 72.2825 181.477 72.2445 181.152 72.1874C180.828 72.1303 180.504 72.0541 180.19 71.9685C179.875 71.8828 179.561 71.7782 179.256 71.6544C178.951 71.5402 178.645 71.3975 178.36 71.2547C178.064 71.1025 177.778 70.9407 177.502 70.7694C177.225 70.5886 176.958 70.4077 176.701 70.1984C176.444 69.9985 176.196 69.7796 175.957 69.5512C175.719 69.3228 175.49 69.0849 175.281 68.8375C175.071 68.59 174.861 68.3331 174.68 68.0571C174.489 67.7906 174.318 67.5146 174.156 67.2291C173.994 66.9436 173.851 66.6486 173.717 66.3536C173.584 66.0491 173.47 65.7445 173.365 65.4305C173.26 65.1164 173.174 64.8024 173.107 64.4788C173.041 64.1552 172.983 63.8317 172.945 63.5081C172.907 63.1845 172.879 62.8514 172.879 62.5279C172.869 62.2043 172.879 61.8807 172.907 61.5476Z" fill="#4C4C4C"/>
<path d="M157.477 47.0519C157.506 46.6713 157.554 46.2906 157.62 45.9194C157.687 45.5388 157.773 45.1676 157.878 44.806C157.983 44.4443 158.097 44.0732 158.24 43.7211C158.383 43.3689 158.536 43.0168 158.707 42.6742C158.879 42.3316 159.069 41.9985 159.27 41.6845C159.479 41.3609 159.698 41.0469 159.927 40.7518C160.166 40.4473 160.413 40.1618 160.68 39.8858C160.947 39.6098 161.224 39.3434 161.51 39.0959C161.796 38.8485 162.101 38.6106 162.415 38.3917C162.73 38.1728 163.054 37.9729 163.387 37.7826C163.721 37.5923 164.064 37.421 164.407 37.2687C164.76 37.1164 165.113 36.9737 165.475 36.8595C165.837 36.7358 166.209 36.6406 166.581 36.5549C166.952 36.4693 167.334 36.4122 167.705 36.3646C168.087 36.317 168.468 36.2885 168.849 36.279C169.231 36.2694 169.612 36.279 169.993 36.3075L194.986 38.2013C195.368 38.2299 195.749 38.2775 196.121 38.3441C196.502 38.4107 196.874 38.4964 197.236 38.601C197.608 38.7057 197.97 38.8199 198.323 38.9627C198.675 39.1054 199.028 39.2577 199.371 39.429C199.714 39.6003 200.048 39.7906 200.362 39.9905C200.677 40.1903 201.001 40.4187 201.297 40.6471C201.602 40.8851 201.888 41.1325 202.164 41.399C202.44 41.6654 202.707 41.9414 202.955 42.2269C203.203 42.5124 203.441 42.817 203.661 43.131C203.88 43.4451 204.08 43.7686 204.271 44.1017C204.461 44.4348 204.633 44.7774 204.785 45.12C204.938 45.4626 205.081 45.8243 205.195 46.1859C205.319 46.5475 205.414 46.9187 205.5 47.2898C205.586 47.661 205.643 48.0417 205.691 48.4128C205.739 48.7935 205.767 49.1742 205.777 49.5548C205.786 49.9355 205.777 50.3162 205.748 50.6968C205.719 51.0775 205.672 51.4582 205.605 51.8293C205.538 52.21 205.453 52.5812 205.348 52.9428C205.243 53.3139 205.128 53.6756 204.985 54.0277C204.843 54.3798 204.69 54.7319 204.518 55.0745C204.347 55.4171 204.156 55.7502 203.956 56.0643C203.746 56.3879 203.527 56.7019 203.298 56.9969C203.06 57.3015 202.812 57.587 202.545 57.863C202.278 58.1389 202.002 58.4054 201.716 58.6528C201.43 58.9003 201.125 59.1382 200.81 59.3571C200.496 59.576 200.172 59.7758 199.838 59.9662C199.505 60.1565 199.161 60.3278 198.818 60.4801C198.466 60.6323 198.113 60.7751 197.751 60.8893C197.388 61.013 197.017 61.1082 196.645 61.1938C196.273 61.2795 195.892 61.3366 195.52 61.3841C195.139 61.4317 194.758 61.4603 194.376 61.4698C193.995 61.4793 193.614 61.4698 193.232 61.4413L168.239 59.5474C167.858 59.5189 167.477 59.4713 167.105 59.4047C166.724 59.338 166.352 59.2524 165.99 59.1477C165.627 59.043 165.256 58.9288 164.903 58.7861C164.55 58.6433 164.198 58.4911 163.854 58.3198C163.511 58.1485 163.178 57.9581 162.863 57.7583C162.539 57.5489 162.224 57.33 161.929 57.1016C161.633 56.8732 161.338 56.6163 161.062 56.3498C160.785 56.0833 160.518 55.8073 160.27 55.5218C160.023 55.2363 159.784 54.9318 159.565 54.6177C159.346 54.3037 159.146 53.9801 158.955 53.647C158.764 53.3139 158.593 52.9713 158.44 52.6287C158.288 52.2766 158.145 51.9245 158.03 51.5629C157.906 51.2012 157.811 50.8301 157.725 50.4589C157.64 50.0878 157.582 49.7071 157.535 49.3359C157.487 48.9553 157.458 48.5746 157.449 48.1939C157.439 47.8133 157.449 47.4326 157.477 47.0519Z" fill="#3D3D3D"/>
<path d="M200.493 61.9941C200.931 62.0227 201.36 62.1083 201.789 62.232C202.209 62.3557 202.618 62.527 203.009 62.7364C203.4 62.9458 203.772 63.1932 204.115 63.4882C204.458 63.7737 204.773 64.0973 205.059 64.4589C205.345 64.8111 205.592 65.2012 205.802 65.6105C206.012 66.0197 206.193 66.4479 206.326 66.8952C206.46 67.3425 206.555 67.7993 206.603 68.2752C206.651 68.751 206.66 69.2173 206.622 69.6836C206.584 70.15 206.508 70.6163 206.384 71.0731C206.26 71.5299 206.098 71.9677 205.897 72.3959C205.697 72.8147 205.459 73.2144 205.183 73.595C204.906 73.9662 204.601 74.3088 204.267 74.6228C203.934 74.9369 203.572 75.2034 203.19 75.4413C202.809 75.6792 202.409 75.8695 201.989 76.0218C201.57 76.1741 201.141 76.2787 200.702 76.3358C200.264 76.3929 199.826 76.412 199.387 76.3739C198.949 76.3454 198.52 76.2597 198.091 76.136C197.671 76.0123 197.261 75.841 196.871 75.6316C196.48 75.4222 196.108 75.1748 195.765 74.8798C195.422 74.5943 195.107 74.2707 194.821 73.9091C194.535 73.557 194.287 73.1668 194.078 72.7576C193.868 72.3483 193.687 71.9201 193.553 71.4728C193.42 71.0255 193.325 70.5687 193.277 70.0929C193.229 69.617 193.22 69.1507 193.258 68.6844C193.296 68.2181 193.372 67.7517 193.496 67.2949C193.62 66.8381 193.782 66.4004 193.982 65.9721C194.183 65.5534 194.421 65.1537 194.697 64.773C194.974 64.4018 195.279 64.0592 195.612 63.7452C195.946 63.4311 196.308 63.1647 196.689 62.9267C197.071 62.6888 197.471 62.4985 197.891 62.3462C198.31 62.194 198.739 62.0893 199.177 62.0322C199.616 61.9751 200.054 61.9656 200.493 61.9941Z" fill="#D98B75"/>
<path d="M159.239 58.873C159.677 58.9016 160.106 58.9872 160.535 59.1109C160.955 59.2346 161.365 59.4059 161.755 59.6153C162.146 59.8247 162.518 60.0721 162.861 60.3671C163.204 60.6622 163.519 60.9762 163.805 61.3379C164.091 61.69 164.339 62.0802 164.548 62.4894C164.758 62.8986 164.939 63.3268 165.073 63.7741C165.206 64.2214 165.301 64.6782 165.349 65.1541C165.397 65.6299 165.406 66.0962 165.368 66.5625C165.33 67.0289 165.254 67.4952 165.13 67.952C165.006 68.4088 164.844 68.8466 164.644 69.2748C164.443 69.6936 164.205 70.0933 163.929 70.4739C163.652 70.8451 163.347 71.1877 163.014 71.5017C162.68 71.8158 162.318 72.0823 161.936 72.3202C161.555 72.5581 161.155 72.7484 160.735 72.9007C160.316 73.053 159.887 73.1577 159.449 73.2148C159.01 73.2719 158.572 73.2909 158.133 73.2528C157.695 73.2243 157.266 73.1386 156.837 73.0149C156.417 72.8912 156.007 72.7199 155.617 72.5105C155.226 72.3011 154.854 72.0537 154.511 71.7587C154.168 71.4732 153.853 71.1496 153.567 70.788C153.281 70.4359 153.033 70.0457 152.824 69.6365C152.614 69.2272 152.433 68.799 152.299 68.3517C152.166 67.9044 152.071 67.4476 152.023 66.9718C151.975 66.5054 151.966 66.0296 152.004 65.5633C152.042 65.097 152.118 64.6306 152.242 64.1738C152.366 63.717 152.528 63.2793 152.728 62.851C152.929 62.4323 153.167 62.0326 153.443 61.6519C153.72 61.2807 154.025 60.9381 154.358 60.6241C154.692 60.31 155.054 60.0436 155.436 59.8057C155.817 59.5677 156.217 59.3774 156.637 59.2251C157.056 59.0729 157.485 58.9682 157.923 58.9111C158.362 58.854 158.8 58.8445 159.239 58.873Z" fill="#D98B75"/>
<path d="M158.704 74.823L159.848 59.8151C159.895 59.2251 159.962 58.6446 160.067 58.064C160.172 57.4835 160.296 56.9125 160.458 56.3415C160.62 55.7705 160.801 55.2185 161.02 54.6666C161.23 54.1146 161.478 53.5817 161.745 53.0582C162.012 52.5348 162.307 52.0209 162.622 51.526C162.936 51.0312 163.279 50.5458 163.642 50.089C164.004 49.6227 164.395 49.1849 164.795 48.7567C165.205 48.3284 165.634 47.9287 166.082 47.5385C166.53 47.1483 166.997 46.7962 167.473 46.4536C167.96 46.111 168.455 45.797 168.97 45.5114C169.485 45.2259 170.009 44.9595 170.552 44.7216C171.096 44.4836 171.639 44.2743 172.201 44.0935C172.764 43.9126 173.326 43.7508 173.908 43.6271C174.48 43.5034 175.061 43.3987 175.652 43.3321C176.233 43.2655 176.824 43.2179 177.415 43.2084C178.006 43.1989 178.597 43.2084 179.179 43.256L183.135 43.551C183.726 43.5986 184.307 43.6652 184.889 43.7699C185.47 43.8746 186.042 43.9983 186.614 44.1601C187.186 44.3219 187.739 44.5027 188.292 44.7216C188.844 44.9309 189.378 45.1784 189.902 45.4448C190.427 45.7113 190.941 46.0063 191.437 46.3204C191.933 46.6344 192.419 46.977 192.876 47.3387C193.344 47.7003 193.782 48.0905 194.211 48.4902C194.64 48.8994 195.04 49.3277 195.431 49.775C195.812 50.2222 196.175 50.6886 196.518 51.1644C196.861 51.6498 197.175 52.1446 197.461 52.6585C197.747 53.1724 198.014 53.6959 198.253 54.2383C198.491 54.7808 198.701 55.3232 198.882 55.8847C199.063 56.4462 199.225 57.0077 199.349 57.5882C199.473 58.1592 199.578 58.7397 199.644 59.3298C199.711 59.9103 199.759 60.5003 199.768 61.0904C199.778 61.6804 199.768 62.2704 199.721 62.851L198.577 77.8589C198.548 78.2586 198.5 78.6583 198.424 79.058C198.348 79.4577 198.262 79.8479 198.157 80.2381C198.052 80.6283 197.919 81.0089 197.776 81.3896C197.633 81.7703 197.461 82.1319 197.28 82.4935C197.099 82.8552 196.899 83.2073 196.68 83.5499C196.461 83.8925 196.232 84.2161 195.984 84.5396C195.736 84.8632 195.469 85.1582 195.193 85.4533C194.916 85.7483 194.621 86.0243 194.316 86.2812C194.011 86.5477 193.687 86.7951 193.363 87.0235C193.029 87.2519 192.686 87.4708 192.333 87.6707C191.98 87.8705 191.618 88.0513 191.247 88.2131C190.875 88.3749 190.503 88.5176 190.112 88.6509C189.731 88.7746 189.34 88.8793 188.94 88.9744C188.539 89.0696 188.149 89.1267 187.748 89.1743C187.348 89.2219 186.948 89.2504 186.538 89.26C186.137 89.2695 185.727 89.26 185.327 89.2314L170.076 88.0799C169.675 88.0513 169.275 88.0037 168.875 87.9276C168.474 87.861 168.083 87.7658 167.693 87.6611C167.302 87.5565 166.921 87.4232 166.539 87.2805C166.158 87.1377 165.796 86.9664 165.434 86.7856C165.071 86.6048 164.719 86.4049 164.376 86.186C164.032 85.9672 163.708 85.7388 163.384 85.4913C163.07 85.2439 162.765 84.9774 162.469 84.7014C162.174 84.4254 161.897 84.1304 161.64 83.8259C161.373 83.5214 161.125 83.1978 160.896 82.8742C160.668 82.5411 160.448 82.1985 160.248 81.8464C160.048 81.4943 159.867 81.1326 159.705 80.7615C159.543 80.3903 159.4 80.0192 159.266 79.629C159.142 79.2483 159.038 78.8581 158.942 78.4584C158.856 78.0683 158.79 77.6685 158.742 77.2688C158.694 76.8691 158.666 76.4694 158.656 76.0602C158.666 75.632 158.675 75.2323 158.704 74.823Z" fill="#EBA792"/>
<path d="M156.833 41.4953C156.862 41.1146 156.909 40.7339 156.976 40.3628C157.043 39.9821 157.128 39.611 157.233 39.2493C157.338 38.8877 157.453 38.5165 157.596 38.1644C157.739 37.8123 157.891 37.4602 158.063 37.1176C158.234 36.775 158.425 36.4419 158.625 36.1278C158.835 35.8043 159.054 35.4902 159.283 35.1952C159.521 34.8907 159.769 34.6052 160.036 34.3292C160.303 34.0532 160.579 33.7867 160.865 33.5393C161.151 33.2918 161.456 33.0539 161.771 32.835C162.085 32.6162 162.409 32.4163 162.743 32.226C163.076 32.0356 163.42 31.8643 163.763 31.7121C164.115 31.5598 164.468 31.417 164.83 31.3028C165.193 31.1791 165.564 31.084 165.936 30.9983C166.308 30.9127 166.689 30.8556 167.061 30.808C167.442 30.7604 167.823 30.7318 168.205 30.7223C168.586 30.7128 168.967 30.7223 169.349 30.7509L175.687 31.2267C176.069 31.2553 176.45 31.3028 176.822 31.3695C177.203 31.4361 177.575 31.5217 177.937 31.6264C178.309 31.7311 178.671 31.8453 179.024 31.988C179.376 32.1308 179.729 32.2831 180.072 32.4544C180.415 32.6257 180.749 32.816 181.064 33.0159C181.388 33.2252 181.702 33.4441 181.998 33.6725C182.303 33.9104 182.589 34.1579 182.865 34.4243C183.142 34.6908 183.408 34.9668 183.656 35.2523C183.904 35.5378 184.142 35.8423 184.362 36.1564C184.581 36.4704 184.781 36.794 184.972 37.1271C185.162 37.4602 185.334 37.8028 185.486 38.1454C185.639 38.4975 185.782 38.8496 185.896 39.2113C186.02 39.5729 186.116 39.9441 186.201 40.3152C186.287 40.6864 186.344 41.067 186.392 41.4382C186.44 41.8188 186.468 42.1995 186.478 42.5802C186.487 42.9609 186.478 43.3415 186.449 43.7222C186.421 44.1029 186.373 44.4835 186.306 44.8547C186.239 45.2354 186.154 45.6065 186.049 45.9682C185.944 46.3393 185.83 46.7009 185.687 47.0531C185.544 47.4052 185.391 47.7573 185.22 48.0999C185.048 48.4425 184.857 48.7756 184.657 49.0896C184.447 49.4132 184.228 49.7273 183.999 50.0223C183.771 50.3173 183.513 50.6123 183.246 50.8883C182.98 51.1643 182.703 51.4308 182.417 51.6782C182.131 51.9256 181.826 52.1636 181.512 52.3824C181.197 52.6013 180.873 52.8012 180.539 52.9915C180.206 53.1819 179.863 53.3532 179.519 53.5054C179.167 53.6577 178.814 53.8004 178.452 53.9146C178.09 54.0384 177.718 54.1335 177.346 54.2192C176.974 54.3048 176.593 54.3619 176.221 54.4095C175.84 54.4571 175.459 54.4856 175.077 54.4952C174.696 54.5047 174.315 54.4952 173.934 54.4666L167.595 53.9908C167.213 53.9622 166.832 53.9146 166.46 53.848C166.079 53.7814 165.707 53.6958 165.345 53.5911C164.973 53.4864 164.611 53.3722 164.258 53.2294C163.906 53.0867 163.553 52.9344 163.21 52.7631C162.867 52.5918 162.533 52.4015 162.219 52.2016C161.895 51.9923 161.58 51.7734 161.284 51.545C160.979 51.3071 160.693 51.0596 160.417 50.7931C160.141 50.5267 159.874 50.2507 159.626 49.9652C159.378 49.6797 159.14 49.3752 158.92 49.0611C158.701 48.747 158.501 48.4235 158.31 48.0904C158.12 47.7573 157.948 47.4147 157.796 47.0721C157.643 46.72 157.5 46.3679 157.386 46.0062C157.262 45.6446 157.167 45.2734 157.081 44.9023C156.995 44.5311 156.938 44.1505 156.89 43.7793C156.842 43.3986 156.814 43.018 156.804 42.6373C156.795 42.2566 156.804 41.876 156.833 41.4953Z" fill="#3D3D3D"/>
<path d="M175.08 67.599L175.681 59.6715C175.691 59.5288 175.719 59.3955 175.757 59.2623C175.795 59.1291 175.843 58.9958 175.91 58.8721C175.977 58.7484 176.043 58.6342 176.139 58.52C176.224 58.4058 176.32 58.3106 176.425 58.2155C176.529 58.1203 176.644 58.0442 176.768 57.9775C176.892 57.9109 177.015 57.8538 177.149 57.8062C177.282 57.7587 177.416 57.7301 177.559 57.7111C177.702 57.692 177.835 57.692 177.978 57.7016L182.163 58.0156C182.306 58.0251 182.439 58.0537 182.573 58.0918C182.706 58.1298 182.84 58.1774 182.964 58.244C183.087 58.3106 183.202 58.3773 183.316 58.4724C183.431 58.5581 183.526 58.6532 183.621 58.7579C183.717 58.8626 183.793 58.9768 183.86 59.1005C183.926 59.2242 183.983 59.348 184.031 59.4812C184.079 59.6144 184.107 59.7477 184.126 59.8904C184.146 60.0332 184.146 60.1664 184.136 60.3092L183.535 68.2366C183.526 68.3794 183.497 68.5126 183.459 68.6458C183.421 68.7791 183.373 68.9123 183.307 69.036C183.24 69.1597 183.173 69.2739 183.078 69.3881C182.992 69.5023 182.897 69.5975 182.792 69.6927C182.687 69.7878 182.573 69.864 182.449 69.9306C182.325 69.9972 182.201 70.0543 182.068 70.1019C181.934 70.1495 181.801 70.178 181.658 70.1971C181.515 70.2161 181.381 70.2161 181.238 70.2066L177.054 69.8925C176.911 69.883 176.777 69.8545 176.644 69.8164C176.51 69.7783 176.377 69.7307 176.253 69.6641C176.129 69.5975 176.015 69.5309 175.9 69.4357C175.786 69.3501 175.691 69.2549 175.595 69.1502C175.5 69.0455 175.424 68.9313 175.357 68.8076C175.29 68.6839 175.233 68.5602 175.185 68.4269C175.138 68.2937 175.109 68.1605 175.09 68.0177C175.071 67.875 175.071 67.7417 175.08 67.599Z" fill="#DF8E70"/>
<path d="M168.502 75.3545C167.634 74.5931 167.11 73.4606 167.206 72.233L167.263 71.4336C167.339 70.4153 167.825 69.5207 168.53 68.8926C167.711 68.9973 166.9 69.3303 166.224 69.9109C164.413 71.4716 164.212 74.2029 165.776 76.0111C166.128 76.4108 166.529 76.8295 166.967 77.2483C167.263 76.4584 167.806 75.8017 168.502 75.3545Z" fill="#AE1F23"/>
<path d="M192.656 71.9875C191.951 71.1215 190.978 70.6171 189.959 70.4648C190.597 71.1976 190.959 72.1779 190.874 73.2247L190.816 74.0241C190.721 75.2518 190.035 76.2986 189.062 76.9172C189.758 77.5263 190.235 78.3828 190.34 79.3345C190.902 78.9538 191.465 78.535 192.027 78.0687C193.895 76.5651 194.172 73.8433 192.656 71.9875Z" fill="#AE1F23"/>
<path d="M190.826 74.0232L190.883 73.2238C190.959 72.1769 190.607 71.1967 189.968 70.4639C188.796 70.2831 187.556 70.5591 186.565 71.368C179.225 77.335 173.42 71.5678 172.324 70.3402C171.342 69.2172 169.912 68.7318 168.53 68.8936C167.815 69.5217 167.339 70.4163 167.263 71.4346L167.205 72.234C167.11 73.4617 167.634 74.5942 168.502 75.3555C167.806 75.8028 167.272 76.4595 166.977 77.2493C169.607 79.7427 173.802 82.3123 178.777 82.6834C182.333 82.9499 186.279 82.1029 190.349 79.324C190.244 78.3723 189.768 77.5158 189.072 76.9067C190.044 76.2977 190.731 75.2508 190.826 74.0232Z" fill="white"/>
<path d="M161.764 66.0297L162.641 54.5334C162.651 54.3716 162.679 54.2098 162.727 54.0481C162.774 53.8863 162.832 53.734 162.908 53.5913C162.984 53.439 163.07 53.3058 163.175 53.1725C163.28 53.0393 163.394 52.9251 163.518 52.8109C163.642 52.7062 163.775 52.611 163.918 52.5254C164.061 52.4397 164.214 52.3731 164.366 52.3255C164.519 52.2779 164.681 52.2399 164.852 52.2208C165.015 52.2018 165.186 52.2018 165.348 52.2113L175.919 53.0107C176.081 53.0203 176.243 53.0488 176.405 53.0964C176.567 53.144 176.72 53.2011 176.863 53.2772C177.015 53.3533 177.149 53.439 177.282 53.5437C177.416 53.6484 177.53 53.7626 177.645 53.8863C177.749 54.01 177.845 54.1432 177.931 54.286C178.016 54.4287 178.083 54.581 178.131 54.7333C178.178 54.8951 178.216 55.0473 178.236 55.2186C178.255 55.3804 178.255 55.5517 178.245 55.7135L177.368 67.2097C177.359 67.3715 177.33 67.5333 177.282 67.6951C177.235 67.8569 177.177 68.0091 177.101 68.1519C177.025 68.3042 176.939 68.4374 176.834 68.5706C176.729 68.7039 176.615 68.8181 176.491 68.9323C176.367 69.0369 176.234 69.1321 176.091 69.2178C175.948 69.3034 175.795 69.37 175.643 69.4176C175.49 69.4652 175.328 69.5033 175.157 69.5223C174.995 69.5413 174.823 69.5413 174.661 69.5318L164.09 68.7324C163.928 68.7229 163.766 68.6943 163.604 68.6468C163.442 68.5992 163.289 68.5421 163.146 68.4659C162.994 68.3898 162.86 68.3042 162.727 68.1995C162.593 68.0948 162.479 67.9806 162.365 67.8569C162.26 67.7331 162.164 67.5999 162.079 67.4572C161.993 67.3144 161.926 67.1621 161.878 67.0099C161.831 66.8481 161.793 66.6958 161.774 66.5245C161.755 66.3532 161.755 66.1914 161.764 66.0297Z" fill="white"/>
<path d="M181.373 67.514L182.25 56.0178C182.26 55.856 182.289 55.6942 182.336 55.5324C182.384 55.3707 182.441 55.2184 182.517 55.0756C182.594 54.9234 182.679 54.7901 182.784 54.6569C182.889 54.5237 183.003 54.4095 183.127 54.2953C183.251 54.1906 183.385 54.0954 183.528 54.0098C183.671 53.9241 183.823 53.8575 183.976 53.8099C184.138 53.7623 184.29 53.7243 184.462 53.7052C184.624 53.6862 184.795 53.6862 184.958 53.6957L195.529 54.4951C195.691 54.5046 195.853 54.5332 196.015 54.5808C196.177 54.6283 196.329 54.6854 196.472 54.7616C196.625 54.8377 196.758 54.9234 196.892 55.0281C197.025 55.1327 197.14 55.2469 197.254 55.3707C197.359 55.4944 197.454 55.6276 197.54 55.7704C197.626 55.9131 197.692 56.0654 197.74 56.2176C197.788 56.3794 197.826 56.5317 197.845 56.703C197.864 56.8648 197.864 57.0361 197.854 57.1979L196.977 68.6941C196.968 68.8559 196.939 69.0177 196.892 69.1795C196.844 69.3412 196.787 69.4935 196.711 69.6363C196.634 69.779 196.549 69.9218 196.444 70.055C196.339 70.1882 196.224 70.3024 196.101 70.4166C195.977 70.5213 195.843 70.6165 195.7 70.7021C195.557 70.7878 195.405 70.8544 195.252 70.902C195.09 70.9496 194.938 70.9876 194.766 71.0067C194.604 71.0257 194.432 71.0257 194.27 71.0162L183.699 70.2168C183.537 70.2073 183.375 70.1787 183.213 70.1311C183.051 70.0835 182.899 70.0264 182.756 69.9503C182.603 69.8742 182.47 69.7885 182.336 69.6838C182.203 69.5792 182.088 69.465 181.974 69.3412C181.869 69.2175 181.774 69.0843 181.688 68.9415C181.602 68.7988 181.535 68.6465 181.488 68.4943C181.44 68.3325 181.402 68.1802 181.383 68.0089C181.364 67.8376 181.364 67.6758 181.373 67.514Z" fill="white"/>
<path d="M182.963 64.6588L183.163 62.0227C183.173 61.8894 183.192 61.7657 183.23 61.642C183.268 61.5183 183.316 61.3946 183.373 61.2804C183.43 61.1662 183.507 61.052 183.583 60.9473C183.659 60.8426 183.754 60.7474 183.85 60.6618C183.945 60.5761 184.059 60.5 184.174 60.4429C184.288 60.3763 184.403 60.3287 184.527 60.2811C184.65 60.243 184.774 60.2145 184.908 60.1955C185.041 60.1764 185.165 60.1764 185.299 60.1859L186.099 60.243C186.233 60.2526 186.357 60.2716 186.481 60.3097C186.605 60.3477 186.728 60.3953 186.843 60.4524C186.957 60.5095 187.072 60.5856 187.176 60.6618C187.281 60.7379 187.377 60.8331 187.462 60.9282C187.548 61.0234 187.624 61.1376 187.682 61.2518C187.748 61.366 187.796 61.4802 187.844 61.6039C187.882 61.7277 187.91 61.8514 187.93 61.9846C187.949 62.1178 187.949 62.2416 187.939 62.3748L187.739 65.0109C187.729 65.1442 187.71 65.2679 187.672 65.3916C187.634 65.5153 187.586 65.639 187.529 65.7532C187.472 65.8674 187.396 65.9816 187.319 66.0863C187.243 66.191 187.148 66.2862 187.053 66.3718C186.957 66.4575 186.843 66.5336 186.728 66.5907C186.614 66.6573 186.5 66.7049 186.376 66.7525C186.252 66.7906 186.128 66.8191 185.994 66.8381C185.861 66.8572 185.737 66.8572 185.604 66.8477L184.803 66.7906C184.67 66.781 184.546 66.762 184.422 66.7239C184.298 66.6859 184.174 66.6383 184.059 66.5812C183.945 66.5241 183.831 66.448 183.726 66.3718C183.621 66.2957 183.526 66.2005 183.44 66.1054C183.354 66.0102 183.278 65.896 183.221 65.7818C183.154 65.6676 183.106 65.5534 183.059 65.4297C183.02 65.306 182.992 65.1822 182.973 65.049C182.954 64.9158 182.954 64.792 182.963 64.6588Z" fill="#303030"/>
<path d="M171.26 64.0787L171.46 61.4426C171.47 61.3094 171.489 61.1856 171.527 61.0619C171.565 60.9382 171.613 60.8145 171.67 60.7003C171.727 60.5861 171.803 60.4719 171.88 60.3672C171.956 60.2625 172.051 60.1673 172.147 60.0817C172.242 59.996 172.356 59.9199 172.471 59.8628C172.585 59.7962 172.7 59.7486 172.823 59.701C172.947 59.663 173.071 59.6344 173.205 59.6154C173.338 59.5963 173.462 59.5963 173.596 59.6059L174.396 59.663C174.53 59.6725 174.654 59.6915 174.778 59.7296C174.901 59.7676 175.025 59.8152 175.14 59.8723C175.254 59.9294 175.369 60.0056 175.473 60.0817C175.578 60.1578 175.674 60.253 175.759 60.3482C175.845 60.4433 175.921 60.5575 175.979 60.6717C176.045 60.7859 176.093 60.9001 176.141 61.0239C176.179 61.1476 176.207 61.2713 176.226 61.4045C176.245 61.5378 176.245 61.6615 176.236 61.7947L176.036 64.4309C176.026 64.5641 176.007 64.6878 175.969 64.8115C175.931 64.9352 175.883 65.059 175.826 65.1732C175.769 65.2874 175.693 65.4016 175.616 65.5062C175.54 65.6109 175.445 65.7061 175.349 65.7917C175.254 65.8774 175.14 65.9535 175.025 66.0106C174.911 66.0773 174.797 66.1248 174.673 66.1724C174.549 66.2105 174.425 66.239 174.291 66.2581C174.158 66.2771 174.034 66.2771 173.901 66.2676L173.1 66.2105C172.966 66.201 172.842 66.1819 172.719 66.1439C172.595 66.1058 172.471 66.0582 172.356 66.0011C172.242 65.944 172.128 65.8679 172.023 65.7917C171.918 65.7156 171.823 65.6204 171.737 65.5253C171.651 65.4301 171.575 65.3159 171.518 65.2017C171.451 65.0875 171.403 64.9733 171.355 64.8496C171.317 64.7259 171.289 64.6022 171.27 64.4689C171.251 64.3357 171.251 64.212 171.26 64.0787Z" fill="#303030"/>
<path fill-rule="evenodd" clip-rule="evenodd" d="M186.901 107.809C187.006 107.457 186.968 107.076 186.777 106.762L185.728 104.963C185.433 104.449 185.538 103.802 185.995 103.421L186.958 102.603C187.482 102.165 187.654 101.432 187.377 100.804L184.337 93.8476C184.27 93.7049 184.156 93.5907 184.003 93.5431L183.202 93.2576C182.85 93.1339 182.478 93.3718 182.449 93.743L180.076 123.245C180.057 123.502 180.209 123.74 180.448 123.825L181.21 124.101C181.515 124.206 181.849 124.044 181.944 123.74L186.901 107.809Z" fill="#231F20"/>
<path d="M169.65 91.1936C171.07 91.2982 172.128 92.5354 172.023 93.9534L169.469 127.576C169.364 128.994 168.125 130.05 166.704 129.946L155.209 129.08C153.788 128.975 152.73 127.738 152.835 126.32L154.513 104.174C155.113 96.4183 161.881 90.6035 169.65 91.1936Z" fill="#4B4B4B"/>
<path fill-rule="evenodd" clip-rule="evenodd" d="M165.511 106.277C165.454 105.915 165.559 105.544 165.788 105.258L167.094 103.64C167.466 103.184 167.456 102.517 167.065 102.07L166.236 101.119C165.788 100.605 165.731 99.8528 166.093 99.2723L170.144 92.8485C170.23 92.7152 170.363 92.6201 170.516 92.5915L171.355 92.4297C171.717 92.3536 172.06 92.6581 172.031 93.0293L169.953 122.55C169.934 122.807 169.744 123.017 169.496 123.064L168.695 123.216C168.381 123.274 168.076 123.064 168.028 122.75L165.511 106.277Z" fill="#231F20"/>
<path fill-rule="evenodd" clip-rule="evenodd" d="M168.311 94.9496L167.835 94.4642C165.633 92.2088 161.982 92.1517 159.713 94.35L144.328 109.301C142.069 111.499 142.012 115.144 144.214 117.409L144.691 117.894C146.892 120.15 150.543 120.207 152.812 118.009L168.197 103.058C170.465 100.859 170.513 97.2146 168.311 94.9496Z" fill="#4B4B4B"/>
<path fill-rule="evenodd" clip-rule="evenodd" d="M177.302 102.498L177.131 102.07C175.958 99.1486 172.593 97.7116 169.667 98.8916L153.605 105.334C150.679 106.505 149.24 109.864 150.422 112.786L150.593 113.214C151.766 116.136 155.13 117.573 158.057 116.393L174.118 109.95C177.045 108.78 178.475 105.43 177.302 102.498Z" fill="#D98B75"/>
<path fill-rule="evenodd" clip-rule="evenodd" d="M162.889 107.913C161.641 104.811 158.085 103.298 154.978 104.544L146.199 108.066C143.091 109.312 141.576 112.862 142.824 115.964C144.073 119.067 147.629 120.58 150.736 119.333L159.515 115.812C162.613 114.565 164.138 111.016 162.889 107.913Z" fill="#4B4B4B"/>
<path fill-rule="evenodd" clip-rule="evenodd" d="M160.25 116.648L155.493 104.485C155.074 103.448 155.589 102.239 156.666 101.849L164.32 98.8799C165.359 98.4612 166.57 98.9751 166.961 100.05L171.717 112.213C172.136 113.25 171.622 114.459 170.545 114.849L162.89 117.818C161.813 118.208 160.641 117.733 160.25 116.648Z" fill="#3D3D3D"/>
<path fill-rule="evenodd" clip-rule="evenodd" d="M171.373 90.2212C173.594 89.793 175.758 91.249 176.196 93.4569L178.236 103.897C178.665 106.114 177.207 108.275 174.995 108.712C172.774 109.141 170.611 107.684 170.172 105.477L168.132 95.0367C167.694 92.8193 169.162 90.6495 171.373 90.2212Z" fill="#D98B75"/>
<path fill-rule="evenodd" clip-rule="evenodd" d="M186.357 96.3776L186.91 95.9874C189.474 94.1507 193.077 94.7502 194.917 97.3103L207.423 114.735C209.262 117.295 208.662 120.893 206.098 122.729L205.545 123.12C202.981 124.956 199.378 124.357 197.538 121.797L185.032 104.372C183.202 101.812 183.793 98.2143 186.357 96.3776Z" fill="#4B4B4B"/>
<path fill-rule="evenodd" clip-rule="evenodd" d="M176.184 102.232L176.431 101.841C178.109 99.1672 181.665 98.3583 184.343 100.024L199.013 109.198C201.692 110.873 202.502 114.423 200.834 117.097L200.586 117.487C198.908 120.161 195.353 120.97 192.674 119.305L178.004 110.131C175.326 108.456 174.506 104.896 176.184 102.232Z" fill="#D98B75"/>
<path fill-rule="evenodd" clip-rule="evenodd" d="M189.409 110.091C191.182 107.265 194.956 106.399 197.787 108.169L205.813 113.184C208.644 114.954 209.512 118.723 207.739 121.549C205.966 124.376 202.191 125.242 199.36 123.472L191.334 118.456C188.503 116.686 187.636 112.918 189.409 110.091Z" fill="#4B4B4B"/>
<path fill-rule="evenodd" clip-rule="evenodd" d="M190.465 119.161L197.29 108.027C197.89 107.075 197.595 105.8 196.604 105.229L189.597 100.956C188.644 100.356 187.367 100.651 186.795 101.641L179.97 112.776C179.369 113.727 179.665 115.003 180.656 115.574L187.662 119.847C188.654 120.418 189.893 120.151 190.465 119.161Z" fill="#3D3D3D"/>
<path fill-rule="evenodd" clip-rule="evenodd" d="M184.186 91.1816C182.079 90.3631 179.687 91.4195 178.867 93.5227L175.016 103.439C174.196 105.542 175.254 107.931 177.361 108.749C179.467 109.568 181.86 108.512 182.68 106.408L186.531 96.4919C187.351 94.3887 186.292 91.9905 184.186 91.1816Z" fill="#D98B75"/>
</g>
</svg>
