<svg width="255" height="158" viewBox="0 0 255 158" fill="none" xmlns="http://www.w3.org/2000/svg">
<path d="M172.406 103.782C168.696 101.687 164.008 103.024 161.932 106.757L138.645 148.9H156.258L175.36 114.331C177.44 110.598 176.117 105.877 172.406 103.782Z" fill="#FF9600"/>
<path d="M163.199 148.906H195.07C196.074 148.906 196.882 148.082 196.882 147.068V110.046C196.882 105.982 193.635 102.689 189.63 102.689H168.639C164.634 102.689 161.387 105.982 161.387 110.046V147.068C161.382 148.082 162.195 148.906 163.199 148.906Z" fill="#FF9600"/>
<path d="M172.402 86.7812V109.116C172.402 110.114 173.479 110.754 174.374 110.284L183.767 107.034C184.494 106.651 184.948 105.906 184.948 105.092V86.7812H172.402Z" fill="#FFB59F"/>
<path d="M140.375 105.49L151.359 110.586L153.063 106.91L142.079 101.814C141.062 101.357 139.873 101.814 139.419 102.838C138.974 103.839 139.397 105.015 140.375 105.49Z" fill="#E48C7F"/>
<path d="M147.48 103.523L156.034 114.595L159.71 111.746L151.16 100.674C150.378 99.6509 148.925 99.4636 147.908 100.248C146.888 101.036 146.702 102.499 147.48 103.523Z" fill="#F69B8A"/>
<path d="M150.351 105.316L148.98 113.657L144.863 108.435L150.351 105.316Z" fill="#F69B8A"/>
<path d="M166.945 135.727C169.497 135.727 171.979 134.755 173.864 133.004L194.458 113.836C197.52 110.983 197.71 106.17 194.877 103.082C192.045 99.9984 187.266 99.8067 184.2 102.66L167.559 118.152L161.094 109.733C158.543 106.41 153.794 105.8 150.495 108.37C147.195 110.939 146.59 115.722 149.141 119.045L158.897 131.746C160.649 134.019 163.261 135.448 166.106 135.692C166.387 135.713 166.664 135.727 166.945 135.727Z" fill="#FFB100"/>
<path d="M138.806 109.183H154.115V104.514H138.806C137.526 104.514 136.488 105.559 136.488 106.848C136.488 108.137 137.526 109.183 138.806 109.183Z" fill="#F69B8A"/>
<path d="M148.554 113.181L146.543 110.568L154.12 104.514L156.204 107.223C157.839 109.348 157.449 112.41 155.339 114.057C154.496 114.719 153.454 115.076 152.385 115.076C150.88 115.071 149.466 114.375 148.554 113.181Z" fill="#FF9600"/>
<path d="M153.125 90.0838L205.491 93.0283C206.459 93.084 207.289 92.3409 207.354 91.3702L208.654 71.4276C209.669 55.8923 197.988 42.4703 182.563 41.4485C167.139 40.4268 153.812 52.1908 152.798 67.7261L151.46 88.1889C151.4 89.1735 152.147 90.028 153.125 90.0838Z" fill="#3D3D3D"/>
<path d="M178.179 101.249C168.559 100.612 161.274 92.2387 161.905 82.5507L163.266 61.6977C163.897 52.0097 172.212 44.6717 181.831 45.308C191.45 45.9442 198.736 54.3179 198.104 64.006L196.744 84.8589C196.107 94.5469 187.798 101.885 178.179 101.249Z" fill="#FFB59F"/>
<path d="M199.131 86.3948C201.945 86.3948 204.226 84.0971 204.226 81.2628C204.226 78.4285 201.945 76.1309 199.131 76.1309C196.316 76.1309 194.035 78.4285 194.035 81.2628C194.035 84.0971 196.316 86.3948 199.131 86.3948Z" fill="#FFB59F"/>
<path d="M161.439 83.6018C164.253 83.6018 166.535 81.3042 166.535 78.4699C166.535 75.6355 164.253 73.3379 161.439 73.3379C158.625 73.3379 156.344 75.6355 156.344 78.4699C156.344 81.3042 158.625 83.6018 161.439 83.6018Z" fill="#FFB59F"/>
<path d="M161.543 60.2301L171.928 60.8246C172.361 60.8478 172.748 60.5645 172.859 60.1465L174.533 53.8395L176.405 60.2812C176.511 60.6481 176.834 60.9082 177.212 60.936L200.084 62.673L198.562 54.4804L177.706 49.6875L168.4 52.1536L162.05 54.1507L161.543 60.2301Z" fill="#3D3D3D"/>
<path d="M185.604 66.2857L186.019 66.3646C188.666 66.8709 190.423 69.467 189.916 72.1375L189.086 76.531C188.906 77.4924 188.45 78.333 187.827 78.9971C187.412 78.9136 184.401 78.3795 180.514 79.1272C179.333 78.0079 178.72 76.3267 179.043 74.6083L179.873 70.2148C180.38 67.5489 182.957 65.7794 185.604 66.2857Z" fill="white"/>
<path d="M183.546 69.2239L183.869 69.2843C185.188 69.5351 186.059 70.8308 185.806 72.1545L185.114 75.8188C184.865 77.1471 183.579 78.0249 182.264 77.7694L181.942 77.7091C180.623 77.4583 179.751 76.1625 180.005 74.8389L180.697 71.1745C180.946 69.8462 182.227 68.9685 183.546 69.2239Z" fill="#303030"/>
<path d="M183.57 70.0108C183.436 70.7214 183.897 71.4088 184.603 71.5434C185.308 71.6781 185.991 71.2137 186.125 70.5031C186.258 69.7925 185.797 69.1052 185.092 68.9705C184.386 68.8358 183.704 69.3002 183.57 70.0108Z" fill="white"/>
<path d="M191.802 79.6915C191.93 77.7361 189.05 75.9535 185.371 75.7099C181.691 75.4662 178.605 76.8538 178.477 78.8092C178.35 80.7645 181.229 82.5471 184.909 82.7908C188.588 83.0344 191.674 81.6468 191.802 79.6915Z" fill="#FFB59F"/>
<path d="M183.269 90.1771C184.158 90.3814 184.97 90.753 185.676 91.2453C186.123 90.4232 186.455 89.5594 186.709 88.7234L174.604 87.9199C174.226 87.8967 173.94 87.567 173.968 87.1861L174.078 85.4863L169.624 85.8857C169.361 85.909 169.176 86.1551 169.227 86.4152C169.97 90.1585 171.427 93.5999 175.139 94.8632C176.199 91.4496 179.727 89.3643 183.269 90.1771Z" fill="#A54544"/>
<path d="M174.599 87.9257L186.704 88.7291C187.202 87.085 187.377 85.5803 187.437 84.814C187.46 84.54 187.23 84.3124 186.953 84.3356L174.069 85.4967L173.958 87.1965C173.935 87.5727 174.221 87.8978 174.599 87.9257Z" fill="white"/>
<path d="M179.745 95.3402C182.719 95.108 184.545 93.3153 185.67 91.2439C184.965 90.747 184.153 90.3801 183.263 90.1758C179.722 89.363 176.199 91.4437 175.129 94.8758C176.392 95.3031 177.91 95.4842 179.745 95.3402Z" fill="#FF4B4B"/>
<path d="M175.501 73.1741C175.372 73.1462 174.477 75.7424 174.417 75.9188C173.905 77.3957 173.329 79.0677 173.44 80.656C173.523 81.8403 174.496 82.5463 175.644 82.5509C176.889 82.5556 177.654 81.4641 177.88 80.3356C178.221 78.6451 177.405 73.6106 177.405 73.6106L175.501 73.1741Z" fill="#FA8E77"/>
<path d="M170.088 65.4069L169.669 65.393C166.976 65.3094 164.702 67.4643 164.624 70.1766L164.49 74.6491C164.463 75.6244 164.725 76.544 165.191 77.3289C165.615 77.3381 168.668 77.4728 172.302 79.0472C173.694 78.2113 174.654 76.7019 174.704 74.9556L174.838 70.4831C174.921 67.7755 172.781 65.4905 170.088 65.4069Z" fill="white"/>
<path d="M171.811 68.7195L171.484 68.7102C170.142 68.6684 169.012 69.7412 168.975 71.0927L168.864 74.8221C168.823 76.1736 169.888 77.3068 171.23 77.3486L171.557 77.3579C172.899 77.3997 174.024 76.3268 174.066 74.9753L174.177 71.246C174.214 69.8991 173.153 68.7613 171.811 68.7195Z" fill="#303030"/>
<path d="M171.632 69.4918C171.609 70.2163 171.01 70.7829 170.295 70.7644C169.576 70.7411 169.013 70.1374 169.032 69.4175C169.055 68.693 169.654 68.1264 170.369 68.145C171.088 68.1636 171.651 68.7673 171.632 69.4918Z" fill="white"/>
<path d="M162.043 54.1471L166.004 48.6715L174.309 44.7378L185.611 43.9668L193.464 47.4175L196.743 51.7878L198.555 54.4815L176.144 52.8885L167.996 53.901L162.043 54.1471Z" fill="#3D3D3D"/>
<path d="M194.506 31.3195C193.566 31.1848 192.417 31.8954 191.67 32.2901C190.273 33.0286 188.987 33.9621 188.069 35.2811C186.211 37.9469 186.681 41.2676 187.94 44.0867C188.484 45.2988 189.416 47.0126 190.942 47.0451C192.224 47.073 193.234 45.898 193.893 44.9319C195.816 42.1128 196.895 38.0769 196.443 34.6727C196.319 33.7159 196.005 32.5549 195.369 31.8071C195.124 31.5099 194.829 31.3659 194.506 31.3195Z" fill="#3D3D3D"/>
<path d="M211.306 44.8528C211.306 44.8528 208.452 30.5391 191.897 37.264C189.029 39.2936 187.918 44.7274 194.346 47.3143C200.774 49.9012 212.021 50.83 211.306 44.8528Z" fill="#3D3D3D"/>
<path d="M145.884 143.447H132.383C130.891 143.447 129.676 144.676 129.676 146.174C129.676 147.672 130.895 148.9 132.383 148.9H145.884C147.372 148.9 148.591 147.672 148.591 146.174C148.591 144.676 147.372 143.447 145.884 143.447Z" fill="#F69B8A"/>
<path d="M147.8 144.231L142.416 138.809C141.361 137.746 139.64 137.746 138.584 138.809C137.529 139.872 137.529 141.605 138.584 142.668L143.968 148.09C145.024 149.153 146.745 149.153 147.8 148.09C148.855 147.028 148.855 145.29 147.8 144.231Z" fill="#F69B8A"/>
<path d="M63.7309 101.926L63.7828 98.5979C63.7872 98.3105 63.8174 98.023 63.878 97.7399C63.9385 97.4568 64.025 97.1824 64.1374 96.9167C64.2499 96.651 64.3883 96.3984 64.5526 96.1632C64.7169 95.9237 64.8986 95.7059 65.1061 95.5055C65.3137 95.3052 65.5343 95.1266 65.7764 94.9698C66.0186 94.813 66.2694 94.6823 66.5376 94.5735C66.8057 94.4689 67.0781 94.3862 67.3592 94.3339C67.6403 94.2816 67.9257 94.2599 68.2111 94.2642L91.5809 94.617C91.8663 94.6214 92.1517 94.6519 92.4328 94.7128C92.7139 94.7738 92.9863 94.8609 93.2501 94.9742C93.5139 95.0874 93.7647 95.2268 93.9983 95.3923C94.2361 95.5578 94.4523 95.7407 94.6513 95.9498C94.8502 96.1589 95.0275 96.381 95.1832 96.6249C95.3389 96.8688 95.4686 97.1214 95.5767 97.3915C95.6848 97.6615 95.7627 97.9359 95.8146 98.219C95.8665 98.5021 95.8881 98.7896 95.8838 99.077L95.8319 102.405C95.8275 102.692 95.7973 102.98 95.7367 103.263C95.6762 103.546 95.5897 103.82 95.4773 104.086C95.3648 104.352 95.2264 104.604 95.0621 104.839C94.8978 105.079 94.7161 105.297 94.5086 105.497C94.301 105.697 94.0804 105.876 93.8383 106.033C93.5961 106.19 93.3453 106.32 93.0771 106.429C92.809 106.534 92.5366 106.616 92.2555 106.669C91.9744 106.721 91.689 106.743 91.4036 106.738L68.0338 106.386C67.7484 106.381 67.463 106.351 67.1819 106.29C66.9008 106.229 66.6284 106.142 66.3646 106.028C66.1008 105.915 65.85 105.776 65.6164 105.61C65.3786 105.445 65.1624 105.262 64.9634 105.053C64.7645 104.844 64.5872 104.622 64.4315 104.378C64.2758 104.134 64.1461 103.881 64.038 103.611C63.9342 103.341 63.852 103.067 63.8001 102.784C63.7526 102.5 63.7266 102.213 63.7309 101.926Z" fill="#1899D6"/>
<path d="M86.7674 95.9316H71.2251C70.2737 95.9316 69.5039 96.7069 69.5039 97.6651V100.474H88.4886V97.6651C88.4886 96.7069 87.7188 95.9316 86.7674 95.9316Z" fill="#1899D6"/>
<path d="M129.398 98.039L117.622 103.03L115.953 99.0887L127.729 94.0973C128.81 93.6313 130.06 94.1365 130.522 95.2254C130.981 96.3143 130.479 97.573 129.398 98.039Z" fill="#E48C7F"/>
<path d="M131.119 98.023H118.686L120.852 94.6344C121.713 93.2406 121.289 91.4113 119.909 90.5446C118.526 89.6778 116.709 90.1047 115.849 91.4941L110.953 99.1772C110.062 100.575 109.591 102.196 109.591 103.855V125.31L97.5127 102.657C95.8823 99.6171 92.12 98.4847 89.1015 100.122C86.083 101.764 84.9586 105.554 86.5846 108.594L106.023 144.984C107.502 147.754 110.374 149.479 113.496 149.483C114.525 149.483 115.576 149.296 116.601 148.895C119.909 147.602 122.002 144.283 122.002 140.707V103.533C122.002 103.215 122.258 102.953 122.578 102.953H131.119C132.472 102.936 133.558 101.821 133.54 100.458C133.527 99.1206 132.451 98.036 131.119 98.023Z" fill="#F69B8A"/>
<path d="M57.8516 149.381V108.03C57.8516 102.503 62.2972 98.0254 67.785 98.0254H89.1265C94.61 98.0254 99.06 102.503 99.06 108.03V149.381C99.06 150.762 97.9486 151.881 96.5777 151.881H60.3382C58.963 151.881 57.8473 150.762 57.8516 149.381Z" fill="#1899D6"/>
<path d="M72.2932 104.668L72.4835 104.769L82.4602 108.218C83.0094 108.462 83.6019 108.593 84.203 108.593C86.5641 108.593 88.4842 106.672 88.4842 104.307V98.0176H69.5039V100.056C69.5039 101.999 70.5721 103.767 72.2932 104.668Z" fill="#1899D6"/>
<path d="M69.5039 99.373V109.587C69.5039 110.954 70.8878 111.882 72.1419 111.351L83.1953 106.664L71.3159 100.445L69.5039 99.373Z" fill="#1899D6"/>
<path d="M88.4917 98.0254V109.772C88.4917 111.009 87.2376 111.85 86.1046 111.371L76.0977 107.128L86.8527 101.501L88.4917 98.0254Z" fill="#1899D6"/>
<path d="M85.6253 80.7227V104.312C85.6253 105.366 84.488 106.041 83.5452 105.545L73.6248 102.113C72.855 101.707 72.375 100.919 72.375 100.061V80.727L85.6253 80.7227Z" fill="#EBA792"/>
<path d="M82.9902 120.637H78.8127C77.9867 120.637 77.3164 119.962 77.3164 119.13V106.373H84.4865V119.13C84.4865 119.962 83.8162 120.637 82.9902 120.637Z" fill="#1899D6"/>
<path d="M80.8995 113.344C81.6638 113.344 82.2833 112.72 82.2833 111.95C82.2833 111.181 81.6638 110.557 80.8995 110.557C80.1352 110.557 79.5156 111.181 79.5156 111.95C79.5156 112.72 80.1352 113.344 80.8995 113.344Z" fill="#1CB0F6"/>
<path d="M80.8995 118.149C81.6638 118.149 82.2833 117.525 82.2833 116.755C82.2833 115.985 81.6638 115.361 80.8995 115.361C80.1352 115.361 79.5156 115.985 79.5156 116.755C79.5156 117.525 80.1352 118.149 80.8995 118.149Z" fill="#1CB0F6"/>
<path d="M106.541 72.1147L106.602 68.6085C106.606 68.2557 106.598 67.9029 106.567 67.5544C106.537 67.2016 106.494 66.8532 106.433 66.5091C106.373 66.1607 106.291 65.821 106.195 65.4812C106.1 65.1415 105.988 64.8105 105.858 64.4838C105.728 64.1572 105.586 63.8348 105.426 63.5213C105.266 63.2077 105.093 62.9028 104.902 62.6066C104.712 62.3104 104.509 62.023 104.293 61.7486C104.076 61.4742 103.847 61.2085 103.601 60.9559C103.359 60.7032 103.103 60.4637 102.835 60.2328C102.567 60.0064 102.29 59.7886 102.005 59.5882C101.72 59.3879 101.421 59.2006 101.114 59.0307C100.807 58.8609 100.496 58.7041 100.176 58.5647C99.8557 58.4253 99.5271 58.299 99.1941 58.1945C98.8611 58.0856 98.5238 57.9941 98.1821 57.9201C97.8405 57.846 97.4945 57.7894 97.1486 57.7459C96.8026 57.7067 96.4523 57.6805 96.102 57.6762L85.295 57.4932C84.9448 57.4889 84.5945 57.4976 84.2485 57.5281C83.8982 57.5586 83.5523 57.6021 83.2106 57.6631C82.8647 57.7241 82.5274 57.8068 82.19 57.9027C81.8527 57.9985 81.5241 58.1117 81.1997 58.2424C80.8754 58.3731 80.5554 58.5168 80.244 58.6779C79.9326 58.8391 79.6299 59.0133 79.3359 59.205C79.0418 59.3966 78.7564 59.6013 78.4839 59.8191C78.2115 60.0369 77.9477 60.2677 77.6969 60.516C77.446 60.7599 77.2082 61.0168 76.979 61.2869C76.7541 61.5569 76.5379 61.8357 76.339 62.1231C76.14 62.4106 75.9541 62.7111 75.7854 63.0204C75.6168 63.3296 75.4611 63.6432 75.3227 63.9655C75.1843 64.2878 75.0589 64.6188 74.9551 64.9542C74.847 65.2896 74.7562 65.6293 74.6827 65.9734C74.6091 66.3175 74.5529 66.6659 74.5097 67.0144C74.4708 67.3628 74.4448 67.7156 74.4405 68.0684L74.38 71.5746C74.3756 71.9274 74.3843 72.2802 74.4145 72.6286C74.4448 72.9814 74.4881 73.3298 74.5486 73.6739C74.6091 74.0224 74.6913 74.3621 74.7865 74.7018C74.8816 75.0415 74.994 75.3726 75.1238 75.6992C75.2535 76.0259 75.3962 76.3482 75.5562 76.6618C75.7162 76.9754 75.8892 77.2803 76.0795 77.5764C76.2698 77.8726 76.473 78.1601 76.6892 78.4345C76.9055 78.7089 77.1347 78.9746 77.3812 79.2272C77.6233 79.4798 77.8785 79.7194 78.1466 79.9502C78.4147 80.1767 78.6915 80.3945 78.9769 80.5948C79.2623 80.7952 79.5607 80.9824 79.8678 81.1523C80.1748 81.3222 80.4862 81.479 80.8062 81.6184C81.1262 81.7577 81.4549 81.884 81.7879 81.9886C82.1208 82.0975 82.4582 82.1889 82.7998 82.263C83.1414 82.337 83.4874 82.3936 83.8334 82.4372C84.1793 82.4764 84.5296 82.5025 84.8799 82.5069L95.6869 82.6898C96.0372 82.6942 96.3874 82.6855 96.7334 82.655C97.0837 82.6245 97.4297 82.5809 97.7713 82.5199C98.1173 82.459 98.4546 82.3762 98.7919 82.2804C99.1292 82.1846 99.4579 82.0713 99.7822 81.9407C100.107 81.81 100.427 81.6663 100.738 81.5051C101.049 81.344 101.352 81.1697 101.646 80.9781C101.94 80.7865 102.226 80.5817 102.498 80.364C102.77 80.1462 103.034 79.9154 103.285 79.6671C103.536 79.4232 103.774 79.1662 104.003 78.8962C104.228 78.6261 104.444 78.3474 104.643 78.0599C104.842 77.7724 105.028 77.4719 105.197 77.1627C105.365 76.8534 105.521 76.5398 105.659 76.2175C105.798 75.8952 105.923 75.5642 106.027 75.2288C106.135 74.8935 106.226 74.5537 106.299 74.2096C106.373 73.8656 106.429 73.5171 106.472 73.1687C106.515 72.8159 106.537 72.4674 106.541 72.1147Z" fill="#3D3D3D"/>
<path d="M86.6955 73.3652L86.7863 69.859C86.795 69.5062 86.7863 69.1534 86.7604 68.8049C86.7344 68.4565 86.6912 68.1037 86.635 67.7596C86.5744 67.4112 86.5009 67.0715 86.4058 66.7317C86.315 66.392 86.2025 66.0566 86.0771 65.73C85.9517 65.4033 85.809 65.081 85.6533 64.763C85.4976 64.4494 85.3247 64.1402 85.1387 63.844C84.9527 63.5479 84.7495 63.2604 84.5376 62.9816C84.3214 62.7029 84.0965 62.4372 83.8543 62.1802C83.6121 61.9233 83.3613 61.6837 83.0975 61.4529C82.8337 61.222 82.557 61.0042 82.2715 60.8039C81.9861 60.6035 81.6921 60.4119 81.385 60.2377C81.0823 60.0635 80.7709 59.9067 80.4509 59.7629C80.1309 59.6192 79.8066 59.4929 79.4736 59.384C79.1406 59.2751 78.8033 59.1793 78.466 59.1009C78.1243 59.0225 77.7827 58.9615 77.4324 58.918C77.0864 58.8744 76.7362 58.8483 76.3859 58.8396L65.207 58.5521C64.8567 58.5434 64.5064 58.5521 64.1604 58.5782C63.8102 58.6044 63.4642 58.6479 63.1226 58.7045C62.7766 58.7655 62.4393 58.8396 62.102 58.9354C61.7647 59.0268 61.4317 59.1401 61.1073 59.2664C60.783 59.3927 60.463 59.5364 60.1473 59.6932C59.8359 59.85 59.5289 60.0243 59.2348 60.2115C58.9407 60.3988 58.6553 60.6035 58.3786 60.817C58.1018 61.0347 57.838 61.2612 57.5828 61.5051C57.3277 61.749 57.0898 62.0017 56.8606 62.2673C56.6314 62.533 56.4152 62.8118 56.2163 63.0992C56.013 63.3867 55.8271 63.6829 55.6541 63.9921C55.4811 64.297 55.3254 64.6106 55.1827 64.9329C55.04 65.2552 54.9146 65.5819 54.8065 65.9172C54.6984 66.2526 54.6032 66.5923 54.5254 66.9321C54.4476 67.2762 54.387 67.6202 54.3438 67.973C54.3005 68.3215 54.2746 68.6743 54.2659 69.0271L54.1751 72.5332C54.1665 72.886 54.1751 73.2388 54.2011 73.5873C54.227 73.9401 54.2703 74.2885 54.3265 74.6326C54.387 74.981 54.4605 75.3208 54.5557 75.6605C54.6465 76.0002 54.7589 76.3356 54.8843 76.6623C55.0098 76.9889 55.1525 77.3112 55.3081 77.6292C55.4638 77.9428 55.6368 78.252 55.8228 78.5482C56.0087 78.8444 56.212 79.1318 56.4239 79.4106C56.6401 79.6893 56.865 79.955 57.1071 80.212C57.3493 80.469 57.6001 80.7085 57.8639 80.9394C58.1277 81.1702 58.4045 81.388 58.6899 81.5883C58.9753 81.793 59.2694 81.9803 59.5764 82.1545C59.8792 82.3288 60.1905 82.4856 60.5105 82.6293C60.8306 82.773 61.1549 82.8993 61.4879 83.0082C61.8209 83.1171 62.1582 83.2129 62.4955 83.2913C62.8371 83.3697 63.1788 83.4307 63.5291 83.4743C63.875 83.5178 64.2253 83.544 64.5756 83.5527L75.7545 83.8401C76.1048 83.8488 76.4551 83.8401 76.801 83.814C77.1513 83.7879 77.4973 83.7443 77.8389 83.6877C78.1849 83.6267 78.5222 83.5527 78.8595 83.4568C79.1968 83.3654 79.5298 83.2521 79.8541 83.1258C80.1785 82.9995 80.4985 82.8558 80.8142 82.699C81.1255 82.5422 81.4326 82.368 81.7267 82.1807C82.0207 81.9934 82.3061 81.7887 82.5829 81.5753C82.8597 81.3575 83.1235 81.131 83.3786 80.8871C83.6338 80.6432 83.8716 80.3906 84.1008 80.1249C84.33 79.8592 84.5462 79.5804 84.7452 79.293C84.9484 79.0055 85.1344 78.7093 85.3074 78.4001C85.4803 78.0952 85.636 77.7816 85.7787 77.4593C85.9214 77.137 86.0469 76.8104 86.155 76.475C86.2631 76.1396 86.3582 75.7999 86.4361 75.4601C86.5139 75.1161 86.5744 74.772 86.6177 74.4192C86.6609 74.0664 86.6869 73.7179 86.6955 73.3652Z" fill="#4C4C4C"/>
<path d="M104.585 59.5598C104.594 59.1504 104.585 58.741 104.555 58.3315C104.525 57.9221 104.477 57.5171 104.408 57.112C104.339 56.7069 104.252 56.3106 104.144 55.9142C104.036 55.5179 103.91 55.1302 103.763 54.747C103.616 54.3637 103.452 53.9891 103.27 53.6232C103.089 53.2574 102.89 52.9002 102.669 52.5561C102.453 52.2077 102.22 51.8767 101.969 51.55C101.718 51.2277 101.454 50.9185 101.173 50.6179C100.892 50.3218 100.598 50.0387 100.291 49.7686C99.9838 49.5029 99.6638 49.2503 99.3308 49.0108C98.9978 48.7756 98.6562 48.5534 98.3016 48.3531C97.947 48.1527 97.5837 47.9654 97.2118 47.7999C96.8399 47.6344 96.4593 47.4863 96.0745 47.3557C95.6896 47.225 95.296 47.1161 94.8982 47.029C94.5003 46.9375 94.1025 46.8679 93.696 46.8199C93.2938 46.7677 92.8873 46.7372 92.4808 46.7285L65.8331 46.0403C65.4266 46.0316 65.0201 46.0403 64.6136 46.0708C64.207 46.1013 63.8049 46.1492 63.4027 46.2189C63.0005 46.2886 62.607 46.3757 62.2134 46.4846C61.8199 46.5935 61.435 46.7198 61.0545 46.8679C60.6739 47.0159 60.302 47.1815 59.9387 47.3644C59.5755 47.5473 59.2209 47.7477 58.8792 47.9698C58.5333 48.1876 58.2046 48.4228 57.8803 48.6754C57.5603 48.928 57.2532 49.1937 56.9548 49.4768C56.6608 49.7599 56.3797 50.0561 56.1115 50.3653C55.8434 50.6746 55.5969 50.9969 55.3591 51.3322C55.1255 51.6676 54.905 52.0117 54.7061 52.3689C54.5071 52.726 54.3212 53.0919 54.1569 53.4664C53.9925 53.841 53.8455 54.2243 53.7158 54.6119C53.586 54.9996 53.4779 55.3959 53.3914 55.7966C53.3006 56.1973 53.2314 56.598 53.1838 57.0075C53.1319 57.4125 53.1017 57.8219 53.093 58.2314C53.0844 58.6408 53.093 59.0502 53.1233 59.4596C53.1536 59.869 53.2011 60.2741 53.2703 60.6791C53.3395 61.0842 53.426 61.4806 53.5341 61.8769C53.6422 62.2733 53.7676 62.6609 53.9147 63.0442C54.0617 63.4275 54.226 63.802 54.4077 64.1679C54.5893 64.5338 54.7882 64.8909 55.0088 65.235C55.225 65.5834 55.4585 65.9145 55.7094 66.2411C55.9602 66.5634 56.224 66.8727 56.5051 67.1732C56.7862 67.4694 57.0802 67.7525 57.3873 68.0225C57.6943 68.2882 58.0143 68.5408 58.3473 68.7804C58.6803 69.0199 59.0219 69.2377 59.3766 69.4381C59.7312 69.6384 60.0944 69.8257 60.4663 69.9912C60.8382 70.1567 61.2188 70.3048 61.6037 70.4355C61.9886 70.5661 62.3821 70.675 62.78 70.7621C63.1778 70.8536 63.5757 70.9233 63.9822 70.9712C64.3844 71.0235 64.7909 71.054 65.1974 71.0627L91.8451 71.7508C92.2516 71.7595 92.6581 71.7508 93.0646 71.7203C93.4711 71.6899 93.8733 71.6419 94.2755 71.5723C94.6776 71.5026 95.0712 71.4155 95.4647 71.3066C95.8582 71.1977 96.2431 71.0714 96.6237 70.9233C97.0042 70.7752 97.3761 70.6097 97.7394 70.4268C98.1027 70.2438 98.4573 70.0435 98.7989 69.8213C99.1405 69.5992 99.4735 69.3684 99.7979 69.1158C100.118 68.8631 100.425 68.5974 100.723 68.3143C101.017 68.0312 101.298 67.7351 101.567 67.4258C101.835 67.1166 102.081 66.7943 102.319 66.4589C102.553 66.1235 102.773 65.7794 102.972 65.4223C103.171 65.0651 103.357 64.6993 103.521 64.3247C103.686 63.9501 103.833 63.5668 103.962 63.1792C104.092 62.7916 104.2 62.3952 104.287 61.9945C104.378 61.5938 104.447 61.1931 104.494 60.7837C104.542 60.3786 104.572 59.9692 104.585 59.5598Z" fill="#3D3D3D"/>
<path d="M91.8315 51.7757L71.0089 51.2356C65.6465 51.0962 61.2009 55.5519 61.0755 61.1879L60.5652 84.1719C60.4398 89.8079 64.6865 94.4857 70.0489 94.6251L90.8715 95.1652C96.2339 95.3046 100.679 90.8489 100.805 85.2129L101.315 62.2245C101.441 56.5929 97.1939 51.9107 91.8315 51.7757Z" fill="#EBA792"/>
<path d="M91.1315 64.4852C89.7044 64.4503 88.5195 65.5871 88.4849 67.0244L88.407 70.291C88.3724 71.7284 89.5011 72.9218 90.9282 72.9566C92.3553 72.9914 93.5402 71.8547 93.5748 70.4173L93.6527 67.1115C93.5705 67.1202 93.4927 67.1202 93.4105 67.1202C92.2645 67.0941 91.3563 66.1359 91.3866 64.9817C91.3909 64.8205 91.4126 64.6594 91.4515 64.5113C91.3477 64.4982 91.2396 64.4895 91.1315 64.4852Z" fill="#3D3D3D"/>
<path d="M77.8463 64.2684C76.4192 64.2335 75.2343 65.3703 75.1997 66.8076L75.1219 70.0742C75.0873 71.5116 76.216 72.705 77.6431 72.7398C79.0702 72.7747 80.2551 71.6379 80.2897 70.2005L80.3675 66.8947C80.2854 66.9034 80.2032 66.9034 80.121 66.9034C78.975 66.8773 78.0669 65.9191 78.0971 64.7649C78.1015 64.6037 78.1231 64.4426 78.162 64.2945C78.0582 64.2814 77.9544 64.2727 77.8463 64.2684Z" fill="#3D3D3D"/>
<path d="M84.724 75.9738L82.1596 75.9128C80.9444 75.8823 79.9411 76.8492 79.9109 78.0731C79.8806 79.297 80.8406 80.3075 82.0558 80.338L84.6203 80.399C85.8354 80.4295 86.8387 79.4625 86.869 78.2386C86.8993 77.0148 85.9392 75.9999 84.724 75.9738Z" fill="#DF8E70"/>
<path d="M82.2587 73.5312L80.5938 78.6185L86.0513 77.2857L82.2587 73.5312Z" fill="#DF8E70"/>
<path d="M105.857 53.706C105.865 53.2966 105.857 52.8872 105.827 52.4777C105.796 52.0683 105.749 51.6633 105.679 51.2582C105.61 50.8531 105.524 50.4568 105.416 50.0604C105.308 49.6641 105.182 49.2764 105.035 48.8932C104.888 48.5099 104.724 48.1353 104.542 47.7694C104.361 47.4036 104.162 47.0464 103.941 46.7023C103.725 46.3539 103.491 46.0229 103.24 45.6962C102.99 45.3739 102.726 45.0647 102.445 44.7641C102.164 44.468 101.87 44.1849 101.563 43.9148C101.255 43.6448 100.935 43.3965 100.603 43.157C100.27 42.9218 99.9279 42.6996 99.5733 42.4993C99.2187 42.2989 98.8554 42.1116 98.4835 41.9461C98.1116 41.7806 97.731 41.6325 97.3461 41.5019C96.9612 41.3712 96.5677 41.2623 96.1699 41.1752C95.772 41.0838 95.3741 41.0141 94.9676 40.9662C94.5655 40.9139 94.159 40.8834 93.7525 40.8747L86.9932 40.7005C86.5867 40.6918 86.1802 40.7005 85.7737 40.731C85.3672 40.7614 84.965 40.8094 84.5628 40.879C84.1607 40.9487 83.7671 41.0358 83.3736 41.1447C82.9801 41.2536 82.5952 41.3799 82.2146 41.528C81.8341 41.6761 81.4622 41.8416 81.0989 42.0245C80.7356 42.2075 80.381 42.4078 80.0394 42.63C79.6934 42.8477 79.3648 43.0829 79.0404 43.3355C78.7204 43.5882 78.4134 43.8538 78.115 44.137C77.8209 44.4201 77.5398 44.7162 77.2717 45.0255C77.0036 45.3347 76.7571 45.657 76.5192 45.9924C76.2857 46.3278 76.0652 46.6719 75.8662 47.029C75.6673 47.3862 75.4813 47.752 75.317 48.1266C75.1527 48.5012 75.0056 48.8845 74.8759 49.2721C74.7462 49.6597 74.6381 50.0561 74.5516 50.4568C74.4651 50.8575 74.3916 51.2582 74.344 51.6676C74.2921 52.0727 74.2618 52.4821 74.2532 52.8915C74.2445 53.3009 74.2532 53.7103 74.2835 54.1198C74.3137 54.5292 74.3613 54.9342 74.4305 55.3393C74.4997 55.7444 74.5862 56.1407 74.6943 56.5371C74.8024 56.9334 74.9278 57.3211 75.0748 57.7043C75.2219 58.0876 75.3862 58.4622 75.5678 58.8281C75.7495 59.1939 75.9484 59.5511 76.1689 59.8952C76.3895 60.2392 76.6187 60.5746 76.8695 60.9013C77.1203 61.2236 77.3841 61.5328 77.6652 61.8334C77.9463 62.1295 78.2404 62.4126 78.5474 62.6827C78.8545 62.9484 79.1745 63.201 79.5075 63.4405C79.8405 63.6801 80.1821 63.8979 80.5367 64.0982C80.8913 64.2986 81.2546 64.4859 81.6265 64.6514C81.9984 64.8169 82.379 64.965 82.7638 65.0956C83.1487 65.2263 83.5423 65.3352 83.9401 65.4223C84.338 65.5137 84.7358 65.5834 85.1423 65.6313C85.5445 65.6836 85.951 65.7141 86.3575 65.7228L93.1167 65.897C93.5233 65.9057 93.9298 65.897 94.3363 65.8665C94.7428 65.8361 95.145 65.7881 95.5471 65.7185C95.9493 65.6488 96.3428 65.5617 96.7364 65.4528C97.1299 65.3439 97.5148 65.2176 97.8953 65.0695C98.2759 64.9214 98.6478 64.7559 99.0111 64.573C99.3743 64.39 99.7289 64.1897 100.071 63.9675C100.417 63.7498 100.745 63.5146 101.07 63.262C101.394 63.0093 101.697 62.7437 101.995 62.4605C102.289 62.1774 102.57 61.8813 102.838 61.572C103.102 61.2628 103.353 60.9405 103.591 60.6051C103.824 60.2697 104.045 59.9256 104.244 59.5685C104.443 59.2113 104.629 58.8455 104.793 58.4709C104.957 58.0963 105.104 57.713 105.234 57.3254C105.364 56.9378 105.472 56.5414 105.558 56.1407C105.649 55.74 105.718 55.3393 105.766 54.9299C105.818 54.5248 105.848 54.1154 105.857 53.706Z" fill="#3D3D3D"/>
<path d="M102.079 73.9969L102.339 61.3659C102.343 61.183 102.33 61.0044 102.295 60.8258C102.265 60.6473 102.217 60.473 102.148 60.3032C102.083 60.1333 102.001 59.9721 101.906 59.8197C101.811 59.6673 101.698 59.5235 101.573 59.3929C101.448 59.2622 101.314 59.1446 101.167 59.0401C101.02 58.9355 100.864 58.8484 100.7 58.7744C100.535 58.7003 100.362 58.6437 100.189 58.6045C100.012 58.5653 99.8346 58.5435 99.6573 58.5392L88.1411 58.2996C87.9595 58.2953 87.7822 58.3083 87.6049 58.3432C87.4276 58.3737 87.2546 58.4216 87.0859 58.4913C86.9173 58.5566 86.7573 58.6394 86.6059 58.7352C86.4545 58.831 86.3118 58.9442 86.1821 59.0706C86.0524 59.1969 85.9356 59.3319 85.8318 59.48C85.728 59.6281 85.6415 59.7849 85.568 59.9504C85.4945 60.1159 85.4383 60.2901 85.3994 60.4643C85.3604 60.6429 85.3388 60.8215 85.3345 61L85.075 73.631C85.0707 73.8139 85.0837 73.9925 85.1183 74.1711C85.1485 74.3497 85.1961 74.5239 85.2653 74.6937C85.3302 74.8636 85.4123 75.0248 85.5075 75.1772C85.6026 75.3296 85.715 75.4734 85.8405 75.604C85.9659 75.7347 86.0999 75.8523 86.247 75.9568C86.394 76.0614 86.5497 76.1485 86.714 76.2225C86.8783 76.2966 87.0513 76.3532 87.2243 76.3924C87.4016 76.4316 87.5789 76.4534 87.7562 76.4577L99.2724 76.6973C99.4541 76.7016 99.6314 76.6886 99.8087 76.6537C99.986 76.6189 100.159 76.5753 100.328 76.5056C100.496 76.4359 100.656 76.3575 100.808 76.2617C100.959 76.1659 101.102 76.0527 101.231 75.9263C101.361 75.8 101.478 75.665 101.582 75.5169C101.686 75.3688 101.772 75.212 101.846 75.0465C101.919 74.881 101.975 74.7068 102.014 74.5326C102.057 74.3584 102.075 74.1798 102.079 73.9969Z" fill="white"/>
<path d="M80.7197 73.5535L80.9791 60.9225C80.9835 60.7396 80.9705 60.561 80.9359 60.3825C80.9056 60.2039 80.8581 60.0297 80.7889 59.8598C80.724 59.6899 80.6418 59.5288 80.5467 59.3763C80.4515 59.2239 80.3391 59.0802 80.2137 58.9495C80.0883 58.8188 79.9542 58.7012 79.8072 58.5967C79.6602 58.4922 79.5045 58.4051 79.3401 58.331C79.1758 58.257 79.0028 58.2004 78.8299 58.1612C78.6525 58.122 78.4752 58.1002 78.2979 58.0958L66.7817 57.8563C66.6001 57.8519 66.4228 57.865 66.2455 57.8998C66.0682 57.9303 65.8952 57.9782 65.7265 58.0479C65.5579 58.1132 65.3979 58.196 65.2465 58.2918C65.0952 58.3876 64.9525 58.5009 64.8227 58.6272C64.693 58.7535 64.5762 58.8885 64.4724 59.0366C64.3686 59.1847 64.2822 59.3415 64.2086 59.507C64.1351 59.6725 64.0789 59.8467 64.04 60.021C64.0011 60.1995 63.9794 60.3781 63.9751 60.5567L63.7156 73.1876C63.7113 73.3706 63.7243 73.5491 63.7589 73.7277C63.7892 73.9063 63.8367 74.0805 63.9059 74.2504C63.9708 74.4202 64.053 74.5814 64.1481 74.7338C64.2432 74.8863 64.3557 75.03 64.4811 75.1607C64.6065 75.2913 64.7406 75.4089 64.8876 75.5135C65.0346 75.618 65.1903 75.7051 65.3546 75.7792C65.519 75.8532 65.692 75.9098 65.8649 75.949C66.0422 75.9882 66.2195 76.01 66.3968 76.0144L77.9131 76.2539C78.0947 76.2583 78.272 76.2452 78.4493 76.2104C78.6266 76.1799 78.7996 76.132 78.9682 76.0623C79.1369 75.9969 79.2969 75.9142 79.4483 75.8184C79.5996 75.7225 79.7423 75.6093 79.8721 75.483C80.0018 75.3567 80.1186 75.2217 80.2223 75.0736C80.3261 74.9255 80.4126 74.7687 80.4861 74.6032C80.5597 74.4377 80.6159 74.2634 80.6548 74.0892C80.6937 73.915 80.7153 73.7321 80.7197 73.5535Z" fill="white"/>
<path d="M97.4437 70.3347L97.5043 67.4427C97.5086 67.2989 97.4956 67.1596 97.4697 67.0158C97.4437 66.8765 97.4048 66.7371 97.3572 66.6064C97.3053 66.4714 97.2405 66.3451 97.167 66.2275C97.0891 66.1055 97.0026 65.9967 96.9032 65.8921C96.8037 65.7876 96.6956 65.6961 96.5832 65.6134C96.4664 65.5306 96.3453 65.4609 96.2156 65.4043C96.0858 65.3477 95.9518 65.3041 95.8134 65.2736C95.675 65.2432 95.5366 65.2257 95.3939 65.2214L94.5247 65.204C94.382 65.1996 94.2436 65.2127 94.1009 65.2388C93.9582 65.2649 93.8241 65.3041 93.6944 65.352C93.5603 65.4043 93.4349 65.4696 93.3181 65.5437C93.1971 65.6221 93.0889 65.7092 92.9851 65.8094C92.8814 65.9095 92.7905 66.0184 92.7084 66.1317C92.6262 66.2493 92.557 66.3712 92.5008 66.5019C92.4446 66.6326 92.4013 66.7676 92.3711 66.907C92.3408 67.0463 92.3235 67.1857 92.3192 67.3294L92.2586 70.2215C92.2543 70.3652 92.2673 70.5046 92.2932 70.6483C92.3192 70.7877 92.3581 70.9271 92.4057 71.0577C92.4576 71.1928 92.5224 71.3191 92.5959 71.4367C92.6695 71.5543 92.7603 71.6675 92.8597 71.772C92.9592 71.8766 93.0673 71.968 93.1798 72.0508C93.2965 72.1336 93.4176 72.2032 93.5473 72.2599C93.6771 72.3165 93.8111 72.36 93.9495 72.3905C94.0879 72.421 94.2263 72.4384 94.369 72.4428L95.2382 72.4602C95.3809 72.4646 95.5193 72.4515 95.662 72.4254C95.8004 72.3992 95.9388 72.36 96.0685 72.3121C96.2026 72.2599 96.328 72.1945 96.4448 72.1205C96.5615 72.0464 96.674 71.955 96.7778 71.8548C96.8815 71.7546 96.9724 71.6457 97.0545 71.5325C97.1367 71.4149 97.2059 71.2929 97.2621 71.1623C97.3183 71.0316 97.3616 70.8966 97.3918 70.7572C97.4264 70.6222 97.4437 70.4785 97.4437 70.3347Z" fill="#303030"/>
<path d="M79.2914 70.2742L79.3519 67.3821C79.3563 67.2384 79.3433 67.099 79.3173 66.9553C79.2914 66.8159 79.2525 66.6765 79.2049 66.5459C79.153 66.4109 79.0881 66.2845 79.0146 66.1669C78.9368 66.045 78.8503 65.9361 78.7508 65.8316C78.6514 65.727 78.5432 65.6356 78.4308 65.5528C78.314 65.4701 78.193 65.4004 78.0632 65.3438C77.9335 65.2871 77.7994 65.2436 77.661 65.2131C77.5227 65.1826 77.3843 65.1652 77.2416 65.1608L76.3723 65.1434C76.2296 65.139 76.0912 65.1521 75.9485 65.1782C75.8101 65.2044 75.6718 65.2436 75.542 65.2915C75.408 65.3438 75.2826 65.4091 75.1658 65.4831C75.0447 65.5615 74.9366 65.6486 74.8328 65.7488C74.729 65.849 74.6382 65.9579 74.556 66.0711C74.4739 66.1887 74.4047 66.3107 74.3485 66.4413C74.2922 66.572 74.249 66.707 74.2187 66.8464C74.1885 66.9858 74.1712 67.1252 74.1668 67.2689L74.1063 70.1609C74.102 70.3047 74.1149 70.444 74.1409 70.5878C74.1668 70.7272 74.2058 70.8665 74.2533 70.9972C74.3052 71.1322 74.3701 71.2585 74.4436 71.3761C74.5214 71.4981 74.6079 71.607 74.7074 71.7115C74.8069 71.816 74.915 71.9075 75.0274 71.9902C75.1442 72.073 75.2653 72.1427 75.395 72.1993C75.5247 72.2559 75.6588 72.2995 75.7972 72.33C75.9356 72.3605 76.0739 72.3779 76.2167 72.3822L77.0859 72.3997C77.2286 72.404 77.367 72.391 77.5097 72.3648C77.6524 72.3387 77.7865 72.2995 77.9162 72.2516C78.0503 72.1993 78.1757 72.134 78.2924 72.0599C78.4135 71.9815 78.5216 71.8944 78.6254 71.7943C78.7292 71.6941 78.82 71.5852 78.9022 71.4719C78.9843 71.3543 79.0535 71.2324 79.1098 71.1017C79.166 70.9711 79.2092 70.836 79.2395 70.6967C79.2741 70.5573 79.2914 70.4179 79.2914 70.2742Z" fill="#303030"/>
<path d="M71.9381 102.082C73.3176 102.103 74.4247 103.249 74.4031 104.638L73.9101 137.649C73.8885 139.038 72.7511 140.153 71.3716 140.131L60.184 139.961C58.8045 139.94 57.6974 138.794 57.7191 137.405L58.0434 115.662C58.1558 108.049 64.3745 101.968 71.9381 102.082Z" fill="#1CB0F6"/>
<path d="M97.4736 140.526L86.3812 140.357C85.0103 140.335 83.9162 139.202 83.9378 137.822L84.4265 105.09C84.4481 103.709 85.5725 102.607 86.9434 102.629C94.4421 102.742 100.427 108.958 100.315 116.506L99.9904 138.066C99.9688 139.446 98.8401 140.548 97.4736 140.526Z" fill="#1CB0F6"/>
<path d="M67.1819 96.3111L75.5888 101.642C76.6007 102.282 76.9034 103.628 76.2634 104.648C76.0299 105.022 75.6839 105.318 75.2817 105.488L72.9984 106.464L67.9646 106.385C65.5905 106.351 63.6963 104.382 63.7309 101.991L63.7872 98.1622C63.8045 96.9296 64.8121 95.9496 66.0359 95.967C66.4424 95.9757 66.8403 96.0933 67.1819 96.3111Z" fill="#1CB0F6"/>
<path d="M92.557 96.696L83.9945 101.77C82.9653 102.38 82.6236 103.717 83.229 104.754C83.4539 105.137 83.7869 105.437 84.1848 105.625L86.4378 106.67L91.4716 106.748C93.8458 106.783 95.8004 104.876 95.835 102.484L95.8913 98.656C95.9085 97.4234 94.9312 96.4129 93.7117 96.3911C93.3095 96.3824 92.9073 96.4913 92.557 96.696Z" fill="#1CB0F6"/>
<path d="M86.2426 148.908H76.88C75.5394 148.908 74.4453 147.802 74.4453 146.456C74.4453 145.11 75.5437 144.004 76.88 144.004H86.2426C87.5832 144.004 88.6773 145.11 88.6773 146.456C88.6773 147.802 87.5832 148.908 86.2426 148.908Z" fill="#F69B8A"/>
<path d="M86.2339 148.911H51.3523C48.4333 148.911 45.5791 147.826 43.512 145.749C39.9269 142.138 39.382 136.659 41.8513 132.482L59.6078 102.433C61.3593 99.4673 65.1692 98.4916 68.1185 100.256C71.0635 102.02 72.0322 105.857 70.2808 108.827L53.9816 136.406H74.2031C77.3038 136.406 80.1623 138.087 81.6889 140.805L86.2339 148.911Z" fill="#EBA792"/>
<path d="M71.6054 109.698C73.3568 106.732 72.7514 101.322 68.8247 99.3754C65.75 97.851 61.3563 99.4625 59.6048 102.433L51.2109 116.641L63.285 124.324L71.6054 109.698Z" fill="#1CB0F6"/>
<path d="M87.9651 84.986V89.7117C87.9651 91.6891 86.3564 93.3094 84.3931 93.3094H76.9549C74.9915 93.3094 73.3828 91.6891 73.3828 89.7117V82.4772C73.3828 81.8544 73.8801 81.3535 74.4985 81.3535C74.5677 81.3535 74.6369 81.3579 74.7061 81.3709L86.8753 83.6619C87.5067 83.7795 87.9651 84.337 87.9651 84.986Z" fill="#8C3433"/>
<path d="M76.9549 93.3081C74.9915 93.3081 73.3828 91.6879 73.3828 89.7105V88.8002C74.3991 88.2078 75.5667 87.9291 76.7386 87.9988C79.7009 88.1643 82.0492 90.4466 82.4124 93.3081H76.9549Z" fill="#EC4A4E"/>
<path d="M74.7022 81.3709L85.8249 83.4659V84.6289C85.8249 85.2517 85.3276 85.7526 84.7092 85.7526H73.3789V82.4772C73.3789 81.8544 73.8805 81.3535 74.4946 81.3535C74.5681 81.3535 74.6373 81.3579 74.7022 81.3709Z" fill="white"/>
<path d="M70.4156 102.383C71.1551 102.396 71.7432 103.006 71.7346 103.751L71.5832 113.855C71.5702 114.6 70.9648 115.193 70.2253 115.184C69.4858 115.171 68.8977 114.561 68.9063 113.816L69.0577 103.711C69.0664 102.967 69.6761 102.37 70.4156 102.383Z" fill="white"/>
<path d="M89.1015 100.121C86.083 101.763 84.9586 105.553 86.5846 108.593L96.1202 126.446L106.642 119.786L97.5084 102.656C95.8867 99.616 92.12 98.4835 89.1015 100.121Z" fill="#1CB0F6"/>
<path d="M88.0992 102.383C88.8387 102.396 89.4268 103.006 89.4182 103.751L89.2668 113.855C89.2538 114.6 88.6484 115.193 87.9089 115.184C87.1694 115.171 86.5813 114.561 86.5899 113.816L86.7413 103.711C86.7543 102.967 87.3597 102.37 88.0992 102.383Z" fill="white"/>
<path d="M124.431 138.759C120.604 138.345 117.905 139.208 115.968 140.854C114.03 139.208 111.332 138.345 107.505 138.759C102.306 139.321 93.7699 142.196 91.1103 143.123C90.6216 143.293 90.293 143.759 90.293 144.282V146.429H141.647V144.282C141.647 143.759 141.318 143.293 140.829 143.123C138.165 142.196 129.625 139.321 124.431 138.759Z" fill="#E9E1E2"/>
<path d="M141.642 146.807C141.642 146.285 141.314 145.819 140.825 145.649C138.165 144.721 129.625 141.846 124.431 141.284C120.604 140.871 117.905 141.733 115.968 143.379C114.03 141.733 111.327 140.871 107.505 141.284C102.306 141.846 93.7699 144.721 91.1103 145.649C90.6216 145.819 90.293 146.285 90.293 146.807V148.902H141.647L141.642 146.807Z" fill="white"/>
<path d="M141.632 148.903C141.571 148.45 141.26 148.067 140.828 147.914C138.168 146.987 129.627 144.112 124.433 143.55C120.606 143.136 117.908 143.999 115.97 145.645C114.033 143.999 111.33 143.136 107.507 143.55C102.309 144.112 93.7725 146.987 91.113 147.914C90.6805 148.067 90.3691 148.446 90.3086 148.903H141.632Z" fill="#E9E1E2"/>
<path d="M143.192 146.426H88.7376C88.0587 146.439 87.5224 147.009 87.5354 147.693C87.5484 148.355 88.0803 148.891 88.7376 148.904H143.192C143.871 148.891 144.412 148.32 144.394 147.637C144.381 146.975 143.849 146.443 143.192 146.426Z" fill="#43ADE1"/>
<path d="M112.875 28H143.968C150.347 28 155.514 33.2092 155.514 39.6292V55.4788C155.514 61.9032 150.342 67.108 143.968 67.108H124.789L114.388 76.9384C113.229 78.0316 111.335 77.2041 111.335 75.6056V67.0035C105.687 66.2413 101.328 61.3762 101.328 55.4788V39.6292C101.328 33.2092 106.496 28 112.875 28Z" fill="#FFC800"/>
<path d="M148.176 71.3555H130.272C126.601 71.3555 123.621 74.3521 123.621 78.0542V87.179C123.621 90.8768 126.596 93.8778 130.272 93.8778H141.317L147.306 99.5399C147.972 100.171 149.067 99.6924 149.067 98.7733V93.8168C152.319 93.3769 154.827 90.5763 154.827 87.179V78.0542C154.823 74.3564 151.847 71.3555 148.176 71.3555Z" fill="#FFEDAB"/>
<path d="M207.817 157.001H38.5245C36.5785 157.001 35 155.189 35 152.954C35 150.72 36.5785 148.908 38.5245 148.908H207.817C209.763 148.908 211.341 150.72 211.341 152.954C211.341 155.189 209.763 157.001 207.817 157.001Z" fill="#8D4D29"/>
</svg>
