<svg width="586" height="471" viewBox="0 0 586 471" fill="none" xmlns="http://www.w3.org/2000/svg">
<path d="M253.427 376.899L244.799 386.792C242.055 389.942 237.976 391.593 233.813 391.257L141.82 383.803C136.822 383.397 132.44 380.307 130.372 375.739L40.8022 177.252C38.5626 172.274 39.6742 166.435 43.5866 162.63L52.38 154.113L253.427 376.899Z" fill="#515151"/>
<path d="M149.684 372.958C150.321 373.096 150.966 373.197 151.621 373.248L241.268 380.278C247.363 380.752 252.692 376.202 253.166 370.108C253.312 368.263 252.994 366.416 252.237 364.728L164.647 168.678C162.546 163.966 158.044 160.765 152.903 160.328L63.1508 152.609C56.9506 152.079 51.4939 156.672 50.9577 162.871C50.7935 164.771 51.1164 166.685 51.8945 168.429L139.604 364.767C141.476 368.939 145.217 371.974 149.684 372.958Z" fill="white"/>
<path d="M154.16 163.097C153.668 162.984 153.177 162.897 152.678 162.847L62.9263 155.128C58.1375 154.722 53.921 158.271 53.5147 163.06C53.3914 164.53 53.6402 166.003 54.237 167.348L141.946 363.718C143.482 367.151 146.555 369.649 150.232 370.448C150.756 370.562 151.289 370.638 151.822 370.682L241.473 377.719C246.157 378.07 250.235 374.556 250.585 369.873C250.689 368.464 250.447 367.051 249.87 365.762L162.306 169.718C160.797 166.344 157.775 163.883 154.16 163.097ZM155.249 158.084C160.455 159.222 164.817 162.765 166.997 167.625L254.585 363.681C257.654 370.559 254.57 378.616 247.698 381.687C245.62 382.615 243.344 383.009 241.076 382.83L151.429 375.768C150.665 375.707 149.904 375.6 149.156 375.431C143.888 374.28 139.483 370.695 137.275 365.783L49.5633 169.451C46.4584 162.468 49.6073 154.294 56.5831 151.194C58.7102 150.25 61.0449 149.855 63.3624 150.052L153.129 157.761C153.835 157.823 154.544 157.931 155.237 158.081L155.249 158.084Z" fill="#515151"/>
<path d="M149.684 372.958C150.321 373.096 150.966 373.197 151.621 373.248L241.268 380.278C247.363 380.752 252.692 376.202 253.166 370.108C253.312 368.263 252.994 366.416 252.237 364.728L164.647 168.678C162.546 163.966 158.044 160.765 152.903 160.328L63.1508 152.609C56.9506 152.079 51.4939 156.672 50.9577 162.871C50.7935 164.771 51.1164 166.685 51.8945 168.429L139.604 364.767C141.476 368.939 145.217 371.974 149.684 372.958Z" fill="white"/>
<path d="M154.16 163.097C153.668 162.984 153.177 162.897 152.678 162.847L62.9263 155.128C58.1375 154.722 53.921 158.271 53.5147 163.06C53.3914 164.53 53.6402 166.003 54.237 167.348L141.946 363.718C143.482 367.151 146.555 369.649 150.232 370.448C150.756 370.562 151.289 370.638 151.822 370.682L241.473 377.719C246.157 378.07 250.235 374.556 250.585 369.873C250.689 368.464 250.447 367.051 249.87 365.762L162.306 169.718C160.797 166.344 157.775 163.883 154.16 163.097ZM155.249 158.084C160.455 159.222 164.817 162.765 166.997 167.625L254.585 363.681C257.654 370.559 254.57 378.616 247.698 381.687C245.62 382.615 243.344 383.009 241.076 382.83L151.429 375.768C150.665 375.707 149.904 375.6 149.156 375.431C143.888 374.28 139.483 370.695 137.275 365.783L49.5633 169.451C46.4584 162.468 49.6073 154.294 56.5831 151.194C58.7102 150.25 61.0449 149.855 63.3624 150.052L153.129 157.761C153.835 157.823 154.544 157.931 155.237 158.081L155.249 158.084Z" fill="#515151"/>
<path d="M276.607 216.998L524.271 157.42C530.984 155.814 537.724 159.947 539.33 166.66C539.53 167.49 539.646 168.341 539.668 169.197L545.257 354.441C545.438 360.346 541.451 365.575 535.704 366.957L288.048 426.533C281.336 428.139 274.594 423.997 272.988 417.285C272.788 416.454 272.673 415.612 272.652 414.756L267.063 229.512C266.883 223.616 270.862 218.389 276.607 216.998Z" fill="#1CB0F6"/>
<path d="M524.256 157.424L276.492 217.026L276.11 217.118L275.993 217.146C270.547 218.755 266.874 223.829 267.043 229.499L272.633 414.858L272.652 415.266L272.664 415.386C272.722 416.031 272.822 416.666 272.972 417.289C274.576 423.993 281.316 428.126 288.027 426.512L535.799 366.908L536.181 366.816L536.297 366.788C541.744 365.179 545.417 360.105 545.248 354.435L539.657 169.076L539.63 168.67L539.619 168.55C539.064 161.681 533.044 156.558 526.167 157.114C525.532 157.179 524.897 157.279 524.256 157.424ZM521.433 177.098L526.652 350.14L290.847 406.865L285.628 233.823L521.433 177.098Z" fill="#515151"/>
<path d="M525.085 156.116L275.586 216.135L275.312 216.201C269.696 217.692 265.851 222.852 266.035 228.659L271.837 416.102L271.856 416.475C271.899 417.202 272.013 417.931 272.185 418.645C273.789 425.349 280.529 429.482 287.239 427.868L537.013 367.783C542.629 366.291 546.474 361.132 546.29 355.325L540.492 167.899L540.473 167.526C540.429 166.798 540.316 166.07 540.144 165.355C538.54 158.651 531.8 154.518 525.089 156.132L525.085 156.116ZM277.16 222.46L526.61 162.453C529.816 161.681 533.04 163.655 533.811 166.861C533.891 167.193 533.946 167.532 533.966 167.87L533.976 168.131L539.77 355.505C539.855 358.269 538.033 360.737 535.35 361.453L535.159 361.499L285.701 421.508C282.495 422.279 279.27 420.305 278.499 417.1C278.419 416.767 278.364 416.429 278.344 416.091L278.334 415.83L272.54 228.456C272.455 225.691 274.277 223.224 276.959 222.499L277.16 222.46Z" fill="#515151"/>
<path d="M187.876 426.056L540.748 341.169L543.669 353.311C545.29 360.011 541.167 366.758 534.456 368.372L193.718 450.34C187.007 451.954 180.267 447.821 178.661 441.108C177.057 434.404 181.176 427.676 187.876 426.056Z" fill="#515151"/>
<g clip-path="url(#clip0_1125_3922)">
<path d="M396.713 346.189C427.737 346.189 452.887 320.778 452.887 289.433C452.887 258.088 427.737 232.678 396.713 232.678C365.689 232.678 340.539 258.088 340.539 289.433C340.539 320.778 365.689 346.189 396.713 346.189Z" fill="#9EDFFF"/>
<path opacity="0.43" d="M396.713 357.311C433.816 357.311 463.895 326.921 463.895 289.434C463.895 251.946 433.816 221.557 396.713 221.557C359.61 221.557 329.531 251.946 329.531 289.434C329.531 326.921 359.61 357.311 396.713 357.311Z" fill="#9EDFFF"/>
<path d="M373.462 291.436C373.462 294.269 371.19 296.564 368.387 296.564H351.706C348.504 296.564 345.906 293.94 345.906 290.705C345.906 287.469 348.504 284.845 351.706 284.845C352.204 284.845 352.702 284.919 353.187 285.053C353.513 281.563 356.482 278.939 359.95 279.08C363.417 279.221 366.168 282.073 366.214 285.583C366.214 286.02 366.174 286.456 366.081 286.886C366.792 286.51 367.583 286.308 368.387 286.315C371.183 286.302 373.462 288.604 373.462 291.436Z" fill="white"/>
<path d="M447.963 278.301C447.963 282.02 444.973 285.04 441.293 285.04H419.377C415.166 285.04 411.758 281.59 411.758 277.341C411.758 273.086 415.172 269.636 419.377 269.636C420.035 269.636 420.686 269.73 421.324 269.905C421.749 265.32 425.649 261.871 430.206 262.052C434.763 262.233 438.377 265.992 438.437 270.596C438.437 271.173 438.377 271.744 438.264 272.307C439.2 271.811 440.237 271.556 441.293 271.556C444.98 271.562 447.963 274.576 447.963 278.301Z" fill="white"/>
<path d="M405.936 251.315L402.262 250.785L397.559 283.747L392.583 254.718L388.93 255.356L394.915 290.271L400.495 289.439L405.936 251.315Z" fill="#D6D6D6"/>
<path d="M394.775 290.332L375.165 260.947L372.089 263.048L388.391 287.473L362.41 266.981L360.125 269.934L390.178 293.634L394.775 290.332Z" fill="#E5E5E5"/>
<path d="M411.434 260.151L411.148 259.023C410.849 257.848 410.477 256.681 410.026 255.56C407.342 248.821 402.22 243.539 395.61 240.693C389 237.847 381.68 237.767 375.01 240.478C368.34 243.19 363.112 248.365 360.295 255.043C357.479 261.721 357.399 269.118 360.083 275.856C360.528 276.977 361.053 278.078 361.651 279.138L362.222 280.152L364.926 279.051C368.931 271.312 375.555 265.258 383.586 261.996C391.618 258.734 400.546 258.473 408.737 261.251L411.434 260.151Z" fill="#FFDB2D"/>
<path d="M395.619 240.685C389.002 237.839 381.688 237.759 375.018 240.47C374.992 240.477 374.972 240.49 374.945 240.497L383.515 262.022C383.541 262.015 383.561 262.002 383.588 261.995C391.613 258.733 400.548 258.472 408.739 261.25L411.443 260.149L411.157 259.022C410.858 257.847 410.486 256.679 410.034 255.559C407.35 248.82 402.229 243.538 395.619 240.685Z" fill="#FFB62D"/>
<path d="M393.343 259.021C390.407 251.638 384.973 245.591 378.117 242.067L375.015 240.477L373.872 243.792C371.341 251.128 371.567 259.297 374.503 266.673L374.703 267.176C377.386 265.049 380.369 263.297 383.584 261.995C386.793 260.693 390.155 259.867 393.549 259.525L393.343 259.021Z" fill="#FF9900"/>
<path d="M393.337 259.021C390.401 251.638 384.967 245.591 378.111 242.067L375.009 240.477L374.969 240.584L383.505 262.028C383.532 262.022 383.552 262.008 383.578 262.002C386.787 260.699 390.148 259.874 393.543 259.532L393.337 259.021Z" fill="#FF7300"/>
<path d="M384.327 337.699L406.329 338.746C408.913 338.867 411.125 336.833 411.245 334.222C411.364 331.611 409.351 329.376 406.767 329.255L384.765 328.208C382.181 328.087 379.969 330.121 379.849 332.732C379.723 335.343 381.743 337.578 384.327 337.699Z" fill="#006BD6"/>
<path d="M384.41 337.798L385.028 327.999C385.068 327.382 384.603 326.851 383.991 326.811C383.38 326.771 382.855 327.241 382.816 327.858L382.198 337.657C382.158 338.275 382.623 338.805 383.234 338.845C383.839 338.879 384.37 338.409 384.41 337.798Z" fill="#01357A"/>
<path d="M383.168 335.625L383.434 331.47C383.527 329.994 382.404 328.705 380.943 328.611L377.07 328.363C375.608 328.269 374.333 329.403 374.24 330.88L373.974 335.034C373.881 336.511 375.004 337.8 376.465 337.894L380.338 338.142C381.8 338.236 383.075 337.108 383.168 335.625Z" fill="#01357A"/>
<path d="M383.47 329.301C383.842 328.764 383.709 328.012 383.171 327.643L380.727 325.932C380.195 325.556 379.451 325.69 379.086 326.234C378.714 326.771 378.847 327.523 379.385 327.892L381.829 329.603C382.361 329.972 383.098 329.838 383.47 329.301Z" fill="#01357A"/>
<path d="M428.312 327.2C425.223 319.945 415.929 317.005 407.552 320.643C399.175 324.28 394.891 333.113 397.98 340.369C398 340.422 398.026 340.469 398.053 340.523C398.066 340.557 398.073 340.584 398.086 340.617L399.056 342.899L402.404 350.765C403.294 352.86 405.725 353.839 407.798 352.94L430.584 343.04C432.657 342.141 433.627 339.684 432.736 337.59L429.388 329.724L428.418 327.442C428.405 327.408 428.392 327.381 428.378 327.354C428.352 327.301 428.332 327.254 428.312 327.2Z" fill="#006BD6"/>
<path d="M435.52 317.683L420.613 334.073C418.865 335.999 415.876 336.127 413.969 334.355C412.063 332.59 411.937 329.569 413.69 327.643L428.598 311.253C430.345 309.326 433.334 309.199 435.241 310.971C437.147 312.736 437.273 315.756 435.52 317.683Z" fill="#006BD6"/>
<path d="M435.53 317.817L428.263 311.293C427.805 310.884 427.765 310.172 428.17 309.716C428.575 309.253 429.279 309.213 429.731 309.622L436.999 316.146C437.457 316.555 437.497 317.267 437.092 317.723C436.693 318.18 435.989 318.22 435.53 317.817Z" fill="#01357A"/>
<path d="M434.905 315.388L431.829 312.623C430.733 311.636 430.633 309.931 431.61 308.824L434.187 305.891C435.164 304.783 436.851 304.683 437.947 305.669L441.023 308.435C442.119 309.421 442.219 311.126 441.242 312.234L438.665 315.167C437.688 316.274 435.994 316.375 434.905 315.388Z" fill="#01357A"/>
<path d="M430.276 311.112C429.638 310.991 429.213 310.367 429.333 309.722L429.877 306.763C429.997 306.118 430.615 305.689 431.253 305.809C431.89 305.93 432.315 306.554 432.196 307.199L431.651 310.159C431.532 310.803 430.914 311.233 430.276 311.112Z" fill="#01357A"/>
<path d="M403.446 357.715L393.847 351.118C392.379 350.111 391.993 348.071 392.996 346.594L393.594 345.708C394.591 344.225 396.61 343.842 398.072 344.849L407.671 351.447C409.139 352.453 409.524 354.494 408.521 355.97L407.923 356.856C406.927 358.333 404.914 358.722 403.446 357.715Z" fill="#006BD6"/>
<path d="M411.808 351.084L398.844 342.176L395.123 347.704L408.087 356.612L411.808 351.084Z" fill="#006BD6"/>
<path d="M435.623 345.464L439.064 334.262C439.589 332.551 438.632 330.718 436.938 330.188L435.922 329.866C434.228 329.336 432.414 330.302 431.89 332.014L428.449 343.216C427.924 344.927 428.88 346.76 430.574 347.29L431.591 347.612C433.278 348.142 435.098 347.176 435.623 345.464Z" fill="#006BD6"/>
<path d="M431.319 347.53L435.969 332.402L429.65 330.42L425 345.547L431.319 347.53Z" fill="#006BD6"/>
<path d="M413.961 324.544L407.358 327.437C393.607 333.464 377.471 327.021 371.512 313.127C365.546 299.234 371.924 282.931 385.675 276.91L392.278 274.017C406.029 267.99 422.165 274.433 428.124 288.327C434.09 302.227 427.719 318.524 413.961 324.544Z" fill="#0075D6"/>
<path d="M395.483 268.983L380.476 275.554C378.915 276.239 378.198 278.085 378.869 279.655C379.546 281.233 381.373 281.958 382.928 281.28L397.941 274.709C399.502 274.024 400.22 272.178 399.549 270.608C398.871 269.03 397.044 268.299 395.483 268.983Z" fill="#01357A"/>
<path d="M388.739 273.092L388.081 273.381C387.968 273.428 387.842 273.381 387.789 273.267L381.478 258.568C381.431 258.454 381.485 258.326 381.591 258.273L382.248 257.984C382.361 257.937 382.488 257.991 382.541 258.098L388.852 272.797C388.898 272.911 388.852 273.039 388.739 273.092Z" fill="#01357A"/>
<path d="M384.949 255.231C385.813 257.238 384.896 259.567 382.91 260.439C380.924 261.312 378.618 260.386 377.755 258.379C376.891 256.372 377.808 254.043 379.794 253.17C381.781 252.298 384.092 253.224 384.949 255.231Z" fill="#01357A"/>
<path d="M392.538 283.756C401.427 279.864 411.279 282.266 416.4 289.012L421.137 286.938C414.939 277.87 402.184 274.507 390.718 279.528C379.252 284.548 372.968 296.254 375.28 307.02L380.016 304.946C378.654 296.563 383.657 287.649 392.538 283.756Z" fill="white"/>
<path d="M407.091 317.677C398.202 321.57 388.351 319.167 383.229 312.422L378.492 314.496C384.69 323.564 397.445 326.926 408.911 321.906C420.37 316.885 426.661 305.18 424.35 294.414L419.613 296.488C420.981 304.878 415.979 313.785 407.091 317.677Z" fill="white"/>
<path d="M386.009 301.494L385.67 301.642C383.518 302.568 382.508 305.099 383.425 307.273L384.933 310.857C385.265 311.643 385.803 312.274 386.454 312.717C386.793 312.569 389.244 311.555 392.672 311.468C393.469 310.294 393.681 308.75 393.09 307.354L391.582 303.77C390.666 301.588 388.161 300.568 386.009 301.494Z" fill="white"/>
<path d="M388.034 304.064L387.822 304.158C386.945 304.534 386.539 305.561 386.911 306.447L387.935 308.883C388.307 309.769 389.323 310.179 390.2 309.803L390.412 309.709C391.289 309.333 391.695 308.306 391.323 307.42L390.299 304.984C389.927 304.105 388.911 303.688 388.034 304.064Z" fill="black"/>
<path d="M388.143 304.621C388.342 305.091 388.123 305.641 387.658 305.843C387.193 306.044 386.648 305.822 386.449 305.353C386.249 304.883 386.469 304.332 386.934 304.131C387.405 303.923 387.95 304.144 388.143 304.621Z" fill="white"/>
<path d="M409.833 291.435L410.165 291.288C412.311 290.348 414.822 291.355 415.752 293.516L417.287 297.087C417.619 297.865 417.705 298.698 417.572 299.483C417.234 299.631 414.815 300.725 412.391 303.175C411.002 302.953 409.747 302.04 409.149 300.651L407.614 297.08C406.698 294.919 407.694 292.375 409.833 291.435Z" fill="white"/>
<path d="M410.289 294.691L410.501 294.597C411.372 294.214 412.395 294.623 412.773 295.503L413.816 297.932C414.195 298.812 413.79 299.845 412.92 300.228L412.707 300.322C411.837 300.704 410.814 300.295 410.435 299.416L409.392 296.986C409.013 296.107 409.419 295.073 410.289 294.691Z" fill="black"/>
<path d="M410.618 295.148C410.817 295.617 411.362 295.839 411.827 295.631C412.292 295.429 412.511 294.879 412.305 294.409C412.106 293.939 411.561 293.718 411.096 293.926C410.624 294.134 410.412 294.678 410.618 295.148Z" fill="white"/>
</g>
<path d="M244.644 236.326C245.26 236.815 245.353 237.706 244.864 238.322L241.971 241.965C241.482 242.581 240.592 242.673 239.976 242.184C239.361 241.694 239.268 240.803 239.757 240.187L242.65 236.545C243.138 235.929 244.028 235.836 244.644 236.326Z" fill="#777777"/>
<path d="M242.097 233.06C242.975 231.966 244.584 231.783 245.677 232.662L247.836 234.399C248.929 235.278 249.112 236.889 248.235 237.983C247.357 239.077 245.748 239.26 244.655 238.381L242.496 236.644C241.403 235.765 241.22 234.154 242.097 233.06Z" fill="#303030"/>
<path d="M248.356 235.058L245.069 232.455C245.135 232.384 250.596 225.485 252.526 223.056C254.637 220.433 254.802 218.836 253.224 216.737C252.418 215.688 251.597 215.683 248.969 216.239C247.412 216.67 245.811 216.796 244.216 216.63L244.13 216.616C240.327 215.844 237.599 214.094 236.018 211.431C234.518 208.645 234.164 205.408 234.995 202.351L235.043 202.264L245.944 171.038L249.906 172.419L239.019 203.559C238.523 205.475 238.749 207.502 239.649 209.266C240.593 210.841 242.374 211.906 244.921 212.431C245.999 212.479 247.089 212.372 248.12 212.078C250.63 211.544 254.055 210.807 256.583 214.155C260.688 219.568 257.024 224.145 255.813 225.659C253.867 228.106 248.406 235.005 248.356 235.058Z" fill="#303030"/>
<path d="M197.05 81.195C207.934 85.0671 213.64 97.0593 209.756 107.973L201.369 131.566C197.502 142.462 185.523 148.172 174.621 144.284C163.737 140.412 158.031 128.419 161.914 117.506L170.318 93.8951C174.186 82.9995 186.148 77.3064 197.05 81.195Z" fill="#4B4B4B"/>
<path d="M276.39 139.685L265.056 131.827C267.964 127.601 270.313 123.019 272.004 118.187C281.385 91.7868 270.617 63.7763 247.998 55.7029C225.38 47.6295 199.324 62.5467 189.943 88.947L176.964 84.3111C188.91 50.7556 222.846 32.0862 252.628 42.7102C282.411 53.3341 296.929 89.2675 285.017 122.822C282.889 128.798 279.981 134.478 276.39 139.685Z" fill="#303030"/>
<path d="M270.896 128.711C279.716 136.505 280.571 149.987 272.786 158.815L266.398 166.072C258.613 174.9 245.146 175.755 236.327 167.961C227.507 160.168 226.652 146.686 234.437 137.858L240.825 130.601C248.61 121.772 262.077 120.918 270.896 128.711Z" fill="#303030"/>
<path d="M268.968 116.447C277.999 124.404 278.865 138.193 270.9 147.25L255.512 164.712C247.582 173.768 233.808 174.634 224.777 166.676C215.747 158.719 214.881 144.93 222.845 135.873L238.234 118.411C246.164 109.355 259.938 108.489 268.968 116.447Z" fill="#4B4B4B"/>
<path d="M184.584 83.6386C195.659 87.5894 201.441 99.7843 197.513 110.887L194.266 120.017C190.321 131.103 178.123 136.907 167.048 132.956C155.972 129.006 150.191 116.811 154.119 105.708L157.366 96.5785C161.328 85.4741 173.509 79.6878 184.584 83.6386Z" fill="#303030"/>
<path d="M259.528 123.162C264.078 127.174 264.513 134.12 260.506 138.675L244.889 156.418C240.882 160.973 233.944 161.408 229.394 157.396C224.843 153.385 224.408 146.439 228.415 141.884L244.032 124.141C248.056 119.568 254.977 119.151 259.528 123.162Z" fill="#303030"/>
<path d="M241.328 269.554L179.393 283.98C170.477 286.057 161.568 280.514 159.491 271.598L145.065 209.663C142.988 200.747 148.531 191.838 157.447 189.762L219.381 175.335C228.298 173.258 237.207 178.801 239.283 187.717L253.71 249.652C255.787 258.568 250.244 267.477 241.328 269.554Z" fill="#075CBC"/>
<path d="M231.545 177.227C226.153 174.248 215.115 168.204 214.094 167.863V178.93L228.14 184.037L231.545 177.227Z" fill="#075CBC"/>
<path d="M167.691 282.36L154.07 274.699L162.157 273.422L167.691 282.36Z" fill="#075CBC"/>
<path d="M226.203 261.242L164.268 275.668C155.352 277.745 146.443 272.202 144.366 263.286L129.94 201.351C127.863 192.435 133.406 183.526 142.322 181.449L204.256 167.023C213.173 164.946 222.082 170.489 224.158 179.405L238.585 241.34C240.662 250.256 235.119 259.165 226.203 261.242Z" fill="url(#paint0_linear_1125_3922)"/>
<path d="M176.673 189.195C192.848 185.428 208.747 192.467 215.331 205.309L223.962 203.298C216.263 186.249 195.768 176.717 174.899 181.578C154.029 186.439 139.86 204.045 140.488 222.742L149.118 220.732C149.347 206.303 160.499 192.963 176.673 189.195Z" fill="white"/>
<path d="M191.652 253.54C175.477 257.307 159.578 250.268 152.993 237.426L144.367 239.436C152.066 256.485 172.561 266.017 193.43 261.156C214.3 256.295 228.473 238.688 227.845 219.991L219.215 222.001C218.978 236.432 207.83 249.771 191.652 253.54Z" fill="white"/>
<path d="M161.219 215.498L160.566 215.65C156.384 216.633 153.762 220.863 154.745 225.046L156.363 231.938C157.346 236.121 161.572 238.743 165.755 237.76L166.408 237.608C170.591 236.625 173.213 232.399 172.23 228.217L170.612 221.324C169.632 217.137 165.402 214.515 161.219 215.498Z" fill="white"/>
<path d="M163.591 220.989L163.105 221.102C161.122 221.568 159.876 223.575 160.343 225.558L161.628 231.039C162.094 233.022 164.101 234.268 166.084 233.802L166.57 233.688C168.553 233.222 169.8 231.219 169.333 229.232L168.047 223.751C167.58 221.764 165.574 220.522 163.591 220.989Z" fill="black"/>
<path d="M163.614 222.185C163.862 223.251 163.206 224.312 162.141 224.564C161.076 224.812 160.015 224.156 159.762 223.091C159.514 222.026 160.171 220.965 161.235 220.712C162.3 220.46 163.366 221.12 163.614 222.185Z" fill="white"/>
<path d="M202.891 205.701L202.238 205.853C198.055 206.836 195.433 211.062 196.416 215.245L198.034 222.137C199.017 226.32 203.243 228.942 207.426 227.959L208.079 227.807C212.262 226.824 214.884 222.598 213.901 218.416L212.283 211.523C211.304 207.34 207.074 204.718 202.891 205.701Z" fill="white"/>
<path d="M202.872 211.716L202.407 211.824C200.505 212.272 199.313 214.193 199.76 216.095L200.992 221.347C201.44 223.249 203.36 224.437 205.263 223.994L205.728 223.885C207.63 223.438 208.822 221.516 208.375 219.615L207.143 214.362C206.696 212.461 204.775 211.273 202.872 211.716Z" fill="black"/>
<path d="M202.885 212.864C203.123 213.885 202.49 214.902 201.475 215.143C200.454 215.38 199.437 214.748 199.196 213.732C198.959 212.712 199.591 211.695 200.607 211.454C201.626 211.212 202.647 211.844 202.885 212.864Z" fill="white"/>
<defs>
<linearGradient id="paint0_linear_1125_3922" x1="195.234" y1="268.453" x2="173.288" y2="174.236" gradientUnits="userSpaceOnUse">
<stop stop-color="#0058D6"/>
<stop offset="0.6241" stop-color="#1392EB"/>
<stop offset="0.9916" stop-color="#1CB0F6"/>
</linearGradient>
<clipPath id="clip0_1125_3922">
<rect width="134.357" height="136.714" fill="white" transform="translate(329.531 221.557)"/>
</clipPath>
</defs>
</svg>
